//Event file generated from Sappy .s format.
	#include "../MPlayDef.event"

	#define	end_game_map_grp  voicegroup000
	#define	end_game_map_pri  0
	#define	end_game_map_rev  0
	#define	end_game_map_mvl  70
	#define	end_game_map_key  0
	#define	end_game_map_tbs  1
	#define	end_game_map_exg  0
	#define	end_game_map_cmp  1

	// .rodata
	//	end_game_map
	ALIGN 4

//**************** Track 1 (Midi-Chn.1) ****************//

end_game_map_1:
	BYTE	KEYSH   end_game_map_key+0
// 000   ----------------------------------------
	BYTE	TEMPO   154*end_game_map_tbs/2
	BYTE		VOICE   56
	BYTE		VOL     100*end_game_map_mvl/mxv
	BYTE		PAN     c_v+36
	BYTE		VOL     100*end_game_map_mvl/mxv
	BYTE	W96
// 001   ----------------------------------------
	BYTE	W96
// 002   ----------------------------------------
	BYTE	W96
// 003   ----------------------------------------
	BYTE	W96
// 004   ----------------------------------------
	BYTE	TEMPO   154*end_game_map_tbs/2
	BYTE	W96
// 005   ----------------------------------------
	BYTE	W96
// 006   ----------------------------------------
	BYTE	W96
// 007   ----------------------------------------
	BYTE	W96
// 008   ----------------------------------------
end_game_map_1_008:
	BYTE		N10     Dn4   v080
	BYTE	W12
	BYTE		N16     Dn5   v076
	BYTE	W18
	BYTE		N04     Dn4 
	BYTE	W06
	BYTE		N09     Cn5 
	BYTE	W12
	BYTE		N04     Dn5   v080
	BYTE	W06
	BYTE		        Cn5   v076
	BYTE	W06
	BYTE		        As4 
	BYTE	W06
	BYTE		        Dn5 
	BYTE	W06
	BYTE		        Gn4 
	BYTE	W06
	BYTE		        An4 
	BYTE	W06
	BYTE		        As4 
	BYTE	W05
	BYTE		        Dn5 
	BYTE	W07
	BYTE	PEND
// 009   ----------------------------------------
end_game_map_1_009:
	BYTE		N10     Dn4   v080
	BYTE	W12
	BYTE		N16     Dn5   v076
	BYTE	W18
	BYTE		N04     Dn4 
	BYTE	W06
	BYTE		N09     Cn5 
	BYTE	W12
	BYTE		N04     Dn5   v080
	BYTE	W06
	BYTE		        Cn5   v076
	BYTE	W06
	BYTE		        As4 
	BYTE	W06
	BYTE		        Dn5 
	BYTE	W06
	BYTE		        Fs4 
	BYTE	W06
	BYTE		        An4 
	BYTE	W06
	BYTE		        As4 
	BYTE	W05
	BYTE		        Cn5 
	BYTE	W07
	BYTE	PEND
// 010   ----------------------------------------
end_game_map_1_010:
	BYTE		N10     Dn4   v080
	BYTE	W12
	BYTE		N16     Dn5   v076
	BYTE	W18
	BYTE		N04     Dn4 
	BYTE	W06
	BYTE		N09     Cn5 
	BYTE	W12
	BYTE		N04     Dn5   v080
	BYTE	W06
	BYTE		        Cn5   v076
	BYTE	W06
	BYTE		        As4 
	BYTE	W06
	BYTE		        Dn5 
	BYTE	W06
	BYTE		        Fn4 
	BYTE	W06
	BYTE		        An4 
	BYTE	W06
	BYTE		        As4 
	BYTE	W05
	BYTE		        Cn5 
	BYTE	W07
	BYTE	PEND
// 011   ----------------------------------------
end_game_map_1_011:
	BYTE		N10     Dn5   v080
	BYTE	W12
	BYTE		N04     Cn5   v076
	BYTE	W06
	BYTE		N10     As4 
	BYTE	W12
	BYTE		N04     Dn5 
	BYTE	W06
	BYTE		N09     As4 
	BYTE	W12
	BYTE		N04     Gn4   v080
	BYTE	W06
	BYTE		        Gn5   v076
	BYTE	W06
	BYTE		        Fn4 
	BYTE	W06
	BYTE		        Fn5 
	BYTE	W06
	BYTE		        En4 
	BYTE	W06
	BYTE		        En5 
	BYTE	W06
	BYTE		        Gn4 
	BYTE	W05
	BYTE		        Gn5 
	BYTE	W07
	BYTE	PEND
// 012   ----------------------------------------
	BYTE	W96
// 013   ----------------------------------------
	BYTE	W96
// 014   ----------------------------------------
	BYTE	W96
// 015   ----------------------------------------
	BYTE	W96
// 016   ----------------------------------------
	BYTE	W96
// 017   ----------------------------------------
	BYTE	W96
// 018   ----------------------------------------
	BYTE	W96
// 019   ----------------------------------------
	BYTE	W96
// 020   ----------------------------------------
end_game_map_1_020:
	BYTE		N16     As3   v072
	BYTE		N16     Dn4   v088
	BYTE	W18
	BYTE		N15     Dn4   v068
	BYTE		N15     Gn4   v084
	BYTE	W18
	BYTE		N03     Dn4   v056
	BYTE		N03     Fs4   v072
	BYTE	W06
	BYTE		N04     Dn4   v056
	BYTE		N04     Gn4   v072
	BYTE	W06
	BYTE		N21     As3 
	BYTE		N21     Dn4   v084
	BYTE	W24
	BYTE		        Dn4   v068
	BYTE		N21     Gn4   v084
	BYTE	W24
	BYTE	PEND
// 021   ----------------------------------------
end_game_map_1_021:
	BYTE		N16     An3   v072
	BYTE		N16     Dn4   v088
	BYTE	W18
	BYTE		N15     Dn4   v068
	BYTE		N15     Gn4   v084
	BYTE	W18
	BYTE		N03     Dn4   v056
	BYTE		N03     Fs4   v072
	BYTE	W06
	BYTE		N04     Dn4   v056
	BYTE		N04     Gn4   v072
	BYTE	W06
	BYTE		N21     Fs4 
	BYTE		N21     An4   v084
	BYTE	W24
	BYTE		        An4   v068
	BYTE		N21     Cn5   v084
	BYTE	W24
	BYTE	PEND
// 022   ----------------------------------------
end_game_map_1_022:
	BYTE		N16     An3   v072
	BYTE		N16     Dn4   v088
	BYTE	W18
	BYTE		N15     Dn4   v068
	BYTE		N15     Gn4   v084
	BYTE	W18
	BYTE		N04     Fn4   v068
	BYTE		N04     As4   v084
	BYTE	W06
	BYTE		        An4   v068
	BYTE		N04     Cn5   v084
	BYTE	W06
	BYTE		N21     An4   v072
	BYTE		N21     Dn5   v084
	BYTE	W24
	BYTE		        Dn4   v068
	BYTE		N21     Fn4   v084
	BYTE	W24
	BYTE	PEND
// 023   ----------------------------------------
end_game_map_1_023:
	BYTE		N22     Ds4   v072
	BYTE		N22     Gn4   v088
	BYTE	W24
	BYTE		N09     As4   v068
	BYTE		N09     Dn5   v084
	BYTE	W12
	BYTE		        An4   v068
	BYTE		N09     Cn5   v084
	BYTE	W24
	BYTE		        Gn4   v068
	BYTE		N09     As4   v084
	BYTE	W24
	BYTE		        Fn4   v068
	BYTE		N09     An4   v084
	BYTE	W12
	BYTE	PEND
// 024   ----------------------------------------
end_game_map_1_024:
	BYTE		N22     Cn4   v072
	BYTE		N22     Fn4   v088
	BYTE	W24
	BYTE		N09     An4   v068
	BYTE		N09     Ds5   v084
	BYTE	W12
	BYTE		        An4   v068
	BYTE		N09     Dn5   v084
	BYTE	W24
	BYTE		        Cn5   v068
	BYTE		N09     Fn5   v084
	BYTE	W24
	BYTE		N32     As4   v068
	BYTE		N32     Dn5   v084
	BYTE	W12
	BYTE	PEND
// 025   ----------------------------------------
end_game_map_1_025:
	BYTE	W24
	BYTE		N09     An4   v068
	BYTE		N09     Cn5   v084
	BYTE	W12
	BYTE		        Fn4   v068
	BYTE		N09     As4   v084
	BYTE	W24
	BYTE		        As4   v068
	BYTE		N09     Dn5   v084
	BYTE	W24
	BYTE		        Dn4   v068
	BYTE		N09     Fn4   v084
	BYTE	W12
	BYTE	PEND
// 026   ----------------------------------------
end_game_map_1_026:
	BYTE		N10     Dn4   v072
	BYTE		N10     Fs4   v088
	BYTE	W12
	BYTE		N09     Fs4   v068
	BYTE		N09     An4   v084
	BYTE	W12
	BYTE		        An4   v068
	BYTE		N09     Ds5   v084
	BYTE	W12
	BYTE		        An4   v068
	BYTE		N09     Dn5   v084
	BYTE	W24
	BYTE		        Dn5   v068
	BYTE		N09     Fs5   v084
	BYTE	W24
	BYTE		        An4   v068
	BYTE		N09     Dn5   v084
	BYTE	W12
	BYTE	PEND
// 027   ----------------------------------------
end_game_map_1_027:
	BYTE		N10     Dn3   v072
	BYTE		N10     Gn3 
	BYTE		N10     As3   v088
	BYTE	W12
	BYTE		N09     Dn3   v068
	BYTE		N09     Gn3   v080
	BYTE		N09     As3   v076
	BYTE	W36
	BYTE		N08     Dn3   v060
	BYTE		N08     Fn3   v072
	BYTE		N08     As3   v064
	BYTE	W12
	BYTE		N09     Dn3   v056
	BYTE		N09     Fn3   v068
	BYTE		N08     As3   v064
	BYTE	W36
	BYTE	PEND
// 028   ----------------------------------------
end_game_map_1_028:
	BYTE		N09     Dn3   v060
	BYTE		N09     Gn3   v072
	BYTE		N09     As3   v068
	BYTE	W12
	BYTE		        Dn3   v056
	BYTE		N09     Gn3 
	BYTE		N08     As3   v072
	BYTE	W36
	BYTE		N09     Fs3 
	BYTE		N09     An3 
	BYTE		N09     Cn4   v084
	BYTE	W12
	BYTE		        Dn3   v068
	BYTE		N09     Fs3 
	BYTE		N09     An3   v084
	BYTE	W36
	BYTE	PEND
// 029   ----------------------------------------
end_game_map_1_029:
	BYTE		N09     Dn3   v060
	BYTE		N09     Gn3 
	BYTE		N09     As3   v076
	BYTE	W12
	BYTE		        Dn3   v056
	BYTE		N09     Gn3   v068
	BYTE		N08     As3   v064
	BYTE	W36
	BYTE		        Dn3   v060
	BYTE		N08     Fn3   v072
	BYTE		N08     As3   v064
	BYTE	W12
	BYTE		N09     Dn3   v056
	BYTE		N09     Fn3   v068
	BYTE		N08     As3   v064
	BYTE	W36
	BYTE	PEND
// 030   ----------------------------------------
	BYTE	PATT
	 POIN2	end_game_map_1_028
// 031   ----------------------------------------
	BYTE	PATT
	 POIN2	end_game_map_1_029
// 032   ----------------------------------------
	BYTE	PATT
	 POIN2	end_game_map_1_028
// 033   ----------------------------------------
	BYTE	PATT
	 POIN2	end_game_map_1_029
// 034   ----------------------------------------
	BYTE	PATT
	 POIN2	end_game_map_1_028
// 035   ----------------------------------------
	BYTE	W96
// 036   ----------------------------------------
	BYTE	W96
// 037   ----------------------------------------
	BYTE	W96
// 038   ----------------------------------------
	BYTE	W96
// 039   ----------------------------------------
	BYTE	W96
// 040   ----------------------------------------
	BYTE	W96
// 041   ----------------------------------------
	BYTE	W96
// 042   ----------------------------------------
	BYTE	W48
	BYTE		VOL     100*end_game_map_mvl/mxv
	BYTE	W48
// 043   ----------------------------------------
end_game_map_1_043:
	BYTE		N68     Dn3   v080
	BYTE	W05
	BYTE		VOL     100*end_game_map_mvl/mxv
	BYTE	W04
	BYTE		        100*end_game_map_mvl/mxv
	BYTE	W03
	BYTE		        100*end_game_map_mvl/mxv
	BYTE	W03
	BYTE		        100*end_game_map_mvl/mxv
	BYTE	W03
	BYTE		        100*end_game_map_mvl/mxv
	BYTE	W04
	BYTE		        100*end_game_map_mvl/mxv
	BYTE	W03
	BYTE		        100*end_game_map_mvl/mxv
	BYTE	W03
	BYTE		        100*end_game_map_mvl/mxv
	BYTE	W03
	BYTE		        100*end_game_map_mvl/mxv
	BYTE	W04
	BYTE		        100*end_game_map_mvl/mxv
	BYTE	W03
	BYTE		        100*end_game_map_mvl/mxv
	BYTE	W07
	BYTE		        100*end_game_map_mvl/mxv
	BYTE	W03
	BYTE		        100*end_game_map_mvl/mxv
	BYTE	W03
	BYTE		        100*end_game_map_mvl/mxv
	BYTE	W07
	BYTE		        100*end_game_map_mvl/mxv
	BYTE	W03
	BYTE		        100*end_game_map_mvl/mxv
	BYTE	W03
	BYTE		        100*end_game_map_mvl/mxv
	BYTE	W08
	BYTE		N21     Cn3 
	BYTE	W24
	BYTE	PEND
// 044   ----------------------------------------
end_game_map_1_044:
	BYTE		N44     Ds3   v084
	BYTE	W48
	BYTE		N92     Fs3 
	BYTE	W09
	BYTE		VOL     100*end_game_map_mvl/mxv
	BYTE	W03
	BYTE		        100*end_game_map_mvl/mxv
	BYTE	W03
	BYTE		        100*end_game_map_mvl/mxv
	BYTE	W07
	BYTE		        100*end_game_map_mvl/mxv
	BYTE	W03
	BYTE		        100*end_game_map_mvl/mxv
	BYTE	W03
	BYTE		        100*end_game_map_mvl/mxv
	BYTE	W07
	BYTE		        100*end_game_map_mvl/mxv
	BYTE	W03
	BYTE		        100*end_game_map_mvl/mxv
	BYTE	W10
	BYTE	PEND
// 045   ----------------------------------------
end_game_map_1_045:
	BYTE	W03
	BYTE		VOL     100*end_game_map_mvl/mxv
	BYTE	W06
	BYTE		        100*end_game_map_mvl/mxv
	BYTE	W06
	BYTE		        100*end_game_map_mvl/mxv
	BYTE	W07
	BYTE		        100*end_game_map_mvl/mxv
	BYTE	W06
	BYTE		        100*end_game_map_mvl/mxv
	BYTE	W06
	BYTE		        100*end_game_map_mvl/mxv
	BYTE	W14
	BYTE		N44     Dn3   v084
	BYTE	W48
	BYTE	PEND
// 046   ----------------------------------------
end_game_map_1_046:
	BYTE		N92     As2   v080
	BYTE	W09
	BYTE		VOL     100*end_game_map_mvl/mxv
	BYTE	W03
	BYTE		        100*end_game_map_mvl/mxv
	BYTE	W03
	BYTE		        100*end_game_map_mvl/mxv
	BYTE	W07
	BYTE		        100*end_game_map_mvl/mxv
	BYTE	W03
	BYTE		        100*end_game_map_mvl/mxv
	BYTE	W04
	BYTE		        100*end_game_map_mvl/mxv
	BYTE	W07
	BYTE		        100*end_game_map_mvl/mxv
	BYTE	W03
	BYTE		        100*end_game_map_mvl/mxv
	BYTE	W12
	BYTE		        100*end_game_map_mvl/mxv
	BYTE	W06
	BYTE		        100*end_game_map_mvl/mxv
	BYTE	W06
	BYTE		        100*end_game_map_mvl/mxv
	BYTE	W06
	BYTE		        100*end_game_map_mvl/mxv
	BYTE	W07
	BYTE		        100*end_game_map_mvl/mxv
	BYTE	W06
	BYTE		        100*end_game_map_mvl/mxv
	BYTE	W14
	BYTE	PEND
// 047   ----------------------------------------
end_game_map_1_047:
	BYTE		N44     Fs3   v084
	BYTE	W48
	BYTE		        Dn3 
	BYTE	W48
	BYTE	PEND
// 048   ----------------------------------------
end_game_map_1_048:
	BYTE		N44     Gs2   v084
	BYTE	W48
	BYTE		        En3 
	BYTE	W48
	BYTE	PEND
// 049   ----------------------------------------
end_game_map_1_049:
	BYTE		N92     Cs3   v080
	BYTE	W09
	BYTE		VOL     100*end_game_map_mvl/mxv
	BYTE	W03
	BYTE		        100*end_game_map_mvl/mxv
	BYTE	W03
	BYTE		        100*end_game_map_mvl/mxv
	BYTE	W07
	BYTE		        100*end_game_map_mvl/mxv
	BYTE	W03
	BYTE		        100*end_game_map_mvl/mxv
	BYTE	W04
	BYTE		        100*end_game_map_mvl/mxv
	BYTE	W07
	BYTE		        100*end_game_map_mvl/mxv
	BYTE	W03
	BYTE		        100*end_game_map_mvl/mxv
	BYTE	W12
	BYTE		        100*end_game_map_mvl/mxv
	BYTE	W06
	BYTE		        100*end_game_map_mvl/mxv
	BYTE	W06
	BYTE		        100*end_game_map_mvl/mxv
	BYTE	W06
	BYTE		        100*end_game_map_mvl/mxv
	BYTE	W07
	BYTE		        100*end_game_map_mvl/mxv
	BYTE	W06
	BYTE		        100*end_game_map_mvl/mxv
	BYTE	W14
	BYTE	PEND
// 050   ----------------------------------------
end_game_map_1_050:
	BYTE		N92     En3   v080
	BYTE	W09
	BYTE		VOL     100*end_game_map_mvl/mxv
	BYTE	W03
	BYTE		        100*end_game_map_mvl/mxv
	BYTE	W03
	BYTE		        100*end_game_map_mvl/mxv
	BYTE	W07
	BYTE		        100*end_game_map_mvl/mxv
	BYTE	W03
	BYTE		        100*end_game_map_mvl/mxv
	BYTE	W04
	BYTE		        100*end_game_map_mvl/mxv
	BYTE	W07
	BYTE		        100*end_game_map_mvl/mxv
	BYTE	W03
	BYTE		        100*end_game_map_mvl/mxv
	BYTE	W03
	BYTE		        100*end_game_map_mvl/mxv
	BYTE	W03
	BYTE		        100*end_game_map_mvl/mxv
	BYTE	W03
	BYTE		        100*end_game_map_mvl/mxv
	BYTE	W03
	BYTE		        100*end_game_map_mvl/mxv
	BYTE	W03
	BYTE		        100*end_game_map_mvl/mxv
	BYTE	W03
	BYTE		        100*end_game_map_mvl/mxv
	BYTE	W03
	BYTE		        100*end_game_map_mvl/mxv
	BYTE	W03
	BYTE		        100*end_game_map_mvl/mxv
	BYTE	W03
	BYTE		        100*end_game_map_mvl/mxv
	BYTE	W03
	BYTE		        100*end_game_map_mvl/mxv
	BYTE	W03
	BYTE		        100*end_game_map_mvl/mxv
	BYTE	W04
	BYTE		        100*end_game_map_mvl/mxv
	BYTE	W03
	BYTE		        100*end_game_map_mvl/mxv
	BYTE	W03
	BYTE		        100*end_game_map_mvl/mxv
	BYTE	W03
	BYTE		        100*end_game_map_mvl/mxv
	BYTE	W03
	BYTE		        100*end_game_map_mvl/mxv
	BYTE	W03
	BYTE		        100*end_game_map_mvl/mxv
	BYTE	W03
	BYTE		        100*end_game_map_mvl/mxv
	BYTE	W02
	BYTE	PEND
// 051   ----------------------------------------
end_game_map_1_051:
	BYTE	W44
	BYTE	W03
	BYTE		VOL     100*end_game_map_mvl/mxv
	BYTE	W48
	BYTE	W01
	BYTE	PEND
// 052   ----------------------------------------
	BYTE	W96
// 053   ----------------------------------------
	BYTE	W96
// 054   ----------------------------------------
	BYTE	W96
// 055   ----------------------------------------
	BYTE	W96
// 056   ----------------------------------------
	BYTE	W96
// 057   ----------------------------------------
	BYTE	W96
// 058   ----------------------------------------
	BYTE	W96
// 059   ----------------------------------------
	BYTE	W96
// 060   ----------------------------------------
	BYTE	W96
// 061   ----------------------------------------
	BYTE	W96
// 062   ----------------------------------------
	BYTE	W96
// 063   ----------------------------------------
	BYTE	W96
// 064   ----------------------------------------
	BYTE	W96
// 065   ----------------------------------------
	BYTE	W96
// 066   ----------------------------------------
	BYTE	W96
// 067   ----------------------------------------
end_game_map_1_067:
	BYTE		N09     Dn3   v060
	BYTE		N09     Gn3 
	BYTE		N09     As3   v072
	BYTE	W12
	BYTE		        Dn3   v056
	BYTE		N09     Gn3   v068
	BYTE		N08     As3   v064
	BYTE	W36
	BYTE		        Dn3   v060
	BYTE		N08     Fn3   v072
	BYTE		N08     As3   v064
	BYTE	W12
	BYTE		N09     Dn3   v056
	BYTE		N09     Fn3   v068
	BYTE		N08     As3   v064
	BYTE	W36
	BYTE	PEND
// 068   ----------------------------------------
	BYTE	PATT
	 POIN2	end_game_map_1_028
// 069   ----------------------------------------
	BYTE	PATT
	 POIN2	end_game_map_1_029
// 070   ----------------------------------------
	BYTE	PATT
	 POIN2	end_game_map_1_028
// 071   ----------------------------------------
	BYTE	PATT
	 POIN2	end_game_map_1_029
// 072   ----------------------------------------
	BYTE	PATT
	 POIN2	end_game_map_1_028
// 073   ----------------------------------------
	BYTE	PATT
	 POIN2	end_game_map_1_029
// 074   ----------------------------------------
	BYTE	PATT
	 POIN2	end_game_map_1_028
// 075   ----------------------------------------
	BYTE	TEMPO   154*end_game_map_tbs/2
	BYTE	W96
// 076   ----------------------------------------
	BYTE	W96
// 077   ----------------------------------------
	BYTE	W96
// 078   ----------------------------------------
	BYTE	W96
// 079   ----------------------------------------
	BYTE	PATT
	 POIN2	end_game_map_1_008
// 080   ----------------------------------------
	BYTE	PATT
	 POIN2	end_game_map_1_009
// 081   ----------------------------------------
	BYTE	PATT
	 POIN2	end_game_map_1_010
// 082   ----------------------------------------
	BYTE	PATT
	 POIN2	end_game_map_1_011
// 083   ----------------------------------------
	BYTE	W96
// 084   ----------------------------------------
	BYTE	W96
// 085   ----------------------------------------
	BYTE	W96
// 086   ----------------------------------------
	BYTE	W96
// 087   ----------------------------------------
	BYTE	W96
// 088   ----------------------------------------
	BYTE	W96
// 089   ----------------------------------------
	BYTE	W96
// 090   ----------------------------------------
	BYTE	W96
// 091   ----------------------------------------
	BYTE	PATT
	 POIN2	end_game_map_1_020
// 092   ----------------------------------------
	BYTE	PATT
	 POIN2	end_game_map_1_021
// 093   ----------------------------------------
	BYTE	PATT
	 POIN2	end_game_map_1_022
// 094   ----------------------------------------
	BYTE	PATT
	 POIN2	end_game_map_1_023
// 095   ----------------------------------------
	BYTE	PATT
	 POIN2	end_game_map_1_024
// 096   ----------------------------------------
	BYTE	PATT
	 POIN2	end_game_map_1_025
// 097   ----------------------------------------
	BYTE	PATT
	 POIN2	end_game_map_1_026
// 098   ----------------------------------------
	BYTE	PATT
	 POIN2	end_game_map_1_027
// 099   ----------------------------------------
	BYTE	PATT
	 POIN2	end_game_map_1_028
// 100   ----------------------------------------
	BYTE	PATT
	 POIN2	end_game_map_1_029
// 101   ----------------------------------------
	BYTE	PATT
	 POIN2	end_game_map_1_028
// 102   ----------------------------------------
	BYTE	PATT
	 POIN2	end_game_map_1_029
// 103   ----------------------------------------
	BYTE	PATT
	 POIN2	end_game_map_1_028
// 104   ----------------------------------------
	BYTE	PATT
	 POIN2	end_game_map_1_029
// 105   ----------------------------------------
	BYTE	PATT
	 POIN2	end_game_map_1_028
// 106   ----------------------------------------
	BYTE	W96
// 107   ----------------------------------------
	BYTE	W96
// 108   ----------------------------------------
	BYTE	W96
// 109   ----------------------------------------
	BYTE	W96
// 110   ----------------------------------------
	BYTE	W96
// 111   ----------------------------------------
	BYTE	W96
// 112   ----------------------------------------
	BYTE	W96
// 113   ----------------------------------------
	BYTE	W48
	BYTE		VOL     100*end_game_map_mvl/mxv
	BYTE	W48
// 114   ----------------------------------------
	BYTE	PATT
	 POIN2	end_game_map_1_043
// 115   ----------------------------------------
	BYTE	PATT
	 POIN2	end_game_map_1_044
// 116   ----------------------------------------
	BYTE	PATT
	 POIN2	end_game_map_1_045
// 117   ----------------------------------------
	BYTE	PATT
	 POIN2	end_game_map_1_046
// 118   ----------------------------------------
	BYTE	PATT
	 POIN2	end_game_map_1_047
// 119   ----------------------------------------
	BYTE	PATT
	 POIN2	end_game_map_1_048
// 120   ----------------------------------------
	BYTE	PATT
	 POIN2	end_game_map_1_049
// 121   ----------------------------------------
	BYTE	PATT
	 POIN2	end_game_map_1_050
// 122   ----------------------------------------
	BYTE	PATT
	 POIN2	end_game_map_1_051
// 123   ----------------------------------------
	BYTE	W96
// 124   ----------------------------------------
	BYTE	W96
// 125   ----------------------------------------
	BYTE	W96
// 126   ----------------------------------------
	BYTE	W96
// 127   ----------------------------------------
	BYTE	W96
// 128   ----------------------------------------
	BYTE	W96
// 129   ----------------------------------------
	BYTE	W96
// 130   ----------------------------------------
	BYTE	W96
// 131   ----------------------------------------
	BYTE	W96
// 132   ----------------------------------------
	BYTE	W96
// 133   ----------------------------------------
	BYTE	W96
// 134   ----------------------------------------
	BYTE	W96
// 135   ----------------------------------------
	BYTE	W96
// 136   ----------------------------------------
	BYTE	W96
// 137   ----------------------------------------
	BYTE	W96
// 138   ----------------------------------------
	BYTE	PATT
	 POIN2	end_game_map_1_067
// 139   ----------------------------------------
	BYTE	PATT
	 POIN2	end_game_map_1_028
// 140   ----------------------------------------
	BYTE	PATT
	 POIN2	end_game_map_1_029
// 141   ----------------------------------------
	BYTE	PATT
	 POIN2	end_game_map_1_028
// 142   ----------------------------------------
	BYTE	PATT
	 POIN2	end_game_map_1_029
// 143   ----------------------------------------
	BYTE	PATT
	 POIN2	end_game_map_1_028
// 144   ----------------------------------------
	BYTE	PATT
	 POIN2	end_game_map_1_029
// 145   ----------------------------------------
	BYTE		N09     Dn3   v060
	BYTE		N09     Gn3   v072
	BYTE		N09     As3   v068
	BYTE	W12
	BYTE		        Dn3   v056
	BYTE		N09     Gn3 
	BYTE		N08     As3   v072
	BYTE	W36
	BYTE		N09     Fs3 
	BYTE		N09     An3 
	BYTE		N09     Cn4   v084
	BYTE	W12
	BYTE		        Dn3   v068
	BYTE		N09     Fs3 
	BYTE		N09     An3   v084
	BYTE	W32
	BYTE	W03
	BYTE	FINE

//**************** Track 2 (Midi-Chn.10) ****************//

end_game_map_2:
	BYTE	KEYSH   end_game_map_key+0
// 000   ----------------------------------------
	BYTE		VOICE   48
	BYTE		VOL     100*end_game_map_mvl/mxv
	BYTE		PAN     c_v+36
	BYTE		VOL     100*end_game_map_mvl/mxv
	BYTE	W96
// 001   ----------------------------------------
	BYTE	W96
// 002   ----------------------------------------
	BYTE	W96
// 003   ----------------------------------------
	BYTE	W96
// 004   ----------------------------------------
end_game_map_2_004:
	BYTE		N12     Dn1   v072
	BYTE	W13
	BYTE		N11     Dn1   v064
	BYTE	W12
	BYTE		        Dn1   v068
	BYTE	W11
	BYTE		        Dn1   v064
	BYTE	W12
	BYTE		N05     Dn1   v068
	BYTE	W07
	BYTE		        Dn1   v064
	BYTE	W05
	BYTE		N05   
	BYTE	W06
	BYTE		N05   
	BYTE	W06
	BYTE		N11     Dn1   v068
	BYTE	W12
	BYTE		        Dn1   v064
	BYTE	W12
	BYTE	PEND
// 005   ----------------------------------------
end_game_map_2_005:
	BYTE		N12     Dn1   v072
	BYTE	W12
	BYTE		N11     Dn1   v064
	BYTE	W13
	BYTE		        Dn1   v068
	BYTE	W11
	BYTE		        Dn1   v064
	BYTE	W12
	BYTE		N05     Dn1   v068
	BYTE	W07
	BYTE		        Dn1   v064
	BYTE	W05
	BYTE		N05   
	BYTE	W06
	BYTE		N05   
	BYTE	W06
	BYTE		N11     Dn1   v068
	BYTE	W12
	BYTE		        Dn1   v064
	BYTE	W12
	BYTE	PEND
// 006   ----------------------------------------
end_game_map_2_006:
	BYTE		N12     Dn1   v072
	BYTE	W13
	BYTE		N11     Dn1   v064
	BYTE	W12
	BYTE		        Dn1   v068
	BYTE	W12
	BYTE		        Dn1   v064
	BYTE	W12
	BYTE		N05     Dn1   v068
	BYTE	W06
	BYTE		        Dn1   v064
	BYTE	W05
	BYTE		N05   
	BYTE	W06
	BYTE		N05   
	BYTE	W06
	BYTE		N11     Dn1   v068
	BYTE	W12
	BYTE		        Dn1   v064
	BYTE	W12
	BYTE	PEND
// 007   ----------------------------------------
	BYTE	PATT
	 POIN2	end_game_map_2_005
// 008   ----------------------------------------
end_game_map_2_008:
	BYTE		N12     Dn1   v072
	BYTE	W13
	BYTE		N11     Dn1   v064
	BYTE	W12
	BYTE		        Dn1   v068
	BYTE	W11
	BYTE		        Dn1   v064
	BYTE	W13
	BYTE		N05     Dn1   v068
	BYTE	W05
	BYTE		        Dn1   v064
	BYTE	W07
	BYTE		N05   
	BYTE	W05
	BYTE		N05   
	BYTE	W06
	BYTE		N11     Dn1   v068
	BYTE	W12
	BYTE		        Dn1   v064
	BYTE	W12
	BYTE	PEND
// 009   ----------------------------------------
end_game_map_2_009:
	BYTE		N12     Dn1   v072
	BYTE	W13
	BYTE		N11     Dn1   v064
	BYTE	W11
	BYTE		        Dn1   v068
	BYTE	W13
	BYTE		        Dn1   v064
	BYTE	W11
	BYTE		N06     Dn1   v068
	BYTE	W06
	BYTE		N05     Dn1   v064
	BYTE	W07
	BYTE		N05   
	BYTE	W05
	BYTE		N05   
	BYTE	W06
	BYTE		N11     Dn1   v068
	BYTE	W12
	BYTE		        Dn1   v064
	BYTE	W12
	BYTE	PEND
// 010   ----------------------------------------
end_game_map_2_010:
	BYTE		N12     Dn1   v072
	BYTE	W12
	BYTE		N11     Dn1   v064
	BYTE	W13
	BYTE		        Dn1   v068
	BYTE	W11
	BYTE		        Dn1   v064
	BYTE	W13
	BYTE		N05     Dn1   v068
	BYTE	W06
	BYTE		        Dn1   v064
	BYTE	W06
	BYTE		N05   
	BYTE	W05
	BYTE		N05   
	BYTE	W06
	BYTE		N11     Dn1   v068
	BYTE	W12
	BYTE		        Dn1   v064
	BYTE	W12
	BYTE	PEND
// 011   ----------------------------------------
end_game_map_2_011:
	BYTE		N12     Dn1   v072
	BYTE	W13
	BYTE		N11     Dn1   v064
	BYTE	W12
	BYTE		        Dn1   v068
	BYTE	W11
	BYTE		        Dn1   v064
	BYTE	W12
	BYTE		N06     Dn1   v068
	BYTE	W07
	BYTE		N05     Dn1   v064
	BYTE	W05
	BYTE		N05   
	BYTE	W06
	BYTE		N05   
	BYTE	W06
	BYTE		N02     Dn1   v068
	BYTE	W03
	BYTE		        Dn1   v064
	BYTE	W03
	BYTE		N02   
	BYTE	W03
	BYTE		N02   
	BYTE	W03
	BYTE		N02   
	BYTE	W03
	BYTE		N02   
	BYTE	W03
	BYTE		N02   
	BYTE	W03
	BYTE		N02   
	BYTE	W03
	BYTE	PEND
// 012   ----------------------------------------
end_game_map_2_012:
	BYTE		N12     Dn1   v072
	BYTE		N12     Bn2 
	BYTE	W12
	BYTE		N11     Dn1   v064
	BYTE	W12
	BYTE		        Dn1   v068
	BYTE	W13
	BYTE		        Dn1   v064
	BYTE	W11
	BYTE		N05     Dn1   v068
	BYTE	W06
	BYTE		        Dn1   v064
	BYTE	W06
	BYTE		N05   
	BYTE	W06
	BYTE		N05   
	BYTE	W06
	BYTE		N11     Dn1   v068
	BYTE	W12
	BYTE		        Dn1   v064
	BYTE	W12
	BYTE	PEND
// 013   ----------------------------------------
end_game_map_2_013:
	BYTE		N12     Dn1   v072
	BYTE	W12
	BYTE		N11     Dn1   v064
	BYTE	W13
	BYTE		        Dn1   v068
	BYTE	W12
	BYTE		        Dn1   v064
	BYTE	W12
	BYTE		N05     Dn1   v068
	BYTE	W05
	BYTE		        Dn1   v064
	BYTE	W06
	BYTE		N05   
	BYTE	W06
	BYTE		N05   
	BYTE	W06
	BYTE		N11     Dn1   v068
	BYTE	W12
	BYTE		        Dn1   v064
	BYTE	W12
	BYTE	PEND
// 014   ----------------------------------------
	BYTE	PATT
	 POIN2	end_game_map_2_006
// 015   ----------------------------------------
end_game_map_2_015:
	BYTE		N12     Dn1   v072
	BYTE	W13
	BYTE		N11     Dn1   v064
	BYTE	W12
	BYTE		        Dn1   v068
	BYTE	W11
	BYTE		        Dn1   v064
	BYTE	W13
	BYTE		N05     Dn1   v068
	BYTE	W06
	BYTE		        Dn1   v064
	BYTE	W05
	BYTE		N05   
	BYTE	W06
	BYTE		N05   
	BYTE	W06
	BYTE		N11     Dn1   v068
	BYTE	W12
	BYTE		        Dn1   v064
	BYTE	W12
	BYTE	PEND
// 016   ----------------------------------------
	BYTE	PATT
	 POIN2	end_game_map_2_006
// 017   ----------------------------------------
end_game_map_2_017:
	BYTE		N12     Dn1   v072
	BYTE	W13
	BYTE		N11     Dn1   v064
	BYTE	W11
	BYTE		        Dn1   v068
	BYTE	W13
	BYTE		        Dn1   v064
	BYTE	W11
	BYTE		N05     Dn1   v068
	BYTE	W07
	BYTE		        Dn1   v064
	BYTE	W05
	BYTE		N05   
	BYTE	W06
	BYTE		N05   
	BYTE	W06
	BYTE		N11     Dn1   v068
	BYTE	W12
	BYTE		        Dn1   v064
	BYTE	W12
	BYTE	PEND
// 018   ----------------------------------------
end_game_map_2_018:
	BYTE		N12     Dn1   v072
	BYTE	W12
	BYTE		N11     Dn1   v064
	BYTE	W12
	BYTE		        Dn1   v068
	BYTE	W12
	BYTE		        Dn1   v064
	BYTE	W12
	BYTE		N05     Dn1   v068
	BYTE	W07
	BYTE		        Dn1   v064
	BYTE	W05
	BYTE		N05   
	BYTE	W06
	BYTE		N05   
	BYTE	W06
	BYTE		N11     Dn1   v068
	BYTE	W12
	BYTE		        Dn1   v064
	BYTE	W12
	BYTE	PEND
// 019   ----------------------------------------
end_game_map_2_019:
	BYTE		N12     Dn1   v072
	BYTE	W13
	BYTE		N11     Dn1   v064
	BYTE	W12
	BYTE		        Dn1   v068
	BYTE	W11
	BYTE		        Dn1   v064
	BYTE	W13
	BYTE		N05     Dn1   v068
	BYTE	W05
	BYTE		        Dn1   v064
	BYTE	W06
	BYTE		N05   
	BYTE	W06
	BYTE		N05   
	BYTE	W06
	BYTE		N11     Dn1   v068
	BYTE	W12
	BYTE		N02     Dn1   v064
	BYTE	W03
	BYTE		N02   
	BYTE	W03
	BYTE		N02   
	BYTE	W02
	BYTE		N03   
	BYTE	W04
	BYTE	PEND
// 020   ----------------------------------------
end_game_map_2_020:
	BYTE		N12     Dn1   v072
	BYTE		N12     Bn2 
	BYTE	W12
	BYTE		N11     Dn1   v064
	BYTE	W13
	BYTE		        Dn1   v068
	BYTE	W11
	BYTE		        Dn1   v064
	BYTE	W12
	BYTE		N06     Dn1   v068
	BYTE	W07
	BYTE		N05     Dn1   v064
	BYTE	W05
	BYTE		N05   
	BYTE	W06
	BYTE		N05   
	BYTE	W06
	BYTE		N11     Dn1   v068
	BYTE	W12
	BYTE		        Dn1   v064
	BYTE	W12
	BYTE	PEND
// 021   ----------------------------------------
end_game_map_2_021:
	BYTE		N12     Dn1   v072
	BYTE	W13
	BYTE		N11     Dn1   v064
	BYTE	W11
	BYTE		        Dn1   v068
	BYTE	W13
	BYTE		        Dn1   v064
	BYTE	W12
	BYTE		N05     Dn1   v068
	BYTE	W06
	BYTE		        Dn1   v064
	BYTE	W06
	BYTE		N05   
	BYTE	W05
	BYTE		N05   
	BYTE	W06
	BYTE		N11     Dn1   v068
	BYTE	W12
	BYTE		        Dn1   v064
	BYTE	W12
	BYTE	PEND
// 022   ----------------------------------------
end_game_map_2_022:
	BYTE		N12     Dn1   v072
	BYTE	W13
	BYTE		N11     Dn1   v064
	BYTE	W11
	BYTE		        Dn1   v068
	BYTE	W12
	BYTE		        Dn1   v064
	BYTE	W13
	BYTE		N05     Dn1   v068
	BYTE	W05
	BYTE		        Dn1   v064
	BYTE	W06
	BYTE		N05   
	BYTE	W06
	BYTE		N05   
	BYTE	W06
	BYTE		N11     Dn1   v068
	BYTE	W12
	BYTE		        Dn1   v064
	BYTE	W12
	BYTE	PEND
// 023   ----------------------------------------
end_game_map_2_023:
	BYTE		N12     Dn1   v072
	BYTE	W13
	BYTE		N11     Dn1   v064
	BYTE	W12
	BYTE		        Dn1   v068
	BYTE	W11
	BYTE		        Dn1   v064
	BYTE	W12
	BYTE		N06     Dn1   v068
	BYTE	W07
	BYTE		N05     Dn1   v064
	BYTE	W05
	BYTE		N05   
	BYTE	W06
	BYTE		N05   
	BYTE	W06
	BYTE		N11     Dn1   v068
	BYTE	W12
	BYTE		        Dn1   v064
	BYTE	W12
	BYTE	PEND
// 024   ----------------------------------------
end_game_map_2_024:
	BYTE		N12     Dn1   v072
	BYTE	W13
	BYTE		N11     Dn1   v064
	BYTE	W11
	BYTE		        Dn1   v068
	BYTE	W12
	BYTE		        Dn1   v064
	BYTE	W13
	BYTE		N05     Dn1   v068
	BYTE	W06
	BYTE		        Dn1   v064
	BYTE	W06
	BYTE		N05   
	BYTE	W05
	BYTE		N05   
	BYTE	W06
	BYTE		N11     Dn1   v068
	BYTE	W12
	BYTE		        Dn1   v064
	BYTE	W12
	BYTE	PEND
// 025   ----------------------------------------
end_game_map_2_025:
	BYTE		N12     Dn1   v072
	BYTE	W12
	BYTE		N11     Dn1   v064
	BYTE	W12
	BYTE		        Dn1   v068
	BYTE	W13
	BYTE		        Dn1   v064
	BYTE	W12
	BYTE		N05     Dn1   v068
	BYTE	W06
	BYTE		        Dn1   v064
	BYTE	W05
	BYTE		N05   
	BYTE	W06
	BYTE		N05   
	BYTE	W06
	BYTE		N11     Dn1   v068
	BYTE	W12
	BYTE		        Dn1   v064
	BYTE	W12
	BYTE	PEND
// 026   ----------------------------------------
	BYTE	PATT
	 POIN2	end_game_map_2_017
// 027   ----------------------------------------
end_game_map_2_027:
	BYTE		N12     Bn0   v072
	BYTE		N12     Bn2 
	BYTE	W12
	BYTE		N11     En0   v064
	BYTE	W12
	BYTE		        Bn0   v068
	BYTE	W12
	BYTE		        En0   v064
	BYTE	W12
	BYTE		        Bn0   v068
	BYTE	W12
	BYTE		        En0   v064
	BYTE	W12
	BYTE		        Bn0   v068
	BYTE	W12
	BYTE		        En0   v064
	BYTE	W12
	BYTE	PEND
// 028   ----------------------------------------
end_game_map_2_028:
	BYTE		N12     Bn0   v072
	BYTE	W12
	BYTE		N11     En0   v064
	BYTE	W12
	BYTE		        Bn0   v068
	BYTE	W12
	BYTE		        En0   v064
	BYTE	W12
	BYTE		        Bn0   v068
	BYTE	W12
	BYTE		        En0   v064
	BYTE	W12
	BYTE		        Bn0   v068
	BYTE	W12
	BYTE		        En0   v064
	BYTE	W12
	BYTE	PEND
// 029   ----------------------------------------
	BYTE	PATT
	 POIN2	end_game_map_2_028
// 030   ----------------------------------------
	BYTE	PATT
	 POIN2	end_game_map_2_028
// 031   ----------------------------------------
	BYTE	PATT
	 POIN2	end_game_map_2_028
// 032   ----------------------------------------
	BYTE	PATT
	 POIN2	end_game_map_2_028
// 033   ----------------------------------------
	BYTE	PATT
	 POIN2	end_game_map_2_028
// 034   ----------------------------------------
end_game_map_2_034:
	BYTE		N12     Bn0   v072
	BYTE	W12
	BYTE		N11     En0   v064
	BYTE	W12
	BYTE		        Bn0   v068
	BYTE	W12
	BYTE		        En0   v064
	BYTE	W12
	BYTE		        Bn0   v068
	BYTE	W12
	BYTE		        En0   v064
	BYTE	W12
	BYTE		        Bn0   v068
	BYTE	W12
	BYTE		N05     En0   v064
	BYTE		N05     Dn1 
	BYTE	W05
	BYTE		N06   
	BYTE	W07
	BYTE	PEND
// 035   ----------------------------------------
	BYTE		N12     Bn2   v072
	BYTE	W96
// 036   ----------------------------------------
	BYTE	W96
// 037   ----------------------------------------
	BYTE	W96
// 038   ----------------------------------------
	BYTE	W96
// 039   ----------------------------------------
	BYTE	W96
// 040   ----------------------------------------
	BYTE	W96
// 041   ----------------------------------------
	BYTE	W96
// 042   ----------------------------------------
	BYTE	W96
// 043   ----------------------------------------
end_game_map_2_043:
	BYTE		N06     En0   v072
	BYTE	W07
	BYTE		N05     En0   v064
	BYTE	W06
	BYTE		N05   
	BYTE	W05
	BYTE		N05   
	BYTE	W07
	BYTE		        En0   v068
	BYTE	W06
	BYTE		        En0   v064
	BYTE	W06
	BYTE		N05   
	BYTE	W05
	BYTE		N06   
	BYTE	W07
	BYTE		N05     En0   v068
	BYTE	W06
	BYTE		        En0   v064
	BYTE	W05
	BYTE		N05   
	BYTE	W06
	BYTE		N05   
	BYTE	W06
	BYTE		        En0   v068
	BYTE	W06
	BYTE		        En0   v064
	BYTE	W06
	BYTE		N05   
	BYTE	W06
	BYTE		N05   
	BYTE	W06
	BYTE	PEND
// 044   ----------------------------------------
end_game_map_2_044:
	BYTE		N06     En0   v072
	BYTE	W07
	BYTE		N05     En0   v064
	BYTE	W05
	BYTE		N05   
	BYTE	W06
	BYTE		N05   
	BYTE	W06
	BYTE		        En0   v068
	BYTE	W06
	BYTE		        En0   v064
	BYTE	W06
	BYTE		N05   
	BYTE	W06
	BYTE		N05   
	BYTE	W07
	BYTE		        En0   v068
	BYTE	W05
	BYTE		        En0   v064
	BYTE	W06
	BYTE		N05   
	BYTE	W06
	BYTE		N05   
	BYTE	W06
	BYTE		        En0   v068
	BYTE	W06
	BYTE		        En0   v064
	BYTE	W06
	BYTE		N05   
	BYTE	W06
	BYTE		N05   
	BYTE	W06
	BYTE	PEND
// 045   ----------------------------------------
end_game_map_2_045:
	BYTE		N06     En0   v072
	BYTE	W07
	BYTE		N05     En0   v064
	BYTE	W06
	BYTE		N05   
	BYTE	W05
	BYTE		N05   
	BYTE	W06
	BYTE		        En0   v068
	BYTE	W06
	BYTE		        En0   v064
	BYTE	W06
	BYTE		N05   
	BYTE	W06
	BYTE		N05   
	BYTE	W06
	BYTE		N06     En0   v068
	BYTE	W07
	BYTE		N05     En0   v064
	BYTE	W05
	BYTE		N05   
	BYTE	W06
	BYTE		N05   
	BYTE	W06
	BYTE		        En0   v068
	BYTE	W06
	BYTE		        En0   v064
	BYTE	W06
	BYTE		N05   
	BYTE	W06
	BYTE		N05   
	BYTE	W06
	BYTE	PEND
// 046   ----------------------------------------
end_game_map_2_046:
	BYTE		N06     En0   v072
	BYTE	W07
	BYTE		N05     En0   v064
	BYTE	W05
	BYTE		N05   
	BYTE	W07
	BYTE		N05   
	BYTE	W06
	BYTE		        En0   v068
	BYTE	W06
	BYTE		        En0   v064
	BYTE	W06
	BYTE		N05   
	BYTE	W05
	BYTE		N06   
	BYTE	W06
	BYTE		N05     En0   v068
	BYTE	W07
	BYTE		        En0   v064
	BYTE	W05
	BYTE		N05   
	BYTE	W06
	BYTE		N05   
	BYTE	W06
	BYTE		        En0   v068
	BYTE	W06
	BYTE		        En0   v064
	BYTE	W06
	BYTE		N05   
	BYTE	W06
	BYTE		N05   
	BYTE	W06
	BYTE	PEND
// 047   ----------------------------------------
end_game_map_2_047:
	BYTE		N06     En0   v072
	BYTE	W06
	BYTE		N05     En0   v064
	BYTE	W06
	BYTE		N11     Fn0 
	BYTE	W12
	BYTE		N05     En0   v068
	BYTE	W06
	BYTE		        En0   v064
	BYTE	W06
	BYTE		N11     Fn0 
	BYTE	W12
	BYTE		N05     En0   v068
	BYTE	W06
	BYTE		        En0   v064
	BYTE	W06
	BYTE		N11     Fn0 
	BYTE	W12
	BYTE		N05     En0   v068
	BYTE	W06
	BYTE		        En0   v064
	BYTE	W06
	BYTE		N11     Fn0 
	BYTE	W12
	BYTE	PEND
// 048   ----------------------------------------
	BYTE	PATT
	 POIN2	end_game_map_2_047
// 049   ----------------------------------------
end_game_map_2_049:
	BYTE		N06     En0   v072
	BYTE	W06
	BYTE		N05     En0   v064
	BYTE	W06
	BYTE		N11     Fn0 
	BYTE	W12
	BYTE		N05     En0   v068
	BYTE	W06
	BYTE		        En0   v064
	BYTE	W06
	BYTE		N11     Fn0 
	BYTE	W13
	BYTE		N05     En0   v068
	BYTE	W05
	BYTE		        En0   v064
	BYTE	W06
	BYTE		N11     Fn0 
	BYTE	W12
	BYTE		N05     En0   v068
	BYTE	W06
	BYTE		        En0   v064
	BYTE	W06
	BYTE		N11     Fn0 
	BYTE	W12
	BYTE	PEND
// 050   ----------------------------------------
end_game_map_2_050:
	BYTE		N06     En0   v072
	BYTE	W06
	BYTE		N05     En0   v064
	BYTE	W06
	BYTE		N11     Fn0 
	BYTE	W12
	BYTE		N06     En0   v068
	BYTE	W06
	BYTE		N05     En0   v064
	BYTE	W06
	BYTE		N11     Fn0 
	BYTE	W12
	BYTE		N06     En0   v068
	BYTE	W06
	BYTE		N05     En0   v064
	BYTE	W06
	BYTE		N11     Fn0 
	BYTE	W12
	BYTE		N05     En0   v068
	BYTE		N05     Bn0 
	BYTE	W06
	BYTE		        En0   v064
	BYTE	W06
	BYTE		N11     Fn0 
	BYTE		N11     Bn0 
	BYTE	W12
	BYTE	PEND
// 051   ----------------------------------------
end_game_map_2_051:
	BYTE		N06     En0   v072
	BYTE		N06     Bn0 
	BYTE		N06     Bn2 
	BYTE	W06
	BYTE		N05     En0   v064
	BYTE	W06
	BYTE		N11     Fn0 
	BYTE	W12
	BYTE		N06     En0   v068
	BYTE		N05     Bn0 
	BYTE	W06
	BYTE		        En0   v064
	BYTE	W06
	BYTE		N11     Fn0 
	BYTE	W12
	BYTE		N06     En0   v068
	BYTE		N06     Bn0 
	BYTE	W06
	BYTE		N05     En0   v064
	BYTE	W06
	BYTE		N11     Fn0 
	BYTE	W12
	BYTE		N05     En0   v068
	BYTE		N06     Bn0 
	BYTE	W06
	BYTE		N05     En0   v064
	BYTE	W06
	BYTE		N11     Fn0 
	BYTE	W12
	BYTE	PEND
// 052   ----------------------------------------
end_game_map_2_052:
	BYTE		N06     En0   v072
	BYTE		N06     Bn0 
	BYTE	W06
	BYTE		N05     En0   v064
	BYTE	W06
	BYTE		N11     Fn0 
	BYTE	W13
	BYTE		N05     En0   v068
	BYTE		N05     Bn0 
	BYTE	W05
	BYTE		        En0   v064
	BYTE	W06
	BYTE		N11     Fn0 
	BYTE	W12
	BYTE		N05     Bn0   v068
	BYTE	W01
	BYTE		        En0 
	BYTE	W05
	BYTE		        En0   v064
	BYTE	W06
	BYTE		N11     Fn0 
	BYTE	W12
	BYTE		N05     En0   v068
	BYTE		N05     Bn0 
	BYTE	W06
	BYTE		        En0   v064
	BYTE	W06
	BYTE		N11     Fn0 
	BYTE	W12
	BYTE	PEND
// 053   ----------------------------------------
end_game_map_2_053:
	BYTE		N06     En0   v072
	BYTE		N06     Bn0 
	BYTE	W06
	BYTE		N05     En0   v064
	BYTE	W06
	BYTE		N11     Fn0 
	BYTE	W13
	BYTE		N05     En0   v068
	BYTE		N05     Bn0 
	BYTE	W05
	BYTE		        En0   v064
	BYTE	W06
	BYTE		N11     Fn0 
	BYTE	W12
	BYTE		N05     En0   v068
	BYTE		N06     Bn0 
	BYTE	W06
	BYTE		N05     En0   v064
	BYTE	W06
	BYTE		N11     Fn0 
	BYTE	W12
	BYTE		N05     En0   v068
	BYTE		N05     Bn0 
	BYTE	W06
	BYTE		        En0   v064
	BYTE	W06
	BYTE		N11     Fn0 
	BYTE	W12
	BYTE	PEND
// 054   ----------------------------------------
	BYTE	PATT
	 POIN2	end_game_map_2_053
// 055   ----------------------------------------
end_game_map_2_055:
	BYTE		N06     En0   v072
	BYTE		N06     Bn0 
	BYTE	W06
	BYTE		N05     En0   v064
	BYTE	W06
	BYTE		N11     Fn0 
	BYTE	W13
	BYTE		N05     En0   v068
	BYTE		N05     Bn0 
	BYTE	W05
	BYTE		        En0   v064
	BYTE	W06
	BYTE		N11     Fn0 
	BYTE	W13
	BYTE		N05     En0   v068
	BYTE		N05     Bn0 
	BYTE	W05
	BYTE		        En0   v064
	BYTE	W06
	BYTE		N11     Fn0 
	BYTE	W12
	BYTE		N05     En0   v068
	BYTE		N05     Bn0 
	BYTE	W06
	BYTE		        En0   v064
	BYTE	W06
	BYTE		N11     Fn0 
	BYTE	W12
	BYTE	PEND
// 056   ----------------------------------------
end_game_map_2_056:
	BYTE		N06     En0   v072
	BYTE		N06     Bn0 
	BYTE	W06
	BYTE		N05     En0   v064
	BYTE	W06
	BYTE		N11     Fn0 
	BYTE	W12
	BYTE		N05     En0   v068
	BYTE	W01
	BYTE		        Bn0 
	BYTE	W05
	BYTE		        En0   v064
	BYTE	W06
	BYTE		N11     Fn0 
	BYTE	W12
	BYTE		N06     En0   v068
	BYTE		N05     Bn0 
	BYTE	W06
	BYTE		        En0   v064
	BYTE	W06
	BYTE		N11     Fn0 
	BYTE	W12
	BYTE		N05     En0   v068
	BYTE		N05     Bn0 
	BYTE	W06
	BYTE		        En0   v064
	BYTE	W06
	BYTE		N11     Fn0 
	BYTE	W12
	BYTE	PEND
// 057   ----------------------------------------
	BYTE	PATT
	 POIN2	end_game_map_2_055
// 058   ----------------------------------------
end_game_map_2_058:
	BYTE		N06     En0   v072
	BYTE		N06     Bn0 
	BYTE	W06
	BYTE		N05     En0   v064
	BYTE	W06
	BYTE		N11     Fn0 
	BYTE	W12
	BYTE		N05     Bn0   v068
	BYTE	W01
	BYTE		        En0 
	BYTE	W05
	BYTE		        En0   v064
	BYTE	W06
	BYTE		N11     Fn0 
	BYTE	W12
	BYTE		N05     En0   v068
	BYTE	W01
	BYTE		        Bn0 
	BYTE	W05
	BYTE		        En0   v064
	BYTE	W06
	BYTE		N11     Fn0 
	BYTE	W12
	BYTE		N05     En0   v068
	BYTE		N05     Bn0 
	BYTE	W06
	BYTE		        En0   v064
	BYTE	W06
	BYTE		N11     Fn0 
	BYTE	W12
	BYTE	PEND
// 059   ----------------------------------------
end_game_map_2_059:
	BYTE		N06     En0   v072
	BYTE		N06     Dn1 
	BYTE		N06     Bn2 
	BYTE	W06
	BYTE		N05     En0   v064
	BYTE	W06
	BYTE		N11     Fn0 
	BYTE	W12
	BYTE		N05     Dn1   v068
	BYTE	W01
	BYTE		        En0 
	BYTE	W05
	BYTE		        En0   v064
	BYTE	W06
	BYTE		N11     Fn0 
	BYTE	W12
	BYTE		N06     Dn1   v068
	BYTE	W01
	BYTE		N05     En0 
	BYTE	W05
	BYTE		        En0   v064
	BYTE	W06
	BYTE		N11     Fn0 
	BYTE	W12
	BYTE		N05     En0   v068
	BYTE		N05     Dn1 
	BYTE	W06
	BYTE		        En0   v064
	BYTE	W06
	BYTE		N11     Fn0 
	BYTE		N11     Dn1 
	BYTE	W12
	BYTE	PEND
// 060   ----------------------------------------
end_game_map_2_060:
	BYTE		N06     En0   v072
	BYTE		N06     Dn1 
	BYTE	W06
	BYTE		N05     En0   v064
	BYTE	W06
	BYTE		N11     Fn0 
	BYTE	W12
	BYTE		N05     En0   v068
	BYTE	W01
	BYTE		        Dn1 
	BYTE	W05
	BYTE		        En0   v064
	BYTE	W06
	BYTE		N11     Fn0 
	BYTE	W12
	BYTE		N06     En0   v068
	BYTE		N06     Dn1 
	BYTE	W06
	BYTE		N05     En0   v064
	BYTE	W06
	BYTE		N11     Fn0 
	BYTE	W12
	BYTE		N05     En0   v068
	BYTE		N05     Dn1 
	BYTE	W06
	BYTE		        En0   v064
	BYTE	W06
	BYTE		N11     Fn0 
	BYTE		N11     Dn1 
	BYTE	W12
	BYTE	PEND
// 061   ----------------------------------------
end_game_map_2_061:
	BYTE		N06     En0   v072
	BYTE		N06     Dn1 
	BYTE	W06
	BYTE		N05     En0   v064
	BYTE	W06
	BYTE		N11     Fn0 
	BYTE	W13
	BYTE		N05     En0   v068
	BYTE		N05     Dn1 
	BYTE	W05
	BYTE		        En0   v064
	BYTE	W06
	BYTE		N11     Fn0 
	BYTE	W12
	BYTE		N05     En0   v068
	BYTE		N05     Dn1 
	BYTE	W06
	BYTE		        En0   v064
	BYTE	W06
	BYTE		N11     Fn0 
	BYTE	W12
	BYTE		N05     En0   v068
	BYTE		N05     Dn1 
	BYTE	W06
	BYTE		        En0   v064
	BYTE	W06
	BYTE		N11     Fn0 
	BYTE		N11     Dn1 
	BYTE	W12
	BYTE	PEND
// 062   ----------------------------------------
end_game_map_2_062:
	BYTE		N06     En0   v072
	BYTE		N06     Dn1 
	BYTE	W06
	BYTE		N05     En0   v064
	BYTE	W06
	BYTE		N11     Fn0 
	BYTE	W12
	BYTE		N05     En0   v068
	BYTE	W01
	BYTE		        Dn1 
	BYTE	W05
	BYTE		        En0   v064
	BYTE	W06
	BYTE		N11     Fn0 
	BYTE	W12
	BYTE		N06     Dn1   v068
	BYTE	W01
	BYTE		N05     En0 
	BYTE	W05
	BYTE		        En0   v064
	BYTE	W06
	BYTE		N11     Fn0 
	BYTE	W12
	BYTE		N05     En0   v068
	BYTE		N06     Dn1 
	BYTE	W06
	BYTE		N05     En0   v064
	BYTE	W06
	BYTE		N11     Fn0 
	BYTE		N11     Dn1 
	BYTE	W12
	BYTE	PEND
// 063   ----------------------------------------
end_game_map_2_063:
	BYTE		N06     En0   v072
	BYTE		N06     Dn1 
	BYTE	W06
	BYTE		N05     En0   v064
	BYTE	W06
	BYTE		N11     Fn0 
	BYTE	W12
	BYTE		N05     En0   v068
	BYTE	W01
	BYTE		        Dn1 
	BYTE	W05
	BYTE		        En0   v064
	BYTE	W06
	BYTE		N11     Fn0 
	BYTE	W12
	BYTE		N06     En0   v068
	BYTE	W01
	BYTE		N05     Dn1 
	BYTE	W05
	BYTE		        En0   v064
	BYTE	W06
	BYTE		N11     Fn0 
	BYTE	W12
	BYTE		N05     En0   v068
	BYTE		N06     Dn1 
	BYTE	W06
	BYTE		N05     En0   v064
	BYTE	W06
	BYTE		N11     Fn0 
	BYTE		N11     Dn1 
	BYTE	W12
	BYTE	PEND
// 064   ----------------------------------------
end_game_map_2_064:
	BYTE		N06     En0   v072
	BYTE		N06     Dn1 
	BYTE	W06
	BYTE		N05     En0   v064
	BYTE	W06
	BYTE		N11     Fn0 
	BYTE	W13
	BYTE		N05     En0   v068
	BYTE		N05     Dn1 
	BYTE	W05
	BYTE		        En0   v064
	BYTE	W06
	BYTE		N11     Fn0 
	BYTE	W12
	BYTE		N05     En0   v068
	BYTE	W01
	BYTE		        Dn1 
	BYTE	W05
	BYTE		        En0   v064
	BYTE	W06
	BYTE		N11     Fn0 
	BYTE	W12
	BYTE		N05     En0   v068
	BYTE		N05     Dn1 
	BYTE	W06
	BYTE		        En0   v064
	BYTE	W06
	BYTE		N11     Fn0 
	BYTE		N11     Dn1 
	BYTE	W12
	BYTE	PEND
// 065   ----------------------------------------
	BYTE	PATT
	 POIN2	end_game_map_2_061
// 066   ----------------------------------------
end_game_map_2_066:
	BYTE		N06     En0   v072
	BYTE		N06     Dn1 
	BYTE	W06
	BYTE		N05     En0   v064
	BYTE	W06
	BYTE		N11     Fn0 
	BYTE	W12
	BYTE		N05     En0   v068
	BYTE		N05     Dn1 
	BYTE	W06
	BYTE		        En0   v064
	BYTE	W06
	BYTE		N11     Fn0 
	BYTE	W12
	BYTE		N05     En0   v068
	BYTE		N06     Dn1 
	BYTE	W06
	BYTE		N05     En0   v064
	BYTE	W06
	BYTE		N11     Fn0 
	BYTE	W12
	BYTE		N05     En0   v068
	BYTE		N05     Dn1 
	BYTE	W06
	BYTE		        En0   v064
	BYTE	W06
	BYTE		N11     Fn0 
	BYTE		N11     Dn1 
	BYTE	W12
	BYTE	PEND
// 067   ----------------------------------------
end_game_map_2_067:
	BYTE		N06     En0   v072
	BYTE		N06     Dn1 
	BYTE		N06     Bn2 
	BYTE	W06
	BYTE		N05     En0   v064
	BYTE	W06
	BYTE		N11     Fn0 
	BYTE	W12
	BYTE		N05     En0   v068
	BYTE	W01
	BYTE		        Dn1 
	BYTE	W05
	BYTE		        En0   v064
	BYTE	W06
	BYTE		N11     Fn0 
	BYTE	W12
	BYTE		N05     Dn1   v068
	BYTE	W01
	BYTE		        En0 
	BYTE	W05
	BYTE		        En0   v064
	BYTE	W06
	BYTE		N11     Fn0 
	BYTE	W12
	BYTE		N05     En0   v068
	BYTE		N05     Dn1 
	BYTE	W06
	BYTE		        En0   v064
	BYTE	W06
	BYTE		N11     Fn0 
	BYTE	W12
	BYTE	PEND
// 068   ----------------------------------------
end_game_map_2_068:
	BYTE		N06     En0   v072
	BYTE		N06     Dn1 
	BYTE	W06
	BYTE		N05     En0   v064
	BYTE	W06
	BYTE		N11     Fn0 
	BYTE	W12
	BYTE		N05     En0   v068
	BYTE	W01
	BYTE		        Dn1 
	BYTE	W05
	BYTE		        En0   v064
	BYTE	W06
	BYTE		N11     Fn0 
	BYTE	W12
	BYTE		N05     En0   v068
	BYTE		N05     Dn1 
	BYTE	W06
	BYTE		        En0   v064
	BYTE	W06
	BYTE		N11     Fn0 
	BYTE	W12
	BYTE		N05     En0   v068
	BYTE		N05     Dn1 
	BYTE	W06
	BYTE		        En0   v064
	BYTE	W06
	BYTE		N11     Fn0 
	BYTE	W12
	BYTE	PEND
// 069   ----------------------------------------
end_game_map_2_069:
	BYTE		N06     En0   v072
	BYTE		N06     Dn1 
	BYTE	W06
	BYTE		N05     En0   v064
	BYTE	W06
	BYTE		N11     Fn0 
	BYTE	W13
	BYTE		N05     En0   v068
	BYTE		N05     Dn1 
	BYTE	W05
	BYTE		        En0   v064
	BYTE	W06
	BYTE		N11     Fn0 
	BYTE	W12
	BYTE		N05     En0   v068
	BYTE	W01
	BYTE		        Dn1 
	BYTE	W05
	BYTE		        En0   v064
	BYTE	W06
	BYTE		N11     Fn0 
	BYTE	W12
	BYTE		N05     En0   v068
	BYTE		N05     Dn1 
	BYTE	W06
	BYTE		        En0   v064
	BYTE	W06
	BYTE		N11     Fn0 
	BYTE	W12
	BYTE	PEND
// 070   ----------------------------------------
end_game_map_2_070:
	BYTE		N06     En0   v072
	BYTE		N06     Dn1 
	BYTE	W06
	BYTE		N05     En0   v064
	BYTE	W06
	BYTE		N11     Fn0 
	BYTE	W13
	BYTE		N05     En0   v068
	BYTE		N05     Dn1 
	BYTE	W05
	BYTE		        En0   v064
	BYTE	W06
	BYTE		N11     Fn0 
	BYTE	W12
	BYTE		N06     En0   v068
	BYTE	W01
	BYTE		N05     Dn1 
	BYTE	W05
	BYTE		        En0   v064
	BYTE	W06
	BYTE		N11     Fn0 
	BYTE	W12
	BYTE		N05     En0   v068
	BYTE		N05     Dn1 
	BYTE	W06
	BYTE		        En0   v064
	BYTE	W06
	BYTE		N11     Fn0 
	BYTE	W12
	BYTE	PEND
// 071   ----------------------------------------
end_game_map_2_071:
	BYTE		N06     En0   v072
	BYTE		N06     Dn1 
	BYTE	W06
	BYTE		N05     En0   v064
	BYTE	W06
	BYTE		N11     Fn0 
	BYTE	W12
	BYTE		N06     En0   v068
	BYTE		N05     Dn1 
	BYTE	W06
	BYTE		        En0   v064
	BYTE	W06
	BYTE		N11     Fn0 
	BYTE	W12
	BYTE		N06     En0   v068
	BYTE		N06     Dn1 
	BYTE	W06
	BYTE		N05     En0   v064
	BYTE	W06
	BYTE		N11     Fn0 
	BYTE	W12
	BYTE		N05     En0   v068
	BYTE		N05     Dn1 
	BYTE	W06
	BYTE		        En0   v064
	BYTE	W06
	BYTE		N11     Fn0 
	BYTE	W12
	BYTE	PEND
// 072   ----------------------------------------
end_game_map_2_072:
	BYTE		N06     En0   v072
	BYTE		N06     Dn1 
	BYTE	W06
	BYTE		N05     En0   v064
	BYTE	W06
	BYTE		N11     Fn0 
	BYTE	W12
	BYTE		N05     Dn1   v068
	BYTE	W01
	BYTE		        En0 
	BYTE	W05
	BYTE		        En0   v064
	BYTE	W06
	BYTE		N11     Fn0 
	BYTE	W12
	BYTE		N05     En0   v068
	BYTE		N05     Dn1 
	BYTE	W06
	BYTE		        En0   v064
	BYTE	W06
	BYTE		N11     Fn0 
	BYTE	W12
	BYTE		N05     En0   v068
	BYTE		N05     Dn1 
	BYTE	W06
	BYTE		        En0   v064
	BYTE	W06
	BYTE		N11     Fn0 
	BYTE	W12
	BYTE	PEND
// 073   ----------------------------------------
end_game_map_2_073:
	BYTE		N06     En0   v072
	BYTE		N06     Dn1 
	BYTE	W06
	BYTE		N05     En0   v064
	BYTE	W06
	BYTE		N11     Fn0 
	BYTE	W13
	BYTE		N05     En0   v068
	BYTE		N05     Dn1 
	BYTE	W05
	BYTE		        En0   v064
	BYTE	W06
	BYTE		N11     Fn0 
	BYTE	W12
	BYTE		N06     En0   v068
	BYTE		N05     Dn1 
	BYTE	W06
	BYTE		        En0   v064
	BYTE	W06
	BYTE		N11     Fn0 
	BYTE	W12
	BYTE		N05     En0   v068
	BYTE		N05     Dn1 
	BYTE	W06
	BYTE		        En0   v064
	BYTE	W06
	BYTE		N11     Fn0 
	BYTE	W12
	BYTE	PEND
// 074   ----------------------------------------
	BYTE		N06     En0   v072
	BYTE		N06     Dn1 
	BYTE	W06
	BYTE		N05     En0   v064
	BYTE	W06
	BYTE		N11     Fn0 
	BYTE	W12
	BYTE		N05     Dn1   v068
	BYTE	W01
	BYTE		        En0 
	BYTE	W05
	BYTE		        En0   v064
	BYTE	W06
	BYTE		N11     Fn0 
	BYTE	W12
	BYTE		N05     En0   v068
	BYTE	W01
	BYTE		        Dn1 
	BYTE	W05
	BYTE		        En0   v064
	BYTE	W06
	BYTE		N11     Fn0 
	BYTE	W12
	BYTE		N05     En0   v068
	BYTE		N05     Dn1 
	BYTE	W06
	BYTE		        En0   v064
	BYTE	W06
	BYTE		N11     Fn0 
	BYTE	W12
// 075   ----------------------------------------
	BYTE	PATT
	 POIN2	end_game_map_2_004
// 076   ----------------------------------------
	BYTE	PATT
	 POIN2	end_game_map_2_005
// 077   ----------------------------------------
	BYTE	PATT
	 POIN2	end_game_map_2_006
// 078   ----------------------------------------
	BYTE	PATT
	 POIN2	end_game_map_2_005
// 079   ----------------------------------------
	BYTE	PATT
	 POIN2	end_game_map_2_008
// 080   ----------------------------------------
	BYTE	PATT
	 POIN2	end_game_map_2_009
// 081   ----------------------------------------
	BYTE	PATT
	 POIN2	end_game_map_2_010
// 082   ----------------------------------------
	BYTE	PATT
	 POIN2	end_game_map_2_011
// 083   ----------------------------------------
	BYTE	PATT
	 POIN2	end_game_map_2_012
// 084   ----------------------------------------
	BYTE	PATT
	 POIN2	end_game_map_2_013
// 085   ----------------------------------------
	BYTE	PATT
	 POIN2	end_game_map_2_006
// 086   ----------------------------------------
	BYTE	PATT
	 POIN2	end_game_map_2_015
// 087   ----------------------------------------
	BYTE	PATT
	 POIN2	end_game_map_2_006
// 088   ----------------------------------------
	BYTE	PATT
	 POIN2	end_game_map_2_017
// 089   ----------------------------------------
	BYTE	PATT
	 POIN2	end_game_map_2_018
// 090   ----------------------------------------
	BYTE	PATT
	 POIN2	end_game_map_2_019
// 091   ----------------------------------------
	BYTE	PATT
	 POIN2	end_game_map_2_020
// 092   ----------------------------------------
	BYTE	PATT
	 POIN2	end_game_map_2_021
// 093   ----------------------------------------
	BYTE	PATT
	 POIN2	end_game_map_2_022
// 094   ----------------------------------------
	BYTE	PATT
	 POIN2	end_game_map_2_023
// 095   ----------------------------------------
	BYTE	PATT
	 POIN2	end_game_map_2_024
// 096   ----------------------------------------
	BYTE	PATT
	 POIN2	end_game_map_2_025
// 097   ----------------------------------------
	BYTE	PATT
	 POIN2	end_game_map_2_017
// 098   ----------------------------------------
	BYTE	PATT
	 POIN2	end_game_map_2_027
// 099   ----------------------------------------
	BYTE	PATT
	 POIN2	end_game_map_2_028
// 100   ----------------------------------------
	BYTE	PATT
	 POIN2	end_game_map_2_028
// 101   ----------------------------------------
	BYTE	PATT
	 POIN2	end_game_map_2_028
// 102   ----------------------------------------
	BYTE	PATT
	 POIN2	end_game_map_2_028
// 103   ----------------------------------------
	BYTE	PATT
	 POIN2	end_game_map_2_028
// 104   ----------------------------------------
	BYTE	PATT
	 POIN2	end_game_map_2_028
// 105   ----------------------------------------
	BYTE	PATT
	 POIN2	end_game_map_2_034
// 106   ----------------------------------------
	BYTE		N12     Bn2   v072
	BYTE	W96
// 107   ----------------------------------------
	BYTE	W96
// 108   ----------------------------------------
	BYTE	W96
// 109   ----------------------------------------
	BYTE	W96
// 110   ----------------------------------------
	BYTE	W96
// 111   ----------------------------------------
	BYTE	W96
// 112   ----------------------------------------
	BYTE	W96
// 113   ----------------------------------------
	BYTE	W96
// 114   ----------------------------------------
	BYTE	PATT
	 POIN2	end_game_map_2_043
// 115   ----------------------------------------
	BYTE	PATT
	 POIN2	end_game_map_2_044
// 116   ----------------------------------------
	BYTE	PATT
	 POIN2	end_game_map_2_045
// 117   ----------------------------------------
	BYTE	PATT
	 POIN2	end_game_map_2_046
// 118   ----------------------------------------
	BYTE	PATT
	 POIN2	end_game_map_2_047
// 119   ----------------------------------------
	BYTE	PATT
	 POIN2	end_game_map_2_047
// 120   ----------------------------------------
	BYTE	PATT
	 POIN2	end_game_map_2_049
// 121   ----------------------------------------
	BYTE	PATT
	 POIN2	end_game_map_2_050
// 122   ----------------------------------------
	BYTE	PATT
	 POIN2	end_game_map_2_051
// 123   ----------------------------------------
	BYTE	PATT
	 POIN2	end_game_map_2_052
// 124   ----------------------------------------
	BYTE	PATT
	 POIN2	end_game_map_2_053
// 125   ----------------------------------------
	BYTE	PATT
	 POIN2	end_game_map_2_053
// 126   ----------------------------------------
	BYTE	PATT
	 POIN2	end_game_map_2_055
// 127   ----------------------------------------
	BYTE	PATT
	 POIN2	end_game_map_2_056
// 128   ----------------------------------------
	BYTE	PATT
	 POIN2	end_game_map_2_055
// 129   ----------------------------------------
	BYTE	PATT
	 POIN2	end_game_map_2_058
// 130   ----------------------------------------
	BYTE	PATT
	 POIN2	end_game_map_2_059
// 131   ----------------------------------------
	BYTE	PATT
	 POIN2	end_game_map_2_060
// 132   ----------------------------------------
	BYTE	PATT
	 POIN2	end_game_map_2_061
// 133   ----------------------------------------
	BYTE	PATT
	 POIN2	end_game_map_2_062
// 134   ----------------------------------------
	BYTE	PATT
	 POIN2	end_game_map_2_063
// 135   ----------------------------------------
	BYTE	PATT
	 POIN2	end_game_map_2_064
// 136   ----------------------------------------
	BYTE	PATT
	 POIN2	end_game_map_2_061
// 137   ----------------------------------------
	BYTE	PATT
	 POIN2	end_game_map_2_066
// 138   ----------------------------------------
	BYTE	PATT
	 POIN2	end_game_map_2_067
// 139   ----------------------------------------
	BYTE	PATT
	 POIN2	end_game_map_2_068
// 140   ----------------------------------------
	BYTE	PATT
	 POIN2	end_game_map_2_069
// 141   ----------------------------------------
	BYTE	PATT
	 POIN2	end_game_map_2_070
// 142   ----------------------------------------
	BYTE	PATT
	 POIN2	end_game_map_2_071
// 143   ----------------------------------------
	BYTE	PATT
	 POIN2	end_game_map_2_072
// 144   ----------------------------------------
	BYTE	PATT
	 POIN2	end_game_map_2_073
// 145   ----------------------------------------
	BYTE		N06     En0   v072
	BYTE		N06     Dn1 
	BYTE	W06
	BYTE		N05     En0   v064
	BYTE	W06
	BYTE		N11     Fn0 
	BYTE	W12
	BYTE		N05     Dn1   v068
	BYTE	W01
	BYTE		        En0 
	BYTE	W05
	BYTE		        En0   v064
	BYTE	W06
	BYTE		N11     Fn0 
	BYTE	W12
	BYTE		N05     En0   v068
	BYTE	W01
	BYTE		        Dn1 
	BYTE	W05
	BYTE		        En0   v064
	BYTE	W06
	BYTE		N11     Fn0 
	BYTE	W12
	BYTE		N05     En0   v068
	BYTE		N05     Dn1 
	BYTE	W06
	BYTE		        En0   v064
	BYTE	W06
	BYTE		N11     Fn0 
	BYTE	W11
	BYTE	FINE

//**************** Track 3 (Midi-Chn.2) ****************//

end_game_map_3:
	BYTE	KEYSH   end_game_map_key+0
// 000   ----------------------------------------
	BYTE		VOICE   61
	BYTE		VOL     100*end_game_map_mvl/mxv
	BYTE		PAN     c_v+36
	BYTE		VOL     100*end_game_map_mvl/mxv
	BYTE	W96
// 001   ----------------------------------------
	BYTE	W96
// 002   ----------------------------------------
	BYTE	W96
// 003   ----------------------------------------
	BYTE		N10     As2   v072
	BYTE	W12
	BYTE		N09     As3   v064
	BYTE	W12
	BYTE		        An2   v068
	BYTE	W12
	BYTE		        An3   v064
	BYTE	W12
	BYTE		        Gn2   v068
	BYTE	W12
	BYTE		        Gn3   v064
	BYTE	W12
	BYTE		N21     Fs3   v068
	BYTE	W24
// 004   ----------------------------------------
	BYTE	W96
// 005   ----------------------------------------
	BYTE	W96
// 006   ----------------------------------------
	BYTE	W96
// 007   ----------------------------------------
	BYTE	W96
// 008   ----------------------------------------
end_game_map_3_008:
	BYTE		N10     Dn4   v072
	BYTE	W12
	BYTE		N16     Dn5   v064
	BYTE	W18
	BYTE		N04     Dn4 
	BYTE	W06
	BYTE		N09     Cn5 
	BYTE	W12
	BYTE		N04     Dn5   v068
	BYTE	W06
	BYTE		        Cn5   v064
	BYTE	W06
	BYTE		        As4 
	BYTE	W06
	BYTE		        Dn5 
	BYTE	W06
	BYTE		        Gn4   v068
	BYTE	W06
	BYTE		        An4   v064
	BYTE	W06
	BYTE		        As4 
	BYTE	W05
	BYTE		        Dn5 
	BYTE	W07
	BYTE	PEND
// 009   ----------------------------------------
end_game_map_3_009:
	BYTE		N10     Dn4   v072
	BYTE	W12
	BYTE		N16     Dn5   v064
	BYTE	W18
	BYTE		N04     Dn4 
	BYTE	W06
	BYTE		N09     Cn5 
	BYTE	W12
	BYTE		N04     Dn5   v068
	BYTE	W06
	BYTE		        Cn5   v064
	BYTE	W06
	BYTE		        As4 
	BYTE	W06
	BYTE		        Dn5 
	BYTE	W06
	BYTE		        Fs4   v068
	BYTE	W06
	BYTE		        An4   v064
	BYTE	W06
	BYTE		        As4 
	BYTE	W05
	BYTE		        Cn5 
	BYTE	W07
	BYTE	PEND
// 010   ----------------------------------------
end_game_map_3_010:
	BYTE		N10     Dn4   v072
	BYTE	W12
	BYTE		N16     Dn5   v064
	BYTE	W18
	BYTE		N04     Dn4 
	BYTE	W06
	BYTE		N09     Cn5 
	BYTE	W12
	BYTE		N04     Dn5   v068
	BYTE	W06
	BYTE		        Cn5   v064
	BYTE	W06
	BYTE		        As4 
	BYTE	W06
	BYTE		        Dn5 
	BYTE	W06
	BYTE		        Fn4   v068
	BYTE	W06
	BYTE		        An4   v064
	BYTE	W06
	BYTE		        As4 
	BYTE	W05
	BYTE		        Cn5 
	BYTE	W07
	BYTE	PEND
// 011   ----------------------------------------
end_game_map_3_011:
	BYTE		N10     Dn5   v072
	BYTE	W12
	BYTE		N04     Cn5   v064
	BYTE	W06
	BYTE		N10     As4 
	BYTE	W12
	BYTE		N04     Dn5 
	BYTE	W06
	BYTE		N09     As4 
	BYTE	W12
	BYTE		N04     Gn4   v068
	BYTE	W06
	BYTE		        Gn5   v064
	BYTE	W06
	BYTE		        Fn4 
	BYTE	W06
	BYTE		        Fn5 
	BYTE	W06
	BYTE		        En4   v068
	BYTE	W06
	BYTE		        En5   v064
	BYTE	W06
	BYTE		        Gn4 
	BYTE	W05
	BYTE		        Gn5 
	BYTE	W07
	BYTE	PEND
// 012   ----------------------------------------
	BYTE	W96
// 013   ----------------------------------------
	BYTE	W96
// 014   ----------------------------------------
	BYTE	W96
// 015   ----------------------------------------
	BYTE	W96
// 016   ----------------------------------------
	BYTE	W96
// 017   ----------------------------------------
	BYTE	W96
// 018   ----------------------------------------
	BYTE	W96
// 019   ----------------------------------------
	BYTE	W96
// 020   ----------------------------------------
end_game_map_3_020:
	BYTE		N16     As3   v064
	BYTE		N16     Dn4   v076
	BYTE	W18
	BYTE		N15     Dn4   v056
	BYTE		N15     Gn4   v072
	BYTE	W18
	BYTE		N03     Dn4   v044
	BYTE		N03     Fs4   v060
	BYTE	W06
	BYTE		N04     Dn4   v044
	BYTE		N04     Gn4   v060
	BYTE	W06
	BYTE		N21     As3 
	BYTE		N21     Dn4   v076
	BYTE	W24
	BYTE		        Dn4   v060
	BYTE		N21     Gn4   v072
	BYTE	W24
	BYTE	PEND
// 021   ----------------------------------------
end_game_map_3_021:
	BYTE		N16     An3   v064
	BYTE		N16     Dn4   v076
	BYTE	W18
	BYTE		N15     Dn4   v056
	BYTE		N15     Gn4   v072
	BYTE	W18
	BYTE		N03     Dn4   v044
	BYTE		N03     Fs4   v060
	BYTE	W06
	BYTE		N04     Dn4   v044
	BYTE		N04     Gn4   v060
	BYTE	W06
	BYTE		N21     Fs4 
	BYTE		N21     An4   v076
	BYTE	W24
	BYTE		        An4   v060
	BYTE		N21     Cn5   v072
	BYTE	W24
	BYTE	PEND
// 022   ----------------------------------------
end_game_map_3_022:
	BYTE		N16     An3   v064
	BYTE		N16     Dn4   v076
	BYTE	W18
	BYTE		N15     Dn4   v056
	BYTE		N15     Gn4   v072
	BYTE	W18
	BYTE		N04     Fn4   v056
	BYTE		N04     As4   v072
	BYTE	W06
	BYTE		        An4   v056
	BYTE		N04     Cn5   v072
	BYTE	W06
	BYTE		N21     An4   v060
	BYTE		N21     Dn5   v076
	BYTE	W24
	BYTE		        Dn4   v060
	BYTE		N21     Fn4   v072
	BYTE	W24
	BYTE	PEND
// 023   ----------------------------------------
end_game_map_3_023:
	BYTE		N22     Ds4   v064
	BYTE		N22     Gn4   v076
	BYTE	W24
	BYTE		N09     As4   v060
	BYTE		N09     Dn5   v072
	BYTE	W12
	BYTE		        An4   v056
	BYTE		N09     Cn5   v072
	BYTE	W24
	BYTE		        Gn4   v056
	BYTE		N09     As4   v072
	BYTE	W24
	BYTE		        Fn4   v056
	BYTE		N09     An4   v072
	BYTE	W12
	BYTE	PEND
// 024   ----------------------------------------
end_game_map_3_024:
	BYTE		N22     Cn4   v064
	BYTE		N22     Fn4   v076
	BYTE	W24
	BYTE		N09     An4   v060
	BYTE		N09     Ds5   v072
	BYTE	W12
	BYTE		        An4   v056
	BYTE		N09     Dn5   v072
	BYTE	W24
	BYTE		        Cn5   v056
	BYTE		N09     Fn5   v072
	BYTE	W24
	BYTE		N32     As4   v056
	BYTE		N32     Dn5   v072
	BYTE	W12
	BYTE	PEND
// 025   ----------------------------------------
end_game_map_3_025:
	BYTE	W24
	BYTE		N09     An4   v060
	BYTE		N09     Cn5   v072
	BYTE	W12
	BYTE		        Fn4   v056
	BYTE		N09     As4   v072
	BYTE	W24
	BYTE		        As4   v056
	BYTE		N09     Dn5   v072
	BYTE	W24
	BYTE		        Dn4   v056
	BYTE		N09     Fn4   v072
	BYTE	W12
	BYTE	PEND
// 026   ----------------------------------------
end_game_map_3_026:
	BYTE		N10     Dn4   v064
	BYTE		N10     Fs4   v076
	BYTE	W12
	BYTE		N09     Fs4   v056
	BYTE		N09     An4   v072
	BYTE	W12
	BYTE		        An4   v060
	BYTE		N09     Ds5   v072
	BYTE	W12
	BYTE		        An4   v056
	BYTE		N09     Dn5   v072
	BYTE	W24
	BYTE		        Dn5   v056
	BYTE		N09     Fs5   v072
	BYTE	W24
	BYTE		        An4   v056
	BYTE		N09     Dn5   v072
	BYTE	W12
	BYTE	PEND
// 027   ----------------------------------------
end_game_map_3_027:
	BYTE		N22     Dn4   v064
	BYTE		N22     Gn4   v076
	BYTE	W96
	BYTE	PEND
// 028   ----------------------------------------
	BYTE	W96
// 029   ----------------------------------------
	BYTE	W96
// 030   ----------------------------------------
	BYTE	W96
// 031   ----------------------------------------
	BYTE	W96
// 032   ----------------------------------------
	BYTE	W96
// 033   ----------------------------------------
	BYTE	W96
// 034   ----------------------------------------
	BYTE	W96
// 035   ----------------------------------------
	BYTE	W96
// 036   ----------------------------------------
	BYTE	W96
// 037   ----------------------------------------
	BYTE	W96
// 038   ----------------------------------------
	BYTE	W96
// 039   ----------------------------------------
	BYTE	W96
// 040   ----------------------------------------
	BYTE	W96
// 041   ----------------------------------------
	BYTE	W96
// 042   ----------------------------------------
	BYTE	W96
// 043   ----------------------------------------
	BYTE	W96
// 044   ----------------------------------------
	BYTE	W96
// 045   ----------------------------------------
	BYTE	W96
// 046   ----------------------------------------
	BYTE	W96
// 047   ----------------------------------------
end_game_map_3_047:
	BYTE		VOL     100*end_game_map_mvl/mxv
	BYTE		N44     Dn4   v068
	BYTE		N44     Dn5   v080
	BYTE	W48
	BYTE		        Cs4   v064
	BYTE		N44     Cs5   v080
	BYTE	W48
	BYTE	PEND
// 048   ----------------------------------------
end_game_map_3_048:
	BYTE		N44     Bn3   v068
	BYTE		N44     Bn4   v080
	BYTE	W48
	BYTE		        Gs3   v064
	BYTE		N44     Gs4   v080
	BYTE	W48
	BYTE	PEND
// 049   ----------------------------------------
end_game_map_3_049:
	BYTE		N92     Gn3   v064
	BYTE		N92     Gn4   v076
	BYTE	W09
	BYTE		VOL     100*end_game_map_mvl/mxv
	BYTE	W03
	BYTE		        100*end_game_map_mvl/mxv
	BYTE	W03
	BYTE		        100*end_game_map_mvl/mxv
	BYTE	W04
	BYTE		        100*end_game_map_mvl/mxv
	BYTE	W03
	BYTE		        100*end_game_map_mvl/mxv
	BYTE	W03
	BYTE		        100*end_game_map_mvl/mxv
	BYTE	W04
	BYTE		        100*end_game_map_mvl/mxv
	BYTE	W07
	BYTE		        100*end_game_map_mvl/mxv
	BYTE	W03
	BYTE		        100*end_game_map_mvl/mxv
	BYTE	W09
	BYTE		        100*end_game_map_mvl/mxv
	BYTE	W06
	BYTE		        100*end_game_map_mvl/mxv
	BYTE	W03
	BYTE		        100*end_game_map_mvl/mxv
	BYTE	W06
	BYTE		        100*end_game_map_mvl/mxv
	BYTE	W03
	BYTE		        100*end_game_map_mvl/mxv
	BYTE	W03
	BYTE		        100*end_game_map_mvl/mxv
	BYTE	W07
	BYTE		        100*end_game_map_mvl/mxv
	BYTE	W03
	BYTE		        100*end_game_map_mvl/mxv
	BYTE	W06
	BYTE		        100*end_game_map_mvl/mxv
	BYTE	W11
	BYTE	PEND
// 050   ----------------------------------------
end_game_map_3_050:
	BYTE		N92     Cs4   v064
	BYTE		N92     Cs5   v076
	BYTE	W09
	BYTE		VOL     100*end_game_map_mvl/mxv
	BYTE	W03
	BYTE		        100*end_game_map_mvl/mxv
	BYTE	W03
	BYTE		        100*end_game_map_mvl/mxv
	BYTE	W04
	BYTE		        100*end_game_map_mvl/mxv
	BYTE	W03
	BYTE		        100*end_game_map_mvl/mxv
	BYTE	W03
	BYTE		        100*end_game_map_mvl/mxv
	BYTE	W04
	BYTE		        100*end_game_map_mvl/mxv
	BYTE	W07
	BYTE		        100*end_game_map_mvl/mxv
	BYTE	W03
	BYTE		        100*end_game_map_mvl/mxv
	BYTE	W03
	BYTE		        100*end_game_map_mvl/mxv
	BYTE	W03
	BYTE		        100*end_game_map_mvl/mxv
	BYTE	W03
	BYTE		        100*end_game_map_mvl/mxv
	BYTE	W03
	BYTE		        100*end_game_map_mvl/mxv
	BYTE	W03
	BYTE		        100*end_game_map_mvl/mxv
	BYTE	W03
	BYTE		        100*end_game_map_mvl/mxv
	BYTE	W03
	BYTE		        100*end_game_map_mvl/mxv
	BYTE	W03
	BYTE		        100*end_game_map_mvl/mxv
	BYTE	W03
	BYTE		        100*end_game_map_mvl/mxv
	BYTE	W03
	BYTE		        100*end_game_map_mvl/mxv
	BYTE	W03
	BYTE		        100*end_game_map_mvl/mxv
	BYTE	W04
	BYTE		        100*end_game_map_mvl/mxv
	BYTE	W03
	BYTE		        100*end_game_map_mvl/mxv
	BYTE	W03
	BYTE		        100*end_game_map_mvl/mxv
	BYTE	W03
	BYTE		        100*end_game_map_mvl/mxv
	BYTE	W03
	BYTE		        100*end_game_map_mvl/mxv
	BYTE	W03
	BYTE		        100*end_game_map_mvl/mxv
	BYTE	W03
	BYTE		        100*end_game_map_mvl/mxv
	BYTE	W02
	BYTE	PEND
// 051   ----------------------------------------
end_game_map_3_051:
	BYTE	W44
	BYTE	W03
	BYTE		VOL     100*end_game_map_mvl/mxv
	BYTE	W48
	BYTE	W01
	BYTE	PEND
// 052   ----------------------------------------
	BYTE	W96
// 053   ----------------------------------------
	BYTE	W96
// 054   ----------------------------------------
	BYTE	W96
// 055   ----------------------------------------
	BYTE	W96
// 056   ----------------------------------------
	BYTE	W96
// 057   ----------------------------------------
	BYTE	W96
// 058   ----------------------------------------
	BYTE	W48
	BYTE		        100*end_game_map_mvl/mxv
	BYTE	W48
// 059   ----------------------------------------
end_game_map_3_059:
	BYTE		N92     Fn3   v072
	BYTE	W05
	BYTE		VOL     100*end_game_map_mvl/mxv
	BYTE	W04
	BYTE		        100*end_game_map_mvl/mxv
	BYTE	W03
	BYTE		        100*end_game_map_mvl/mxv
	BYTE	W03
	BYTE		        100*end_game_map_mvl/mxv
	BYTE	W04
	BYTE		        100*end_game_map_mvl/mxv
	BYTE	W03
	BYTE		        100*end_game_map_mvl/mxv
	BYTE	W03
	BYTE		        100*end_game_map_mvl/mxv
	BYTE	W04
	BYTE		        100*end_game_map_mvl/mxv
	BYTE	W03
	BYTE		        100*end_game_map_mvl/mxv
	BYTE	W04
	BYTE		        100*end_game_map_mvl/mxv
	BYTE	W03
	BYTE		        100*end_game_map_mvl/mxv
	BYTE	W09
	BYTE		        100*end_game_map_mvl/mxv
	BYTE	W06
	BYTE		        100*end_game_map_mvl/mxv
	BYTE	W03
	BYTE		        100*end_game_map_mvl/mxv
	BYTE	W06
	BYTE		        100*end_game_map_mvl/mxv
	BYTE	W03
	BYTE		        100*end_game_map_mvl/mxv
	BYTE	W03
	BYTE		        100*end_game_map_mvl/mxv
	BYTE	W07
	BYTE		        100*end_game_map_mvl/mxv
	BYTE	W03
	BYTE		        100*end_game_map_mvl/mxv
	BYTE	W06
	BYTE		        100*end_game_map_mvl/mxv
	BYTE	W11
	BYTE	PEND
// 060   ----------------------------------------
end_game_map_3_060:
	BYTE		N44     Gn3   v076
	BYTE	W48
	BYTE		        Cn4   v072
	BYTE	W48
	BYTE	PEND
// 061   ----------------------------------------
end_game_map_3_061:
	BYTE		N92     Gn3   v072
	BYTE	W09
	BYTE		VOL     100*end_game_map_mvl/mxv
	BYTE	W03
	BYTE		        100*end_game_map_mvl/mxv
	BYTE	W03
	BYTE		        100*end_game_map_mvl/mxv
	BYTE	W04
	BYTE		        100*end_game_map_mvl/mxv
	BYTE	W03
	BYTE		        100*end_game_map_mvl/mxv
	BYTE	W03
	BYTE		        100*end_game_map_mvl/mxv
	BYTE	W04
	BYTE		        100*end_game_map_mvl/mxv
	BYTE	W07
	BYTE		        100*end_game_map_mvl/mxv
	BYTE	W03
	BYTE		        100*end_game_map_mvl/mxv
	BYTE	W09
	BYTE		        100*end_game_map_mvl/mxv
	BYTE	W06
	BYTE		        100*end_game_map_mvl/mxv
	BYTE	W03
	BYTE		        100*end_game_map_mvl/mxv
	BYTE	W06
	BYTE		        100*end_game_map_mvl/mxv
	BYTE	W03
	BYTE		        100*end_game_map_mvl/mxv
	BYTE	W03
	BYTE		        100*end_game_map_mvl/mxv
	BYTE	W07
	BYTE		        100*end_game_map_mvl/mxv
	BYTE	W03
	BYTE		        100*end_game_map_mvl/mxv
	BYTE	W06
	BYTE		        100*end_game_map_mvl/mxv
	BYTE	W11
	BYTE	PEND
// 062   ----------------------------------------
end_game_map_3_062:
	BYTE		N44     Dn3   v076
	BYTE	W48
	BYTE		        Fn3   v072
	BYTE	W48
	BYTE	PEND
// 063   ----------------------------------------
end_game_map_3_063:
	BYTE		N92     An3   v072
	BYTE	W09
	BYTE		VOL     100*end_game_map_mvl/mxv
	BYTE	W03
	BYTE		        100*end_game_map_mvl/mxv
	BYTE	W03
	BYTE		        100*end_game_map_mvl/mxv
	BYTE	W04
	BYTE		        100*end_game_map_mvl/mxv
	BYTE	W03
	BYTE		        100*end_game_map_mvl/mxv
	BYTE	W03
	BYTE		        100*end_game_map_mvl/mxv
	BYTE	W04
	BYTE		        100*end_game_map_mvl/mxv
	BYTE	W07
	BYTE		        100*end_game_map_mvl/mxv
	BYTE	W03
	BYTE		        100*end_game_map_mvl/mxv
	BYTE	W09
	BYTE		        100*end_game_map_mvl/mxv
	BYTE	W06
	BYTE		        100*end_game_map_mvl/mxv
	BYTE	W03
	BYTE		        100*end_game_map_mvl/mxv
	BYTE	W06
	BYTE		        100*end_game_map_mvl/mxv
	BYTE	W03
	BYTE		        100*end_game_map_mvl/mxv
	BYTE	W03
	BYTE		        100*end_game_map_mvl/mxv
	BYTE	W07
	BYTE		        100*end_game_map_mvl/mxv
	BYTE	W03
	BYTE		        100*end_game_map_mvl/mxv
	BYTE	W06
	BYTE		        100*end_game_map_mvl/mxv
	BYTE	W11
	BYTE	PEND
// 064   ----------------------------------------
end_game_map_3_064:
	BYTE		N44     As3   v076
	BYTE	W48
	BYTE		        Cs4   v072
	BYTE	W48
	BYTE	PEND
// 065   ----------------------------------------
end_game_map_3_065:
	BYTE		N44     Ds4   v076
	BYTE	W48
	BYTE		        Cs4   v072
	BYTE	W48
	BYTE	PEND
// 066   ----------------------------------------
end_game_map_3_066:
	BYTE		N44     Fn4   v076
	BYTE	W48
	BYTE		        Cs4   v072
	BYTE	W48
	BYTE	PEND
// 067   ----------------------------------------
end_game_map_3_067:
	BYTE		N09     Dn3   v056
	BYTE		N09     Gn3 
	BYTE		N09     As3   v064
	BYTE	W12
	BYTE		        Dn3   v052
	BYTE		N09     Gn3   v060
	BYTE		N08     As3   v056
	BYTE	W23
	BYTE		VOL     100*end_game_map_mvl/mxv
	BYTE	W13
	BYTE		N08     Dn3   v048
	BYTE		N08     Fn3   v060
	BYTE		N08     As3   v056
	BYTE	W12
	BYTE		N09     Dn3   v044
	BYTE		N09     Fn3   v056
	BYTE		N08     As3   v052
	BYTE	W36
	BYTE	PEND
// 068   ----------------------------------------
end_game_map_3_068:
	BYTE		N09     Dn3   v052
	BYTE		N09     Gn3   v060
	BYTE		N09     As3   v056
	BYTE	W12
	BYTE		        Dn3   v044
	BYTE		N09     Gn3 
	BYTE		N08     As3   v060
	BYTE	W36
	BYTE		N09     Fs3 
	BYTE		N09     An3 
	BYTE		N09     Cn4   v076
	BYTE	W12
	BYTE		        Dn3   v056
	BYTE		N09     Fs3 
	BYTE		N09     An3   v072
	BYTE	W36
	BYTE	PEND
// 069   ----------------------------------------
end_game_map_3_069:
	BYTE		N09     Dn3   v052
	BYTE		N09     Gn3 
	BYTE		N09     As3   v064
	BYTE	W12
	BYTE		        Dn3   v044
	BYTE		N09     Gn3   v056
	BYTE		N08     As3   v052
	BYTE	W36
	BYTE		        Dn3   v048
	BYTE		N08     Fn3   v060
	BYTE		N08     As3   v056
	BYTE	W12
	BYTE		N09     Dn3   v044
	BYTE		N09     Fn3   v056
	BYTE		N08     As3   v052
	BYTE	W36
	BYTE	PEND
// 070   ----------------------------------------
	BYTE	PATT
	 POIN2	end_game_map_3_068
// 071   ----------------------------------------
	BYTE	PATT
	 POIN2	end_game_map_3_069
// 072   ----------------------------------------
	BYTE	PATT
	 POIN2	end_game_map_3_068
// 073   ----------------------------------------
	BYTE	PATT
	 POIN2	end_game_map_3_069
// 074   ----------------------------------------
	BYTE	PATT
	 POIN2	end_game_map_3_068
// 075   ----------------------------------------
	BYTE	W96
// 076   ----------------------------------------
	BYTE	W96
// 077   ----------------------------------------
	BYTE	W96
// 078   ----------------------------------------
	BYTE	W96
// 079   ----------------------------------------
	BYTE	PATT
	 POIN2	end_game_map_3_008
// 080   ----------------------------------------
	BYTE	PATT
	 POIN2	end_game_map_3_009
// 081   ----------------------------------------
	BYTE	PATT
	 POIN2	end_game_map_3_010
// 082   ----------------------------------------
	BYTE	PATT
	 POIN2	end_game_map_3_011
// 083   ----------------------------------------
	BYTE	W96
// 084   ----------------------------------------
	BYTE	W96
// 085   ----------------------------------------
	BYTE	W96
// 086   ----------------------------------------
	BYTE	W96
// 087   ----------------------------------------
	BYTE	W96
// 088   ----------------------------------------
	BYTE	W96
// 089   ----------------------------------------
	BYTE	W96
// 090   ----------------------------------------
	BYTE	W96
// 091   ----------------------------------------
	BYTE	PATT
	 POIN2	end_game_map_3_020
// 092   ----------------------------------------
	BYTE	PATT
	 POIN2	end_game_map_3_021
// 093   ----------------------------------------
	BYTE	PATT
	 POIN2	end_game_map_3_022
// 094   ----------------------------------------
	BYTE	PATT
	 POIN2	end_game_map_3_023
// 095   ----------------------------------------
	BYTE	PATT
	 POIN2	end_game_map_3_024
// 096   ----------------------------------------
	BYTE	PATT
	 POIN2	end_game_map_3_025
// 097   ----------------------------------------
	BYTE	PATT
	 POIN2	end_game_map_3_026
// 098   ----------------------------------------
	BYTE	PATT
	 POIN2	end_game_map_3_027
// 099   ----------------------------------------
	BYTE	W96
// 100   ----------------------------------------
	BYTE	W96
// 101   ----------------------------------------
	BYTE	W96
// 102   ----------------------------------------
	BYTE	W96
// 103   ----------------------------------------
	BYTE	W96
// 104   ----------------------------------------
	BYTE	W96
// 105   ----------------------------------------
	BYTE	W96
// 106   ----------------------------------------
	BYTE	W96
// 107   ----------------------------------------
	BYTE	W96
// 108   ----------------------------------------
	BYTE	W96
// 109   ----------------------------------------
	BYTE	W96
// 110   ----------------------------------------
	BYTE	W96
// 111   ----------------------------------------
	BYTE	W96
// 112   ----------------------------------------
	BYTE	W96
// 113   ----------------------------------------
	BYTE	W96
// 114   ----------------------------------------
	BYTE	W96
// 115   ----------------------------------------
	BYTE	W96
// 116   ----------------------------------------
	BYTE	W96
// 117   ----------------------------------------
	BYTE	W96
// 118   ----------------------------------------
	BYTE	PATT
	 POIN2	end_game_map_3_047
// 119   ----------------------------------------
	BYTE	PATT
	 POIN2	end_game_map_3_048
// 120   ----------------------------------------
	BYTE	PATT
	 POIN2	end_game_map_3_049
// 121   ----------------------------------------
	BYTE	PATT
	 POIN2	end_game_map_3_050
// 122   ----------------------------------------
	BYTE	PATT
	 POIN2	end_game_map_3_051
// 123   ----------------------------------------
	BYTE	W96
// 124   ----------------------------------------
	BYTE	W96
// 125   ----------------------------------------
	BYTE	W96
// 126   ----------------------------------------
	BYTE	W96
// 127   ----------------------------------------
	BYTE	W96
// 128   ----------------------------------------
	BYTE	W96
// 129   ----------------------------------------
	BYTE	W48
	BYTE		VOL     100*end_game_map_mvl/mxv
	BYTE	W48
// 130   ----------------------------------------
	BYTE	PATT
	 POIN2	end_game_map_3_059
// 131   ----------------------------------------
	BYTE	PATT
	 POIN2	end_game_map_3_060
// 132   ----------------------------------------
	BYTE	PATT
	 POIN2	end_game_map_3_061
// 133   ----------------------------------------
	BYTE	PATT
	 POIN2	end_game_map_3_062
// 134   ----------------------------------------
	BYTE	PATT
	 POIN2	end_game_map_3_063
// 135   ----------------------------------------
	BYTE	PATT
	 POIN2	end_game_map_3_064
// 136   ----------------------------------------
	BYTE	PATT
	 POIN2	end_game_map_3_065
// 137   ----------------------------------------
	BYTE	PATT
	 POIN2	end_game_map_3_066
// 138   ----------------------------------------
	BYTE	PATT
	 POIN2	end_game_map_3_067
// 139   ----------------------------------------
	BYTE	PATT
	 POIN2	end_game_map_3_068
// 140   ----------------------------------------
	BYTE	PATT
	 POIN2	end_game_map_3_069
// 141   ----------------------------------------
	BYTE	PATT
	 POIN2	end_game_map_3_068
// 142   ----------------------------------------
	BYTE	PATT
	 POIN2	end_game_map_3_069
// 143   ----------------------------------------
	BYTE	PATT
	 POIN2	end_game_map_3_068
// 144   ----------------------------------------
	BYTE	PATT
	 POIN2	end_game_map_3_069
// 145   ----------------------------------------
	BYTE		N09     Dn3   v052
	BYTE		N09     Gn3   v060
	BYTE		N09     As3   v056
	BYTE	W12
	BYTE		        Dn3   v044
	BYTE		N09     Gn3 
	BYTE		N08     As3   v060
	BYTE	W36
	BYTE		N09     Fs3 
	BYTE		N09     An3 
	BYTE		N09     Cn4   v076
	BYTE	W12
	BYTE		        Dn3   v056
	BYTE		N09     Fs3 
	BYTE		N09     An3   v072
	BYTE	W32
	BYTE	W03
	BYTE	FINE

//**************** Track 4 (Midi-Chn.3) ****************//

end_game_map_4:
	BYTE	KEYSH   end_game_map_key+0
// 000   ----------------------------------------
	BYTE		VOICE   61
	BYTE		VOL     100*end_game_map_mvl/mxv
	BYTE		PAN     c_v+36
	BYTE		VOL     100*end_game_map_mvl/mxv
	BYTE	W96
// 001   ----------------------------------------
	BYTE	W96
// 002   ----------------------------------------
	BYTE	W96
// 003   ----------------------------------------
	BYTE	W12
	BYTE		N09     As2   v064
	BYTE	W12
	BYTE		        As3   v068
	BYTE	W12
	BYTE		        An2   v064
	BYTE	W12
	BYTE		        An3   v068
	BYTE	W12
	BYTE		        Gn2   v064
	BYTE	W12
	BYTE		        Gn3   v068
	BYTE	W12
	BYTE		N22     Fs3   v064
	BYTE	W12
// 004   ----------------------------------------
	BYTE	W96
// 005   ----------------------------------------
	BYTE	W96
// 006   ----------------------------------------
	BYTE	W96
// 007   ----------------------------------------
	BYTE	W96
// 008   ----------------------------------------
end_game_map_4_008:
	BYTE	W12
	BYTE		N09     Dn4   v064
	BYTE	W12
	BYTE		N15     Dn5   v068
	BYTE	W18
	BYTE		N04     Dn4   v064
	BYTE	W06
	BYTE		N09     Cn5   v068
	BYTE	W12
	BYTE		N04     Dn5   v064
	BYTE	W06
	BYTE		        Cn5 
	BYTE	W06
	BYTE		        As4   v068
	BYTE	W06
	BYTE		        Dn5   v064
	BYTE	W06
	BYTE		        Gn4 
	BYTE	W05
	BYTE		        An4 
	BYTE	W07
	BYTE	PEND
// 009   ----------------------------------------
end_game_map_4_009:
	BYTE		N05     As4   v072
	BYTE	W06
	BYTE		N04     Dn5   v064
	BYTE	W06
	BYTE		N09     Dn4 
	BYTE	W12
	BYTE		N15     Dn5   v068
	BYTE	W18
	BYTE		N04     Dn4   v064
	BYTE	W06
	BYTE		N09     Cn5   v068
	BYTE	W12
	BYTE		N04     Dn5   v064
	BYTE	W06
	BYTE		        Cn5 
	BYTE	W06
	BYTE		        As4   v068
	BYTE	W06
	BYTE		        Dn5   v064
	BYTE	W06
	BYTE		        Fs4 
	BYTE	W05
	BYTE		        An4 
	BYTE	W07
	BYTE	PEND
// 010   ----------------------------------------
end_game_map_4_010:
	BYTE		N05     As4   v072
	BYTE	W06
	BYTE		N04     Cn5   v064
	BYTE	W06
	BYTE		N09     Dn4 
	BYTE	W12
	BYTE		N15     Dn5   v068
	BYTE	W18
	BYTE		N04     Dn4   v064
	BYTE	W06
	BYTE		N09     Cn5   v068
	BYTE	W12
	BYTE		N04     Dn5   v064
	BYTE	W06
	BYTE		        Cn5 
	BYTE	W06
	BYTE		        As4   v068
	BYTE	W06
	BYTE		        Dn5   v064
	BYTE	W06
	BYTE		        Fn4 
	BYTE	W05
	BYTE		        An4 
	BYTE	W07
	BYTE	PEND
// 011   ----------------------------------------
end_game_map_4_011:
	BYTE		N05     As4   v072
	BYTE	W06
	BYTE		N04     Cn5   v064
	BYTE	W06
	BYTE		N09     Dn5 
	BYTE	W12
	BYTE		N04     Cn5   v068
	BYTE	W06
	BYTE		N09     As4   v064
	BYTE	W12
	BYTE		N04     Dn5 
	BYTE	W06
	BYTE		N09     As4   v068
	BYTE	W12
	BYTE		N04     Gn4   v064
	BYTE	W06
	BYTE		        Gn5 
	BYTE	W06
	BYTE		        Fn4   v068
	BYTE	W06
	BYTE		        Fn5   v064
	BYTE	W06
	BYTE		        En4 
	BYTE	W05
	BYTE		        En5 
	BYTE	W07
	BYTE	PEND
// 012   ----------------------------------------
end_game_map_4_012:
	BYTE		N05     Gn4   v072
	BYTE	W06
	BYTE		N04     Gn5   v064
	BYTE	W90
	BYTE	PEND
// 013   ----------------------------------------
	BYTE	W96
// 014   ----------------------------------------
	BYTE	W96
// 015   ----------------------------------------
	BYTE	W96
// 016   ----------------------------------------
	BYTE	W96
// 017   ----------------------------------------
	BYTE	W96
// 018   ----------------------------------------
	BYTE	W96
// 019   ----------------------------------------
	BYTE	W96
// 020   ----------------------------------------
end_game_map_4_020:
	BYTE	W12
	BYTE		N16     As3   v056
	BYTE		N16     Dn4   v068
	BYTE	W18
	BYTE		N15     Dn4   v056
	BYTE		N15     Gn4   v072
	BYTE	W18
	BYTE		N04     Dn4   v048
	BYTE		N04     Fs4   v064
	BYTE	W06
	BYTE		N03     Dn4   v044
	BYTE		N03     Gn4   v060
	BYTE	W06
	BYTE		N21     As3   v056
	BYTE		N21     Dn4   v072
	BYTE	W24
	BYTE		N22     Dn4   v056
	BYTE		N22     Gn4   v072
	BYTE	W12
	BYTE	PEND
// 021   ----------------------------------------
end_game_map_4_021:
	BYTE	W12
	BYTE		N16     An3   v056
	BYTE		N16     Dn4   v072
	BYTE	W18
	BYTE		N15     Dn4   v056
	BYTE		N15     Gn4   v072
	BYTE	W18
	BYTE		N04     Dn4   v048
	BYTE		N04     Fs4   v064
	BYTE	W06
	BYTE		        Dn4   v044
	BYTE		N03     Gn4   v060
	BYTE	W06
	BYTE		N21     Fs4   v056
	BYTE		N21     An4   v072
	BYTE	W24
	BYTE		N22     An4   v056
	BYTE		N22     Cn5   v072
	BYTE	W12
	BYTE	PEND
// 022   ----------------------------------------
end_game_map_4_022:
	BYTE	W12
	BYTE		N16     An3   v056
	BYTE		N16     Dn4   v072
	BYTE	W18
	BYTE		N15     Dn4   v056
	BYTE		N15     Gn4   v072
	BYTE	W18
	BYTE		N04     Fn4   v060
	BYTE		N04     As4   v076
	BYTE	W06
	BYTE		        An4   v056
	BYTE		N04     Cn5   v072
	BYTE	W06
	BYTE		N21     An4   v056
	BYTE		N21     Dn5   v072
	BYTE	W24
	BYTE		N22     Dn4   v044
	BYTE		N21     Fn4   v060
	BYTE	W12
	BYTE	PEND
// 023   ----------------------------------------
end_game_map_4_023:
	BYTE	W12
	BYTE		N21     Ds4   v056
	BYTE		N21     Gn4   v072
	BYTE	W24
	BYTE		N09     As4   v056
	BYTE		N09     Dn5   v072
	BYTE	W12
	BYTE		        An4   v060
	BYTE		N09     Cn5   v076
	BYTE	W24
	BYTE		        Gn4   v060
	BYTE		N09     As4   v072
	BYTE	W24
	BYTE	PEND
// 024   ----------------------------------------
end_game_map_4_024:
	BYTE		N10     Fn4   v064
	BYTE		N10     An4   v076
	BYTE	W12
	BYTE		N21     Cn4   v056
	BYTE		N21     Fn4   v072
	BYTE	W24
	BYTE		N09     An4   v056
	BYTE		N09     Ds5   v072
	BYTE	W12
	BYTE		        An4   v060
	BYTE		N09     Dn5   v076
	BYTE	W24
	BYTE		        Cn5   v060
	BYTE		N09     Fn5   v072
	BYTE	W24
	BYTE	PEND
// 025   ----------------------------------------
end_game_map_4_025:
	BYTE		N32     As4   v064
	BYTE		N32     Dn5   v076
	BYTE	W36
	BYTE		N09     An4   v056
	BYTE		N09     Cn5   v072
	BYTE	W12
	BYTE		        Fn4   v060
	BYTE		N09     As4   v076
	BYTE	W24
	BYTE		        As4   v060
	BYTE		N09     Dn5   v072
	BYTE	W24
	BYTE	PEND
// 026   ----------------------------------------
end_game_map_4_026:
	BYTE		N10     Dn4   v064
	BYTE		N10     Fn4   v076
	BYTE	W12
	BYTE		N09     Dn4   v056
	BYTE		N09     Fs4   v072
	BYTE	W12
	BYTE		        Fs4   v060
	BYTE		N09     An4   v072
	BYTE	W12
	BYTE		        An4   v056
	BYTE		N09     Ds5   v072
	BYTE	W12
	BYTE		        An4   v060
	BYTE		N09     Dn5   v076
	BYTE	W24
	BYTE		        Dn5   v060
	BYTE		N09     Fs5   v072
	BYTE	W24
	BYTE	PEND
// 027   ----------------------------------------
end_game_map_4_027:
	BYTE		N10     An4   v064
	BYTE		N10     Dn5   v076
	BYTE	W12
	BYTE		N21     Dn4   v056
	BYTE		N21     Gn4   v072
	BYTE	W84
	BYTE	PEND
// 028   ----------------------------------------
	BYTE	W96
// 029   ----------------------------------------
	BYTE	W96
// 030   ----------------------------------------
	BYTE	W96
// 031   ----------------------------------------
	BYTE	W96
// 032   ----------------------------------------
	BYTE	W96
// 033   ----------------------------------------
	BYTE	W96
// 034   ----------------------------------------
	BYTE	W96
// 035   ----------------------------------------
	BYTE	W96
// 036   ----------------------------------------
	BYTE	W96
// 037   ----------------------------------------
	BYTE	W96
// 038   ----------------------------------------
	BYTE	W96
// 039   ----------------------------------------
	BYTE	W96
// 040   ----------------------------------------
	BYTE	W96
// 041   ----------------------------------------
	BYTE	W96
// 042   ----------------------------------------
	BYTE	W96
// 043   ----------------------------------------
	BYTE	W96
// 044   ----------------------------------------
	BYTE	W96
// 045   ----------------------------------------
	BYTE	W96
// 046   ----------------------------------------
	BYTE	W96
// 047   ----------------------------------------
end_game_map_4_047:
	BYTE	W12
	BYTE		VOL     100*end_game_map_mvl/mxv
	BYTE		N44     Dn4   v064
	BYTE		N44     Dn5   v072
	BYTE	W48
	BYTE		        Cs4   v064
	BYTE		N44     Cs5   v076
	BYTE	W36
	BYTE	PEND
// 048   ----------------------------------------
end_game_map_4_048:
	BYTE	W12
	BYTE		N44     Bn3   v064
	BYTE		N44     Bn4   v076
	BYTE	W48
	BYTE		        Gs3   v064
	BYTE		N44     Gs4   v076
	BYTE	W36
	BYTE	PEND
// 049   ----------------------------------------
end_game_map_4_049:
	BYTE	W12
	BYTE		N92     Gn3   v064
	BYTE		N92     Gn4   v076
	BYTE	W12
	BYTE		VOL     100*end_game_map_mvl/mxv
	BYTE	W07
	BYTE		        100*end_game_map_mvl/mxv
	BYTE	W03
	BYTE		        100*end_game_map_mvl/mxv
	BYTE	W03
	BYTE		        100*end_game_map_mvl/mxv
	BYTE	W11
	BYTE		        100*end_game_map_mvl/mxv
	BYTE	W03
	BYTE		        100*end_game_map_mvl/mxv
	BYTE	W15
	BYTE		        100*end_game_map_mvl/mxv
	BYTE	W10
	BYTE		        100*end_game_map_mvl/mxv
	BYTE	W03
	BYTE		        100*end_game_map_mvl/mxv
	BYTE	W09
	BYTE		        100*end_game_map_mvl/mxv
	BYTE	W03
	BYTE		        100*end_game_map_mvl/mxv
	BYTE	W05
	BYTE	PEND
// 050   ----------------------------------------
end_game_map_4_050:
	BYTE	W12
	BYTE		N92     Cs4   v064
	BYTE		N92     Cs5   v076
	BYTE	W12
	BYTE		VOL     100*end_game_map_mvl/mxv
	BYTE	W07
	BYTE		        100*end_game_map_mvl/mxv
	BYTE	W03
	BYTE		        100*end_game_map_mvl/mxv
	BYTE	W03
	BYTE		        100*end_game_map_mvl/mxv
	BYTE	W11
	BYTE		        100*end_game_map_mvl/mxv
	BYTE	W03
	BYTE		        100*end_game_map_mvl/mxv
	BYTE	W03
	BYTE		        100*end_game_map_mvl/mxv
	BYTE	W03
	BYTE		        100*end_game_map_mvl/mxv
	BYTE	W03
	BYTE		        100*end_game_map_mvl/mxv
	BYTE	W03
	BYTE		        100*end_game_map_mvl/mxv
	BYTE	W03
	BYTE		        100*end_game_map_mvl/mxv
	BYTE	W03
	BYTE		        100*end_game_map_mvl/mxv
	BYTE	W04
	BYTE		        100*end_game_map_mvl/mxv
	BYTE	W03
	BYTE		        100*end_game_map_mvl/mxv
	BYTE	W03
	BYTE		        100*end_game_map_mvl/mxv
	BYTE	W03
	BYTE		        100*end_game_map_mvl/mxv
	BYTE	W03
	BYTE		        100*end_game_map_mvl/mxv
	BYTE	W03
	BYTE		        100*end_game_map_mvl/mxv
	BYTE	W03
	BYTE		        100*end_game_map_mvl/mxv
	BYTE	W03
	BYTE		        100*end_game_map_mvl/mxv
	BYTE	W02
	BYTE	PEND
// 051   ----------------------------------------
end_game_map_4_051:
	BYTE	W02
	BYTE		VOL     100*end_game_map_mvl/mxv
	BYTE	W03
	BYTE		        100*end_game_map_mvl/mxv
	BYTE	W03
	BYTE		        100*end_game_map_mvl/mxv
	BYTE	W03
	BYTE		        100*end_game_map_mvl/mxv
	BYTE	W42
	BYTE		        100*end_game_map_mvl/mxv
	BYTE	W42
	BYTE	W01
	BYTE	PEND
// 052   ----------------------------------------
	BYTE	W96
// 053   ----------------------------------------
	BYTE	W96
// 054   ----------------------------------------
	BYTE	W96
// 055   ----------------------------------------
	BYTE	W96
// 056   ----------------------------------------
	BYTE	W96
// 057   ----------------------------------------
	BYTE	W96
// 058   ----------------------------------------
	BYTE	W60
	BYTE		        100*end_game_map_mvl/mxv
	BYTE	W36
// 059   ----------------------------------------
end_game_map_4_059:
	BYTE	W12
	BYTE		N92     Fn3   v072
	BYTE	W06
	BYTE		VOL     100*end_game_map_mvl/mxv
	BYTE	W03
	BYTE		        100*end_game_map_mvl/mxv
	BYTE	W03
	BYTE		        100*end_game_map_mvl/mxv
	BYTE	W04
	BYTE		        100*end_game_map_mvl/mxv
	BYTE	W03
	BYTE		        100*end_game_map_mvl/mxv
	BYTE	W03
	BYTE		        100*end_game_map_mvl/mxv
	BYTE	W03
	BYTE		        100*end_game_map_mvl/mxv
	BYTE	W04
	BYTE		        100*end_game_map_mvl/mxv
	BYTE	W03
	BYTE		        100*end_game_map_mvl/mxv
	BYTE	W04
	BYTE		        100*end_game_map_mvl/mxv
	BYTE	W03
	BYTE		        100*end_game_map_mvl/mxv
	BYTE	W15
	BYTE		        100*end_game_map_mvl/mxv
	BYTE	W10
	BYTE		        100*end_game_map_mvl/mxv
	BYTE	W03
	BYTE		        100*end_game_map_mvl/mxv
	BYTE	W09
	BYTE		        100*end_game_map_mvl/mxv
	BYTE	W03
	BYTE		        100*end_game_map_mvl/mxv
	BYTE	W05
	BYTE	PEND
// 060   ----------------------------------------
end_game_map_4_060:
	BYTE	W12
	BYTE		N44     Gn3   v072
	BYTE	W48
	BYTE		        Cn4 
	BYTE	W36
	BYTE	PEND
// 061   ----------------------------------------
end_game_map_4_061:
	BYTE	W12
	BYTE		N92     Gn3   v072
	BYTE	W12
	BYTE		VOL     100*end_game_map_mvl/mxv
	BYTE	W07
	BYTE		        100*end_game_map_mvl/mxv
	BYTE	W03
	BYTE		        100*end_game_map_mvl/mxv
	BYTE	W03
	BYTE		        100*end_game_map_mvl/mxv
	BYTE	W11
	BYTE		        100*end_game_map_mvl/mxv
	BYTE	W03
	BYTE		        100*end_game_map_mvl/mxv
	BYTE	W15
	BYTE		        100*end_game_map_mvl/mxv
	BYTE	W10
	BYTE		        100*end_game_map_mvl/mxv
	BYTE	W03
	BYTE		        100*end_game_map_mvl/mxv
	BYTE	W09
	BYTE		        100*end_game_map_mvl/mxv
	BYTE	W03
	BYTE		        100*end_game_map_mvl/mxv
	BYTE	W05
	BYTE	PEND
// 062   ----------------------------------------
end_game_map_4_062:
	BYTE	W12
	BYTE		N44     Dn3   v072
	BYTE	W48
	BYTE		        Fn3 
	BYTE	W36
	BYTE	PEND
// 063   ----------------------------------------
end_game_map_4_063:
	BYTE	W12
	BYTE		N92     An3   v072
	BYTE	W12
	BYTE		VOL     100*end_game_map_mvl/mxv
	BYTE	W07
	BYTE		        100*end_game_map_mvl/mxv
	BYTE	W03
	BYTE		        100*end_game_map_mvl/mxv
	BYTE	W03
	BYTE		        100*end_game_map_mvl/mxv
	BYTE	W11
	BYTE		        100*end_game_map_mvl/mxv
	BYTE	W03
	BYTE		        100*end_game_map_mvl/mxv
	BYTE	W15
	BYTE		        100*end_game_map_mvl/mxv
	BYTE	W10
	BYTE		        100*end_game_map_mvl/mxv
	BYTE	W03
	BYTE		        100*end_game_map_mvl/mxv
	BYTE	W09
	BYTE		        100*end_game_map_mvl/mxv
	BYTE	W03
	BYTE		        100*end_game_map_mvl/mxv
	BYTE	W05
	BYTE	PEND
// 064   ----------------------------------------
end_game_map_4_064:
	BYTE	W12
	BYTE		N44     As3   v072
	BYTE	W48
	BYTE		        Cs4 
	BYTE	W36
	BYTE	PEND
// 065   ----------------------------------------
end_game_map_4_065:
	BYTE	W12
	BYTE		N44     Ds4   v072
	BYTE	W48
	BYTE		        Cs4 
	BYTE	W36
	BYTE	PEND
// 066   ----------------------------------------
end_game_map_4_066:
	BYTE	W12
	BYTE		N44     Fn4   v072
	BYTE	W48
	BYTE		        Cs4 
	BYTE	W36
	BYTE	PEND
// 067   ----------------------------------------
end_game_map_4_067:
	BYTE	W12
	BYTE		N09     Dn3   v064
	BYTE		N09     Gn3 
	BYTE		N09     As3   v072
	BYTE	W12
	BYTE		        Dn3   v064
	BYTE		N09     Gn3   v076
	BYTE		N09     As3   v068
	BYTE	W23
	BYTE		VOL     100*end_game_map_mvl/mxv
	BYTE	W13
	BYTE		N09     Dn3   v056
	BYTE		N09     Fn3   v068
	BYTE		N09     As3   v064
	BYTE	W12
	BYTE		        Dn3   v060
	BYTE		N09     Fn3   v068
	BYTE		N09     As3   v064
	BYTE	W24
	BYTE	PEND
// 068   ----------------------------------------
end_game_map_4_068:
	BYTE	W12
	BYTE		N09     Dn3   v056
	BYTE		N09     Gn3   v068
	BYTE		N09     As3   v064
	BYTE	W12
	BYTE		        Dn3   v060
	BYTE		N09     Gn3 
	BYTE		N09     As3   v072
	BYTE	W36
	BYTE		        Fs3   v056
	BYTE		N09     An3 
	BYTE		N09     Cn4   v072
	BYTE	W12
	BYTE		        Dn3   v060
	BYTE		N09     Fs3 
	BYTE		N09     An3   v072
	BYTE	W24
	BYTE	PEND
// 069   ----------------------------------------
end_game_map_4_069:
	BYTE	W12
	BYTE		N09     Dn3   v056
	BYTE		N09     Gn3 
	BYTE		N09     As3   v072
	BYTE	W12
	BYTE		        Dn3   v060
	BYTE		N09     Gn3   v068
	BYTE		N09     As3   v064
	BYTE	W36
	BYTE		        Dn3   v056
	BYTE		N09     Fn3   v068
	BYTE		N09     As3   v064
	BYTE	W12
	BYTE		        Dn3   v060
	BYTE		N09     Fn3   v068
	BYTE		N09     As3   v064
	BYTE	W24
	BYTE	PEND
// 070   ----------------------------------------
	BYTE	PATT
	 POIN2	end_game_map_4_068
// 071   ----------------------------------------
	BYTE	PATT
	 POIN2	end_game_map_4_069
// 072   ----------------------------------------
	BYTE	PATT
	 POIN2	end_game_map_4_068
// 073   ----------------------------------------
	BYTE	PATT
	 POIN2	end_game_map_4_069
// 074   ----------------------------------------
	BYTE	PATT
	 POIN2	end_game_map_4_068
// 075   ----------------------------------------
	BYTE		N10     Fs3   v072
	BYTE	W96
// 076   ----------------------------------------
	BYTE	W96
// 077   ----------------------------------------
	BYTE	W96
// 078   ----------------------------------------
	BYTE	W96
// 079   ----------------------------------------
	BYTE	PATT
	 POIN2	end_game_map_4_008
// 080   ----------------------------------------
	BYTE	PATT
	 POIN2	end_game_map_4_009
// 081   ----------------------------------------
	BYTE	PATT
	 POIN2	end_game_map_4_010
// 082   ----------------------------------------
	BYTE	PATT
	 POIN2	end_game_map_4_011
// 083   ----------------------------------------
	BYTE	PATT
	 POIN2	end_game_map_4_012
// 084   ----------------------------------------
	BYTE	W96
// 085   ----------------------------------------
	BYTE	W96
// 086   ----------------------------------------
	BYTE	W96
// 087   ----------------------------------------
	BYTE	W96
// 088   ----------------------------------------
	BYTE	W96
// 089   ----------------------------------------
	BYTE	W96
// 090   ----------------------------------------
	BYTE	W96
// 091   ----------------------------------------
	BYTE	PATT
	 POIN2	end_game_map_4_020
// 092   ----------------------------------------
	BYTE	PATT
	 POIN2	end_game_map_4_021
// 093   ----------------------------------------
	BYTE	PATT
	 POIN2	end_game_map_4_022
// 094   ----------------------------------------
	BYTE	PATT
	 POIN2	end_game_map_4_023
// 095   ----------------------------------------
	BYTE	PATT
	 POIN2	end_game_map_4_024
// 096   ----------------------------------------
	BYTE	PATT
	 POIN2	end_game_map_4_025
// 097   ----------------------------------------
	BYTE	PATT
	 POIN2	end_game_map_4_026
// 098   ----------------------------------------
	BYTE	PATT
	 POIN2	end_game_map_4_027
// 099   ----------------------------------------
	BYTE	W96
// 100   ----------------------------------------
	BYTE	W96
// 101   ----------------------------------------
	BYTE	W96
// 102   ----------------------------------------
	BYTE	W96
// 103   ----------------------------------------
	BYTE	W96
// 104   ----------------------------------------
	BYTE	W96
// 105   ----------------------------------------
	BYTE	W96
// 106   ----------------------------------------
	BYTE	W96
// 107   ----------------------------------------
	BYTE	W96
// 108   ----------------------------------------
	BYTE	W96
// 109   ----------------------------------------
	BYTE	W96
// 110   ----------------------------------------
	BYTE	W96
// 111   ----------------------------------------
	BYTE	W96
// 112   ----------------------------------------
	BYTE	W96
// 113   ----------------------------------------
	BYTE	W96
// 114   ----------------------------------------
	BYTE	W96
// 115   ----------------------------------------
	BYTE	W96
// 116   ----------------------------------------
	BYTE	W96
// 117   ----------------------------------------
	BYTE	W96
// 118   ----------------------------------------
	BYTE	PATT
	 POIN2	end_game_map_4_047
// 119   ----------------------------------------
	BYTE	PATT
	 POIN2	end_game_map_4_048
// 120   ----------------------------------------
	BYTE	PATT
	 POIN2	end_game_map_4_049
// 121   ----------------------------------------
	BYTE	PATT
	 POIN2	end_game_map_4_050
// 122   ----------------------------------------
	BYTE	PATT
	 POIN2	end_game_map_4_051
// 123   ----------------------------------------
	BYTE	W96
// 124   ----------------------------------------
	BYTE	W96
// 125   ----------------------------------------
	BYTE	W96
// 126   ----------------------------------------
	BYTE	W96
// 127   ----------------------------------------
	BYTE	W96
// 128   ----------------------------------------
	BYTE	W96
// 129   ----------------------------------------
	BYTE	W60
	BYTE		VOL     100*end_game_map_mvl/mxv
	BYTE	W36
// 130   ----------------------------------------
	BYTE	PATT
	 POIN2	end_game_map_4_059
// 131   ----------------------------------------
	BYTE	PATT
	 POIN2	end_game_map_4_060
// 132   ----------------------------------------
	BYTE	PATT
	 POIN2	end_game_map_4_061
// 133   ----------------------------------------
	BYTE	PATT
	 POIN2	end_game_map_4_062
// 134   ----------------------------------------
	BYTE	PATT
	 POIN2	end_game_map_4_063
// 135   ----------------------------------------
	BYTE	PATT
	 POIN2	end_game_map_4_064
// 136   ----------------------------------------
	BYTE	PATT
	 POIN2	end_game_map_4_065
// 137   ----------------------------------------
	BYTE	PATT
	 POIN2	end_game_map_4_066
// 138   ----------------------------------------
	BYTE	PATT
	 POIN2	end_game_map_4_067
// 139   ----------------------------------------
	BYTE	PATT
	 POIN2	end_game_map_4_068
// 140   ----------------------------------------
	BYTE	PATT
	 POIN2	end_game_map_4_069
// 141   ----------------------------------------
	BYTE	PATT
	 POIN2	end_game_map_4_068
// 142   ----------------------------------------
	BYTE	PATT
	 POIN2	end_game_map_4_069
// 143   ----------------------------------------
	BYTE	PATT
	 POIN2	end_game_map_4_068
// 144   ----------------------------------------
	BYTE	PATT
	 POIN2	end_game_map_4_069
// 145   ----------------------------------------
	BYTE	W12
	BYTE		N09     Dn3   v056
	BYTE		N09     Gn3   v068
	BYTE		N09     As3   v064
	BYTE	W12
	BYTE		        Dn3   v060
	BYTE		N09     Gn3 
	BYTE		N09     As3   v072
	BYTE	W36
	BYTE		        Fs3   v056
	BYTE		N09     An3 
	BYTE		N09     Cn4   v072
	BYTE	W12
	BYTE		        Dn3   v060
	BYTE		N09     Fs3 
	BYTE		N09     An3   v072
	BYTE	W23
	BYTE	FINE

//**************** Track 5 (Midi-Chn.4) ****************//

end_game_map_5:
	BYTE	KEYSH   end_game_map_key+0
// 000   ----------------------------------------
	BYTE		VOICE   64
	BYTE		VOL     100*end_game_map_mvl/mxv
	BYTE		PAN     c_v+36
	BYTE		VOL     100*end_game_map_mvl/mxv
	BYTE	W96
// 001   ----------------------------------------
	BYTE	W96
// 002   ----------------------------------------
	BYTE	W96
// 003   ----------------------------------------
	BYTE	W48
	BYTE		        100*end_game_map_mvl/mxv
	BYTE	W48
// 004   ----------------------------------------
end_game_map_5_004:
	BYTE		N92     Gn4   v092
	BYTE	W05
	BYTE		VOL     100*end_game_map_mvl/mxv
	BYTE	W04
	BYTE		        100*end_game_map_mvl/mxv
	BYTE	W03
	BYTE		        100*end_game_map_mvl/mxv
	BYTE	W03
	BYTE		        100*end_game_map_mvl/mxv
	BYTE	W04
	BYTE		        100*end_game_map_mvl/mxv
	BYTE	W03
	BYTE		        100*end_game_map_mvl/mxv
	BYTE	W03
	BYTE		        100*end_game_map_mvl/mxv
	BYTE	W04
	BYTE		        100*end_game_map_mvl/mxv
	BYTE	W03
	BYTE		        100*end_game_map_mvl/mxv
	BYTE	W04
	BYTE		        100*end_game_map_mvl/mxv
	BYTE	W03
	BYTE		        100*end_game_map_mvl/mxv
	BYTE	W12
	BYTE		        100*end_game_map_mvl/mxv
	BYTE	W09
	BYTE		        100*end_game_map_mvl/mxv
	BYTE	W06
	BYTE		        100*end_game_map_mvl/mxv
	BYTE	W06
	BYTE		        100*end_game_map_mvl/mxv
	BYTE	W10
	BYTE		        100*end_game_map_mvl/mxv
	BYTE	W14
	BYTE	PEND
// 005   ----------------------------------------
end_game_map_5_005:
	BYTE		N44     Fs4   v100
	BYTE	W48
	BYTE		N21     Dn4   v096
	BYTE	W24
	BYTE		        En4 
	BYTE	W24
	BYTE	PEND
// 006   ----------------------------------------
end_game_map_5_006:
	BYTE		N68     Fn4   v092
	BYTE	W12
	BYTE		VOL     100*end_game_map_mvl/mxv
	BYTE	W06
	BYTE		        100*end_game_map_mvl/mxv
	BYTE	W07
	BYTE		        100*end_game_map_mvl/mxv
	BYTE	W10
	BYTE		        100*end_game_map_mvl/mxv
	BYTE	W03
	BYTE		        100*end_game_map_mvl/mxv
	BYTE	W10
	BYTE		        100*end_game_map_mvl/mxv
	BYTE	W06
	BYTE		        100*end_game_map_mvl/mxv
	BYTE	W07
	BYTE		        100*end_game_map_mvl/mxv
	BYTE	W11
	BYTE		N21     Gn4   v096
	BYTE	W24
	BYTE	PEND
// 007   ----------------------------------------
end_game_map_5_007:
	BYTE		N92     En4   v092
	BYTE	W12
	BYTE		VOL     100*end_game_map_mvl/mxv
	BYTE	W07
	BYTE		        100*end_game_map_mvl/mxv
	BYTE	W06
	BYTE		        100*end_game_map_mvl/mxv
	BYTE	W11
	BYTE		        100*end_game_map_mvl/mxv
	BYTE	W03
	BYTE		        100*end_game_map_mvl/mxv
	BYTE	W18
	BYTE		        100*end_game_map_mvl/mxv
	BYTE	W09
	BYTE		        100*end_game_map_mvl/mxv
	BYTE	W10
	BYTE		        100*end_game_map_mvl/mxv
	BYTE	W20
	BYTE	PEND
// 008   ----------------------------------------
end_game_map_5_008:
	BYTE		N92     Gn4   v092
	BYTE	W09
	BYTE		VOL     100*end_game_map_mvl/mxv
	BYTE	W06
	BYTE		        100*end_game_map_mvl/mxv
	BYTE	W04
	BYTE		        100*end_game_map_mvl/mxv
	BYTE	W03
	BYTE		        100*end_game_map_mvl/mxv
	BYTE	W07
	BYTE		        100*end_game_map_mvl/mxv
	BYTE	W07
	BYTE		        100*end_game_map_mvl/mxv
	BYTE	W03
	BYTE		        100*end_game_map_mvl/mxv
	BYTE	W12
	BYTE		        100*end_game_map_mvl/mxv
	BYTE	W09
	BYTE		        100*end_game_map_mvl/mxv
	BYTE	W06
	BYTE		        100*end_game_map_mvl/mxv
	BYTE	W06
	BYTE		        100*end_game_map_mvl/mxv
	BYTE	W10
	BYTE		        100*end_game_map_mvl/mxv
	BYTE	W14
	BYTE	PEND
// 009   ----------------------------------------
	BYTE	PATT
	 POIN2	end_game_map_5_005
// 010   ----------------------------------------
	BYTE	PATT
	 POIN2	end_game_map_5_006
// 011   ----------------------------------------
end_game_map_5_011:
	BYTE		N92     En4   v092
	BYTE	W09
	BYTE		VOL     100*end_game_map_mvl/mxv
	BYTE	W06
	BYTE		        100*end_game_map_mvl/mxv
	BYTE	W04
	BYTE		        100*end_game_map_mvl/mxv
	BYTE	W03
	BYTE		        100*end_game_map_mvl/mxv
	BYTE	W07
	BYTE		        100*end_game_map_mvl/mxv
	BYTE	W07
	BYTE		        100*end_game_map_mvl/mxv
	BYTE	W03
	BYTE		        100*end_game_map_mvl/mxv
	BYTE	W12
	BYTE		        100*end_game_map_mvl/mxv
	BYTE	W09
	BYTE		        100*end_game_map_mvl/mxv
	BYTE	W06
	BYTE		        100*end_game_map_mvl/mxv
	BYTE	W06
	BYTE		        100*end_game_map_mvl/mxv
	BYTE	W10
	BYTE		        100*end_game_map_mvl/mxv
	BYTE	W14
	BYTE	PEND
// 012   ----------------------------------------
end_game_map_5_012:
	BYTE		N16     Dn4   v100
	BYTE	W18
	BYTE		N15     Gn4   v092
	BYTE	W18
	BYTE		N04     Fs4 
	BYTE	W06
	BYTE		        Gn4 
	BYTE	W06
	BYTE		N21     Dn4   v096
	BYTE	W24
	BYTE		        Gn4 
	BYTE	W24
	BYTE	PEND
// 013   ----------------------------------------
end_game_map_5_013:
	BYTE		N16     Dn4   v100
	BYTE	W18
	BYTE		N15     Gn4   v092
	BYTE	W18
	BYTE		N04     Fs4 
	BYTE	W06
	BYTE		        Gn4 
	BYTE	W06
	BYTE		N21     An4   v096
	BYTE	W24
	BYTE		        Cn5 
	BYTE	W24
	BYTE	PEND
// 014   ----------------------------------------
end_game_map_5_014:
	BYTE		N16     Dn4   v100
	BYTE	W18
	BYTE		N15     Gn4   v092
	BYTE	W18
	BYTE		N04     As4 
	BYTE	W06
	BYTE		        Cn5 
	BYTE	W06
	BYTE		N21     Dn5   v096
	BYTE	W24
	BYTE		        Fn4 
	BYTE	W24
	BYTE	PEND
// 015   ----------------------------------------
end_game_map_5_015:
	BYTE		N22     Gn4   v100
	BYTE	W24
	BYTE		N09     Dn5   v096
	BYTE	W12
	BYTE		        Cn5   v092
	BYTE	W24
	BYTE		        As4 
	BYTE	W24
	BYTE		        An4 
	BYTE	W12
	BYTE	PEND
// 016   ----------------------------------------
end_game_map_5_016:
	BYTE		N22     Fn4   v100
	BYTE	W24
	BYTE		N09     Ds5   v096
	BYTE	W12
	BYTE		        Dn5   v092
	BYTE	W24
	BYTE		        Fn5 
	BYTE	W24
	BYTE		N32     Dn5 
	BYTE	W12
	BYTE	PEND
// 017   ----------------------------------------
end_game_map_5_017:
	BYTE	W24
	BYTE		N09     Cn5   v096
	BYTE	W12
	BYTE		        As4   v092
	BYTE	W24
	BYTE		        Dn5 
	BYTE	W24
	BYTE		        Fn4 
	BYTE	W12
	BYTE	PEND
// 018   ----------------------------------------
end_game_map_5_018:
	BYTE		N22     An4   v100
	BYTE	W24
	BYTE		N09     As4   v096
	BYTE	W12
	BYTE		        An4   v092
	BYTE	W24
	BYTE		        Gn4 
	BYTE	W12
	BYTE		        Ds4   v096
	BYTE	W12
	BYTE		        Dn4   v092
	BYTE	W12
	BYTE	PEND
// 019   ----------------------------------------
end_game_map_5_019:
	BYTE	W44
	BYTE	W03
	BYTE		VOL     100*end_game_map_mvl/mxv
	BYTE	W48
	BYTE	W01
	BYTE	PEND
// 020   ----------------------------------------
end_game_map_5_020:
	BYTE		N16     Dn4   v096
	BYTE	W18
	BYTE		N15     Gn4   v088
	BYTE	W18
	BYTE		N04     Fs4 
	BYTE	W06
	BYTE		        Gn4 
	BYTE	W06
	BYTE		N21     Dn4   v092
	BYTE	W24
	BYTE		        Gn4 
	BYTE	W24
	BYTE	PEND
// 021   ----------------------------------------
end_game_map_5_021:
	BYTE		N16     Dn4   v096
	BYTE	W18
	BYTE		N15     Gn4   v088
	BYTE	W18
	BYTE		N04     Fs4 
	BYTE	W06
	BYTE		        Gn4 
	BYTE	W06
	BYTE		N21     An4   v092
	BYTE	W24
	BYTE		        Cn5 
	BYTE	W24
	BYTE	PEND
// 022   ----------------------------------------
end_game_map_5_022:
	BYTE		N16     Dn4   v096
	BYTE	W18
	BYTE		N15     Gn4   v088
	BYTE	W18
	BYTE		N04     As4 
	BYTE	W06
	BYTE		        Cn5 
	BYTE	W06
	BYTE		N21     Dn5   v092
	BYTE	W24
	BYTE		        Fn4 
	BYTE	W24
	BYTE	PEND
// 023   ----------------------------------------
end_game_map_5_023:
	BYTE		N22     Gn4   v096
	BYTE	W24
	BYTE		N09     Dn5   v092
	BYTE	W12
	BYTE		        Cn5   v088
	BYTE	W24
	BYTE		        As4 
	BYTE	W24
	BYTE		        An4 
	BYTE	W12
	BYTE	PEND
// 024   ----------------------------------------
end_game_map_5_024:
	BYTE		N22     Fn4   v096
	BYTE	W24
	BYTE		N09     Ds5   v092
	BYTE	W12
	BYTE		        Dn5   v088
	BYTE	W24
	BYTE		        Fn5 
	BYTE	W24
	BYTE		N32     Dn5 
	BYTE	W12
	BYTE	PEND
// 025   ----------------------------------------
end_game_map_5_025:
	BYTE	W24
	BYTE		N09     Cn5   v092
	BYTE	W12
	BYTE		        As4   v088
	BYTE	W24
	BYTE		        Dn5 
	BYTE	W24
	BYTE		        Fn4 
	BYTE	W12
	BYTE	PEND
// 026   ----------------------------------------
end_game_map_5_026:
	BYTE		N10     Fs4   v096
	BYTE	W12
	BYTE		N09     An4   v088
	BYTE	W12
	BYTE		        Ds5   v092
	BYTE	W12
	BYTE		        Dn5   v088
	BYTE	W24
	BYTE		        Fs5 
	BYTE	W24
	BYTE		        Dn5 
	BYTE	W12
	BYTE	PEND
// 027   ----------------------------------------
	BYTE		N22     Gn5   v096
	BYTE	W96
// 028   ----------------------------------------
	BYTE	W96
// 029   ----------------------------------------
	BYTE	W96
// 030   ----------------------------------------
	BYTE	W96
// 031   ----------------------------------------
	BYTE	W96
// 032   ----------------------------------------
	BYTE	W96
// 033   ----------------------------------------
	BYTE	W96
// 034   ----------------------------------------
	BYTE	W48
	BYTE		VOL     100*end_game_map_mvl/mxv
	BYTE	W48
// 035   ----------------------------------------
end_game_map_5_035:
	BYTE		N68     Dn3   v092
	BYTE	W05
	BYTE		VOL     100*end_game_map_mvl/mxv
	BYTE	W04
	BYTE		        100*end_game_map_mvl/mxv
	BYTE	W03
	BYTE		        100*end_game_map_mvl/mxv
	BYTE	W03
	BYTE		        100*end_game_map_mvl/mxv
	BYTE	W03
	BYTE		        100*end_game_map_mvl/mxv
	BYTE	W04
	BYTE		        100*end_game_map_mvl/mxv
	BYTE	W03
	BYTE		        100*end_game_map_mvl/mxv
	BYTE	W03
	BYTE		        100*end_game_map_mvl/mxv
	BYTE	W03
	BYTE		        100*end_game_map_mvl/mxv
	BYTE	W04
	BYTE		        100*end_game_map_mvl/mxv
	BYTE	W03
	BYTE		        100*end_game_map_mvl/mxv
	BYTE	W10
	BYTE		        100*end_game_map_mvl/mxv
	BYTE	W06
	BYTE		        100*end_game_map_mvl/mxv
	BYTE	W07
	BYTE		        100*end_game_map_mvl/mxv
	BYTE	W11
	BYTE		N21     Cn3   v096
	BYTE	W24
	BYTE	PEND
// 036   ----------------------------------------
end_game_map_5_036:
	BYTE		N44     Ds3   v100
	BYTE	W48
	BYTE		N92     Fs3   v096
	BYTE	W09
	BYTE		VOL     100*end_game_map_mvl/mxv
	BYTE	W06
	BYTE		        100*end_game_map_mvl/mxv
	BYTE	W04
	BYTE		        100*end_game_map_mvl/mxv
	BYTE	W03
	BYTE		        100*end_game_map_mvl/mxv
	BYTE	W06
	BYTE		        100*end_game_map_mvl/mxv
	BYTE	W07
	BYTE		        100*end_game_map_mvl/mxv
	BYTE	W03
	BYTE		        100*end_game_map_mvl/mxv
	BYTE	W10
	BYTE	PEND
// 037   ----------------------------------------
end_game_map_5_037:
	BYTE	W03
	BYTE		VOL     100*end_game_map_mvl/mxv
	BYTE	W09
	BYTE		        100*end_game_map_mvl/mxv
	BYTE	W07
	BYTE		        100*end_game_map_mvl/mxv
	BYTE	W06
	BYTE		        100*end_game_map_mvl/mxv
	BYTE	W09
	BYTE		        100*end_game_map_mvl/mxv
	BYTE	W14
	BYTE		N44     Dn3   v096
	BYTE	W48
	BYTE	PEND
// 038   ----------------------------------------
end_game_map_5_038:
	BYTE		N92     As2   v092
	BYTE	W09
	BYTE		VOL     100*end_game_map_mvl/mxv
	BYTE	W06
	BYTE		        100*end_game_map_mvl/mxv
	BYTE	W04
	BYTE		        100*end_game_map_mvl/mxv
	BYTE	W03
	BYTE		        100*end_game_map_mvl/mxv
	BYTE	W07
	BYTE		        100*end_game_map_mvl/mxv
	BYTE	W07
	BYTE		        100*end_game_map_mvl/mxv
	BYTE	W03
	BYTE		        100*end_game_map_mvl/mxv
	BYTE	W12
	BYTE		        100*end_game_map_mvl/mxv
	BYTE	W09
	BYTE		        100*end_game_map_mvl/mxv
	BYTE	W06
	BYTE		        100*end_game_map_mvl/mxv
	BYTE	W06
	BYTE		        100*end_game_map_mvl/mxv
	BYTE	W10
	BYTE		        100*end_game_map_mvl/mxv
	BYTE	W14
	BYTE	PEND
// 039   ----------------------------------------
end_game_map_5_039:
	BYTE		N44     Gn3   v100
	BYTE	W48
	BYTE		        Dn3   v096
	BYTE	W48
	BYTE	PEND
// 040   ----------------------------------------
end_game_map_5_040:
	BYTE		N44     An2   v100
	BYTE	W48
	BYTE		        Ds3   v096
	BYTE	W48
	BYTE	PEND
// 041   ----------------------------------------
end_game_map_5_041:
	BYTE		N92     An2   v092
	BYTE	W09
	BYTE		VOL     100*end_game_map_mvl/mxv
	BYTE	W06
	BYTE		        100*end_game_map_mvl/mxv
	BYTE	W04
	BYTE		        100*end_game_map_mvl/mxv
	BYTE	W03
	BYTE		        100*end_game_map_mvl/mxv
	BYTE	W07
	BYTE		        100*end_game_map_mvl/mxv
	BYTE	W07
	BYTE		        100*end_game_map_mvl/mxv
	BYTE	W03
	BYTE		        100*end_game_map_mvl/mxv
	BYTE	W12
	BYTE		        100*end_game_map_mvl/mxv
	BYTE	W09
	BYTE		        100*end_game_map_mvl/mxv
	BYTE	W06
	BYTE		        100*end_game_map_mvl/mxv
	BYTE	W06
	BYTE		        100*end_game_map_mvl/mxv
	BYTE	W10
	BYTE		        100*end_game_map_mvl/mxv
	BYTE	W14
	BYTE	PEND
// 042   ----------------------------------------
	BYTE	PATT
	 POIN2	end_game_map_5_038
// 043   ----------------------------------------
end_game_map_5_043:
	BYTE		N68     Dn3   v092
	BYTE	W12
	BYTE		VOL     100*end_game_map_mvl/mxv
	BYTE	W06
	BYTE		        100*end_game_map_mvl/mxv
	BYTE	W07
	BYTE		        100*end_game_map_mvl/mxv
	BYTE	W10
	BYTE		        100*end_game_map_mvl/mxv
	BYTE	W03
	BYTE		        100*end_game_map_mvl/mxv
	BYTE	W10
	BYTE		        100*end_game_map_mvl/mxv
	BYTE	W06
	BYTE		        100*end_game_map_mvl/mxv
	BYTE	W07
	BYTE		        100*end_game_map_mvl/mxv
	BYTE	W11
	BYTE		N21     Cn3   v096
	BYTE	W24
	BYTE	PEND
// 044   ----------------------------------------
	BYTE	PATT
	 POIN2	end_game_map_5_036
// 045   ----------------------------------------
	BYTE	PATT
	 POIN2	end_game_map_5_037
// 046   ----------------------------------------
	BYTE	PATT
	 POIN2	end_game_map_5_038
// 047   ----------------------------------------
end_game_map_5_047:
	BYTE		N44     Fs3   v100
	BYTE	W48
	BYTE		        Dn3   v096
	BYTE	W48
	BYTE	PEND
// 048   ----------------------------------------
end_game_map_5_048:
	BYTE		N44     Gs2   v100
	BYTE	W48
	BYTE		        Dn3   v096
	BYTE	W48
	BYTE	PEND
// 049   ----------------------------------------
end_game_map_5_049:
	BYTE		N92     Cs3   v092
	BYTE	W09
	BYTE		VOL     100*end_game_map_mvl/mxv
	BYTE	W06
	BYTE		        100*end_game_map_mvl/mxv
	BYTE	W04
	BYTE		        100*end_game_map_mvl/mxv
	BYTE	W03
	BYTE		        100*end_game_map_mvl/mxv
	BYTE	W07
	BYTE		        100*end_game_map_mvl/mxv
	BYTE	W07
	BYTE		        100*end_game_map_mvl/mxv
	BYTE	W03
	BYTE		        100*end_game_map_mvl/mxv
	BYTE	W12
	BYTE		        100*end_game_map_mvl/mxv
	BYTE	W09
	BYTE		        100*end_game_map_mvl/mxv
	BYTE	W06
	BYTE		        100*end_game_map_mvl/mxv
	BYTE	W06
	BYTE		        100*end_game_map_mvl/mxv
	BYTE	W10
	BYTE		        100*end_game_map_mvl/mxv
	BYTE	W14
	BYTE	PEND
// 050   ----------------------------------------
end_game_map_5_050:
	BYTE		N92     En3   v092
	BYTE	W09
	BYTE		VOL     100*end_game_map_mvl/mxv
	BYTE	W06
	BYTE		        100*end_game_map_mvl/mxv
	BYTE	W04
	BYTE		        100*end_game_map_mvl/mxv
	BYTE	W03
	BYTE		        100*end_game_map_mvl/mxv
	BYTE	W07
	BYTE		        100*end_game_map_mvl/mxv
	BYTE	W07
	BYTE		        100*end_game_map_mvl/mxv
	BYTE	W03
	BYTE		        100*end_game_map_mvl/mxv
	BYTE	W12
	BYTE		        100*end_game_map_mvl/mxv
	BYTE	W09
	BYTE		        100*end_game_map_mvl/mxv
	BYTE	W06
	BYTE		        100*end_game_map_mvl/mxv
	BYTE	W06
	BYTE		        100*end_game_map_mvl/mxv
	BYTE	W10
	BYTE		        100*end_game_map_mvl/mxv
	BYTE	W14
	BYTE	PEND
// 051   ----------------------------------------
end_game_map_5_051:
	BYTE		N92     Fn4   v092
	BYTE	W12
	BYTE		VOL     100*end_game_map_mvl/mxv
	BYTE	W07
	BYTE		        100*end_game_map_mvl/mxv
	BYTE	W06
	BYTE		        100*end_game_map_mvl/mxv
	BYTE	W11
	BYTE		        100*end_game_map_mvl/mxv
	BYTE	W03
	BYTE		        100*end_game_map_mvl/mxv
	BYTE	W18
	BYTE		        100*end_game_map_mvl/mxv
	BYTE	W09
	BYTE		        100*end_game_map_mvl/mxv
	BYTE	W10
	BYTE		        100*end_game_map_mvl/mxv
	BYTE	W20
	BYTE	PEND
// 052   ----------------------------------------
	BYTE	PATT
	 POIN2	end_game_map_5_008
// 053   ----------------------------------------
	BYTE	PATT
	 POIN2	end_game_map_5_008
// 054   ----------------------------------------
end_game_map_5_054:
	BYTE		N92     Dn4   v092
	BYTE	W12
	BYTE		VOL     100*end_game_map_mvl/mxv
	BYTE	W07
	BYTE		        100*end_game_map_mvl/mxv
	BYTE	W06
	BYTE		        100*end_game_map_mvl/mxv
	BYTE	W11
	BYTE		        100*end_game_map_mvl/mxv
	BYTE	W03
	BYTE		        100*end_game_map_mvl/mxv
	BYTE	W18
	BYTE		        100*end_game_map_mvl/mxv
	BYTE	W09
	BYTE		        100*end_game_map_mvl/mxv
	BYTE	W10
	BYTE		        100*end_game_map_mvl/mxv
	BYTE	W20
	BYTE	PEND
// 055   ----------------------------------------
end_game_map_5_055:
	BYTE		N92     An4   v092
	BYTE	W12
	BYTE		VOL     100*end_game_map_mvl/mxv
	BYTE	W07
	BYTE		        100*end_game_map_mvl/mxv
	BYTE	W06
	BYTE		        100*end_game_map_mvl/mxv
	BYTE	W11
	BYTE		        100*end_game_map_mvl/mxv
	BYTE	W03
	BYTE		        100*end_game_map_mvl/mxv
	BYTE	W18
	BYTE		        100*end_game_map_mvl/mxv
	BYTE	W09
	BYTE		        100*end_game_map_mvl/mxv
	BYTE	W10
	BYTE		        100*end_game_map_mvl/mxv
	BYTE	W20
	BYTE	PEND
// 056   ----------------------------------------
end_game_map_5_056:
	BYTE		N92     As4   v092
	BYTE	W12
	BYTE		VOL     100*end_game_map_mvl/mxv
	BYTE	W07
	BYTE		        100*end_game_map_mvl/mxv
	BYTE	W06
	BYTE		        100*end_game_map_mvl/mxv
	BYTE	W11
	BYTE		        100*end_game_map_mvl/mxv
	BYTE	W03
	BYTE		        100*end_game_map_mvl/mxv
	BYTE	W18
	BYTE		        100*end_game_map_mvl/mxv
	BYTE	W09
	BYTE		        100*end_game_map_mvl/mxv
	BYTE	W10
	BYTE		        100*end_game_map_mvl/mxv
	BYTE	W20
	BYTE	PEND
// 057   ----------------------------------------
end_game_map_5_057:
	BYTE		N44     As4   v100
	BYTE	W48
	BYTE		        Gs4   v096
	BYTE	W48
	BYTE	PEND
// 058   ----------------------------------------
end_game_map_5_058:
	BYTE		N44     Fn4   v100
	BYTE	W48
	BYTE		        Cs4   v096
	BYTE	W48
	BYTE	PEND
// 059   ----------------------------------------
	BYTE	PATT
	 POIN2	end_game_map_5_051
// 060   ----------------------------------------
end_game_map_5_060:
	BYTE		N44     Gn4   v100
	BYTE	W48
	BYTE		        Cn5   v096
	BYTE	W48
	BYTE	PEND
// 061   ----------------------------------------
	BYTE	PATT
	 POIN2	end_game_map_5_008
// 062   ----------------------------------------
end_game_map_5_062:
	BYTE		N44     Dn4   v100
	BYTE	W48
	BYTE		        Fn4   v096
	BYTE	W48
	BYTE	PEND
// 063   ----------------------------------------
	BYTE	PATT
	 POIN2	end_game_map_5_055
// 064   ----------------------------------------
end_game_map_5_064:
	BYTE		N44     As4   v100
	BYTE	W48
	BYTE		        Cs5   v096
	BYTE	W48
	BYTE	PEND
// 065   ----------------------------------------
end_game_map_5_065:
	BYTE		N44     Ds5   v100
	BYTE	W48
	BYTE		        Cs5   v096
	BYTE	W48
	BYTE	PEND
// 066   ----------------------------------------
end_game_map_5_066:
	BYTE		N44     Fn5   v100
	BYTE	W48
	BYTE		        Cs5   v096
	BYTE	W48
	BYTE	PEND
// 067   ----------------------------------------
end_game_map_5_067:
	BYTE		N09     Gn4   v088
	BYTE	W12
	BYTE		        Gn4   v080
	BYTE	W23
	BYTE		VOL     100*end_game_map_mvl/mxv
	BYTE	W13
	BYTE		N08   
	BYTE	W12
	BYTE		N09     Gn4   v076
	BYTE	W36
	BYTE	PEND
// 068   ----------------------------------------
end_game_map_5_068:
	BYTE		N09     Gn4   v084
	BYTE	W12
	BYTE		        Gn4   v076
	BYTE	W36
	BYTE		        An4   v092
	BYTE	W12
	BYTE		        Fs4   v088
	BYTE	W36
	BYTE	PEND
// 069   ----------------------------------------
end_game_map_5_069:
	BYTE		N09     Gn4   v084
	BYTE	W12
	BYTE		        Gn4   v076
	BYTE	W36
	BYTE		N08     Gn4   v080
	BYTE	W12
	BYTE		N09     Gn4   v076
	BYTE	W36
	BYTE	PEND
// 070   ----------------------------------------
	BYTE	PATT
	 POIN2	end_game_map_5_068
// 071   ----------------------------------------
	BYTE	PATT
	 POIN2	end_game_map_5_069
// 072   ----------------------------------------
	BYTE	PATT
	 POIN2	end_game_map_5_068
// 073   ----------------------------------------
	BYTE	PATT
	 POIN2	end_game_map_5_069
// 074   ----------------------------------------
	BYTE		N09     Gn4   v084
	BYTE	W12
	BYTE		        Gn4   v076
	BYTE	W36
	BYTE		        An4   v092
	BYTE	W12
	BYTE		        Fs4   v088
	BYTE	W32
	BYTE	W03
	BYTE		VOL     100*end_game_map_mvl/mxv
	BYTE	W01
// 075   ----------------------------------------
	BYTE	PATT
	 POIN2	end_game_map_5_004
// 076   ----------------------------------------
	BYTE	PATT
	 POIN2	end_game_map_5_005
// 077   ----------------------------------------
	BYTE	PATT
	 POIN2	end_game_map_5_006
// 078   ----------------------------------------
	BYTE	PATT
	 POIN2	end_game_map_5_007
// 079   ----------------------------------------
	BYTE	PATT
	 POIN2	end_game_map_5_008
// 080   ----------------------------------------
	BYTE	PATT
	 POIN2	end_game_map_5_005
// 081   ----------------------------------------
	BYTE	PATT
	 POIN2	end_game_map_5_006
// 082   ----------------------------------------
	BYTE	PATT
	 POIN2	end_game_map_5_011
// 083   ----------------------------------------
	BYTE	PATT
	 POIN2	end_game_map_5_012
// 084   ----------------------------------------
	BYTE	PATT
	 POIN2	end_game_map_5_013
// 085   ----------------------------------------
	BYTE	PATT
	 POIN2	end_game_map_5_014
// 086   ----------------------------------------
	BYTE	PATT
	 POIN2	end_game_map_5_015
// 087   ----------------------------------------
	BYTE	PATT
	 POIN2	end_game_map_5_016
// 088   ----------------------------------------
	BYTE	PATT
	 POIN2	end_game_map_5_017
// 089   ----------------------------------------
	BYTE	PATT
	 POIN2	end_game_map_5_018
// 090   ----------------------------------------
	BYTE	PATT
	 POIN2	end_game_map_5_019
// 091   ----------------------------------------
	BYTE	PATT
	 POIN2	end_game_map_5_020
// 092   ----------------------------------------
	BYTE	PATT
	 POIN2	end_game_map_5_021
// 093   ----------------------------------------
	BYTE	PATT
	 POIN2	end_game_map_5_022
// 094   ----------------------------------------
	BYTE	PATT
	 POIN2	end_game_map_5_023
// 095   ----------------------------------------
	BYTE	PATT
	 POIN2	end_game_map_5_024
// 096   ----------------------------------------
	BYTE	PATT
	 POIN2	end_game_map_5_025
// 097   ----------------------------------------
	BYTE	PATT
	 POIN2	end_game_map_5_026
// 098   ----------------------------------------
	BYTE		N22     Gn5   v096
	BYTE	W96
// 099   ----------------------------------------
	BYTE	W96
// 100   ----------------------------------------
	BYTE	W96
// 101   ----------------------------------------
	BYTE	W96
// 102   ----------------------------------------
	BYTE	W96
// 103   ----------------------------------------
	BYTE	W96
// 104   ----------------------------------------
	BYTE	W96
// 105   ----------------------------------------
	BYTE	W48
	BYTE		VOL     100*end_game_map_mvl/mxv
	BYTE	W48
// 106   ----------------------------------------
	BYTE	PATT
	 POIN2	end_game_map_5_035
// 107   ----------------------------------------
	BYTE	PATT
	 POIN2	end_game_map_5_036
// 108   ----------------------------------------
	BYTE	PATT
	 POIN2	end_game_map_5_037
// 109   ----------------------------------------
	BYTE	PATT
	 POIN2	end_game_map_5_038
// 110   ----------------------------------------
	BYTE	PATT
	 POIN2	end_game_map_5_039
// 111   ----------------------------------------
	BYTE	PATT
	 POIN2	end_game_map_5_040
// 112   ----------------------------------------
	BYTE	PATT
	 POIN2	end_game_map_5_041
// 113   ----------------------------------------
	BYTE	PATT
	 POIN2	end_game_map_5_038
// 114   ----------------------------------------
	BYTE	PATT
	 POIN2	end_game_map_5_043
// 115   ----------------------------------------
	BYTE	PATT
	 POIN2	end_game_map_5_036
// 116   ----------------------------------------
	BYTE	PATT
	 POIN2	end_game_map_5_037
// 117   ----------------------------------------
	BYTE	PATT
	 POIN2	end_game_map_5_038
// 118   ----------------------------------------
	BYTE	PATT
	 POIN2	end_game_map_5_047
// 119   ----------------------------------------
	BYTE	PATT
	 POIN2	end_game_map_5_048
// 120   ----------------------------------------
	BYTE	PATT
	 POIN2	end_game_map_5_049
// 121   ----------------------------------------
	BYTE	PATT
	 POIN2	end_game_map_5_050
// 122   ----------------------------------------
	BYTE	PATT
	 POIN2	end_game_map_5_051
// 123   ----------------------------------------
	BYTE	PATT
	 POIN2	end_game_map_5_008
// 124   ----------------------------------------
	BYTE	PATT
	 POIN2	end_game_map_5_008
// 125   ----------------------------------------
	BYTE	PATT
	 POIN2	end_game_map_5_054
// 126   ----------------------------------------
	BYTE	PATT
	 POIN2	end_game_map_5_055
// 127   ----------------------------------------
	BYTE	PATT
	 POIN2	end_game_map_5_056
// 128   ----------------------------------------
	BYTE	PATT
	 POIN2	end_game_map_5_057
// 129   ----------------------------------------
	BYTE	PATT
	 POIN2	end_game_map_5_058
// 130   ----------------------------------------
	BYTE	PATT
	 POIN2	end_game_map_5_051
// 131   ----------------------------------------
	BYTE	PATT
	 POIN2	end_game_map_5_060
// 132   ----------------------------------------
	BYTE	PATT
	 POIN2	end_game_map_5_008
// 133   ----------------------------------------
	BYTE	PATT
	 POIN2	end_game_map_5_062
// 134   ----------------------------------------
	BYTE	PATT
	 POIN2	end_game_map_5_055
// 135   ----------------------------------------
	BYTE	PATT
	 POIN2	end_game_map_5_064
// 136   ----------------------------------------
	BYTE	PATT
	 POIN2	end_game_map_5_065
// 137   ----------------------------------------
	BYTE	PATT
	 POIN2	end_game_map_5_066
// 138   ----------------------------------------
	BYTE	PATT
	 POIN2	end_game_map_5_067
// 139   ----------------------------------------
	BYTE	PATT
	 POIN2	end_game_map_5_068
// 140   ----------------------------------------
	BYTE	PATT
	 POIN2	end_game_map_5_069
// 141   ----------------------------------------
	BYTE	PATT
	 POIN2	end_game_map_5_068
// 142   ----------------------------------------
	BYTE	PATT
	 POIN2	end_game_map_5_069
// 143   ----------------------------------------
	BYTE	PATT
	 POIN2	end_game_map_5_068
// 144   ----------------------------------------
	BYTE	PATT
	 POIN2	end_game_map_5_069
// 145   ----------------------------------------
	BYTE		N09     Gn4   v084
	BYTE	W12
	BYTE		        Gn4   v076
	BYTE	W36
	BYTE		        An4   v092
	BYTE	W12
	BYTE		        Fs4   v088
	BYTE	W32
	BYTE	W03
	BYTE	FINE

//**************** Track 6 (Midi-Chn.5) ****************//

end_game_map_6:
	BYTE	KEYSH   end_game_map_key+0
// 000   ----------------------------------------
	BYTE		VOICE   48
	BYTE		VOL     100*end_game_map_mvl/mxv
	BYTE		PAN     c_v+36
	BYTE		VOL     100*end_game_map_mvl/mxv
	BYTE		        100*end_game_map_mvl/mxv
	BYTE		TIE     Fs3   v076
	BYTE		TIE     An3 
	BYTE		TIE     Dn4   v084
	BYTE	W11
	BYTE		VOL     100*end_game_map_mvl/mxv
	BYTE	W07
	BYTE		        100*end_game_map_mvl/mxv
	BYTE	W06
	BYTE		        100*end_game_map_mvl/mxv
	BYTE	W03
	BYTE		        100*end_game_map_mvl/mxv
	BYTE	W03
	BYTE		        100*end_game_map_mvl/mxv
	BYTE	W03
	BYTE		        100*end_game_map_mvl/mxv
	BYTE	W03
	BYTE		        100*end_game_map_mvl/mxv
	BYTE	W03
	BYTE		        100*end_game_map_mvl/mxv
	BYTE	W03
	BYTE		        100*end_game_map_mvl/mxv
	BYTE	W04
	BYTE		        100*end_game_map_mvl/mxv
	BYTE	W03
	BYTE		        100*end_game_map_mvl/mxv
	BYTE	W03
	BYTE		        100*end_game_map_mvl/mxv
	BYTE	W03
	BYTE		        100*end_game_map_mvl/mxv
	BYTE	W03
	BYTE		        100*end_game_map_mvl/mxv
	BYTE	W03
	BYTE		        100*end_game_map_mvl/mxv
	BYTE	W03
	BYTE		        100*end_game_map_mvl/mxv
	BYTE	W03
	BYTE		        100*end_game_map_mvl/mxv
	BYTE	W04
	BYTE		        100*end_game_map_mvl/mxv
	BYTE	W03
	BYTE		        100*end_game_map_mvl/mxv
	BYTE	W03
	BYTE		        100*end_game_map_mvl/mxv
	BYTE	W03
	BYTE		        100*end_game_map_mvl/mxv
	BYTE	W03
	BYTE		        100*end_game_map_mvl/mxv
	BYTE	W03
	BYTE		        100*end_game_map_mvl/mxv
	BYTE	W06
	BYTE		        100*end_game_map_mvl/mxv
	BYTE	W04
// 001   ----------------------------------------
	BYTE	W03
	BYTE		        100*end_game_map_mvl/mxv
	BYTE	W10
	BYTE		        100*end_game_map_mvl/mxv
	BYTE	W03
	BYTE		        100*end_game_map_mvl/mxv
	BYTE	W30
	BYTE	W01
	BYTE		        100*end_game_map_mvl/mxv
	BYTE	W15
	BYTE		        100*end_game_map_mvl/mxv
	BYTE	W13
	BYTE		        100*end_game_map_mvl/mxv
	BYTE	W12
	BYTE		        100*end_game_map_mvl/mxv
	BYTE	W09
// 002   ----------------------------------------
	BYTE	W01
	BYTE		        100*end_game_map_mvl/mxv
	BYTE	W12
	BYTE		        100*end_game_map_mvl/mxv
	BYTE	W09
	BYTE		        100*end_game_map_mvl/mxv
	BYTE	W13
	BYTE		        100*end_game_map_mvl/mxv
	BYTE	W12
	BYTE		        100*end_game_map_mvl/mxv
	BYTE	W16
	BYTE		        100*end_game_map_mvl/mxv
	BYTE	W30
	BYTE		EOT     Fs3 
	BYTE		        An3 
	BYTE		        Dn4 
	BYTE	W03
// 003   ----------------------------------------
	BYTE		N10     As2   v088
	BYTE	W12
	BYTE		N09     As3   v084
	BYTE	W12
	BYTE		        An2 
	BYTE	W12
	BYTE		        An3 
	BYTE	W12
	BYTE		        Gn2   v088
	BYTE	W12
	BYTE		        Gn3   v084
	BYTE	W12
	BYTE		N21     Fs3 
	BYTE	W24
// 004   ----------------------------------------
end_game_map_6_004:
	BYTE		N92     Gn3   v088
	BYTE		N92     As3 
	BYTE		N92     Dn4   v080
	BYTE	W09
	BYTE		VOL     100*end_game_map_mvl/mxv
	BYTE	W06
	BYTE		        100*end_game_map_mvl/mxv
	BYTE	W04
	BYTE		        100*end_game_map_mvl/mxv
	BYTE	W03
	BYTE		        100*end_game_map_mvl/mxv
	BYTE	W07
	BYTE		        100*end_game_map_mvl/mxv
	BYTE	W07
	BYTE		        100*end_game_map_mvl/mxv
	BYTE	W03
	BYTE		        100*end_game_map_mvl/mxv
	BYTE	W12
	BYTE		        100*end_game_map_mvl/mxv
	BYTE	W09
	BYTE		        100*end_game_map_mvl/mxv
	BYTE	W06
	BYTE		        100*end_game_map_mvl/mxv
	BYTE	W06
	BYTE		        100*end_game_map_mvl/mxv
	BYTE	W10
	BYTE		        100*end_game_map_mvl/mxv
	BYTE	W14
	BYTE	PEND
// 005   ----------------------------------------
end_game_map_6_005:
	BYTE		N92     Fs3   v076
	BYTE		N92     An3 
	BYTE		N92     Dn4   v088
	BYTE	W09
	BYTE		VOL     100*end_game_map_mvl/mxv
	BYTE	W06
	BYTE		        100*end_game_map_mvl/mxv
	BYTE	W04
	BYTE		        100*end_game_map_mvl/mxv
	BYTE	W03
	BYTE		        100*end_game_map_mvl/mxv
	BYTE	W07
	BYTE		        100*end_game_map_mvl/mxv
	BYTE	W07
	BYTE		        100*end_game_map_mvl/mxv
	BYTE	W03
	BYTE		        100*end_game_map_mvl/mxv
	BYTE	W12
	BYTE		        100*end_game_map_mvl/mxv
	BYTE	W09
	BYTE		        100*end_game_map_mvl/mxv
	BYTE	W06
	BYTE		        100*end_game_map_mvl/mxv
	BYTE	W06
	BYTE		        100*end_game_map_mvl/mxv
	BYTE	W10
	BYTE		        100*end_game_map_mvl/mxv
	BYTE	W14
	BYTE	PEND
// 006   ----------------------------------------
end_game_map_6_006:
	BYTE		N92     Fn3   v076
	BYTE		N92     An3 
	BYTE		N92     Cn4   v088
	BYTE	W09
	BYTE		VOL     100*end_game_map_mvl/mxv
	BYTE	W06
	BYTE		        100*end_game_map_mvl/mxv
	BYTE	W04
	BYTE		        100*end_game_map_mvl/mxv
	BYTE	W03
	BYTE		        100*end_game_map_mvl/mxv
	BYTE	W07
	BYTE		        100*end_game_map_mvl/mxv
	BYTE	W07
	BYTE		        100*end_game_map_mvl/mxv
	BYTE	W03
	BYTE		        100*end_game_map_mvl/mxv
	BYTE	W12
	BYTE		        100*end_game_map_mvl/mxv
	BYTE	W09
	BYTE		        100*end_game_map_mvl/mxv
	BYTE	W06
	BYTE		        100*end_game_map_mvl/mxv
	BYTE	W06
	BYTE		        100*end_game_map_mvl/mxv
	BYTE	W10
	BYTE		        100*end_game_map_mvl/mxv
	BYTE	W14
	BYTE	PEND
// 007   ----------------------------------------
end_game_map_6_007:
	BYTE		N92     En3   v076
	BYTE		N92     Gn3 
	BYTE		N92     Cn4   v088
	BYTE	W09
	BYTE		VOL     100*end_game_map_mvl/mxv
	BYTE	W06
	BYTE		        100*end_game_map_mvl/mxv
	BYTE	W04
	BYTE		        100*end_game_map_mvl/mxv
	BYTE	W03
	BYTE		        100*end_game_map_mvl/mxv
	BYTE	W07
	BYTE		        100*end_game_map_mvl/mxv
	BYTE	W07
	BYTE		        100*end_game_map_mvl/mxv
	BYTE	W03
	BYTE		        100*end_game_map_mvl/mxv
	BYTE	W12
	BYTE		        100*end_game_map_mvl/mxv
	BYTE	W09
	BYTE		        100*end_game_map_mvl/mxv
	BYTE	W06
	BYTE		        100*end_game_map_mvl/mxv
	BYTE	W06
	BYTE		        100*end_game_map_mvl/mxv
	BYTE	W10
	BYTE		        100*end_game_map_mvl/mxv
	BYTE	W14
	BYTE	PEND
// 008   ----------------------------------------
end_game_map_6_008:
	BYTE		N92     Gn3   v076
	BYTE		N92     As3 
	BYTE		N92     Dn4   v088
	BYTE	W09
	BYTE		VOL     100*end_game_map_mvl/mxv
	BYTE	W06
	BYTE		        100*end_game_map_mvl/mxv
	BYTE	W04
	BYTE		        100*end_game_map_mvl/mxv
	BYTE	W03
	BYTE		        100*end_game_map_mvl/mxv
	BYTE	W07
	BYTE		        100*end_game_map_mvl/mxv
	BYTE	W07
	BYTE		        100*end_game_map_mvl/mxv
	BYTE	W03
	BYTE		        100*end_game_map_mvl/mxv
	BYTE	W12
	BYTE		        100*end_game_map_mvl/mxv
	BYTE	W09
	BYTE		        100*end_game_map_mvl/mxv
	BYTE	W06
	BYTE		        100*end_game_map_mvl/mxv
	BYTE	W06
	BYTE		        100*end_game_map_mvl/mxv
	BYTE	W10
	BYTE		        100*end_game_map_mvl/mxv
	BYTE	W14
	BYTE	PEND
// 009   ----------------------------------------
	BYTE	PATT
	 POIN2	end_game_map_6_005
// 010   ----------------------------------------
	BYTE	PATT
	 POIN2	end_game_map_6_006
// 011   ----------------------------------------
	BYTE	PATT
	 POIN2	end_game_map_6_007
// 012   ----------------------------------------
	BYTE	PATT
	 POIN2	end_game_map_6_008
// 013   ----------------------------------------
	BYTE	PATT
	 POIN2	end_game_map_6_005
// 014   ----------------------------------------
	BYTE	PATT
	 POIN2	end_game_map_6_006
// 015   ----------------------------------------
end_game_map_6_015:
	BYTE		N92     Ds3   v076
	BYTE		N92     Gn3 
	BYTE		N92     As3   v088
	BYTE	W09
	BYTE		VOL     100*end_game_map_mvl/mxv
	BYTE	W06
	BYTE		        100*end_game_map_mvl/mxv
	BYTE	W04
	BYTE		        100*end_game_map_mvl/mxv
	BYTE	W03
	BYTE		        100*end_game_map_mvl/mxv
	BYTE	W07
	BYTE		        100*end_game_map_mvl/mxv
	BYTE	W07
	BYTE		        100*end_game_map_mvl/mxv
	BYTE	W03
	BYTE		        100*end_game_map_mvl/mxv
	BYTE	W12
	BYTE		        100*end_game_map_mvl/mxv
	BYTE	W09
	BYTE		        100*end_game_map_mvl/mxv
	BYTE	W06
	BYTE		        100*end_game_map_mvl/mxv
	BYTE	W06
	BYTE		        100*end_game_map_mvl/mxv
	BYTE	W10
	BYTE		        100*end_game_map_mvl/mxv
	BYTE	W14
	BYTE	PEND
// 016   ----------------------------------------
	BYTE	PATT
	 POIN2	end_game_map_6_006
// 017   ----------------------------------------
end_game_map_6_017:
	BYTE		N92     Dn3   v076
	BYTE		N92     Fn3 
	BYTE		N92     As3   v088
	BYTE	W09
	BYTE		VOL     100*end_game_map_mvl/mxv
	BYTE	W06
	BYTE		        100*end_game_map_mvl/mxv
	BYTE	W04
	BYTE		        100*end_game_map_mvl/mxv
	BYTE	W03
	BYTE		        100*end_game_map_mvl/mxv
	BYTE	W07
	BYTE		        100*end_game_map_mvl/mxv
	BYTE	W07
	BYTE		        100*end_game_map_mvl/mxv
	BYTE	W03
	BYTE		        100*end_game_map_mvl/mxv
	BYTE	W12
	BYTE		        100*end_game_map_mvl/mxv
	BYTE	W09
	BYTE		        100*end_game_map_mvl/mxv
	BYTE	W06
	BYTE		        100*end_game_map_mvl/mxv
	BYTE	W06
	BYTE		        100*end_game_map_mvl/mxv
	BYTE	W10
	BYTE		        100*end_game_map_mvl/mxv
	BYTE	W14
	BYTE	PEND
// 018   ----------------------------------------
end_game_map_6_018:
	BYTE		N92     Ds3   v076
	BYTE		N92     Gn3 
	BYTE		N92     An3   v088
	BYTE	W09
	BYTE		VOL     100*end_game_map_mvl/mxv
	BYTE	W06
	BYTE		        100*end_game_map_mvl/mxv
	BYTE	W04
	BYTE		        100*end_game_map_mvl/mxv
	BYTE	W03
	BYTE		        100*end_game_map_mvl/mxv
	BYTE	W07
	BYTE		        100*end_game_map_mvl/mxv
	BYTE	W07
	BYTE		        100*end_game_map_mvl/mxv
	BYTE	W03
	BYTE		        100*end_game_map_mvl/mxv
	BYTE	W12
	BYTE		        100*end_game_map_mvl/mxv
	BYTE	W09
	BYTE		        100*end_game_map_mvl/mxv
	BYTE	W06
	BYTE		        100*end_game_map_mvl/mxv
	BYTE	W06
	BYTE		        100*end_game_map_mvl/mxv
	BYTE	W10
	BYTE		        100*end_game_map_mvl/mxv
	BYTE	W14
	BYTE	PEND
// 019   ----------------------------------------
end_game_map_6_019:
	BYTE		N92     Dn3   v076
	BYTE		N92     Fs3 
	BYTE		N92     An3   v088
	BYTE	W09
	BYTE		VOL     100*end_game_map_mvl/mxv
	BYTE	W06
	BYTE		        100*end_game_map_mvl/mxv
	BYTE	W04
	BYTE		        100*end_game_map_mvl/mxv
	BYTE	W03
	BYTE		        100*end_game_map_mvl/mxv
	BYTE	W07
	BYTE		        100*end_game_map_mvl/mxv
	BYTE	W07
	BYTE		        100*end_game_map_mvl/mxv
	BYTE	W03
	BYTE		        100*end_game_map_mvl/mxv
	BYTE	W12
	BYTE		        100*end_game_map_mvl/mxv
	BYTE	W09
	BYTE		        100*end_game_map_mvl/mxv
	BYTE	W06
	BYTE		        100*end_game_map_mvl/mxv
	BYTE	W06
	BYTE		        100*end_game_map_mvl/mxv
	BYTE	W10
	BYTE		        100*end_game_map_mvl/mxv
	BYTE	W14
	BYTE	PEND
// 020   ----------------------------------------
	BYTE	PATT
	 POIN2	end_game_map_6_008
// 021   ----------------------------------------
	BYTE	PATT
	 POIN2	end_game_map_6_005
// 022   ----------------------------------------
	BYTE	PATT
	 POIN2	end_game_map_6_006
// 023   ----------------------------------------
	BYTE	PATT
	 POIN2	end_game_map_6_015
// 024   ----------------------------------------
	BYTE	PATT
	 POIN2	end_game_map_6_006
// 025   ----------------------------------------
end_game_map_6_025:
	BYTE		N44     Dn3   v080
	BYTE		N44     Gn3 
	BYTE		N44     As3   v096
	BYTE	W48
	BYTE		        Cn3   v080
	BYTE		N44     Fn3 
	BYTE		N44     An3   v092
	BYTE	W48
	BYTE	PEND
// 026   ----------------------------------------
end_game_map_6_026:
	BYTE		N92     Dn3   v088
	BYTE		N92     Fs3 
	BYTE		N92     An3   v080
	BYTE	W09
	BYTE		VOL     100*end_game_map_mvl/mxv
	BYTE	W06
	BYTE		        100*end_game_map_mvl/mxv
	BYTE	W04
	BYTE		        100*end_game_map_mvl/mxv
	BYTE	W03
	BYTE		        100*end_game_map_mvl/mxv
	BYTE	W07
	BYTE		        100*end_game_map_mvl/mxv
	BYTE	W07
	BYTE		        100*end_game_map_mvl/mxv
	BYTE	W03
	BYTE		        100*end_game_map_mvl/mxv
	BYTE	W03
	BYTE		        100*end_game_map_mvl/mxv
	BYTE	W03
	BYTE		        100*end_game_map_mvl/mxv
	BYTE	W03
	BYTE		        100*end_game_map_mvl/mxv
	BYTE	W03
	BYTE		        100*end_game_map_mvl/mxv
	BYTE	W03
	BYTE		        100*end_game_map_mvl/mxv
	BYTE	W03
	BYTE		        100*end_game_map_mvl/mxv
	BYTE	W03
	BYTE		        100*end_game_map_mvl/mxv
	BYTE	W03
	BYTE		        100*end_game_map_mvl/mxv
	BYTE	W03
	BYTE		        100*end_game_map_mvl/mxv
	BYTE	W03
	BYTE		        100*end_game_map_mvl/mxv
	BYTE	W03
	BYTE		        100*end_game_map_mvl/mxv
	BYTE	W04
	BYTE		        100*end_game_map_mvl/mxv
	BYTE	W03
	BYTE		        100*end_game_map_mvl/mxv
	BYTE	W03
	BYTE		        100*end_game_map_mvl/mxv
	BYTE	W03
	BYTE		        100*end_game_map_mvl/mxv
	BYTE	W03
	BYTE		        100*end_game_map_mvl/mxv
	BYTE	W03
	BYTE		        100*end_game_map_mvl/mxv
	BYTE	W03
	BYTE		        100*end_game_map_mvl/mxv
	BYTE	W02
	BYTE	PEND
// 027   ----------------------------------------
end_game_map_6_027:
	BYTE	W44
	BYTE	W03
	BYTE		VOL     100*end_game_map_mvl/mxv
	BYTE	W48
	BYTE	W01
	BYTE	PEND
// 028   ----------------------------------------
	BYTE	W96
// 029   ----------------------------------------
	BYTE	W96
// 030   ----------------------------------------
	BYTE	W96
// 031   ----------------------------------------
end_game_map_6_031:
	BYTE	W24
	BYTE		N04     Gn5   v076
	BYTE	W06
	BYTE		        Dn5 
	BYTE	W06
	BYTE		        Gn5 
	BYTE	W06
	BYTE		        Dn5 
	BYTE	W30
	BYTE		        Gn5 
	BYTE	W06
	BYTE		        Dn5 
	BYTE	W06
	BYTE		        Gn5 
	BYTE	W05
	BYTE		        Dn5 
	BYTE	W07
	BYTE	PEND
// 032   ----------------------------------------
end_game_map_6_032:
	BYTE	W24
	BYTE		N04     Gn5   v076
	BYTE	W06
	BYTE		        Dn5 
	BYTE	W06
	BYTE		        Gn5 
	BYTE	W06
	BYTE		        Dn5 
	BYTE	W30
	BYTE		        Fs5 
	BYTE	W06
	BYTE		        Dn5 
	BYTE	W06
	BYTE		        Fs5 
	BYTE	W05
	BYTE		        Dn5 
	BYTE	W07
	BYTE	PEND
// 033   ----------------------------------------
	BYTE	PATT
	 POIN2	end_game_map_6_031
// 034   ----------------------------------------
end_game_map_6_034:
	BYTE	W12
	BYTE		VOL     100*end_game_map_mvl/mxv
	BYTE	W12
	BYTE		N04     Gn5   v084
	BYTE	W06
	BYTE		        Dn5 
	BYTE	W06
	BYTE		        Gn5 
	BYTE	W06
	BYTE		        Dn5 
	BYTE	W30
	BYTE		        Fs5 
	BYTE	W06
	BYTE		        Dn5 
	BYTE	W06
	BYTE		        Fs5 
	BYTE	W05
	BYTE		        Dn5 
	BYTE	W07
	BYTE	PEND
// 035   ----------------------------------------
end_game_map_6_035:
	BYTE		TIE     Fs3   v076
	BYTE		TIE     An3 
	BYTE		TIE     Dn4   v084
	BYTE	W15
	BYTE		VOL     100*end_game_map_mvl/mxv
	BYTE	W06
	BYTE		        100*end_game_map_mvl/mxv
	BYTE	W06
	BYTE		        100*end_game_map_mvl/mxv
	BYTE	W03
	BYTE		        100*end_game_map_mvl/mxv
	BYTE	W07
	BYTE		        100*end_game_map_mvl/mxv
	BYTE	W06
	BYTE		        100*end_game_map_mvl/mxv
	BYTE	W03
	BYTE		        100*end_game_map_mvl/mxv
	BYTE	W06
	BYTE		        100*end_game_map_mvl/mxv
	BYTE	W07
	BYTE		        100*end_game_map_mvl/mxv
	BYTE	W13
	BYTE		        100*end_game_map_mvl/mxv
	BYTE	W03
	BYTE		        100*end_game_map_mvl/mxv
	BYTE	W21
	BYTE	PEND
// 036   ----------------------------------------
end_game_map_6_036:
	BYTE	W01
	BYTE		VOL     100*end_game_map_mvl/mxv
	BYTE	W09
	BYTE		        100*end_game_map_mvl/mxv
	BYTE	W10
	BYTE		        100*end_game_map_mvl/mxv
	BYTE	W09
	BYTE		        100*end_game_map_mvl/mxv
	BYTE	W06
	BYTE		        100*end_game_map_mvl/mxv
	BYTE	W09
	BYTE		        100*end_game_map_mvl/mxv
	BYTE	W10
	BYTE		        100*end_game_map_mvl/mxv
	BYTE	W09
	BYTE		        100*end_game_map_mvl/mxv
	BYTE	W10
	BYTE		        100*end_game_map_mvl/mxv
	BYTE	W20
	BYTE	PEND
	BYTE		EOT     Fs3 
	BYTE		        An3 
	BYTE		        Dn4 
	BYTE	W03
// 037   ----------------------------------------
end_game_map_6_037:
	BYTE		TIE     Gn3   v084
	BYTE		TIE     As3 
	BYTE		TIE     Dn4   v080
	BYTE	W15
	BYTE		VOL     100*end_game_map_mvl/mxv
	BYTE	W06
	BYTE		        100*end_game_map_mvl/mxv
	BYTE	W06
	BYTE		        100*end_game_map_mvl/mxv
	BYTE	W03
	BYTE		        100*end_game_map_mvl/mxv
	BYTE	W07
	BYTE		        100*end_game_map_mvl/mxv
	BYTE	W06
	BYTE		        100*end_game_map_mvl/mxv
	BYTE	W03
	BYTE		        100*end_game_map_mvl/mxv
	BYTE	W06
	BYTE		        100*end_game_map_mvl/mxv
	BYTE	W07
	BYTE		        100*end_game_map_mvl/mxv
	BYTE	W13
	BYTE		        100*end_game_map_mvl/mxv
	BYTE	W03
	BYTE		        100*end_game_map_mvl/mxv
	BYTE	W21
	BYTE	PEND
// 038   ----------------------------------------
	BYTE	PATT
	 POIN2	end_game_map_6_036
	BYTE		EOT     Gn3 
	BYTE		        As3 
	BYTE		        Dn4 
	BYTE	W03
// 039   ----------------------------------------
end_game_map_6_039:
	BYTE		N92     Ds3   v076
	BYTE		N92     Gn3 
	BYTE		N92     Cn4   v088
	BYTE	W09
	BYTE		VOL     100*end_game_map_mvl/mxv
	BYTE	W06
	BYTE		        100*end_game_map_mvl/mxv
	BYTE	W04
	BYTE		        100*end_game_map_mvl/mxv
	BYTE	W03
	BYTE		        100*end_game_map_mvl/mxv
	BYTE	W07
	BYTE		        100*end_game_map_mvl/mxv
	BYTE	W07
	BYTE		        100*end_game_map_mvl/mxv
	BYTE	W03
	BYTE		        100*end_game_map_mvl/mxv
	BYTE	W12
	BYTE		        100*end_game_map_mvl/mxv
	BYTE	W09
	BYTE		        100*end_game_map_mvl/mxv
	BYTE	W06
	BYTE		        100*end_game_map_mvl/mxv
	BYTE	W06
	BYTE		        100*end_game_map_mvl/mxv
	BYTE	W10
	BYTE		        100*end_game_map_mvl/mxv
	BYTE	W14
	BYTE	PEND
// 040   ----------------------------------------
	BYTE	PATT
	 POIN2	end_game_map_6_006
// 041   ----------------------------------------
end_game_map_6_041:
	BYTE		N92     Dn3   v076
	BYTE		N92     Fn3 
	BYTE		N92     An3   v088
	BYTE	W09
	BYTE		VOL     100*end_game_map_mvl/mxv
	BYTE	W06
	BYTE		        100*end_game_map_mvl/mxv
	BYTE	W04
	BYTE		        100*end_game_map_mvl/mxv
	BYTE	W03
	BYTE		        100*end_game_map_mvl/mxv
	BYTE	W07
	BYTE		        100*end_game_map_mvl/mxv
	BYTE	W07
	BYTE		        100*end_game_map_mvl/mxv
	BYTE	W03
	BYTE		        100*end_game_map_mvl/mxv
	BYTE	W12
	BYTE		        100*end_game_map_mvl/mxv
	BYTE	W09
	BYTE		        100*end_game_map_mvl/mxv
	BYTE	W06
	BYTE		        100*end_game_map_mvl/mxv
	BYTE	W06
	BYTE		        100*end_game_map_mvl/mxv
	BYTE	W10
	BYTE		        100*end_game_map_mvl/mxv
	BYTE	W14
	BYTE	PEND
// 042   ----------------------------------------
	BYTE	PATT
	 POIN2	end_game_map_6_015
// 043   ----------------------------------------
end_game_map_6_043:
	BYTE		TIE     Fs3   v076
	BYTE		TIE     An3 
	BYTE		TIE     Dn4   v088
	BYTE	W15
	BYTE		VOL     100*end_game_map_mvl/mxv
	BYTE	W06
	BYTE		        100*end_game_map_mvl/mxv
	BYTE	W06
	BYTE		        100*end_game_map_mvl/mxv
	BYTE	W03
	BYTE		        100*end_game_map_mvl/mxv
	BYTE	W07
	BYTE		        100*end_game_map_mvl/mxv
	BYTE	W06
	BYTE		        100*end_game_map_mvl/mxv
	BYTE	W03
	BYTE		        100*end_game_map_mvl/mxv
	BYTE	W06
	BYTE		        100*end_game_map_mvl/mxv
	BYTE	W07
	BYTE		        100*end_game_map_mvl/mxv
	BYTE	W13
	BYTE		        100*end_game_map_mvl/mxv
	BYTE	W03
	BYTE		        100*end_game_map_mvl/mxv
	BYTE	W21
	BYTE	PEND
// 044   ----------------------------------------
	BYTE	PATT
	 POIN2	end_game_map_6_036
	BYTE		EOT     Fs3 
	BYTE		        An3 
	BYTE		        Dn4 
	BYTE	W03
// 045   ----------------------------------------
	BYTE	PATT
	 POIN2	end_game_map_6_037
// 046   ----------------------------------------
	BYTE	PATT
	 POIN2	end_game_map_6_036
	BYTE		EOT     Gn3 
	BYTE		        As3 
	BYTE		        Dn4 
	BYTE	W03
// 047   ----------------------------------------
end_game_map_6_047:
	BYTE		N92     Dn3   v076
	BYTE		N92     Fs3 
	BYTE		N92     Bn3   v088
	BYTE	W09
	BYTE		VOL     100*end_game_map_mvl/mxv
	BYTE	W06
	BYTE		        100*end_game_map_mvl/mxv
	BYTE	W04
	BYTE		        100*end_game_map_mvl/mxv
	BYTE	W03
	BYTE		        100*end_game_map_mvl/mxv
	BYTE	W07
	BYTE		        100*end_game_map_mvl/mxv
	BYTE	W07
	BYTE		        100*end_game_map_mvl/mxv
	BYTE	W03
	BYTE		        100*end_game_map_mvl/mxv
	BYTE	W12
	BYTE		        100*end_game_map_mvl/mxv
	BYTE	W09
	BYTE		        100*end_game_map_mvl/mxv
	BYTE	W06
	BYTE		        100*end_game_map_mvl/mxv
	BYTE	W06
	BYTE		        100*end_game_map_mvl/mxv
	BYTE	W10
	BYTE		        100*end_game_map_mvl/mxv
	BYTE	W14
	BYTE	PEND
// 048   ----------------------------------------
end_game_map_6_048:
	BYTE		N92     Bn2   v076
	BYTE		N92     En3 
	BYTE		N92     Gs3   v088
	BYTE	W09
	BYTE		VOL     100*end_game_map_mvl/mxv
	BYTE	W06
	BYTE		        100*end_game_map_mvl/mxv
	BYTE	W04
	BYTE		        100*end_game_map_mvl/mxv
	BYTE	W03
	BYTE		        100*end_game_map_mvl/mxv
	BYTE	W07
	BYTE		        100*end_game_map_mvl/mxv
	BYTE	W07
	BYTE		        100*end_game_map_mvl/mxv
	BYTE	W03
	BYTE		        100*end_game_map_mvl/mxv
	BYTE	W12
	BYTE		        100*end_game_map_mvl/mxv
	BYTE	W09
	BYTE		        100*end_game_map_mvl/mxv
	BYTE	W06
	BYTE		        100*end_game_map_mvl/mxv
	BYTE	W06
	BYTE		        100*end_game_map_mvl/mxv
	BYTE	W10
	BYTE		        100*end_game_map_mvl/mxv
	BYTE	W14
	BYTE	PEND
// 049   ----------------------------------------
end_game_map_6_049:
	BYTE		N92     Cs3   v076
	BYTE		N92     En3 
	BYTE		N92     An3   v088
	BYTE	W09
	BYTE		VOL     100*end_game_map_mvl/mxv
	BYTE	W06
	BYTE		        100*end_game_map_mvl/mxv
	BYTE	W04
	BYTE		        100*end_game_map_mvl/mxv
	BYTE	W03
	BYTE		        100*end_game_map_mvl/mxv
	BYTE	W07
	BYTE		        100*end_game_map_mvl/mxv
	BYTE	W07
	BYTE		        100*end_game_map_mvl/mxv
	BYTE	W03
	BYTE		        100*end_game_map_mvl/mxv
	BYTE	W12
	BYTE		        100*end_game_map_mvl/mxv
	BYTE	W09
	BYTE		        100*end_game_map_mvl/mxv
	BYTE	W06
	BYTE		        100*end_game_map_mvl/mxv
	BYTE	W06
	BYTE		        100*end_game_map_mvl/mxv
	BYTE	W10
	BYTE		        100*end_game_map_mvl/mxv
	BYTE	W14
	BYTE	PEND
// 050   ----------------------------------------
end_game_map_6_050:
	BYTE		N92     Cs3   v076
	BYTE		N92     En3 
	BYTE		N92     Gn3 
	BYTE		N92     As3   v088
	BYTE	W09
	BYTE		VOL     100*end_game_map_mvl/mxv
	BYTE	W06
	BYTE		        100*end_game_map_mvl/mxv
	BYTE	W04
	BYTE		        100*end_game_map_mvl/mxv
	BYTE	W03
	BYTE		        100*end_game_map_mvl/mxv
	BYTE	W07
	BYTE		        100*end_game_map_mvl/mxv
	BYTE	W07
	BYTE		        100*end_game_map_mvl/mxv
	BYTE	W03
	BYTE		        100*end_game_map_mvl/mxv
	BYTE	W12
	BYTE		        100*end_game_map_mvl/mxv
	BYTE	W09
	BYTE		        100*end_game_map_mvl/mxv
	BYTE	W06
	BYTE		        100*end_game_map_mvl/mxv
	BYTE	W06
	BYTE		        100*end_game_map_mvl/mxv
	BYTE	W10
	BYTE		        100*end_game_map_mvl/mxv
	BYTE	W14
	BYTE	PEND
// 051   ----------------------------------------
end_game_map_6_051:
	BYTE		N92     Fn3   v076
	BYTE		N92     Gs3 
	BYTE		N92     Cn4   v088
	BYTE	W09
	BYTE		VOL     100*end_game_map_mvl/mxv
	BYTE	W06
	BYTE		        100*end_game_map_mvl/mxv
	BYTE	W04
	BYTE		        100*end_game_map_mvl/mxv
	BYTE	W03
	BYTE		        100*end_game_map_mvl/mxv
	BYTE	W07
	BYTE		        100*end_game_map_mvl/mxv
	BYTE	W07
	BYTE		        100*end_game_map_mvl/mxv
	BYTE	W03
	BYTE		        100*end_game_map_mvl/mxv
	BYTE	W12
	BYTE		        100*end_game_map_mvl/mxv
	BYTE	W09
	BYTE		        100*end_game_map_mvl/mxv
	BYTE	W06
	BYTE		        100*end_game_map_mvl/mxv
	BYTE	W06
	BYTE		        100*end_game_map_mvl/mxv
	BYTE	W10
	BYTE		        100*end_game_map_mvl/mxv
	BYTE	W14
	BYTE	PEND
// 052   ----------------------------------------
	BYTE	PATT
	 POIN2	end_game_map_6_008
// 053   ----------------------------------------
end_game_map_6_053:
	BYTE		TIE     Gs3   v084
	BYTE		TIE     Bn3 
	BYTE		TIE     Dn4   v080
	BYTE	W15
	BYTE		VOL     100*end_game_map_mvl/mxv
	BYTE	W06
	BYTE		        100*end_game_map_mvl/mxv
	BYTE	W06
	BYTE		        100*end_game_map_mvl/mxv
	BYTE	W03
	BYTE		        100*end_game_map_mvl/mxv
	BYTE	W07
	BYTE		        100*end_game_map_mvl/mxv
	BYTE	W06
	BYTE		        100*end_game_map_mvl/mxv
	BYTE	W03
	BYTE		        100*end_game_map_mvl/mxv
	BYTE	W06
	BYTE		        100*end_game_map_mvl/mxv
	BYTE	W07
	BYTE		        100*end_game_map_mvl/mxv
	BYTE	W13
	BYTE		        100*end_game_map_mvl/mxv
	BYTE	W03
	BYTE		        100*end_game_map_mvl/mxv
	BYTE	W21
	BYTE	PEND
// 054   ----------------------------------------
	BYTE	PATT
	 POIN2	end_game_map_6_036
	BYTE		EOT     Gs3 
	BYTE		        Bn3 
	BYTE		        Dn4 
	BYTE	W03
// 055   ----------------------------------------
end_game_map_6_055:
	BYTE		N92     En3   v076
	BYTE		N92     An3 
	BYTE		N92     Cn4   v088
	BYTE	W09
	BYTE		VOL     100*end_game_map_mvl/mxv
	BYTE	W06
	BYTE		        100*end_game_map_mvl/mxv
	BYTE	W04
	BYTE		        100*end_game_map_mvl/mxv
	BYTE	W03
	BYTE		        100*end_game_map_mvl/mxv
	BYTE	W07
	BYTE		        100*end_game_map_mvl/mxv
	BYTE	W07
	BYTE		        100*end_game_map_mvl/mxv
	BYTE	W03
	BYTE		        100*end_game_map_mvl/mxv
	BYTE	W12
	BYTE		        100*end_game_map_mvl/mxv
	BYTE	W09
	BYTE		        100*end_game_map_mvl/mxv
	BYTE	W06
	BYTE		        100*end_game_map_mvl/mxv
	BYTE	W06
	BYTE		        100*end_game_map_mvl/mxv
	BYTE	W10
	BYTE		        100*end_game_map_mvl/mxv
	BYTE	W14
	BYTE	PEND
// 056   ----------------------------------------
end_game_map_6_056:
	BYTE		N92     Fn3   v076
	BYTE		N92     As3 
	BYTE		N92     Cs4   v088
	BYTE	W09
	BYTE		VOL     100*end_game_map_mvl/mxv
	BYTE	W06
	BYTE		        100*end_game_map_mvl/mxv
	BYTE	W04
	BYTE		        100*end_game_map_mvl/mxv
	BYTE	W03
	BYTE		        100*end_game_map_mvl/mxv
	BYTE	W07
	BYTE		        100*end_game_map_mvl/mxv
	BYTE	W07
	BYTE		        100*end_game_map_mvl/mxv
	BYTE	W03
	BYTE		        100*end_game_map_mvl/mxv
	BYTE	W12
	BYTE		        100*end_game_map_mvl/mxv
	BYTE	W09
	BYTE		        100*end_game_map_mvl/mxv
	BYTE	W06
	BYTE		        100*end_game_map_mvl/mxv
	BYTE	W06
	BYTE		        100*end_game_map_mvl/mxv
	BYTE	W10
	BYTE		        100*end_game_map_mvl/mxv
	BYTE	W14
	BYTE	PEND
// 057   ----------------------------------------
end_game_map_6_057:
	BYTE		TIE     Ds3   v076
	BYTE		TIE     Gs3 
	BYTE		TIE     Bn3   v088
	BYTE	W15
	BYTE		VOL     100*end_game_map_mvl/mxv
	BYTE	W06
	BYTE		        100*end_game_map_mvl/mxv
	BYTE	W06
	BYTE		        100*end_game_map_mvl/mxv
	BYTE	W03
	BYTE		        100*end_game_map_mvl/mxv
	BYTE	W07
	BYTE		        100*end_game_map_mvl/mxv
	BYTE	W06
	BYTE		        100*end_game_map_mvl/mxv
	BYTE	W03
	BYTE		        100*end_game_map_mvl/mxv
	BYTE	W06
	BYTE		        100*end_game_map_mvl/mxv
	BYTE	W07
	BYTE		        100*end_game_map_mvl/mxv
	BYTE	W13
	BYTE		        100*end_game_map_mvl/mxv
	BYTE	W03
	BYTE		        100*end_game_map_mvl/mxv
	BYTE	W21
	BYTE	PEND
// 058   ----------------------------------------
	BYTE	PATT
	 POIN2	end_game_map_6_036
	BYTE		EOT     Ds3 
	BYTE		        Gs3 
	BYTE		        Bn3 
	BYTE	W03
// 059   ----------------------------------------
	BYTE	PATT
	 POIN2	end_game_map_6_051
// 060   ----------------------------------------
	BYTE	PATT
	 POIN2	end_game_map_6_008
// 061   ----------------------------------------
	BYTE	PATT
	 POIN2	end_game_map_6_053
// 062   ----------------------------------------
	BYTE	PATT
	 POIN2	end_game_map_6_036
	BYTE		EOT     Gs3 
	BYTE		        Bn3 
	BYTE		        Dn4 
	BYTE	W03
// 063   ----------------------------------------
	BYTE	PATT
	 POIN2	end_game_map_6_055
// 064   ----------------------------------------
	BYTE	PATT
	 POIN2	end_game_map_6_056
// 065   ----------------------------------------
end_game_map_6_065:
	BYTE		TIE     Ds3   v076
	BYTE		TIE     Gs3 
	BYTE		TIE     Bn3   v088
	BYTE	W15
	BYTE		VOL     100*end_game_map_mvl/mxv
	BYTE	W06
	BYTE		        100*end_game_map_mvl/mxv
	BYTE	W06
	BYTE		        100*end_game_map_mvl/mxv
	BYTE	W03
	BYTE		        100*end_game_map_mvl/mxv
	BYTE	W07
	BYTE		        100*end_game_map_mvl/mxv
	BYTE	W06
	BYTE		        100*end_game_map_mvl/mxv
	BYTE	W03
	BYTE		        100*end_game_map_mvl/mxv
	BYTE	W06
	BYTE		        100*end_game_map_mvl/mxv
	BYTE	W07
	BYTE		        100*end_game_map_mvl/mxv
	BYTE	W13
	BYTE		        100*end_game_map_mvl/mxv
	BYTE	W03
	BYTE		        100*end_game_map_mvl/mxv
	BYTE	W09
	BYTE		        100*end_game_map_mvl/mxv
	BYTE	W03
	BYTE		        100*end_game_map_mvl/mxv
	BYTE	W07
	BYTE		        100*end_game_map_mvl/mxv
	BYTE	W02
	BYTE	PEND
// 066   ----------------------------------------
end_game_map_6_066:
	BYTE	W01
	BYTE		VOL     100*end_game_map_mvl/mxv
	BYTE	W03
	BYTE		        100*end_game_map_mvl/mxv
	BYTE	W03
	BYTE		        100*end_game_map_mvl/mxv
	BYTE	W03
	BYTE		        100*end_game_map_mvl/mxv
	BYTE	W03
	BYTE		        100*end_game_map_mvl/mxv
	BYTE	W03
	BYTE		        100*end_game_map_mvl/mxv
	BYTE	W04
	BYTE		        100*end_game_map_mvl/mxv
	BYTE	W03
	BYTE		        100*end_game_map_mvl/mxv
	BYTE	W03
	BYTE		        100*end_game_map_mvl/mxv
	BYTE	W03
	BYTE		        100*end_game_map_mvl/mxv
	BYTE	W03
	BYTE		        100*end_game_map_mvl/mxv
	BYTE	W03
	BYTE		        100*end_game_map_mvl/mxv
	BYTE	W03
	BYTE		        100*end_game_map_mvl/mxv
	BYTE	W03
	BYTE		        100*end_game_map_mvl/mxv
	BYTE	W03
	BYTE		        100*end_game_map_mvl/mxv
	BYTE	W04
	BYTE		        100*end_game_map_mvl/mxv
	BYTE	W03
	BYTE		        100*end_game_map_mvl/mxv
	BYTE	W03
	BYTE		        100*end_game_map_mvl/mxv
	BYTE	W03
	BYTE		        100*end_game_map_mvl/mxv
	BYTE	W03
	BYTE		        100*end_game_map_mvl/mxv
	BYTE	W03
	BYTE		        100*end_game_map_mvl/mxv
	BYTE	W03
	BYTE		        100*end_game_map_mvl/mxv
	BYTE	W03
	BYTE		        100*end_game_map_mvl/mxv
	BYTE	W04
	BYTE		        100*end_game_map_mvl/mxv
	BYTE	W03
	BYTE		        100*end_game_map_mvl/mxv
	BYTE	W03
	BYTE		        100*end_game_map_mvl/mxv
	BYTE	W06
	BYTE		        100*end_game_map_mvl/mxv
	BYTE	W08
	BYTE	PEND
	BYTE		EOT     Ds3 
	BYTE		        Gs3 
	BYTE		        Bn3 
	BYTE	W03
// 067   ----------------------------------------
	BYTE	PATT
	 POIN2	end_game_map_6_027
// 068   ----------------------------------------
	BYTE	W96
// 069   ----------------------------------------
	BYTE	W96
// 070   ----------------------------------------
	BYTE	W96
// 071   ----------------------------------------
	BYTE	PATT
	 POIN2	end_game_map_6_031
// 072   ----------------------------------------
	BYTE	PATT
	 POIN2	end_game_map_6_032
// 073   ----------------------------------------
	BYTE	PATT
	 POIN2	end_game_map_6_031
// 074   ----------------------------------------
	BYTE	W24
	BYTE		N04     Gn5   v076
	BYTE	W06
	BYTE		        Dn5 
	BYTE	W06
	BYTE		        Gn5 
	BYTE	W06
	BYTE		        Dn5 
	BYTE	W30
	BYTE		        Fs5 
	BYTE	W06
	BYTE		        Dn5 
	BYTE	W06
	BYTE		        Fs5 
	BYTE	W05
	BYTE		        Dn5 
	BYTE	W06
	BYTE		VOL     100*end_game_map_mvl/mxv
	BYTE	W01
// 075   ----------------------------------------
	BYTE	PATT
	 POIN2	end_game_map_6_004
// 076   ----------------------------------------
	BYTE	PATT
	 POIN2	end_game_map_6_005
// 077   ----------------------------------------
	BYTE	PATT
	 POIN2	end_game_map_6_006
// 078   ----------------------------------------
	BYTE	PATT
	 POIN2	end_game_map_6_007
// 079   ----------------------------------------
	BYTE	PATT
	 POIN2	end_game_map_6_008
// 080   ----------------------------------------
	BYTE	PATT
	 POIN2	end_game_map_6_005
// 081   ----------------------------------------
	BYTE	PATT
	 POIN2	end_game_map_6_006
// 082   ----------------------------------------
	BYTE	PATT
	 POIN2	end_game_map_6_007
// 083   ----------------------------------------
	BYTE	PATT
	 POIN2	end_game_map_6_008
// 084   ----------------------------------------
	BYTE	PATT
	 POIN2	end_game_map_6_005
// 085   ----------------------------------------
	BYTE	PATT
	 POIN2	end_game_map_6_006
// 086   ----------------------------------------
	BYTE	PATT
	 POIN2	end_game_map_6_015
// 087   ----------------------------------------
	BYTE	PATT
	 POIN2	end_game_map_6_006
// 088   ----------------------------------------
	BYTE	PATT
	 POIN2	end_game_map_6_017
// 089   ----------------------------------------
	BYTE	PATT
	 POIN2	end_game_map_6_018
// 090   ----------------------------------------
	BYTE	PATT
	 POIN2	end_game_map_6_019
// 091   ----------------------------------------
	BYTE	PATT
	 POIN2	end_game_map_6_008
// 092   ----------------------------------------
	BYTE	PATT
	 POIN2	end_game_map_6_005
// 093   ----------------------------------------
	BYTE	PATT
	 POIN2	end_game_map_6_006
// 094   ----------------------------------------
	BYTE	PATT
	 POIN2	end_game_map_6_015
// 095   ----------------------------------------
	BYTE	PATT
	 POIN2	end_game_map_6_006
// 096   ----------------------------------------
	BYTE	PATT
	 POIN2	end_game_map_6_025
// 097   ----------------------------------------
	BYTE	PATT
	 POIN2	end_game_map_6_026
// 098   ----------------------------------------
	BYTE	PATT
	 POIN2	end_game_map_6_027
// 099   ----------------------------------------
	BYTE	W96
// 100   ----------------------------------------
	BYTE	W96
// 101   ----------------------------------------
	BYTE	W96
// 102   ----------------------------------------
	BYTE	PATT
	 POIN2	end_game_map_6_031
// 103   ----------------------------------------
	BYTE	PATT
	 POIN2	end_game_map_6_032
// 104   ----------------------------------------
	BYTE	PATT
	 POIN2	end_game_map_6_031
// 105   ----------------------------------------
	BYTE	PATT
	 POIN2	end_game_map_6_034
// 106   ----------------------------------------
	BYTE	PATT
	 POIN2	end_game_map_6_035
// 107   ----------------------------------------
	BYTE	PATT
	 POIN2	end_game_map_6_036
	BYTE		EOT     Fs3 
	BYTE		        An3 
	BYTE		        Dn4 
	BYTE	W03
// 108   ----------------------------------------
	BYTE	PATT
	 POIN2	end_game_map_6_037
// 109   ----------------------------------------
	BYTE	PATT
	 POIN2	end_game_map_6_036
	BYTE		EOT     Gn3 
	BYTE		        As3 
	BYTE		        Dn4 
	BYTE	W03
// 110   ----------------------------------------
	BYTE	PATT
	 POIN2	end_game_map_6_039
// 111   ----------------------------------------
	BYTE	PATT
	 POIN2	end_game_map_6_006
// 112   ----------------------------------------
	BYTE	PATT
	 POIN2	end_game_map_6_041
// 113   ----------------------------------------
	BYTE	PATT
	 POIN2	end_game_map_6_015
// 114   ----------------------------------------
	BYTE	PATT
	 POIN2	end_game_map_6_043
// 115   ----------------------------------------
	BYTE	PATT
	 POIN2	end_game_map_6_036
	BYTE		EOT     Fs3 
	BYTE		        An3 
	BYTE		        Dn4 
	BYTE	W03
// 116   ----------------------------------------
	BYTE	PATT
	 POIN2	end_game_map_6_037
// 117   ----------------------------------------
	BYTE	PATT
	 POIN2	end_game_map_6_036
	BYTE		EOT     Gn3 
	BYTE		        As3 
	BYTE		        Dn4 
	BYTE	W03
// 118   ----------------------------------------
	BYTE	PATT
	 POIN2	end_game_map_6_047
// 119   ----------------------------------------
	BYTE	PATT
	 POIN2	end_game_map_6_048
// 120   ----------------------------------------
	BYTE	PATT
	 POIN2	end_game_map_6_049
// 121   ----------------------------------------
	BYTE	PATT
	 POIN2	end_game_map_6_050
// 122   ----------------------------------------
	BYTE	PATT
	 POIN2	end_game_map_6_051
// 123   ----------------------------------------
	BYTE	PATT
	 POIN2	end_game_map_6_008
// 124   ----------------------------------------
	BYTE	PATT
	 POIN2	end_game_map_6_053
// 125   ----------------------------------------
	BYTE	PATT
	 POIN2	end_game_map_6_036
	BYTE		EOT     Gs3 
	BYTE		        Bn3 
	BYTE		        Dn4 
	BYTE	W03
// 126   ----------------------------------------
	BYTE	PATT
	 POIN2	end_game_map_6_055
// 127   ----------------------------------------
	BYTE	PATT
	 POIN2	end_game_map_6_056
// 128   ----------------------------------------
	BYTE	PATT
	 POIN2	end_game_map_6_057
// 129   ----------------------------------------
	BYTE	PATT
	 POIN2	end_game_map_6_036
	BYTE		EOT     Ds3 
	BYTE		        Gs3 
	BYTE		        Bn3 
	BYTE	W03
// 130   ----------------------------------------
	BYTE	PATT
	 POIN2	end_game_map_6_051
// 131   ----------------------------------------
	BYTE	PATT
	 POIN2	end_game_map_6_008
// 132   ----------------------------------------
	BYTE	PATT
	 POIN2	end_game_map_6_053
// 133   ----------------------------------------
	BYTE	PATT
	 POIN2	end_game_map_6_036
	BYTE		EOT     Gs3 
	BYTE		        Bn3 
	BYTE		        Dn4 
	BYTE	W03
// 134   ----------------------------------------
	BYTE	PATT
	 POIN2	end_game_map_6_055
// 135   ----------------------------------------
	BYTE	PATT
	 POIN2	end_game_map_6_056
// 136   ----------------------------------------
	BYTE	PATT
	 POIN2	end_game_map_6_065
// 137   ----------------------------------------
	BYTE	PATT
	 POIN2	end_game_map_6_066
	BYTE		EOT     Ds3 
	BYTE		        Gs3 
	BYTE		        Bn3 
	BYTE	W03
// 138   ----------------------------------------
	BYTE	PATT
	 POIN2	end_game_map_6_027
// 139   ----------------------------------------
	BYTE	W96
// 140   ----------------------------------------
	BYTE	W96
// 141   ----------------------------------------
	BYTE	W96
// 142   ----------------------------------------
	BYTE	PATT
	 POIN2	end_game_map_6_031
// 143   ----------------------------------------
	BYTE	PATT
	 POIN2	end_game_map_6_032
// 144   ----------------------------------------
	BYTE	PATT
	 POIN2	end_game_map_6_031
// 145   ----------------------------------------
	BYTE	W24
	BYTE		N04     Gn5   v076
	BYTE	W06
	BYTE		        Dn5 
	BYTE	W06
	BYTE		        Gn5 
	BYTE	W06
	BYTE		        Dn5 
	BYTE	W30
	BYTE		        Fs5 
	BYTE	W06
	BYTE		        Dn5 
	BYTE	W06
	BYTE		        Fs5 
	BYTE	W05
	BYTE		        Dn5 
	BYTE	W06
	BYTE	FINE

//**************** Track 7 (Midi-Chn.6) ****************//

end_game_map_7:
	BYTE	KEYSH   end_game_map_key+0
// 000   ----------------------------------------
	BYTE		VOICE   67
	BYTE		VOL     100*end_game_map_mvl/mxv
	BYTE		PAN     c_v+36
	BYTE		VOL     100*end_game_map_mvl/mxv
	BYTE	W06
	BYTE		N14     Dn2   v076
	BYTE	W18
	BYTE		        Dn2   v080
	BYTE	W18
	BYTE		        Dn2   v076
	BYTE	W18
	BYTE		N14   
	BYTE	W18
	BYTE		N15   
	BYTE	W18
// 001   ----------------------------------------
end_game_map_7_001:
	BYTE	W06
	BYTE		N14     Dn2   v076
	BYTE	W18
	BYTE		        Dn2   v080
	BYTE	W18
	BYTE		        Dn2   v076
	BYTE	W18
	BYTE		N14   
	BYTE	W18
	BYTE		N15   
	BYTE	W18
	BYTE	PEND
// 002   ----------------------------------------
	BYTE	PATT
	 POIN2	end_game_map_7_001
// 003   ----------------------------------------
	BYTE	W96
// 004   ----------------------------------------
end_game_map_7_004:
	BYTE		N16     Gn1   v096
	BYTE	W18
	BYTE		N04     Gn2   v088
	BYTE	W06
	BYTE		        Gn1   v092
	BYTE	W06
	BYTE		        Gn2   v088
	BYTE	W18
	BYTE		N15     Gn1   v092
	BYTE	W18
	BYTE		N04     Gn2   v088
	BYTE	W06
	BYTE		        Gn1   v092
	BYTE	W06
	BYTE		        Gn2   v088
	BYTE	W18
	BYTE	PEND
// 005   ----------------------------------------
end_game_map_7_005:
	BYTE		N16     Fs1   v096
	BYTE	W18
	BYTE		N04     Fs2   v088
	BYTE	W06
	BYTE		        Fs1   v092
	BYTE	W06
	BYTE		        Fs2   v088
	BYTE	W18
	BYTE		N15     Fs1   v092
	BYTE	W18
	BYTE		N04     Fs2   v088
	BYTE	W06
	BYTE		        Fs1   v092
	BYTE	W06
	BYTE		        Fs2   v088
	BYTE	W18
	BYTE	PEND
// 006   ----------------------------------------
end_game_map_7_006:
	BYTE		N16     Fn1   v096
	BYTE	W18
	BYTE		N04     Fn2   v088
	BYTE	W06
	BYTE		        Fn1   v092
	BYTE	W06
	BYTE		        Fn2   v088
	BYTE	W18
	BYTE		N15     Fn1   v092
	BYTE	W18
	BYTE		N04     Fn2   v088
	BYTE	W06
	BYTE		        Fn1   v092
	BYTE	W06
	BYTE		        Fn2   v088
	BYTE	W18
	BYTE	PEND
// 007   ----------------------------------------
end_game_map_7_007:
	BYTE		N16     En1   v096
	BYTE	W18
	BYTE		N04     En2   v088
	BYTE	W06
	BYTE		        En1   v092
	BYTE	W06
	BYTE		        En2   v088
	BYTE	W18
	BYTE		N15     En1   v092
	BYTE	W18
	BYTE		N04     En2   v088
	BYTE	W06
	BYTE		        En1   v092
	BYTE	W06
	BYTE		        En2   v088
	BYTE	W18
	BYTE	PEND
// 008   ----------------------------------------
	BYTE	PATT
	 POIN2	end_game_map_7_004
// 009   ----------------------------------------
	BYTE	PATT
	 POIN2	end_game_map_7_005
// 010   ----------------------------------------
	BYTE	PATT
	 POIN2	end_game_map_7_006
// 011   ----------------------------------------
	BYTE	PATT
	 POIN2	end_game_map_7_007
// 012   ----------------------------------------
	BYTE	PATT
	 POIN2	end_game_map_7_004
// 013   ----------------------------------------
	BYTE	PATT
	 POIN2	end_game_map_7_005
// 014   ----------------------------------------
	BYTE	PATT
	 POIN2	end_game_map_7_006
// 015   ----------------------------------------
end_game_map_7_015:
	BYTE		N16     Ds1   v096
	BYTE	W18
	BYTE		N04     Ds2   v088
	BYTE	W06
	BYTE		        Ds1   v092
	BYTE	W06
	BYTE		        Ds2   v088
	BYTE	W18
	BYTE		N15     Ds1   v092
	BYTE	W18
	BYTE		N04     Ds2   v088
	BYTE	W06
	BYTE		        Ds1   v092
	BYTE	W06
	BYTE		        Ds2   v088
	BYTE	W18
	BYTE	PEND
// 016   ----------------------------------------
	BYTE	PATT
	 POIN2	end_game_map_7_006
// 017   ----------------------------------------
end_game_map_7_017:
	BYTE		N16     As1   v096
	BYTE	W18
	BYTE		N04     As2   v088
	BYTE	W06
	BYTE		        As1   v092
	BYTE	W06
	BYTE		        As2   v088
	BYTE	W18
	BYTE		N15     As1   v092
	BYTE	W18
	BYTE		N04     As2   v088
	BYTE	W06
	BYTE		        As1   v092
	BYTE	W06
	BYTE		        As2   v088
	BYTE	W18
	BYTE	PEND
// 018   ----------------------------------------
	BYTE	PATT
	 POIN2	end_game_map_7_015
// 019   ----------------------------------------
end_game_map_7_019:
	BYTE		N16     Dn1   v096
	BYTE	W18
	BYTE		N04     Dn2   v088
	BYTE	W06
	BYTE		        Dn1   v092
	BYTE	W06
	BYTE		        Dn2   v088
	BYTE	W18
	BYTE		N15     Dn1   v092
	BYTE	W18
	BYTE		N04     Dn2   v088
	BYTE	W06
	BYTE		        Dn1   v092
	BYTE	W06
	BYTE		        Dn2   v088
	BYTE	W18
	BYTE	PEND
// 020   ----------------------------------------
	BYTE	PATT
	 POIN2	end_game_map_7_004
// 021   ----------------------------------------
	BYTE	PATT
	 POIN2	end_game_map_7_005
// 022   ----------------------------------------
	BYTE	PATT
	 POIN2	end_game_map_7_006
// 023   ----------------------------------------
	BYTE	PATT
	 POIN2	end_game_map_7_015
// 024   ----------------------------------------
	BYTE	PATT
	 POIN2	end_game_map_7_006
// 025   ----------------------------------------
end_game_map_7_025:
	BYTE		N16     Gn1   v096
	BYTE	W18
	BYTE		N04     Gn2   v088
	BYTE	W06
	BYTE		        Gn1   v092
	BYTE	W06
	BYTE		        Gn2   v088
	BYTE	W18
	BYTE		N15     Fn1   v092
	BYTE	W18
	BYTE		N04     Fn2   v088
	BYTE	W06
	BYTE		        Fn1   v092
	BYTE	W06
	BYTE		        Fn2   v088
	BYTE	W18
	BYTE	PEND
// 026   ----------------------------------------
	BYTE	PATT
	 POIN2	end_game_map_7_019
// 027   ----------------------------------------
	BYTE	PATT
	 POIN2	end_game_map_7_025
// 028   ----------------------------------------
end_game_map_7_028:
	BYTE		N16     Ds1   v096
	BYTE	W18
	BYTE		N04     Ds2   v088
	BYTE	W06
	BYTE		        Ds1   v092
	BYTE	W06
	BYTE		        Ds2   v088
	BYTE	W18
	BYTE		N15     Dn1   v092
	BYTE	W18
	BYTE		N04     Dn2   v088
	BYTE	W06
	BYTE		        Dn1   v092
	BYTE	W06
	BYTE		        Dn2   v088
	BYTE	W18
	BYTE	PEND
// 029   ----------------------------------------
	BYTE	PATT
	 POIN2	end_game_map_7_025
// 030   ----------------------------------------
	BYTE	PATT
	 POIN2	end_game_map_7_028
// 031   ----------------------------------------
	BYTE	PATT
	 POIN2	end_game_map_7_025
// 032   ----------------------------------------
	BYTE	PATT
	 POIN2	end_game_map_7_028
// 033   ----------------------------------------
	BYTE	PATT
	 POIN2	end_game_map_7_025
// 034   ----------------------------------------
	BYTE	PATT
	 POIN2	end_game_map_7_028
// 035   ----------------------------------------
end_game_map_7_035:
	BYTE		N10     Dn1   v096
	BYTE	W12
	BYTE		N21     Dn2   v088
	BYTE	W24
	BYTE		N09     Cn2 
	BYTE	W18
	BYTE		N04     As1 
	BYTE	W06
	BYTE		        An1 
	BYTE	W06
	BYTE		        Gn1 
	BYTE	W06
	BYTE		        Ds1   v092
	BYTE	W06
	BYTE		        Gn1   v088
	BYTE	W06
	BYTE		        An1 
	BYTE	W05
	BYTE		        Dn2 
	BYTE	W07
	BYTE	PEND
// 036   ----------------------------------------
	BYTE	PATT
	 POIN2	end_game_map_7_035
// 037   ----------------------------------------
end_game_map_7_037:
	BYTE		N10     Gn1   v096
	BYTE	W12
	BYTE		N21     Gn2   v088
	BYTE	W24
	BYTE		N09     Fn2 
	BYTE	W18
	BYTE		N04     Ds2 
	BYTE	W06
	BYTE		        Dn2 
	BYTE	W06
	BYTE		        Cn2 
	BYTE	W06
	BYTE		        As1   v092
	BYTE	W06
	BYTE		        Cn2   v088
	BYTE	W06
	BYTE		        Dn2 
	BYTE	W05
	BYTE		        Gn2 
	BYTE	W07
	BYTE	PEND
// 038   ----------------------------------------
	BYTE	PATT
	 POIN2	end_game_map_7_037
// 039   ----------------------------------------
end_game_map_7_039:
	BYTE		N10     Cn1   v096
	BYTE	W12
	BYTE		N21     Cn2   v088
	BYTE	W24
	BYTE		N09     As1 
	BYTE	W18
	BYTE		N04     Gs1 
	BYTE	W06
	BYTE		        Gn1 
	BYTE	W06
	BYTE		        Fn1 
	BYTE	W06
	BYTE		        Ds1   v092
	BYTE	W06
	BYTE		        Fn1   v088
	BYTE	W06
	BYTE		        Gn1 
	BYTE	W05
	BYTE		        Cn1 
	BYTE	W07
	BYTE	PEND
// 040   ----------------------------------------
end_game_map_7_040:
	BYTE		N10     Fn1   v096
	BYTE	W12
	BYTE		N21     Fn2   v088
	BYTE	W24
	BYTE		        Cn2   v076
	BYTE	W24
	BYTE		        Fn2   v088
	BYTE	W24
	BYTE		N09     Cn2 
	BYTE	W12
	BYTE	PEND
// 041   ----------------------------------------
end_game_map_7_041:
	BYTE		N10     As1   v096
	BYTE	W12
	BYTE		N21     As2   v088
	BYTE	W24
	BYTE		N09     An2 
	BYTE	W18
	BYTE		N04     Gn2 
	BYTE	W06
	BYTE		        Fn2 
	BYTE	W06
	BYTE		        Ds2 
	BYTE	W06
	BYTE		        Dn2   v092
	BYTE	W06
	BYTE		        As1   v088
	BYTE	W06
	BYTE		        Dn2 
	BYTE	W05
	BYTE		        As1 
	BYTE	W07
	BYTE	PEND
// 042   ----------------------------------------
end_game_map_7_042:
	BYTE		N10     Ds1   v096
	BYTE	W12
	BYTE		N21     Ds2   v088
	BYTE	W24
	BYTE		        As1   v076
	BYTE	W24
	BYTE		        Gn1   v088
	BYTE	W24
	BYTE		N09     Ds1 
	BYTE	W12
	BYTE	PEND
// 043   ----------------------------------------
	BYTE	PATT
	 POIN2	end_game_map_7_035
// 044   ----------------------------------------
	BYTE	PATT
	 POIN2	end_game_map_7_035
// 045   ----------------------------------------
	BYTE	PATT
	 POIN2	end_game_map_7_037
// 046   ----------------------------------------
	BYTE	PATT
	 POIN2	end_game_map_7_037
// 047   ----------------------------------------
end_game_map_7_047:
	BYTE		N10     Bn1   v096
	BYTE	W12
	BYTE		N21     Bn2   v088
	BYTE	W24
	BYTE		N09     An2 
	BYTE	W18
	BYTE		N04     Gn2 
	BYTE	W06
	BYTE		        Fs2 
	BYTE	W06
	BYTE		        En2 
	BYTE	W06
	BYTE		        Dn2   v092
	BYTE	W06
	BYTE		        En2   v088
	BYTE	W06
	BYTE		        Fs2 
	BYTE	W05
	BYTE		        Bn2 
	BYTE	W07
	BYTE	PEND
// 048   ----------------------------------------
end_game_map_7_048:
	BYTE		N10     En1   v096
	BYTE	W12
	BYTE		N21     En2   v088
	BYTE	W24
	BYTE		        Bn1 
	BYTE	W24
	BYTE		        En2 
	BYTE	W24
	BYTE		N09     En1 
	BYTE	W12
	BYTE	PEND
// 049   ----------------------------------------
end_game_map_7_049:
	BYTE		N10     An1   v096
	BYTE	W12
	BYTE		N21     An2   v088
	BYTE	W24
	BYTE		N09     Gn2 
	BYTE	W18
	BYTE		N04     Fn2 
	BYTE	W06
	BYTE		        En2 
	BYTE	W06
	BYTE		        Dn2 
	BYTE	W06
	BYTE		        Cs2   v092
	BYTE	W06
	BYTE		        An1   v088
	BYTE	W06
	BYTE		        Cs2 
	BYTE	W05
	BYTE		        An1 
	BYTE	W07
	BYTE	PEND
// 050   ----------------------------------------
end_game_map_7_050:
	BYTE		N10     An1   v096
	BYTE	W12
	BYTE		N21     An2   v088
	BYTE	W24
	BYTE		        Ds2 
	BYTE	W24
	BYTE		        Cs2 
	BYTE	W24
	BYTE		N09     An1 
	BYTE	W12
	BYTE	PEND
// 051   ----------------------------------------
	BYTE	PATT
	 POIN2	end_game_map_7_006
// 052   ----------------------------------------
	BYTE	PATT
	 POIN2	end_game_map_7_004
// 053   ----------------------------------------
end_game_map_7_053:
	BYTE		N16     Gs1   v096
	BYTE	W18
	BYTE		N04     Gs2   v088
	BYTE	W06
	BYTE		        Gs1   v092
	BYTE	W06
	BYTE		        Gs2   v088
	BYTE	W18
	BYTE		N15     Gs1   v092
	BYTE	W18
	BYTE		N04     Gs2   v088
	BYTE	W06
	BYTE		        Gs1   v092
	BYTE	W06
	BYTE		        Gs2   v088
	BYTE	W18
	BYTE	PEND
// 054   ----------------------------------------
	BYTE	PATT
	 POIN2	end_game_map_7_053
// 055   ----------------------------------------
end_game_map_7_055:
	BYTE		N16     An1   v096
	BYTE	W18
	BYTE		N04     An2   v088
	BYTE	W06
	BYTE		        An1   v092
	BYTE	W06
	BYTE		        An2   v088
	BYTE	W18
	BYTE		N15     An1   v092
	BYTE	W18
	BYTE		N04     An2   v088
	BYTE	W06
	BYTE		        An1   v092
	BYTE	W06
	BYTE		        An2   v088
	BYTE	W18
	BYTE	PEND
// 056   ----------------------------------------
	BYTE	PATT
	 POIN2	end_game_map_7_017
// 057   ----------------------------------------
end_game_map_7_057:
	BYTE		N16     Cs1   v096
	BYTE	W18
	BYTE		N04     Cs2   v088
	BYTE	W06
	BYTE		        Cs1   v092
	BYTE	W06
	BYTE		        Cs2   v088
	BYTE	W18
	BYTE		N15     Cs1   v092
	BYTE	W18
	BYTE		N04     Cs2   v088
	BYTE	W06
	BYTE		        Cs1   v092
	BYTE	W06
	BYTE		        Cs2   v088
	BYTE	W18
	BYTE	PEND
// 058   ----------------------------------------
	BYTE	PATT
	 POIN2	end_game_map_7_057
// 059   ----------------------------------------
	BYTE	PATT
	 POIN2	end_game_map_7_006
// 060   ----------------------------------------
	BYTE	PATT
	 POIN2	end_game_map_7_004
// 061   ----------------------------------------
	BYTE	PATT
	 POIN2	end_game_map_7_053
// 062   ----------------------------------------
	BYTE	PATT
	 POIN2	end_game_map_7_053
// 063   ----------------------------------------
	BYTE	PATT
	 POIN2	end_game_map_7_055
// 064   ----------------------------------------
	BYTE	PATT
	 POIN2	end_game_map_7_017
// 065   ----------------------------------------
	BYTE	PATT
	 POIN2	end_game_map_7_057
// 066   ----------------------------------------
	BYTE	PATT
	 POIN2	end_game_map_7_057
// 067   ----------------------------------------
	BYTE	PATT
	 POIN2	end_game_map_7_025
// 068   ----------------------------------------
	BYTE	PATT
	 POIN2	end_game_map_7_028
// 069   ----------------------------------------
	BYTE	PATT
	 POIN2	end_game_map_7_025
// 070   ----------------------------------------
	BYTE	PATT
	 POIN2	end_game_map_7_028
// 071   ----------------------------------------
	BYTE	PATT
	 POIN2	end_game_map_7_025
// 072   ----------------------------------------
	BYTE	PATT
	 POIN2	end_game_map_7_028
// 073   ----------------------------------------
	BYTE	PATT
	 POIN2	end_game_map_7_025
// 074   ----------------------------------------
	BYTE	PATT
	 POIN2	end_game_map_7_028
// 075   ----------------------------------------
	BYTE	PATT
	 POIN2	end_game_map_7_004
// 076   ----------------------------------------
	BYTE	PATT
	 POIN2	end_game_map_7_005
// 077   ----------------------------------------
	BYTE	PATT
	 POIN2	end_game_map_7_006
// 078   ----------------------------------------
	BYTE	PATT
	 POIN2	end_game_map_7_007
// 079   ----------------------------------------
	BYTE	PATT
	 POIN2	end_game_map_7_004
// 080   ----------------------------------------
	BYTE	PATT
	 POIN2	end_game_map_7_005
// 081   ----------------------------------------
	BYTE	PATT
	 POIN2	end_game_map_7_006
// 082   ----------------------------------------
	BYTE	PATT
	 POIN2	end_game_map_7_007
// 083   ----------------------------------------
	BYTE	PATT
	 POIN2	end_game_map_7_004
// 084   ----------------------------------------
	BYTE	PATT
	 POIN2	end_game_map_7_005
// 085   ----------------------------------------
	BYTE	PATT
	 POIN2	end_game_map_7_006
// 086   ----------------------------------------
	BYTE	PATT
	 POIN2	end_game_map_7_015
// 087   ----------------------------------------
	BYTE	PATT
	 POIN2	end_game_map_7_006
// 088   ----------------------------------------
	BYTE	PATT
	 POIN2	end_game_map_7_017
// 089   ----------------------------------------
	BYTE	PATT
	 POIN2	end_game_map_7_015
// 090   ----------------------------------------
	BYTE	PATT
	 POIN2	end_game_map_7_019
// 091   ----------------------------------------
	BYTE	PATT
	 POIN2	end_game_map_7_004
// 092   ----------------------------------------
	BYTE	PATT
	 POIN2	end_game_map_7_005
// 093   ----------------------------------------
	BYTE	PATT
	 POIN2	end_game_map_7_006
// 094   ----------------------------------------
	BYTE	PATT
	 POIN2	end_game_map_7_015
// 095   ----------------------------------------
	BYTE	PATT
	 POIN2	end_game_map_7_006
// 096   ----------------------------------------
	BYTE	PATT
	 POIN2	end_game_map_7_025
// 097   ----------------------------------------
	BYTE	PATT
	 POIN2	end_game_map_7_019
// 098   ----------------------------------------
	BYTE	PATT
	 POIN2	end_game_map_7_025
// 099   ----------------------------------------
	BYTE	PATT
	 POIN2	end_game_map_7_028
// 100   ----------------------------------------
	BYTE	PATT
	 POIN2	end_game_map_7_025
// 101   ----------------------------------------
	BYTE	PATT
	 POIN2	end_game_map_7_028
// 102   ----------------------------------------
	BYTE	PATT
	 POIN2	end_game_map_7_025
// 103   ----------------------------------------
	BYTE	PATT
	 POIN2	end_game_map_7_028
// 104   ----------------------------------------
	BYTE	PATT
	 POIN2	end_game_map_7_025
// 105   ----------------------------------------
	BYTE	PATT
	 POIN2	end_game_map_7_028
// 106   ----------------------------------------
	BYTE	PATT
	 POIN2	end_game_map_7_035
// 107   ----------------------------------------
	BYTE	PATT
	 POIN2	end_game_map_7_035
// 108   ----------------------------------------
	BYTE	PATT
	 POIN2	end_game_map_7_037
// 109   ----------------------------------------
	BYTE	PATT
	 POIN2	end_game_map_7_037
// 110   ----------------------------------------
	BYTE	PATT
	 POIN2	end_game_map_7_039
// 111   ----------------------------------------
	BYTE	PATT
	 POIN2	end_game_map_7_040
// 112   ----------------------------------------
	BYTE	PATT
	 POIN2	end_game_map_7_041
// 113   ----------------------------------------
	BYTE	PATT
	 POIN2	end_game_map_7_042
// 114   ----------------------------------------
	BYTE	PATT
	 POIN2	end_game_map_7_035
// 115   ----------------------------------------
	BYTE	PATT
	 POIN2	end_game_map_7_035
// 116   ----------------------------------------
	BYTE	PATT
	 POIN2	end_game_map_7_037
// 117   ----------------------------------------
	BYTE	PATT
	 POIN2	end_game_map_7_037
// 118   ----------------------------------------
	BYTE	PATT
	 POIN2	end_game_map_7_047
// 119   ----------------------------------------
	BYTE	PATT
	 POIN2	end_game_map_7_048
// 120   ----------------------------------------
	BYTE	PATT
	 POIN2	end_game_map_7_049
// 121   ----------------------------------------
	BYTE	PATT
	 POIN2	end_game_map_7_050
// 122   ----------------------------------------
	BYTE	PATT
	 POIN2	end_game_map_7_006
// 123   ----------------------------------------
	BYTE	PATT
	 POIN2	end_game_map_7_004
// 124   ----------------------------------------
	BYTE	PATT
	 POIN2	end_game_map_7_053
// 125   ----------------------------------------
	BYTE	PATT
	 POIN2	end_game_map_7_053
// 126   ----------------------------------------
	BYTE	PATT
	 POIN2	end_game_map_7_055
// 127   ----------------------------------------
	BYTE	PATT
	 POIN2	end_game_map_7_017
// 128   ----------------------------------------
	BYTE	PATT
	 POIN2	end_game_map_7_057
// 129   ----------------------------------------
	BYTE	PATT
	 POIN2	end_game_map_7_057
// 130   ----------------------------------------
	BYTE	PATT
	 POIN2	end_game_map_7_006
// 131   ----------------------------------------
	BYTE	PATT
	 POIN2	end_game_map_7_004
// 132   ----------------------------------------
	BYTE	PATT
	 POIN2	end_game_map_7_053
// 133   ----------------------------------------
	BYTE	PATT
	 POIN2	end_game_map_7_053
// 134   ----------------------------------------
	BYTE	PATT
	 POIN2	end_game_map_7_055
// 135   ----------------------------------------
	BYTE	PATT
	 POIN2	end_game_map_7_017
// 136   ----------------------------------------
	BYTE	PATT
	 POIN2	end_game_map_7_057
// 137   ----------------------------------------
	BYTE	PATT
	 POIN2	end_game_map_7_057
// 138   ----------------------------------------
	BYTE	PATT
	 POIN2	end_game_map_7_025
// 139   ----------------------------------------
	BYTE	PATT
	 POIN2	end_game_map_7_028
// 140   ----------------------------------------
	BYTE	PATT
	 POIN2	end_game_map_7_025
// 141   ----------------------------------------
	BYTE	PATT
	 POIN2	end_game_map_7_028
// 142   ----------------------------------------
	BYTE	PATT
	 POIN2	end_game_map_7_025
// 143   ----------------------------------------
	BYTE	PATT
	 POIN2	end_game_map_7_028
// 144   ----------------------------------------
	BYTE	PATT
	 POIN2	end_game_map_7_025
// 145   ----------------------------------------
	BYTE		N16     Ds1   v096
	BYTE	W18
	BYTE		N04     Ds2   v088
	BYTE	W06
	BYTE		        Ds1   v092
	BYTE	W06
	BYTE		        Ds2   v088
	BYTE	W18
	BYTE		N15     Dn1   v092
	BYTE	W18
	BYTE		N04     Dn2   v088
	BYTE	W06
	BYTE		        Dn1   v092
	BYTE	W06
	BYTE		        Dn2   v088
	BYTE	W17
	BYTE	FINE

//**************** Track 8 (Midi-Chn.7) ****************//

end_game_map_8:
	BYTE	KEYSH   end_game_map_key+0
// 000   ----------------------------------------
	BYTE		VOICE   49
	BYTE		VOL     100*end_game_map_mvl/mxv
	BYTE		PAN     c_v+36
	BYTE		VOL     100*end_game_map_mvl/mxv
	BYTE		        100*end_game_map_mvl/mxv
	BYTE		TIE     Dn1   v088
	BYTE		TIE     Dn2   v096
	BYTE	W09
	BYTE		VOL     100*end_game_map_mvl/mxv
	BYTE	W06
	BYTE		        100*end_game_map_mvl/mxv
	BYTE	W03
	BYTE		        100*end_game_map_mvl/mxv
	BYTE	W03
	BYTE		        100*end_game_map_mvl/mxv
	BYTE	W03
	BYTE		        100*end_game_map_mvl/mxv
	BYTE	W03
	BYTE		        100*end_game_map_mvl/mxv
	BYTE	W03
	BYTE		        100*end_game_map_mvl/mxv
	BYTE	W04
	BYTE		        100*end_game_map_mvl/mxv
	BYTE	W03
	BYTE		        100*end_game_map_mvl/mxv
	BYTE	W03
	BYTE		        100*end_game_map_mvl/mxv
	BYTE	W03
	BYTE		        100*end_game_map_mvl/mxv
	BYTE	W03
	BYTE		        100*end_game_map_mvl/mxv
	BYTE	W03
	BYTE		        100*end_game_map_mvl/mxv
	BYTE	W04
	BYTE		        100*end_game_map_mvl/mxv
	BYTE	W03
	BYTE		        100*end_game_map_mvl/mxv
	BYTE	W03
	BYTE		        100*end_game_map_mvl/mxv
	BYTE	W06
	BYTE		        100*end_game_map_mvl/mxv
	BYTE	W07
	BYTE		        100*end_game_map_mvl/mxv
	BYTE	W03
	BYTE		        100*end_game_map_mvl/mxv
	BYTE	W21
// 001   ----------------------------------------
	BYTE	W01
	BYTE		        100*end_game_map_mvl/mxv
	BYTE	W12
	BYTE		        100*end_game_map_mvl/mxv
	BYTE	W10
	BYTE		        100*end_game_map_mvl/mxv
	BYTE	W09
	BYTE		        100*end_game_map_mvl/mxv
	BYTE	W09
	BYTE		        100*end_game_map_mvl/mxv
	BYTE	W10
	BYTE		        100*end_game_map_mvl/mxv
	BYTE	W09
	BYTE		        100*end_game_map_mvl/mxv
	BYTE	W13
	BYTE		        100*end_game_map_mvl/mxv
	BYTE	W20
	BYTE		EOT     Dn1 
	BYTE		        Dn2 
	BYTE	W03
// 002   ----------------------------------------
end_game_map_8_002:
	BYTE		N92     Dn1   v088
	BYTE		N92     Dn2   v100
	BYTE	W12
	BYTE		VOL     100*end_game_map_mvl/mxv
	BYTE	W07
	BYTE		        100*end_game_map_mvl/mxv
	BYTE	W06
	BYTE		        100*end_game_map_mvl/mxv
	BYTE	W11
	BYTE		        100*end_game_map_mvl/mxv
	BYTE	W03
	BYTE		        100*end_game_map_mvl/mxv
	BYTE	W18
	BYTE		        100*end_game_map_mvl/mxv
	BYTE	W09
	BYTE		        100*end_game_map_mvl/mxv
	BYTE	W10
	BYTE		        100*end_game_map_mvl/mxv
	BYTE	W20
	BYTE	PEND
// 003   ----------------------------------------
	BYTE		N22     As0   v092
	BYTE		N22     As1   v108
	BYTE	W24
	BYTE		N21     An0   v088
	BYTE		N21     An1   v104
	BYTE	W24
	BYTE		        Gn0   v092
	BYTE		N21     Gn1   v104
	BYTE	W24
	BYTE		        Fs0   v088
	BYTE		N21     Fs1   v104
	BYTE	W24
// 004   ----------------------------------------
end_game_map_8_004:
	BYTE		N92     Gn1   v088
	BYTE		N92     Gn2   v100
	BYTE	W09
	BYTE		VOL     100*end_game_map_mvl/mxv
	BYTE	W06
	BYTE		        100*end_game_map_mvl/mxv
	BYTE	W04
	BYTE		        100*end_game_map_mvl/mxv
	BYTE	W03
	BYTE		        100*end_game_map_mvl/mxv
	BYTE	W07
	BYTE		        100*end_game_map_mvl/mxv
	BYTE	W07
	BYTE		        100*end_game_map_mvl/mxv
	BYTE	W03
	BYTE		        100*end_game_map_mvl/mxv
	BYTE	W12
	BYTE		        100*end_game_map_mvl/mxv
	BYTE	W09
	BYTE		        100*end_game_map_mvl/mxv
	BYTE	W06
	BYTE		        100*end_game_map_mvl/mxv
	BYTE	W06
	BYTE		        100*end_game_map_mvl/mxv
	BYTE	W10
	BYTE		        100*end_game_map_mvl/mxv
	BYTE	W14
	BYTE	PEND
// 005   ----------------------------------------
end_game_map_8_005:
	BYTE		N92     Fs1   v088
	BYTE		N92     Fs2   v100
	BYTE	W12
	BYTE		VOL     100*end_game_map_mvl/mxv
	BYTE	W07
	BYTE		        100*end_game_map_mvl/mxv
	BYTE	W06
	BYTE		        100*end_game_map_mvl/mxv
	BYTE	W11
	BYTE		        100*end_game_map_mvl/mxv
	BYTE	W03
	BYTE		        100*end_game_map_mvl/mxv
	BYTE	W18
	BYTE		        100*end_game_map_mvl/mxv
	BYTE	W09
	BYTE		        100*end_game_map_mvl/mxv
	BYTE	W10
	BYTE		        100*end_game_map_mvl/mxv
	BYTE	W20
	BYTE	PEND
// 006   ----------------------------------------
end_game_map_8_006:
	BYTE		N92     Fn1   v088
	BYTE		N92     Fn2   v100
	BYTE	W09
	BYTE		VOL     100*end_game_map_mvl/mxv
	BYTE	W06
	BYTE		        100*end_game_map_mvl/mxv
	BYTE	W04
	BYTE		        100*end_game_map_mvl/mxv
	BYTE	W03
	BYTE		        100*end_game_map_mvl/mxv
	BYTE	W07
	BYTE		        100*end_game_map_mvl/mxv
	BYTE	W07
	BYTE		        100*end_game_map_mvl/mxv
	BYTE	W03
	BYTE		        100*end_game_map_mvl/mxv
	BYTE	W12
	BYTE		        100*end_game_map_mvl/mxv
	BYTE	W09
	BYTE		        100*end_game_map_mvl/mxv
	BYTE	W06
	BYTE		        100*end_game_map_mvl/mxv
	BYTE	W06
	BYTE		        100*end_game_map_mvl/mxv
	BYTE	W10
	BYTE		        100*end_game_map_mvl/mxv
	BYTE	W14
	BYTE	PEND
// 007   ----------------------------------------
end_game_map_8_007:
	BYTE		N92     En1   v088
	BYTE		N92     En2   v100
	BYTE	W09
	BYTE		VOL     100*end_game_map_mvl/mxv
	BYTE	W06
	BYTE		        100*end_game_map_mvl/mxv
	BYTE	W04
	BYTE		        100*end_game_map_mvl/mxv
	BYTE	W03
	BYTE		        100*end_game_map_mvl/mxv
	BYTE	W07
	BYTE		        100*end_game_map_mvl/mxv
	BYTE	W07
	BYTE		        100*end_game_map_mvl/mxv
	BYTE	W03
	BYTE		        100*end_game_map_mvl/mxv
	BYTE	W12
	BYTE		        100*end_game_map_mvl/mxv
	BYTE	W09
	BYTE		        100*end_game_map_mvl/mxv
	BYTE	W06
	BYTE		        100*end_game_map_mvl/mxv
	BYTE	W06
	BYTE		        100*end_game_map_mvl/mxv
	BYTE	W10
	BYTE		        100*end_game_map_mvl/mxv
	BYTE	W14
	BYTE	PEND
// 008   ----------------------------------------
	BYTE	PATT
	 POIN2	end_game_map_8_004
// 009   ----------------------------------------
end_game_map_8_009:
	BYTE		N92     Fs1   v088
	BYTE		N92     Fs2   v100
	BYTE	W09
	BYTE		VOL     100*end_game_map_mvl/mxv
	BYTE	W06
	BYTE		        100*end_game_map_mvl/mxv
	BYTE	W04
	BYTE		        100*end_game_map_mvl/mxv
	BYTE	W03
	BYTE		        100*end_game_map_mvl/mxv
	BYTE	W07
	BYTE		        100*end_game_map_mvl/mxv
	BYTE	W07
	BYTE		        100*end_game_map_mvl/mxv
	BYTE	W03
	BYTE		        100*end_game_map_mvl/mxv
	BYTE	W12
	BYTE		        100*end_game_map_mvl/mxv
	BYTE	W09
	BYTE		        100*end_game_map_mvl/mxv
	BYTE	W06
	BYTE		        100*end_game_map_mvl/mxv
	BYTE	W06
	BYTE		        100*end_game_map_mvl/mxv
	BYTE	W10
	BYTE		        100*end_game_map_mvl/mxv
	BYTE	W14
	BYTE	PEND
// 010   ----------------------------------------
	BYTE	PATT
	 POIN2	end_game_map_8_006
// 011   ----------------------------------------
	BYTE	PATT
	 POIN2	end_game_map_8_007
// 012   ----------------------------------------
	BYTE	PATT
	 POIN2	end_game_map_8_004
// 013   ----------------------------------------
	BYTE	PATT
	 POIN2	end_game_map_8_009
// 014   ----------------------------------------
	BYTE	PATT
	 POIN2	end_game_map_8_006
// 015   ----------------------------------------
end_game_map_8_015:
	BYTE		N92     Ds1   v088
	BYTE		N92     Ds2   v100
	BYTE	W09
	BYTE		VOL     100*end_game_map_mvl/mxv
	BYTE	W06
	BYTE		        100*end_game_map_mvl/mxv
	BYTE	W04
	BYTE		        100*end_game_map_mvl/mxv
	BYTE	W03
	BYTE		        100*end_game_map_mvl/mxv
	BYTE	W07
	BYTE		        100*end_game_map_mvl/mxv
	BYTE	W07
	BYTE		        100*end_game_map_mvl/mxv
	BYTE	W03
	BYTE		        100*end_game_map_mvl/mxv
	BYTE	W12
	BYTE		        100*end_game_map_mvl/mxv
	BYTE	W09
	BYTE		        100*end_game_map_mvl/mxv
	BYTE	W06
	BYTE		        100*end_game_map_mvl/mxv
	BYTE	W06
	BYTE		        100*end_game_map_mvl/mxv
	BYTE	W10
	BYTE		        100*end_game_map_mvl/mxv
	BYTE	W14
	BYTE	PEND
// 016   ----------------------------------------
end_game_map_8_016:
	BYTE		N92     Fn1   v088
	BYTE		N92     Fn2   v100
	BYTE	W12
	BYTE		VOL     100*end_game_map_mvl/mxv
	BYTE	W07
	BYTE		        100*end_game_map_mvl/mxv
	BYTE	W06
	BYTE		        100*end_game_map_mvl/mxv
	BYTE	W11
	BYTE		        100*end_game_map_mvl/mxv
	BYTE	W03
	BYTE		        100*end_game_map_mvl/mxv
	BYTE	W18
	BYTE		        100*end_game_map_mvl/mxv
	BYTE	W09
	BYTE		        100*end_game_map_mvl/mxv
	BYTE	W10
	BYTE		        100*end_game_map_mvl/mxv
	BYTE	W20
	BYTE	PEND
// 017   ----------------------------------------
end_game_map_8_017:
	BYTE		N92     As1   v088
	BYTE		N92     As2   v100
	BYTE	W09
	BYTE		VOL     100*end_game_map_mvl/mxv
	BYTE	W06
	BYTE		        100*end_game_map_mvl/mxv
	BYTE	W04
	BYTE		        100*end_game_map_mvl/mxv
	BYTE	W03
	BYTE		        100*end_game_map_mvl/mxv
	BYTE	W07
	BYTE		        100*end_game_map_mvl/mxv
	BYTE	W07
	BYTE		        100*end_game_map_mvl/mxv
	BYTE	W03
	BYTE		        100*end_game_map_mvl/mxv
	BYTE	W12
	BYTE		        100*end_game_map_mvl/mxv
	BYTE	W09
	BYTE		        100*end_game_map_mvl/mxv
	BYTE	W06
	BYTE		        100*end_game_map_mvl/mxv
	BYTE	W06
	BYTE		        100*end_game_map_mvl/mxv
	BYTE	W10
	BYTE		        100*end_game_map_mvl/mxv
	BYTE	W14
	BYTE	PEND
// 018   ----------------------------------------
end_game_map_8_018:
	BYTE		N92     Ds1   v088
	BYTE		N92     Ds2   v100
	BYTE	W12
	BYTE		VOL     100*end_game_map_mvl/mxv
	BYTE	W07
	BYTE		        100*end_game_map_mvl/mxv
	BYTE	W06
	BYTE		        100*end_game_map_mvl/mxv
	BYTE	W11
	BYTE		        100*end_game_map_mvl/mxv
	BYTE	W03
	BYTE		        100*end_game_map_mvl/mxv
	BYTE	W18
	BYTE		        100*end_game_map_mvl/mxv
	BYTE	W09
	BYTE		        100*end_game_map_mvl/mxv
	BYTE	W10
	BYTE		        100*end_game_map_mvl/mxv
	BYTE	W20
	BYTE	PEND
// 019   ----------------------------------------
	BYTE	PATT
	 POIN2	end_game_map_8_002
// 020   ----------------------------------------
	BYTE	PATT
	 POIN2	end_game_map_8_004
// 021   ----------------------------------------
	BYTE	PATT
	 POIN2	end_game_map_8_009
// 022   ----------------------------------------
	BYTE	PATT
	 POIN2	end_game_map_8_016
// 023   ----------------------------------------
	BYTE	PATT
	 POIN2	end_game_map_8_018
// 024   ----------------------------------------
	BYTE	PATT
	 POIN2	end_game_map_8_006
// 025   ----------------------------------------
end_game_map_8_025:
	BYTE		N44     Gn1   v092
	BYTE		N44     Gn2   v108
	BYTE	W48
	BYTE		        Fn1   v092
	BYTE		N44     Fn2   v104
	BYTE	W48
	BYTE	PEND
// 026   ----------------------------------------
end_game_map_8_026:
	BYTE		N92     Dn1   v088
	BYTE		N92     Dn2   v100
	BYTE	W09
	BYTE		VOL     100*end_game_map_mvl/mxv
	BYTE	W06
	BYTE		        100*end_game_map_mvl/mxv
	BYTE	W04
	BYTE		        100*end_game_map_mvl/mxv
	BYTE	W03
	BYTE		        100*end_game_map_mvl/mxv
	BYTE	W07
	BYTE		        100*end_game_map_mvl/mxv
	BYTE	W07
	BYTE		        100*end_game_map_mvl/mxv
	BYTE	W03
	BYTE		        100*end_game_map_mvl/mxv
	BYTE	W12
	BYTE		        100*end_game_map_mvl/mxv
	BYTE	W09
	BYTE		        100*end_game_map_mvl/mxv
	BYTE	W06
	BYTE		        100*end_game_map_mvl/mxv
	BYTE	W06
	BYTE		        100*end_game_map_mvl/mxv
	BYTE	W10
	BYTE		        100*end_game_map_mvl/mxv
	BYTE	W14
	BYTE	PEND
// 027   ----------------------------------------
	BYTE	PATT
	 POIN2	end_game_map_8_025
// 028   ----------------------------------------
end_game_map_8_028:
	BYTE		N44     Ds1   v092
	BYTE		N44     Ds2   v108
	BYTE	W48
	BYTE		        Dn1   v092
	BYTE		N44     Dn2   v104
	BYTE	W48
	BYTE	PEND
// 029   ----------------------------------------
	BYTE	PATT
	 POIN2	end_game_map_8_025
// 030   ----------------------------------------
	BYTE	PATT
	 POIN2	end_game_map_8_028
// 031   ----------------------------------------
	BYTE	PATT
	 POIN2	end_game_map_8_025
// 032   ----------------------------------------
	BYTE	PATT
	 POIN2	end_game_map_8_028
// 033   ----------------------------------------
	BYTE	PATT
	 POIN2	end_game_map_8_025
// 034   ----------------------------------------
	BYTE	PATT
	 POIN2	end_game_map_8_028
// 035   ----------------------------------------
end_game_map_8_035:
	BYTE		TIE     Dn1   v088
	BYTE		TIE     Dn2   v096
	BYTE	W18
	BYTE		VOL     100*end_game_map_mvl/mxv
	BYTE	W09
	BYTE		        100*end_game_map_mvl/mxv
	BYTE	W06
	BYTE		        100*end_game_map_mvl/mxv
	BYTE	W07
	BYTE		        100*end_game_map_mvl/mxv
	BYTE	W06
	BYTE		        100*end_game_map_mvl/mxv
	BYTE	W10
	BYTE		        100*end_game_map_mvl/mxv
	BYTE	W16
	BYTE		        100*end_game_map_mvl/mxv
	BYTE	W03
	BYTE		        100*end_game_map_mvl/mxv
	BYTE	W21
	BYTE	PEND
// 036   ----------------------------------------
end_game_map_8_036:
	BYTE	W07
	BYTE		VOL     100*end_game_map_mvl/mxv
	BYTE	W13
	BYTE		        100*end_game_map_mvl/mxv
	BYTE	W12
	BYTE		        100*end_game_map_mvl/mxv
	BYTE	W09
	BYTE		        100*end_game_map_mvl/mxv
	BYTE	W13
	BYTE		        100*end_game_map_mvl/mxv
	BYTE	W12
	BYTE		        100*end_game_map_mvl/mxv
	BYTE	W24
	BYTE	W03
	BYTE	PEND
	BYTE		EOT     Dn1 
	BYTE		        Dn2 
	BYTE	W03
// 037   ----------------------------------------
end_game_map_8_037:
	BYTE		TIE     Gn1   v088
	BYTE		TIE     Gn2   v100
	BYTE	W18
	BYTE		VOL     100*end_game_map_mvl/mxv
	BYTE	W09
	BYTE		        100*end_game_map_mvl/mxv
	BYTE	W06
	BYTE		        100*end_game_map_mvl/mxv
	BYTE	W07
	BYTE		        100*end_game_map_mvl/mxv
	BYTE	W06
	BYTE		        100*end_game_map_mvl/mxv
	BYTE	W10
	BYTE		        100*end_game_map_mvl/mxv
	BYTE	W16
	BYTE		        100*end_game_map_mvl/mxv
	BYTE	W03
	BYTE		        100*end_game_map_mvl/mxv
	BYTE	W21
	BYTE	PEND
// 038   ----------------------------------------
	BYTE	PATT
	 POIN2	end_game_map_8_036
	BYTE		EOT     Gn1 
	BYTE		        Gn2 
	BYTE	W03
// 039   ----------------------------------------
end_game_map_8_039:
	BYTE		N92     Cn2   v088
	BYTE		N92     Cn3   v100
	BYTE	W12
	BYTE		VOL     100*end_game_map_mvl/mxv
	BYTE	W07
	BYTE		        100*end_game_map_mvl/mxv
	BYTE	W06
	BYTE		        100*end_game_map_mvl/mxv
	BYTE	W11
	BYTE		        100*end_game_map_mvl/mxv
	BYTE	W03
	BYTE		        100*end_game_map_mvl/mxv
	BYTE	W18
	BYTE		        100*end_game_map_mvl/mxv
	BYTE	W09
	BYTE		        100*end_game_map_mvl/mxv
	BYTE	W10
	BYTE		        100*end_game_map_mvl/mxv
	BYTE	W20
	BYTE	PEND
// 040   ----------------------------------------
	BYTE	PATT
	 POIN2	end_game_map_8_016
// 041   ----------------------------------------
end_game_map_8_041:
	BYTE		N92     As1   v088
	BYTE		N92     As2   v100
	BYTE	W12
	BYTE		VOL     100*end_game_map_mvl/mxv
	BYTE	W07
	BYTE		        100*end_game_map_mvl/mxv
	BYTE	W06
	BYTE		        100*end_game_map_mvl/mxv
	BYTE	W11
	BYTE		        100*end_game_map_mvl/mxv
	BYTE	W03
	BYTE		        100*end_game_map_mvl/mxv
	BYTE	W18
	BYTE		        100*end_game_map_mvl/mxv
	BYTE	W09
	BYTE		        100*end_game_map_mvl/mxv
	BYTE	W10
	BYTE		        100*end_game_map_mvl/mxv
	BYTE	W20
	BYTE	PEND
// 042   ----------------------------------------
	BYTE	PATT
	 POIN2	end_game_map_8_015
// 043   ----------------------------------------
end_game_map_8_043:
	BYTE		TIE     Dn1   v088
	BYTE		TIE     Dn2   v100
	BYTE	W18
	BYTE		VOL     100*end_game_map_mvl/mxv
	BYTE	W09
	BYTE		        100*end_game_map_mvl/mxv
	BYTE	W06
	BYTE		        100*end_game_map_mvl/mxv
	BYTE	W07
	BYTE		        100*end_game_map_mvl/mxv
	BYTE	W06
	BYTE		        100*end_game_map_mvl/mxv
	BYTE	W10
	BYTE		        100*end_game_map_mvl/mxv
	BYTE	W16
	BYTE		        100*end_game_map_mvl/mxv
	BYTE	W03
	BYTE		        100*end_game_map_mvl/mxv
	BYTE	W21
	BYTE	PEND
// 044   ----------------------------------------
	BYTE	PATT
	 POIN2	end_game_map_8_036
	BYTE		EOT     Dn1 
	BYTE		        Dn2 
	BYTE	W03
// 045   ----------------------------------------
	BYTE	PATT
	 POIN2	end_game_map_8_037
// 046   ----------------------------------------
	BYTE	PATT
	 POIN2	end_game_map_8_036
	BYTE		EOT     Gn1 
	BYTE		        Gn2 
	BYTE	W03
// 047   ----------------------------------------
end_game_map_8_047:
	BYTE		N92     Bn1   v088
	BYTE		N92     Bn2   v100
	BYTE	W09
	BYTE		VOL     100*end_game_map_mvl/mxv
	BYTE	W06
	BYTE		        100*end_game_map_mvl/mxv
	BYTE	W04
	BYTE		        100*end_game_map_mvl/mxv
	BYTE	W03
	BYTE		        100*end_game_map_mvl/mxv
	BYTE	W07
	BYTE		        100*end_game_map_mvl/mxv
	BYTE	W07
	BYTE		        100*end_game_map_mvl/mxv
	BYTE	W03
	BYTE		        100*end_game_map_mvl/mxv
	BYTE	W12
	BYTE		        100*end_game_map_mvl/mxv
	BYTE	W09
	BYTE		        100*end_game_map_mvl/mxv
	BYTE	W06
	BYTE		        100*end_game_map_mvl/mxv
	BYTE	W06
	BYTE		        100*end_game_map_mvl/mxv
	BYTE	W10
	BYTE		        100*end_game_map_mvl/mxv
	BYTE	W14
	BYTE	PEND
// 048   ----------------------------------------
	BYTE	PATT
	 POIN2	end_game_map_8_007
// 049   ----------------------------------------
end_game_map_8_049:
	BYTE		TIE     An1   v088
	BYTE		TIE     An2   v100
	BYTE	W18
	BYTE		VOL     100*end_game_map_mvl/mxv
	BYTE	W09
	BYTE		        100*end_game_map_mvl/mxv
	BYTE	W06
	BYTE		        100*end_game_map_mvl/mxv
	BYTE	W07
	BYTE		        100*end_game_map_mvl/mxv
	BYTE	W06
	BYTE		        100*end_game_map_mvl/mxv
	BYTE	W10
	BYTE		        100*end_game_map_mvl/mxv
	BYTE	W16
	BYTE		        100*end_game_map_mvl/mxv
	BYTE	W03
	BYTE		        100*end_game_map_mvl/mxv
	BYTE	W21
	BYTE	PEND
// 050   ----------------------------------------
	BYTE	PATT
	 POIN2	end_game_map_8_036
	BYTE		EOT     An1 
	BYTE		        An2 
	BYTE	W03
// 051   ----------------------------------------
	BYTE	PATT
	 POIN2	end_game_map_8_016
// 052   ----------------------------------------
end_game_map_8_052:
	BYTE		N92     Gn1   v088
	BYTE		N92     Gn2   v100
	BYTE	W12
	BYTE		VOL     100*end_game_map_mvl/mxv
	BYTE	W07
	BYTE		        100*end_game_map_mvl/mxv
	BYTE	W06
	BYTE		        100*end_game_map_mvl/mxv
	BYTE	W11
	BYTE		        100*end_game_map_mvl/mxv
	BYTE	W03
	BYTE		        100*end_game_map_mvl/mxv
	BYTE	W18
	BYTE		        100*end_game_map_mvl/mxv
	BYTE	W09
	BYTE		        100*end_game_map_mvl/mxv
	BYTE	W10
	BYTE		        100*end_game_map_mvl/mxv
	BYTE	W20
	BYTE	PEND
// 053   ----------------------------------------
end_game_map_8_053:
	BYTE		TIE     Gs1   v088
	BYTE		TIE     Gs2   v100
	BYTE	W18
	BYTE		VOL     100*end_game_map_mvl/mxv
	BYTE	W09
	BYTE		        100*end_game_map_mvl/mxv
	BYTE	W06
	BYTE		        100*end_game_map_mvl/mxv
	BYTE	W07
	BYTE		        100*end_game_map_mvl/mxv
	BYTE	W06
	BYTE		        100*end_game_map_mvl/mxv
	BYTE	W10
	BYTE		        100*end_game_map_mvl/mxv
	BYTE	W16
	BYTE		        100*end_game_map_mvl/mxv
	BYTE	W03
	BYTE		        100*end_game_map_mvl/mxv
	BYTE	W21
	BYTE	PEND
// 054   ----------------------------------------
	BYTE	PATT
	 POIN2	end_game_map_8_036
	BYTE		EOT     Gs1 
	BYTE		        Gs2 
	BYTE	W03
// 055   ----------------------------------------
end_game_map_8_055:
	BYTE		N92     An1   v088
	BYTE		N92     An2   v100
	BYTE	W09
	BYTE		VOL     100*end_game_map_mvl/mxv
	BYTE	W06
	BYTE		        100*end_game_map_mvl/mxv
	BYTE	W04
	BYTE		        100*end_game_map_mvl/mxv
	BYTE	W03
	BYTE		        100*end_game_map_mvl/mxv
	BYTE	W07
	BYTE		        100*end_game_map_mvl/mxv
	BYTE	W07
	BYTE		        100*end_game_map_mvl/mxv
	BYTE	W03
	BYTE		        100*end_game_map_mvl/mxv
	BYTE	W12
	BYTE		        100*end_game_map_mvl/mxv
	BYTE	W09
	BYTE		        100*end_game_map_mvl/mxv
	BYTE	W06
	BYTE		        100*end_game_map_mvl/mxv
	BYTE	W06
	BYTE		        100*end_game_map_mvl/mxv
	BYTE	W10
	BYTE		        100*end_game_map_mvl/mxv
	BYTE	W14
	BYTE	PEND
// 056   ----------------------------------------
	BYTE	PATT
	 POIN2	end_game_map_8_017
// 057   ----------------------------------------
end_game_map_8_057:
	BYTE		TIE     Cs2   v088
	BYTE		TIE     Cs3   v100
	BYTE	W18
	BYTE		VOL     100*end_game_map_mvl/mxv
	BYTE	W09
	BYTE		        100*end_game_map_mvl/mxv
	BYTE	W06
	BYTE		        100*end_game_map_mvl/mxv
	BYTE	W07
	BYTE		        100*end_game_map_mvl/mxv
	BYTE	W06
	BYTE		        100*end_game_map_mvl/mxv
	BYTE	W10
	BYTE		        100*end_game_map_mvl/mxv
	BYTE	W16
	BYTE		        100*end_game_map_mvl/mxv
	BYTE	W03
	BYTE		        100*end_game_map_mvl/mxv
	BYTE	W21
	BYTE	PEND
// 058   ----------------------------------------
	BYTE	PATT
	 POIN2	end_game_map_8_036
	BYTE		EOT     Cs2 
	BYTE		        Cs3 
	BYTE	W03
// 059   ----------------------------------------
	BYTE	PATT
	 POIN2	end_game_map_8_016
// 060   ----------------------------------------
	BYTE	PATT
	 POIN2	end_game_map_8_004
// 061   ----------------------------------------
	BYTE	PATT
	 POIN2	end_game_map_8_053
// 062   ----------------------------------------
	BYTE	PATT
	 POIN2	end_game_map_8_036
	BYTE		EOT     Gs1 
	BYTE		        Gs2 
	BYTE	W03
// 063   ----------------------------------------
end_game_map_8_063:
	BYTE		N92     An1   v088
	BYTE		N92     An2   v100
	BYTE	W12
	BYTE		VOL     100*end_game_map_mvl/mxv
	BYTE	W07
	BYTE		        100*end_game_map_mvl/mxv
	BYTE	W06
	BYTE		        100*end_game_map_mvl/mxv
	BYTE	W11
	BYTE		        100*end_game_map_mvl/mxv
	BYTE	W03
	BYTE		        100*end_game_map_mvl/mxv
	BYTE	W18
	BYTE		        100*end_game_map_mvl/mxv
	BYTE	W09
	BYTE		        100*end_game_map_mvl/mxv
	BYTE	W10
	BYTE		        100*end_game_map_mvl/mxv
	BYTE	W20
	BYTE	PEND
// 064   ----------------------------------------
	BYTE	PATT
	 POIN2	end_game_map_8_017
// 065   ----------------------------------------
	BYTE	PATT
	 POIN2	end_game_map_8_057
// 066   ----------------------------------------
	BYTE	PATT
	 POIN2	end_game_map_8_036
	BYTE		EOT     Cs2 
	BYTE		        Cs3 
	BYTE	W03
// 067   ----------------------------------------
	BYTE	PATT
	 POIN2	end_game_map_8_025
// 068   ----------------------------------------
	BYTE	PATT
	 POIN2	end_game_map_8_028
// 069   ----------------------------------------
	BYTE	PATT
	 POIN2	end_game_map_8_025
// 070   ----------------------------------------
	BYTE	PATT
	 POIN2	end_game_map_8_028
// 071   ----------------------------------------
	BYTE	PATT
	 POIN2	end_game_map_8_025
// 072   ----------------------------------------
	BYTE	PATT
	 POIN2	end_game_map_8_028
// 073   ----------------------------------------
	BYTE	PATT
	 POIN2	end_game_map_8_025
// 074   ----------------------------------------
	BYTE	PATT
	 POIN2	end_game_map_8_028
// 075   ----------------------------------------
	BYTE	PATT
	 POIN2	end_game_map_8_004
// 076   ----------------------------------------
	BYTE	PATT
	 POIN2	end_game_map_8_005
// 077   ----------------------------------------
	BYTE	PATT
	 POIN2	end_game_map_8_006
// 078   ----------------------------------------
	BYTE	PATT
	 POIN2	end_game_map_8_007
// 079   ----------------------------------------
	BYTE	PATT
	 POIN2	end_game_map_8_004
// 080   ----------------------------------------
	BYTE	PATT
	 POIN2	end_game_map_8_009
// 081   ----------------------------------------
	BYTE	PATT
	 POIN2	end_game_map_8_006
// 082   ----------------------------------------
	BYTE	PATT
	 POIN2	end_game_map_8_007
// 083   ----------------------------------------
	BYTE	PATT
	 POIN2	end_game_map_8_004
// 084   ----------------------------------------
	BYTE	PATT
	 POIN2	end_game_map_8_009
// 085   ----------------------------------------
	BYTE	PATT
	 POIN2	end_game_map_8_006
// 086   ----------------------------------------
	BYTE	PATT
	 POIN2	end_game_map_8_015
// 087   ----------------------------------------
	BYTE	PATT
	 POIN2	end_game_map_8_016
// 088   ----------------------------------------
	BYTE	PATT
	 POIN2	end_game_map_8_017
// 089   ----------------------------------------
	BYTE	PATT
	 POIN2	end_game_map_8_018
// 090   ----------------------------------------
	BYTE	PATT
	 POIN2	end_game_map_8_002
// 091   ----------------------------------------
	BYTE	PATT
	 POIN2	end_game_map_8_004
// 092   ----------------------------------------
	BYTE	PATT
	 POIN2	end_game_map_8_009
// 093   ----------------------------------------
	BYTE	PATT
	 POIN2	end_game_map_8_016
// 094   ----------------------------------------
	BYTE	PATT
	 POIN2	end_game_map_8_018
// 095   ----------------------------------------
	BYTE	PATT
	 POIN2	end_game_map_8_006
// 096   ----------------------------------------
	BYTE	PATT
	 POIN2	end_game_map_8_025
// 097   ----------------------------------------
	BYTE	PATT
	 POIN2	end_game_map_8_026
// 098   ----------------------------------------
	BYTE	PATT
	 POIN2	end_game_map_8_025
// 099   ----------------------------------------
	BYTE	PATT
	 POIN2	end_game_map_8_028
// 100   ----------------------------------------
	BYTE	PATT
	 POIN2	end_game_map_8_025
// 101   ----------------------------------------
	BYTE	PATT
	 POIN2	end_game_map_8_028
// 102   ----------------------------------------
	BYTE	PATT
	 POIN2	end_game_map_8_025
// 103   ----------------------------------------
	BYTE	PATT
	 POIN2	end_game_map_8_028
// 104   ----------------------------------------
	BYTE	PATT
	 POIN2	end_game_map_8_025
// 105   ----------------------------------------
	BYTE	PATT
	 POIN2	end_game_map_8_028
// 106   ----------------------------------------
	BYTE	PATT
	 POIN2	end_game_map_8_035
// 107   ----------------------------------------
	BYTE	PATT
	 POIN2	end_game_map_8_036
	BYTE		EOT     Dn1 
	BYTE		        Dn2 
	BYTE	W03
// 108   ----------------------------------------
	BYTE	PATT
	 POIN2	end_game_map_8_037
// 109   ----------------------------------------
	BYTE	PATT
	 POIN2	end_game_map_8_036
	BYTE		EOT     Gn1 
	BYTE		        Gn2 
	BYTE	W03
// 110   ----------------------------------------
	BYTE	PATT
	 POIN2	end_game_map_8_039
// 111   ----------------------------------------
	BYTE	PATT
	 POIN2	end_game_map_8_016
// 112   ----------------------------------------
	BYTE	PATT
	 POIN2	end_game_map_8_041
// 113   ----------------------------------------
	BYTE	PATT
	 POIN2	end_game_map_8_015
// 114   ----------------------------------------
	BYTE	PATT
	 POIN2	end_game_map_8_043
// 115   ----------------------------------------
	BYTE	PATT
	 POIN2	end_game_map_8_036
	BYTE		EOT     Dn1 
	BYTE		        Dn2 
	BYTE	W03
// 116   ----------------------------------------
	BYTE	PATT
	 POIN2	end_game_map_8_037
// 117   ----------------------------------------
	BYTE	PATT
	 POIN2	end_game_map_8_036
	BYTE		EOT     Gn1 
	BYTE		        Gn2 
	BYTE	W03
// 118   ----------------------------------------
	BYTE	PATT
	 POIN2	end_game_map_8_047
// 119   ----------------------------------------
	BYTE	PATT
	 POIN2	end_game_map_8_007
// 120   ----------------------------------------
	BYTE	PATT
	 POIN2	end_game_map_8_049
// 121   ----------------------------------------
	BYTE	PATT
	 POIN2	end_game_map_8_036
	BYTE		EOT     An1 
	BYTE		        An2 
	BYTE	W03
// 122   ----------------------------------------
	BYTE	PATT
	 POIN2	end_game_map_8_016
// 123   ----------------------------------------
	BYTE	PATT
	 POIN2	end_game_map_8_052
// 124   ----------------------------------------
	BYTE	PATT
	 POIN2	end_game_map_8_053
// 125   ----------------------------------------
	BYTE	PATT
	 POIN2	end_game_map_8_036
	BYTE		EOT     Gs1 
	BYTE		        Gs2 
	BYTE	W03
// 126   ----------------------------------------
	BYTE	PATT
	 POIN2	end_game_map_8_055
// 127   ----------------------------------------
	BYTE	PATT
	 POIN2	end_game_map_8_017
// 128   ----------------------------------------
	BYTE	PATT
	 POIN2	end_game_map_8_057
// 129   ----------------------------------------
	BYTE	PATT
	 POIN2	end_game_map_8_036
	BYTE		EOT     Cs2 
	BYTE		        Cs3 
	BYTE	W03
// 130   ----------------------------------------
	BYTE	PATT
	 POIN2	end_game_map_8_016
// 131   ----------------------------------------
	BYTE	PATT
	 POIN2	end_game_map_8_004
// 132   ----------------------------------------
	BYTE	PATT
	 POIN2	end_game_map_8_053
// 133   ----------------------------------------
	BYTE	PATT
	 POIN2	end_game_map_8_036
	BYTE		EOT     Gs1 
	BYTE		        Gs2 
	BYTE	W03
// 134   ----------------------------------------
	BYTE	PATT
	 POIN2	end_game_map_8_063
// 135   ----------------------------------------
	BYTE	PATT
	 POIN2	end_game_map_8_017
// 136   ----------------------------------------
	BYTE	PATT
	 POIN2	end_game_map_8_057
// 137   ----------------------------------------
	BYTE	PATT
	 POIN2	end_game_map_8_036
	BYTE		EOT     Cs2 
	BYTE		        Cs3 
	BYTE	W03
// 138   ----------------------------------------
	BYTE	PATT
	 POIN2	end_game_map_8_025
// 139   ----------------------------------------
	BYTE	PATT
	 POIN2	end_game_map_8_028
// 140   ----------------------------------------
	BYTE	PATT
	 POIN2	end_game_map_8_025
// 141   ----------------------------------------
	BYTE	PATT
	 POIN2	end_game_map_8_028
// 142   ----------------------------------------
	BYTE	PATT
	 POIN2	end_game_map_8_025
// 143   ----------------------------------------
	BYTE	PATT
	 POIN2	end_game_map_8_028
// 144   ----------------------------------------
	BYTE	PATT
	 POIN2	end_game_map_8_025
// 145   ----------------------------------------
	BYTE		N44     Ds1   v092
	BYTE		N44     Ds2   v108
	BYTE	W48
	BYTE		        Dn1   v092
	BYTE		N44     Dn2   v104
	BYTE	W44
	BYTE	W03
	BYTE	FINE

//**************** Track 9 (Midi-Chn.8) ****************//

end_game_map_9:
	BYTE	KEYSH   end_game_map_key+0
// 000   ----------------------------------------
	BYTE		VOICE   46
	BYTE		VOL     100*end_game_map_mvl/mxv
	BYTE		PAN     c_v+36
	BYTE		VOL     100*end_game_map_mvl/mxv
	BYTE	W96
// 001   ----------------------------------------
	BYTE	W96
// 002   ----------------------------------------
	BYTE	W96
// 003   ----------------------------------------
	BYTE	W96
// 004   ----------------------------------------
end_game_map_9_004:
	BYTE		N10     Gn3   v080
	BYTE	W12
	BYTE		N16     Gn4   v076
	BYTE	W18
	BYTE		N04     Gn3 
	BYTE	W06
	BYTE		N09     Dn4 
	BYTE	W12
	BYTE		N04     As3   v080
	BYTE	W06
	BYTE		        An3   v076
	BYTE	W06
	BYTE		        Gn3 
	BYTE	W06
	BYTE		        An3 
	BYTE	W06
	BYTE		        As3 
	BYTE	W06
	BYTE		        Cn4 
	BYTE	W06
	BYTE		        Dn4 
	BYTE	W05
	BYTE		        Gn4 
	BYTE	W07
	BYTE	PEND
// 005   ----------------------------------------
end_game_map_9_005:
	BYTE		N10     Fs3   v080
	BYTE	W12
	BYTE		N11     Fs4   v076
	BYTE	W12
	BYTE		N04     Gn4 
	BYTE	W06
	BYTE		        Fs3 
	BYTE	W06
	BYTE		N09     Dn4 
	BYTE	W12
	BYTE		N04     As3   v080
	BYTE	W06
	BYTE		        An3   v076
	BYTE	W06
	BYTE		        Fs3 
	BYTE	W06
	BYTE		        An3 
	BYTE	W06
	BYTE		        As3 
	BYTE	W06
	BYTE		        Cn4 
	BYTE	W06
	BYTE		        Dn4 
	BYTE	W05
	BYTE		        Fs4 
	BYTE	W07
	BYTE	PEND
// 006   ----------------------------------------
end_game_map_9_006:
	BYTE		N10     Fn3   v080
	BYTE	W12
	BYTE		N16     Fn4   v076
	BYTE	W18
	BYTE		N04     Fn3 
	BYTE	W06
	BYTE		N09     Dn4 
	BYTE	W12
	BYTE		N04     As3   v080
	BYTE	W06
	BYTE		        An3   v076
	BYTE	W06
	BYTE		        Fn3 
	BYTE	W06
	BYTE		        An3 
	BYTE	W06
	BYTE		        As3 
	BYTE	W06
	BYTE		        Cn4 
	BYTE	W06
	BYTE		        Dn4 
	BYTE	W05
	BYTE		        Fn4 
	BYTE	W07
	BYTE	PEND
// 007   ----------------------------------------
end_game_map_9_007:
	BYTE		N10     As4   v080
	BYTE	W12
	BYTE		N04     An4   v076
	BYTE	W06
	BYTE		N10     Gn4 
	BYTE	W12
	BYTE		N04     As4 
	BYTE	W06
	BYTE		N09     En4 
	BYTE	W12
	BYTE		N02     Dn4   v080
	BYTE	W03
	BYTE		        Ds4   v076
	BYTE	W03
	BYTE		N04     Dn5 
	BYTE	W06
	BYTE		N02     Cn4 
	BYTE	W03
	BYTE		        Ds4 
	BYTE	W03
	BYTE		N04     Cn5 
	BYTE	W06
	BYTE		N02     As3 
	BYTE	W03
	BYTE		        Ds4 
	BYTE	W03
	BYTE		N04     As4 
	BYTE	W06
	BYTE		N02     Cn4 
	BYTE	W03
	BYTE		        Ds4 
	BYTE	W02
	BYTE		N04     Cn5 
	BYTE	W07
	BYTE	PEND
// 008   ----------------------------------------
	BYTE	PATT
	 POIN2	end_game_map_9_004
// 009   ----------------------------------------
	BYTE	PATT
	 POIN2	end_game_map_9_005
// 010   ----------------------------------------
	BYTE	PATT
	 POIN2	end_game_map_9_006
// 011   ----------------------------------------
	BYTE	PATT
	 POIN2	end_game_map_9_007
// 012   ----------------------------------------
	BYTE	W96
// 013   ----------------------------------------
	BYTE	W96
// 014   ----------------------------------------
	BYTE	W96
// 015   ----------------------------------------
	BYTE	W96
// 016   ----------------------------------------
	BYTE	W96
// 017   ----------------------------------------
	BYTE	W96
// 018   ----------------------------------------
	BYTE	W96
// 019   ----------------------------------------
	BYTE	W96
// 020   ----------------------------------------
	BYTE	W96
// 021   ----------------------------------------
	BYTE	W96
// 022   ----------------------------------------
	BYTE	W96
// 023   ----------------------------------------
	BYTE	W96
// 024   ----------------------------------------
	BYTE	W96
// 025   ----------------------------------------
	BYTE	W96
// 026   ----------------------------------------
	BYTE	W96
// 027   ----------------------------------------
	BYTE	W96
// 028   ----------------------------------------
	BYTE	W96
// 029   ----------------------------------------
	BYTE	W96
// 030   ----------------------------------------
	BYTE	W96
// 031   ----------------------------------------
end_game_map_9_031:
	BYTE		N05     As4   v072
	BYTE		N05     Dn5   v084
	BYTE	W06
	BYTE		N09     As4   v068
	BYTE		N09     Dn5   v080
	BYTE	W12
	BYTE		N04     As4   v068
	BYTE		N04     Dn5   v084
	BYTE	W06
	BYTE		N09     Gn4   v068
	BYTE		N09     As4   v084
	BYTE	W12
	BYTE		N04     As4   v068
	BYTE		N04     Dn5   v084
	BYTE	W06
	BYTE		        Gn4   v068
	BYTE		N04     As4   v084
	BYTE	W06
	BYTE		        Dn4   v072
	BYTE		N04     Gn4   v084
	BYTE	W06
	BYTE		        Ds4   v068
	BYTE		N04     An4   v084
	BYTE	W06
	BYTE		        Fn4   v068
	BYTE		N04     As4   v084
	BYTE	W06
	BYTE		        Fn4   v068
	BYTE		N04     As4   v084
	BYTE	W06
	BYTE		        As4   v068
	BYTE		N04     Ds5   v084
	BYTE	W06
	BYTE		        An4   v068
	BYTE		N04     Dn5   v084
	BYTE	W06
	BYTE		        Gn4   v068
	BYTE		N04     Cn5   v084
	BYTE	W05
	BYTE		        Fn4   v068
	BYTE		N04     As4   v084
	BYTE	W07
	BYTE	PEND
// 032   ----------------------------------------
end_game_map_9_032:
	BYTE		N05     As4   v072
	BYTE		N05     Dn5   v088
	BYTE	W06
	BYTE		N09     Gn4   v068
	BYTE		N09     As4   v084
	BYTE	W12
	BYTE		N04     Gn4   v068
	BYTE		N04     As4   v084
	BYTE	W06
	BYTE		        As4   v068
	BYTE		N04     Dn5   v084
	BYTE	W06
	BYTE		        Gn4   v068
	BYTE		N04     As4   v084
	BYTE	W06
	BYTE		        Cs5   v068
	BYTE		N04     Fn5   v084
	BYTE	W06
	BYTE		N10     An4   v068
	BYTE		N10     Dn5   v084
	BYTE	W12
	BYTE		N09     Dn5   v068
	BYTE		N09     Fs5   v084
	BYTE	W12
	BYTE		N04     An4   v068
	BYTE		N04     Dn5   v084
	BYTE	W06
	BYTE		        Fs5   v068
	BYTE		N04     An5   v084
	BYTE	W06
	BYTE		        Dn5   v068
	BYTE		N04     Fs5   v084
	BYTE	W06
	BYTE		        Cn5   v068
	BYTE		N04     Ds5   v084
	BYTE	W05
	BYTE		        As4   v068
	BYTE		N04     Dn5   v084
	BYTE	W07
	BYTE	PEND
// 033   ----------------------------------------
	BYTE	PATT
	 POIN2	end_game_map_9_031
// 034   ----------------------------------------
	BYTE	PATT
	 POIN2	end_game_map_9_032
// 035   ----------------------------------------
end_game_map_9_035:
	BYTE		N10     Fs3   v080
	BYTE	W12
	BYTE		N09     Gn3   v076
	BYTE	W12
	BYTE		        An3 
	BYTE	W12
	BYTE		        Dn4 
	BYTE	W12
	BYTE		        Fs4   v080
	BYTE	W12
	BYTE		        An4   v076
	BYTE	W12
	BYTE		        Fs4 
	BYTE	W12
	BYTE		        Dn4 
	BYTE	W12
	BYTE	PEND
// 036   ----------------------------------------
	BYTE	PATT
	 POIN2	end_game_map_9_035
// 037   ----------------------------------------
end_game_map_9_037:
	BYTE		N10     Gn3   v080
	BYTE	W12
	BYTE		N09     An3   v076
	BYTE	W12
	BYTE		        As3 
	BYTE	W12
	BYTE		        Dn4 
	BYTE	W12
	BYTE		        Gn4   v080
	BYTE	W12
	BYTE		        As4   v076
	BYTE	W12
	BYTE		        Gn4 
	BYTE	W12
	BYTE		        Dn4 
	BYTE	W12
	BYTE	PEND
// 038   ----------------------------------------
	BYTE	PATT
	 POIN2	end_game_map_9_037
// 039   ----------------------------------------
	BYTE	PATT
	 POIN2	end_game_map_9_037
// 040   ----------------------------------------
end_game_map_9_040:
	BYTE		N05     Fn3   v080
	BYTE	W06
	BYTE		N04     Cn4   v076
	BYTE	W06
	BYTE		N09     Fn4 
	BYTE	W24
	BYTE		        Ds4 
	BYTE	W24
	BYTE		N04     Dn4 
	BYTE	W06
	BYTE		        Fn4 
	BYTE	W18
	BYTE		N09     Ds4 
	BYTE	W12
	BYTE	PEND
// 041   ----------------------------------------
end_game_map_9_041:
	BYTE		N10     Fn3   v080
	BYTE	W12
	BYTE		N09     Gn3   v076
	BYTE	W12
	BYTE		        An3 
	BYTE	W12
	BYTE		        Cn4 
	BYTE	W12
	BYTE		        Fn4   v080
	BYTE	W12
	BYTE		        An4   v076
	BYTE	W12
	BYTE		        Fn4 
	BYTE	W12
	BYTE		        Cn4 
	BYTE	W12
	BYTE	PEND
// 042   ----------------------------------------
	BYTE	PATT
	 POIN2	end_game_map_9_037
// 043   ----------------------------------------
	BYTE	PATT
	 POIN2	end_game_map_9_035
// 044   ----------------------------------------
	BYTE	PATT
	 POIN2	end_game_map_9_035
// 045   ----------------------------------------
	BYTE	PATT
	 POIN2	end_game_map_9_037
// 046   ----------------------------------------
	BYTE	PATT
	 POIN2	end_game_map_9_037
// 047   ----------------------------------------
end_game_map_9_047:
	BYTE		N05     Bn4   v080
	BYTE	W06
	BYTE		N04     Dn4   v076
	BYTE	W06
	BYTE		N09     Fs4 
	BYTE	W12
	BYTE		        Dn4 
	BYTE	W12
	BYTE		N04     Bn4 
	BYTE	W06
	BYTE		        Dn4 
	BYTE	W06
	BYTE		N09     Fs4   v080
	BYTE	W12
	BYTE		        Dn4   v076
	BYTE	W12
	BYTE		N04     Bn4 
	BYTE	W06
	BYTE		        Dn4 
	BYTE	W06
	BYTE		N09     Fs4 
	BYTE	W12
	BYTE	PEND
// 048   ----------------------------------------
end_game_map_9_048:
	BYTE	W06
	BYTE		N04     Bn3   v076
	BYTE	W06
	BYTE		N09     Fs4 
	BYTE	W24
	BYTE		        Dn4 
	BYTE	W24
	BYTE		N04     Bn3 
	BYTE	W06
	BYTE		        Gs4 
	BYTE	W18
	BYTE		        Dn4 
	BYTE	W05
	BYTE		        Fs4 
	BYTE	W07
	BYTE	PEND
// 049   ----------------------------------------
end_game_map_9_049:
	BYTE		N05     An4   v080
	BYTE	W06
	BYTE		N04     Cs4   v076
	BYTE	W06
	BYTE		N09     En4 
	BYTE	W12
	BYTE		        Cs4 
	BYTE	W12
	BYTE		N04     An4 
	BYTE	W06
	BYTE		        Cs4 
	BYTE	W06
	BYTE		N09     En4   v080
	BYTE	W12
	BYTE		        Cs4   v076
	BYTE	W12
	BYTE		N04     An4 
	BYTE	W06
	BYTE		        Cs4 
	BYTE	W06
	BYTE		N09     En4 
	BYTE	W12
	BYTE	PEND
// 050   ----------------------------------------
end_game_map_9_050:
	BYTE		N05     As4   v080
	BYTE	W06
	BYTE		N04     Cs4   v076
	BYTE	W06
	BYTE		N08     En4   v064
	BYTE	W12
	BYTE		N09   
	BYTE	W12
	BYTE		N04     As4   v076
	BYTE	W06
	BYTE		        En4 
	BYTE	W06
	BYTE		N02     En3   v080
	BYTE	W03
	BYTE		        Gn3   v076
	BYTE	W03
	BYTE		        As3 
	BYTE	W03
	BYTE		        Cs4 
	BYTE	W03
	BYTE		        Gn3 
	BYTE	W03
	BYTE		        As3 
	BYTE	W03
	BYTE		        Cs4 
	BYTE	W03
	BYTE		        En4 
	BYTE	W03
	BYTE		        As3 
	BYTE	W03
	BYTE		        Cs4 
	BYTE	W03
	BYTE		        En4 
	BYTE	W03
	BYTE		        Gn4 
	BYTE	W03
	BYTE		        Cs4 
	BYTE	W03
	BYTE		        En4 
	BYTE	W02
	BYTE		        Gn4 
	BYTE	W03
	BYTE		        As4 
	BYTE	W04
	BYTE	PEND
// 051   ----------------------------------------
end_game_map_9_051:
	BYTE		N10     Fn3   v080
	BYTE	W12
	BYTE		N16     Fn4   v076
	BYTE	W18
	BYTE		N04     Fn3 
	BYTE	W06
	BYTE		N09     Fn4 
	BYTE	W12
	BYTE		N04     Gs3   v080
	BYTE	W06
	BYTE		        Gn3   v076
	BYTE	W06
	BYTE		        Fn3 
	BYTE	W06
	BYTE		        Gn3 
	BYTE	W06
	BYTE		        Gs3 
	BYTE	W06
	BYTE		        As3 
	BYTE	W06
	BYTE		        Cn4 
	BYTE	W05
	BYTE		        Dn4 
	BYTE	W07
	BYTE	PEND
// 052   ----------------------------------------
	BYTE	PATT
	 POIN2	end_game_map_9_004
// 053   ----------------------------------------
end_game_map_9_053:
	BYTE		N05     Gn3   v080
	BYTE	W06
	BYTE		N09     Gn4   v076
	BYTE	W12
	BYTE		N04     Dn4 
	BYTE	W06
	BYTE		        Gn4 
	BYTE	W06
	BYTE		        Dn4 
	BYTE	W06
	BYTE		        Gn3 
	BYTE	W06
	BYTE		N10     Gn4 
	BYTE	W12
	BYTE		N04     Dn4 
	BYTE	W06
	BYTE		        An4 
	BYTE	W06
	BYTE		        Dn4 
	BYTE	W06
	BYTE		        Gn3 
	BYTE	W06
	BYTE		        Dn4 
	BYTE	W06
	BYTE		        Gn4 
	BYTE	W05
	BYTE		        An4 
	BYTE	W07
	BYTE	PEND
// 054   ----------------------------------------
end_game_map_9_054:
	BYTE		N10     As4   v080
	BYTE	W12
	BYTE		N04     Gs4   v076
	BYTE	W06
	BYTE		        Gn4 
	BYTE	W06
	BYTE		        Gs4 
	BYTE	W06
	BYTE		        Gn4 
	BYTE	W06
	BYTE		        Fn4 
	BYTE	W06
	BYTE		N10     Dn4 
	BYTE	W12
	BYTE		N04   
	BYTE	W06
	BYTE		        As3 
	BYTE	W06
	BYTE		        Dn4 
	BYTE	W06
	BYTE		        Gs3 
	BYTE	W06
	BYTE		        As3 
	BYTE	W06
	BYTE		        Dn4 
	BYTE	W05
	BYTE		        Gn4 
	BYTE	W07
	BYTE	PEND
// 055   ----------------------------------------
end_game_map_9_055:
	BYTE		N10     An3   v080
	BYTE	W12
	BYTE		N16     An4   v076
	BYTE	W18
	BYTE		N04     An3 
	BYTE	W06
	BYTE		N09     En4 
	BYTE	W12
	BYTE		N04     Cn4   v080
	BYTE	W06
	BYTE		        Bn3   v076
	BYTE	W06
	BYTE		        An3 
	BYTE	W06
	BYTE		        Bn3 
	BYTE	W06
	BYTE		        Cn4 
	BYTE	W06
	BYTE		        Dn4 
	BYTE	W06
	BYTE		        En4 
	BYTE	W05
	BYTE		        An4 
	BYTE	W07
	BYTE	PEND
// 056   ----------------------------------------
end_game_map_9_056:
	BYTE		N10     As3   v080
	BYTE	W12
	BYTE		N16     As4   v076
	BYTE	W18
	BYTE		N04     As3 
	BYTE	W06
	BYTE		N09     Fn4 
	BYTE	W12
	BYTE		N04     Cs4   v080
	BYTE	W06
	BYTE		        Cn4   v076
	BYTE	W06
	BYTE		        As3 
	BYTE	W06
	BYTE		        Cn4 
	BYTE	W06
	BYTE		        Cs4 
	BYTE	W06
	BYTE		        Ds4 
	BYTE	W06
	BYTE		        Fn4 
	BYTE	W05
	BYTE		        As4 
	BYTE	W07
	BYTE	PEND
// 057   ----------------------------------------
end_game_map_9_057:
	BYTE		N05     Bn3   v080
	BYTE	W06
	BYTE		N09     Bn4   v076
	BYTE	W12
	BYTE		N04     Fs4 
	BYTE	W06
	BYTE		        Cs5 
	BYTE	W06
	BYTE		        Fs4 
	BYTE	W06
	BYTE		        Bn3 
	BYTE	W06
	BYTE		N10     Bn4 
	BYTE	W12
	BYTE		N04     Fs4 
	BYTE	W06
	BYTE		        Cs5 
	BYTE	W06
	BYTE		        Fs4 
	BYTE	W06
	BYTE		        Bn3 
	BYTE	W06
	BYTE		        Fs4 
	BYTE	W06
	BYTE		        Bn4 
	BYTE	W05
	BYTE		        Cs5 
	BYTE	W07
	BYTE	PEND
// 058   ----------------------------------------
end_game_map_9_058:
	BYTE		N10     Ds5   v080
	BYTE	W12
	BYTE		N04     Cs5   v076
	BYTE	W06
	BYTE		        Bn4 
	BYTE	W06
	BYTE		        Cs5 
	BYTE	W06
	BYTE		        Bn4 
	BYTE	W06
	BYTE		        Gs4 
	BYTE	W06
	BYTE		N10     Fs4 
	BYTE	W12
	BYTE		N04   
	BYTE	W06
	BYTE		        Ds4 
	BYTE	W06
	BYTE		        Fs4 
	BYTE	W06
	BYTE		        Cs4 
	BYTE	W06
	BYTE		        Ds4 
	BYTE	W06
	BYTE		        Fs4 
	BYTE	W05
	BYTE		        Bn4 
	BYTE	W07
	BYTE	PEND
// 059   ----------------------------------------
	BYTE	PATT
	 POIN2	end_game_map_9_051
// 060   ----------------------------------------
	BYTE	PATT
	 POIN2	end_game_map_9_004
// 061   ----------------------------------------
	BYTE	PATT
	 POIN2	end_game_map_9_053
// 062   ----------------------------------------
	BYTE	PATT
	 POIN2	end_game_map_9_054
// 063   ----------------------------------------
	BYTE	PATT
	 POIN2	end_game_map_9_055
// 064   ----------------------------------------
	BYTE	PATT
	 POIN2	end_game_map_9_056
// 065   ----------------------------------------
	BYTE	PATT
	 POIN2	end_game_map_9_057
// 066   ----------------------------------------
	BYTE	PATT
	 POIN2	end_game_map_9_058
// 067   ----------------------------------------
	BYTE	PATT
	 POIN2	end_game_map_9_031
// 068   ----------------------------------------
	BYTE	PATT
	 POIN2	end_game_map_9_032
// 069   ----------------------------------------
	BYTE	PATT
	 POIN2	end_game_map_9_031
// 070   ----------------------------------------
	BYTE	PATT
	 POIN2	end_game_map_9_032
// 071   ----------------------------------------
	BYTE	PATT
	 POIN2	end_game_map_9_031
// 072   ----------------------------------------
	BYTE	PATT
	 POIN2	end_game_map_9_032
// 073   ----------------------------------------
	BYTE	PATT
	 POIN2	end_game_map_9_031
// 074   ----------------------------------------
	BYTE	PATT
	 POIN2	end_game_map_9_032
// 075   ----------------------------------------
	BYTE	PATT
	 POIN2	end_game_map_9_004
// 076   ----------------------------------------
	BYTE	PATT
	 POIN2	end_game_map_9_005
// 077   ----------------------------------------
	BYTE	PATT
	 POIN2	end_game_map_9_006
// 078   ----------------------------------------
	BYTE	PATT
	 POIN2	end_game_map_9_007
// 079   ----------------------------------------
	BYTE	PATT
	 POIN2	end_game_map_9_004
// 080   ----------------------------------------
	BYTE	PATT
	 POIN2	end_game_map_9_005
// 081   ----------------------------------------
	BYTE	PATT
	 POIN2	end_game_map_9_006
// 082   ----------------------------------------
	BYTE	PATT
	 POIN2	end_game_map_9_007
// 083   ----------------------------------------
	BYTE	W96
// 084   ----------------------------------------
	BYTE	W96
// 085   ----------------------------------------
	BYTE	W96
// 086   ----------------------------------------
	BYTE	W96
// 087   ----------------------------------------
	BYTE	W96
// 088   ----------------------------------------
	BYTE	W96
// 089   ----------------------------------------
	BYTE	W96
// 090   ----------------------------------------
	BYTE	W96
// 091   ----------------------------------------
	BYTE	W96
// 092   ----------------------------------------
	BYTE	W96
// 093   ----------------------------------------
	BYTE	W96
// 094   ----------------------------------------
	BYTE	W96
// 095   ----------------------------------------
	BYTE	W96
// 096   ----------------------------------------
	BYTE	W96
// 097   ----------------------------------------
	BYTE	W96
// 098   ----------------------------------------
	BYTE	W96
// 099   ----------------------------------------
	BYTE	W96
// 100   ----------------------------------------
	BYTE	W96
// 101   ----------------------------------------
	BYTE	W96
// 102   ----------------------------------------
	BYTE	PATT
	 POIN2	end_game_map_9_031
// 103   ----------------------------------------
	BYTE	PATT
	 POIN2	end_game_map_9_032
// 104   ----------------------------------------
	BYTE	PATT
	 POIN2	end_game_map_9_031
// 105   ----------------------------------------
	BYTE	PATT
	 POIN2	end_game_map_9_032
// 106   ----------------------------------------
	BYTE	PATT
	 POIN2	end_game_map_9_035
// 107   ----------------------------------------
	BYTE	PATT
	 POIN2	end_game_map_9_035
// 108   ----------------------------------------
	BYTE	PATT
	 POIN2	end_game_map_9_037
// 109   ----------------------------------------
	BYTE	PATT
	 POIN2	end_game_map_9_037
// 110   ----------------------------------------
	BYTE	PATT
	 POIN2	end_game_map_9_037
// 111   ----------------------------------------
	BYTE	PATT
	 POIN2	end_game_map_9_040
// 112   ----------------------------------------
	BYTE	PATT
	 POIN2	end_game_map_9_041
// 113   ----------------------------------------
	BYTE	PATT
	 POIN2	end_game_map_9_037
// 114   ----------------------------------------
	BYTE	PATT
	 POIN2	end_game_map_9_035
// 115   ----------------------------------------
	BYTE	PATT
	 POIN2	end_game_map_9_035
// 116   ----------------------------------------
	BYTE	PATT
	 POIN2	end_game_map_9_037
// 117   ----------------------------------------
	BYTE	PATT
	 POIN2	end_game_map_9_037
// 118   ----------------------------------------
	BYTE	PATT
	 POIN2	end_game_map_9_047
// 119   ----------------------------------------
	BYTE	PATT
	 POIN2	end_game_map_9_048
// 120   ----------------------------------------
	BYTE	PATT
	 POIN2	end_game_map_9_049
// 121   ----------------------------------------
	BYTE	PATT
	 POIN2	end_game_map_9_050
// 122   ----------------------------------------
	BYTE	PATT
	 POIN2	end_game_map_9_051
// 123   ----------------------------------------
	BYTE	PATT
	 POIN2	end_game_map_9_004
// 124   ----------------------------------------
	BYTE	PATT
	 POIN2	end_game_map_9_053
// 125   ----------------------------------------
	BYTE	PATT
	 POIN2	end_game_map_9_054
// 126   ----------------------------------------
	BYTE	PATT
	 POIN2	end_game_map_9_055
// 127   ----------------------------------------
	BYTE	PATT
	 POIN2	end_game_map_9_056
// 128   ----------------------------------------
	BYTE	PATT
	 POIN2	end_game_map_9_057
// 129   ----------------------------------------
	BYTE	PATT
	 POIN2	end_game_map_9_058
// 130   ----------------------------------------
	BYTE	PATT
	 POIN2	end_game_map_9_051
// 131   ----------------------------------------
	BYTE	PATT
	 POIN2	end_game_map_9_004
// 132   ----------------------------------------
	BYTE	PATT
	 POIN2	end_game_map_9_053
// 133   ----------------------------------------
	BYTE	PATT
	 POIN2	end_game_map_9_054
// 134   ----------------------------------------
	BYTE	PATT
	 POIN2	end_game_map_9_055
// 135   ----------------------------------------
	BYTE	PATT
	 POIN2	end_game_map_9_056
// 136   ----------------------------------------
	BYTE	PATT
	 POIN2	end_game_map_9_057
// 137   ----------------------------------------
	BYTE	PATT
	 POIN2	end_game_map_9_058
// 138   ----------------------------------------
	BYTE	PATT
	 POIN2	end_game_map_9_031
// 139   ----------------------------------------
	BYTE	PATT
	 POIN2	end_game_map_9_032
// 140   ----------------------------------------
	BYTE	PATT
	 POIN2	end_game_map_9_031
// 141   ----------------------------------------
	BYTE	PATT
	 POIN2	end_game_map_9_032
// 142   ----------------------------------------
	BYTE	PATT
	 POIN2	end_game_map_9_031
// 143   ----------------------------------------
	BYTE	PATT
	 POIN2	end_game_map_9_032
// 144   ----------------------------------------
	BYTE	PATT
	 POIN2	end_game_map_9_031
// 145   ----------------------------------------
	BYTE		N05     As4   v072
	BYTE		N05     Dn5   v088
	BYTE	W06
	BYTE		N09     Gn4   v068
	BYTE		N09     As4   v084
	BYTE	W12
	BYTE		N04     Gn4   v068
	BYTE		N04     As4   v084
	BYTE	W06
	BYTE		        As4   v068
	BYTE		N04     Dn5   v084
	BYTE	W06
	BYTE		        Gn4   v068
	BYTE		N04     As4   v084
	BYTE	W06
	BYTE		        Cs5   v068
	BYTE		N04     Fn5   v084
	BYTE	W06
	BYTE		N10     An4   v068
	BYTE		N10     Dn5   v084
	BYTE	W12
	BYTE		N09     Dn5   v068
	BYTE		N09     Fs5   v084
	BYTE	W12
	BYTE		N04     An4   v068
	BYTE		N04     Dn5   v084
	BYTE	W06
	BYTE		        Fs5   v068
	BYTE		N04     An5   v084
	BYTE	W06
	BYTE		        Dn5   v068
	BYTE		N04     Fs5   v084
	BYTE	W06
	BYTE		        Cn5   v068
	BYTE		N04     Ds5   v084
	BYTE	W05
	BYTE		        As4   v068
	BYTE		N04     Dn5   v084
	BYTE	W06
	BYTE	FINE

//**************** Track 10 (Midi-Chn.9) ****************//

end_game_map_10:
	BYTE	KEYSH   end_game_map_key+0
// 000   ----------------------------------------
	BYTE		VOICE   71
	BYTE		VOL     100*end_game_map_mvl/mxv
	BYTE		PAN     c_v+36
	BYTE		VOL     100*end_game_map_mvl/mxv
	BYTE	W06
	BYTE		N04     Cs3   v064
	BYTE	W06
	BYTE		        Dn3 
	BYTE	W06
	BYTE		        Cs3 
	BYTE	W06
	BYTE		        As3   v068
	BYTE	W06
	BYTE		        An3   v064
	BYTE	W06
	BYTE		        Gn3 
	BYTE	W06
	BYTE		        An3 
	BYTE	W06
	BYTE		        Gn3   v068
	BYTE	W06
	BYTE		        Fn3   v064
	BYTE	W06
	BYTE		        Gn3 
	BYTE	W06
	BYTE		        En3 
	BYTE	W06
	BYTE		        Dn3   v068
	BYTE	W06
	BYTE		        Cn3   v064
	BYTE	W06
	BYTE		        En3 
	BYTE	W05
	BYTE		        As3 
	BYTE	W07
// 001   ----------------------------------------
	BYTE		N05     Dn4   v072
	BYTE	W06
	BYTE		N04     Cs4   v064
	BYTE	W06
	BYTE		        An3 
	BYTE	W06
	BYTE		        Gn3 
	BYTE	W06
	BYTE		        Fn3   v068
	BYTE	W06
	BYTE		        En3   v064
	BYTE	W06
	BYTE		        Fn3 
	BYTE	W06
	BYTE		        Dn3 
	BYTE	W06
	BYTE		        En3   v068
	BYTE	W06
	BYTE		        Fn3   v064
	BYTE	W06
	BYTE		        Gn3 
	BYTE	W06
	BYTE		        As3 
	BYTE	W06
	BYTE		        Cs4   v068
	BYTE	W06
	BYTE		        Dn4   v064
	BYTE	W06
	BYTE		        Ds4 
	BYTE	W05
	BYTE		        Cn4 
	BYTE	W07
// 002   ----------------------------------------
	BYTE		N03     Dn4   v056
	BYTE	W04
	BYTE		N02     Ds4   v052
	BYTE	W02
	BYTE		        Dn4 
	BYTE	W03
	BYTE		        Ds4   v064
	BYTE	W03
	BYTE		        Dn4 
	BYTE	W03
	BYTE		        Ds4 
	BYTE	W03
	BYTE		        Dn4   v076
	BYTE	W03
	BYTE		        Ds4 
	BYTE	W03
	BYTE		        Dn4 
	BYTE	W03
	BYTE		        Ds4 
	BYTE	W03
	BYTE		        Dn4 
	BYTE	W03
	BYTE		        Ds4   v088
	BYTE	W03
	BYTE		        Dn4 
	BYTE	W03
	BYTE		        Ds4 
	BYTE	W03
	BYTE		        Dn4 
	BYTE	W03
	BYTE		        Ds4 
	BYTE	W03
	BYTE		        Dn4   v104
	BYTE	W03
	BYTE		        Ds4 
	BYTE	W03
	BYTE		        Dn4 
	BYTE	W03
	BYTE		        Ds4 
	BYTE	W03
	BYTE		        Dn4 
	BYTE	W03
	BYTE		        Ds4 
	BYTE	W03
	BYTE		        Dn4 
	BYTE	W03
	BYTE		        Ds4 
	BYTE	W03
	BYTE		        Dn4   v116
	BYTE	W03
	BYTE		        Ds4 
	BYTE	W03
	BYTE		        Dn4 
	BYTE	W03
	BYTE		        Ds4 
	BYTE	W03
	BYTE		        Dn4 
	BYTE	W03
	BYTE		        Ds4 
	BYTE	W02
	BYTE		        Dn4 
	BYTE	W03
	BYTE		        Ds4 
	BYTE	W04
// 003   ----------------------------------------
	BYTE	W96
// 004   ----------------------------------------
	BYTE	W96
// 005   ----------------------------------------
	BYTE	W96
// 006   ----------------------------------------
	BYTE	W96
// 007   ----------------------------------------
	BYTE	W96
// 008   ----------------------------------------
	BYTE	W96
// 009   ----------------------------------------
	BYTE	W96
// 010   ----------------------------------------
	BYTE	W96
// 011   ----------------------------------------
	BYTE	W96
// 012   ----------------------------------------
	BYTE	W96
// 013   ----------------------------------------
	BYTE	W96
// 014   ----------------------------------------
	BYTE	W96
// 015   ----------------------------------------
	BYTE	W96
// 016   ----------------------------------------
end_game_map_10_016:
	BYTE		N05     An2   v068
	BYTE	W06
	BYTE		N04     Gn2   v064
	BYTE	W06
	BYTE		        An2 
	BYTE	W06
	BYTE		        Fn3 
	BYTE	W06
	BYTE		        An3 
	BYTE	W06
	BYTE		        An2 
	BYTE	W06
	BYTE		        Gn3 
	BYTE	W06
	BYTE		        An2 
	BYTE	W06
	BYTE		        Fn3   v068
	BYTE	W06
	BYTE		        An2   v064
	BYTE	W06
	BYTE		        Ds3 
	BYTE	W06
	BYTE		        An2 
	BYTE	W06
	BYTE		        Dn3 
	BYTE	W06
	BYTE		        An2 
	BYTE	W06
	BYTE		        Fn3 
	BYTE	W05
	BYTE		        Ds3 
	BYTE	W07
	BYTE	PEND
// 017   ----------------------------------------
end_game_map_10_017:
	BYTE		N05     Dn4   v068
	BYTE	W06
	BYTE		N04     Cn4   v064
	BYTE	W06
	BYTE		        As3 
	BYTE	W06
	BYTE		        An3 
	BYTE	W06
	BYTE		        Fn3 
	BYTE	W06
	BYTE		        Ds3 
	BYTE	W06
	BYTE		        Fn3 
	BYTE	W06
	BYTE		        Dn3 
	BYTE	W06
	BYTE		        Ds3   v068
	BYTE	W06
	BYTE		        Fn3   v064
	BYTE	W06
	BYTE		        Gn3 
	BYTE	W06
	BYTE		        As3 
	BYTE	W06
	BYTE		        Cn4 
	BYTE	W06
	BYTE		        Dn4 
	BYTE	W06
	BYTE		        Fn4 
	BYTE	W05
	BYTE		        Dn4 
	BYTE	W07
	BYTE	PEND
// 018   ----------------------------------------
end_game_map_10_018:
	BYTE		N03     Dn4   v068
	BYTE	W04
	BYTE		N02     Ds4   v064
	BYTE	W02
	BYTE		        Dn4 
	BYTE	W03
	BYTE		        Ds4 
	BYTE	W03
	BYTE		        Dn4 
	BYTE	W03
	BYTE		        Ds4 
	BYTE	W03
	BYTE		        Dn4 
	BYTE	W03
	BYTE		        Ds4 
	BYTE	W03
	BYTE		        Dn4 
	BYTE	W03
	BYTE		        Ds4 
	BYTE	W03
	BYTE		        Dn4 
	BYTE	W03
	BYTE		        Ds4 
	BYTE	W03
	BYTE		        Dn4 
	BYTE	W03
	BYTE		        Ds4 
	BYTE	W03
	BYTE		        Dn4 
	BYTE	W03
	BYTE		        Ds4 
	BYTE	W03
	BYTE		        Dn4   v068
	BYTE	W03
	BYTE		        Ds4   v064
	BYTE	W03
	BYTE		        Dn4 
	BYTE	W03
	BYTE		        Ds4 
	BYTE	W03
	BYTE		        Dn4 
	BYTE	W03
	BYTE		        Ds4 
	BYTE	W03
	BYTE		        Dn4 
	BYTE	W03
	BYTE		        Ds4 
	BYTE	W03
	BYTE		N04     Dn4 
	BYTE	W06
	BYTE		        Cn4 
	BYTE	W06
	BYTE		        As3 
	BYTE	W05
	BYTE		        An3 
	BYTE	W07
	BYTE	PEND
// 019   ----------------------------------------
end_game_map_10_019:
	BYTE		N05     Fs3   v068
	BYTE	W06
	BYTE		N04     Gn3   v064
	BYTE	W06
	BYTE		        Dn4 
	BYTE	W06
	BYTE		        Dn3 
	BYTE	W06
	BYTE		        Ds3 
	BYTE	W06
	BYTE		        As3 
	BYTE	W06
	BYTE		        Cn3 
	BYTE	W06
	BYTE		        Dn3 
	BYTE	W06
	BYTE		        An3   v068
	BYTE	W06
	BYTE		        Gn3   v064
	BYTE	W06
	BYTE		        Fs3 
	BYTE	W06
	BYTE		        Ds3 
	BYTE	W06
	BYTE		        Dn3 
	BYTE	W06
	BYTE		        Cn3 
	BYTE	W06
	BYTE		        As2 
	BYTE	W05
	BYTE		        An2 
	BYTE	W07
	BYTE	PEND
// 020   ----------------------------------------
	BYTE	W96
// 021   ----------------------------------------
	BYTE	W96
// 022   ----------------------------------------
	BYTE	W96
// 023   ----------------------------------------
	BYTE	W96
// 024   ----------------------------------------
	BYTE	PATT
	 POIN2	end_game_map_10_016
// 025   ----------------------------------------
	BYTE	PATT
	 POIN2	end_game_map_10_017
// 026   ----------------------------------------
end_game_map_10_026:
	BYTE		N05     Fs3   v068
	BYTE	W06
	BYTE		N04     Gn3   v064
	BYTE	W06
	BYTE		        Dn4 
	BYTE	W06
	BYTE		        As3 
	BYTE	W06
	BYTE		        Ds3 
	BYTE	W06
	BYTE		        As3 
	BYTE	W06
	BYTE		        Cn3 
	BYTE	W06
	BYTE		        Dn3 
	BYTE	W06
	BYTE		        An3   v068
	BYTE	W06
	BYTE		        Gn3   v064
	BYTE	W06
	BYTE		        Fs3 
	BYTE	W06
	BYTE		        Ds3 
	BYTE	W06
	BYTE		        Dn3 
	BYTE	W06
	BYTE		        Cn3 
	BYTE	W06
	BYTE		        As2 
	BYTE	W05
	BYTE		        An2 
	BYTE	W07
	BYTE	PEND
// 027   ----------------------------------------
	BYTE	W96
// 028   ----------------------------------------
	BYTE	W96
// 029   ----------------------------------------
	BYTE	W96
// 030   ----------------------------------------
	BYTE	W96
// 031   ----------------------------------------
	BYTE	W96
// 032   ----------------------------------------
	BYTE	W96
// 033   ----------------------------------------
	BYTE	W96
// 034   ----------------------------------------
	BYTE	W96
// 035   ----------------------------------------
	BYTE	W96
// 036   ----------------------------------------
	BYTE	W96
// 037   ----------------------------------------
	BYTE	W96
// 038   ----------------------------------------
	BYTE	W96
// 039   ----------------------------------------
	BYTE	W96
// 040   ----------------------------------------
	BYTE	W96
// 041   ----------------------------------------
	BYTE	W96
// 042   ----------------------------------------
	BYTE	W96
// 043   ----------------------------------------
	BYTE	W96
// 044   ----------------------------------------
	BYTE	W96
// 045   ----------------------------------------
	BYTE	W96
// 046   ----------------------------------------
	BYTE	W96
// 047   ----------------------------------------
	BYTE	W96
// 048   ----------------------------------------
	BYTE	W96
// 049   ----------------------------------------
	BYTE	W96
// 050   ----------------------------------------
	BYTE	W96
// 051   ----------------------------------------
	BYTE	W96
// 052   ----------------------------------------
	BYTE	W96
// 053   ----------------------------------------
	BYTE	W96
// 054   ----------------------------------------
	BYTE	W96
// 055   ----------------------------------------
	BYTE	W96
// 056   ----------------------------------------
	BYTE	W96
// 057   ----------------------------------------
	BYTE	W96
// 058   ----------------------------------------
	BYTE	W96
// 059   ----------------------------------------
end_game_map_10_059:
	BYTE		N10     Cn3   v068
	BYTE	W12
	BYTE		N16     Cn4   v064
	BYTE	W18
	BYTE		N04     Cn3 
	BYTE	W06
	BYTE		N09     Gn3 
	BYTE	W12
	BYTE		N04     Ds3   v068
	BYTE	W06
	BYTE		        Dn3   v064
	BYTE	W06
	BYTE		        Cn3 
	BYTE	W06
	BYTE		        Dn3 
	BYTE	W06
	BYTE		        Ds3 
	BYTE	W06
	BYTE		        Fn3 
	BYTE	W06
	BYTE		        Gn3 
	BYTE	W05
	BYTE		        Cn4 
	BYTE	W07
	BYTE	PEND
// 060   ----------------------------------------
end_game_map_10_060:
	BYTE		N10     Dn3   v068
	BYTE	W12
	BYTE		N16     Dn4   v064
	BYTE	W18
	BYTE		N04     Dn3 
	BYTE	W06
	BYTE		N09     An3 
	BYTE	W12
	BYTE		N04     Fn3   v068
	BYTE	W06
	BYTE		        En3   v064
	BYTE	W06
	BYTE		        Dn3 
	BYTE	W06
	BYTE		        En3 
	BYTE	W06
	BYTE		        Fn3 
	BYTE	W06
	BYTE		        Gn3 
	BYTE	W06
	BYTE		        An3 
	BYTE	W05
	BYTE		        Dn4 
	BYTE	W07
	BYTE	PEND
// 061   ----------------------------------------
end_game_map_10_061:
	BYTE		N05     Dn3   v068
	BYTE	W06
	BYTE		N09     Dn4   v064
	BYTE	W12
	BYTE		N04     Gn3 
	BYTE	W06
	BYTE		        Fn4 
	BYTE	W06
	BYTE		        Gn3 
	BYTE	W06
	BYTE		        Dn3 
	BYTE	W06
	BYTE		N10     Dn4 
	BYTE	W12
	BYTE		N04     Dn3 
	BYTE	W06
	BYTE		        Fn4 
	BYTE	W06
	BYTE		        Gn3 
	BYTE	W06
	BYTE		        Dn3 
	BYTE	W06
	BYTE		        Gn3 
	BYTE	W06
	BYTE		        Dn4 
	BYTE	W05
	BYTE		        Gn4 
	BYTE	W07
	BYTE	PEND
// 062   ----------------------------------------
end_game_map_10_062:
	BYTE		N10     Gn4   v068
	BYTE	W12
	BYTE		N04     Fn4   v064
	BYTE	W06
	BYTE		        Dn4 
	BYTE	W06
	BYTE		        Fn4 
	BYTE	W06
	BYTE		        Dn4 
	BYTE	W06
	BYTE		        Bn3 
	BYTE	W06
	BYTE		N10     Gn3 
	BYTE	W12
	BYTE		N04   
	BYTE	W06
	BYTE		        Fn3 
	BYTE	W06
	BYTE		        Gn3 
	BYTE	W06
	BYTE		        Dn3 
	BYTE	W06
	BYTE		        Gn3 
	BYTE	W06
	BYTE		        An3 
	BYTE	W05
	BYTE		        Dn4 
	BYTE	W07
	BYTE	PEND
// 063   ----------------------------------------
end_game_map_10_063:
	BYTE		N10     En3   v068
	BYTE	W12
	BYTE		N16     En4   v064
	BYTE	W18
	BYTE		N04     En3 
	BYTE	W06
	BYTE		N09     Bn3 
	BYTE	W12
	BYTE		N04     Gn3   v068
	BYTE	W06
	BYTE		        Fs3   v064
	BYTE	W06
	BYTE		        En3 
	BYTE	W06
	BYTE		        Fs3 
	BYTE	W06
	BYTE		        Gn3 
	BYTE	W06
	BYTE		        An3 
	BYTE	W06
	BYTE		        Bn3 
	BYTE	W05
	BYTE		        En4 
	BYTE	W07
	BYTE	PEND
// 064   ----------------------------------------
end_game_map_10_064:
	BYTE		N10     Fn3   v068
	BYTE	W12
	BYTE		N16     Fn4   v064
	BYTE	W18
	BYTE		N04     Fn3 
	BYTE	W06
	BYTE		N09     Cn4 
	BYTE	W12
	BYTE		N04     Gs3   v068
	BYTE	W06
	BYTE		        Gn3   v064
	BYTE	W06
	BYTE		        Fn3 
	BYTE	W06
	BYTE		        Gn3 
	BYTE	W06
	BYTE		        Gs3 
	BYTE	W06
	BYTE		        As3 
	BYTE	W06
	BYTE		        Cn4 
	BYTE	W05
	BYTE		        Fn4 
	BYTE	W07
	BYTE	PEND
// 065   ----------------------------------------
end_game_map_10_065:
	BYTE		N05     Fs3   v068
	BYTE	W06
	BYTE		N09     Fs4   v064
	BYTE	W12
	BYTE		N04     Cs4 
	BYTE	W06
	BYTE		        Gs4 
	BYTE	W06
	BYTE		        Cs4 
	BYTE	W06
	BYTE		        Fs3 
	BYTE	W06
	BYTE		N10     Fs4 
	BYTE	W12
	BYTE		N04     Cs4 
	BYTE	W06
	BYTE		        Fs4 
	BYTE	W06
	BYTE		        Cs4 
	BYTE	W06
	BYTE		        Fs3 
	BYTE	W06
	BYTE		        Cs4 
	BYTE	W06
	BYTE		        Fs4 
	BYTE	W05
	BYTE		        An4 
	BYTE	W07
	BYTE	PEND
// 066   ----------------------------------------
end_game_map_10_066:
	BYTE		N10     As4   v068
	BYTE	W12
	BYTE		N04     Gs4   v064
	BYTE	W06
	BYTE		        Fs4 
	BYTE	W06
	BYTE		        Gs4 
	BYTE	W06
	BYTE		        Fs4 
	BYTE	W06
	BYTE		        Ds4 
	BYTE	W06
	BYTE		N10     Cs4 
	BYTE	W12
	BYTE		N04   
	BYTE	W06
	BYTE		        As3 
	BYTE	W06
	BYTE		        Cs4 
	BYTE	W06
	BYTE		        Gs3 
	BYTE	W06
	BYTE		        As3 
	BYTE	W06
	BYTE		        Cs4 
	BYTE	W05
	BYTE		        Fs4 
	BYTE	W07
	BYTE	PEND
// 067   ----------------------------------------
	BYTE	W96
// 068   ----------------------------------------
	BYTE	W96
// 069   ----------------------------------------
	BYTE	W96
// 070   ----------------------------------------
	BYTE	W96
// 071   ----------------------------------------
	BYTE	W96
// 072   ----------------------------------------
	BYTE	W96
// 073   ----------------------------------------
	BYTE	W96
// 074   ----------------------------------------
	BYTE	W96
// 075   ----------------------------------------
	BYTE	W96
// 076   ----------------------------------------
	BYTE	W96
// 077   ----------------------------------------
	BYTE	W96
// 078   ----------------------------------------
	BYTE	W96
// 079   ----------------------------------------
	BYTE	W96
// 080   ----------------------------------------
	BYTE	W96
// 081   ----------------------------------------
	BYTE	W96
// 082   ----------------------------------------
	BYTE	W96
// 083   ----------------------------------------
	BYTE	W96
// 084   ----------------------------------------
	BYTE	W96
// 085   ----------------------------------------
	BYTE	W96
// 086   ----------------------------------------
	BYTE	W96
// 087   ----------------------------------------
	BYTE	PATT
	 POIN2	end_game_map_10_016
// 088   ----------------------------------------
	BYTE	PATT
	 POIN2	end_game_map_10_017
// 089   ----------------------------------------
	BYTE	PATT
	 POIN2	end_game_map_10_018
// 090   ----------------------------------------
	BYTE	PATT
	 POIN2	end_game_map_10_019
// 091   ----------------------------------------
	BYTE	W96
// 092   ----------------------------------------
	BYTE	W96
// 093   ----------------------------------------
	BYTE	W96
// 094   ----------------------------------------
	BYTE	W96
// 095   ----------------------------------------
	BYTE	PATT
	 POIN2	end_game_map_10_016
// 096   ----------------------------------------
	BYTE	PATT
	 POIN2	end_game_map_10_017
// 097   ----------------------------------------
	BYTE	PATT
	 POIN2	end_game_map_10_026
// 098   ----------------------------------------
	BYTE	W96
// 099   ----------------------------------------
	BYTE	W96
// 100   ----------------------------------------
	BYTE	W96
// 101   ----------------------------------------
	BYTE	W96
// 102   ----------------------------------------
	BYTE	W96
// 103   ----------------------------------------
	BYTE	W96
// 104   ----------------------------------------
	BYTE	W96
// 105   ----------------------------------------
	BYTE	W96
// 106   ----------------------------------------
	BYTE	W96
// 107   ----------------------------------------
	BYTE	W96
// 108   ----------------------------------------
	BYTE	W96
// 109   ----------------------------------------
	BYTE	W96
// 110   ----------------------------------------
	BYTE	W96
// 111   ----------------------------------------
	BYTE	W96
// 112   ----------------------------------------
	BYTE	W96
// 113   ----------------------------------------
	BYTE	W96
// 114   ----------------------------------------
	BYTE	W96
// 115   ----------------------------------------
	BYTE	W96
// 116   ----------------------------------------
	BYTE	W96
// 117   ----------------------------------------
	BYTE	W96
// 118   ----------------------------------------
	BYTE	W96
// 119   ----------------------------------------
	BYTE	W96
// 120   ----------------------------------------
	BYTE	W96
// 121   ----------------------------------------
	BYTE	W96
// 122   ----------------------------------------
	BYTE	W96
// 123   ----------------------------------------
	BYTE	W96
// 124   ----------------------------------------
	BYTE	W96
// 125   ----------------------------------------
	BYTE	W96
// 126   ----------------------------------------
	BYTE	W96
// 127   ----------------------------------------
	BYTE	W96
// 128   ----------------------------------------
	BYTE	W96
// 129   ----------------------------------------
	BYTE	W96
// 130   ----------------------------------------
	BYTE	PATT
	 POIN2	end_game_map_10_059
// 131   ----------------------------------------
	BYTE	PATT
	 POIN2	end_game_map_10_060
// 132   ----------------------------------------
	BYTE	PATT
	 POIN2	end_game_map_10_061
// 133   ----------------------------------------
	BYTE	PATT
	 POIN2	end_game_map_10_062
// 134   ----------------------------------------
	BYTE	PATT
	 POIN2	end_game_map_10_063
// 135   ----------------------------------------
	BYTE	PATT
	 POIN2	end_game_map_10_064
// 136   ----------------------------------------
	BYTE	PATT
	 POIN2	end_game_map_10_065
// 137   ----------------------------------------
	BYTE	PATT
	 POIN2	end_game_map_10_066
// 138   ----------------------------------------
	BYTE	W96
// 139   ----------------------------------------
	BYTE	W96
// 140   ----------------------------------------
	BYTE	W96
// 141   ----------------------------------------
	BYTE	W96
// 142   ----------------------------------------
	BYTE	W96
// 143   ----------------------------------------
	BYTE	W96
// 144   ----------------------------------------
	BYTE	W96
// 145   ----------------------------------------
	BYTE	W92
	BYTE	W03
	BYTE	FINE

//**************** Track 11 (Midi-Chn.11) ****************//

end_game_map_11:
	BYTE	KEYSH   end_game_map_key+0
// 000   ----------------------------------------
	BYTE		VOICE   73
	BYTE		VOL     100*end_game_map_mvl/mxv
	BYTE		PAN     c_v+36
	BYTE		VOL     100*end_game_map_mvl/mxv
	BYTE	W96
// 001   ----------------------------------------
	BYTE	W96
// 002   ----------------------------------------
	BYTE	W96
// 003   ----------------------------------------
	BYTE	W96
// 004   ----------------------------------------
	BYTE	W96
// 005   ----------------------------------------
	BYTE	W96
// 006   ----------------------------------------
	BYTE	W96
// 007   ----------------------------------------
	BYTE	W48
	BYTE		        100*end_game_map_mvl/mxv
	BYTE	W48
// 008   ----------------------------------------
end_game_map_11_008:
	BYTE		N92     Gn3   v072
	BYTE	W05
	BYTE		VOL     100*end_game_map_mvl/mxv
	BYTE	W04
	BYTE		        100*end_game_map_mvl/mxv
	BYTE	W03
	BYTE		        100*end_game_map_mvl/mxv
	BYTE	W03
	BYTE		        100*end_game_map_mvl/mxv
	BYTE	W04
	BYTE		        100*end_game_map_mvl/mxv
	BYTE	W03
	BYTE		        100*end_game_map_mvl/mxv
	BYTE	W03
	BYTE		        100*end_game_map_mvl/mxv
	BYTE	W04
	BYTE		        100*end_game_map_mvl/mxv
	BYTE	W03
	BYTE		        100*end_game_map_mvl/mxv
	BYTE	W04
	BYTE		        100*end_game_map_mvl/mxv
	BYTE	W03
	BYTE		        100*end_game_map_mvl/mxv
	BYTE	W09
	BYTE		        100*end_game_map_mvl/mxv
	BYTE	W06
	BYTE		        100*end_game_map_mvl/mxv
	BYTE	W03
	BYTE		        100*end_game_map_mvl/mxv
	BYTE	W06
	BYTE		        100*end_game_map_mvl/mxv
	BYTE	W03
	BYTE		        100*end_game_map_mvl/mxv
	BYTE	W03
	BYTE		        100*end_game_map_mvl/mxv
	BYTE	W07
	BYTE		        100*end_game_map_mvl/mxv
	BYTE	W03
	BYTE		        100*end_game_map_mvl/mxv
	BYTE	W06
	BYTE		        100*end_game_map_mvl/mxv
	BYTE	W11
	BYTE	PEND
// 009   ----------------------------------------
end_game_map_11_009:
	BYTE		N44     Fs3   v076
	BYTE	W48
	BYTE		N21     Dn3   v072
	BYTE	W24
	BYTE		        En3 
	BYTE	W24
	BYTE	PEND
// 010   ----------------------------------------
end_game_map_11_010:
	BYTE		N68     Fn3   v072
	BYTE	W09
	BYTE		VOL     100*end_game_map_mvl/mxv
	BYTE	W03
	BYTE		        100*end_game_map_mvl/mxv
	BYTE	W03
	BYTE		        100*end_game_map_mvl/mxv
	BYTE	W03
	BYTE		        100*end_game_map_mvl/mxv
	BYTE	W04
	BYTE		        100*end_game_map_mvl/mxv
	BYTE	W03
	BYTE		        100*end_game_map_mvl/mxv
	BYTE	W03
	BYTE		        100*end_game_map_mvl/mxv
	BYTE	W07
	BYTE		        100*end_game_map_mvl/mxv
	BYTE	W03
	BYTE		        100*end_game_map_mvl/mxv
	BYTE	W07
	BYTE		        100*end_game_map_mvl/mxv
	BYTE	W03
	BYTE		        100*end_game_map_mvl/mxv
	BYTE	W03
	BYTE		        100*end_game_map_mvl/mxv
	BYTE	W03
	BYTE		        100*end_game_map_mvl/mxv
	BYTE	W04
	BYTE		        100*end_game_map_mvl/mxv
	BYTE	W03
	BYTE		        100*end_game_map_mvl/mxv
	BYTE	W03
	BYTE		        100*end_game_map_mvl/mxv
	BYTE	W08
	BYTE		N21     Gn3 
	BYTE	W24
	BYTE	PEND
// 011   ----------------------------------------
end_game_map_11_011:
	BYTE		N92     En3   v072
	BYTE	W09
	BYTE		VOL     100*end_game_map_mvl/mxv
	BYTE	W03
	BYTE		        100*end_game_map_mvl/mxv
	BYTE	W03
	BYTE		        100*end_game_map_mvl/mxv
	BYTE	W04
	BYTE		        100*end_game_map_mvl/mxv
	BYTE	W03
	BYTE		        100*end_game_map_mvl/mxv
	BYTE	W03
	BYTE		        100*end_game_map_mvl/mxv
	BYTE	W04
	BYTE		        100*end_game_map_mvl/mxv
	BYTE	W07
	BYTE		        100*end_game_map_mvl/mxv
	BYTE	W03
	BYTE		        100*end_game_map_mvl/mxv
	BYTE	W12
	BYTE		        100*end_game_map_mvl/mxv
	BYTE	W06
	BYTE		        100*end_game_map_mvl/mxv
	BYTE	W03
	BYTE		        100*end_game_map_mvl/mxv
	BYTE	W06
	BYTE		        100*end_game_map_mvl/mxv
	BYTE	W06
	BYTE		        100*end_game_map_mvl/mxv
	BYTE	W04
	BYTE		        100*end_game_map_mvl/mxv
	BYTE	W06
	BYTE		        100*end_game_map_mvl/mxv
	BYTE	W14
	BYTE	PEND
// 012   ----------------------------------------
end_game_map_11_012:
	BYTE		N16     Dn4   v076
	BYTE	W18
	BYTE		N15     Gn4   v072
	BYTE	W18
	BYTE		N04     Fs4 
	BYTE	W06
	BYTE		        Gn4 
	BYTE	W06
	BYTE		N21     Dn4 
	BYTE	W24
	BYTE		        Gn4 
	BYTE	W24
	BYTE	PEND
// 013   ----------------------------------------
end_game_map_11_013:
	BYTE		N16     Dn4   v076
	BYTE	W18
	BYTE		N15     Gn4   v072
	BYTE	W18
	BYTE		N04     Fs4 
	BYTE	W06
	BYTE		        Gn4 
	BYTE	W06
	BYTE		N21     An4 
	BYTE	W24
	BYTE		        Cn5 
	BYTE	W24
	BYTE	PEND
// 014   ----------------------------------------
end_game_map_11_014:
	BYTE		N16     Dn4   v076
	BYTE	W18
	BYTE		N15     Gn4   v072
	BYTE	W18
	BYTE		N04     As4 
	BYTE	W06
	BYTE		        Cn5 
	BYTE	W06
	BYTE		N21     Dn5 
	BYTE	W24
	BYTE		        Fn4 
	BYTE	W24
	BYTE	PEND
// 015   ----------------------------------------
end_game_map_11_015:
	BYTE		N22     Gn4   v076
	BYTE	W24
	BYTE		N09     Dn5   v072
	BYTE	W12
	BYTE		        Cn5 
	BYTE	W24
	BYTE		        As4 
	BYTE	W24
	BYTE		        An4 
	BYTE	W12
	BYTE	PEND
// 016   ----------------------------------------
end_game_map_11_016:
	BYTE		N22     Fn4   v076
	BYTE	W24
	BYTE		N09     Ds5   v072
	BYTE	W12
	BYTE		        Dn5 
	BYTE	W24
	BYTE		        Fn5 
	BYTE	W24
	BYTE		N32     Dn5 
	BYTE	W12
	BYTE	PEND
// 017   ----------------------------------------
end_game_map_11_017:
	BYTE	W24
	BYTE		N09     Cn5   v072
	BYTE	W12
	BYTE		        As4 
	BYTE	W24
	BYTE		        Dn5 
	BYTE	W24
	BYTE		        Fn4 
	BYTE	W12
	BYTE	PEND
// 018   ----------------------------------------
end_game_map_11_018:
	BYTE		N22     An4   v076
	BYTE	W24
	BYTE		N09     As4   v072
	BYTE	W12
	BYTE		        An4 
	BYTE	W24
	BYTE		        Gn4 
	BYTE	W12
	BYTE		        Ds4 
	BYTE	W12
	BYTE		        Dn4 
	BYTE	W12
	BYTE	PEND
// 019   ----------------------------------------
end_game_map_11_019:
	BYTE	W44
	BYTE	W03
	BYTE		VOL     100*end_game_map_mvl/mxv
	BYTE	W48
	BYTE	W01
	BYTE	PEND
// 020   ----------------------------------------
	BYTE	W96
// 021   ----------------------------------------
	BYTE	W96
// 022   ----------------------------------------
	BYTE	W96
// 023   ----------------------------------------
	BYTE	W96
// 024   ----------------------------------------
	BYTE	W96
// 025   ----------------------------------------
	BYTE	W96
// 026   ----------------------------------------
	BYTE	W96
// 027   ----------------------------------------
	BYTE	W96
// 028   ----------------------------------------
	BYTE	W96
// 029   ----------------------------------------
	BYTE	W96
// 030   ----------------------------------------
	BYTE	W96
// 031   ----------------------------------------
	BYTE	W96
// 032   ----------------------------------------
	BYTE	W96
// 033   ----------------------------------------
	BYTE	W96
// 034   ----------------------------------------
	BYTE	W96
// 035   ----------------------------------------
end_game_map_11_035:
	BYTE		N10     Fs3   v072
	BYTE	W12
	BYTE		N09     Gn3   v064
	BYTE	W12
	BYTE		        An3   v068
	BYTE	W12
	BYTE		        Dn4   v064
	BYTE	W12
	BYTE		        Fs4   v068
	BYTE	W12
	BYTE		        An4   v064
	BYTE	W12
	BYTE		        Fs4   v068
	BYTE	W12
	BYTE		        Dn4   v064
	BYTE	W12
	BYTE	PEND
// 036   ----------------------------------------
	BYTE	PATT
	 POIN2	end_game_map_11_035
// 037   ----------------------------------------
end_game_map_11_037:
	BYTE		N10     Gn3   v072
	BYTE	W12
	BYTE		N09     An3   v064
	BYTE	W12
	BYTE		        As3   v068
	BYTE	W12
	BYTE		        Dn4   v064
	BYTE	W12
	BYTE		        Gn4   v068
	BYTE	W12
	BYTE		        As4   v064
	BYTE	W12
	BYTE		        Gn4   v068
	BYTE	W12
	BYTE		        Dn4   v064
	BYTE	W12
	BYTE	PEND
// 038   ----------------------------------------
	BYTE	PATT
	 POIN2	end_game_map_11_037
// 039   ----------------------------------------
	BYTE	PATT
	 POIN2	end_game_map_11_037
// 040   ----------------------------------------
end_game_map_11_040:
	BYTE		N05     Fn3   v072
	BYTE	W06
	BYTE		N04     Cn4   v064
	BYTE	W06
	BYTE		N09     Fn4 
	BYTE	W24
	BYTE		        Ds4 
	BYTE	W24
	BYTE		N04     Dn4 
	BYTE	W06
	BYTE		        Fn4 
	BYTE	W18
	BYTE		N09     Ds4 
	BYTE	W12
	BYTE	PEND
// 041   ----------------------------------------
end_game_map_11_041:
	BYTE		N10     Fn3   v072
	BYTE	W12
	BYTE		N09     Gn3   v064
	BYTE	W12
	BYTE		        An3   v068
	BYTE	W12
	BYTE		        Cn4   v064
	BYTE	W12
	BYTE		        Fn4   v068
	BYTE	W12
	BYTE		        An4   v064
	BYTE	W12
	BYTE		        Fn4   v068
	BYTE	W12
	BYTE		        Cn4   v064
	BYTE	W12
	BYTE	PEND
// 042   ----------------------------------------
	BYTE	PATT
	 POIN2	end_game_map_11_037
// 043   ----------------------------------------
	BYTE	PATT
	 POIN2	end_game_map_11_035
// 044   ----------------------------------------
	BYTE	PATT
	 POIN2	end_game_map_11_035
// 045   ----------------------------------------
	BYTE	PATT
	 POIN2	end_game_map_11_037
// 046   ----------------------------------------
	BYTE	PATT
	 POIN2	end_game_map_11_037
// 047   ----------------------------------------
end_game_map_11_047:
	BYTE		N05     Bn4   v072
	BYTE	W06
	BYTE		N04     Dn4   v064
	BYTE	W06
	BYTE		N09     Fs4 
	BYTE	W12
	BYTE		        Dn4   v068
	BYTE	W12
	BYTE		N04     Bn4   v064
	BYTE	W06
	BYTE		        Dn4 
	BYTE	W06
	BYTE		N09     Fs4   v068
	BYTE	W12
	BYTE		        Dn4   v064
	BYTE	W12
	BYTE		N04     Bn4   v068
	BYTE	W06
	BYTE		        Dn4   v064
	BYTE	W06
	BYTE		N09     Fs4 
	BYTE	W12
	BYTE	PEND
// 048   ----------------------------------------
end_game_map_11_048:
	BYTE	W06
	BYTE		N04     Bn3   v064
	BYTE	W06
	BYTE		N09     Fs4 
	BYTE	W24
	BYTE		        Dn4 
	BYTE	W24
	BYTE		N04     Bn3 
	BYTE	W06
	BYTE		        Gs4 
	BYTE	W18
	BYTE		        Dn4 
	BYTE	W05
	BYTE		        Fs4 
	BYTE	W07
	BYTE	PEND
// 049   ----------------------------------------
end_game_map_11_049:
	BYTE		N05     An4   v072
	BYTE	W06
	BYTE		N04     Cs4   v064
	BYTE	W06
	BYTE		N09     En4 
	BYTE	W12
	BYTE		        Cs4   v068
	BYTE	W12
	BYTE		N04     An4   v064
	BYTE	W06
	BYTE		        Cs4 
	BYTE	W06
	BYTE		N09     En4   v068
	BYTE	W12
	BYTE		        Cs4   v064
	BYTE	W12
	BYTE		N04     An4   v068
	BYTE	W06
	BYTE		        Cs4   v064
	BYTE	W06
	BYTE		N09     En4 
	BYTE	W12
	BYTE	PEND
// 050   ----------------------------------------
end_game_map_11_050:
	BYTE		N05     As4   v072
	BYTE	W06
	BYTE		N04     Cs4   v064
	BYTE	W06
	BYTE		N08     En4   v052
	BYTE	W12
	BYTE		N09     En4   v056
	BYTE	W12
	BYTE		N04     As4   v064
	BYTE	W06
	BYTE		        En4 
	BYTE	W54
	BYTE	PEND
// 051   ----------------------------------------
end_game_map_11_051:
	BYTE		N10     Fn3   v072
	BYTE	W12
	BYTE		N16     Fn4   v064
	BYTE	W18
	BYTE		N04     Fn3 
	BYTE	W06
	BYTE		N09     Fn4 
	BYTE	W12
	BYTE		N04     Gs3   v068
	BYTE	W06
	BYTE		        Gn3   v064
	BYTE	W06
	BYTE		        Fn3 
	BYTE	W06
	BYTE		        Gn3 
	BYTE	W06
	BYTE		        Gs3   v068
	BYTE	W06
	BYTE		        As3   v064
	BYTE	W06
	BYTE		        Cn4 
	BYTE	W05
	BYTE		        Dn4 
	BYTE	W07
	BYTE	PEND
// 052   ----------------------------------------
end_game_map_11_052:
	BYTE		N10     Gn3   v072
	BYTE	W12
	BYTE		N16     Gn4   v064
	BYTE	W18
	BYTE		N04     Gn3 
	BYTE	W06
	BYTE		N09     Dn4 
	BYTE	W12
	BYTE		N04     As3   v068
	BYTE	W06
	BYTE		        An3   v064
	BYTE	W06
	BYTE		        Gn3 
	BYTE	W06
	BYTE		        An3 
	BYTE	W06
	BYTE		        As3   v068
	BYTE	W06
	BYTE		        Cn4   v064
	BYTE	W06
	BYTE		        Dn4 
	BYTE	W05
	BYTE		        Gn4 
	BYTE	W07
	BYTE	PEND
// 053   ----------------------------------------
end_game_map_11_053:
	BYTE		N05     Gn3   v072
	BYTE	W06
	BYTE		N09     Gn4   v064
	BYTE	W12
	BYTE		N04     Dn4 
	BYTE	W06
	BYTE		        Gn4   v068
	BYTE	W06
	BYTE		        Dn4   v064
	BYTE	W06
	BYTE		        Gn3 
	BYTE	W06
	BYTE		N10     Gn4 
	BYTE	W12
	BYTE		N04     Dn4 
	BYTE	W06
	BYTE		        An4 
	BYTE	W06
	BYTE		        Dn4 
	BYTE	W06
	BYTE		        Gn3   v068
	BYTE	W06
	BYTE		        Dn4   v064
	BYTE	W06
	BYTE		        Gn4 
	BYTE	W05
	BYTE		        An4 
	BYTE	W07
	BYTE	PEND
// 054   ----------------------------------------
end_game_map_11_054:
	BYTE		N10     As4   v072
	BYTE	W12
	BYTE		N04     Gs4   v064
	BYTE	W06
	BYTE		        Gn4 
	BYTE	W06
	BYTE		        Gs4   v068
	BYTE	W06
	BYTE		        Gn4   v064
	BYTE	W06
	BYTE		        Fn4 
	BYTE	W06
	BYTE		N10     Dn4 
	BYTE	W12
	BYTE		N04   
	BYTE	W06
	BYTE		        As3 
	BYTE	W06
	BYTE		        Dn4 
	BYTE	W06
	BYTE		        Gs3   v068
	BYTE	W06
	BYTE		        As3   v064
	BYTE	W06
	BYTE		        Dn4 
	BYTE	W05
	BYTE		        Gn4 
	BYTE	W07
	BYTE	PEND
// 055   ----------------------------------------
end_game_map_11_055:
	BYTE		N10     An3   v072
	BYTE	W12
	BYTE		N16     An4   v064
	BYTE	W18
	BYTE		N04     An3 
	BYTE	W06
	BYTE		N09     En4 
	BYTE	W12
	BYTE		N04     Cn4   v068
	BYTE	W06
	BYTE		        Bn3   v064
	BYTE	W06
	BYTE		        An3 
	BYTE	W06
	BYTE		        Bn3 
	BYTE	W06
	BYTE		        Cn4   v068
	BYTE	W06
	BYTE		        Dn4   v064
	BYTE	W06
	BYTE		        En4 
	BYTE	W05
	BYTE		        An4 
	BYTE	W07
	BYTE	PEND
// 056   ----------------------------------------
end_game_map_11_056:
	BYTE		N10     As3   v072
	BYTE	W12
	BYTE		N16     As4   v064
	BYTE	W18
	BYTE		N04     As3 
	BYTE	W06
	BYTE		N09     Fn4 
	BYTE	W12
	BYTE		N04     Cs4   v068
	BYTE	W06
	BYTE		        Cn4   v064
	BYTE	W06
	BYTE		        As3 
	BYTE	W06
	BYTE		        Cn4 
	BYTE	W06
	BYTE		        Cs4   v068
	BYTE	W06
	BYTE		        Ds4   v064
	BYTE	W06
	BYTE		        Fn4 
	BYTE	W05
	BYTE		        As4 
	BYTE	W07
	BYTE	PEND
// 057   ----------------------------------------
end_game_map_11_057:
	BYTE		N05     Bn3   v072
	BYTE	W06
	BYTE		N09     Bn4   v064
	BYTE	W12
	BYTE		N04     Fs4 
	BYTE	W06
	BYTE		        Cs5   v068
	BYTE	W06
	BYTE		        Fs4   v064
	BYTE	W06
	BYTE		        Bn3 
	BYTE	W06
	BYTE		N10     Bn4 
	BYTE	W12
	BYTE		N04     Fs4 
	BYTE	W06
	BYTE		        Cs5 
	BYTE	W06
	BYTE		        Fs4 
	BYTE	W06
	BYTE		        Bn3   v068
	BYTE	W06
	BYTE		        Fs4   v064
	BYTE	W06
	BYTE		        Bn4 
	BYTE	W05
	BYTE		        Cs5 
	BYTE	W07
	BYTE	PEND
// 058   ----------------------------------------
end_game_map_11_058:
	BYTE		N10     Ds5   v072
	BYTE	W12
	BYTE		N04     Cs5   v064
	BYTE	W06
	BYTE		        Bn4 
	BYTE	W06
	BYTE		        Cs5   v068
	BYTE	W06
	BYTE		        Bn4   v064
	BYTE	W06
	BYTE		        Gs4 
	BYTE	W06
	BYTE		N10     Fs4 
	BYTE	W12
	BYTE		N04   
	BYTE	W06
	BYTE		        Ds4 
	BYTE	W06
	BYTE		        Fs4 
	BYTE	W06
	BYTE		        Cs4   v068
	BYTE	W06
	BYTE		        Ds4   v064
	BYTE	W06
	BYTE		        Fs4 
	BYTE	W05
	BYTE		        Bn4 
	BYTE	W07
	BYTE	PEND
// 059   ----------------------------------------
	BYTE	PATT
	 POIN2	end_game_map_11_051
// 060   ----------------------------------------
	BYTE	PATT
	 POIN2	end_game_map_11_052
// 061   ----------------------------------------
	BYTE	PATT
	 POIN2	end_game_map_11_053
// 062   ----------------------------------------
	BYTE	PATT
	 POIN2	end_game_map_11_054
// 063   ----------------------------------------
	BYTE	PATT
	 POIN2	end_game_map_11_055
// 064   ----------------------------------------
	BYTE	PATT
	 POIN2	end_game_map_11_056
// 065   ----------------------------------------
	BYTE	PATT
	 POIN2	end_game_map_11_057
// 066   ----------------------------------------
	BYTE	PATT
	 POIN2	end_game_map_11_058
// 067   ----------------------------------------
end_game_map_11_067:
	BYTE		N09     Gn3   v060
	BYTE	W12
	BYTE		        Gn3   v052
	BYTE	W36
	BYTE		N08     Gn3   v056
	BYTE	W12
	BYTE		N09     Gn3   v052
	BYTE	W36
	BYTE	PEND
// 068   ----------------------------------------
end_game_map_11_068:
	BYTE		N09     Gn3   v060
	BYTE	W12
	BYTE		        Gn3   v052
	BYTE	W36
	BYTE		        An3   v068
	BYTE	W12
	BYTE		        Fs3   v064
	BYTE	W36
	BYTE	PEND
// 069   ----------------------------------------
	BYTE	PATT
	 POIN2	end_game_map_11_067
// 070   ----------------------------------------
	BYTE	PATT
	 POIN2	end_game_map_11_068
// 071   ----------------------------------------
	BYTE	PATT
	 POIN2	end_game_map_11_067
// 072   ----------------------------------------
	BYTE	PATT
	 POIN2	end_game_map_11_068
// 073   ----------------------------------------
	BYTE	PATT
	 POIN2	end_game_map_11_067
// 074   ----------------------------------------
	BYTE	PATT
	 POIN2	end_game_map_11_068
// 075   ----------------------------------------
	BYTE	W96
// 076   ----------------------------------------
	BYTE	W96
// 077   ----------------------------------------
	BYTE	W96
// 078   ----------------------------------------
	BYTE	W48
	BYTE		VOL     100*end_game_map_mvl/mxv
	BYTE	W48
// 079   ----------------------------------------
	BYTE	PATT
	 POIN2	end_game_map_11_008
// 080   ----------------------------------------
	BYTE	PATT
	 POIN2	end_game_map_11_009
// 081   ----------------------------------------
	BYTE	PATT
	 POIN2	end_game_map_11_010
// 082   ----------------------------------------
	BYTE	PATT
	 POIN2	end_game_map_11_011
// 083   ----------------------------------------
	BYTE	PATT
	 POIN2	end_game_map_11_012
// 084   ----------------------------------------
	BYTE	PATT
	 POIN2	end_game_map_11_013
// 085   ----------------------------------------
	BYTE	PATT
	 POIN2	end_game_map_11_014
// 086   ----------------------------------------
	BYTE	PATT
	 POIN2	end_game_map_11_015
// 087   ----------------------------------------
	BYTE	PATT
	 POIN2	end_game_map_11_016
// 088   ----------------------------------------
	BYTE	PATT
	 POIN2	end_game_map_11_017
// 089   ----------------------------------------
	BYTE	PATT
	 POIN2	end_game_map_11_018
// 090   ----------------------------------------
	BYTE	PATT
	 POIN2	end_game_map_11_019
// 091   ----------------------------------------
	BYTE	W96
// 092   ----------------------------------------
	BYTE	W96
// 093   ----------------------------------------
	BYTE	W96
// 094   ----------------------------------------
	BYTE	W96
// 095   ----------------------------------------
	BYTE	W96
// 096   ----------------------------------------
	BYTE	W96
// 097   ----------------------------------------
	BYTE	W96
// 098   ----------------------------------------
	BYTE	W96
// 099   ----------------------------------------
	BYTE	W96
// 100   ----------------------------------------
	BYTE	W96
// 101   ----------------------------------------
	BYTE	W96
// 102   ----------------------------------------
	BYTE	W96
// 103   ----------------------------------------
	BYTE	W96
// 104   ----------------------------------------
	BYTE	W96
// 105   ----------------------------------------
	BYTE	W96
// 106   ----------------------------------------
	BYTE	PATT
	 POIN2	end_game_map_11_035
// 107   ----------------------------------------
	BYTE	PATT
	 POIN2	end_game_map_11_035
// 108   ----------------------------------------
	BYTE	PATT
	 POIN2	end_game_map_11_037
// 109   ----------------------------------------
	BYTE	PATT
	 POIN2	end_game_map_11_037
// 110   ----------------------------------------
	BYTE	PATT
	 POIN2	end_game_map_11_037
// 111   ----------------------------------------
	BYTE	PATT
	 POIN2	end_game_map_11_040
// 112   ----------------------------------------
	BYTE	PATT
	 POIN2	end_game_map_11_041
// 113   ----------------------------------------
	BYTE	PATT
	 POIN2	end_game_map_11_037
// 114   ----------------------------------------
	BYTE	PATT
	 POIN2	end_game_map_11_035
// 115   ----------------------------------------
	BYTE	PATT
	 POIN2	end_game_map_11_035
// 116   ----------------------------------------
	BYTE	PATT
	 POIN2	end_game_map_11_037
// 117   ----------------------------------------
	BYTE	PATT
	 POIN2	end_game_map_11_037
// 118   ----------------------------------------
	BYTE	PATT
	 POIN2	end_game_map_11_047
// 119   ----------------------------------------
	BYTE	PATT
	 POIN2	end_game_map_11_048
// 120   ----------------------------------------
	BYTE	PATT
	 POIN2	end_game_map_11_049
// 121   ----------------------------------------
	BYTE	PATT
	 POIN2	end_game_map_11_050
// 122   ----------------------------------------
	BYTE	PATT
	 POIN2	end_game_map_11_051
// 123   ----------------------------------------
	BYTE	PATT
	 POIN2	end_game_map_11_052
// 124   ----------------------------------------
	BYTE	PATT
	 POIN2	end_game_map_11_053
// 125   ----------------------------------------
	BYTE	PATT
	 POIN2	end_game_map_11_054
// 126   ----------------------------------------
	BYTE	PATT
	 POIN2	end_game_map_11_055
// 127   ----------------------------------------
	BYTE	PATT
	 POIN2	end_game_map_11_056
// 128   ----------------------------------------
	BYTE	PATT
	 POIN2	end_game_map_11_057
// 129   ----------------------------------------
	BYTE	PATT
	 POIN2	end_game_map_11_058
// 130   ----------------------------------------
	BYTE	PATT
	 POIN2	end_game_map_11_051
// 131   ----------------------------------------
	BYTE	PATT
	 POIN2	end_game_map_11_052
// 132   ----------------------------------------
	BYTE	PATT
	 POIN2	end_game_map_11_053
// 133   ----------------------------------------
	BYTE	PATT
	 POIN2	end_game_map_11_054
// 134   ----------------------------------------
	BYTE	PATT
	 POIN2	end_game_map_11_055
// 135   ----------------------------------------
	BYTE	PATT
	 POIN2	end_game_map_11_056
// 136   ----------------------------------------
	BYTE	PATT
	 POIN2	end_game_map_11_057
// 137   ----------------------------------------
	BYTE	PATT
	 POIN2	end_game_map_11_058
// 138   ----------------------------------------
	BYTE	PATT
	 POIN2	end_game_map_11_067
// 139   ----------------------------------------
	BYTE	PATT
	 POIN2	end_game_map_11_068
// 140   ----------------------------------------
	BYTE	PATT
	 POIN2	end_game_map_11_067
// 141   ----------------------------------------
	BYTE	PATT
	 POIN2	end_game_map_11_068
// 142   ----------------------------------------
	BYTE	PATT
	 POIN2	end_game_map_11_067
// 143   ----------------------------------------
	BYTE	PATT
	 POIN2	end_game_map_11_068
// 144   ----------------------------------------
	BYTE	PATT
	 POIN2	end_game_map_11_067
// 145   ----------------------------------------
	BYTE		N09     Gn3   v060
	BYTE	W12
	BYTE		        Gn3   v052
	BYTE	W36
	BYTE		        An3   v068
	BYTE	W12
	BYTE		        Fs3   v064
	BYTE	W32
	BYTE	W03
	BYTE	FINE

//**************** Track 12 (Midi-Chn.12) ****************//

end_game_map_12:
	BYTE	KEYSH   end_game_map_key+0
// 000   ----------------------------------------
	BYTE		VOICE   73
	BYTE		VOL     100*end_game_map_mvl/mxv
	BYTE		PAN     c_v+36
	BYTE		VOL     100*end_game_map_mvl/mxv
	BYTE	W96
// 001   ----------------------------------------
	BYTE	W96
// 002   ----------------------------------------
	BYTE	W96
// 003   ----------------------------------------
	BYTE	W96
// 004   ----------------------------------------
	BYTE	W96
// 005   ----------------------------------------
	BYTE	W96
// 006   ----------------------------------------
	BYTE	W96
// 007   ----------------------------------------
	BYTE	W60
	BYTE		        100*end_game_map_mvl/mxv
	BYTE	W36
// 008   ----------------------------------------
end_game_map_12_008:
	BYTE	W12
	BYTE		N92     Gn3   v072
	BYTE	W06
	BYTE		VOL     100*end_game_map_mvl/mxv
	BYTE	W03
	BYTE		        100*end_game_map_mvl/mxv
	BYTE	W03
	BYTE		        100*end_game_map_mvl/mxv
	BYTE	W04
	BYTE		        100*end_game_map_mvl/mxv
	BYTE	W03
	BYTE		        100*end_game_map_mvl/mxv
	BYTE	W03
	BYTE		        100*end_game_map_mvl/mxv
	BYTE	W03
	BYTE		        100*end_game_map_mvl/mxv
	BYTE	W04
	BYTE		        100*end_game_map_mvl/mxv
	BYTE	W03
	BYTE		        100*end_game_map_mvl/mxv
	BYTE	W04
	BYTE		        100*end_game_map_mvl/mxv
	BYTE	W03
	BYTE		        100*end_game_map_mvl/mxv
	BYTE	W18
	BYTE		        100*end_game_map_mvl/mxv
	BYTE	W04
	BYTE		        100*end_game_map_mvl/mxv
	BYTE	W12
	BYTE		        100*end_game_map_mvl/mxv
	BYTE	W03
	BYTE		        100*end_game_map_mvl/mxv
	BYTE	W08
	BYTE	PEND
// 009   ----------------------------------------
end_game_map_12_009:
	BYTE	W12
	BYTE		N44     Fs3   v072
	BYTE	W48
	BYTE		N21     Dn3 
	BYTE	W24
	BYTE		N22     En3 
	BYTE	W12
	BYTE	PEND
// 010   ----------------------------------------
end_game_map_12_010:
	BYTE	W12
	BYTE		N68     Fn3   v072
	BYTE	W12
	BYTE		VOL     100*end_game_map_mvl/mxv
	BYTE	W07
	BYTE		        100*end_game_map_mvl/mxv
	BYTE	W03
	BYTE		        100*end_game_map_mvl/mxv
	BYTE	W03
	BYTE		        100*end_game_map_mvl/mxv
	BYTE	W10
	BYTE		        100*end_game_map_mvl/mxv
	BYTE	W03
	BYTE		        100*end_game_map_mvl/mxv
	BYTE	W10
	BYTE		        100*end_game_map_mvl/mxv
	BYTE	W03
	BYTE		        100*end_game_map_mvl/mxv
	BYTE	W03
	BYTE		        100*end_game_map_mvl/mxv
	BYTE	W04
	BYTE		        100*end_game_map_mvl/mxv
	BYTE	W03
	BYTE		        100*end_game_map_mvl/mxv
	BYTE	W11
	BYTE		N22     Gn3 
	BYTE	W12
	BYTE	PEND
// 011   ----------------------------------------
end_game_map_12_011:
	BYTE	W12
	BYTE		N92     En3   v072
	BYTE	W12
	BYTE		VOL     100*end_game_map_mvl/mxv
	BYTE	W07
	BYTE		        100*end_game_map_mvl/mxv
	BYTE	W03
	BYTE		        100*end_game_map_mvl/mxv
	BYTE	W03
	BYTE		        100*end_game_map_mvl/mxv
	BYTE	W11
	BYTE		        100*end_game_map_mvl/mxv
	BYTE	W03
	BYTE		        100*end_game_map_mvl/mxv
	BYTE	W15
	BYTE		        100*end_game_map_mvl/mxv
	BYTE	W10
	BYTE		        100*end_game_map_mvl/mxv
	BYTE	W03
	BYTE		        100*end_game_map_mvl/mxv
	BYTE	W09
	BYTE		        100*end_game_map_mvl/mxv
	BYTE	W03
	BYTE		        100*end_game_map_mvl/mxv
	BYTE	W05
	BYTE	PEND
// 012   ----------------------------------------
end_game_map_12_012:
	BYTE	W12
	BYTE		N16     Dn4   v072
	BYTE	W18
	BYTE		N15     Gn4 
	BYTE	W18
	BYTE		N04     Fs4 
	BYTE	W06
	BYTE		        Gn4 
	BYTE	W06
	BYTE		N21     Dn4 
	BYTE	W24
	BYTE		N22     Gn4 
	BYTE	W12
	BYTE	PEND
// 013   ----------------------------------------
end_game_map_12_013:
	BYTE	W12
	BYTE		N16     Dn4   v072
	BYTE	W18
	BYTE		N15     Gn4 
	BYTE	W18
	BYTE		N04     Fs4 
	BYTE	W06
	BYTE		        Gn4 
	BYTE	W06
	BYTE		N21     An4 
	BYTE	W24
	BYTE		N22     Cn5 
	BYTE	W12
	BYTE	PEND
// 014   ----------------------------------------
end_game_map_12_014:
	BYTE	W12
	BYTE		N16     Dn4   v072
	BYTE	W18
	BYTE		N15     Gn4 
	BYTE	W18
	BYTE		N04     As4 
	BYTE	W06
	BYTE		        Cn5 
	BYTE	W06
	BYTE		N21     Dn5 
	BYTE	W24
	BYTE		N22     Fn4   v060
	BYTE	W12
	BYTE	PEND
// 015   ----------------------------------------
end_game_map_12_015:
	BYTE	W12
	BYTE		N21     Gn4   v072
	BYTE	W24
	BYTE		N09     Dn5 
	BYTE	W12
	BYTE		        Cn5 
	BYTE	W24
	BYTE		        As4 
	BYTE	W24
	BYTE	PEND
// 016   ----------------------------------------
end_game_map_12_016:
	BYTE		N10     An4   v076
	BYTE	W12
	BYTE		N21     Fn4   v072
	BYTE	W24
	BYTE		N09     Ds5 
	BYTE	W12
	BYTE		        Dn5 
	BYTE	W24
	BYTE		        Fn5 
	BYTE	W24
	BYTE	PEND
// 017   ----------------------------------------
end_game_map_12_017:
	BYTE		N32     Dn5   v076
	BYTE	W36
	BYTE		N09     Cn5   v072
	BYTE	W12
	BYTE		        As4 
	BYTE	W24
	BYTE		        Dn5 
	BYTE	W24
	BYTE	PEND
// 018   ----------------------------------------
end_game_map_12_018:
	BYTE		N10     Fn4   v076
	BYTE	W12
	BYTE		N21     An4   v072
	BYTE	W24
	BYTE		N09     As4 
	BYTE	W12
	BYTE		        An4 
	BYTE	W24
	BYTE		        Gn4 
	BYTE	W12
	BYTE		        Ds4 
	BYTE	W12
	BYTE	PEND
// 019   ----------------------------------------
end_game_map_12_019:
	BYTE		N10     Dn4   v076
	BYTE	W52
	BYTE	W01
	BYTE		VOL     100*end_game_map_mvl/mxv
	BYTE	W42
	BYTE	W01
	BYTE	PEND
// 020   ----------------------------------------
	BYTE	W96
// 021   ----------------------------------------
	BYTE	W96
// 022   ----------------------------------------
	BYTE	W96
// 023   ----------------------------------------
	BYTE	W96
// 024   ----------------------------------------
	BYTE	W96
// 025   ----------------------------------------
	BYTE	W96
// 026   ----------------------------------------
	BYTE	W96
// 027   ----------------------------------------
	BYTE	W96
// 028   ----------------------------------------
	BYTE	W96
// 029   ----------------------------------------
	BYTE	W96
// 030   ----------------------------------------
	BYTE	W96
// 031   ----------------------------------------
	BYTE	W96
// 032   ----------------------------------------
	BYTE	W96
// 033   ----------------------------------------
	BYTE	W96
// 034   ----------------------------------------
	BYTE	W96
// 035   ----------------------------------------
end_game_map_12_035:
	BYTE	W12
	BYTE		N09     Fs3   v064
	BYTE	W12
	BYTE		        Gn3   v068
	BYTE	W12
	BYTE		        An3   v064
	BYTE	W12
	BYTE		        Dn4   v068
	BYTE	W12
	BYTE		        Fs4   v064
	BYTE	W12
	BYTE		        An4   v068
	BYTE	W12
	BYTE		        Fs4   v064
	BYTE	W12
	BYTE	PEND
// 036   ----------------------------------------
end_game_map_12_036:
	BYTE		N10     Dn4   v072
	BYTE	W12
	BYTE		N09     Fs3   v064
	BYTE	W12
	BYTE		        Gn3   v068
	BYTE	W12
	BYTE		        An3   v064
	BYTE	W12
	BYTE		        Dn4   v068
	BYTE	W12
	BYTE		        Fs4   v064
	BYTE	W12
	BYTE		        An4   v068
	BYTE	W12
	BYTE		        Fs4   v064
	BYTE	W12
	BYTE	PEND
// 037   ----------------------------------------
end_game_map_12_037:
	BYTE		N10     Dn4   v072
	BYTE	W12
	BYTE		N09     Gn3   v064
	BYTE	W12
	BYTE		        An3   v068
	BYTE	W12
	BYTE		        As3   v064
	BYTE	W12
	BYTE		        Dn4   v068
	BYTE	W12
	BYTE		        Gn4   v064
	BYTE	W12
	BYTE		        As4   v068
	BYTE	W12
	BYTE		        Gn4   v064
	BYTE	W12
	BYTE	PEND
// 038   ----------------------------------------
	BYTE	PATT
	 POIN2	end_game_map_12_037
// 039   ----------------------------------------
	BYTE	PATT
	 POIN2	end_game_map_12_037
// 040   ----------------------------------------
end_game_map_12_040:
	BYTE		N10     Dn4   v072
	BYTE	W12
	BYTE		N04     Fn3   v064
	BYTE	W06
	BYTE		        Cn4 
	BYTE	W06
	BYTE		N09     Fn4   v068
	BYTE	W24
	BYTE		        Ds4 
	BYTE	W24
	BYTE		N04     Dn4 
	BYTE	W06
	BYTE		        Fn4   v064
	BYTE	W18
	BYTE	PEND
// 041   ----------------------------------------
end_game_map_12_041:
	BYTE		N10     Ds4   v072
	BYTE	W12
	BYTE		N09     Fn3   v064
	BYTE	W12
	BYTE		        Gn3   v068
	BYTE	W12
	BYTE		        An3   v064
	BYTE	W12
	BYTE		        Cn4   v068
	BYTE	W12
	BYTE		        Fn4   v064
	BYTE	W12
	BYTE		        An4   v068
	BYTE	W12
	BYTE		        Fn4   v064
	BYTE	W12
	BYTE	PEND
// 042   ----------------------------------------
end_game_map_12_042:
	BYTE		N10     Cn4   v072
	BYTE	W12
	BYTE		N09     Gn3   v064
	BYTE	W12
	BYTE		        An3   v068
	BYTE	W12
	BYTE		        As3   v064
	BYTE	W12
	BYTE		        Dn4   v068
	BYTE	W12
	BYTE		        Gn4   v064
	BYTE	W12
	BYTE		        As4   v068
	BYTE	W12
	BYTE		        Gn4   v064
	BYTE	W12
	BYTE	PEND
// 043   ----------------------------------------
	BYTE	PATT
	 POIN2	end_game_map_12_036
// 044   ----------------------------------------
	BYTE	PATT
	 POIN2	end_game_map_12_036
// 045   ----------------------------------------
	BYTE	PATT
	 POIN2	end_game_map_12_037
// 046   ----------------------------------------
	BYTE	PATT
	 POIN2	end_game_map_12_037
// 047   ----------------------------------------
end_game_map_12_047:
	BYTE		N10     Dn4   v072
	BYTE	W12
	BYTE		N04     Bn4   v064
	BYTE	W06
	BYTE		        Dn4 
	BYTE	W06
	BYTE		N09     Fs4   v068
	BYTE	W12
	BYTE		        Dn4   v064
	BYTE	W12
	BYTE		N04     Bn4   v068
	BYTE	W06
	BYTE		        Dn4   v064
	BYTE	W06
	BYTE		N09     Fs4 
	BYTE	W12
	BYTE		        Dn4   v068
	BYTE	W12
	BYTE		N04     Bn4   v064
	BYTE	W05
	BYTE		        Dn4 
	BYTE	W07
	BYTE	PEND
// 048   ----------------------------------------
end_game_map_12_048:
	BYTE		N10     Fs4   v072
	BYTE	W18
	BYTE		N04     Bn3   v064
	BYTE	W06
	BYTE		N09     Fs4   v068
	BYTE	W24
	BYTE		        Dn4 
	BYTE	W24
	BYTE		N04     Bn3 
	BYTE	W06
	BYTE		        Gs4   v064
	BYTE	W18
	BYTE	PEND
// 049   ----------------------------------------
end_game_map_12_049:
	BYTE		N05     Dn4   v072
	BYTE	W06
	BYTE		N04     Fs4   v064
	BYTE	W06
	BYTE		        An4 
	BYTE	W06
	BYTE		        Cs4 
	BYTE	W06
	BYTE		N09     En4   v068
	BYTE	W12
	BYTE		        Cs4   v064
	BYTE	W12
	BYTE		N04     An4   v068
	BYTE	W06
	BYTE		        Cs4   v064
	BYTE	W06
	BYTE		N09     En4 
	BYTE	W12
	BYTE		        Cs4   v068
	BYTE	W12
	BYTE		N04     An4   v064
	BYTE	W05
	BYTE		        Cs4 
	BYTE	W07
	BYTE	PEND
// 050   ----------------------------------------
end_game_map_12_050:
	BYTE		N10     En4   v072
	BYTE	W12
	BYTE		N04     As4   v064
	BYTE	W06
	BYTE		        Cs4 
	BYTE	W06
	BYTE		N08     En4   v056
	BYTE	W12
	BYTE		N09     En4   v052
	BYTE	W12
	BYTE		N04     As4   v068
	BYTE	W06
	BYTE		        En4   v064
	BYTE	W42
	BYTE	PEND
// 051   ----------------------------------------
end_game_map_12_051:
	BYTE	W12
	BYTE		N09     Fn3   v064
	BYTE	W12
	BYTE		N15     Fn4   v068
	BYTE	W18
	BYTE		N04     Fn3   v064
	BYTE	W06
	BYTE		N09     Fn4   v068
	BYTE	W12
	BYTE		N04     Gs3   v064
	BYTE	W06
	BYTE		        Gn3 
	BYTE	W06
	BYTE		        Fn3   v068
	BYTE	W06
	BYTE		        Gn3   v064
	BYTE	W06
	BYTE		        Gs3 
	BYTE	W05
	BYTE		        As3 
	BYTE	W07
	BYTE	PEND
// 052   ----------------------------------------
end_game_map_12_052:
	BYTE		N05     Cn4   v072
	BYTE	W06
	BYTE		N04     Dn4   v064
	BYTE	W06
	BYTE		N09     Gn3 
	BYTE	W12
	BYTE		N15     Gn4   v068
	BYTE	W18
	BYTE		N04     Gn3   v064
	BYTE	W06
	BYTE		N09     Dn4   v068
	BYTE	W12
	BYTE		N04     As3   v064
	BYTE	W06
	BYTE		        An3 
	BYTE	W06
	BYTE		        Gn3   v068
	BYTE	W06
	BYTE		        An3   v064
	BYTE	W06
	BYTE		        As3 
	BYTE	W05
	BYTE		        Cn4 
	BYTE	W07
	BYTE	PEND
// 053   ----------------------------------------
end_game_map_12_053:
	BYTE		N05     Dn4   v072
	BYTE	W06
	BYTE		N04     Gn4   v064
	BYTE	W06
	BYTE		        Gn3 
	BYTE	W06
	BYTE		N10     Gn4 
	BYTE	W12
	BYTE		N04     Dn4 
	BYTE	W06
	BYTE		        Gn4 
	BYTE	W06
	BYTE		        Dn4 
	BYTE	W06
	BYTE		        Gn3   v068
	BYTE	W06
	BYTE		N09     Gn4   v064
	BYTE	W12
	BYTE		N04     Dn4 
	BYTE	W06
	BYTE		        An4   v068
	BYTE	W06
	BYTE		        Dn4   v064
	BYTE	W06
	BYTE		        Gn3 
	BYTE	W05
	BYTE		        Dn4 
	BYTE	W07
	BYTE	PEND
// 054   ----------------------------------------
end_game_map_12_054:
	BYTE		N05     Gn4   v072
	BYTE	W06
	BYTE		N04     An4   v064
	BYTE	W06
	BYTE		N09     As4 
	BYTE	W12
	BYTE		N04     Gs4   v068
	BYTE	W06
	BYTE		        Gn4   v064
	BYTE	W06
	BYTE		        Gs4 
	BYTE	W06
	BYTE		        Gn4 
	BYTE	W06
	BYTE		        Fn4   v068
	BYTE	W06
	BYTE		N09     Dn4   v064
	BYTE	W12
	BYTE		N04   
	BYTE	W06
	BYTE		        As3   v068
	BYTE	W06
	BYTE		        Dn4   v064
	BYTE	W06
	BYTE		        Gs3 
	BYTE	W05
	BYTE		        As3 
	BYTE	W07
	BYTE	PEND
// 055   ----------------------------------------
end_game_map_12_055:
	BYTE		N05     Dn4   v072
	BYTE	W06
	BYTE		N04     Gn4   v064
	BYTE	W06
	BYTE		N09     An3 
	BYTE	W12
	BYTE		N15     An4   v068
	BYTE	W18
	BYTE		N04     An3   v064
	BYTE	W06
	BYTE		N09     En4   v068
	BYTE	W12
	BYTE		N04     Cn4   v064
	BYTE	W06
	BYTE		        Bn3 
	BYTE	W06
	BYTE		        An3   v068
	BYTE	W06
	BYTE		        Bn3   v064
	BYTE	W06
	BYTE		        Cn4 
	BYTE	W05
	BYTE		        Dn4 
	BYTE	W07
	BYTE	PEND
// 056   ----------------------------------------
end_game_map_12_056:
	BYTE		N05     En4   v072
	BYTE	W06
	BYTE		N04     An4   v064
	BYTE	W06
	BYTE		N09     As3 
	BYTE	W12
	BYTE		N15     As4   v068
	BYTE	W18
	BYTE		N04     As3   v064
	BYTE	W06
	BYTE		N09     Fn4   v068
	BYTE	W12
	BYTE		N04     Cs4   v064
	BYTE	W06
	BYTE		        Cn4 
	BYTE	W06
	BYTE		        As3   v068
	BYTE	W06
	BYTE		        Cn4   v064
	BYTE	W06
	BYTE		        Cs4 
	BYTE	W05
	BYTE		        Ds4 
	BYTE	W07
	BYTE	PEND
// 057   ----------------------------------------
end_game_map_12_057:
	BYTE		N05     Fn4   v072
	BYTE	W06
	BYTE		N04     As4   v064
	BYTE	W06
	BYTE		        Bn3 
	BYTE	W06
	BYTE		N10     Bn4 
	BYTE	W12
	BYTE		N04     Fs4 
	BYTE	W06
	BYTE		        Cs5 
	BYTE	W06
	BYTE		        Fs4 
	BYTE	W06
	BYTE		        Bn3   v068
	BYTE	W06
	BYTE		N09     Bn4   v064
	BYTE	W12
	BYTE		N04     Fs4 
	BYTE	W06
	BYTE		        Cs5   v068
	BYTE	W06
	BYTE		        Fs4   v064
	BYTE	W06
	BYTE		        Bn3 
	BYTE	W05
	BYTE		        Fs4 
	BYTE	W07
	BYTE	PEND
// 058   ----------------------------------------
end_game_map_12_058:
	BYTE		N05     Bn4   v072
	BYTE	W06
	BYTE		N04     Cs5   v064
	BYTE	W06
	BYTE		N09     Ds5 
	BYTE	W12
	BYTE		N04     Cs5   v068
	BYTE	W06
	BYTE		        Bn4   v064
	BYTE	W06
	BYTE		        Cs5 
	BYTE	W06
	BYTE		        Bn4 
	BYTE	W06
	BYTE		        Gs4   v068
	BYTE	W06
	BYTE		N09     Fs4   v064
	BYTE	W12
	BYTE		N04   
	BYTE	W06
	BYTE		        Ds4   v068
	BYTE	W06
	BYTE		        Fs4   v064
	BYTE	W06
	BYTE		        Cs4 
	BYTE	W05
	BYTE		        Ds4 
	BYTE	W07
	BYTE	PEND
// 059   ----------------------------------------
end_game_map_12_059:
	BYTE		N05     Fs4   v072
	BYTE	W06
	BYTE		N04     Bn4   v064
	BYTE	W06
	BYTE		N09     Fn3 
	BYTE	W12
	BYTE		N15     Fn4   v068
	BYTE	W18
	BYTE		N04     Fn3   v064
	BYTE	W06
	BYTE		N09     Fn4   v068
	BYTE	W12
	BYTE		N04     Gs3   v064
	BYTE	W06
	BYTE		        Gn3 
	BYTE	W06
	BYTE		        Fn3   v068
	BYTE	W06
	BYTE		        Gn3   v064
	BYTE	W06
	BYTE		        Gs3 
	BYTE	W05
	BYTE		        As3 
	BYTE	W07
	BYTE	PEND
// 060   ----------------------------------------
	BYTE	PATT
	 POIN2	end_game_map_12_052
// 061   ----------------------------------------
	BYTE	PATT
	 POIN2	end_game_map_12_053
// 062   ----------------------------------------
	BYTE	PATT
	 POIN2	end_game_map_12_054
// 063   ----------------------------------------
	BYTE	PATT
	 POIN2	end_game_map_12_055
// 064   ----------------------------------------
	BYTE	PATT
	 POIN2	end_game_map_12_056
// 065   ----------------------------------------
	BYTE	PATT
	 POIN2	end_game_map_12_057
// 066   ----------------------------------------
	BYTE	PATT
	 POIN2	end_game_map_12_058
// 067   ----------------------------------------
end_game_map_12_067:
	BYTE		N05     Fs4   v072
	BYTE	W06
	BYTE		N04     Bn4   v064
	BYTE	W06
	BYTE		N09     Gn3 
	BYTE	W12
	BYTE		        Gn3   v068
	BYTE	W36
	BYTE		        Gn3   v064
	BYTE	W12
	BYTE		        Gn3   v068
	BYTE	W24
	BYTE	PEND
// 068   ----------------------------------------
end_game_map_12_068:
	BYTE	W12
	BYTE		N09     Gn3   v064
	BYTE	W12
	BYTE		        Gn3   v068
	BYTE	W36
	BYTE		        An3   v064
	BYTE	W12
	BYTE		        Fs3   v068
	BYTE	W24
	BYTE	PEND
// 069   ----------------------------------------
end_game_map_12_069:
	BYTE	W12
	BYTE		N09     Gn3   v064
	BYTE	W12
	BYTE		        Gn3   v068
	BYTE	W36
	BYTE		        Gn3   v064
	BYTE	W12
	BYTE		        Gn3   v068
	BYTE	W24
	BYTE	PEND
// 070   ----------------------------------------
	BYTE	PATT
	 POIN2	end_game_map_12_068
// 071   ----------------------------------------
	BYTE	PATT
	 POIN2	end_game_map_12_069
// 072   ----------------------------------------
	BYTE	PATT
	 POIN2	end_game_map_12_068
// 073   ----------------------------------------
	BYTE	PATT
	 POIN2	end_game_map_12_069
// 074   ----------------------------------------
	BYTE	PATT
	 POIN2	end_game_map_12_068
// 075   ----------------------------------------
	BYTE	W96
// 076   ----------------------------------------
	BYTE	W96
// 077   ----------------------------------------
	BYTE	W96
// 078   ----------------------------------------
	BYTE	W60
	BYTE		VOL     100*end_game_map_mvl/mxv
	BYTE	W36
// 079   ----------------------------------------
	BYTE	PATT
	 POIN2	end_game_map_12_008
// 080   ----------------------------------------
	BYTE	PATT
	 POIN2	end_game_map_12_009
// 081   ----------------------------------------
	BYTE	PATT
	 POIN2	end_game_map_12_010
// 082   ----------------------------------------
	BYTE	PATT
	 POIN2	end_game_map_12_011
// 083   ----------------------------------------
	BYTE	PATT
	 POIN2	end_game_map_12_012
// 084   ----------------------------------------
	BYTE	PATT
	 POIN2	end_game_map_12_013
// 085   ----------------------------------------
	BYTE	PATT
	 POIN2	end_game_map_12_014
// 086   ----------------------------------------
	BYTE	PATT
	 POIN2	end_game_map_12_015
// 087   ----------------------------------------
	BYTE	PATT
	 POIN2	end_game_map_12_016
// 088   ----------------------------------------
	BYTE	PATT
	 POIN2	end_game_map_12_017
// 089   ----------------------------------------
	BYTE	PATT
	 POIN2	end_game_map_12_018
// 090   ----------------------------------------
	BYTE	PATT
	 POIN2	end_game_map_12_019
// 091   ----------------------------------------
	BYTE	W96
// 092   ----------------------------------------
	BYTE	W96
// 093   ----------------------------------------
	BYTE	W96
// 094   ----------------------------------------
	BYTE	W96
// 095   ----------------------------------------
	BYTE	W96
// 096   ----------------------------------------
	BYTE	W96
// 097   ----------------------------------------
	BYTE	W96
// 098   ----------------------------------------
	BYTE	W96
// 099   ----------------------------------------
	BYTE	W96
// 100   ----------------------------------------
	BYTE	W96
// 101   ----------------------------------------
	BYTE	W96
// 102   ----------------------------------------
	BYTE	W96
// 103   ----------------------------------------
	BYTE	W96
// 104   ----------------------------------------
	BYTE	W96
// 105   ----------------------------------------
	BYTE	W96
// 106   ----------------------------------------
	BYTE	PATT
	 POIN2	end_game_map_12_035
// 107   ----------------------------------------
	BYTE	PATT
	 POIN2	end_game_map_12_036
// 108   ----------------------------------------
	BYTE	PATT
	 POIN2	end_game_map_12_037
// 109   ----------------------------------------
	BYTE	PATT
	 POIN2	end_game_map_12_037
// 110   ----------------------------------------
	BYTE	PATT
	 POIN2	end_game_map_12_037
// 111   ----------------------------------------
	BYTE	PATT
	 POIN2	end_game_map_12_040
// 112   ----------------------------------------
	BYTE	PATT
	 POIN2	end_game_map_12_041
// 113   ----------------------------------------
	BYTE	PATT
	 POIN2	end_game_map_12_042
// 114   ----------------------------------------
	BYTE	PATT
	 POIN2	end_game_map_12_036
// 115   ----------------------------------------
	BYTE	PATT
	 POIN2	end_game_map_12_036
// 116   ----------------------------------------
	BYTE	PATT
	 POIN2	end_game_map_12_037
// 117   ----------------------------------------
	BYTE	PATT
	 POIN2	end_game_map_12_037
// 118   ----------------------------------------
	BYTE	PATT
	 POIN2	end_game_map_12_047
// 119   ----------------------------------------
	BYTE	PATT
	 POIN2	end_game_map_12_048
// 120   ----------------------------------------
	BYTE	PATT
	 POIN2	end_game_map_12_049
// 121   ----------------------------------------
	BYTE	PATT
	 POIN2	end_game_map_12_050
// 122   ----------------------------------------
	BYTE	PATT
	 POIN2	end_game_map_12_051
// 123   ----------------------------------------
	BYTE	PATT
	 POIN2	end_game_map_12_052
// 124   ----------------------------------------
	BYTE	PATT
	 POIN2	end_game_map_12_053
// 125   ----------------------------------------
	BYTE	PATT
	 POIN2	end_game_map_12_054
// 126   ----------------------------------------
	BYTE	PATT
	 POIN2	end_game_map_12_055
// 127   ----------------------------------------
	BYTE	PATT
	 POIN2	end_game_map_12_056
// 128   ----------------------------------------
	BYTE	PATT
	 POIN2	end_game_map_12_057
// 129   ----------------------------------------
	BYTE	PATT
	 POIN2	end_game_map_12_058
// 130   ----------------------------------------
	BYTE	PATT
	 POIN2	end_game_map_12_059
// 131   ----------------------------------------
	BYTE	PATT
	 POIN2	end_game_map_12_052
// 132   ----------------------------------------
	BYTE	PATT
	 POIN2	end_game_map_12_053
// 133   ----------------------------------------
	BYTE	PATT
	 POIN2	end_game_map_12_054
// 134   ----------------------------------------
	BYTE	PATT
	 POIN2	end_game_map_12_055
// 135   ----------------------------------------
	BYTE	PATT
	 POIN2	end_game_map_12_056
// 136   ----------------------------------------
	BYTE	PATT
	 POIN2	end_game_map_12_057
// 137   ----------------------------------------
	BYTE	PATT
	 POIN2	end_game_map_12_058
// 138   ----------------------------------------
	BYTE	PATT
	 POIN2	end_game_map_12_067
// 139   ----------------------------------------
	BYTE	PATT
	 POIN2	end_game_map_12_068
// 140   ----------------------------------------
	BYTE	PATT
	 POIN2	end_game_map_12_069
// 141   ----------------------------------------
	BYTE	PATT
	 POIN2	end_game_map_12_068
// 142   ----------------------------------------
	BYTE	PATT
	 POIN2	end_game_map_12_069
// 143   ----------------------------------------
	BYTE	PATT
	 POIN2	end_game_map_12_068
// 144   ----------------------------------------
	BYTE	PATT
	 POIN2	end_game_map_12_069
// 145   ----------------------------------------
	BYTE	W12
	BYTE		N09     Gn3   v064
	BYTE	W12
	BYTE		        Gn3   v068
	BYTE	W36
	BYTE		        An3   v064
	BYTE	W12
	BYTE		        Fs3   v068
	BYTE	W23
	BYTE	FINE

//**************** Track 13 (Midi-Chn.13) ****************//

end_game_map_13:
	BYTE	KEYSH   end_game_map_key+0
// 000   ----------------------------------------
	BYTE		VOICE   47
	BYTE		VOL     100*end_game_map_mvl/mxv
	BYTE		PAN     c_v+36
	BYTE		VOL     100*end_game_map_mvl/mxv
	BYTE	W06
	BYTE		N14     Dn1   v052
	BYTE	W18
	BYTE		        Dn1   v056
	BYTE	W18
	BYTE		        Dn1   v052
	BYTE	W18
	BYTE		N14   
	BYTE	W18
	BYTE		N15   
	BYTE	W18
// 001   ----------------------------------------
end_game_map_13_001:
	BYTE	W06
	BYTE		N14     Dn1   v052
	BYTE	W18
	BYTE		        Dn1   v056
	BYTE	W18
	BYTE		        Dn1   v052
	BYTE	W18
	BYTE		N14   
	BYTE	W18
	BYTE		N15   
	BYTE	W18
	BYTE	PEND
// 002   ----------------------------------------
	BYTE	PATT
	 POIN2	end_game_map_13_001
// 003   ----------------------------------------
	BYTE		N10     As0   v072
	BYTE	W12
	BYTE		N09     As1   v064
	BYTE	W12
	BYTE		        An0   v068
	BYTE	W12
	BYTE		        An1   v064
	BYTE	W12
	BYTE		        Gn0   v068
	BYTE	W12
	BYTE		        Gn1   v064
	BYTE	W12
	BYTE		N21     Fs1   v068
	BYTE	W24
// 004   ----------------------------------------
end_game_map_13_004:
	BYTE		N22     Gn1   v072
	BYTE	W24
	BYTE		N21     Gn1   v068
	BYTE	W24
	BYTE		N21   
	BYTE	W24
	BYTE		N08     Gn1   v056
	BYTE	W12
	BYTE		N09     Gn1   v052
	BYTE	W12
	BYTE	PEND
// 005   ----------------------------------------
end_game_map_13_005:
	BYTE		N22     Fs1   v072
	BYTE	W24
	BYTE		N21     Fs1   v068
	BYTE	W24
	BYTE		N21   
	BYTE	W24
	BYTE		N08     Fs1   v056
	BYTE	W12
	BYTE		N09     Fs1   v052
	BYTE	W12
	BYTE	PEND
// 006   ----------------------------------------
end_game_map_13_006:
	BYTE		N22     Fn1   v072
	BYTE	W24
	BYTE		N21     Fn1   v068
	BYTE	W24
	BYTE		N21   
	BYTE	W24
	BYTE		N08     Fn1   v056
	BYTE	W12
	BYTE		N09     Fn1   v052
	BYTE	W12
	BYTE	PEND
// 007   ----------------------------------------
end_game_map_13_007:
	BYTE		N22     En1   v072
	BYTE	W24
	BYTE		N21     En1   v068
	BYTE	W24
	BYTE		N21   
	BYTE	W24
	BYTE		N08     En1   v056
	BYTE	W12
	BYTE		N09     En1   v052
	BYTE	W12
	BYTE	PEND
// 008   ----------------------------------------
	BYTE	PATT
	 POIN2	end_game_map_13_004
// 009   ----------------------------------------
	BYTE	PATT
	 POIN2	end_game_map_13_005
// 010   ----------------------------------------
	BYTE	PATT
	 POIN2	end_game_map_13_006
// 011   ----------------------------------------
	BYTE	PATT
	 POIN2	end_game_map_13_007
// 012   ----------------------------------------
	BYTE	PATT
	 POIN2	end_game_map_13_004
// 013   ----------------------------------------
	BYTE	PATT
	 POIN2	end_game_map_13_005
// 014   ----------------------------------------
	BYTE	PATT
	 POIN2	end_game_map_13_006
// 015   ----------------------------------------
end_game_map_13_015:
	BYTE		N22     Ds1   v072
	BYTE	W24
	BYTE		N21     Ds1   v068
	BYTE	W24
	BYTE		N21   
	BYTE	W24
	BYTE		N08     Ds1   v056
	BYTE	W12
	BYTE		N09     Ds1   v052
	BYTE	W12
	BYTE	PEND
// 016   ----------------------------------------
	BYTE	PATT
	 POIN2	end_game_map_13_006
// 017   ----------------------------------------
end_game_map_13_017:
	BYTE		N22     As1   v072
	BYTE	W24
	BYTE		N21     As1   v068
	BYTE	W24
	BYTE		N21   
	BYTE	W24
	BYTE		N08     As1   v056
	BYTE	W12
	BYTE		N09     As1   v052
	BYTE	W12
	BYTE	PEND
// 018   ----------------------------------------
	BYTE	PATT
	 POIN2	end_game_map_13_015
// 019   ----------------------------------------
end_game_map_13_019:
	BYTE		N22     Dn1   v072
	BYTE	W24
	BYTE		N21     Dn1   v068
	BYTE	W24
	BYTE		N21   
	BYTE	W24
	BYTE		N01     Dn1   v056
	BYTE	W03
	BYTE		        Dn1   v052
	BYTE	W03
	BYTE		N01   
	BYTE	W03
	BYTE		N01   
	BYTE	W03
	BYTE		N01   
	BYTE	W03
	BYTE		N01   
	BYTE	W02
	BYTE		N01   
	BYTE	W03
	BYTE		N02   
	BYTE	W04
	BYTE	PEND
// 020   ----------------------------------------
	BYTE	PATT
	 POIN2	end_game_map_13_004
// 021   ----------------------------------------
	BYTE	PATT
	 POIN2	end_game_map_13_005
// 022   ----------------------------------------
	BYTE	PATT
	 POIN2	end_game_map_13_006
// 023   ----------------------------------------
	BYTE	PATT
	 POIN2	end_game_map_13_015
// 024   ----------------------------------------
	BYTE	PATT
	 POIN2	end_game_map_13_006
// 025   ----------------------------------------
end_game_map_13_025:
	BYTE		N22     Gn1   v072
	BYTE	W24
	BYTE		N21     Gn1   v068
	BYTE	W24
	BYTE		        Fn1 
	BYTE	W24
	BYTE		N08     Fn1   v056
	BYTE	W12
	BYTE		N09     Fn1   v052
	BYTE	W12
	BYTE	PEND
// 026   ----------------------------------------
	BYTE	PATT
	 POIN2	end_game_map_13_019
// 027   ----------------------------------------
end_game_map_13_027:
	BYTE		N44     Gn1   v072
	BYTE	W48
	BYTE		        Fn1   v068
	BYTE	W48
	BYTE	PEND
// 028   ----------------------------------------
end_game_map_13_028:
	BYTE		N44     Ds1   v072
	BYTE	W48
	BYTE		        Dn1   v068
	BYTE	W48
	BYTE	PEND
// 029   ----------------------------------------
	BYTE	PATT
	 POIN2	end_game_map_13_027
// 030   ----------------------------------------
	BYTE	PATT
	 POIN2	end_game_map_13_028
// 031   ----------------------------------------
end_game_map_13_031:
	BYTE		N22     Gn1   v072
	BYTE	W24
	BYTE		N21     Gn1   v068
	BYTE	W24
	BYTE		        Fn1 
	BYTE	W24
	BYTE		N21   
	BYTE	W24
	BYTE	PEND
// 032   ----------------------------------------
end_game_map_13_032:
	BYTE		N22     Ds1   v072
	BYTE	W24
	BYTE		N21     Ds1   v068
	BYTE	W24
	BYTE		        Dn1 
	BYTE	W24
	BYTE		N21   
	BYTE	W24
	BYTE	PEND
// 033   ----------------------------------------
	BYTE	PATT
	 POIN2	end_game_map_13_031
// 034   ----------------------------------------
	BYTE	PATT
	 POIN2	end_game_map_13_032
// 035   ----------------------------------------
	BYTE	W96
// 036   ----------------------------------------
	BYTE	W96
// 037   ----------------------------------------
	BYTE	W96
// 038   ----------------------------------------
	BYTE	W96
// 039   ----------------------------------------
	BYTE	W96
// 040   ----------------------------------------
	BYTE	W96
// 041   ----------------------------------------
	BYTE	W96
// 042   ----------------------------------------
	BYTE	W96
// 043   ----------------------------------------
	BYTE	W96
// 044   ----------------------------------------
	BYTE	W96
// 045   ----------------------------------------
	BYTE	W96
// 046   ----------------------------------------
	BYTE	W96
// 047   ----------------------------------------
	BYTE	W96
// 048   ----------------------------------------
	BYTE	W96
// 049   ----------------------------------------
	BYTE	W96
// 050   ----------------------------------------
end_game_map_13_050:
	BYTE	W48
	BYTE		N01     Ds1   v056
	BYTE	W03
	BYTE		        Ds1   v052
	BYTE	W03
	BYTE		N01   
	BYTE	W03
	BYTE		N01   
	BYTE	W03
	BYTE		N01   
	BYTE	W03
	BYTE		N01   
	BYTE	W03
	BYTE		N01   
	BYTE	W03
	BYTE		N01   
	BYTE	W03
	BYTE		        Ds1   v056
	BYTE	W03
	BYTE		        Ds1   v052
	BYTE	W03
	BYTE		N01   
	BYTE	W03
	BYTE		N01   
	BYTE	W03
	BYTE		N01   
	BYTE	W03
	BYTE		N01   
	BYTE	W02
	BYTE		N01   
	BYTE	W03
	BYTE		N02   
	BYTE	W04
	BYTE	PEND
// 051   ----------------------------------------
end_game_map_13_051:
	BYTE		N22     Fn1   v072
	BYTE	W24
	BYTE		N21     Fn1   v068
	BYTE	W24
	BYTE		N21   
	BYTE	W24
	BYTE		N21   
	BYTE	W24
	BYTE	PEND
// 052   ----------------------------------------
end_game_map_13_052:
	BYTE		N22     Gn1   v072
	BYTE	W24
	BYTE		N21     Gn1   v068
	BYTE	W24
	BYTE		N21   
	BYTE	W24
	BYTE		N21   
	BYTE	W24
	BYTE	PEND
// 053   ----------------------------------------
end_game_map_13_053:
	BYTE		N22     Gs1   v072
	BYTE	W24
	BYTE		N21     Gs1   v068
	BYTE	W24
	BYTE		N21   
	BYTE	W24
	BYTE		N21   
	BYTE	W24
	BYTE	PEND
// 054   ----------------------------------------
	BYTE	PATT
	 POIN2	end_game_map_13_053
// 055   ----------------------------------------
end_game_map_13_055:
	BYTE		N22     An1   v072
	BYTE	W24
	BYTE		N21     An1   v068
	BYTE	W24
	BYTE		N21   
	BYTE	W24
	BYTE		N21   
	BYTE	W24
	BYTE	PEND
// 056   ----------------------------------------
end_game_map_13_056:
	BYTE		N22     As1   v072
	BYTE	W24
	BYTE		N21     As1   v068
	BYTE	W24
	BYTE		N21   
	BYTE	W24
	BYTE		N21   
	BYTE	W24
	BYTE	PEND
// 057   ----------------------------------------
end_game_map_13_057:
	BYTE		N22     Cn2   v072
	BYTE	W24
	BYTE		N21     Cn2   v068
	BYTE	W24
	BYTE		N21   
	BYTE	W24
	BYTE		N21   
	BYTE	W24
	BYTE	PEND
// 058   ----------------------------------------
end_game_map_13_058:
	BYTE		N22     Cn2   v072
	BYTE	W24
	BYTE		N21     Cn2   v068
	BYTE	W24
	BYTE		N21   
	BYTE	W24
	BYTE		N01     Ds1   v056
	BYTE	W03
	BYTE		        Ds1   v052
	BYTE	W03
	BYTE		N01   
	BYTE	W03
	BYTE		N01   
	BYTE	W03
	BYTE		N01   
	BYTE	W03
	BYTE		N01   
	BYTE	W02
	BYTE		N01   
	BYTE	W03
	BYTE		N02   
	BYTE	W04
	BYTE	PEND
// 059   ----------------------------------------
	BYTE	PATT
	 POIN2	end_game_map_13_051
// 060   ----------------------------------------
	BYTE	PATT
	 POIN2	end_game_map_13_052
// 061   ----------------------------------------
	BYTE	PATT
	 POIN2	end_game_map_13_053
// 062   ----------------------------------------
	BYTE	PATT
	 POIN2	end_game_map_13_053
// 063   ----------------------------------------
	BYTE	PATT
	 POIN2	end_game_map_13_055
// 064   ----------------------------------------
	BYTE	PATT
	 POIN2	end_game_map_13_056
// 065   ----------------------------------------
	BYTE	PATT
	 POIN2	end_game_map_13_057
// 066   ----------------------------------------
	BYTE	PATT
	 POIN2	end_game_map_13_058
// 067   ----------------------------------------
	BYTE	PATT
	 POIN2	end_game_map_13_027
// 068   ----------------------------------------
	BYTE	PATT
	 POIN2	end_game_map_13_028
// 069   ----------------------------------------
	BYTE	PATT
	 POIN2	end_game_map_13_027
// 070   ----------------------------------------
	BYTE	PATT
	 POIN2	end_game_map_13_028
// 071   ----------------------------------------
	BYTE	PATT
	 POIN2	end_game_map_13_031
// 072   ----------------------------------------
	BYTE	PATT
	 POIN2	end_game_map_13_032
// 073   ----------------------------------------
	BYTE	PATT
	 POIN2	end_game_map_13_031
// 074   ----------------------------------------
	BYTE	PATT
	 POIN2	end_game_map_13_032
// 075   ----------------------------------------
	BYTE	PATT
	 POIN2	end_game_map_13_004
// 076   ----------------------------------------
	BYTE	PATT
	 POIN2	end_game_map_13_005
// 077   ----------------------------------------
	BYTE	PATT
	 POIN2	end_game_map_13_006
// 078   ----------------------------------------
	BYTE	PATT
	 POIN2	end_game_map_13_007
// 079   ----------------------------------------
	BYTE	PATT
	 POIN2	end_game_map_13_004
// 080   ----------------------------------------
	BYTE	PATT
	 POIN2	end_game_map_13_005
// 081   ----------------------------------------
	BYTE	PATT
	 POIN2	end_game_map_13_006
// 082   ----------------------------------------
	BYTE	PATT
	 POIN2	end_game_map_13_007
// 083   ----------------------------------------
	BYTE	PATT
	 POIN2	end_game_map_13_004
// 084   ----------------------------------------
	BYTE	PATT
	 POIN2	end_game_map_13_005
// 085   ----------------------------------------
	BYTE	PATT
	 POIN2	end_game_map_13_006
// 086   ----------------------------------------
	BYTE	PATT
	 POIN2	end_game_map_13_015
// 087   ----------------------------------------
	BYTE	PATT
	 POIN2	end_game_map_13_006
// 088   ----------------------------------------
	BYTE	PATT
	 POIN2	end_game_map_13_017
// 089   ----------------------------------------
	BYTE	PATT
	 POIN2	end_game_map_13_015
// 090   ----------------------------------------
	BYTE	PATT
	 POIN2	end_game_map_13_019
// 091   ----------------------------------------
	BYTE	PATT
	 POIN2	end_game_map_13_004
// 092   ----------------------------------------
	BYTE	PATT
	 POIN2	end_game_map_13_005
// 093   ----------------------------------------
	BYTE	PATT
	 POIN2	end_game_map_13_006
// 094   ----------------------------------------
	BYTE	PATT
	 POIN2	end_game_map_13_015
// 095   ----------------------------------------
	BYTE	PATT
	 POIN2	end_game_map_13_006
// 096   ----------------------------------------
	BYTE	PATT
	 POIN2	end_game_map_13_025
// 097   ----------------------------------------
	BYTE	PATT
	 POIN2	end_game_map_13_019
// 098   ----------------------------------------
	BYTE	PATT
	 POIN2	end_game_map_13_027
// 099   ----------------------------------------
	BYTE	PATT
	 POIN2	end_game_map_13_028
// 100   ----------------------------------------
	BYTE	PATT
	 POIN2	end_game_map_13_027
// 101   ----------------------------------------
	BYTE	PATT
	 POIN2	end_game_map_13_028
// 102   ----------------------------------------
	BYTE	PATT
	 POIN2	end_game_map_13_031
// 103   ----------------------------------------
	BYTE	PATT
	 POIN2	end_game_map_13_032
// 104   ----------------------------------------
	BYTE	PATT
	 POIN2	end_game_map_13_031
// 105   ----------------------------------------
	BYTE	PATT
	 POIN2	end_game_map_13_032
// 106   ----------------------------------------
	BYTE	W96
// 107   ----------------------------------------
	BYTE	W96
// 108   ----------------------------------------
	BYTE	W96
// 109   ----------------------------------------
	BYTE	W96
// 110   ----------------------------------------
	BYTE	W96
// 111   ----------------------------------------
	BYTE	W96
// 112   ----------------------------------------
	BYTE	W96
// 113   ----------------------------------------
	BYTE	W96
// 114   ----------------------------------------
	BYTE	W96
// 115   ----------------------------------------
	BYTE	W96
// 116   ----------------------------------------
	BYTE	W96
// 117   ----------------------------------------
	BYTE	W96
// 118   ----------------------------------------
	BYTE	W96
// 119   ----------------------------------------
	BYTE	W96
// 120   ----------------------------------------
	BYTE	W96
// 121   ----------------------------------------
	BYTE	PATT
	 POIN2	end_game_map_13_050
// 122   ----------------------------------------
	BYTE	PATT
	 POIN2	end_game_map_13_051
// 123   ----------------------------------------
	BYTE	PATT
	 POIN2	end_game_map_13_052
// 124   ----------------------------------------
	BYTE	PATT
	 POIN2	end_game_map_13_053
// 125   ----------------------------------------
	BYTE	PATT
	 POIN2	end_game_map_13_053
// 126   ----------------------------------------
	BYTE	PATT
	 POIN2	end_game_map_13_055
// 127   ----------------------------------------
	BYTE	PATT
	 POIN2	end_game_map_13_056
// 128   ----------------------------------------
	BYTE	PATT
	 POIN2	end_game_map_13_057
// 129   ----------------------------------------
	BYTE	PATT
	 POIN2	end_game_map_13_058
// 130   ----------------------------------------
	BYTE	PATT
	 POIN2	end_game_map_13_051
// 131   ----------------------------------------
	BYTE	PATT
	 POIN2	end_game_map_13_052
// 132   ----------------------------------------
	BYTE	PATT
	 POIN2	end_game_map_13_053
// 133   ----------------------------------------
	BYTE	PATT
	 POIN2	end_game_map_13_053
// 134   ----------------------------------------
	BYTE	PATT
	 POIN2	end_game_map_13_055
// 135   ----------------------------------------
	BYTE	PATT
	 POIN2	end_game_map_13_056
// 136   ----------------------------------------
	BYTE	PATT
	 POIN2	end_game_map_13_057
// 137   ----------------------------------------
	BYTE	PATT
	 POIN2	end_game_map_13_058
// 138   ----------------------------------------
	BYTE	PATT
	 POIN2	end_game_map_13_027
// 139   ----------------------------------------
	BYTE	PATT
	 POIN2	end_game_map_13_028
// 140   ----------------------------------------
	BYTE	PATT
	 POIN2	end_game_map_13_027
// 141   ----------------------------------------
	BYTE	PATT
	 POIN2	end_game_map_13_028
// 142   ----------------------------------------
	BYTE	PATT
	 POIN2	end_game_map_13_031
// 143   ----------------------------------------
	BYTE	PATT
	 POIN2	end_game_map_13_032
// 144   ----------------------------------------
	BYTE	PATT
	 POIN2	end_game_map_13_031
// 145   ----------------------------------------
	BYTE		N22     Ds1   v072
	BYTE	W24
	BYTE		N21     Ds1   v068
	BYTE	W24
	BYTE		        Dn1 
	BYTE	W24
	BYTE		N21   
	BYTE	W23
	BYTE	FINE

//******************************************************//
	ALIGN 4

end_game_map:
	BYTE	13	// NumTrks
	BYTE	0	// NumBlks
	BYTE	end_game_map_pri	// Priority
	BYTE	end_game_map_rev	// Reverb.

	POIN2	end_game_map_grp

	POIN2	end_game_map_1
	POIN2	end_game_map_2
	POIN2	end_game_map_3
	POIN2	end_game_map_4
	POIN2	end_game_map_5
	POIN2	end_game_map_6
	POIN2	end_game_map_7
	POIN2	end_game_map_8
	POIN2	end_game_map_9
	POIN2	end_game_map_10
	POIN2	end_game_map_11
	POIN2	end_game_map_12
	POIN2	end_game_map_13

	
