//Event file generated from Sappy .s format.
	#include "../MPlayDef.event"

	#define	high_tier_map_grp  voicegroup000
	#define	high_tier_map_pri  0
	#define	high_tier_map_rev  0
	#define	high_tier_map_mvl  60
	#define	high_tier_map_key  0
	#define	high_tier_map_tbs  1
	#define	high_tier_map_exg  0
	#define	high_tier_map_cmp  1

	// .rodata
	//	high_tier_map
	ALIGN 4

//**************** Track 1 (Midi-Chn.1) ****************//

high_tier_map_1:
	BYTE		VOL     60*high_tier_map_mvl/mxv
	BYTE	KEYSH   high_tier_map_key+0
// 000   ----------------------------------------
	BYTE	TEMPO   120*high_tier_map_tbs/2
	BYTE		VOICE   73
	BYTE	W24
// 001   ----------------------------------------
	BYTE	W96
// 002   ----------------------------------------
	BYTE	W96
// 003   ----------------------------------------
	BYTE	W96
// 004   ----------------------------------------
	BYTE	W96
// 005   ----------------------------------------
	BYTE	W96
// 006   ----------------------------------------
	BYTE	W96
// 007   ----------------------------------------
	BYTE	W96
// 008   ----------------------------------------
	BYTE	W96
// 009   ----------------------------------------
	BYTE	W96
// 010   ----------------------------------------
	BYTE	W96
// 011   ----------------------------------------
	BYTE	W96
// 012   ----------------------------------------
	BYTE	W96
// 013   ----------------------------------------
	BYTE	W96
// 014   ----------------------------------------
	BYTE	W96
// 015   ----------------------------------------
	BYTE	W96
// 016   ----------------------------------------
	BYTE	W96
// 017   ----------------------------------------
	BYTE	W96
// 018   ----------------------------------------
	BYTE	W96
// 019   ----------------------------------------
	BYTE	W96
// 020   ----------------------------------------
	BYTE	W96
// 021   ----------------------------------------
	BYTE	W96
// 022   ----------------------------------------
	BYTE	W96
// 023   ----------------------------------------
	BYTE	W96
// 024   ----------------------------------------
	BYTE	W96
// 025   ----------------------------------------
	BYTE	W96
// 026   ----------------------------------------
	BYTE	W96
// 027   ----------------------------------------
	BYTE	W96
// 028   ----------------------------------------
	BYTE	W96
// 029   ----------------------------------------
	BYTE	W96
// 030   ----------------------------------------
	BYTE	W96
// 031   ----------------------------------------
	BYTE	W96
// 032   ----------------------------------------
	BYTE	W96
// 033   ----------------------------------------
	BYTE	W96
// 034   ----------------------------------------
	BYTE	W96
// 035   ----------------------------------------
	BYTE	W96
// 036   ----------------------------------------
	BYTE	W96
// 037   ----------------------------------------
	BYTE	W96
// 038   ----------------------------------------
	BYTE	W96
// 039   ----------------------------------------
	BYTE	W96
// 040   ----------------------------------------
	BYTE	W96
// 041   ----------------------------------------
	BYTE	W96
// 042   ----------------------------------------
	BYTE	W96
// 043   ----------------------------------------
	BYTE	W96
// 044   ----------------------------------------
	BYTE	W96
// 045   ----------------------------------------
	BYTE	W96
// 046   ----------------------------------------
	BYTE	W96
// 047   ----------------------------------------
	BYTE	W96
// 048   ----------------------------------------
	BYTE	W96
// 049   ----------------------------------------
	BYTE	W96
// 050   ----------------------------------------
	BYTE	W96
// 051   ----------------------------------------
	BYTE	W96
// 052   ----------------------------------------
	BYTE	W96
// 053   ----------------------------------------
	BYTE	W96
// 054   ----------------------------------------
	BYTE	W96
// 055   ----------------------------------------
	BYTE	W96
// 056   ----------------------------------------
	BYTE	W96
// 057   ----------------------------------------
	BYTE	W96
// 058   ----------------------------------------
	BYTE	W16
	BYTE		N06     Ds4   v100
	BYTE	W24
	BYTE		N06   
	BYTE	W08
	BYTE		        An4 
	BYTE	W16
	BYTE		        Ds4 
	BYTE	W24
	BYTE		N06   
	BYTE	W08
// 059   ----------------------------------------
	BYTE	W24
	BYTE		N48     Gn4 
	BYTE	W48
	BYTE		N24     Fs4 
	BYTE	W24
// 060   ----------------------------------------
	BYTE		N96     Gn4 
	BYTE	W96
// 061   ----------------------------------------
	BYTE	W24
	BYTE		N72     En4 
	BYTE	W72
// 062   ----------------------------------------
	BYTE	W24
	BYTE		N24     Ds4 
	BYTE	W24
	BYTE		N18     Dn4 
	BYTE	W48
// 063   ----------------------------------------
	BYTE	W96
// 064   ----------------------------------------
	BYTE	W96
// 065   ----------------------------------------
	BYTE	W96
// 066   ----------------------------------------
	BYTE	W96
// 067   ----------------------------------------
	BYTE	W96
// 068   ----------------------------------------
	BYTE	W96
// 069   ----------------------------------------
	BYTE	W96
// 070   ----------------------------------------
	BYTE	W96
// 071   ----------------------------------------
	BYTE	W96
// 072   ----------------------------------------
	BYTE	W60
	BYTE	FINE

//**************** Track 2 (Midi-Chn.2) ****************//

high_tier_map_2:
	BYTE	KEYSH   high_tier_map_key+0
// 000   ----------------------------------------
	BYTE		VOICE   68
	BYTE		VOL     35*high_tier_map_mvl/mxv
	BYTE		PAN     c_v-29
	BYTE	W24
// 001   ----------------------------------------
	BYTE	W96
// 002   ----------------------------------------
	BYTE	W96
// 003   ----------------------------------------
	BYTE	W96
// 004   ----------------------------------------
high_tier_map_2_004:
	BYTE	W12
	BYTE		N03     Cn3   v100
	BYTE		N03     Ds3 
	BYTE	W04
	BYTE		        Cn3 
	BYTE		N03     Ds3 
	BYTE	W04
	BYTE		        Cn3 
	BYTE		N03     Ds3 
	BYTE	W04
	BYTE		N06     Cn3 
	BYTE		N06     Ds3 
	BYTE	W08
	BYTE		        Cn3 
	BYTE		N06     Ds3 
	BYTE	W08
	BYTE		        Cn3 
	BYTE		N06     Ds3 
	BYTE	W08
	BYTE		        Cn3 
	BYTE		N06     Ds3 
	BYTE	W08
	BYTE		        Cn3 
	BYTE		N06     Ds3 
	BYTE	W08
	BYTE		        Cn3 
	BYTE		N06     Ds3 
	BYTE	W08
	BYTE		        Cn3 
	BYTE		N06     Ds3 
	BYTE	W08
	BYTE		        Cn3 
	BYTE		N06     Ds3 
	BYTE	W08
	BYTE		        Cn3 
	BYTE		N06     Ds3 
	BYTE	W08
	BYTE	PEND
// 005   ----------------------------------------
	BYTE	W96
// 006   ----------------------------------------
	BYTE	W96
// 007   ----------------------------------------
	BYTE	W96
// 008   ----------------------------------------
	BYTE	W96
// 009   ----------------------------------------
	BYTE	W96
// 010   ----------------------------------------
	BYTE	W96
// 011   ----------------------------------------
	BYTE	W96
// 012   ----------------------------------------
	BYTE	W96
// 013   ----------------------------------------
	BYTE	W96
// 014   ----------------------------------------
	BYTE	W96
// 015   ----------------------------------------
	BYTE	W96
// 016   ----------------------------------------
	BYTE	W96
// 017   ----------------------------------------
	BYTE	W96
// 018   ----------------------------------------
	BYTE	W96
// 019   ----------------------------------------
	BYTE	W24
	BYTE		N24     Gn3 
	BYTE	W24
	BYTE		N48     Fs3 
	BYTE	W48
// 020   ----------------------------------------
	BYTE	W24
	BYTE		N24     Dn3 
	BYTE	W24
	BYTE		N48     Fs3 
	BYTE	W48
// 021   ----------------------------------------
	BYTE	W24
	BYTE		N24     Fn3 
	BYTE	W24
	BYTE		N48     Gn3 
	BYTE	W48
// 022   ----------------------------------------
	BYTE		N06     Ds4 
	BYTE	W24
	BYTE		N06   
	BYTE	W24
	BYTE		N06   
	BYTE	W24
	BYTE		N06   
	BYTE	W24
// 023   ----------------------------------------
high_tier_map_2_023:
	BYTE	W24
	BYTE		N48     Ds4   v100
	BYTE	W48
	BYTE		N24     Dn4 
	BYTE	W24
	BYTE	PEND
// 024   ----------------------------------------
	BYTE		N96   
	BYTE	W96
// 025   ----------------------------------------
high_tier_map_2_025:
	BYTE	W24
	BYTE		N24     Cn4   v100
	BYTE	W24
	BYTE		N48     As3 
	BYTE	W48
	BYTE	PEND
// 026   ----------------------------------------
high_tier_map_2_026:
	BYTE	W24
	BYTE		N24     Cn4   v100
	BYTE	W24
	BYTE		N18     An3 
	BYTE	W48
	BYTE	PEND
// 027   ----------------------------------------
	BYTE	W96
// 028   ----------------------------------------
	BYTE	W96
// 029   ----------------------------------------
	BYTE	W96
// 030   ----------------------------------------
high_tier_map_2_030:
	BYTE	W64
	BYTE		N08     An3   v112
	BYTE	W08
	BYTE		N16     As3 
	BYTE	W16
	BYTE		N08     Cn4 
	BYTE	W08
	BYTE	PEND
// 031   ----------------------------------------
high_tier_map_2_031:
	BYTE		N07     Dn4   v112
	BYTE	W08
	BYTE		        As3 
	BYTE	W08
	BYTE		N07   
	BYTE	W08
	BYTE		N08     Cn4 
	BYTE	W16
	BYTE		        As3 
	BYTE	W08
	BYTE		N07     Dn4 
	BYTE	W08
	BYTE		        As3 
	BYTE	W08
	BYTE		N07   
	BYTE	W08
	BYTE		N08     Cn4 
	BYTE	W16
	BYTE		        As3 
	BYTE	W08
	BYTE	PEND
// 032   ----------------------------------------
	BYTE		N07     Dn4 
	BYTE	W08
	BYTE		        As3 
	BYTE	W08
	BYTE		N07   
	BYTE	W08
	BYTE		N08     Cn4 
	BYTE	W16
	BYTE		        As3 
	BYTE	W24
	BYTE		N07   
	BYTE	W08
	BYTE		N08     Cn4 
	BYTE	W16
	BYTE		        As3 
	BYTE	W08
// 033   ----------------------------------------
high_tier_map_2_033:
	BYTE		N08     As3   v112
	BYTE	W16
	BYTE		N08   
	BYTE	W08
	BYTE		N24     An3 
	BYTE	W24
	BYTE		N08   
	BYTE	W16
	BYTE		N08   
	BYTE	W08
	BYTE		N24     Gn3 
	BYTE	W24
	BYTE	PEND
// 034   ----------------------------------------
high_tier_map_2_034:
	BYTE		N08     Gn3   v112
	BYTE	W16
	BYTE		N08   
	BYTE	W08
	BYTE		N24     Fn3 
	BYTE	W24
	BYTE		N08   
	BYTE	W16
	BYTE		N08   
	BYTE	W08
	BYTE		N24     Ds3 
	BYTE	W24
	BYTE	PEND
// 035   ----------------------------------------
high_tier_map_2_035:
	BYTE	W24
	BYTE		N12     Gn3   v127
	BYTE		N12     Dn4 
	BYTE	W48
	BYTE		        Fs3 
	BYTE		N12     Dn4 
	BYTE	W24
	BYTE	PEND
// 036   ----------------------------------------
	BYTE	W24
	BYTE		        Gn3 
	BYTE		N12     Dn4 
	BYTE	W24
	BYTE		        Fs3 
	BYTE		N12     Dn4 
	BYTE	W48
// 037   ----------------------------------------
	BYTE	W96
// 038   ----------------------------------------
	BYTE	W96
// 039   ----------------------------------------
	BYTE	W96
// 040   ----------------------------------------
	BYTE	PATT
	 POIN2	high_tier_map_2_004
// 041   ----------------------------------------
	BYTE	W96
// 042   ----------------------------------------
	BYTE	W96
// 043   ----------------------------------------
	BYTE	W96
// 044   ----------------------------------------
	BYTE	W96
// 045   ----------------------------------------
	BYTE	W96
// 046   ----------------------------------------
	BYTE	W96
// 047   ----------------------------------------
	BYTE	W96
// 048   ----------------------------------------
	BYTE	W96
// 049   ----------------------------------------
	BYTE	W96
// 050   ----------------------------------------
	BYTE	W96
// 051   ----------------------------------------
	BYTE	W96
// 052   ----------------------------------------
	BYTE	W96
// 053   ----------------------------------------
	BYTE	W96
// 054   ----------------------------------------
	BYTE	W96
// 055   ----------------------------------------
	BYTE	W96
// 056   ----------------------------------------
	BYTE	W24
	BYTE		N24     Dn3   v100
	BYTE	W72
// 057   ----------------------------------------
	BYTE	W96
// 058   ----------------------------------------
	BYTE		N06     Ds4 
	BYTE	W24
	BYTE		N06   
	BYTE	W24
	BYTE		N06   
	BYTE	W08
	BYTE		        An3 
	BYTE	W16
	BYTE		        Ds4 
	BYTE	W08
	BYTE		        Gs3 
	BYTE	W16
// 059   ----------------------------------------
	BYTE	PATT
	 POIN2	high_tier_map_2_023
// 060   ----------------------------------------
	BYTE		N96     Dn4   v100
	BYTE	W96
// 061   ----------------------------------------
	BYTE	PATT
	 POIN2	high_tier_map_2_025
// 062   ----------------------------------------
	BYTE	PATT
	 POIN2	high_tier_map_2_026
// 063   ----------------------------------------
	BYTE	W96
// 064   ----------------------------------------
	BYTE	W96
// 065   ----------------------------------------
	BYTE	W96
// 066   ----------------------------------------
	BYTE	PATT
	 POIN2	high_tier_map_2_030
// 067   ----------------------------------------
	BYTE	PATT
	 POIN2	high_tier_map_2_031
// 068   ----------------------------------------
	BYTE		N07     Dn4   v112
	BYTE	W08
	BYTE		        As3 
	BYTE	W08
	BYTE		N07   
	BYTE	W08
	BYTE		N08     Cn4 
	BYTE	W16
	BYTE		        As3 
	BYTE	W16
	BYTE		N07   
	BYTE	W08
	BYTE		N07   
	BYTE	W08
	BYTE		N08     Cn4 
	BYTE	W16
	BYTE		        As3 
	BYTE	W08
// 069   ----------------------------------------
	BYTE	PATT
	 POIN2	high_tier_map_2_033
// 070   ----------------------------------------
	BYTE	PATT
	 POIN2	high_tier_map_2_034
// 071   ----------------------------------------
	BYTE	PATT
	 POIN2	high_tier_map_2_035
// 072   ----------------------------------------
	BYTE	W24
	BYTE		N12     Gn3   v127
	BYTE		N12     Dn4 
	BYTE	W24
	BYTE		        Fs3 
	BYTE		N12     Dn4 
	BYTE	W12
	BYTE	FINE

//**************** Track 3 (Midi-Chn.3) ****************//

high_tier_map_3:
	BYTE	KEYSH   high_tier_map_key+0
// 000   ----------------------------------------
	BYTE		VOICE   71
	BYTE		VOL     35*high_tier_map_mvl/mxv
	BYTE		PAN     c_v-29
	BYTE	W24
// 001   ----------------------------------------
	BYTE	W96
// 002   ----------------------------------------
	BYTE	W96
// 003   ----------------------------------------
	BYTE	W96
// 004   ----------------------------------------
	BYTE	W96
// 005   ----------------------------------------
	BYTE	W96
// 006   ----------------------------------------
	BYTE	W96
// 007   ----------------------------------------
	BYTE	W96
// 008   ----------------------------------------
	BYTE	W96
// 009   ----------------------------------------
	BYTE	W96
// 010   ----------------------------------------
	BYTE	W96
// 011   ----------------------------------------
	BYTE	W96
// 012   ----------------------------------------
	BYTE	W96
// 013   ----------------------------------------
	BYTE	W96
// 014   ----------------------------------------
	BYTE	W96
// 015   ----------------------------------------
	BYTE	W96
// 016   ----------------------------------------
	BYTE	W96
// 017   ----------------------------------------
	BYTE	W96
// 018   ----------------------------------------
	BYTE	W96
// 019   ----------------------------------------
high_tier_map_3_019:
	BYTE	W24
	BYTE		N24     Dn3   v100
	BYTE	W24
	BYTE		N48   
	BYTE	W48
	BYTE	PEND
// 020   ----------------------------------------
high_tier_map_3_020:
	BYTE	W24
	BYTE		N24     As2   v100
	BYTE	W24
	BYTE		N48     Dn3 
	BYTE	W48
	BYTE	PEND
// 021   ----------------------------------------
	BYTE	W24
	BYTE		N24   
	BYTE	W72
// 022   ----------------------------------------
	BYTE	W96
// 023   ----------------------------------------
	BYTE	W24
	BYTE		N72     Cn4 
	BYTE	W72
// 024   ----------------------------------------
	BYTE	W72
	BYTE		N24     Fn4 
	BYTE	W24
// 025   ----------------------------------------
	BYTE	W96
// 026   ----------------------------------------
high_tier_map_3_026:
	BYTE	W24
	BYTE		N24     As3   v100
	BYTE	W24
	BYTE		N18     Fs3 
	BYTE	W48
	BYTE	PEND
// 027   ----------------------------------------
	BYTE	W96
// 028   ----------------------------------------
	BYTE	W96
// 029   ----------------------------------------
	BYTE	W96
// 030   ----------------------------------------
	BYTE	W96
// 031   ----------------------------------------
	BYTE	W96
// 032   ----------------------------------------
	BYTE	W96
// 033   ----------------------------------------
	BYTE	W96
// 034   ----------------------------------------
	BYTE	W96
// 035   ----------------------------------------
high_tier_map_3_035:
	BYTE	W24
	BYTE		N12     An3   v127
	BYTE		N12     Dn4 
	BYTE	W48
	BYTE		        An3 
	BYTE		N12     Dn4 
	BYTE	W24
	BYTE	PEND
// 036   ----------------------------------------
	BYTE	W24
	BYTE		        An3 
	BYTE		N12     Dn4 
	BYTE	W24
	BYTE		        An3 
	BYTE		N12     Dn4 
	BYTE	W48
// 037   ----------------------------------------
	BYTE	W96
// 038   ----------------------------------------
	BYTE	W96
// 039   ----------------------------------------
	BYTE	W96
// 040   ----------------------------------------
	BYTE	W96
// 041   ----------------------------------------
	BYTE	W96
// 042   ----------------------------------------
	BYTE	W96
// 043   ----------------------------------------
	BYTE	W96
// 044   ----------------------------------------
	BYTE	W96
// 045   ----------------------------------------
	BYTE	W96
// 046   ----------------------------------------
	BYTE	W96
// 047   ----------------------------------------
	BYTE	W96
// 048   ----------------------------------------
	BYTE	W96
// 049   ----------------------------------------
	BYTE	W96
// 050   ----------------------------------------
	BYTE	W96
// 051   ----------------------------------------
	BYTE	W96
// 052   ----------------------------------------
	BYTE	W96
// 053   ----------------------------------------
	BYTE	W96
// 054   ----------------------------------------
	BYTE	W96
// 055   ----------------------------------------
	BYTE	PATT
	 POIN2	high_tier_map_3_019
// 056   ----------------------------------------
	BYTE	PATT
	 POIN2	high_tier_map_3_020
// 057   ----------------------------------------
	BYTE	W24
	BYTE		N24     Dn3   v100
	BYTE	W72
// 058   ----------------------------------------
	BYTE	W08
	BYTE		N06     Ds3 
	BYTE	W24
	BYTE		N06   
	BYTE	W24
	BYTE		N06   
	BYTE	W08
	BYTE		        An3 
	BYTE	W16
	BYTE		        Ds3 
	BYTE	W08
	BYTE		        Gs3 
	BYTE	W08
// 059   ----------------------------------------
	BYTE	W24
	BYTE		N72     Cn4 
	BYTE	W72
// 060   ----------------------------------------
	BYTE		N24     Gn4 
	BYTE	W24
	BYTE		        Fs4 
	BYTE	W24
	BYTE		N18     Fn4 
	BYTE	W24
	BYTE		N24   
	BYTE	W24
// 061   ----------------------------------------
	BYTE	W24
	BYTE		N72     As3 
	BYTE	W72
// 062   ----------------------------------------
	BYTE	PATT
	 POIN2	high_tier_map_3_026
// 063   ----------------------------------------
	BYTE	W96
// 064   ----------------------------------------
	BYTE	W96
// 065   ----------------------------------------
	BYTE	W96
// 066   ----------------------------------------
	BYTE	W96
// 067   ----------------------------------------
	BYTE	W96
// 068   ----------------------------------------
	BYTE	W96
// 069   ----------------------------------------
	BYTE	W96
// 070   ----------------------------------------
	BYTE	W96
// 071   ----------------------------------------
	BYTE	PATT
	 POIN2	high_tier_map_3_035
// 072   ----------------------------------------
	BYTE	W24
	BYTE		N12     An3   v127
	BYTE		N12     Dn4 
	BYTE	W24
	BYTE		        An3 
	BYTE		N12     Dn4 
	BYTE	W12
	BYTE	FINE

//**************** Track 4 (Midi-Chn.4) ****************//

high_tier_map_4:
	BYTE	KEYSH   high_tier_map_key+0
// 000   ----------------------------------------
	BYTE		VOICE   70
	BYTE		VOL     35*high_tier_map_mvl/mxv
	BYTE		PAN     c_v-29
	BYTE	W24
// 001   ----------------------------------------
	BYTE	W96
// 002   ----------------------------------------
	BYTE	W96
// 003   ----------------------------------------
	BYTE	W96
// 004   ----------------------------------------
	BYTE	W96
// 005   ----------------------------------------
	BYTE	W96
// 006   ----------------------------------------
	BYTE	W96
// 007   ----------------------------------------
	BYTE	W96
// 008   ----------------------------------------
	BYTE	W96
// 009   ----------------------------------------
	BYTE	W96
// 010   ----------------------------------------
	BYTE	W96
// 011   ----------------------------------------
	BYTE	W96
// 012   ----------------------------------------
	BYTE	W96
// 013   ----------------------------------------
	BYTE	W96
// 014   ----------------------------------------
	BYTE	W96
// 015   ----------------------------------------
	BYTE	W96
// 016   ----------------------------------------
	BYTE	W96
// 017   ----------------------------------------
	BYTE	W96
// 018   ----------------------------------------
	BYTE	W96
// 019   ----------------------------------------
high_tier_map_4_019:
	BYTE	W24
	BYTE		N24     As2   v100
	BYTE	W24
	BYTE		N48     An2 
	BYTE	W48
	BYTE	PEND
// 020   ----------------------------------------
high_tier_map_4_020:
	BYTE	W24
	BYTE		N24     Gn2   v100
	BYTE	W24
	BYTE		N48     An2 
	BYTE	W48
	BYTE	PEND
// 021   ----------------------------------------
high_tier_map_4_021:
	BYTE	W24
	BYTE		N24     Bn2   v100
	BYTE	W24
	BYTE		N48     Dn3 
	BYTE	W48
	BYTE	PEND
// 022   ----------------------------------------
	BYTE	W96
// 023   ----------------------------------------
high_tier_map_4_023:
	BYTE	W24
	BYTE		N48     Cn3   v100
	BYTE	W48
	BYTE		N24     An2 
	BYTE	W24
	BYTE	PEND
// 024   ----------------------------------------
	BYTE		N96     As2 
	BYTE	W96
// 025   ----------------------------------------
	BYTE	W24
	BYTE		N72     Cn3 
	BYTE	W72
// 026   ----------------------------------------
high_tier_map_4_026:
	BYTE	W24
	BYTE		N24     Fn2   v100
	BYTE	W24
	BYTE		N18     Dn2 
	BYTE	W48
	BYTE	PEND
// 027   ----------------------------------------
high_tier_map_4_027:
	BYTE		N06     Cn2   v112
	BYTE	W08
	BYTE		        Ds2 
	BYTE	W08
	BYTE		        Gn2 
	BYTE	W08
	BYTE		        Cn3 
	BYTE	W08
	BYTE		        Gn2 
	BYTE	W08
	BYTE		        Cn3 
	BYTE	W08
	BYTE		        Gn2 
	BYTE	W08
	BYTE		        Ds2 
	BYTE	W08
	BYTE		        Gn2 
	BYTE	W08
	BYTE		        Ds2 
	BYTE	W08
	BYTE		        Cn2 
	BYTE	W08
	BYTE		        Ds2 
	BYTE	W08
	BYTE	PEND
// 028   ----------------------------------------
high_tier_map_4_028:
	BYTE		N06     Fn2   v112
	BYTE	W08
	BYTE		        An2 
	BYTE	W08
	BYTE		        Fn2 
	BYTE	W08
	BYTE		        Ds2 
	BYTE	W08
	BYTE		        Cn2 
	BYTE	W08
	BYTE		        Ds2 
	BYTE	W08
	BYTE		        Cn2 
	BYTE	W08
	BYTE		        An1 
	BYTE	W08
	BYTE		        Cn2 
	BYTE	W08
	BYTE		        Fn1 
	BYTE	W08
	BYTE		        An1 
	BYTE	W08
	BYTE		        Cn2 
	BYTE	W08
	BYTE	PEND
// 029   ----------------------------------------
high_tier_map_4_029:
	BYTE		N06     As1   v112
	BYTE	W08
	BYTE		        Dn2 
	BYTE	W08
	BYTE		        Fn2 
	BYTE	W08
	BYTE		        As2 
	BYTE	W08
	BYTE		        Fn2 
	BYTE	W08
	BYTE		        As2 
	BYTE	W08
	BYTE		        Fn2 
	BYTE	W08
	BYTE		        Dn2 
	BYTE	W08
	BYTE		        Fn2 
	BYTE	W08
	BYTE		        Dn2 
	BYTE	W08
	BYTE		        As1 
	BYTE	W08
	BYTE		        Dn2 
	BYTE	W08
	BYTE	PEND
// 030   ----------------------------------------
high_tier_map_4_030:
	BYTE		N06     Ds2   v112
	BYTE	W08
	BYTE		        Gn2 
	BYTE	W08
	BYTE		        As2 
	BYTE	W08
	BYTE		        Ds3 
	BYTE	W08
	BYTE		        As2 
	BYTE	W08
	BYTE		        Gn2 
	BYTE	W08
	BYTE		        Ds2 
	BYTE	W08
	BYTE		        Gn2 
	BYTE	W08
	BYTE		        As1 
	BYTE	W08
	BYTE		        Ds2 
	BYTE	W08
	BYTE		        Gn2 
	BYTE	W08
	BYTE		        Ds2 
	BYTE	W08
	BYTE	PEND
// 031   ----------------------------------------
	BYTE	W96
// 032   ----------------------------------------
	BYTE	W96
// 033   ----------------------------------------
	BYTE	W96
// 034   ----------------------------------------
	BYTE	W96
// 035   ----------------------------------------
high_tier_map_4_035:
	BYTE	W24
	BYTE		N12     Gn1   v127
	BYTE	W48
	BYTE		        Fs1 
	BYTE	W24
	BYTE	PEND
// 036   ----------------------------------------
	BYTE	W24
	BYTE		        Gn1 
	BYTE	W24
	BYTE		        Fs1 
	BYTE	W48
// 037   ----------------------------------------
	BYTE	W96
// 038   ----------------------------------------
	BYTE	W96
// 039   ----------------------------------------
	BYTE	W96
// 040   ----------------------------------------
	BYTE	W96
// 041   ----------------------------------------
	BYTE	W96
// 042   ----------------------------------------
	BYTE	W96
// 043   ----------------------------------------
	BYTE	W96
// 044   ----------------------------------------
	BYTE	W96
// 045   ----------------------------------------
	BYTE	W96
// 046   ----------------------------------------
	BYTE	W96
// 047   ----------------------------------------
	BYTE	W96
// 048   ----------------------------------------
	BYTE	W96
// 049   ----------------------------------------
	BYTE	W96
// 050   ----------------------------------------
	BYTE	W96
// 051   ----------------------------------------
	BYTE	W96
// 052   ----------------------------------------
	BYTE	W96
// 053   ----------------------------------------
	BYTE	W96
// 054   ----------------------------------------
	BYTE	W96
// 055   ----------------------------------------
	BYTE	PATT
	 POIN2	high_tier_map_4_019
// 056   ----------------------------------------
	BYTE	PATT
	 POIN2	high_tier_map_4_020
// 057   ----------------------------------------
	BYTE	PATT
	 POIN2	high_tier_map_4_021
// 058   ----------------------------------------
	BYTE		N06     Gn2   v100
	BYTE	W08
	BYTE		        Cn2 
	BYTE	W08
	BYTE		        Ds2 
	BYTE	W08
	BYTE		        Gs2 
	BYTE	W08
	BYTE		        Cn2 
	BYTE	W08
	BYTE		        Ds2 
	BYTE	W08
	BYTE		        An2 
	BYTE	W08
	BYTE		        Cn2 
	BYTE	W08
	BYTE		        Ds2 
	BYTE	W08
	BYTE		        Gs2 
	BYTE	W08
	BYTE		        Cn2 
	BYTE	W08
	BYTE		        Ds2 
	BYTE	W08
// 059   ----------------------------------------
	BYTE	PATT
	 POIN2	high_tier_map_4_023
// 060   ----------------------------------------
	BYTE		N96     As2   v100
	BYTE	W96
// 061   ----------------------------------------
	BYTE	W24
	BYTE		N72     Cn3 
	BYTE	W72
// 062   ----------------------------------------
	BYTE	PATT
	 POIN2	high_tier_map_4_026
// 063   ----------------------------------------
	BYTE	PATT
	 POIN2	high_tier_map_4_027
// 064   ----------------------------------------
	BYTE	PATT
	 POIN2	high_tier_map_4_028
// 065   ----------------------------------------
	BYTE	PATT
	 POIN2	high_tier_map_4_029
// 066   ----------------------------------------
	BYTE	PATT
	 POIN2	high_tier_map_4_030
// 067   ----------------------------------------
	BYTE	W96
// 068   ----------------------------------------
	BYTE	W96
// 069   ----------------------------------------
	BYTE	W96
// 070   ----------------------------------------
	BYTE	W96
// 071   ----------------------------------------
	BYTE	PATT
	 POIN2	high_tier_map_4_035
// 072   ----------------------------------------
	BYTE	W24
	BYTE		N12     Gn1   v127
	BYTE	W24
	BYTE		        Fs1 
	BYTE	W12
	BYTE	FINE

//**************** Track 5 (Midi-Chn.5) ****************//

high_tier_map_5:
	BYTE	KEYSH   high_tier_map_key+0
// 000   ----------------------------------------
	BYTE		VOICE   60
	BYTE		VOL     35*high_tier_map_mvl/mxv
	BYTE		PAN     c_v-29
	BYTE	W24
// 001   ----------------------------------------
high_tier_map_5_001:
	BYTE		N19     Dn3   v100
	BYTE	W24
	BYTE		N19   
	BYTE	W24
	BYTE		N19   
	BYTE	W24
	BYTE		N19   
	BYTE	W24
	BYTE	PEND
// 002   ----------------------------------------
	BYTE	PATT
	 POIN2	high_tier_map_5_001
// 003   ----------------------------------------
high_tier_map_5_003:
	BYTE		N19     Bn2   v100
	BYTE		N19     Dn3 
	BYTE	W24
	BYTE		        Cn3 
	BYTE		N19     Dn3 
	BYTE	W24
	BYTE		N19   
	BYTE		N19     Fn3 
	BYTE	W24
	BYTE		        Bn2 
	BYTE		N19     Dn3 
	BYTE	W24
	BYTE	PEND
// 004   ----------------------------------------
high_tier_map_5_004:
	BYTE		N09     Gn2   v100
	BYTE		N09     Cn3 
	BYTE	W12
	BYTE		N03     Cn3   v112
	BYTE		N03     Ds3 
	BYTE	W04
	BYTE		        Cn3 
	BYTE		N03     Ds3 
	BYTE	W04
	BYTE		        Cn3 
	BYTE		N03     Ds3 
	BYTE	W04
	BYTE		N06     Cn3 
	BYTE		N06     Ds3 
	BYTE	W08
	BYTE		        Cn3 
	BYTE		N06     Ds3 
	BYTE	W08
	BYTE		        Cn3 
	BYTE		N06     Ds3 
	BYTE	W08
	BYTE		        Cn3 
	BYTE		N06     Ds3 
	BYTE	W08
	BYTE		        Cn3 
	BYTE		N06     Ds3 
	BYTE	W08
	BYTE		        Cn3 
	BYTE		N06     Ds3 
	BYTE	W08
	BYTE		        Cn3 
	BYTE		N06     Ds3 
	BYTE	W08
	BYTE		        Cn3 
	BYTE		N06     Ds3 
	BYTE	W08
	BYTE		        Cn3 
	BYTE		N06     Ds3 
	BYTE	W08
	BYTE	PEND
// 005   ----------------------------------------
high_tier_map_5_005:
	BYTE		N15     Gn2   v100
	BYTE		N15     Cn3 
	BYTE	W24
	BYTE		        Gn2 
	BYTE		N15     Cn3 
	BYTE	W24
	BYTE		        Gn2 
	BYTE		N15     Cn3 
	BYTE	W24
	BYTE		        An2 
	BYTE		N15     Dn3 
	BYTE	W24
	BYTE	PEND
// 006   ----------------------------------------
high_tier_map_5_006:
	BYTE		N15     As2   v100
	BYTE		N15     Dn3 
	BYTE	W24
	BYTE		        As2 
	BYTE		N15     Dn3 
	BYTE	W24
	BYTE		        As2 
	BYTE		N15     Dn3 
	BYTE	W24
	BYTE		        As2 
	BYTE		N15     Dn3 
	BYTE	W24
	BYTE	PEND
// 007   ----------------------------------------
high_tier_map_5_007:
	BYTE		N15     Gn2   v100
	BYTE		N15     Cn3 
	BYTE	W24
	BYTE		        Gn2 
	BYTE		N15     Cn3 
	BYTE	W24
	BYTE		        Gn2 
	BYTE		N15     As2 
	BYTE	W24
	BYTE		        Gn2 
	BYTE		N15     As2 
	BYTE	W24
	BYTE	PEND
// 008   ----------------------------------------
high_tier_map_5_008:
	BYTE		N15     As2   v100
	BYTE		N15     Cn3 
	BYTE	W24
	BYTE		        As2 
	BYTE		N15     Cn3 
	BYTE	W24
	BYTE		        An2 
	BYTE		N15     Dn3 
	BYTE	W24
	BYTE		N19     Dn3   v127
	BYTE	W24
	BYTE	PEND
// 009   ----------------------------------------
high_tier_map_5_009:
	BYTE		N60     Ds3   v127
	BYTE	W72
	BYTE		N19     Gn2 
	BYTE	W24
	BYTE	PEND
// 010   ----------------------------------------
high_tier_map_5_010:
	BYTE		N60     An2   v127
	BYTE	W64
	BYTE		N08     Gn3 
	BYTE	W08
	BYTE		N12     Fn3 
	BYTE	W16
	BYTE		N06     Ds3 
	BYTE	W08
	BYTE	PEND
// 011   ----------------------------------------
high_tier_map_5_011:
	BYTE		N60     Dn3   v127
	BYTE	W72
	BYTE		N19     Fn2 
	BYTE	W24
	BYTE	PEND
// 012   ----------------------------------------
	BYTE		N60     Gn2 
	BYTE	W96
// 013   ----------------------------------------
	BYTE		N48     En3   v100
	BYTE	W48
	BYTE		        Ds3 
	BYTE	W48
// 014   ----------------------------------------
high_tier_map_5_014:
	BYTE		N48     Dn3   v100
	BYTE	W48
	BYTE		        Cs3 
	BYTE	W48
	BYTE	PEND
// 015   ----------------------------------------
high_tier_map_5_015:
	BYTE		N48     Cn3   v100
	BYTE	W48
	BYTE		        Bn2 
	BYTE	W48
	BYTE	PEND
// 016   ----------------------------------------
high_tier_map_5_016:
	BYTE		N48     As2   v100
	BYTE	W48
	BYTE		        An2 
	BYTE	W48
	BYTE	PEND
// 017   ----------------------------------------
high_tier_map_5_017:
	BYTE	W24
	BYTE		N12     An2   v112
	BYTE		N12     Dn3 
	BYTE	W48
	BYTE		        An2 
	BYTE		N12     Dn3 
	BYTE	W24
	BYTE	PEND
// 018   ----------------------------------------
high_tier_map_5_018:
	BYTE	W24
	BYTE		N12     An2   v112
	BYTE		N12     Dn3 
	BYTE	W24
	BYTE		        An2 
	BYTE		N12     Dn3 
	BYTE	W48
	BYTE	PEND
// 019   ----------------------------------------
	BYTE	W96
// 020   ----------------------------------------
	BYTE	W96
// 021   ----------------------------------------
	BYTE	W96
// 022   ----------------------------------------
	BYTE	W96
// 023   ----------------------------------------
	BYTE	W96
// 024   ----------------------------------------
	BYTE	W96
// 025   ----------------------------------------
	BYTE	W96
// 026   ----------------------------------------
	BYTE	W96
// 027   ----------------------------------------
high_tier_map_5_027:
	BYTE	W24
	BYTE		N06     Cn3   v100
	BYTE	W08
	BYTE		N06   
	BYTE	W08
	BYTE		N06   
	BYTE	W08
	BYTE		N19   
	BYTE	W48
	BYTE	PEND
// 028   ----------------------------------------
	BYTE	PATT
	 POIN2	high_tier_map_5_027
// 029   ----------------------------------------
high_tier_map_5_029:
	BYTE	W24
	BYTE		N06     Fn2   v100
	BYTE		N06     As2 
	BYTE	W08
	BYTE		        Fn2 
	BYTE		N06     As2 
	BYTE	W08
	BYTE		        Fn2 
	BYTE		N06     As2 
	BYTE	W08
	BYTE		N19     Fn2 
	BYTE		N19     As2 
	BYTE	W48
	BYTE	PEND
// 030   ----------------------------------------
high_tier_map_5_030:
	BYTE	W24
	BYTE		N06     Gn2   v100
	BYTE		N06     As2 
	BYTE	W08
	BYTE		        Gn2 
	BYTE		N06     As2 
	BYTE	W08
	BYTE		        Gn2 
	BYTE		N06     As2 
	BYTE	W08
	BYTE		N19     Gn2 
	BYTE		N19     As2 
	BYTE	W48
	BYTE	PEND
// 031   ----------------------------------------
high_tier_map_5_031:
	BYTE		N48     As2   v080
	BYTE		N48     En3 
	BYTE	W48
	BYTE		        As2 
	BYTE		N48     Ds3 
	BYTE	W48
	BYTE	PEND
// 032   ----------------------------------------
high_tier_map_5_032:
	BYTE		N48     As2   v080
	BYTE		N48     Dn3 
	BYTE	W48
	BYTE		        Gn2 
	BYTE		N48     Cs3 
	BYTE	W48
	BYTE	PEND
// 033   ----------------------------------------
high_tier_map_5_033:
	BYTE		N48     Gn2   v080
	BYTE		N48     Cn3 
	BYTE	W48
	BYTE		        Gn2 
	BYTE		N48     Bn2 
	BYTE	W48
	BYTE	PEND
// 034   ----------------------------------------
high_tier_map_5_034:
	BYTE		N48     Fn2   v080
	BYTE		N48     As2 
	BYTE	W48
	BYTE		        Fn2 
	BYTE		N48     An2 
	BYTE	W48
	BYTE	PEND
// 035   ----------------------------------------
high_tier_map_5_035:
	BYTE	W24
	BYTE		N12     An2   v127
	BYTE		N12     Dn3 
	BYTE	W48
	BYTE		        An2 
	BYTE		N12     Dn3 
	BYTE	W24
	BYTE	PEND
// 036   ----------------------------------------
	BYTE	W24
	BYTE		        An2 
	BYTE		N12     Dn3 
	BYTE	W24
	BYTE		        An2 
	BYTE		N12     Dn3 
	BYTE	W48
// 037   ----------------------------------------
	BYTE	PATT
	 POIN2	high_tier_map_5_001
// 038   ----------------------------------------
	BYTE	PATT
	 POIN2	high_tier_map_5_001
// 039   ----------------------------------------
	BYTE	PATT
	 POIN2	high_tier_map_5_003
// 040   ----------------------------------------
	BYTE	PATT
	 POIN2	high_tier_map_5_004
// 041   ----------------------------------------
	BYTE	PATT
	 POIN2	high_tier_map_5_005
// 042   ----------------------------------------
	BYTE	PATT
	 POIN2	high_tier_map_5_006
// 043   ----------------------------------------
	BYTE	PATT
	 POIN2	high_tier_map_5_007
// 044   ----------------------------------------
	BYTE	PATT
	 POIN2	high_tier_map_5_008
// 045   ----------------------------------------
	BYTE	PATT
	 POIN2	high_tier_map_5_009
// 046   ----------------------------------------
	BYTE	PATT
	 POIN2	high_tier_map_5_010
// 047   ----------------------------------------
	BYTE	PATT
	 POIN2	high_tier_map_5_011
// 048   ----------------------------------------
	BYTE		N60     Gn2   v127
	BYTE	W96
// 049   ----------------------------------------
	BYTE		N48     En3   v100
	BYTE	W48
	BYTE		        Ds3 
	BYTE	W48
// 050   ----------------------------------------
	BYTE	PATT
	 POIN2	high_tier_map_5_014
// 051   ----------------------------------------
	BYTE	PATT
	 POIN2	high_tier_map_5_015
// 052   ----------------------------------------
	BYTE	PATT
	 POIN2	high_tier_map_5_016
// 053   ----------------------------------------
	BYTE	PATT
	 POIN2	high_tier_map_5_017
// 054   ----------------------------------------
	BYTE	PATT
	 POIN2	high_tier_map_5_018
// 055   ----------------------------------------
	BYTE	W96
// 056   ----------------------------------------
	BYTE	W96
// 057   ----------------------------------------
	BYTE	W96
// 058   ----------------------------------------
	BYTE	W96
// 059   ----------------------------------------
	BYTE	W96
// 060   ----------------------------------------
	BYTE	W96
// 061   ----------------------------------------
	BYTE	W96
// 062   ----------------------------------------
	BYTE	W96
// 063   ----------------------------------------
	BYTE	PATT
	 POIN2	high_tier_map_5_027
// 064   ----------------------------------------
	BYTE	PATT
	 POIN2	high_tier_map_5_027
// 065   ----------------------------------------
	BYTE	PATT
	 POIN2	high_tier_map_5_029
// 066   ----------------------------------------
	BYTE	PATT
	 POIN2	high_tier_map_5_030
// 067   ----------------------------------------
	BYTE	PATT
	 POIN2	high_tier_map_5_031
// 068   ----------------------------------------
	BYTE	PATT
	 POIN2	high_tier_map_5_032
// 069   ----------------------------------------
	BYTE	PATT
	 POIN2	high_tier_map_5_033
// 070   ----------------------------------------
	BYTE	PATT
	 POIN2	high_tier_map_5_034
// 071   ----------------------------------------
	BYTE	PATT
	 POIN2	high_tier_map_5_035
// 072   ----------------------------------------
	BYTE	W24
	BYTE		N12     An2   v127
	BYTE		N12     Dn3 
	BYTE	W24
	BYTE		        An2 
	BYTE		N12     Dn3 
	BYTE	W12
	BYTE	FINE

//**************** Track 6 (Midi-Chn.6) ****************//

high_tier_map_6:
	BYTE	KEYSH   high_tier_map_key+0
// 000   ----------------------------------------
	BYTE		VOICE   60
	BYTE		VOL     35*high_tier_map_mvl/mxv
	BYTE		PAN     c_v-29
	BYTE	W24
// 001   ----------------------------------------
high_tier_map_6_001:
	BYTE		N19     Gn2   v100
	BYTE		N19     As2 
	BYTE	W24
	BYTE		        Gn2 
	BYTE		N19     As2 
	BYTE	W24
	BYTE		        Fs2 
	BYTE		N19     An2 
	BYTE	W24
	BYTE		        Fs2 
	BYTE		N19     An2 
	BYTE	W24
	BYTE	PEND
// 002   ----------------------------------------
	BYTE	PATT
	 POIN2	high_tier_map_6_001
// 003   ----------------------------------------
high_tier_map_6_003:
	BYTE		N19     Gn2   v100
	BYTE	W24
	BYTE		        An2 
	BYTE	W24
	BYTE		        Bn2 
	BYTE	W24
	BYTE		        Gn2 
	BYTE	W24
	BYTE	PEND
// 004   ----------------------------------------
high_tier_map_6_004:
	BYTE		N09     Ds2   v100
	BYTE	W12
	BYTE		N03     Gn2   v112
	BYTE	W04
	BYTE		N03   
	BYTE	W04
	BYTE		N03   
	BYTE	W04
	BYTE		N06     Gs2 
	BYTE	W08
	BYTE		N06   
	BYTE	W08
	BYTE		N06   
	BYTE	W08
	BYTE		        An2 
	BYTE	W08
	BYTE		N06   
	BYTE	W08
	BYTE		N06   
	BYTE	W08
	BYTE		        Gs2 
	BYTE	W08
	BYTE		N06   
	BYTE	W08
	BYTE		N06   
	BYTE	W08
	BYTE	PEND
// 005   ----------------------------------------
high_tier_map_6_005:
	BYTE		N15     Ds2   v100
	BYTE	W24
	BYTE		N15   
	BYTE	W24
	BYTE		N15   
	BYTE	W24
	BYTE		        Fs2 
	BYTE	W24
	BYTE	PEND
// 006   ----------------------------------------
high_tier_map_6_006:
	BYTE		N15     Gn2   v100
	BYTE	W24
	BYTE		N15   
	BYTE	W24
	BYTE		        Fn2 
	BYTE	W24
	BYTE		N15   
	BYTE	W24
	BYTE	PEND
// 007   ----------------------------------------
high_tier_map_6_007:
	BYTE		N15     En2   v100
	BYTE	W24
	BYTE		N15   
	BYTE	W24
	BYTE		N15   
	BYTE	W24
	BYTE		N15   
	BYTE	W24
	BYTE	PEND
// 008   ----------------------------------------
high_tier_map_6_008:
	BYTE		N15     Fn2   v100
	BYTE	W24
	BYTE		N15   
	BYTE	W24
	BYTE		        Fs2 
	BYTE	W24
	BYTE		N19     Dn3   v127
	BYTE	W24
	BYTE	PEND
// 009   ----------------------------------------
high_tier_map_6_009:
	BYTE		N60     Ds3   v127
	BYTE	W72
	BYTE		N19     Gn2 
	BYTE	W24
	BYTE	PEND
// 010   ----------------------------------------
high_tier_map_6_010:
	BYTE		N60     An2   v127
	BYTE	W64
	BYTE		N08     Ds3 
	BYTE	W08
	BYTE		N12     Dn3 
	BYTE	W16
	BYTE		N06     Cn3 
	BYTE	W08
	BYTE	PEND
// 011   ----------------------------------------
high_tier_map_6_011:
	BYTE		N60     As2   v127
	BYTE	W72
	BYTE		N19     Fn2 
	BYTE	W24
	BYTE	PEND
// 012   ----------------------------------------
	BYTE		N60     Gn2 
	BYTE	W96
// 013   ----------------------------------------
high_tier_map_6_013:
	BYTE		N48     As2   v100
	BYTE	W48
	BYTE		N48   
	BYTE	W48
	BYTE	PEND
// 014   ----------------------------------------
high_tier_map_6_014:
	BYTE		N48     As2   v100
	BYTE	W48
	BYTE		        Gn2 
	BYTE	W48
	BYTE	PEND
// 015   ----------------------------------------
high_tier_map_6_015:
	BYTE		N48     Gn2   v100
	BYTE	W48
	BYTE		N48   
	BYTE	W48
	BYTE	PEND
// 016   ----------------------------------------
high_tier_map_6_016:
	BYTE		N48     Fn2   v100
	BYTE	W48
	BYTE		N48   
	BYTE	W48
	BYTE	PEND
// 017   ----------------------------------------
high_tier_map_6_017:
	BYTE	W24
	BYTE		N12     Gn2   v112
	BYTE	W48
	BYTE		        Fs2 
	BYTE	W24
	BYTE	PEND
// 018   ----------------------------------------
high_tier_map_6_018:
	BYTE	W24
	BYTE		N12     Gn2   v112
	BYTE	W24
	BYTE		        Fs2 
	BYTE	W48
	BYTE	PEND
// 019   ----------------------------------------
	BYTE	W96
// 020   ----------------------------------------
	BYTE	W96
// 021   ----------------------------------------
	BYTE	W96
// 022   ----------------------------------------
	BYTE	W96
// 023   ----------------------------------------
	BYTE	W96
// 024   ----------------------------------------
	BYTE	W96
// 025   ----------------------------------------
	BYTE	W96
// 026   ----------------------------------------
	BYTE	W96
// 027   ----------------------------------------
high_tier_map_6_027:
	BYTE	W24
	BYTE		N06     Ds2   v100
	BYTE		N06     Gn2 
	BYTE	W08
	BYTE		        Ds2 
	BYTE		N06     Gn2 
	BYTE	W08
	BYTE		        Ds2 
	BYTE		N06     Gn2 
	BYTE	W08
	BYTE		N19     Ds2 
	BYTE		N19     Gn2 
	BYTE	W48
	BYTE	PEND
// 028   ----------------------------------------
high_tier_map_6_028:
	BYTE	W24
	BYTE		N06     Fn2   v100
	BYTE		N06     An2 
	BYTE	W08
	BYTE		        Fn2 
	BYTE		N06     An2 
	BYTE	W08
	BYTE		        Fn2 
	BYTE		N06     An2 
	BYTE	W08
	BYTE		N19     Fn2 
	BYTE		N19     An2 
	BYTE	W48
	BYTE	PEND
// 029   ----------------------------------------
high_tier_map_6_029:
	BYTE	W24
	BYTE		N06     Dn2   v100
	BYTE	W08
	BYTE		N06   
	BYTE	W08
	BYTE		N06   
	BYTE	W08
	BYTE		N19   
	BYTE	W48
	BYTE	PEND
// 030   ----------------------------------------
high_tier_map_6_030:
	BYTE	W24
	BYTE		N06     Ds2   v100
	BYTE	W08
	BYTE		N06   
	BYTE	W08
	BYTE		N06   
	BYTE	W08
	BYTE		N19   
	BYTE	W48
	BYTE	PEND
// 031   ----------------------------------------
high_tier_map_6_031:
	BYTE		N48     Gn2   v080
	BYTE	W48
	BYTE		        Fs2 
	BYTE	W48
	BYTE	PEND
// 032   ----------------------------------------
high_tier_map_6_032:
	BYTE		N48     Fn2   v080
	BYTE	W48
	BYTE		        En2 
	BYTE	W48
	BYTE	PEND
// 033   ----------------------------------------
high_tier_map_6_033:
	BYTE		N48     Ds2   v080
	BYTE	W48
	BYTE		        Dn2 
	BYTE	W48
	BYTE	PEND
// 034   ----------------------------------------
high_tier_map_6_034:
	BYTE		N48     Cs2   v080
	BYTE	W48
	BYTE		        Cn2 
	BYTE	W48
	BYTE	PEND
// 035   ----------------------------------------
high_tier_map_6_035:
	BYTE	W24
	BYTE		N12     Gn2   v127
	BYTE	W48
	BYTE		        Fs2 
	BYTE	W24
	BYTE	PEND
// 036   ----------------------------------------
	BYTE	W24
	BYTE		        Gn2 
	BYTE	W24
	BYTE		        Fs2 
	BYTE	W48
// 037   ----------------------------------------
	BYTE	PATT
	 POIN2	high_tier_map_6_001
// 038   ----------------------------------------
	BYTE	PATT
	 POIN2	high_tier_map_6_001
// 039   ----------------------------------------
	BYTE	PATT
	 POIN2	high_tier_map_6_003
// 040   ----------------------------------------
	BYTE	PATT
	 POIN2	high_tier_map_6_004
// 041   ----------------------------------------
	BYTE	PATT
	 POIN2	high_tier_map_6_005
// 042   ----------------------------------------
	BYTE	PATT
	 POIN2	high_tier_map_6_006
// 043   ----------------------------------------
	BYTE	PATT
	 POIN2	high_tier_map_6_007
// 044   ----------------------------------------
	BYTE	PATT
	 POIN2	high_tier_map_6_008
// 045   ----------------------------------------
	BYTE	PATT
	 POIN2	high_tier_map_6_009
// 046   ----------------------------------------
	BYTE	PATT
	 POIN2	high_tier_map_6_010
// 047   ----------------------------------------
	BYTE	PATT
	 POIN2	high_tier_map_6_011
// 048   ----------------------------------------
	BYTE		N60     Gn2   v127
	BYTE	W96
// 049   ----------------------------------------
	BYTE	PATT
	 POIN2	high_tier_map_6_013
// 050   ----------------------------------------
	BYTE	PATT
	 POIN2	high_tier_map_6_014
// 051   ----------------------------------------
	BYTE	PATT
	 POIN2	high_tier_map_6_015
// 052   ----------------------------------------
	BYTE	PATT
	 POIN2	high_tier_map_6_016
// 053   ----------------------------------------
	BYTE	PATT
	 POIN2	high_tier_map_6_017
// 054   ----------------------------------------
	BYTE	PATT
	 POIN2	high_tier_map_6_018
// 055   ----------------------------------------
	BYTE	W96
// 056   ----------------------------------------
	BYTE	W96
// 057   ----------------------------------------
	BYTE	W96
// 058   ----------------------------------------
	BYTE	W96
// 059   ----------------------------------------
	BYTE	W96
// 060   ----------------------------------------
	BYTE	W96
// 061   ----------------------------------------
	BYTE	W96
// 062   ----------------------------------------
	BYTE	W96
// 063   ----------------------------------------
	BYTE	PATT
	 POIN2	high_tier_map_6_027
// 064   ----------------------------------------
	BYTE	PATT
	 POIN2	high_tier_map_6_028
// 065   ----------------------------------------
	BYTE	PATT
	 POIN2	high_tier_map_6_029
// 066   ----------------------------------------
	BYTE	PATT
	 POIN2	high_tier_map_6_030
// 067   ----------------------------------------
	BYTE	PATT
	 POIN2	high_tier_map_6_031
// 068   ----------------------------------------
	BYTE	PATT
	 POIN2	high_tier_map_6_032
// 069   ----------------------------------------
	BYTE	PATT
	 POIN2	high_tier_map_6_033
// 070   ----------------------------------------
	BYTE	PATT
	 POIN2	high_tier_map_6_034
// 071   ----------------------------------------
	BYTE	PATT
	 POIN2	high_tier_map_6_035
// 072   ----------------------------------------
	BYTE	W24
	BYTE		N12     Gn2   v127
	BYTE	W24
	BYTE		        Fs2 
	BYTE	W12
	BYTE	FINE

//**************** Track 7 (Midi-Chn.7) ****************//

high_tier_map_7:
	BYTE	KEYSH   high_tier_map_key+0
// 000   ----------------------------------------
	BYTE		VOICE   56
	BYTE		VOL     35*high_tier_map_mvl/mxv
	BYTE		PAN     c_v-29
	BYTE		N06     Dn3   v112
	BYTE	W08
	BYTE		N06   
	BYTE	W08
	BYTE		N06   
	BYTE	W08
// 001   ----------------------------------------
high_tier_map_7_001:
	BYTE		N32     Gn3   v112
	BYTE	W40
	BYTE		N03     An3 
	BYTE	W04
	BYTE		        As3 
	BYTE	W04
	BYTE		N32     An3 
	BYTE	W40
	BYTE		N03     As3 
	BYTE	W04
	BYTE		        Cn4 
	BYTE	W04
	BYTE	PEND
// 002   ----------------------------------------
high_tier_map_7_002:
	BYTE		N32     As3   v112
	BYTE	W40
	BYTE		N03     An3 
	BYTE	W04
	BYTE		        Gn3 
	BYTE	W04
	BYTE		N12     An3 
	BYTE	W24
	BYTE		N08     Dn3 
	BYTE	W16
	BYTE		N06   
	BYTE	W08
	BYTE	PEND
// 003   ----------------------------------------
high_tier_map_7_003:
	BYTE		N06     Gn3   v112
	BYTE	W08
	BYTE		        Bn3 
	BYTE	W08
	BYTE		        Dn4 
	BYTE	W08
	BYTE		N36     Fn4 
	BYTE	W48
	BYTE		N06   
	BYTE	W08
	BYTE		        Ds4 
	BYTE	W08
	BYTE		        Dn4 
	BYTE	W08
	BYTE	PEND
// 004   ----------------------------------------
high_tier_map_7_004:
	BYTE		N56     Cn4   v112
	BYTE	W72
	BYTE		N06   
	BYTE	W08
	BYTE		N06   
	BYTE	W08
	BYTE		        Dn4 
	BYTE	W08
	BYTE	PEND
// 005   ----------------------------------------
high_tier_map_7_005:
	BYTE		N56     Ds4   v112
	BYTE	W72
	BYTE		N06     An3 
	BYTE	W08
	BYTE		        Dn4 
	BYTE	W08
	BYTE		        Cn4 
	BYTE	W08
	BYTE	PEND
// 006   ----------------------------------------
high_tier_map_7_006:
	BYTE		N56     As3   v112
	BYTE	W72
	BYTE		N06   
	BYTE	W08
	BYTE		N06   
	BYTE	W08
	BYTE		        Dn4 
	BYTE	W08
	BYTE	PEND
// 007   ----------------------------------------
high_tier_map_7_007:
	BYTE		N12     Cn4   v112
	BYTE	W24
	BYTE		N06     Gn3 
	BYTE	W08
	BYTE		N06   
	BYTE	W08
	BYTE		N06   
	BYTE	W08
	BYTE		N19   
	BYTE	W24
	BYTE		        As3 
	BYTE	W24
	BYTE	PEND
// 008   ----------------------------------------
high_tier_map_7_008:
	BYTE		N36     As3   v112
	BYTE	W48
	BYTE		N09     An3 
	BYTE	W48
	BYTE	PEND
// 009   ----------------------------------------
high_tier_map_7_009:
	BYTE	W24
	BYTE		N06     Cn3   v100
	BYTE		N06     Ds3 
	BYTE		N06     Gn3 
	BYTE	W08
	BYTE		        Cn3 
	BYTE		N06     Ds3 
	BYTE		N06     Gn3 
	BYTE	W08
	BYTE		        Cn3 
	BYTE		N06     Ds3 
	BYTE		N06     Gn3 
	BYTE	W08
	BYTE		N12     Cn3 
	BYTE		N12     Ds3 
	BYTE		N12     Gn3 
	BYTE	W48
	BYTE	PEND
// 010   ----------------------------------------
high_tier_map_7_010:
	BYTE	W24
	BYTE		N06     Cn3   v100
	BYTE		N06     Ds3 
	BYTE		N06     Fn3 
	BYTE		N06     An3 
	BYTE	W08
	BYTE		        Cn3 
	BYTE		N06     Ds3 
	BYTE		N06     Fn3 
	BYTE		N06     An3 
	BYTE	W08
	BYTE		        Cn3 
	BYTE		N06     Ds3 
	BYTE		N06     Fn3 
	BYTE		N06     An3 
	BYTE	W08
	BYTE		N12     Cn3 
	BYTE		N12     Ds3 
	BYTE		N12     Fn3 
	BYTE		N12     An3 
	BYTE	W48
	BYTE	PEND
// 011   ----------------------------------------
high_tier_map_7_011:
	BYTE	W24
	BYTE		N06     As2   v100
	BYTE		N06     Dn3 
	BYTE		N06     Fn3 
	BYTE	W08
	BYTE		        As2 
	BYTE		N06     Dn3 
	BYTE		N06     Fn3 
	BYTE	W08
	BYTE		        As2 
	BYTE		N06     Dn3 
	BYTE		N06     Fn3 
	BYTE	W08
	BYTE		N12     As2 
	BYTE		N12     Dn3 
	BYTE		N12     Fn3 
	BYTE	W48
	BYTE	PEND
// 012   ----------------------------------------
high_tier_map_7_012:
	BYTE	W24
	BYTE		N06     As2   v100
	BYTE		N06     Ds3 
	BYTE		N06     Gn3 
	BYTE	W08
	BYTE		        As2 
	BYTE		N06     Ds3 
	BYTE		N06     Gn3 
	BYTE	W08
	BYTE		        As2 
	BYTE		N06     Ds3 
	BYTE		N06     Gn3 
	BYTE	W08
	BYTE		N12     As2 
	BYTE		N12     Ds3 
	BYTE		N12     Gn3 
	BYTE	W16
	BYTE		N06     An3   v112
	BYTE	W08
	BYTE		N12     As3 
	BYTE	W16
	BYTE		N06     Cn4 
	BYTE	W08
	BYTE	PEND
// 013   ----------------------------------------
high_tier_map_7_013:
	BYTE		N06     Dn4   v112
	BYTE	W08
	BYTE		        As3 
	BYTE	W08
	BYTE		N06   
	BYTE	W08
	BYTE		N08     Cn4 
	BYTE	W16
	BYTE		N06     As3 
	BYTE	W08
	BYTE		        Dn4 
	BYTE	W08
	BYTE		        As3 
	BYTE	W08
	BYTE		N06   
	BYTE	W08
	BYTE		N08     Cn4 
	BYTE	W16
	BYTE		N06     As3 
	BYTE	W08
	BYTE	PEND
// 014   ----------------------------------------
high_tier_map_7_014:
	BYTE		N06     Dn4   v112
	BYTE	W08
	BYTE		        As3 
	BYTE	W08
	BYTE		N06   
	BYTE	W08
	BYTE		N08     Cn4 
	BYTE	W16
	BYTE		N06     As3 
	BYTE	W08
	BYTE		        Gn4   v127
	BYTE	W08
	BYTE		        As3   v112
	BYTE	W08
	BYTE		N06   
	BYTE	W08
	BYTE		N08     Cn4 
	BYTE	W16
	BYTE		N06     As3 
	BYTE	W08
	BYTE	PEND
// 015   ----------------------------------------
high_tier_map_7_015:
	BYTE		N08     As3   v112
	BYTE	W16
	BYTE		N06   
	BYTE	W08
	BYTE		N19     An3 
	BYTE	W24
	BYTE		N08   
	BYTE	W16
	BYTE		N06   
	BYTE	W08
	BYTE		N19     Gn3 
	BYTE	W24
	BYTE	PEND
// 016   ----------------------------------------
high_tier_map_7_016:
	BYTE		N08     Gn3   v112
	BYTE	W16
	BYTE		N06   
	BYTE	W08
	BYTE		N19     Fn3 
	BYTE	W24
	BYTE		N08   
	BYTE	W16
	BYTE		N06   
	BYTE	W08
	BYTE		N19     Ds3 
	BYTE	W24
	BYTE	PEND
// 017   ----------------------------------------
high_tier_map_7_017:
	BYTE		N24     Dn3   v112
	BYTE	W40
	BYTE		N03   
	BYTE	W04
	BYTE		N03   
	BYTE	W04
	BYTE		N24   
	BYTE	W40
	BYTE		N03   
	BYTE	W04
	BYTE		N03   
	BYTE	W04
	BYTE	PEND
// 018   ----------------------------------------
high_tier_map_7_018:
	BYTE		N24     Dn3   v112
	BYTE	W40
	BYTE		N03   
	BYTE	W04
	BYTE		N03   
	BYTE	W04
	BYTE		N12   
	BYTE	W48
	BYTE	PEND
// 019   ----------------------------------------
	BYTE	W96
// 020   ----------------------------------------
	BYTE	W96
// 021   ----------------------------------------
	BYTE	W96
// 022   ----------------------------------------
	BYTE	W96
// 023   ----------------------------------------
	BYTE	W96
// 024   ----------------------------------------
	BYTE	W96
// 025   ----------------------------------------
	BYTE	W96
// 026   ----------------------------------------
high_tier_map_7_026:
	BYTE	W72
	BYTE		N19     Fs3   v112
	BYTE		N19     Dn4 
	BYTE	W24
	BYTE	PEND
// 027   ----------------------------------------
high_tier_map_7_027:
	BYTE		N60     Gn3   v112
	BYTE		N60     Ds4 
	BYTE	W72
	BYTE		N19     Ds3 
	BYTE		N19     Gn3 
	BYTE	W24
	BYTE	PEND
// 028   ----------------------------------------
high_tier_map_7_028:
	BYTE		N60     Fn3   v112
	BYTE		N60     An3 
	BYTE	W64
	BYTE		N08     Ds4 
	BYTE		N08     Gn4 
	BYTE	W08
	BYTE		N12     Dn4 
	BYTE		N12     Fn4 
	BYTE	W16
	BYTE		N06     Cn4 
	BYTE		N06     Ds4 
	BYTE	W08
	BYTE	PEND
// 029   ----------------------------------------
high_tier_map_7_029:
	BYTE		N60     As3   v112
	BYTE		N60     Dn4 
	BYTE	W72
	BYTE		N19     Dn3 
	BYTE		N19     Fn3 
	BYTE	W24
	BYTE	PEND
// 030   ----------------------------------------
	BYTE		N60     Ds3 
	BYTE		N60     Gn3 
	BYTE	W96
// 031   ----------------------------------------
	BYTE	W96
// 032   ----------------------------------------
	BYTE	W96
// 033   ----------------------------------------
	BYTE	W96
// 034   ----------------------------------------
	BYTE	W96
// 035   ----------------------------------------
high_tier_map_7_035:
	BYTE		N24     Dn3   v120
	BYTE		N24     Dn4 
	BYTE	W40
	BYTE		N03     Dn3 
	BYTE		N03     Dn4 
	BYTE	W04
	BYTE		        Dn3 
	BYTE		N03     Dn4 
	BYTE	W04
	BYTE		N24     Dn3 
	BYTE		N24     Dn4 
	BYTE	W40
	BYTE		N03     Dn3 
	BYTE		N03     Dn4 
	BYTE	W04
	BYTE		        Dn3 
	BYTE		N03     Dn4 
	BYTE	W04
	BYTE	PEND
// 036   ----------------------------------------
	BYTE		N24     Dn3 
	BYTE		N24     Dn4 
	BYTE	W40
	BYTE		N03     Dn3 
	BYTE		N03     Dn4 
	BYTE	W04
	BYTE		        Dn3 
	BYTE		N03     Dn4 
	BYTE	W04
	BYTE		N12     Dn3 
	BYTE		N12     Dn4 
	BYTE	W24
	BYTE		N06     Dn3   v112
	BYTE	W08
	BYTE		N06   
	BYTE	W08
	BYTE		N06   
	BYTE	W08
// 037   ----------------------------------------
	BYTE	PATT
	 POIN2	high_tier_map_7_001
// 038   ----------------------------------------
	BYTE	PATT
	 POIN2	high_tier_map_7_002
// 039   ----------------------------------------
	BYTE	PATT
	 POIN2	high_tier_map_7_003
// 040   ----------------------------------------
	BYTE	PATT
	 POIN2	high_tier_map_7_004
// 041   ----------------------------------------
	BYTE	PATT
	 POIN2	high_tier_map_7_005
// 042   ----------------------------------------
	BYTE	PATT
	 POIN2	high_tier_map_7_006
// 043   ----------------------------------------
	BYTE	PATT
	 POIN2	high_tier_map_7_007
// 044   ----------------------------------------
	BYTE	PATT
	 POIN2	high_tier_map_7_008
// 045   ----------------------------------------
	BYTE	PATT
	 POIN2	high_tier_map_7_009
// 046   ----------------------------------------
	BYTE	PATT
	 POIN2	high_tier_map_7_010
// 047   ----------------------------------------
	BYTE	PATT
	 POIN2	high_tier_map_7_011
// 048   ----------------------------------------
	BYTE	PATT
	 POIN2	high_tier_map_7_012
// 049   ----------------------------------------
	BYTE	PATT
	 POIN2	high_tier_map_7_013
// 050   ----------------------------------------
	BYTE	PATT
	 POIN2	high_tier_map_7_014
// 051   ----------------------------------------
	BYTE	PATT
	 POIN2	high_tier_map_7_015
// 052   ----------------------------------------
	BYTE	PATT
	 POIN2	high_tier_map_7_016
// 053   ----------------------------------------
	BYTE	PATT
	 POIN2	high_tier_map_7_017
// 054   ----------------------------------------
	BYTE	PATT
	 POIN2	high_tier_map_7_018
// 055   ----------------------------------------
	BYTE	W96
// 056   ----------------------------------------
	BYTE	W96
// 057   ----------------------------------------
	BYTE	W96
// 058   ----------------------------------------
	BYTE	W96
// 059   ----------------------------------------
	BYTE	W96
// 060   ----------------------------------------
	BYTE	W96
// 061   ----------------------------------------
	BYTE	W96
// 062   ----------------------------------------
	BYTE	PATT
	 POIN2	high_tier_map_7_026
// 063   ----------------------------------------
	BYTE	PATT
	 POIN2	high_tier_map_7_027
// 064   ----------------------------------------
	BYTE	PATT
	 POIN2	high_tier_map_7_028
// 065   ----------------------------------------
	BYTE	PATT
	 POIN2	high_tier_map_7_029
// 066   ----------------------------------------
	BYTE		N60     Ds3   v112
	BYTE		N60     Gn3 
	BYTE	W96
// 067   ----------------------------------------
	BYTE	W96
// 068   ----------------------------------------
	BYTE	W96
// 069   ----------------------------------------
	BYTE	W96
// 070   ----------------------------------------
	BYTE	W96
// 071   ----------------------------------------
	BYTE	PATT
	 POIN2	high_tier_map_7_035
// 072   ----------------------------------------
	BYTE		N24     Dn3   v120
	BYTE		N24     Dn4 
	BYTE	W40
	BYTE		N03     Dn3 
	BYTE		N03     Dn4 
	BYTE	W04
	BYTE		        Dn3 
	BYTE		N03     Dn4 
	BYTE	W04
	BYTE		N12     Dn3 
	BYTE		N12     Dn4 
	BYTE	W12
	BYTE	FINE

//**************** Track 8 (Midi-Chn.8) ****************//

high_tier_map_8:
	BYTE	KEYSH   high_tier_map_key+0
// 000   ----------------------------------------
	BYTE		VOICE   57
	BYTE		VOL     35*high_tier_map_mvl/mxv
	BYTE		PAN     c_v-29
	BYTE	W24
// 001   ----------------------------------------
high_tier_map_8_001:
	BYTE		N19     Dn2   v100
	BYTE		N19     Gn2 
	BYTE		N19     As2 
	BYTE	W24
	BYTE		        Dn2 
	BYTE		N19     Gn2 
	BYTE		N19     As2 
	BYTE	W24
	BYTE		        Dn2 
	BYTE		N19     Fs2 
	BYTE		N19     An2 
	BYTE	W24
	BYTE		        Dn2 
	BYTE		N19     Fs2 
	BYTE		N19     An2 
	BYTE	W24
	BYTE	PEND
// 002   ----------------------------------------
	BYTE	PATT
	 POIN2	high_tier_map_8_001
// 003   ----------------------------------------
high_tier_map_8_003:
	BYTE		N19     Dn2   v100
	BYTE		N19     Fn2 
	BYTE		N19     Gn2 
	BYTE	W24
	BYTE		        Dn2 
	BYTE		N19     Fn2 
	BYTE		N19     An2 
	BYTE	W24
	BYTE		        Dn2 
	BYTE		N19     Fn2 
	BYTE		N19     Bn2 
	BYTE	W24
	BYTE		        Dn2 
	BYTE		N19     Fn2 
	BYTE		N19     Gn2 
	BYTE	W24
	BYTE	PEND
// 004   ----------------------------------------
high_tier_map_8_004:
	BYTE		N09     Cn2   v100
	BYTE		N09     Ds2 
	BYTE		N09     Gn2 
	BYTE	W12
	BYTE		N03     Gn2   v112
	BYTE	W04
	BYTE		N03   
	BYTE	W04
	BYTE		N03   
	BYTE	W04
	BYTE		N06     Gs2 
	BYTE	W08
	BYTE		N06   
	BYTE	W08
	BYTE		N06   
	BYTE	W08
	BYTE		        An2 
	BYTE	W08
	BYTE		N06   
	BYTE	W08
	BYTE		N06   
	BYTE	W08
	BYTE		        Gs2 
	BYTE	W08
	BYTE		N06   
	BYTE	W08
	BYTE		N06   
	BYTE	W08
	BYTE	PEND
// 005   ----------------------------------------
high_tier_map_8_005:
	BYTE		N15     Cn2   v100
	BYTE		N15     Gn2 
	BYTE	W24
	BYTE		        Cn2 
	BYTE		N15     Gn2 
	BYTE	W24
	BYTE		        Cn2 
	BYTE		N15     Gn2 
	BYTE	W24
	BYTE		        Cn2 
	BYTE		N15     Fs2 
	BYTE	W24
	BYTE	PEND
// 006   ----------------------------------------
high_tier_map_8_006:
	BYTE		N15     Dn2   v100
	BYTE		N15     Gn2 
	BYTE	W24
	BYTE		        Dn2 
	BYTE		N15     Gn2 
	BYTE	W24
	BYTE		        Dn2 
	BYTE		N15     Fn2 
	BYTE	W24
	BYTE		        Dn2 
	BYTE		N15     Fn2 
	BYTE	W24
	BYTE	PEND
// 007   ----------------------------------------
high_tier_map_8_007:
	BYTE		N15     Cn2   v100
	BYTE		N15     Gn2 
	BYTE	W24
	BYTE		        Cn2 
	BYTE		N15     Gn2 
	BYTE	W24
	BYTE		        As1 
	BYTE		N15     Cn2 
	BYTE		N15     En2 
	BYTE	W24
	BYTE		        As1 
	BYTE		N15     Cn2 
	BYTE		N15     En2 
	BYTE	W24
	BYTE	PEND
// 008   ----------------------------------------
high_tier_map_8_008:
	BYTE		N15     Ds2   v100
	BYTE		N15     As2 
	BYTE	W24
	BYTE		        Ds2 
	BYTE		N15     As2 
	BYTE	W24
	BYTE		        Fs2 
	BYTE		N15     An2 
	BYTE	W24
	BYTE		        Fs2 
	BYTE		N15     An2 
	BYTE	W24
	BYTE	PEND
// 009   ----------------------------------------
high_tier_map_8_009:
	BYTE	W24
	BYTE		N05     Cn2   v112
	BYTE		N05     Ds2 
	BYTE		N05     Gn2 
	BYTE	W08
	BYTE		        Cn2 
	BYTE		N05     Ds2 
	BYTE		N05     Gn2 
	BYTE	W08
	BYTE		        Cn2 
	BYTE		N05     Ds2 
	BYTE		N05     Gn2 
	BYTE	W08
	BYTE		N12     Cn2 
	BYTE		N12     Ds2 
	BYTE		N12     Gn2 
	BYTE	W48
	BYTE	PEND
// 010   ----------------------------------------
high_tier_map_8_010:
	BYTE	W24
	BYTE		N05     Cn2   v112
	BYTE		N05     Ds2 
	BYTE		N05     Fn2 
	BYTE		N05     An2 
	BYTE	W08
	BYTE		        Cn2 
	BYTE		N05     Ds2 
	BYTE		N05     Fn2 
	BYTE		N05     An2 
	BYTE	W08
	BYTE		        Cn2 
	BYTE		N05     Ds2 
	BYTE		N05     Fn2 
	BYTE		N05     An2 
	BYTE	W08
	BYTE		N12     Cn2 
	BYTE		N12     Ds2 
	BYTE		N12     Fn2 
	BYTE		N12     An2 
	BYTE	W48
	BYTE	PEND
// 011   ----------------------------------------
high_tier_map_8_011:
	BYTE	W24
	BYTE		N05     As1   v112
	BYTE		N05     Dn2 
	BYTE		N05     Fn2 
	BYTE	W08
	BYTE		        As1 
	BYTE		N05     Dn2 
	BYTE		N05     Fn2 
	BYTE	W08
	BYTE		        As1 
	BYTE		N05     Dn2 
	BYTE		N05     Fn2 
	BYTE	W08
	BYTE		N12     As1 
	BYTE		N12     Dn2 
	BYTE		N12     Fn2 
	BYTE	W48
	BYTE	PEND
// 012   ----------------------------------------
high_tier_map_8_012:
	BYTE	W24
	BYTE		N05     As1   v112
	BYTE		N05     Ds2 
	BYTE		N05     Gn2 
	BYTE	W08
	BYTE		        As1 
	BYTE		N05     Ds2 
	BYTE		N05     Gn2 
	BYTE	W08
	BYTE		        As1 
	BYTE		N05     Ds2 
	BYTE		N05     Gn2 
	BYTE	W08
	BYTE		N12     As1 
	BYTE		N12     Ds2 
	BYTE		N12     Gn2 
	BYTE	W48
	BYTE	PEND
// 013   ----------------------------------------
high_tier_map_8_013:
	BYTE		N48     En2   v100
	BYTE		N48     Gn2 
	BYTE	W48
	BYTE		        Ds2 
	BYTE		N48     Fs2 
	BYTE	W48
	BYTE	PEND
// 014   ----------------------------------------
high_tier_map_8_014:
	BYTE		N48     Dn2   v100
	BYTE		N48     Fn2 
	BYTE	W48
	BYTE		        Cs2 
	BYTE		N48     En2 
	BYTE	W48
	BYTE	PEND
// 015   ----------------------------------------
high_tier_map_8_015:
	BYTE		N48     Cn2   v100
	BYTE		N48     Ds2 
	BYTE	W48
	BYTE		        Bn1 
	BYTE		N48     Dn2 
	BYTE	W48
	BYTE	PEND
// 016   ----------------------------------------
high_tier_map_8_016:
	BYTE		N48     As1   v100
	BYTE		N48     Cs2 
	BYTE	W48
	BYTE		        An1 
	BYTE		N48     Cn2 
	BYTE	W48
	BYTE	PEND
// 017   ----------------------------------------
high_tier_map_8_017:
	BYTE	W24
	BYTE		N12     An1   v112
	BYTE		N12     Dn2 
	BYTE		N12     Gn2 
	BYTE	W48
	BYTE		        An1 
	BYTE		N12     Dn2 
	BYTE		N12     Fs2 
	BYTE	W24
	BYTE	PEND
// 018   ----------------------------------------
high_tier_map_8_018:
	BYTE	W24
	BYTE		N12     An1   v112
	BYTE		N12     Dn2 
	BYTE		N12     Gn2 
	BYTE	W24
	BYTE		        An1 
	BYTE		N12     Dn2 
	BYTE		N12     Fs2 
	BYTE	W48
	BYTE	PEND
// 019   ----------------------------------------
	BYTE	W96
// 020   ----------------------------------------
	BYTE	W96
// 021   ----------------------------------------
	BYTE	W96
// 022   ----------------------------------------
	BYTE	W96
// 023   ----------------------------------------
	BYTE	W96
// 024   ----------------------------------------
	BYTE	W96
// 025   ----------------------------------------
	BYTE	W96
// 026   ----------------------------------------
	BYTE	W96
// 027   ----------------------------------------
high_tier_map_8_027:
	BYTE	W24
	BYTE		N06     Cn3   v100
	BYTE		N06     Ds3 
	BYTE		N06     Gn3 
	BYTE	W08
	BYTE		        Cn3 
	BYTE		N06     Ds3 
	BYTE		N06     Gn3 
	BYTE	W08
	BYTE		        Cn3 
	BYTE		N06     Ds3 
	BYTE		N06     Gn3 
	BYTE	W08
	BYTE		N19     Cn3 
	BYTE		N19     Ds3 
	BYTE		N19     Gn3 
	BYTE	W48
	BYTE	PEND
// 028   ----------------------------------------
high_tier_map_8_028:
	BYTE	W24
	BYTE		N06     Cn3   v100
	BYTE		N06     Fn3 
	BYTE		N06     An3 
	BYTE	W08
	BYTE		        Cn3 
	BYTE		N06     Fn3 
	BYTE		N06     An3 
	BYTE	W08
	BYTE		        Cn3 
	BYTE		N06     Fn3 
	BYTE		N06     An3 
	BYTE	W08
	BYTE		N19     Cn3 
	BYTE		N19     Fn3 
	BYTE		N19     An3 
	BYTE	W48
	BYTE	PEND
// 029   ----------------------------------------
high_tier_map_8_029:
	BYTE	W24
	BYTE		N06     As2   v100
	BYTE		N06     Dn3 
	BYTE		N06     Fn3 
	BYTE	W08
	BYTE		        As2 
	BYTE		N06     Dn3 
	BYTE		N06     Fn3 
	BYTE	W08
	BYTE		        As2 
	BYTE		N06     Dn3 
	BYTE		N06     Fn3 
	BYTE	W08
	BYTE		N19     As2 
	BYTE		N19     Dn3 
	BYTE		N19     Fn3 
	BYTE	W48
	BYTE	PEND
// 030   ----------------------------------------
high_tier_map_8_030:
	BYTE	W24
	BYTE		N06     As2   v100
	BYTE		N06     Ds3 
	BYTE		N06     Gn3 
	BYTE	W08
	BYTE		        As2 
	BYTE		N06     Ds3 
	BYTE		N06     Gn3 
	BYTE	W08
	BYTE		        As2 
	BYTE		N06     Ds3 
	BYTE		N06     Gn3 
	BYTE	W08
	BYTE		N19     As2 
	BYTE		N19     Ds3 
	BYTE		N19     Gn3 
	BYTE	W48
	BYTE	PEND
// 031   ----------------------------------------
high_tier_map_8_031:
	BYTE		N48     Gn2   v080
	BYTE		N48     As2 
	BYTE		N48     En3 
	BYTE	W48
	BYTE		        Fs2 
	BYTE		N48     As2 
	BYTE		N48     Ds3 
	BYTE	W48
	BYTE	PEND
// 032   ----------------------------------------
high_tier_map_8_032:
	BYTE		N48     Fn2   v080
	BYTE		N48     As2 
	BYTE		N48     Dn3 
	BYTE	W48
	BYTE		        En2 
	BYTE		N48     Gn2 
	BYTE		N48     Cs3 
	BYTE	W48
	BYTE	PEND
// 033   ----------------------------------------
high_tier_map_8_033:
	BYTE		N48     Ds2   v080
	BYTE		N48     Gn2 
	BYTE		N48     Cn3 
	BYTE	W48
	BYTE		        Dn2 
	BYTE		N48     Gn2 
	BYTE		N48     Bn2 
	BYTE	W48
	BYTE	PEND
// 034   ----------------------------------------
high_tier_map_8_034:
	BYTE		N48     Cs2   v080
	BYTE		N48     Fn2 
	BYTE		N48     As2 
	BYTE	W48
	BYTE		        Cn2 
	BYTE		N48     Fn2 
	BYTE		N48     An2 
	BYTE	W48
	BYTE	PEND
// 035   ----------------------------------------
high_tier_map_8_035:
	BYTE	W24
	BYTE		N12     Dn2   v127
	BYTE		N12     Gn2 
	BYTE	W48
	BYTE		        Dn2 
	BYTE		N12     Fs2 
	BYTE	W24
	BYTE	PEND
// 036   ----------------------------------------
	BYTE	W24
	BYTE		        Dn2 
	BYTE		N12     Gn2 
	BYTE	W24
	BYTE		        Dn2 
	BYTE		N12     Fs2 
	BYTE	W48
// 037   ----------------------------------------
	BYTE	PATT
	 POIN2	high_tier_map_8_001
// 038   ----------------------------------------
	BYTE	PATT
	 POIN2	high_tier_map_8_001
// 039   ----------------------------------------
	BYTE	PATT
	 POIN2	high_tier_map_8_003
// 040   ----------------------------------------
	BYTE	PATT
	 POIN2	high_tier_map_8_004
// 041   ----------------------------------------
	BYTE	PATT
	 POIN2	high_tier_map_8_005
// 042   ----------------------------------------
	BYTE	PATT
	 POIN2	high_tier_map_8_006
// 043   ----------------------------------------
	BYTE	PATT
	 POIN2	high_tier_map_8_007
// 044   ----------------------------------------
	BYTE	PATT
	 POIN2	high_tier_map_8_008
// 045   ----------------------------------------
	BYTE	PATT
	 POIN2	high_tier_map_8_009
// 046   ----------------------------------------
	BYTE	PATT
	 POIN2	high_tier_map_8_010
// 047   ----------------------------------------
	BYTE	PATT
	 POIN2	high_tier_map_8_011
// 048   ----------------------------------------
	BYTE	PATT
	 POIN2	high_tier_map_8_012
// 049   ----------------------------------------
	BYTE	PATT
	 POIN2	high_tier_map_8_013
// 050   ----------------------------------------
	BYTE	PATT
	 POIN2	high_tier_map_8_014
// 051   ----------------------------------------
	BYTE	PATT
	 POIN2	high_tier_map_8_015
// 052   ----------------------------------------
	BYTE	PATT
	 POIN2	high_tier_map_8_016
// 053   ----------------------------------------
	BYTE	PATT
	 POIN2	high_tier_map_8_017
// 054   ----------------------------------------
	BYTE	PATT
	 POIN2	high_tier_map_8_018
// 055   ----------------------------------------
	BYTE	W96
// 056   ----------------------------------------
	BYTE	W96
// 057   ----------------------------------------
	BYTE	W96
// 058   ----------------------------------------
	BYTE	W96
// 059   ----------------------------------------
	BYTE	W96
// 060   ----------------------------------------
	BYTE	W96
// 061   ----------------------------------------
	BYTE	W96
// 062   ----------------------------------------
	BYTE	W96
// 063   ----------------------------------------
	BYTE	PATT
	 POIN2	high_tier_map_8_027
// 064   ----------------------------------------
	BYTE	PATT
	 POIN2	high_tier_map_8_028
// 065   ----------------------------------------
	BYTE	PATT
	 POIN2	high_tier_map_8_029
// 066   ----------------------------------------
	BYTE	PATT
	 POIN2	high_tier_map_8_030
// 067   ----------------------------------------
	BYTE	PATT
	 POIN2	high_tier_map_8_031
// 068   ----------------------------------------
	BYTE	PATT
	 POIN2	high_tier_map_8_032
// 069   ----------------------------------------
	BYTE	PATT
	 POIN2	high_tier_map_8_033
// 070   ----------------------------------------
	BYTE	PATT
	 POIN2	high_tier_map_8_034
// 071   ----------------------------------------
	BYTE	PATT
	 POIN2	high_tier_map_8_035
// 072   ----------------------------------------
	BYTE	W24
	BYTE		N12     Dn2   v127
	BYTE		N12     Gn2 
	BYTE	W24
	BYTE		        Dn2 
	BYTE		N12     Fs2 
	BYTE	W12
	BYTE	FINE

//**************** Track 9 (Midi-Chn.9) ****************//

high_tier_map_9:
	BYTE	KEYSH   high_tier_map_key+0
// 000   ----------------------------------------
	BYTE		VOICE   57
	BYTE		VOL     35*high_tier_map_mvl/mxv
	BYTE		PAN     c_v-29
	BYTE	W24
// 001   ----------------------------------------
high_tier_map_9_001:
	BYTE		N19     Gn1   v100
	BYTE	W24
	BYTE		        Gn2 
	BYTE	W24
	BYTE		        Fs2 
	BYTE	W24
	BYTE		        Fs1 
	BYTE	W24
	BYTE	PEND
// 002   ----------------------------------------
	BYTE	PATT
	 POIN2	high_tier_map_9_001
// 003   ----------------------------------------
high_tier_map_9_003:
	BYTE		N19     Gn1   v100
	BYTE	W24
	BYTE		        An1 
	BYTE	W24
	BYTE		        Bn1 
	BYTE	W24
	BYTE		        Gn1 
	BYTE	W24
	BYTE	PEND
// 004   ----------------------------------------
	BYTE		N09     Cn2 
	BYTE	W96
// 005   ----------------------------------------
high_tier_map_9_005:
	BYTE		N19     Gn2   v100
	BYTE	W24
	BYTE		        Cn2 
	BYTE	W24
	BYTE		N19   
	BYTE	W24
	BYTE		        Dn2 
	BYTE	W24
	BYTE	PEND
// 006   ----------------------------------------
high_tier_map_9_006:
	BYTE		N19     Gn2   v100
	BYTE	W24
	BYTE		N19   
	BYTE	W24
	BYTE		        Fn2 
	BYTE	W24
	BYTE		N19   
	BYTE	W24
	BYTE	PEND
// 007   ----------------------------------------
high_tier_map_9_007:
	BYTE		N19     En2   v100
	BYTE	W24
	BYTE		N19   
	BYTE	W24
	BYTE		        Cn2 
	BYTE	W24
	BYTE		N19   
	BYTE	W24
	BYTE	PEND
// 008   ----------------------------------------
high_tier_map_9_008:
	BYTE		N19     Fn2   v100
	BYTE	W24
	BYTE		N19   
	BYTE	W24
	BYTE		        Fs2 
	BYTE	W24
	BYTE		        Dn2 
	BYTE	W24
	BYTE	PEND
// 009   ----------------------------------------
high_tier_map_9_009:
	BYTE	W24
	BYTE		N05     Cn2   v112
	BYTE	W08
	BYTE		N05   
	BYTE	W08
	BYTE		N05   
	BYTE	W08
	BYTE		N12   
	BYTE	W48
	BYTE	PEND
// 010   ----------------------------------------
high_tier_map_9_010:
	BYTE	W24
	BYTE		N05     Fn1   v112
	BYTE	W08
	BYTE		N05   
	BYTE	W08
	BYTE		N05   
	BYTE	W08
	BYTE		N12   
	BYTE	W48
	BYTE	PEND
// 011   ----------------------------------------
high_tier_map_9_011:
	BYTE	W24
	BYTE		N05     As1   v112
	BYTE	W08
	BYTE		N05   
	BYTE	W08
	BYTE		N05   
	BYTE	W08
	BYTE		N12   
	BYTE	W48
	BYTE	PEND
// 012   ----------------------------------------
high_tier_map_9_012:
	BYTE	W24
	BYTE		N05     Ds1   v112
	BYTE	W08
	BYTE		N05   
	BYTE	W08
	BYTE		N05   
	BYTE	W08
	BYTE		N12   
	BYTE	W48
	BYTE	PEND
// 013   ----------------------------------------
	BYTE	W96
// 014   ----------------------------------------
	BYTE	W96
// 015   ----------------------------------------
	BYTE	W96
// 016   ----------------------------------------
	BYTE	W96
// 017   ----------------------------------------
high_tier_map_9_017:
	BYTE	W24
	BYTE		N12     Dn1   v112
	BYTE	W48
	BYTE		N12   
	BYTE	W24
	BYTE	PEND
// 018   ----------------------------------------
high_tier_map_9_018:
	BYTE	W24
	BYTE		N12     Dn1   v112
	BYTE	W24
	BYTE		N12   
	BYTE	W48
	BYTE	PEND
// 019   ----------------------------------------
	BYTE	W96
// 020   ----------------------------------------
	BYTE	W96
// 021   ----------------------------------------
	BYTE	W96
// 022   ----------------------------------------
	BYTE	W96
// 023   ----------------------------------------
	BYTE	W96
// 024   ----------------------------------------
	BYTE	W96
// 025   ----------------------------------------
	BYTE	W96
// 026   ----------------------------------------
	BYTE	W96
// 027   ----------------------------------------
high_tier_map_9_027:
	BYTE	W24
	BYTE		N06     Cn1   v100
	BYTE	W08
	BYTE		N06   
	BYTE	W08
	BYTE		N06   
	BYTE	W08
	BYTE		N19   
	BYTE	W48
	BYTE	PEND
// 028   ----------------------------------------
high_tier_map_9_028:
	BYTE	W24
	BYTE		N06     Fn1   v100
	BYTE	W08
	BYTE		N06   
	BYTE	W08
	BYTE		N06   
	BYTE	W08
	BYTE		N19   
	BYTE	W48
	BYTE	PEND
// 029   ----------------------------------------
high_tier_map_9_029:
	BYTE	W24
	BYTE		N06     As0   v100
	BYTE	W08
	BYTE		N06   
	BYTE	W08
	BYTE		N06   
	BYTE	W08
	BYTE		N19   
	BYTE	W48
	BYTE	PEND
// 030   ----------------------------------------
high_tier_map_9_030:
	BYTE	W24
	BYTE		N06     Ds1   v100
	BYTE	W08
	BYTE		N06   
	BYTE	W08
	BYTE		N06   
	BYTE	W08
	BYTE		N19   
	BYTE	W48
	BYTE	PEND
// 031   ----------------------------------------
	BYTE	W96
// 032   ----------------------------------------
	BYTE	W96
// 033   ----------------------------------------
	BYTE	W96
// 034   ----------------------------------------
	BYTE	W96
// 035   ----------------------------------------
high_tier_map_9_035:
	BYTE	W24
	BYTE		N12     Dn1   v127
	BYTE	W48
	BYTE		N12   
	BYTE	W24
	BYTE	PEND
// 036   ----------------------------------------
	BYTE	W24
	BYTE		N12   
	BYTE	W24
	BYTE		N12   
	BYTE	W48
// 037   ----------------------------------------
	BYTE	PATT
	 POIN2	high_tier_map_9_001
// 038   ----------------------------------------
	BYTE	PATT
	 POIN2	high_tier_map_9_001
// 039   ----------------------------------------
	BYTE	PATT
	 POIN2	high_tier_map_9_003
// 040   ----------------------------------------
	BYTE		N09     Cn2   v100
	BYTE	W96
// 041   ----------------------------------------
	BYTE	PATT
	 POIN2	high_tier_map_9_005
// 042   ----------------------------------------
	BYTE	PATT
	 POIN2	high_tier_map_9_006
// 043   ----------------------------------------
	BYTE	PATT
	 POIN2	high_tier_map_9_007
// 044   ----------------------------------------
	BYTE	PATT
	 POIN2	high_tier_map_9_008
// 045   ----------------------------------------
	BYTE	PATT
	 POIN2	high_tier_map_9_009
// 046   ----------------------------------------
	BYTE	PATT
	 POIN2	high_tier_map_9_010
// 047   ----------------------------------------
	BYTE	PATT
	 POIN2	high_tier_map_9_011
// 048   ----------------------------------------
	BYTE	PATT
	 POIN2	high_tier_map_9_012
// 049   ----------------------------------------
	BYTE	W96
// 050   ----------------------------------------
	BYTE	W96
// 051   ----------------------------------------
	BYTE	W96
// 052   ----------------------------------------
	BYTE	W96
// 053   ----------------------------------------
	BYTE	PATT
	 POIN2	high_tier_map_9_017
// 054   ----------------------------------------
	BYTE	PATT
	 POIN2	high_tier_map_9_018
// 055   ----------------------------------------
	BYTE	W96
// 056   ----------------------------------------
	BYTE	W96
// 057   ----------------------------------------
	BYTE	W96
// 058   ----------------------------------------
	BYTE	W96
// 059   ----------------------------------------
	BYTE	W96
// 060   ----------------------------------------
	BYTE	W96
// 061   ----------------------------------------
	BYTE	W96
// 062   ----------------------------------------
	BYTE	W96
// 063   ----------------------------------------
	BYTE	PATT
	 POIN2	high_tier_map_9_027
// 064   ----------------------------------------
	BYTE	PATT
	 POIN2	high_tier_map_9_028
// 065   ----------------------------------------
	BYTE	PATT
	 POIN2	high_tier_map_9_029
// 066   ----------------------------------------
	BYTE	PATT
	 POIN2	high_tier_map_9_030
// 067   ----------------------------------------
	BYTE	W96
// 068   ----------------------------------------
	BYTE	W96
// 069   ----------------------------------------
	BYTE	W96
// 070   ----------------------------------------
	BYTE	W96
// 071   ----------------------------------------
	BYTE	PATT
	 POIN2	high_tier_map_9_035
// 072   ----------------------------------------
	BYTE	W24
	BYTE		N12     Dn1   v127
	BYTE	W24
	BYTE		N12   
	BYTE	W12
	BYTE	FINE

//**************** Track 10 (Midi-Chn.10) ****************//

high_tier_map_10:
	BYTE	KEYSH   high_tier_map_key+0
// 000   ----------------------------------------
	BYTE		VOICE   48
	BYTE		VOL     35*high_tier_map_mvl/mxv
	BYTE		PAN     c_v-29
	BYTE	W24
// 001   ----------------------------------------
high_tier_map_10_001:
	BYTE		N03     Cn1   v112
	BYTE		N03     Dn1   v100
	BYTE		N03     An2   v112
	BYTE		N03     Bn2 
	BYTE	W16
	BYTE		        Dn1   v100
	BYTE	W08
	BYTE		N03   
	BYTE	W03
	BYTE		        Dn1   v084
	BYTE	W03
	BYTE		        Dn1   v076
	BYTE	W03
	BYTE		        Dn1   v072
	BYTE	W03
	BYTE		N03   
	BYTE	W03
	BYTE		        Dn1   v068
	BYTE	W03
	BYTE		N03   
	BYTE	W03
	BYTE		        Dn1   v064
	BYTE	W03
	BYTE		        Dn1   v100
	BYTE	W16
	BYTE		N03   
	BYTE	W08
	BYTE		N03   
	BYTE	W03
	BYTE		        Dn1   v084
	BYTE	W03
	BYTE		        Dn1   v076
	BYTE	W03
	BYTE		        Dn1   v072
	BYTE	W03
	BYTE		N03   
	BYTE	W03
	BYTE		        Dn1   v068
	BYTE	W03
	BYTE		N03   
	BYTE	W03
	BYTE		        Dn1   v064
	BYTE	W03
	BYTE	PEND
// 002   ----------------------------------------
high_tier_map_10_002:
	BYTE		N03     Dn1   v100
	BYTE	W16
	BYTE		N03   
	BYTE	W08
	BYTE		N03   
	BYTE	W03
	BYTE		        Dn1   v084
	BYTE	W03
	BYTE		        Dn1   v076
	BYTE	W03
	BYTE		        Dn1   v072
	BYTE	W03
	BYTE		N03   
	BYTE	W03
	BYTE		        Dn1   v068
	BYTE	W03
	BYTE		N03   
	BYTE	W03
	BYTE		        Dn1   v064
	BYTE	W03
	BYTE		        Dn1   v100
	BYTE	W08
	BYTE		N03   
	BYTE	W08
	BYTE		N03   
	BYTE	W08
	BYTE		N03   
	BYTE	W16
	BYTE		N03   
	BYTE	W08
	BYTE	PEND
// 003   ----------------------------------------
high_tier_map_10_003:
	BYTE		N03     Dn1   v100
	BYTE	W08
	BYTE		N03   
	BYTE	W08
	BYTE		N03   
	BYTE	W08
	BYTE		N03   
	BYTE	W03
	BYTE		        Dn1   v084
	BYTE	W03
	BYTE		        Dn1   v076
	BYTE	W03
	BYTE		        Dn1   v072
	BYTE	W03
	BYTE		N03   
	BYTE	W03
	BYTE		        Dn1   v068
	BYTE	W03
	BYTE		N03   
	BYTE	W03
	BYTE		        Dn1   v064
	BYTE	W03
	BYTE		        Dn1   v100
	BYTE	W08
	BYTE		N03   
	BYTE	W08
	BYTE		N03   
	BYTE	W08
	BYTE		N03   
	BYTE	W08
	BYTE		N03   
	BYTE	W08
	BYTE		N03   
	BYTE	W08
	BYTE	PEND
// 004   ----------------------------------------
high_tier_map_10_004:
	BYTE		N03     Cn1   v112
	BYTE		N03     Dn1   v100
	BYTE		N03     An2   v112
	BYTE		N03     Bn2 
	BYTE	W96
	BYTE	PEND
// 005   ----------------------------------------
	BYTE		        Cn1 
	BYTE		N02     Dn1   v100
	BYTE		N03     An2   v112
	BYTE		N03     Bn2 
	BYTE	W16
	BYTE		N02     Dn1   v100
	BYTE	W08
	BYTE		N02   
	BYTE	W03
	BYTE		        Dn1   v084
	BYTE	W03
	BYTE		        Dn1   v076
	BYTE	W03
	BYTE		        Dn1   v072
	BYTE	W03
	BYTE		N02   
	BYTE	W03
	BYTE		        Dn1   v068
	BYTE	W03
	BYTE		N02   
	BYTE	W03
	BYTE		        Dn1   v064
	BYTE	W03
	BYTE		        Dn1   v100
	BYTE	W08
	BYTE		N02   
	BYTE	W08
	BYTE		N02   
	BYTE	W08
	BYTE		N02   
	BYTE	W08
	BYTE		N02   
	BYTE	W08
	BYTE		N02   
	BYTE	W08
// 006   ----------------------------------------
high_tier_map_10_006:
	BYTE		N02     Dn1   v100
	BYTE	W16
	BYTE		N02   
	BYTE	W08
	BYTE		N02   
	BYTE	W03
	BYTE		        Dn1   v084
	BYTE	W03
	BYTE		        Dn1   v076
	BYTE	W03
	BYTE		        Dn1   v072
	BYTE	W03
	BYTE		N02   
	BYTE	W03
	BYTE		        Dn1   v068
	BYTE	W03
	BYTE		N02   
	BYTE	W03
	BYTE		        Dn1   v064
	BYTE	W03
	BYTE		        Dn1   v100
	BYTE	W08
	BYTE		N02   
	BYTE	W08
	BYTE		N02   
	BYTE	W08
	BYTE		N02   
	BYTE	W08
	BYTE		N02   
	BYTE	W08
	BYTE		N02   
	BYTE	W08
	BYTE	PEND
// 007   ----------------------------------------
high_tier_map_10_007:
	BYTE		N02     Dn1   v100
	BYTE	W16
	BYTE		N02   
	BYTE	W08
	BYTE		N02   
	BYTE	W08
	BYTE		N02   
	BYTE	W08
	BYTE		N02   
	BYTE	W08
	BYTE		N02   
	BYTE	W03
	BYTE		        Dn1   v084
	BYTE	W03
	BYTE		        Dn1   v076
	BYTE	W03
	BYTE		        Dn1   v072
	BYTE	W03
	BYTE		N02   
	BYTE	W03
	BYTE		        Dn1   v068
	BYTE	W03
	BYTE		N02   
	BYTE	W03
	BYTE		        Dn1   v064
	BYTE	W03
	BYTE		        Dn1   v100
	BYTE	W08
	BYTE		N02   
	BYTE	W08
	BYTE		N02   
	BYTE	W08
	BYTE	PEND
// 008   ----------------------------------------
high_tier_map_10_008:
	BYTE		N02     Dn1   v100
	BYTE	W24
	BYTE		        Cn1   v112
	BYTE		N02     Dn1   v100
	BYTE		N02     An2   v112
	BYTE		N02     Bn2 
	BYTE	W03
	BYTE		        Dn1   v084
	BYTE	W03
	BYTE		        Dn1   v076
	BYTE	W03
	BYTE		        Dn1   v072
	BYTE	W03
	BYTE		N02   
	BYTE	W03
	BYTE		        Dn1   v068
	BYTE	W03
	BYTE		N02   
	BYTE	W03
	BYTE		        Dn1   v064
	BYTE	W03
	BYTE		        Cn1   v112
	BYTE		N02     Dn1   v100
	BYTE		N02     An2   v112
	BYTE		N02     Bn2 
	BYTE	W48
	BYTE	PEND
// 009   ----------------------------------------
high_tier_map_10_009:
	BYTE	W24
	BYTE		N02     Cn1   v112
	BYTE		N02     Dn1   v100
	BYTE		N02     An2   v112
	BYTE		N02     Bn2 
	BYTE	W08
	BYTE		        Dn1   v100
	BYTE	W08
	BYTE		N02   
	BYTE	W08
	BYTE		        Cn1   v112
	BYTE		N02     Dn1   v100
	BYTE		N02     An2   v112
	BYTE		N02     Bn2 
	BYTE	W48
	BYTE	PEND
// 010   ----------------------------------------
	BYTE	PATT
	 POIN2	high_tier_map_10_009
// 011   ----------------------------------------
	BYTE	PATT
	 POIN2	high_tier_map_10_009
// 012   ----------------------------------------
	BYTE	PATT
	 POIN2	high_tier_map_10_009
// 013   ----------------------------------------
	BYTE	W96
// 014   ----------------------------------------
	BYTE	W96
// 015   ----------------------------------------
	BYTE	W96
// 016   ----------------------------------------
	BYTE	W96
// 017   ----------------------------------------
high_tier_map_10_017:
	BYTE	W24
	BYTE		N02     Cn1   v112
	BYTE		N02     Dn1   v100
	BYTE		N02     An2   v112
	BYTE		N02     Bn2 
	BYTE	W48
	BYTE		        Cn1 
	BYTE		N02     Dn1   v100
	BYTE		N02     An2   v112
	BYTE		N02     Bn2 
	BYTE	W24
	BYTE	PEND
// 018   ----------------------------------------
high_tier_map_10_018:
	BYTE	W24
	BYTE		N02     Cn1   v112
	BYTE		N02     Dn1   v100
	BYTE		N02     An2   v112
	BYTE		N02     Bn2 
	BYTE	W24
	BYTE		        Cn1 
	BYTE		N02     Dn1   v100
	BYTE		N02     An2   v112
	BYTE		N02     Bn2 
	BYTE	W48
	BYTE	PEND
// 019   ----------------------------------------
	BYTE	W96
// 020   ----------------------------------------
	BYTE	W96
// 021   ----------------------------------------
	BYTE	W96
// 022   ----------------------------------------
	BYTE	W96
// 023   ----------------------------------------
	BYTE	W96
// 024   ----------------------------------------
	BYTE	W96
// 025   ----------------------------------------
	BYTE	W96
// 026   ----------------------------------------
	BYTE	W96
// 027   ----------------------------------------
	BYTE	W96
// 028   ----------------------------------------
	BYTE	W96
// 029   ----------------------------------------
	BYTE	W96
// 030   ----------------------------------------
	BYTE	W96
// 031   ----------------------------------------
	BYTE	W96
// 032   ----------------------------------------
	BYTE	W96
// 033   ----------------------------------------
	BYTE	W96
// 034   ----------------------------------------
	BYTE	W96
// 035   ----------------------------------------
high_tier_map_10_035:
	BYTE		N02     Dn1   v100
	BYTE	W03
	BYTE		        Dn1   v084
	BYTE	W03
	BYTE		        Dn1   v076
	BYTE	W03
	BYTE		        Dn1   v072
	BYTE	W03
	BYTE		N02   
	BYTE	W03
	BYTE		        Dn1   v068
	BYTE	W03
	BYTE		N02   
	BYTE	W03
	BYTE		        Dn1   v064
	BYTE	W03
	BYTE		        Cn1   v112
	BYTE		N02     Dn1   v100
	BYTE		N02     An2   v112
	BYTE		N02     Bn2 
	BYTE	W24
	BYTE		        Dn1   v100
	BYTE	W03
	BYTE		        Dn1   v084
	BYTE	W03
	BYTE		        Dn1   v076
	BYTE	W03
	BYTE		        Dn1   v072
	BYTE	W03
	BYTE		N02   
	BYTE	W03
	BYTE		        Dn1   v068
	BYTE	W03
	BYTE		N02   
	BYTE	W03
	BYTE		        Dn1   v064
	BYTE	W03
	BYTE		        Cn1   v112
	BYTE		N02     Dn1   v100
	BYTE		N02     An2   v112
	BYTE		N02     Bn2 
	BYTE	W24
	BYTE	PEND
// 036   ----------------------------------------
	BYTE		        Dn1   v100
	BYTE	W03
	BYTE		        Dn1   v084
	BYTE	W03
	BYTE		        Dn1   v076
	BYTE	W03
	BYTE		        Dn1   v072
	BYTE	W03
	BYTE		N02   
	BYTE	W03
	BYTE		        Dn1   v068
	BYTE	W03
	BYTE		N02   
	BYTE	W03
	BYTE		        Dn1   v064
	BYTE	W03
	BYTE		        Cn1   v112
	BYTE		N02     Dn1   v100
	BYTE		N02     An2   v112
	BYTE		N02     Bn2 
	BYTE	W24
	BYTE		        Cn1 
	BYTE		N02     Dn1   v100
	BYTE		N02     An2   v112
	BYTE		N02     Bn2 
	BYTE	W48
// 037   ----------------------------------------
	BYTE	PATT
	 POIN2	high_tier_map_10_001
// 038   ----------------------------------------
	BYTE	PATT
	 POIN2	high_tier_map_10_002
// 039   ----------------------------------------
	BYTE	PATT
	 POIN2	high_tier_map_10_003
// 040   ----------------------------------------
	BYTE	PATT
	 POIN2	high_tier_map_10_004
// 041   ----------------------------------------
	BYTE		N02     Cn1   v112
	BYTE		N02     Dn1   v100
	BYTE		N02     An2   v112
	BYTE		N02     Bn2 
	BYTE	W16
	BYTE		        Dn1   v100
	BYTE	W08
	BYTE		N02   
	BYTE	W03
	BYTE		        Dn1   v084
	BYTE	W03
	BYTE		        Dn1   v076
	BYTE	W03
	BYTE		        Dn1   v072
	BYTE	W03
	BYTE		N02   
	BYTE	W03
	BYTE		        Dn1   v068
	BYTE	W03
	BYTE		N02   
	BYTE	W03
	BYTE		        Dn1   v064
	BYTE	W03
	BYTE		        Dn1   v100
	BYTE	W08
	BYTE		N02   
	BYTE	W08
	BYTE		N02   
	BYTE	W08
	BYTE		N02   
	BYTE	W08
	BYTE		N02   
	BYTE	W08
	BYTE		N02   
	BYTE	W08
// 042   ----------------------------------------
	BYTE	PATT
	 POIN2	high_tier_map_10_006
// 043   ----------------------------------------
	BYTE	PATT
	 POIN2	high_tier_map_10_007
// 044   ----------------------------------------
	BYTE	PATT
	 POIN2	high_tier_map_10_008
// 045   ----------------------------------------
	BYTE	PATT
	 POIN2	high_tier_map_10_009
// 046   ----------------------------------------
	BYTE	PATT
	 POIN2	high_tier_map_10_009
// 047   ----------------------------------------
	BYTE	PATT
	 POIN2	high_tier_map_10_009
// 048   ----------------------------------------
	BYTE	PATT
	 POIN2	high_tier_map_10_009
// 049   ----------------------------------------
	BYTE	W96
// 050   ----------------------------------------
	BYTE	W96
// 051   ----------------------------------------
	BYTE	W96
// 052   ----------------------------------------
	BYTE	W96
// 053   ----------------------------------------
	BYTE	PATT
	 POIN2	high_tier_map_10_017
// 054   ----------------------------------------
	BYTE	PATT
	 POIN2	high_tier_map_10_018
// 055   ----------------------------------------
	BYTE	W96
// 056   ----------------------------------------
	BYTE	W96
// 057   ----------------------------------------
	BYTE	W96
// 058   ----------------------------------------
	BYTE	W96
// 059   ----------------------------------------
	BYTE	W96
// 060   ----------------------------------------
	BYTE	W96
// 061   ----------------------------------------
	BYTE	W96
// 062   ----------------------------------------
	BYTE	W96
// 063   ----------------------------------------
	BYTE	W96
// 064   ----------------------------------------
	BYTE	W96
// 065   ----------------------------------------
	BYTE	W96
// 066   ----------------------------------------
	BYTE	W96
// 067   ----------------------------------------
	BYTE	W96
// 068   ----------------------------------------
	BYTE	W96
// 069   ----------------------------------------
	BYTE	W96
// 070   ----------------------------------------
	BYTE	W96
// 071   ----------------------------------------
	BYTE	PATT
	 POIN2	high_tier_map_10_035
// 072   ----------------------------------------
	BYTE		N02     Dn1   v100
	BYTE	W03
	BYTE		        Dn1   v084
	BYTE	W03
	BYTE		        Dn1   v076
	BYTE	W03
	BYTE		        Dn1   v072
	BYTE	W03
	BYTE		N02   
	BYTE	W03
	BYTE		        Dn1   v068
	BYTE	W03
	BYTE		N02   
	BYTE	W03
	BYTE		        Dn1   v064
	BYTE	W03
	BYTE		        Cn1   v112
	BYTE		N02     Dn1   v100
	BYTE		N02     An2   v112
	BYTE		N02     Bn2 
	BYTE	W24
	BYTE		        Cn1 
	BYTE		N02     Dn1   v100
	BYTE		N02     An2   v112
	BYTE		N02     Bn2 
	BYTE	W02
	BYTE	FINE

//**************** Track 11 (Midi-Chn.11) ****************//

high_tier_map_11:
	BYTE	KEYSH   high_tier_map_key+0
// 000   ----------------------------------------
	BYTE		VOICE   58
	BYTE		VOL     35*high_tier_map_mvl/mxv
	BYTE		PAN     c_v-29
	BYTE	W24
// 001   ----------------------------------------
high_tier_map_11_001:
	BYTE		N19     Gn0   v100
	BYTE	W24
	BYTE		        Gn1 
	BYTE	W24
	BYTE		        Fs1 
	BYTE	W24
	BYTE		        Fs0 
	BYTE	W24
	BYTE	PEND
// 002   ----------------------------------------
	BYTE	PATT
	 POIN2	high_tier_map_11_001
// 003   ----------------------------------------
high_tier_map_11_003:
	BYTE		N19     Gn0   v100
	BYTE	W24
	BYTE		        An0 
	BYTE	W24
	BYTE		        Bn0 
	BYTE	W24
	BYTE		        Gn0 
	BYTE	W24
	BYTE	PEND
// 004   ----------------------------------------
	BYTE		N09     Cn1 
	BYTE	W96
// 005   ----------------------------------------
high_tier_map_11_005:
	BYTE		N19     Gn1   v100
	BYTE	W24
	BYTE		        Cn1 
	BYTE	W24
	BYTE		N19   
	BYTE	W24
	BYTE		        Dn1 
	BYTE	W24
	BYTE	PEND
// 006   ----------------------------------------
high_tier_map_11_006:
	BYTE		N19     Gn1   v100
	BYTE	W24
	BYTE		N19   
	BYTE	W24
	BYTE		        Fn1 
	BYTE	W24
	BYTE		N19   
	BYTE	W24
	BYTE	PEND
// 007   ----------------------------------------
high_tier_map_11_007:
	BYTE		N19     En1   v100
	BYTE	W24
	BYTE		N19   
	BYTE	W24
	BYTE		        Cn1 
	BYTE	W24
	BYTE		N19   
	BYTE	W24
	BYTE	PEND
// 008   ----------------------------------------
high_tier_map_11_008:
	BYTE		N19     Fn1   v100
	BYTE	W24
	BYTE		N19   
	BYTE	W24
	BYTE		        Fs1 
	BYTE	W24
	BYTE		        Dn1 
	BYTE	W24
	BYTE	PEND
// 009   ----------------------------------------
high_tier_map_11_009:
	BYTE	W24
	BYTE		N05     Cn1   v112
	BYTE	W08
	BYTE		N05   
	BYTE	W08
	BYTE		N05   
	BYTE	W08
	BYTE		N12   
	BYTE	W48
	BYTE	PEND
// 010   ----------------------------------------
high_tier_map_11_010:
	BYTE	W24
	BYTE		N05     Fn0   v112
	BYTE	W08
	BYTE		N05   
	BYTE	W08
	BYTE		N05   
	BYTE	W08
	BYTE		N12   
	BYTE	W48
	BYTE	PEND
// 011   ----------------------------------------
high_tier_map_11_011:
	BYTE	W24
	BYTE		N05     As0   v112
	BYTE	W08
	BYTE		N05   
	BYTE	W08
	BYTE		N05   
	BYTE	W08
	BYTE		N12   
	BYTE	W48
	BYTE	PEND
// 012   ----------------------------------------
high_tier_map_11_012:
	BYTE	W24
	BYTE		N05     Ds0   v112
	BYTE	W08
	BYTE		N05   
	BYTE	W08
	BYTE		N05   
	BYTE	W08
	BYTE		N12   
	BYTE	W48
	BYTE	PEND
// 013   ----------------------------------------
	BYTE	W96
// 014   ----------------------------------------
	BYTE	W96
// 015   ----------------------------------------
	BYTE	W96
// 016   ----------------------------------------
	BYTE	W96
// 017   ----------------------------------------
high_tier_map_11_017:
	BYTE	W24
	BYTE		N12     Dn1   v112
	BYTE	W48
	BYTE		N12   
	BYTE	W24
	BYTE	PEND
// 018   ----------------------------------------
high_tier_map_11_018:
	BYTE	W24
	BYTE		N12     Dn1   v112
	BYTE	W24
	BYTE		N12   
	BYTE	W48
	BYTE	PEND
// 019   ----------------------------------------
	BYTE	W96
// 020   ----------------------------------------
	BYTE	W96
// 021   ----------------------------------------
	BYTE	W96
// 022   ----------------------------------------
	BYTE	W96
// 023   ----------------------------------------
	BYTE	W96
// 024   ----------------------------------------
	BYTE	W96
// 025   ----------------------------------------
	BYTE	W96
// 026   ----------------------------------------
	BYTE	W96
// 027   ----------------------------------------
high_tier_map_11_027:
	BYTE	W24
	BYTE		N06     Cn1   v100
	BYTE	W08
	BYTE		N06   
	BYTE	W08
	BYTE		N06   
	BYTE	W08
	BYTE		N19   
	BYTE	W48
	BYTE	PEND
// 028   ----------------------------------------
high_tier_map_11_028:
	BYTE	W24
	BYTE		N06     Fn1   v100
	BYTE	W08
	BYTE		N06   
	BYTE	W08
	BYTE		N06   
	BYTE	W08
	BYTE		N19   
	BYTE	W48
	BYTE	PEND
// 029   ----------------------------------------
high_tier_map_11_029:
	BYTE	W24
	BYTE		N06     As0   v100
	BYTE	W08
	BYTE		N06   
	BYTE	W08
	BYTE		N06   
	BYTE	W08
	BYTE		N19   
	BYTE	W48
	BYTE	PEND
// 030   ----------------------------------------
high_tier_map_11_030:
	BYTE	W24
	BYTE		N06     Ds1   v100
	BYTE	W08
	BYTE		N06   
	BYTE	W08
	BYTE		N06   
	BYTE	W08
	BYTE		N19   
	BYTE	W48
	BYTE	PEND
// 031   ----------------------------------------
	BYTE	W96
// 032   ----------------------------------------
	BYTE	W96
// 033   ----------------------------------------
	BYTE	W96
// 034   ----------------------------------------
	BYTE	W96
// 035   ----------------------------------------
high_tier_map_11_035:
	BYTE	W24
	BYTE		N12     Dn1   v127
	BYTE	W48
	BYTE		N12   
	BYTE	W24
	BYTE	PEND
// 036   ----------------------------------------
	BYTE	W24
	BYTE		N12   
	BYTE	W24
	BYTE		N12   
	BYTE	W48
// 037   ----------------------------------------
	BYTE	PATT
	 POIN2	high_tier_map_11_001
// 038   ----------------------------------------
	BYTE	PATT
	 POIN2	high_tier_map_11_001
// 039   ----------------------------------------
	BYTE	PATT
	 POIN2	high_tier_map_11_003
// 040   ----------------------------------------
	BYTE		N09     Cn1   v100
	BYTE	W96
// 041   ----------------------------------------
	BYTE	PATT
	 POIN2	high_tier_map_11_005
// 042   ----------------------------------------
	BYTE	PATT
	 POIN2	high_tier_map_11_006
// 043   ----------------------------------------
	BYTE	PATT
	 POIN2	high_tier_map_11_007
// 044   ----------------------------------------
	BYTE	PATT
	 POIN2	high_tier_map_11_008
// 045   ----------------------------------------
	BYTE	PATT
	 POIN2	high_tier_map_11_009
// 046   ----------------------------------------
	BYTE	PATT
	 POIN2	high_tier_map_11_010
// 047   ----------------------------------------
	BYTE	PATT
	 POIN2	high_tier_map_11_011
// 048   ----------------------------------------
	BYTE	PATT
	 POIN2	high_tier_map_11_012
// 049   ----------------------------------------
	BYTE	W96
// 050   ----------------------------------------
	BYTE	W96
// 051   ----------------------------------------
	BYTE	W96
// 052   ----------------------------------------
	BYTE	W96
// 053   ----------------------------------------
	BYTE	PATT
	 POIN2	high_tier_map_11_017
// 054   ----------------------------------------
	BYTE	PATT
	 POIN2	high_tier_map_11_018
// 055   ----------------------------------------
	BYTE	W96
// 056   ----------------------------------------
	BYTE	W96
// 057   ----------------------------------------
	BYTE	W96
// 058   ----------------------------------------
	BYTE	W96
// 059   ----------------------------------------
	BYTE	W96
// 060   ----------------------------------------
	BYTE	W96
// 061   ----------------------------------------
	BYTE	W96
// 062   ----------------------------------------
	BYTE	W96
// 063   ----------------------------------------
	BYTE	PATT
	 POIN2	high_tier_map_11_027
// 064   ----------------------------------------
	BYTE	PATT
	 POIN2	high_tier_map_11_028
// 065   ----------------------------------------
	BYTE	PATT
	 POIN2	high_tier_map_11_029
// 066   ----------------------------------------
	BYTE	PATT
	 POIN2	high_tier_map_11_030
// 067   ----------------------------------------
	BYTE	W96
// 068   ----------------------------------------
	BYTE	W96
// 069   ----------------------------------------
	BYTE	W96
// 070   ----------------------------------------
	BYTE	W96
// 071   ----------------------------------------
	BYTE	PATT
	 POIN2	high_tier_map_11_035
// 072   ----------------------------------------
	BYTE	W24
	BYTE		N12     Dn1   v127
	BYTE	W24
	BYTE		N12   
	BYTE	W12
	BYTE	FINE

//**************** Track 12 (Midi-Chn.13) ****************//

high_tier_map_12:
	BYTE	KEYSH   high_tier_map_key+0
// 000   ----------------------------------------
	BYTE		VOICE   47
	BYTE		VOL     35*high_tier_map_mvl/mxv
	BYTE		PAN     c_v-29
	BYTE	W24
// 001   ----------------------------------------
	BYTE		N96     Gn1   v127
	BYTE	W96
// 002   ----------------------------------------
	BYTE	W96
// 003   ----------------------------------------
	BYTE	W96
// 004   ----------------------------------------
	BYTE		        Cn1 
	BYTE	W96
// 005   ----------------------------------------
	BYTE	W96
// 006   ----------------------------------------
	BYTE	W96
// 007   ----------------------------------------
	BYTE	W96
// 008   ----------------------------------------
high_tier_map_12_008:
	BYTE	W24
	BYTE		N03     Fs1   v076
	BYTE	W03
	BYTE		        Fs1   v084
	BYTE	W03
	BYTE		        Fs1   v088
	BYTE	W03
	BYTE		        Fs1   v096
	BYTE	W03
	BYTE		        Fs1   v104
	BYTE	W03
	BYTE		        Fs1   v108
	BYTE	W03
	BYTE		        Fs1   v116
	BYTE	W03
	BYTE		        Fs1   v120
	BYTE	W03
	BYTE		N24     Fs1   v127
	BYTE	W48
	BYTE	PEND
// 009   ----------------------------------------
high_tier_map_12_009:
	BYTE	W24
	BYTE		N24     Cn1   v127
	BYTE	W24
	BYTE		N24   
	BYTE	W48
	BYTE	PEND
// 010   ----------------------------------------
high_tier_map_12_010:
	BYTE	W24
	BYTE		N24     Fn1   v127
	BYTE	W24
	BYTE		N24   
	BYTE	W48
	BYTE	PEND
// 011   ----------------------------------------
high_tier_map_12_011:
	BYTE	W24
	BYTE		N24     As0   v127
	BYTE	W24
	BYTE		N24   
	BYTE	W48
	BYTE	PEND
// 012   ----------------------------------------
high_tier_map_12_012:
	BYTE	W24
	BYTE		N24     Ds1   v127
	BYTE	W24
	BYTE		N24   
	BYTE	W48
	BYTE	PEND
// 013   ----------------------------------------
	BYTE	W96
// 014   ----------------------------------------
	BYTE	W96
// 015   ----------------------------------------
	BYTE	W96
// 016   ----------------------------------------
	BYTE	W96
// 017   ----------------------------------------
high_tier_map_12_017:
	BYTE	W24
	BYTE		N48     Dn1   v127
	BYTE	W48
	BYTE		N48   
	BYTE	W24
	BYTE	PEND
// 018   ----------------------------------------
high_tier_map_12_018:
	BYTE	W24
	BYTE		N03     Dn1   v076
	BYTE	W03
	BYTE		        Dn1   v084
	BYTE	W03
	BYTE		        Dn1   v088
	BYTE	W03
	BYTE		        Dn1   v096
	BYTE	W03
	BYTE		        Dn1   v104
	BYTE	W03
	BYTE		        Dn1   v108
	BYTE	W03
	BYTE		        Dn1   v116
	BYTE	W03
	BYTE		        Dn1   v120
	BYTE	W03
	BYTE		N24     Dn1   v127
	BYTE	W48
	BYTE	PEND
// 019   ----------------------------------------
	BYTE	W96
// 020   ----------------------------------------
	BYTE	W96
// 021   ----------------------------------------
	BYTE	W96
// 022   ----------------------------------------
	BYTE	W96
// 023   ----------------------------------------
	BYTE	W96
// 024   ----------------------------------------
	BYTE	W96
// 025   ----------------------------------------
	BYTE	W96
// 026   ----------------------------------------
	BYTE	W96
// 027   ----------------------------------------
	BYTE	W96
// 028   ----------------------------------------
	BYTE	W96
// 029   ----------------------------------------
	BYTE	W96
// 030   ----------------------------------------
	BYTE	W96
// 031   ----------------------------------------
	BYTE	W96
// 032   ----------------------------------------
	BYTE	W96
// 033   ----------------------------------------
	BYTE	W96
// 034   ----------------------------------------
	BYTE	W96
// 035   ----------------------------------------
	BYTE	PATT
	 POIN2	high_tier_map_12_017
// 036   ----------------------------------------
	BYTE	W24
	BYTE		N24     Dn1   v127
	BYTE	W24
	BYTE		N24   
	BYTE	W48
// 037   ----------------------------------------
	BYTE		N96     Gn1 
	BYTE	W96
// 038   ----------------------------------------
	BYTE	W96
// 039   ----------------------------------------
	BYTE	W96
// 040   ----------------------------------------
	BYTE		        Cn1 
	BYTE	W96
// 041   ----------------------------------------
	BYTE	W96
// 042   ----------------------------------------
	BYTE	W96
// 043   ----------------------------------------
	BYTE	W96
// 044   ----------------------------------------
	BYTE	PATT
	 POIN2	high_tier_map_12_008
// 045   ----------------------------------------
	BYTE	PATT
	 POIN2	high_tier_map_12_009
// 046   ----------------------------------------
	BYTE	PATT
	 POIN2	high_tier_map_12_010
// 047   ----------------------------------------
	BYTE	PATT
	 POIN2	high_tier_map_12_011
// 048   ----------------------------------------
	BYTE	PATT
	 POIN2	high_tier_map_12_012
// 049   ----------------------------------------
	BYTE	W96
// 050   ----------------------------------------
	BYTE	W96
// 051   ----------------------------------------
	BYTE	W96
// 052   ----------------------------------------
	BYTE	W96
// 053   ----------------------------------------
	BYTE	PATT
	 POIN2	high_tier_map_12_017
// 054   ----------------------------------------
	BYTE	PATT
	 POIN2	high_tier_map_12_018
// 055   ----------------------------------------
	BYTE	W96
// 056   ----------------------------------------
	BYTE	W96
// 057   ----------------------------------------
	BYTE	W96
// 058   ----------------------------------------
	BYTE	W96
// 059   ----------------------------------------
	BYTE	W96
// 060   ----------------------------------------
	BYTE	W96
// 061   ----------------------------------------
	BYTE	W96
// 062   ----------------------------------------
	BYTE	W96
// 063   ----------------------------------------
	BYTE	W96
// 064   ----------------------------------------
	BYTE	W96
// 065   ----------------------------------------
	BYTE	W96
// 066   ----------------------------------------
	BYTE	W96
// 067   ----------------------------------------
	BYTE	W96
// 068   ----------------------------------------
	BYTE	W96
// 069   ----------------------------------------
	BYTE	W96
// 070   ----------------------------------------
	BYTE	W96
// 071   ----------------------------------------
	BYTE	PATT
	 POIN2	high_tier_map_12_017
// 072   ----------------------------------------
	BYTE	W24
	BYTE		N24     Dn1   v127
	BYTE	W24
	BYTE		N24   
	BYTE	W24
	BYTE	FINE

//**************** Track 13 (Midi-Chn.14) ****************//

high_tier_map_13:
	BYTE	KEYSH   high_tier_map_key+0
// 000   ----------------------------------------
	BYTE		VOICE   48
	BYTE		VOL     35*high_tier_map_mvl/mxv
	BYTE		PAN     c_v-29
	BYTE	W24
// 001   ----------------------------------------
	BYTE	W96
// 002   ----------------------------------------
	BYTE	W96
// 003   ----------------------------------------
	BYTE	W96
// 004   ----------------------------------------
	BYTE	W96
// 005   ----------------------------------------
	BYTE	W96
// 006   ----------------------------------------
	BYTE	W96
// 007   ----------------------------------------
	BYTE	W96
// 008   ----------------------------------------
	BYTE	W96
// 009   ----------------------------------------
	BYTE	W96
// 010   ----------------------------------------
	BYTE	W96
// 011   ----------------------------------------
	BYTE	W96
// 012   ----------------------------------------
	BYTE	W96
// 013   ----------------------------------------
	BYTE	W96
// 014   ----------------------------------------
	BYTE	W96
// 015   ----------------------------------------
	BYTE	W96
// 016   ----------------------------------------
	BYTE	W96
// 017   ----------------------------------------
	BYTE	W96
// 018   ----------------------------------------
high_tier_map_13_018:
	BYTE	W48
	BYTE		N03     As1   v112
	BYTE		N03     En2 
	BYTE	W03
	BYTE		        Cn2 
	BYTE		N03     Fs2 
	BYTE	W03
	BYTE		        Dn2 
	BYTE		N03     Gn2 
	BYTE	W03
	BYTE		        En2 
	BYTE		N03     An2 
	BYTE	W03
	BYTE		        Fs2 
	BYTE		N03     As2 
	BYTE	W03
	BYTE		        Gn2 
	BYTE		N03     Cn3 
	BYTE	W03
	BYTE		        An2 
	BYTE		N03     Dn3 
	BYTE	W03
	BYTE		        As2 
	BYTE		N03     En3 
	BYTE	W03
	BYTE		        Cn3 
	BYTE		N03     Fs3 
	BYTE	W03
	BYTE		        Dn3 
	BYTE		N03     Gn3 
	BYTE	W03
	BYTE		        En3 
	BYTE		N03     An3 
	BYTE	W03
	BYTE		        Fs3 
	BYTE		N03     As3 
	BYTE	W03
	BYTE		        Gn3 
	BYTE		N03     Cn4 
	BYTE	W03
	BYTE		        An3 
	BYTE		N03     Dn4 
	BYTE	W03
	BYTE		        As3 
	BYTE		N03     En4 
	BYTE	W03
	BYTE		        Cn4 
	BYTE		N03     Fs4 
	BYTE	W03
	BYTE	PEND
// 019   ----------------------------------------
high_tier_map_13_019:
	BYTE		N36     Gn4   v112
	BYTE	W36
	BYTE		N06     Cn4 
	BYTE		N06     An4 
	BYTE	W06
	BYTE		        Dn4 
	BYTE		N06     As4 
	BYTE	W06
	BYTE		N36     Cn4 
	BYTE		N36     An4 
	BYTE	W36
	BYTE		N06     Dn4 
	BYTE		N06     As4 
	BYTE	W06
	BYTE		        Ds4 
	BYTE		N06     Cn5 
	BYTE	W06
	BYTE	PEND
// 020   ----------------------------------------
	BYTE		N36     Dn4 
	BYTE		N36     As4 
	BYTE	W36
	BYTE		N06     Cn4 
	BYTE		N06     An4 
	BYTE	W06
	BYTE		        As3 
	BYTE		N06     Gn4 
	BYTE	W06
	BYTE		N18     Cn4 
	BYTE		N18     An4 
	BYTE	W24
	BYTE		N24     Dn4 
	BYTE	W24
// 021   ----------------------------------------
high_tier_map_13_021:
	BYTE		N08     Bn3   v112
	BYTE		N08     Gn4 
	BYTE	W08
	BYTE		        Dn4 
	BYTE		N08     Bn4 
	BYTE	W08
	BYTE		        Fn4 
	BYTE		N08     Dn5 
	BYTE	W08
	BYTE		N48     Bn4 
	BYTE		N48     Fn5 
	BYTE	W48
	BYTE		N08     Gs4 
	BYTE		N08     Fn5 
	BYTE	W08
	BYTE		        Gn4 
	BYTE		N08     Ds5 
	BYTE	W08
	BYTE		        Fn4 
	BYTE		N08     Dn5 
	BYTE	W08
	BYTE	PEND
// 022   ----------------------------------------
high_tier_map_13_022:
	BYTE		N60     Ds4   v112
	BYTE		N60     Cn5 
	BYTE	W72
	BYTE		N16     Ds4 
	BYTE		N16     Cn5 
	BYTE	W16
	BYTE		N08     Fn4 
	BYTE		N08     Dn5 
	BYTE	W08
	BYTE	PEND
// 023   ----------------------------------------
	BYTE		N72     Ds5 
	BYTE	W72
	BYTE		N08     An4 
	BYTE	W08
	BYTE		        Dn5 
	BYTE	W08
	BYTE		        Cn5 
	BYTE	W08
// 024   ----------------------------------------
	BYTE		N66     As4 
	BYTE	W72
	BYTE		N16     Dn4 
	BYTE		N16     As4 
	BYTE	W16
	BYTE		N08     Fn4 
	BYTE		N08     Dn5 
	BYTE	W08
// 025   ----------------------------------------
	BYTE		N24     Cn5 
	BYTE	W24
	BYTE		N48     As3 
	BYTE	W48
	BYTE		N24     Dn4 
	BYTE		N24     As4 
	BYTE	W24
// 026   ----------------------------------------
high_tier_map_13_026:
	BYTE		N66     Cn4   v112
	BYTE		N48     As4 
	BYTE	W48
	BYTE		N18     An4 
	BYTE	W48
	BYTE	PEND
// 027   ----------------------------------------
high_tier_map_13_027:
	BYTE	W12
	BYTE		N03     Gn3   v092
	BYTE	W03
	BYTE		        An3 
	BYTE	W03
	BYTE		        As3 
	BYTE	W03
	BYTE		        Cn4 
	BYTE	W03
	BYTE		        Dn4 
	BYTE	W03
	BYTE		        Ds4 
	BYTE	W03
	BYTE		        Fn4   v096
	BYTE	W03
	BYTE		        Gn4   v100
	BYTE	W03
	BYTE		        An4   v104
	BYTE	W03
	BYTE		        As4   v108
	BYTE	W03
	BYTE		        Cn5   v112
	BYTE	W03
	BYTE		        Dn5   v116
	BYTE	W03
	BYTE		N24     Ds5   v120
	BYTE	W48
	BYTE	PEND
// 028   ----------------------------------------
high_tier_map_13_028:
	BYTE	W12
	BYTE		N03     Cn3   v092
	BYTE	W03
	BYTE		        Dn3 
	BYTE	W03
	BYTE		        Ds3 
	BYTE	W03
	BYTE		        Fn3 
	BYTE	W03
	BYTE		        Gn3 
	BYTE	W03
	BYTE		        An3 
	BYTE	W03
	BYTE		        As3   v096
	BYTE	W03
	BYTE		        Cn4   v100
	BYTE	W03
	BYTE		        Dn4   v104
	BYTE	W03
	BYTE		        Ds4   v108
	BYTE	W03
	BYTE		        Fn4   v112
	BYTE	W03
	BYTE		        Gn4   v116
	BYTE	W03
	BYTE		N24     An4   v120
	BYTE	W48
	BYTE	PEND
// 029   ----------------------------------------
high_tier_map_13_029:
	BYTE	W12
	BYTE		N03     Fn3   v092
	BYTE	W03
	BYTE		        Gn3 
	BYTE	W03
	BYTE		        An3 
	BYTE	W03
	BYTE		        As3 
	BYTE	W03
	BYTE		        Cn4 
	BYTE	W03
	BYTE		        Dn4 
	BYTE	W03
	BYTE		        Ds4   v096
	BYTE	W03
	BYTE		        Fn4   v100
	BYTE	W03
	BYTE		        Gn4   v104
	BYTE	W03
	BYTE		        An4   v108
	BYTE	W03
	BYTE		        As4   v112
	BYTE	W03
	BYTE		        Cn5   v116
	BYTE	W03
	BYTE		N24     Dn5   v120
	BYTE	W48
	BYTE	PEND
// 030   ----------------------------------------
high_tier_map_13_030:
	BYTE	W12
	BYTE		N03     As3   v092
	BYTE	W03
	BYTE		        Cn4 
	BYTE	W03
	BYTE		        Dn4 
	BYTE	W03
	BYTE		        Ds4 
	BYTE	W03
	BYTE		        Fn4 
	BYTE	W03
	BYTE		        Gn4 
	BYTE	W03
	BYTE		        An4   v096
	BYTE	W03
	BYTE		        As4   v100
	BYTE	W03
	BYTE		        Cn5   v104
	BYTE	W03
	BYTE		        Dn5   v108
	BYTE	W03
	BYTE		        Ds5   v112
	BYTE	W03
	BYTE		        Fn5   v116
	BYTE	W03
	BYTE		N16     Gn5   v120
	BYTE	W48
	BYTE	PEND
// 031   ----------------------------------------
high_tier_map_13_031:
	BYTE		N48     Gn3   v080
	BYTE	W48
	BYTE		        Fs3 
	BYTE	W48
	BYTE	PEND
// 032   ----------------------------------------
high_tier_map_13_032:
	BYTE		N48     Fn3   v080
	BYTE	W48
	BYTE		        En3 
	BYTE	W48
	BYTE	PEND
// 033   ----------------------------------------
high_tier_map_13_033:
	BYTE		N48     Ds3   v080
	BYTE	W48
	BYTE		        Dn3 
	BYTE	W48
	BYTE	PEND
// 034   ----------------------------------------
high_tier_map_13_034:
	BYTE		N48     Cs3   v080
	BYTE	W48
	BYTE		        Cn3 
	BYTE	W48
	BYTE	PEND
// 035   ----------------------------------------
	BYTE	W96
// 036   ----------------------------------------
	BYTE	W96
// 037   ----------------------------------------
	BYTE	W96
// 038   ----------------------------------------
	BYTE	W96
// 039   ----------------------------------------
	BYTE	W96
// 040   ----------------------------------------
	BYTE	W96
// 041   ----------------------------------------
	BYTE	W96
// 042   ----------------------------------------
	BYTE	W96
// 043   ----------------------------------------
	BYTE	W96
// 044   ----------------------------------------
	BYTE	W96
// 045   ----------------------------------------
	BYTE	W96
// 046   ----------------------------------------
	BYTE	W96
// 047   ----------------------------------------
	BYTE	W96
// 048   ----------------------------------------
	BYTE	W96
// 049   ----------------------------------------
	BYTE	W96
// 050   ----------------------------------------
	BYTE	W96
// 051   ----------------------------------------
	BYTE	W96
// 052   ----------------------------------------
	BYTE	W96
// 053   ----------------------------------------
	BYTE	W96
// 054   ----------------------------------------
	BYTE	PATT
	 POIN2	high_tier_map_13_018
// 055   ----------------------------------------
	BYTE	PATT
	 POIN2	high_tier_map_13_019
// 056   ----------------------------------------
	BYTE		N36     Dn4   v112
	BYTE		N36     As4 
	BYTE	W36
	BYTE		N06     Cn4 
	BYTE		N06     An4 
	BYTE	W06
	BYTE		        Gn4 
	BYTE	W06
	BYTE		N18     Cn4 
	BYTE		N18     An4 
	BYTE	W24
	BYTE		N24     Dn4 
	BYTE	W24
// 057   ----------------------------------------
	BYTE	PATT
	 POIN2	high_tier_map_13_021
// 058   ----------------------------------------
	BYTE	PATT
	 POIN2	high_tier_map_13_022
// 059   ----------------------------------------
	BYTE		N72     Gn4   v112
	BYTE		N72     Ds5 
	BYTE	W72
	BYTE		N24     Fs4 
	BYTE		N08     An4 
	BYTE	W08
	BYTE		        Dn5 
	BYTE	W08
	BYTE		        Cn5 
	BYTE	W08
// 060   ----------------------------------------
	BYTE		N24     Gn4 
	BYTE		N66     As4 
	BYTE	W24
	BYTE		N24     Fs4   v100
	BYTE	W24
	BYTE		N18     Fn4   v112
	BYTE	W24
	BYTE		N16     Dn4 
	BYTE		N16     As4 
	BYTE	W16
	BYTE		N08     Fn4 
	BYTE		N08     Dn5 
	BYTE	W08
// 061   ----------------------------------------
	BYTE		N24     Gn4 
	BYTE		N24     Cn5 
	BYTE	W24
	BYTE		N48     As3 
	BYTE		N48     Gn4 
	BYTE	W48
	BYTE		N24     Dn4 
	BYTE		N24     As4 
	BYTE	W24
// 062   ----------------------------------------
	BYTE	PATT
	 POIN2	high_tier_map_13_026
// 063   ----------------------------------------
	BYTE	PATT
	 POIN2	high_tier_map_13_027
// 064   ----------------------------------------
	BYTE	PATT
	 POIN2	high_tier_map_13_028
// 065   ----------------------------------------
	BYTE	PATT
	 POIN2	high_tier_map_13_029
// 066   ----------------------------------------
	BYTE	PATT
	 POIN2	high_tier_map_13_030
// 067   ----------------------------------------
	BYTE	PATT
	 POIN2	high_tier_map_13_031
// 068   ----------------------------------------
	BYTE	PATT
	 POIN2	high_tier_map_13_032
// 069   ----------------------------------------
	BYTE	PATT
	 POIN2	high_tier_map_13_033
// 070   ----------------------------------------
	BYTE	PATT
	 POIN2	high_tier_map_13_034
// 071   ----------------------------------------
	BYTE	W96
// 072   ----------------------------------------
	BYTE	W60
	BYTE	FINE

//**************** Track 14 (Midi-Chn.15) ****************//

high_tier_map_14:
	BYTE	KEYSH   high_tier_map_key+0
// 000   ----------------------------------------
	BYTE		VOICE   48
	BYTE		VOL     35*high_tier_map_mvl/mxv
	BYTE		PAN     c_v-29
	BYTE	W24
// 001   ----------------------------------------
	BYTE	W96
// 002   ----------------------------------------
	BYTE	W96
// 003   ----------------------------------------
	BYTE	W96
// 004   ----------------------------------------
	BYTE	W96
// 005   ----------------------------------------
	BYTE	W96
// 006   ----------------------------------------
	BYTE	W96
// 007   ----------------------------------------
	BYTE	W96
// 008   ----------------------------------------
	BYTE	W96
// 009   ----------------------------------------
	BYTE	W96
// 010   ----------------------------------------
	BYTE	W96
// 011   ----------------------------------------
	BYTE	W96
// 012   ----------------------------------------
	BYTE	W96
// 013   ----------------------------------------
	BYTE	W96
// 014   ----------------------------------------
	BYTE	W96
// 015   ----------------------------------------
	BYTE	W96
// 016   ----------------------------------------
	BYTE	W96
// 017   ----------------------------------------
	BYTE	W96
// 018   ----------------------------------------
	BYTE	W96
// 019   ----------------------------------------
high_tier_map_14_019:
	BYTE		N48     Dn3   v100
	BYTE	W48
	BYTE		N48   
	BYTE	W48
	BYTE	PEND
// 020   ----------------------------------------
	BYTE	PATT
	 POIN2	high_tier_map_14_019
// 021   ----------------------------------------
	BYTE	PATT
	 POIN2	high_tier_map_14_019
// 022   ----------------------------------------
	BYTE	W96
// 023   ----------------------------------------
high_tier_map_14_023:
	BYTE		N48     Cn3   v100
	BYTE		N48     Gn3 
	BYTE	W48
	BYTE		N24     Ds3 
	BYTE		N24     Gn3 
	BYTE	W24
	BYTE		        Dn3 
	BYTE		N24     An3 
	BYTE	W24
	BYTE	PEND
// 024   ----------------------------------------
high_tier_map_14_024:
	BYTE		N72     Dn3   v100
	BYTE		N72     Gn3 
	BYTE	W72
	BYTE		N24     Dn3 
	BYTE		N24     Fn3 
	BYTE	W24
	BYTE	PEND
// 025   ----------------------------------------
high_tier_map_14_025:
	BYTE		N48     Cn3   v100
	BYTE		N48     Gn3 
	BYTE	W48
	BYTE		        As2 
	BYTE		N48     Gn3 
	BYTE	W48
	BYTE	PEND
// 026   ----------------------------------------
high_tier_map_14_026:
	BYTE		N48     Cn3   v100
	BYTE		N48     Fn3 
	BYTE	W48
	BYTE		N18     Dn3 
	BYTE		N18     Fs3 
	BYTE	W48
	BYTE	PEND
// 027   ----------------------------------------
high_tier_map_14_027:
	BYTE	W12
	BYTE		N03     Ds3   v092
	BYTE	W03
	BYTE		        Fn3 
	BYTE	W03
	BYTE		        Gn3 
	BYTE	W03
	BYTE		        An3 
	BYTE	W03
	BYTE		        As3 
	BYTE	W03
	BYTE		        Cn4 
	BYTE	W03
	BYTE		        Dn4   v096
	BYTE	W03
	BYTE		        Ds4   v100
	BYTE	W03
	BYTE		        Fn4   v104
	BYTE	W03
	BYTE		        Gn4   v108
	BYTE	W03
	BYTE		        An4   v112
	BYTE	W03
	BYTE		        As4   v116
	BYTE	W03
	BYTE		N24     Cn5   v120
	BYTE	W48
	BYTE	PEND
// 028   ----------------------------------------
high_tier_map_14_028:
	BYTE	W12
	BYTE		N03     An2   v092
	BYTE	W03
	BYTE		        As2 
	BYTE	W03
	BYTE		        Cn3 
	BYTE	W03
	BYTE		        Dn3 
	BYTE	W03
	BYTE		        Ds3 
	BYTE	W03
	BYTE		        Fn3 
	BYTE	W03
	BYTE		        Gn3   v096
	BYTE	W03
	BYTE		        An3   v100
	BYTE	W03
	BYTE		        As3   v104
	BYTE	W03
	BYTE		        Cn4   v108
	BYTE	W03
	BYTE		        Dn4   v112
	BYTE	W03
	BYTE		        Ds4   v116
	BYTE	W03
	BYTE		N24     Fn4   v120
	BYTE	W48
	BYTE	PEND
// 029   ----------------------------------------
high_tier_map_14_029:
	BYTE	W12
	BYTE		N03     Dn3   v092
	BYTE	W03
	BYTE		        Ds3 
	BYTE	W03
	BYTE		        Fn3 
	BYTE	W03
	BYTE		        Gn3 
	BYTE	W03
	BYTE		        An3 
	BYTE	W03
	BYTE		        As3 
	BYTE	W03
	BYTE		        Cn4   v096
	BYTE	W03
	BYTE		        Dn4   v100
	BYTE	W03
	BYTE		        Ds4   v104
	BYTE	W03
	BYTE		        Fn4   v108
	BYTE	W03
	BYTE		        Gn4   v112
	BYTE	W03
	BYTE		        An4   v116
	BYTE	W03
	BYTE		N24     As4   v120
	BYTE	W48
	BYTE	PEND
// 030   ----------------------------------------
high_tier_map_14_030:
	BYTE	W12
	BYTE		N03     Gn3   v092
	BYTE	W03
	BYTE		        An3 
	BYTE	W03
	BYTE		        As3 
	BYTE	W03
	BYTE		        Cn4 
	BYTE	W03
	BYTE		        Dn4 
	BYTE	W03
	BYTE		        Ds4 
	BYTE	W03
	BYTE		        Fn4   v096
	BYTE	W03
	BYTE		        Gn4   v100
	BYTE	W03
	BYTE		        An4   v104
	BYTE	W03
	BYTE		        As4   v108
	BYTE	W03
	BYTE		        Cn5   v112
	BYTE	W03
	BYTE		        Dn5   v116
	BYTE	W03
	BYTE		N16     Ds5   v120
	BYTE	W48
	BYTE	PEND
// 031   ----------------------------------------
	BYTE		N48     En3   v080
	BYTE	W48
	BYTE		        Ds3 
	BYTE	W48
// 032   ----------------------------------------
high_tier_map_14_032:
	BYTE		N48     Dn3   v080
	BYTE	W48
	BYTE		        Cs3 
	BYTE	W48
	BYTE	PEND
// 033   ----------------------------------------
high_tier_map_14_033:
	BYTE		N48     Cn3   v080
	BYTE	W48
	BYTE		        Bn2 
	BYTE	W48
	BYTE	PEND
// 034   ----------------------------------------
high_tier_map_14_034:
	BYTE		N48     As2   v080
	BYTE	W48
	BYTE		        An2 
	BYTE	W48
	BYTE	PEND
// 035   ----------------------------------------
high_tier_map_14_035:
	BYTE	W24
	BYTE		N12     Gn3   v127
	BYTE		N12     Dn4 
	BYTE	W48
	BYTE		        Fs3 
	BYTE		N12     Dn4 
	BYTE	W24
	BYTE	PEND
// 036   ----------------------------------------
	BYTE	W24
	BYTE		        Gn3 
	BYTE		N12     Dn4 
	BYTE	W24
	BYTE		        Fs3 
	BYTE		N12     Dn4 
	BYTE	W48
// 037   ----------------------------------------
	BYTE	W96
// 038   ----------------------------------------
	BYTE	W96
// 039   ----------------------------------------
	BYTE	W96
// 040   ----------------------------------------
	BYTE	W96
// 041   ----------------------------------------
	BYTE	W96
// 042   ----------------------------------------
	BYTE	W96
// 043   ----------------------------------------
	BYTE	W96
// 044   ----------------------------------------
	BYTE	W96
// 045   ----------------------------------------
	BYTE	W96
// 046   ----------------------------------------
	BYTE	W96
// 047   ----------------------------------------
	BYTE	W96
// 048   ----------------------------------------
	BYTE	W96
// 049   ----------------------------------------
	BYTE	W96
// 050   ----------------------------------------
	BYTE	W96
// 051   ----------------------------------------
	BYTE	W96
// 052   ----------------------------------------
	BYTE	W96
// 053   ----------------------------------------
	BYTE	W96
// 054   ----------------------------------------
	BYTE	W96
// 055   ----------------------------------------
	BYTE	PATT
	 POIN2	high_tier_map_14_019
// 056   ----------------------------------------
	BYTE	PATT
	 POIN2	high_tier_map_14_019
// 057   ----------------------------------------
	BYTE	PATT
	 POIN2	high_tier_map_14_019
// 058   ----------------------------------------
	BYTE		N06     Gn3   v100
	BYTE	W08
	BYTE		        Cn3 
	BYTE	W08
	BYTE		        Ds3 
	BYTE	W08
	BYTE		        Gs3 
	BYTE	W08
	BYTE		        Cn3 
	BYTE	W08
	BYTE		        Ds3 
	BYTE	W08
	BYTE		        An3 
	BYTE	W08
	BYTE		        Cn3 
	BYTE	W08
	BYTE		        Ds3 
	BYTE	W08
	BYTE		        Gs3 
	BYTE	W08
	BYTE		        Cn3 
	BYTE	W08
	BYTE		        Ds3 
	BYTE	W08
// 059   ----------------------------------------
	BYTE	PATT
	 POIN2	high_tier_map_14_023
// 060   ----------------------------------------
	BYTE	PATT
	 POIN2	high_tier_map_14_024
// 061   ----------------------------------------
	BYTE	PATT
	 POIN2	high_tier_map_14_025
// 062   ----------------------------------------
	BYTE	PATT
	 POIN2	high_tier_map_14_026
// 063   ----------------------------------------
	BYTE	PATT
	 POIN2	high_tier_map_14_027
// 064   ----------------------------------------
	BYTE	PATT
	 POIN2	high_tier_map_14_028
// 065   ----------------------------------------
	BYTE	PATT
	 POIN2	high_tier_map_14_029
// 066   ----------------------------------------
	BYTE	PATT
	 POIN2	high_tier_map_14_030
// 067   ----------------------------------------
	BYTE		N48     En3   v080
	BYTE	W48
	BYTE		        Ds3 
	BYTE	W48
// 068   ----------------------------------------
	BYTE	PATT
	 POIN2	high_tier_map_14_032
// 069   ----------------------------------------
	BYTE	PATT
	 POIN2	high_tier_map_14_033
// 070   ----------------------------------------
	BYTE	PATT
	 POIN2	high_tier_map_14_034
// 071   ----------------------------------------
	BYTE	PATT
	 POIN2	high_tier_map_14_035
// 072   ----------------------------------------
	BYTE	W24
	BYTE		N12     Gn3   v127
	BYTE		N12     Dn4 
	BYTE	W24
	BYTE		        Fs3 
	BYTE		N12     Dn4 
	BYTE	W12
	BYTE	FINE

//**************** Track 15 (Midi-Chn.16) ****************//

high_tier_map_15:
	BYTE	KEYSH   high_tier_map_key+0
// 000   ----------------------------------------
	BYTE		VOICE   48
	BYTE		VOL     35*high_tier_map_mvl/mxv
	BYTE		PAN     c_v-29
	BYTE	W24
// 001   ----------------------------------------
high_tier_map_15_001:
	BYTE		N19     Gn1   v100
	BYTE	W24
	BYTE		        Gn2 
	BYTE	W24
	BYTE		        Fs2 
	BYTE	W24
	BYTE		        Fs1 
	BYTE	W24
	BYTE	PEND
// 002   ----------------------------------------
	BYTE	PATT
	 POIN2	high_tier_map_15_001
// 003   ----------------------------------------
high_tier_map_15_003:
	BYTE		N19     Gn1   v100
	BYTE	W24
	BYTE		        An1 
	BYTE	W24
	BYTE		        Bn1 
	BYTE	W24
	BYTE		        Gn1 
	BYTE	W24
	BYTE	PEND
// 004   ----------------------------------------
	BYTE		N09     Cn2 
	BYTE	W96
// 005   ----------------------------------------
high_tier_map_15_005:
	BYTE		N19     Gn1   v100
	BYTE	W24
	BYTE		        Cn1 
	BYTE	W24
	BYTE		N19   
	BYTE	W24
	BYTE		        Dn1 
	BYTE	W24
	BYTE	PEND
// 006   ----------------------------------------
high_tier_map_15_006:
	BYTE		N19     Gn1   v100
	BYTE	W24
	BYTE		N19   
	BYTE	W24
	BYTE		        Fn1 
	BYTE	W24
	BYTE		N19   
	BYTE	W24
	BYTE	PEND
// 007   ----------------------------------------
high_tier_map_15_007:
	BYTE		N19     En1   v100
	BYTE	W24
	BYTE		N19   
	BYTE	W24
	BYTE		        Cn1 
	BYTE	W24
	BYTE		N19   
	BYTE	W24
	BYTE	PEND
// 008   ----------------------------------------
high_tier_map_15_008:
	BYTE		N19     Fn1   v100
	BYTE	W24
	BYTE		N19   
	BYTE	W24
	BYTE		        Fs1 
	BYTE	W48
	BYTE	PEND
// 009   ----------------------------------------
	BYTE	W96
// 010   ----------------------------------------
	BYTE	W96
// 011   ----------------------------------------
	BYTE	W96
// 012   ----------------------------------------
	BYTE	W96
// 013   ----------------------------------------
	BYTE	W96
// 014   ----------------------------------------
	BYTE	W96
// 015   ----------------------------------------
	BYTE	W96
// 016   ----------------------------------------
	BYTE	W96
// 017   ----------------------------------------
	BYTE	W96
// 018   ----------------------------------------
	BYTE	W96
// 019   ----------------------------------------
high_tier_map_15_019:
	BYTE		N48     Gn1   v112
	BYTE	W48
	BYTE		        Fs1 
	BYTE	W48
	BYTE	PEND
// 020   ----------------------------------------
	BYTE	PATT
	 POIN2	high_tier_map_15_019
// 021   ----------------------------------------
high_tier_map_15_021:
	BYTE		N48     Gn1   v112
	BYTE	W48
	BYTE		N24     Bn0 
	BYTE	W24
	BYTE		        Dn1 
	BYTE	W24
	BYTE	PEND
// 022   ----------------------------------------
	BYTE		N96     Cn1 
	BYTE	W96
// 023   ----------------------------------------
high_tier_map_15_023:
	BYTE		N48     An0   v112
	BYTE	W48
	BYTE		N24     Cn1 
	BYTE	W24
	BYTE		        Dn1 
	BYTE	W24
	BYTE	PEND
// 024   ----------------------------------------
high_tier_map_15_024:
	BYTE		N72     Gn1   v112
	BYTE	W72
	BYTE		N24     Fn1 
	BYTE	W24
	BYTE	PEND
// 025   ----------------------------------------
high_tier_map_15_025:
	BYTE		N48     En1   v112
	BYTE	W48
	BYTE		        Cn1 
	BYTE	W48
	BYTE	PEND
// 026   ----------------------------------------
high_tier_map_15_026:
	BYTE		N48     Fn1   v112
	BYTE	W48
	BYTE		N18     Fs1 
	BYTE	W48
	BYTE	PEND
// 027   ----------------------------------------
high_tier_map_15_027:
	BYTE		N06     Cn1   v112
	BYTE		N06     Cn2 
	BYTE	W08
	BYTE		        Ds1 
	BYTE		N06     Ds2 
	BYTE	W08
	BYTE		        Gn1 
	BYTE		N06     Gn2 
	BYTE	W08
	BYTE		        Cn2 
	BYTE		N06     Cn3 
	BYTE	W08
	BYTE		        Gn1 
	BYTE		N06     Gn2 
	BYTE	W08
	BYTE		        Cn2 
	BYTE		N06     Cn3 
	BYTE	W08
	BYTE		        Gn1 
	BYTE		N06     Gn2 
	BYTE	W08
	BYTE		        Ds1 
	BYTE		N06     Ds2 
	BYTE	W08
	BYTE		        Gn1 
	BYTE		N06     Gn2 
	BYTE	W08
	BYTE		        Ds1 
	BYTE		N06     Ds2 
	BYTE	W08
	BYTE		        Cn1 
	BYTE		N06     Cn2 
	BYTE	W08
	BYTE		        Ds1 
	BYTE		N06     Ds2 
	BYTE	W08
	BYTE	PEND
// 028   ----------------------------------------
high_tier_map_15_028:
	BYTE		N06     Fn1   v112
	BYTE		N06     Fn2 
	BYTE	W08
	BYTE		        An1 
	BYTE		N06     An2 
	BYTE	W08
	BYTE		        Fn1 
	BYTE		N06     Fn2 
	BYTE	W08
	BYTE		        Ds1 
	BYTE		N06     Ds2 
	BYTE	W08
	BYTE		        Cn1 
	BYTE		N06     Cn2 
	BYTE	W08
	BYTE		        Ds1 
	BYTE		N06     Ds2 
	BYTE	W08
	BYTE		        Cn1 
	BYTE		N06     Cn2 
	BYTE	W08
	BYTE		        An0 
	BYTE		N06     An1 
	BYTE	W08
	BYTE		        Cn1 
	BYTE		N06     Cn2 
	BYTE	W08
	BYTE		        Fn0 
	BYTE		N06     Fn1 
	BYTE	W08
	BYTE		        An0 
	BYTE		N06     An1 
	BYTE	W08
	BYTE		        Cn1 
	BYTE		N06     Cn2 
	BYTE	W08
	BYTE	PEND
// 029   ----------------------------------------
high_tier_map_15_029:
	BYTE		N06     As0   v112
	BYTE		N06     As1 
	BYTE	W08
	BYTE		        Dn1 
	BYTE		N06     Dn2 
	BYTE	W08
	BYTE		        Fn1 
	BYTE		N06     Fn2 
	BYTE	W08
	BYTE		        As1 
	BYTE		N06     As2 
	BYTE	W08
	BYTE		        Fn1 
	BYTE		N06     Fn2 
	BYTE	W08
	BYTE		        As1 
	BYTE		N06     As2 
	BYTE	W08
	BYTE		        Fn1 
	BYTE		N06     Fn2 
	BYTE	W08
	BYTE		        Dn1 
	BYTE		N06     Dn2 
	BYTE	W08
	BYTE		        Fn1 
	BYTE		N06     Fn2 
	BYTE	W08
	BYTE		        Dn1 
	BYTE		N06     Dn2 
	BYTE	W08
	BYTE		        As0 
	BYTE		N06     As1 
	BYTE	W08
	BYTE		        Dn1 
	BYTE		N06     Dn2 
	BYTE	W08
	BYTE	PEND
// 030   ----------------------------------------
high_tier_map_15_030:
	BYTE		N06     Ds1   v112
	BYTE		N06     Ds2 
	BYTE	W08
	BYTE		        Gn1 
	BYTE		N06     Gn2 
	BYTE	W08
	BYTE		        As1 
	BYTE		N06     As2 
	BYTE	W08
	BYTE		        Ds2 
	BYTE		N06     Ds3 
	BYTE	W08
	BYTE		        As1 
	BYTE		N06     As2 
	BYTE	W08
	BYTE		        Gn1 
	BYTE		N06     Gn2 
	BYTE	W08
	BYTE		        Ds1 
	BYTE		N06     Ds2 
	BYTE	W08
	BYTE		        Gn1 
	BYTE		N06     Gn2 
	BYTE	W08
	BYTE		        As0 
	BYTE		N06     As1 
	BYTE	W08
	BYTE		        Ds1 
	BYTE		N06     Ds2 
	BYTE	W08
	BYTE		        Gn1 
	BYTE		N06     Gn2 
	BYTE	W08
	BYTE		        Ds1 
	BYTE		N06     Ds2 
	BYTE	W08
	BYTE	PEND
// 031   ----------------------------------------
	BYTE	W96
// 032   ----------------------------------------
	BYTE	W96
// 033   ----------------------------------------
	BYTE	W96
// 034   ----------------------------------------
	BYTE	W96
// 035   ----------------------------------------
high_tier_map_15_035:
	BYTE	W24
	BYTE		N12     Dn1   v127
	BYTE	W48
	BYTE		N12   
	BYTE	W24
	BYTE	PEND
// 036   ----------------------------------------
	BYTE	W24
	BYTE		N12   
	BYTE	W24
	BYTE		N12   
	BYTE	W48
// 037   ----------------------------------------
	BYTE	PATT
	 POIN2	high_tier_map_15_001
// 038   ----------------------------------------
	BYTE	PATT
	 POIN2	high_tier_map_15_001
// 039   ----------------------------------------
	BYTE	PATT
	 POIN2	high_tier_map_15_003
// 040   ----------------------------------------
	BYTE		N09     Cn2   v100
	BYTE	W96
// 041   ----------------------------------------
	BYTE	PATT
	 POIN2	high_tier_map_15_005
// 042   ----------------------------------------
	BYTE	PATT
	 POIN2	high_tier_map_15_006
// 043   ----------------------------------------
	BYTE	PATT
	 POIN2	high_tier_map_15_007
// 044   ----------------------------------------
	BYTE	PATT
	 POIN2	high_tier_map_15_008
// 045   ----------------------------------------
	BYTE	W96
// 046   ----------------------------------------
	BYTE	W96
// 047   ----------------------------------------
	BYTE	W96
// 048   ----------------------------------------
	BYTE	W96
// 049   ----------------------------------------
	BYTE	W96
// 050   ----------------------------------------
	BYTE	W96
// 051   ----------------------------------------
	BYTE	W96
// 052   ----------------------------------------
	BYTE	W96
// 053   ----------------------------------------
	BYTE	W96
// 054   ----------------------------------------
	BYTE	W96
// 055   ----------------------------------------
	BYTE	PATT
	 POIN2	high_tier_map_15_019
// 056   ----------------------------------------
	BYTE	PATT
	 POIN2	high_tier_map_15_019
// 057   ----------------------------------------
	BYTE	PATT
	 POIN2	high_tier_map_15_021
// 058   ----------------------------------------
	BYTE		N96     Cn1   v112
	BYTE	W96
// 059   ----------------------------------------
	BYTE	PATT
	 POIN2	high_tier_map_15_023
// 060   ----------------------------------------
	BYTE	PATT
	 POIN2	high_tier_map_15_024
// 061   ----------------------------------------
	BYTE	PATT
	 POIN2	high_tier_map_15_025
// 062   ----------------------------------------
	BYTE	PATT
	 POIN2	high_tier_map_15_026
// 063   ----------------------------------------
	BYTE	PATT
	 POIN2	high_tier_map_15_027
// 064   ----------------------------------------
	BYTE	PATT
	 POIN2	high_tier_map_15_028
// 065   ----------------------------------------
	BYTE	PATT
	 POIN2	high_tier_map_15_029
// 066   ----------------------------------------
	BYTE	PATT
	 POIN2	high_tier_map_15_030
// 067   ----------------------------------------
	BYTE	W96
// 068   ----------------------------------------
	BYTE	W96
// 069   ----------------------------------------
	BYTE	W96
// 070   ----------------------------------------
	BYTE	W96
// 071   ----------------------------------------
	BYTE	PATT
	 POIN2	high_tier_map_15_035
// 072   ----------------------------------------
	BYTE	W24
	BYTE		N12     Dn1   v127
	BYTE	W24
	BYTE		N12   
	BYTE	W12
	BYTE	FINE

//******************************************************//
	ALIGN 4

high_tier_map:
	BYTE	15	// NumTrks
	BYTE	0	// NumBlks
	BYTE	high_tier_map_pri	// Priority
	BYTE	high_tier_map_rev	// Reverb.

	POIN2	high_tier_map_grp

	POIN2	high_tier_map_1
	POIN2	high_tier_map_2
	POIN2	high_tier_map_3
	POIN2	high_tier_map_4
	POIN2	high_tier_map_5
	POIN2	high_tier_map_6
	POIN2	high_tier_map_7
	POIN2	high_tier_map_8
	POIN2	high_tier_map_9
	POIN2	high_tier_map_10
	POIN2	high_tier_map_11
	POIN2	high_tier_map_12
	POIN2	high_tier_map_13
	POIN2	high_tier_map_14
	POIN2	high_tier_map_15

	
