	.include "MPlayDef.s"

	.equ	high_tier_map_grp, voicegroup000
	.equ	high_tier_map_pri, 0
	.equ	high_tier_map_rev, 0
	.equ	high_tier_map_mvl, 60
	.equ	high_tier_map_key, 0
	.equ	high_tier_map_tbs, 1
	.equ	high_tier_map_exg, 0
	.equ	high_tier_map_cmp, 1

	.section .rodata
	.global	high_tier_map
	.align	2

@**************** Track 1 (Midi-Chn.1) ****************@

high_tier_map_1:
	.byte		VOL   , 127*high_tier_map_mvl/mxv
	.byte	KEYSH , high_tier_map_key+0
@ 000   ----------------------------------------
	.byte	TEMPO , 120*high_tier_map_tbs/2
	.byte		VOICE , 73
	.byte	W24
@ 001   ----------------------------------------
	.byte	W96
@ 002   ----------------------------------------
	.byte	W96
@ 003   ----------------------------------------
	.byte	W96
@ 004   ----------------------------------------
	.byte	W96
@ 005   ----------------------------------------
	.byte	W96
@ 006   ----------------------------------------
	.byte	W96
@ 007   ----------------------------------------
	.byte	W96
@ 008   ----------------------------------------
	.byte	W96
@ 009   ----------------------------------------
	.byte	W96
@ 010   ----------------------------------------
	.byte	W96
@ 011   ----------------------------------------
	.byte	W96
@ 012   ----------------------------------------
	.byte	W96
@ 013   ----------------------------------------
	.byte	W96
@ 014   ----------------------------------------
	.byte	W96
@ 015   ----------------------------------------
	.byte	W96
@ 016   ----------------------------------------
	.byte	W96
@ 017   ----------------------------------------
	.byte	W96
@ 018   ----------------------------------------
	.byte	W96
@ 019   ----------------------------------------
	.byte	W96
@ 020   ----------------------------------------
	.byte	W96
@ 021   ----------------------------------------
	.byte	W96
@ 022   ----------------------------------------
	.byte	W96
@ 023   ----------------------------------------
	.byte	W96
@ 024   ----------------------------------------
	.byte	W96
@ 025   ----------------------------------------
	.byte	W96
@ 026   ----------------------------------------
	.byte	W96
@ 027   ----------------------------------------
	.byte	W96
@ 028   ----------------------------------------
	.byte	W96
@ 029   ----------------------------------------
	.byte	W96
@ 030   ----------------------------------------
	.byte	W96
@ 031   ----------------------------------------
	.byte	W96
@ 032   ----------------------------------------
	.byte	W96
@ 033   ----------------------------------------
	.byte	W96
@ 034   ----------------------------------------
	.byte	W96
@ 035   ----------------------------------------
	.byte	W96
@ 036   ----------------------------------------
	.byte	W96
@ 037   ----------------------------------------
	.byte	W96
@ 038   ----------------------------------------
	.byte	W96
@ 039   ----------------------------------------
	.byte	W96
@ 040   ----------------------------------------
	.byte	W96
@ 041   ----------------------------------------
	.byte	W96
@ 042   ----------------------------------------
	.byte	W96
@ 043   ----------------------------------------
	.byte	W96
@ 044   ----------------------------------------
	.byte	W96
@ 045   ----------------------------------------
	.byte	W96
@ 046   ----------------------------------------
	.byte	W96
@ 047   ----------------------------------------
	.byte	W96
@ 048   ----------------------------------------
	.byte	W96
@ 049   ----------------------------------------
	.byte	W96
@ 050   ----------------------------------------
	.byte	W96
@ 051   ----------------------------------------
	.byte	W96
@ 052   ----------------------------------------
	.byte	W96
@ 053   ----------------------------------------
	.byte	W96
@ 054   ----------------------------------------
	.byte	W96
@ 055   ----------------------------------------
	.byte	W96
@ 056   ----------------------------------------
	.byte	W96
@ 057   ----------------------------------------
	.byte	W96
@ 058   ----------------------------------------
	.byte	W16
	.byte		N06   , Ds4 , v100
	.byte	W24
	.byte		N06   
	.byte	W08
	.byte		        An4 
	.byte	W16
	.byte		        Ds4 
	.byte	W24
	.byte		N06   
	.byte	W08
@ 059   ----------------------------------------
	.byte	W24
	.byte		N48   , Gn4 
	.byte	W48
	.byte		N24   , Fs4 
	.byte	W24
@ 060   ----------------------------------------
	.byte		N96   , Gn4 
	.byte	W96
@ 061   ----------------------------------------
	.byte	W24
	.byte		N72   , En4 
	.byte	W72
@ 062   ----------------------------------------
	.byte	W24
	.byte		N24   , Ds4 
	.byte	W24
	.byte		N18   , Dn4 
	.byte	W48
@ 063   ----------------------------------------
	.byte	W96
@ 064   ----------------------------------------
	.byte	W96
@ 065   ----------------------------------------
	.byte	W96
@ 066   ----------------------------------------
	.byte	W96
@ 067   ----------------------------------------
	.byte	W96
@ 068   ----------------------------------------
	.byte	W96
@ 069   ----------------------------------------
	.byte	W96
@ 070   ----------------------------------------
	.byte	W96
@ 071   ----------------------------------------
	.byte	W96
@ 072   ----------------------------------------
	.byte	W60
	.byte	FINE

@**************** Track 2 (Midi-Chn.2) ****************@

high_tier_map_2:
	.byte	KEYSH , high_tier_map_key+0
@ 000   ----------------------------------------
	.byte		VOICE , 68
	.byte		VOL   , 35*high_tier_map_mvl/mxv
	.byte		PAN   , c_v-29
	.byte	W24
@ 001   ----------------------------------------
	.byte	W96
@ 002   ----------------------------------------
	.byte	W96
@ 003   ----------------------------------------
	.byte	W96
@ 004   ----------------------------------------
high_tier_map_2_004:
	.byte	W12
	.byte		N03   , Cn3 , v100
	.byte		N03   , Ds3 
	.byte	W04
	.byte		        Cn3 
	.byte		N03   , Ds3 
	.byte	W04
	.byte		        Cn3 
	.byte		N03   , Ds3 
	.byte	W04
	.byte		N06   , Cn3 
	.byte		N06   , Ds3 
	.byte	W08
	.byte		        Cn3 
	.byte		N06   , Ds3 
	.byte	W08
	.byte		        Cn3 
	.byte		N06   , Ds3 
	.byte	W08
	.byte		        Cn3 
	.byte		N06   , Ds3 
	.byte	W08
	.byte		        Cn3 
	.byte		N06   , Ds3 
	.byte	W08
	.byte		        Cn3 
	.byte		N06   , Ds3 
	.byte	W08
	.byte		        Cn3 
	.byte		N06   , Ds3 
	.byte	W08
	.byte		        Cn3 
	.byte		N06   , Ds3 
	.byte	W08
	.byte		        Cn3 
	.byte		N06   , Ds3 
	.byte	W08
	.byte	PEND
@ 005   ----------------------------------------
	.byte	W96
@ 006   ----------------------------------------
	.byte	W96
@ 007   ----------------------------------------
	.byte	W96
@ 008   ----------------------------------------
	.byte	W96
@ 009   ----------------------------------------
	.byte	W96
@ 010   ----------------------------------------
	.byte	W96
@ 011   ----------------------------------------
	.byte	W96
@ 012   ----------------------------------------
	.byte	W96
@ 013   ----------------------------------------
	.byte	W96
@ 014   ----------------------------------------
	.byte	W96
@ 015   ----------------------------------------
	.byte	W96
@ 016   ----------------------------------------
	.byte	W96
@ 017   ----------------------------------------
	.byte	W96
@ 018   ----------------------------------------
	.byte	W96
@ 019   ----------------------------------------
	.byte	W24
	.byte		N24   , Gn3 
	.byte	W24
	.byte		N48   , Fs3 
	.byte	W48
@ 020   ----------------------------------------
	.byte	W24
	.byte		N24   , Dn3 
	.byte	W24
	.byte		N48   , Fs3 
	.byte	W48
@ 021   ----------------------------------------
	.byte	W24
	.byte		N24   , Fn3 
	.byte	W24
	.byte		N48   , Gn3 
	.byte	W48
@ 022   ----------------------------------------
	.byte		N06   , Ds4 
	.byte	W24
	.byte		N06   
	.byte	W24
	.byte		N06   
	.byte	W24
	.byte		N06   
	.byte	W24
@ 023   ----------------------------------------
high_tier_map_2_023:
	.byte	W24
	.byte		N48   , Ds4 , v100
	.byte	W48
	.byte		N24   , Dn4 
	.byte	W24
	.byte	PEND
@ 024   ----------------------------------------
	.byte		N96   
	.byte	W96
@ 025   ----------------------------------------
high_tier_map_2_025:
	.byte	W24
	.byte		N24   , Cn4 , v100
	.byte	W24
	.byte		N48   , As3 
	.byte	W48
	.byte	PEND
@ 026   ----------------------------------------
high_tier_map_2_026:
	.byte	W24
	.byte		N24   , Cn4 , v100
	.byte	W24
	.byte		N18   , An3 
	.byte	W48
	.byte	PEND
@ 027   ----------------------------------------
	.byte	W96
@ 028   ----------------------------------------
	.byte	W96
@ 029   ----------------------------------------
	.byte	W96
@ 030   ----------------------------------------
high_tier_map_2_030:
	.byte	W64
	.byte		N08   , An3 , v112
	.byte	W08
	.byte		N16   , As3 
	.byte	W16
	.byte		N08   , Cn4 
	.byte	W08
	.byte	PEND
@ 031   ----------------------------------------
high_tier_map_2_031:
	.byte		N07   , Dn4 , v112
	.byte	W08
	.byte		        As3 
	.byte	W08
	.byte		N07   
	.byte	W08
	.byte		N08   , Cn4 
	.byte	W16
	.byte		        As3 
	.byte	W08
	.byte		N07   , Dn4 
	.byte	W08
	.byte		        As3 
	.byte	W08
	.byte		N07   
	.byte	W08
	.byte		N08   , Cn4 
	.byte	W16
	.byte		        As3 
	.byte	W08
	.byte	PEND
@ 032   ----------------------------------------
	.byte		N07   , Dn4 
	.byte	W08
	.byte		        As3 
	.byte	W08
	.byte		N07   
	.byte	W08
	.byte		N08   , Cn4 
	.byte	W16
	.byte		        As3 
	.byte	W24
	.byte		N07   
	.byte	W08
	.byte		N08   , Cn4 
	.byte	W16
	.byte		        As3 
	.byte	W08
@ 033   ----------------------------------------
high_tier_map_2_033:
	.byte		N08   , As3 , v112
	.byte	W16
	.byte		N08   
	.byte	W08
	.byte		N24   , An3 
	.byte	W24
	.byte		N08   
	.byte	W16
	.byte		N08   
	.byte	W08
	.byte		N24   , Gn3 
	.byte	W24
	.byte	PEND
@ 034   ----------------------------------------
high_tier_map_2_034:
	.byte		N08   , Gn3 , v112
	.byte	W16
	.byte		N08   
	.byte	W08
	.byte		N24   , Fn3 
	.byte	W24
	.byte		N08   
	.byte	W16
	.byte		N08   
	.byte	W08
	.byte		N24   , Ds3 
	.byte	W24
	.byte	PEND
@ 035   ----------------------------------------
high_tier_map_2_035:
	.byte	W24
	.byte		N12   , Gn3 , v127
	.byte		N12   , Dn4 
	.byte	W48
	.byte		        Fs3 
	.byte		N12   , Dn4 
	.byte	W24
	.byte	PEND
@ 036   ----------------------------------------
	.byte	W24
	.byte		        Gn3 
	.byte		N12   , Dn4 
	.byte	W24
	.byte		        Fs3 
	.byte		N12   , Dn4 
	.byte	W48
@ 037   ----------------------------------------
	.byte	W96
@ 038   ----------------------------------------
	.byte	W96
@ 039   ----------------------------------------
	.byte	W96
@ 040   ----------------------------------------
	.byte	PATT
	 .word	high_tier_map_2_004
@ 041   ----------------------------------------
	.byte	W96
@ 042   ----------------------------------------
	.byte	W96
@ 043   ----------------------------------------
	.byte	W96
@ 044   ----------------------------------------
	.byte	W96
@ 045   ----------------------------------------
	.byte	W96
@ 046   ----------------------------------------
	.byte	W96
@ 047   ----------------------------------------
	.byte	W96
@ 048   ----------------------------------------
	.byte	W96
@ 049   ----------------------------------------
	.byte	W96
@ 050   ----------------------------------------
	.byte	W96
@ 051   ----------------------------------------
	.byte	W96
@ 052   ----------------------------------------
	.byte	W96
@ 053   ----------------------------------------
	.byte	W96
@ 054   ----------------------------------------
	.byte	W96
@ 055   ----------------------------------------
	.byte	W96
@ 056   ----------------------------------------
	.byte	W24
	.byte		N24   , Dn3 , v100
	.byte	W72
@ 057   ----------------------------------------
	.byte	W96
@ 058   ----------------------------------------
	.byte		N06   , Ds4 
	.byte	W24
	.byte		N06   
	.byte	W24
	.byte		N06   
	.byte	W08
	.byte		        An3 
	.byte	W16
	.byte		        Ds4 
	.byte	W08
	.byte		        Gs3 
	.byte	W16
@ 059   ----------------------------------------
	.byte	PATT
	 .word	high_tier_map_2_023
@ 060   ----------------------------------------
	.byte		N96   , Dn4 , v100
	.byte	W96
@ 061   ----------------------------------------
	.byte	PATT
	 .word	high_tier_map_2_025
@ 062   ----------------------------------------
	.byte	PATT
	 .word	high_tier_map_2_026
@ 063   ----------------------------------------
	.byte	W96
@ 064   ----------------------------------------
	.byte	W96
@ 065   ----------------------------------------
	.byte	W96
@ 066   ----------------------------------------
	.byte	PATT
	 .word	high_tier_map_2_030
@ 067   ----------------------------------------
	.byte	PATT
	 .word	high_tier_map_2_031
@ 068   ----------------------------------------
	.byte		N07   , Dn4 , v112
	.byte	W08
	.byte		        As3 
	.byte	W08
	.byte		N07   
	.byte	W08
	.byte		N08   , Cn4 
	.byte	W16
	.byte		        As3 
	.byte	W16
	.byte		N07   
	.byte	W08
	.byte		N07   
	.byte	W08
	.byte		N08   , Cn4 
	.byte	W16
	.byte		        As3 
	.byte	W08
@ 069   ----------------------------------------
	.byte	PATT
	 .word	high_tier_map_2_033
@ 070   ----------------------------------------
	.byte	PATT
	 .word	high_tier_map_2_034
@ 071   ----------------------------------------
	.byte	PATT
	 .word	high_tier_map_2_035
@ 072   ----------------------------------------
	.byte	W24
	.byte		N12   , Gn3 , v127
	.byte		N12   , Dn4 
	.byte	W24
	.byte		        Fs3 
	.byte		N12   , Dn4 
	.byte	W12
	.byte	FINE

@**************** Track 3 (Midi-Chn.3) ****************@

high_tier_map_3:
	.byte	KEYSH , high_tier_map_key+0
@ 000   ----------------------------------------
	.byte		VOICE , 71
	.byte		VOL   , 35*high_tier_map_mvl/mxv
	.byte		PAN   , c_v-29
	.byte	W24
@ 001   ----------------------------------------
	.byte	W96
@ 002   ----------------------------------------
	.byte	W96
@ 003   ----------------------------------------
	.byte	W96
@ 004   ----------------------------------------
	.byte	W96
@ 005   ----------------------------------------
	.byte	W96
@ 006   ----------------------------------------
	.byte	W96
@ 007   ----------------------------------------
	.byte	W96
@ 008   ----------------------------------------
	.byte	W96
@ 009   ----------------------------------------
	.byte	W96
@ 010   ----------------------------------------
	.byte	W96
@ 011   ----------------------------------------
	.byte	W96
@ 012   ----------------------------------------
	.byte	W96
@ 013   ----------------------------------------
	.byte	W96
@ 014   ----------------------------------------
	.byte	W96
@ 015   ----------------------------------------
	.byte	W96
@ 016   ----------------------------------------
	.byte	W96
@ 017   ----------------------------------------
	.byte	W96
@ 018   ----------------------------------------
	.byte	W96
@ 019   ----------------------------------------
high_tier_map_3_019:
	.byte	W24
	.byte		N24   , Dn3 , v100
	.byte	W24
	.byte		N48   
	.byte	W48
	.byte	PEND
@ 020   ----------------------------------------
high_tier_map_3_020:
	.byte	W24
	.byte		N24   , As2 , v100
	.byte	W24
	.byte		N48   , Dn3 
	.byte	W48
	.byte	PEND
@ 021   ----------------------------------------
	.byte	W24
	.byte		N24   
	.byte	W72
@ 022   ----------------------------------------
	.byte	W96
@ 023   ----------------------------------------
	.byte	W24
	.byte		N72   , Cn4 
	.byte	W72
@ 024   ----------------------------------------
	.byte	W72
	.byte		N24   , Fn4 
	.byte	W24
@ 025   ----------------------------------------
	.byte	W96
@ 026   ----------------------------------------
high_tier_map_3_026:
	.byte	W24
	.byte		N24   , As3 , v100
	.byte	W24
	.byte		N18   , Fs3 
	.byte	W48
	.byte	PEND
@ 027   ----------------------------------------
	.byte	W96
@ 028   ----------------------------------------
	.byte	W96
@ 029   ----------------------------------------
	.byte	W96
@ 030   ----------------------------------------
	.byte	W96
@ 031   ----------------------------------------
	.byte	W96
@ 032   ----------------------------------------
	.byte	W96
@ 033   ----------------------------------------
	.byte	W96
@ 034   ----------------------------------------
	.byte	W96
@ 035   ----------------------------------------
high_tier_map_3_035:
	.byte	W24
	.byte		N12   , An3 , v127
	.byte		N12   , Dn4 
	.byte	W48
	.byte		        An3 
	.byte		N12   , Dn4 
	.byte	W24
	.byte	PEND
@ 036   ----------------------------------------
	.byte	W24
	.byte		        An3 
	.byte		N12   , Dn4 
	.byte	W24
	.byte		        An3 
	.byte		N12   , Dn4 
	.byte	W48
@ 037   ----------------------------------------
	.byte	W96
@ 038   ----------------------------------------
	.byte	W96
@ 039   ----------------------------------------
	.byte	W96
@ 040   ----------------------------------------
	.byte	W96
@ 041   ----------------------------------------
	.byte	W96
@ 042   ----------------------------------------
	.byte	W96
@ 043   ----------------------------------------
	.byte	W96
@ 044   ----------------------------------------
	.byte	W96
@ 045   ----------------------------------------
	.byte	W96
@ 046   ----------------------------------------
	.byte	W96
@ 047   ----------------------------------------
	.byte	W96
@ 048   ----------------------------------------
	.byte	W96
@ 049   ----------------------------------------
	.byte	W96
@ 050   ----------------------------------------
	.byte	W96
@ 051   ----------------------------------------
	.byte	W96
@ 052   ----------------------------------------
	.byte	W96
@ 053   ----------------------------------------
	.byte	W96
@ 054   ----------------------------------------
	.byte	W96
@ 055   ----------------------------------------
	.byte	PATT
	 .word	high_tier_map_3_019
@ 056   ----------------------------------------
	.byte	PATT
	 .word	high_tier_map_3_020
@ 057   ----------------------------------------
	.byte	W24
	.byte		N24   , Dn3 , v100
	.byte	W72
@ 058   ----------------------------------------
	.byte	W08
	.byte		N06   , Ds3 
	.byte	W24
	.byte		N06   
	.byte	W24
	.byte		N06   
	.byte	W08
	.byte		        An3 
	.byte	W16
	.byte		        Ds3 
	.byte	W08
	.byte		        Gs3 
	.byte	W08
@ 059   ----------------------------------------
	.byte	W24
	.byte		N72   , Cn4 
	.byte	W72
@ 060   ----------------------------------------
	.byte		N24   , Gn4 
	.byte	W24
	.byte		        Fs4 
	.byte	W24
	.byte		N18   , Fn4 
	.byte	W24
	.byte		N24   
	.byte	W24
@ 061   ----------------------------------------
	.byte	W24
	.byte		N72   , As3 
	.byte	W72
@ 062   ----------------------------------------
	.byte	PATT
	 .word	high_tier_map_3_026
@ 063   ----------------------------------------
	.byte	W96
@ 064   ----------------------------------------
	.byte	W96
@ 065   ----------------------------------------
	.byte	W96
@ 066   ----------------------------------------
	.byte	W96
@ 067   ----------------------------------------
	.byte	W96
@ 068   ----------------------------------------
	.byte	W96
@ 069   ----------------------------------------
	.byte	W96
@ 070   ----------------------------------------
	.byte	W96
@ 071   ----------------------------------------
	.byte	PATT
	 .word	high_tier_map_3_035
@ 072   ----------------------------------------
	.byte	W24
	.byte		N12   , An3 , v127
	.byte		N12   , Dn4 
	.byte	W24
	.byte		        An3 
	.byte		N12   , Dn4 
	.byte	W12
	.byte	FINE

@**************** Track 4 (Midi-Chn.4) ****************@

high_tier_map_4:
	.byte	KEYSH , high_tier_map_key+0
@ 000   ----------------------------------------
	.byte		VOICE , 70
	.byte		VOL   , 35*high_tier_map_mvl/mxv
	.byte		PAN   , c_v-29
	.byte	W24
@ 001   ----------------------------------------
	.byte	W96
@ 002   ----------------------------------------
	.byte	W96
@ 003   ----------------------------------------
	.byte	W96
@ 004   ----------------------------------------
	.byte	W96
@ 005   ----------------------------------------
	.byte	W96
@ 006   ----------------------------------------
	.byte	W96
@ 007   ----------------------------------------
	.byte	W96
@ 008   ----------------------------------------
	.byte	W96
@ 009   ----------------------------------------
	.byte	W96
@ 010   ----------------------------------------
	.byte	W96
@ 011   ----------------------------------------
	.byte	W96
@ 012   ----------------------------------------
	.byte	W96
@ 013   ----------------------------------------
	.byte	W96
@ 014   ----------------------------------------
	.byte	W96
@ 015   ----------------------------------------
	.byte	W96
@ 016   ----------------------------------------
	.byte	W96
@ 017   ----------------------------------------
	.byte	W96
@ 018   ----------------------------------------
	.byte	W96
@ 019   ----------------------------------------
high_tier_map_4_019:
	.byte	W24
	.byte		N24   , As2 , v100
	.byte	W24
	.byte		N48   , An2 
	.byte	W48
	.byte	PEND
@ 020   ----------------------------------------
high_tier_map_4_020:
	.byte	W24
	.byte		N24   , Gn2 , v100
	.byte	W24
	.byte		N48   , An2 
	.byte	W48
	.byte	PEND
@ 021   ----------------------------------------
high_tier_map_4_021:
	.byte	W24
	.byte		N24   , Bn2 , v100
	.byte	W24
	.byte		N48   , Dn3 
	.byte	W48
	.byte	PEND
@ 022   ----------------------------------------
	.byte	W96
@ 023   ----------------------------------------
high_tier_map_4_023:
	.byte	W24
	.byte		N48   , Cn3 , v100
	.byte	W48
	.byte		N24   , An2 
	.byte	W24
	.byte	PEND
@ 024   ----------------------------------------
	.byte		N96   , As2 
	.byte	W96
@ 025   ----------------------------------------
	.byte	W24
	.byte		N72   , Cn3 
	.byte	W72
@ 026   ----------------------------------------
high_tier_map_4_026:
	.byte	W24
	.byte		N24   , Fn2 , v100
	.byte	W24
	.byte		N18   , Dn2 
	.byte	W48
	.byte	PEND
@ 027   ----------------------------------------
high_tier_map_4_027:
	.byte		N06   , Cn2 , v112
	.byte	W08
	.byte		        Ds2 
	.byte	W08
	.byte		        Gn2 
	.byte	W08
	.byte		        Cn3 
	.byte	W08
	.byte		        Gn2 
	.byte	W08
	.byte		        Cn3 
	.byte	W08
	.byte		        Gn2 
	.byte	W08
	.byte		        Ds2 
	.byte	W08
	.byte		        Gn2 
	.byte	W08
	.byte		        Ds2 
	.byte	W08
	.byte		        Cn2 
	.byte	W08
	.byte		        Ds2 
	.byte	W08
	.byte	PEND
@ 028   ----------------------------------------
high_tier_map_4_028:
	.byte		N06   , Fn2 , v112
	.byte	W08
	.byte		        An2 
	.byte	W08
	.byte		        Fn2 
	.byte	W08
	.byte		        Ds2 
	.byte	W08
	.byte		        Cn2 
	.byte	W08
	.byte		        Ds2 
	.byte	W08
	.byte		        Cn2 
	.byte	W08
	.byte		        An1 
	.byte	W08
	.byte		        Cn2 
	.byte	W08
	.byte		        Fn1 
	.byte	W08
	.byte		        An1 
	.byte	W08
	.byte		        Cn2 
	.byte	W08
	.byte	PEND
@ 029   ----------------------------------------
high_tier_map_4_029:
	.byte		N06   , As1 , v112
	.byte	W08
	.byte		        Dn2 
	.byte	W08
	.byte		        Fn2 
	.byte	W08
	.byte		        As2 
	.byte	W08
	.byte		        Fn2 
	.byte	W08
	.byte		        As2 
	.byte	W08
	.byte		        Fn2 
	.byte	W08
	.byte		        Dn2 
	.byte	W08
	.byte		        Fn2 
	.byte	W08
	.byte		        Dn2 
	.byte	W08
	.byte		        As1 
	.byte	W08
	.byte		        Dn2 
	.byte	W08
	.byte	PEND
@ 030   ----------------------------------------
high_tier_map_4_030:
	.byte		N06   , Ds2 , v112
	.byte	W08
	.byte		        Gn2 
	.byte	W08
	.byte		        As2 
	.byte	W08
	.byte		        Ds3 
	.byte	W08
	.byte		        As2 
	.byte	W08
	.byte		        Gn2 
	.byte	W08
	.byte		        Ds2 
	.byte	W08
	.byte		        Gn2 
	.byte	W08
	.byte		        As1 
	.byte	W08
	.byte		        Ds2 
	.byte	W08
	.byte		        Gn2 
	.byte	W08
	.byte		        Ds2 
	.byte	W08
	.byte	PEND
@ 031   ----------------------------------------
	.byte	W96
@ 032   ----------------------------------------
	.byte	W96
@ 033   ----------------------------------------
	.byte	W96
@ 034   ----------------------------------------
	.byte	W96
@ 035   ----------------------------------------
high_tier_map_4_035:
	.byte	W24
	.byte		N12   , Gn1 , v127
	.byte	W48
	.byte		        Fs1 
	.byte	W24
	.byte	PEND
@ 036   ----------------------------------------
	.byte	W24
	.byte		        Gn1 
	.byte	W24
	.byte		        Fs1 
	.byte	W48
@ 037   ----------------------------------------
	.byte	W96
@ 038   ----------------------------------------
	.byte	W96
@ 039   ----------------------------------------
	.byte	W96
@ 040   ----------------------------------------
	.byte	W96
@ 041   ----------------------------------------
	.byte	W96
@ 042   ----------------------------------------
	.byte	W96
@ 043   ----------------------------------------
	.byte	W96
@ 044   ----------------------------------------
	.byte	W96
@ 045   ----------------------------------------
	.byte	W96
@ 046   ----------------------------------------
	.byte	W96
@ 047   ----------------------------------------
	.byte	W96
@ 048   ----------------------------------------
	.byte	W96
@ 049   ----------------------------------------
	.byte	W96
@ 050   ----------------------------------------
	.byte	W96
@ 051   ----------------------------------------
	.byte	W96
@ 052   ----------------------------------------
	.byte	W96
@ 053   ----------------------------------------
	.byte	W96
@ 054   ----------------------------------------
	.byte	W96
@ 055   ----------------------------------------
	.byte	PATT
	 .word	high_tier_map_4_019
@ 056   ----------------------------------------
	.byte	PATT
	 .word	high_tier_map_4_020
@ 057   ----------------------------------------
	.byte	PATT
	 .word	high_tier_map_4_021
@ 058   ----------------------------------------
	.byte		N06   , Gn2 , v100
	.byte	W08
	.byte		        Cn2 
	.byte	W08
	.byte		        Ds2 
	.byte	W08
	.byte		        Gs2 
	.byte	W08
	.byte		        Cn2 
	.byte	W08
	.byte		        Ds2 
	.byte	W08
	.byte		        An2 
	.byte	W08
	.byte		        Cn2 
	.byte	W08
	.byte		        Ds2 
	.byte	W08
	.byte		        Gs2 
	.byte	W08
	.byte		        Cn2 
	.byte	W08
	.byte		        Ds2 
	.byte	W08
@ 059   ----------------------------------------
	.byte	PATT
	 .word	high_tier_map_4_023
@ 060   ----------------------------------------
	.byte		N96   , As2 , v100
	.byte	W96
@ 061   ----------------------------------------
	.byte	W24
	.byte		N72   , Cn3 
	.byte	W72
@ 062   ----------------------------------------
	.byte	PATT
	 .word	high_tier_map_4_026
@ 063   ----------------------------------------
	.byte	PATT
	 .word	high_tier_map_4_027
@ 064   ----------------------------------------
	.byte	PATT
	 .word	high_tier_map_4_028
@ 065   ----------------------------------------
	.byte	PATT
	 .word	high_tier_map_4_029
@ 066   ----------------------------------------
	.byte	PATT
	 .word	high_tier_map_4_030
@ 067   ----------------------------------------
	.byte	W96
@ 068   ----------------------------------------
	.byte	W96
@ 069   ----------------------------------------
	.byte	W96
@ 070   ----------------------------------------
	.byte	W96
@ 071   ----------------------------------------
	.byte	PATT
	 .word	high_tier_map_4_035
@ 072   ----------------------------------------
	.byte	W24
	.byte		N12   , Gn1 , v127
	.byte	W24
	.byte		        Fs1 
	.byte	W12
	.byte	FINE

@**************** Track 5 (Midi-Chn.5) ****************@

high_tier_map_5:
	.byte	KEYSH , high_tier_map_key+0
@ 000   ----------------------------------------
	.byte		VOICE , 60
	.byte		VOL   , 35*high_tier_map_mvl/mxv
	.byte		PAN   , c_v-29
	.byte	W24
@ 001   ----------------------------------------
high_tier_map_5_001:
	.byte		N19   , Dn3 , v100
	.byte	W24
	.byte		N19   
	.byte	W24
	.byte		N19   
	.byte	W24
	.byte		N19   
	.byte	W24
	.byte	PEND
@ 002   ----------------------------------------
	.byte	PATT
	 .word	high_tier_map_5_001
@ 003   ----------------------------------------
high_tier_map_5_003:
	.byte		N19   , Bn2 , v100
	.byte		N19   , Dn3 
	.byte	W24
	.byte		        Cn3 
	.byte		N19   , Dn3 
	.byte	W24
	.byte		N19   
	.byte		N19   , Fn3 
	.byte	W24
	.byte		        Bn2 
	.byte		N19   , Dn3 
	.byte	W24
	.byte	PEND
@ 004   ----------------------------------------
high_tier_map_5_004:
	.byte		N09   , Gn2 , v100
	.byte		N09   , Cn3 
	.byte	W12
	.byte		N03   , Cn3 , v112
	.byte		N03   , Ds3 
	.byte	W04
	.byte		        Cn3 
	.byte		N03   , Ds3 
	.byte	W04
	.byte		        Cn3 
	.byte		N03   , Ds3 
	.byte	W04
	.byte		N06   , Cn3 
	.byte		N06   , Ds3 
	.byte	W08
	.byte		        Cn3 
	.byte		N06   , Ds3 
	.byte	W08
	.byte		        Cn3 
	.byte		N06   , Ds3 
	.byte	W08
	.byte		        Cn3 
	.byte		N06   , Ds3 
	.byte	W08
	.byte		        Cn3 
	.byte		N06   , Ds3 
	.byte	W08
	.byte		        Cn3 
	.byte		N06   , Ds3 
	.byte	W08
	.byte		        Cn3 
	.byte		N06   , Ds3 
	.byte	W08
	.byte		        Cn3 
	.byte		N06   , Ds3 
	.byte	W08
	.byte		        Cn3 
	.byte		N06   , Ds3 
	.byte	W08
	.byte	PEND
@ 005   ----------------------------------------
high_tier_map_5_005:
	.byte		N15   , Gn2 , v100
	.byte		N15   , Cn3 
	.byte	W24
	.byte		        Gn2 
	.byte		N15   , Cn3 
	.byte	W24
	.byte		        Gn2 
	.byte		N15   , Cn3 
	.byte	W24
	.byte		        An2 
	.byte		N15   , Dn3 
	.byte	W24
	.byte	PEND
@ 006   ----------------------------------------
high_tier_map_5_006:
	.byte		N15   , As2 , v100
	.byte		N15   , Dn3 
	.byte	W24
	.byte		        As2 
	.byte		N15   , Dn3 
	.byte	W24
	.byte		        As2 
	.byte		N15   , Dn3 
	.byte	W24
	.byte		        As2 
	.byte		N15   , Dn3 
	.byte	W24
	.byte	PEND
@ 007   ----------------------------------------
high_tier_map_5_007:
	.byte		N15   , Gn2 , v100
	.byte		N15   , Cn3 
	.byte	W24
	.byte		        Gn2 
	.byte		N15   , Cn3 
	.byte	W24
	.byte		        Gn2 
	.byte		N15   , As2 
	.byte	W24
	.byte		        Gn2 
	.byte		N15   , As2 
	.byte	W24
	.byte	PEND
@ 008   ----------------------------------------
high_tier_map_5_008:
	.byte		N15   , As2 , v100
	.byte		N15   , Cn3 
	.byte	W24
	.byte		        As2 
	.byte		N15   , Cn3 
	.byte	W24
	.byte		        An2 
	.byte		N15   , Dn3 
	.byte	W24
	.byte		N19   , Dn3 , v127
	.byte	W24
	.byte	PEND
@ 009   ----------------------------------------
high_tier_map_5_009:
	.byte		N60   , Ds3 , v127
	.byte	W72
	.byte		N19   , Gn2 
	.byte	W24
	.byte	PEND
@ 010   ----------------------------------------
high_tier_map_5_010:
	.byte		N60   , An2 , v127
	.byte	W64
	.byte		N08   , Gn3 
	.byte	W08
	.byte		N12   , Fn3 
	.byte	W16
	.byte		N06   , Ds3 
	.byte	W08
	.byte	PEND
@ 011   ----------------------------------------
high_tier_map_5_011:
	.byte		N60   , Dn3 , v127
	.byte	W72
	.byte		N19   , Fn2 
	.byte	W24
	.byte	PEND
@ 012   ----------------------------------------
	.byte		N60   , Gn2 
	.byte	W96
@ 013   ----------------------------------------
	.byte		N48   , En3 , v100
	.byte	W48
	.byte		        Ds3 
	.byte	W48
@ 014   ----------------------------------------
high_tier_map_5_014:
	.byte		N48   , Dn3 , v100
	.byte	W48
	.byte		        Cs3 
	.byte	W48
	.byte	PEND
@ 015   ----------------------------------------
high_tier_map_5_015:
	.byte		N48   , Cn3 , v100
	.byte	W48
	.byte		        Bn2 
	.byte	W48
	.byte	PEND
@ 016   ----------------------------------------
high_tier_map_5_016:
	.byte		N48   , As2 , v100
	.byte	W48
	.byte		        An2 
	.byte	W48
	.byte	PEND
@ 017   ----------------------------------------
high_tier_map_5_017:
	.byte	W24
	.byte		N12   , An2 , v112
	.byte		N12   , Dn3 
	.byte	W48
	.byte		        An2 
	.byte		N12   , Dn3 
	.byte	W24
	.byte	PEND
@ 018   ----------------------------------------
high_tier_map_5_018:
	.byte	W24
	.byte		N12   , An2 , v112
	.byte		N12   , Dn3 
	.byte	W24
	.byte		        An2 
	.byte		N12   , Dn3 
	.byte	W48
	.byte	PEND
@ 019   ----------------------------------------
	.byte	W96
@ 020   ----------------------------------------
	.byte	W96
@ 021   ----------------------------------------
	.byte	W96
@ 022   ----------------------------------------
	.byte	W96
@ 023   ----------------------------------------
	.byte	W96
@ 024   ----------------------------------------
	.byte	W96
@ 025   ----------------------------------------
	.byte	W96
@ 026   ----------------------------------------
	.byte	W96
@ 027   ----------------------------------------
high_tier_map_5_027:
	.byte	W24
	.byte		N06   , Cn3 , v100
	.byte	W08
	.byte		N06   
	.byte	W08
	.byte		N06   
	.byte	W08
	.byte		N19   
	.byte	W48
	.byte	PEND
@ 028   ----------------------------------------
	.byte	PATT
	 .word	high_tier_map_5_027
@ 029   ----------------------------------------
high_tier_map_5_029:
	.byte	W24
	.byte		N06   , Fn2 , v100
	.byte		N06   , As2 
	.byte	W08
	.byte		        Fn2 
	.byte		N06   , As2 
	.byte	W08
	.byte		        Fn2 
	.byte		N06   , As2 
	.byte	W08
	.byte		N19   , Fn2 
	.byte		N19   , As2 
	.byte	W48
	.byte	PEND
@ 030   ----------------------------------------
high_tier_map_5_030:
	.byte	W24
	.byte		N06   , Gn2 , v100
	.byte		N06   , As2 
	.byte	W08
	.byte		        Gn2 
	.byte		N06   , As2 
	.byte	W08
	.byte		        Gn2 
	.byte		N06   , As2 
	.byte	W08
	.byte		N19   , Gn2 
	.byte		N19   , As2 
	.byte	W48
	.byte	PEND
@ 031   ----------------------------------------
high_tier_map_5_031:
	.byte		N48   , As2 , v080
	.byte		N48   , En3 
	.byte	W48
	.byte		        As2 
	.byte		N48   , Ds3 
	.byte	W48
	.byte	PEND
@ 032   ----------------------------------------
high_tier_map_5_032:
	.byte		N48   , As2 , v080
	.byte		N48   , Dn3 
	.byte	W48
	.byte		        Gn2 
	.byte		N48   , Cs3 
	.byte	W48
	.byte	PEND
@ 033   ----------------------------------------
high_tier_map_5_033:
	.byte		N48   , Gn2 , v080
	.byte		N48   , Cn3 
	.byte	W48
	.byte		        Gn2 
	.byte		N48   , Bn2 
	.byte	W48
	.byte	PEND
@ 034   ----------------------------------------
high_tier_map_5_034:
	.byte		N48   , Fn2 , v080
	.byte		N48   , As2 
	.byte	W48
	.byte		        Fn2 
	.byte		N48   , An2 
	.byte	W48
	.byte	PEND
@ 035   ----------------------------------------
high_tier_map_5_035:
	.byte	W24
	.byte		N12   , An2 , v127
	.byte		N12   , Dn3 
	.byte	W48
	.byte		        An2 
	.byte		N12   , Dn3 
	.byte	W24
	.byte	PEND
@ 036   ----------------------------------------
	.byte	W24
	.byte		        An2 
	.byte		N12   , Dn3 
	.byte	W24
	.byte		        An2 
	.byte		N12   , Dn3 
	.byte	W48
@ 037   ----------------------------------------
	.byte	PATT
	 .word	high_tier_map_5_001
@ 038   ----------------------------------------
	.byte	PATT
	 .word	high_tier_map_5_001
@ 039   ----------------------------------------
	.byte	PATT
	 .word	high_tier_map_5_003
@ 040   ----------------------------------------
	.byte	PATT
	 .word	high_tier_map_5_004
@ 041   ----------------------------------------
	.byte	PATT
	 .word	high_tier_map_5_005
@ 042   ----------------------------------------
	.byte	PATT
	 .word	high_tier_map_5_006
@ 043   ----------------------------------------
	.byte	PATT
	 .word	high_tier_map_5_007
@ 044   ----------------------------------------
	.byte	PATT
	 .word	high_tier_map_5_008
@ 045   ----------------------------------------
	.byte	PATT
	 .word	high_tier_map_5_009
@ 046   ----------------------------------------
	.byte	PATT
	 .word	high_tier_map_5_010
@ 047   ----------------------------------------
	.byte	PATT
	 .word	high_tier_map_5_011
@ 048   ----------------------------------------
	.byte		N60   , Gn2 , v127
	.byte	W96
@ 049   ----------------------------------------
	.byte		N48   , En3 , v100
	.byte	W48
	.byte		        Ds3 
	.byte	W48
@ 050   ----------------------------------------
	.byte	PATT
	 .word	high_tier_map_5_014
@ 051   ----------------------------------------
	.byte	PATT
	 .word	high_tier_map_5_015
@ 052   ----------------------------------------
	.byte	PATT
	 .word	high_tier_map_5_016
@ 053   ----------------------------------------
	.byte	PATT
	 .word	high_tier_map_5_017
@ 054   ----------------------------------------
	.byte	PATT
	 .word	high_tier_map_5_018
@ 055   ----------------------------------------
	.byte	W96
@ 056   ----------------------------------------
	.byte	W96
@ 057   ----------------------------------------
	.byte	W96
@ 058   ----------------------------------------
	.byte	W96
@ 059   ----------------------------------------
	.byte	W96
@ 060   ----------------------------------------
	.byte	W96
@ 061   ----------------------------------------
	.byte	W96
@ 062   ----------------------------------------
	.byte	W96
@ 063   ----------------------------------------
	.byte	PATT
	 .word	high_tier_map_5_027
@ 064   ----------------------------------------
	.byte	PATT
	 .word	high_tier_map_5_027
@ 065   ----------------------------------------
	.byte	PATT
	 .word	high_tier_map_5_029
@ 066   ----------------------------------------
	.byte	PATT
	 .word	high_tier_map_5_030
@ 067   ----------------------------------------
	.byte	PATT
	 .word	high_tier_map_5_031
@ 068   ----------------------------------------
	.byte	PATT
	 .word	high_tier_map_5_032
@ 069   ----------------------------------------
	.byte	PATT
	 .word	high_tier_map_5_033
@ 070   ----------------------------------------
	.byte	PATT
	 .word	high_tier_map_5_034
@ 071   ----------------------------------------
	.byte	PATT
	 .word	high_tier_map_5_035
@ 072   ----------------------------------------
	.byte	W24
	.byte		N12   , An2 , v127
	.byte		N12   , Dn3 
	.byte	W24
	.byte		        An2 
	.byte		N12   , Dn3 
	.byte	W12
	.byte	FINE

@**************** Track 6 (Midi-Chn.6) ****************@

high_tier_map_6:
	.byte	KEYSH , high_tier_map_key+0
@ 000   ----------------------------------------
	.byte		VOICE , 60
	.byte		VOL   , 35*high_tier_map_mvl/mxv
	.byte		PAN   , c_v-29
	.byte	W24
@ 001   ----------------------------------------
high_tier_map_6_001:
	.byte		N19   , Gn2 , v100
	.byte		N19   , As2 
	.byte	W24
	.byte		        Gn2 
	.byte		N19   , As2 
	.byte	W24
	.byte		        Fs2 
	.byte		N19   , An2 
	.byte	W24
	.byte		        Fs2 
	.byte		N19   , An2 
	.byte	W24
	.byte	PEND
@ 002   ----------------------------------------
	.byte	PATT
	 .word	high_tier_map_6_001
@ 003   ----------------------------------------
high_tier_map_6_003:
	.byte		N19   , Gn2 , v100
	.byte	W24
	.byte		        An2 
	.byte	W24
	.byte		        Bn2 
	.byte	W24
	.byte		        Gn2 
	.byte	W24
	.byte	PEND
@ 004   ----------------------------------------
high_tier_map_6_004:
	.byte		N09   , Ds2 , v100
	.byte	W12
	.byte		N03   , Gn2 , v112
	.byte	W04
	.byte		N03   
	.byte	W04
	.byte		N03   
	.byte	W04
	.byte		N06   , Gs2 
	.byte	W08
	.byte		N06   
	.byte	W08
	.byte		N06   
	.byte	W08
	.byte		        An2 
	.byte	W08
	.byte		N06   
	.byte	W08
	.byte		N06   
	.byte	W08
	.byte		        Gs2 
	.byte	W08
	.byte		N06   
	.byte	W08
	.byte		N06   
	.byte	W08
	.byte	PEND
@ 005   ----------------------------------------
high_tier_map_6_005:
	.byte		N15   , Ds2 , v100
	.byte	W24
	.byte		N15   
	.byte	W24
	.byte		N15   
	.byte	W24
	.byte		        Fs2 
	.byte	W24
	.byte	PEND
@ 006   ----------------------------------------
high_tier_map_6_006:
	.byte		N15   , Gn2 , v100
	.byte	W24
	.byte		N15   
	.byte	W24
	.byte		        Fn2 
	.byte	W24
	.byte		N15   
	.byte	W24
	.byte	PEND
@ 007   ----------------------------------------
high_tier_map_6_007:
	.byte		N15   , En2 , v100
	.byte	W24
	.byte		N15   
	.byte	W24
	.byte		N15   
	.byte	W24
	.byte		N15   
	.byte	W24
	.byte	PEND
@ 008   ----------------------------------------
high_tier_map_6_008:
	.byte		N15   , Fn2 , v100
	.byte	W24
	.byte		N15   
	.byte	W24
	.byte		        Fs2 
	.byte	W24
	.byte		N19   , Dn3 , v127
	.byte	W24
	.byte	PEND
@ 009   ----------------------------------------
high_tier_map_6_009:
	.byte		N60   , Ds3 , v127
	.byte	W72
	.byte		N19   , Gn2 
	.byte	W24
	.byte	PEND
@ 010   ----------------------------------------
high_tier_map_6_010:
	.byte		N60   , An2 , v127
	.byte	W64
	.byte		N08   , Ds3 
	.byte	W08
	.byte		N12   , Dn3 
	.byte	W16
	.byte		N06   , Cn3 
	.byte	W08
	.byte	PEND
@ 011   ----------------------------------------
high_tier_map_6_011:
	.byte		N60   , As2 , v127
	.byte	W72
	.byte		N19   , Fn2 
	.byte	W24
	.byte	PEND
@ 012   ----------------------------------------
	.byte		N60   , Gn2 
	.byte	W96
@ 013   ----------------------------------------
high_tier_map_6_013:
	.byte		N48   , As2 , v100
	.byte	W48
	.byte		N48   
	.byte	W48
	.byte	PEND
@ 014   ----------------------------------------
high_tier_map_6_014:
	.byte		N48   , As2 , v100
	.byte	W48
	.byte		        Gn2 
	.byte	W48
	.byte	PEND
@ 015   ----------------------------------------
high_tier_map_6_015:
	.byte		N48   , Gn2 , v100
	.byte	W48
	.byte		N48   
	.byte	W48
	.byte	PEND
@ 016   ----------------------------------------
high_tier_map_6_016:
	.byte		N48   , Fn2 , v100
	.byte	W48
	.byte		N48   
	.byte	W48
	.byte	PEND
@ 017   ----------------------------------------
high_tier_map_6_017:
	.byte	W24
	.byte		N12   , Gn2 , v112
	.byte	W48
	.byte		        Fs2 
	.byte	W24
	.byte	PEND
@ 018   ----------------------------------------
high_tier_map_6_018:
	.byte	W24
	.byte		N12   , Gn2 , v112
	.byte	W24
	.byte		        Fs2 
	.byte	W48
	.byte	PEND
@ 019   ----------------------------------------
	.byte	W96
@ 020   ----------------------------------------
	.byte	W96
@ 021   ----------------------------------------
	.byte	W96
@ 022   ----------------------------------------
	.byte	W96
@ 023   ----------------------------------------
	.byte	W96
@ 024   ----------------------------------------
	.byte	W96
@ 025   ----------------------------------------
	.byte	W96
@ 026   ----------------------------------------
	.byte	W96
@ 027   ----------------------------------------
high_tier_map_6_027:
	.byte	W24
	.byte		N06   , Ds2 , v100
	.byte		N06   , Gn2 
	.byte	W08
	.byte		        Ds2 
	.byte		N06   , Gn2 
	.byte	W08
	.byte		        Ds2 
	.byte		N06   , Gn2 
	.byte	W08
	.byte		N19   , Ds2 
	.byte		N19   , Gn2 
	.byte	W48
	.byte	PEND
@ 028   ----------------------------------------
high_tier_map_6_028:
	.byte	W24
	.byte		N06   , Fn2 , v100
	.byte		N06   , An2 
	.byte	W08
	.byte		        Fn2 
	.byte		N06   , An2 
	.byte	W08
	.byte		        Fn2 
	.byte		N06   , An2 
	.byte	W08
	.byte		N19   , Fn2 
	.byte		N19   , An2 
	.byte	W48
	.byte	PEND
@ 029   ----------------------------------------
high_tier_map_6_029:
	.byte	W24
	.byte		N06   , Dn2 , v100
	.byte	W08
	.byte		N06   
	.byte	W08
	.byte		N06   
	.byte	W08
	.byte		N19   
	.byte	W48
	.byte	PEND
@ 030   ----------------------------------------
high_tier_map_6_030:
	.byte	W24
	.byte		N06   , Ds2 , v100
	.byte	W08
	.byte		N06   
	.byte	W08
	.byte		N06   
	.byte	W08
	.byte		N19   
	.byte	W48
	.byte	PEND
@ 031   ----------------------------------------
high_tier_map_6_031:
	.byte		N48   , Gn2 , v080
	.byte	W48
	.byte		        Fs2 
	.byte	W48
	.byte	PEND
@ 032   ----------------------------------------
high_tier_map_6_032:
	.byte		N48   , Fn2 , v080
	.byte	W48
	.byte		        En2 
	.byte	W48
	.byte	PEND
@ 033   ----------------------------------------
high_tier_map_6_033:
	.byte		N48   , Ds2 , v080
	.byte	W48
	.byte		        Dn2 
	.byte	W48
	.byte	PEND
@ 034   ----------------------------------------
high_tier_map_6_034:
	.byte		N48   , Cs2 , v080
	.byte	W48
	.byte		        Cn2 
	.byte	W48
	.byte	PEND
@ 035   ----------------------------------------
high_tier_map_6_035:
	.byte	W24
	.byte		N12   , Gn2 , v127
	.byte	W48
	.byte		        Fs2 
	.byte	W24
	.byte	PEND
@ 036   ----------------------------------------
	.byte	W24
	.byte		        Gn2 
	.byte	W24
	.byte		        Fs2 
	.byte	W48
@ 037   ----------------------------------------
	.byte	PATT
	 .word	high_tier_map_6_001
@ 038   ----------------------------------------
	.byte	PATT
	 .word	high_tier_map_6_001
@ 039   ----------------------------------------
	.byte	PATT
	 .word	high_tier_map_6_003
@ 040   ----------------------------------------
	.byte	PATT
	 .word	high_tier_map_6_004
@ 041   ----------------------------------------
	.byte	PATT
	 .word	high_tier_map_6_005
@ 042   ----------------------------------------
	.byte	PATT
	 .word	high_tier_map_6_006
@ 043   ----------------------------------------
	.byte	PATT
	 .word	high_tier_map_6_007
@ 044   ----------------------------------------
	.byte	PATT
	 .word	high_tier_map_6_008
@ 045   ----------------------------------------
	.byte	PATT
	 .word	high_tier_map_6_009
@ 046   ----------------------------------------
	.byte	PATT
	 .word	high_tier_map_6_010
@ 047   ----------------------------------------
	.byte	PATT
	 .word	high_tier_map_6_011
@ 048   ----------------------------------------
	.byte		N60   , Gn2 , v127
	.byte	W96
@ 049   ----------------------------------------
	.byte	PATT
	 .word	high_tier_map_6_013
@ 050   ----------------------------------------
	.byte	PATT
	 .word	high_tier_map_6_014
@ 051   ----------------------------------------
	.byte	PATT
	 .word	high_tier_map_6_015
@ 052   ----------------------------------------
	.byte	PATT
	 .word	high_tier_map_6_016
@ 053   ----------------------------------------
	.byte	PATT
	 .word	high_tier_map_6_017
@ 054   ----------------------------------------
	.byte	PATT
	 .word	high_tier_map_6_018
@ 055   ----------------------------------------
	.byte	W96
@ 056   ----------------------------------------
	.byte	W96
@ 057   ----------------------------------------
	.byte	W96
@ 058   ----------------------------------------
	.byte	W96
@ 059   ----------------------------------------
	.byte	W96
@ 060   ----------------------------------------
	.byte	W96
@ 061   ----------------------------------------
	.byte	W96
@ 062   ----------------------------------------
	.byte	W96
@ 063   ----------------------------------------
	.byte	PATT
	 .word	high_tier_map_6_027
@ 064   ----------------------------------------
	.byte	PATT
	 .word	high_tier_map_6_028
@ 065   ----------------------------------------
	.byte	PATT
	 .word	high_tier_map_6_029
@ 066   ----------------------------------------
	.byte	PATT
	 .word	high_tier_map_6_030
@ 067   ----------------------------------------
	.byte	PATT
	 .word	high_tier_map_6_031
@ 068   ----------------------------------------
	.byte	PATT
	 .word	high_tier_map_6_032
@ 069   ----------------------------------------
	.byte	PATT
	 .word	high_tier_map_6_033
@ 070   ----------------------------------------
	.byte	PATT
	 .word	high_tier_map_6_034
@ 071   ----------------------------------------
	.byte	PATT
	 .word	high_tier_map_6_035
@ 072   ----------------------------------------
	.byte	W24
	.byte		N12   , Gn2 , v127
	.byte	W24
	.byte		        Fs2 
	.byte	W12
	.byte	FINE

@**************** Track 7 (Midi-Chn.7) ****************@

high_tier_map_7:
	.byte	KEYSH , high_tier_map_key+0
@ 000   ----------------------------------------
	.byte		VOICE , 56
	.byte		VOL   , 35*high_tier_map_mvl/mxv
	.byte		PAN   , c_v-29
	.byte		N06   , Dn3 , v112
	.byte	W08
	.byte		N06   
	.byte	W08
	.byte		N06   
	.byte	W08
@ 001   ----------------------------------------
high_tier_map_7_001:
	.byte		N32   , Gn3 , v112
	.byte	W40
	.byte		N03   , An3 
	.byte	W04
	.byte		        As3 
	.byte	W04
	.byte		N32   , An3 
	.byte	W40
	.byte		N03   , As3 
	.byte	W04
	.byte		        Cn4 
	.byte	W04
	.byte	PEND
@ 002   ----------------------------------------
high_tier_map_7_002:
	.byte		N32   , As3 , v112
	.byte	W40
	.byte		N03   , An3 
	.byte	W04
	.byte		        Gn3 
	.byte	W04
	.byte		N12   , An3 
	.byte	W24
	.byte		N08   , Dn3 
	.byte	W16
	.byte		N06   
	.byte	W08
	.byte	PEND
@ 003   ----------------------------------------
high_tier_map_7_003:
	.byte		N06   , Gn3 , v112
	.byte	W08
	.byte		        Bn3 
	.byte	W08
	.byte		        Dn4 
	.byte	W08
	.byte		N36   , Fn4 
	.byte	W48
	.byte		N06   
	.byte	W08
	.byte		        Ds4 
	.byte	W08
	.byte		        Dn4 
	.byte	W08
	.byte	PEND
@ 004   ----------------------------------------
high_tier_map_7_004:
	.byte		N56   , Cn4 , v112
	.byte	W72
	.byte		N06   
	.byte	W08
	.byte		N06   
	.byte	W08
	.byte		        Dn4 
	.byte	W08
	.byte	PEND
@ 005   ----------------------------------------
high_tier_map_7_005:
	.byte		N56   , Ds4 , v112
	.byte	W72
	.byte		N06   , An3 
	.byte	W08
	.byte		        Dn4 
	.byte	W08
	.byte		        Cn4 
	.byte	W08
	.byte	PEND
@ 006   ----------------------------------------
high_tier_map_7_006:
	.byte		N56   , As3 , v112
	.byte	W72
	.byte		N06   
	.byte	W08
	.byte		N06   
	.byte	W08
	.byte		        Dn4 
	.byte	W08
	.byte	PEND
@ 007   ----------------------------------------
high_tier_map_7_007:
	.byte		N12   , Cn4 , v112
	.byte	W24
	.byte		N06   , Gn3 
	.byte	W08
	.byte		N06   
	.byte	W08
	.byte		N06   
	.byte	W08
	.byte		N19   
	.byte	W24
	.byte		        As3 
	.byte	W24
	.byte	PEND
@ 008   ----------------------------------------
high_tier_map_7_008:
	.byte		N36   , As3 , v112
	.byte	W48
	.byte		N09   , An3 
	.byte	W48
	.byte	PEND
@ 009   ----------------------------------------
high_tier_map_7_009:
	.byte	W24
	.byte		N06   , Cn3 , v100
	.byte		N06   , Ds3 
	.byte		N06   , Gn3 
	.byte	W08
	.byte		        Cn3 
	.byte		N06   , Ds3 
	.byte		N06   , Gn3 
	.byte	W08
	.byte		        Cn3 
	.byte		N06   , Ds3 
	.byte		N06   , Gn3 
	.byte	W08
	.byte		N12   , Cn3 
	.byte		N12   , Ds3 
	.byte		N12   , Gn3 
	.byte	W48
	.byte	PEND
@ 010   ----------------------------------------
high_tier_map_7_010:
	.byte	W24
	.byte		N06   , Cn3 , v100
	.byte		N06   , Ds3 
	.byte		N06   , Fn3 
	.byte		N06   , An3 
	.byte	W08
	.byte		        Cn3 
	.byte		N06   , Ds3 
	.byte		N06   , Fn3 
	.byte		N06   , An3 
	.byte	W08
	.byte		        Cn3 
	.byte		N06   , Ds3 
	.byte		N06   , Fn3 
	.byte		N06   , An3 
	.byte	W08
	.byte		N12   , Cn3 
	.byte		N12   , Ds3 
	.byte		N12   , Fn3 
	.byte		N12   , An3 
	.byte	W48
	.byte	PEND
@ 011   ----------------------------------------
high_tier_map_7_011:
	.byte	W24
	.byte		N06   , As2 , v100
	.byte		N06   , Dn3 
	.byte		N06   , Fn3 
	.byte	W08
	.byte		        As2 
	.byte		N06   , Dn3 
	.byte		N06   , Fn3 
	.byte	W08
	.byte		        As2 
	.byte		N06   , Dn3 
	.byte		N06   , Fn3 
	.byte	W08
	.byte		N12   , As2 
	.byte		N12   , Dn3 
	.byte		N12   , Fn3 
	.byte	W48
	.byte	PEND
@ 012   ----------------------------------------
high_tier_map_7_012:
	.byte	W24
	.byte		N06   , As2 , v100
	.byte		N06   , Ds3 
	.byte		N06   , Gn3 
	.byte	W08
	.byte		        As2 
	.byte		N06   , Ds3 
	.byte		N06   , Gn3 
	.byte	W08
	.byte		        As2 
	.byte		N06   , Ds3 
	.byte		N06   , Gn3 
	.byte	W08
	.byte		N12   , As2 
	.byte		N12   , Ds3 
	.byte		N12   , Gn3 
	.byte	W16
	.byte		N06   , An3 , v112
	.byte	W08
	.byte		N12   , As3 
	.byte	W16
	.byte		N06   , Cn4 
	.byte	W08
	.byte	PEND
@ 013   ----------------------------------------
high_tier_map_7_013:
	.byte		N06   , Dn4 , v112
	.byte	W08
	.byte		        As3 
	.byte	W08
	.byte		N06   
	.byte	W08
	.byte		N08   , Cn4 
	.byte	W16
	.byte		N06   , As3 
	.byte	W08
	.byte		        Dn4 
	.byte	W08
	.byte		        As3 
	.byte	W08
	.byte		N06   
	.byte	W08
	.byte		N08   , Cn4 
	.byte	W16
	.byte		N06   , As3 
	.byte	W08
	.byte	PEND
@ 014   ----------------------------------------
high_tier_map_7_014:
	.byte		N06   , Dn4 , v112
	.byte	W08
	.byte		        As3 
	.byte	W08
	.byte		N06   
	.byte	W08
	.byte		N08   , Cn4 
	.byte	W16
	.byte		N06   , As3 
	.byte	W08
	.byte		        Gn4 , v127
	.byte	W08
	.byte		        As3 , v112
	.byte	W08
	.byte		N06   
	.byte	W08
	.byte		N08   , Cn4 
	.byte	W16
	.byte		N06   , As3 
	.byte	W08
	.byte	PEND
@ 015   ----------------------------------------
high_tier_map_7_015:
	.byte		N08   , As3 , v112
	.byte	W16
	.byte		N06   
	.byte	W08
	.byte		N19   , An3 
	.byte	W24
	.byte		N08   
	.byte	W16
	.byte		N06   
	.byte	W08
	.byte		N19   , Gn3 
	.byte	W24
	.byte	PEND
@ 016   ----------------------------------------
high_tier_map_7_016:
	.byte		N08   , Gn3 , v112
	.byte	W16
	.byte		N06   
	.byte	W08
	.byte		N19   , Fn3 
	.byte	W24
	.byte		N08   
	.byte	W16
	.byte		N06   
	.byte	W08
	.byte		N19   , Ds3 
	.byte	W24
	.byte	PEND
@ 017   ----------------------------------------
high_tier_map_7_017:
	.byte		N24   , Dn3 , v112
	.byte	W40
	.byte		N03   
	.byte	W04
	.byte		N03   
	.byte	W04
	.byte		N24   
	.byte	W40
	.byte		N03   
	.byte	W04
	.byte		N03   
	.byte	W04
	.byte	PEND
@ 018   ----------------------------------------
high_tier_map_7_018:
	.byte		N24   , Dn3 , v112
	.byte	W40
	.byte		N03   
	.byte	W04
	.byte		N03   
	.byte	W04
	.byte		N12   
	.byte	W48
	.byte	PEND
@ 019   ----------------------------------------
	.byte	W96
@ 020   ----------------------------------------
	.byte	W96
@ 021   ----------------------------------------
	.byte	W96
@ 022   ----------------------------------------
	.byte	W96
@ 023   ----------------------------------------
	.byte	W96
@ 024   ----------------------------------------
	.byte	W96
@ 025   ----------------------------------------
	.byte	W96
@ 026   ----------------------------------------
high_tier_map_7_026:
	.byte	W72
	.byte		N19   , Fs3 , v112
	.byte		N19   , Dn4 
	.byte	W24
	.byte	PEND
@ 027   ----------------------------------------
high_tier_map_7_027:
	.byte		N60   , Gn3 , v112
	.byte		N60   , Ds4 
	.byte	W72
	.byte		N19   , Ds3 
	.byte		N19   , Gn3 
	.byte	W24
	.byte	PEND
@ 028   ----------------------------------------
high_tier_map_7_028:
	.byte		N60   , Fn3 , v112
	.byte		N60   , An3 
	.byte	W64
	.byte		N08   , Ds4 
	.byte		N08   , Gn4 
	.byte	W08
	.byte		N12   , Dn4 
	.byte		N12   , Fn4 
	.byte	W16
	.byte		N06   , Cn4 
	.byte		N06   , Ds4 
	.byte	W08
	.byte	PEND
@ 029   ----------------------------------------
high_tier_map_7_029:
	.byte		N60   , As3 , v112
	.byte		N60   , Dn4 
	.byte	W72
	.byte		N19   , Dn3 
	.byte		N19   , Fn3 
	.byte	W24
	.byte	PEND
@ 030   ----------------------------------------
	.byte		N60   , Ds3 
	.byte		N60   , Gn3 
	.byte	W96
@ 031   ----------------------------------------
	.byte	W96
@ 032   ----------------------------------------
	.byte	W96
@ 033   ----------------------------------------
	.byte	W96
@ 034   ----------------------------------------
	.byte	W96
@ 035   ----------------------------------------
high_tier_map_7_035:
	.byte		N24   , Dn3 , v120
	.byte		N24   , Dn4 
	.byte	W40
	.byte		N03   , Dn3 
	.byte		N03   , Dn4 
	.byte	W04
	.byte		        Dn3 
	.byte		N03   , Dn4 
	.byte	W04
	.byte		N24   , Dn3 
	.byte		N24   , Dn4 
	.byte	W40
	.byte		N03   , Dn3 
	.byte		N03   , Dn4 
	.byte	W04
	.byte		        Dn3 
	.byte		N03   , Dn4 
	.byte	W04
	.byte	PEND
@ 036   ----------------------------------------
	.byte		N24   , Dn3 
	.byte		N24   , Dn4 
	.byte	W40
	.byte		N03   , Dn3 
	.byte		N03   , Dn4 
	.byte	W04
	.byte		        Dn3 
	.byte		N03   , Dn4 
	.byte	W04
	.byte		N12   , Dn3 
	.byte		N12   , Dn4 
	.byte	W24
	.byte		N06   , Dn3 , v112
	.byte	W08
	.byte		N06   
	.byte	W08
	.byte		N06   
	.byte	W08
@ 037   ----------------------------------------
	.byte	PATT
	 .word	high_tier_map_7_001
@ 038   ----------------------------------------
	.byte	PATT
	 .word	high_tier_map_7_002
@ 039   ----------------------------------------
	.byte	PATT
	 .word	high_tier_map_7_003
@ 040   ----------------------------------------
	.byte	PATT
	 .word	high_tier_map_7_004
@ 041   ----------------------------------------
	.byte	PATT
	 .word	high_tier_map_7_005
@ 042   ----------------------------------------
	.byte	PATT
	 .word	high_tier_map_7_006
@ 043   ----------------------------------------
	.byte	PATT
	 .word	high_tier_map_7_007
@ 044   ----------------------------------------
	.byte	PATT
	 .word	high_tier_map_7_008
@ 045   ----------------------------------------
	.byte	PATT
	 .word	high_tier_map_7_009
@ 046   ----------------------------------------
	.byte	PATT
	 .word	high_tier_map_7_010
@ 047   ----------------------------------------
	.byte	PATT
	 .word	high_tier_map_7_011
@ 048   ----------------------------------------
	.byte	PATT
	 .word	high_tier_map_7_012
@ 049   ----------------------------------------
	.byte	PATT
	 .word	high_tier_map_7_013
@ 050   ----------------------------------------
	.byte	PATT
	 .word	high_tier_map_7_014
@ 051   ----------------------------------------
	.byte	PATT
	 .word	high_tier_map_7_015
@ 052   ----------------------------------------
	.byte	PATT
	 .word	high_tier_map_7_016
@ 053   ----------------------------------------
	.byte	PATT
	 .word	high_tier_map_7_017
@ 054   ----------------------------------------
	.byte	PATT
	 .word	high_tier_map_7_018
@ 055   ----------------------------------------
	.byte	W96
@ 056   ----------------------------------------
	.byte	W96
@ 057   ----------------------------------------
	.byte	W96
@ 058   ----------------------------------------
	.byte	W96
@ 059   ----------------------------------------
	.byte	W96
@ 060   ----------------------------------------
	.byte	W96
@ 061   ----------------------------------------
	.byte	W96
@ 062   ----------------------------------------
	.byte	PATT
	 .word	high_tier_map_7_026
@ 063   ----------------------------------------
	.byte	PATT
	 .word	high_tier_map_7_027
@ 064   ----------------------------------------
	.byte	PATT
	 .word	high_tier_map_7_028
@ 065   ----------------------------------------
	.byte	PATT
	 .word	high_tier_map_7_029
@ 066   ----------------------------------------
	.byte		N60   , Ds3 , v112
	.byte		N60   , Gn3 
	.byte	W96
@ 067   ----------------------------------------
	.byte	W96
@ 068   ----------------------------------------
	.byte	W96
@ 069   ----------------------------------------
	.byte	W96
@ 070   ----------------------------------------
	.byte	W96
@ 071   ----------------------------------------
	.byte	PATT
	 .word	high_tier_map_7_035
@ 072   ----------------------------------------
	.byte		N24   , Dn3 , v120
	.byte		N24   , Dn4 
	.byte	W40
	.byte		N03   , Dn3 
	.byte		N03   , Dn4 
	.byte	W04
	.byte		        Dn3 
	.byte		N03   , Dn4 
	.byte	W04
	.byte		N12   , Dn3 
	.byte		N12   , Dn4 
	.byte	W12
	.byte	FINE

@**************** Track 8 (Midi-Chn.8) ****************@

high_tier_map_8:
	.byte	KEYSH , high_tier_map_key+0
@ 000   ----------------------------------------
	.byte		VOICE , 57
	.byte		VOL   , 35*high_tier_map_mvl/mxv
	.byte		PAN   , c_v-29
	.byte	W24
@ 001   ----------------------------------------
high_tier_map_8_001:
	.byte		N19   , Dn2 , v100
	.byte		N19   , Gn2 
	.byte		N19   , As2 
	.byte	W24
	.byte		        Dn2 
	.byte		N19   , Gn2 
	.byte		N19   , As2 
	.byte	W24
	.byte		        Dn2 
	.byte		N19   , Fs2 
	.byte		N19   , An2 
	.byte	W24
	.byte		        Dn2 
	.byte		N19   , Fs2 
	.byte		N19   , An2 
	.byte	W24
	.byte	PEND
@ 002   ----------------------------------------
	.byte	PATT
	 .word	high_tier_map_8_001
@ 003   ----------------------------------------
high_tier_map_8_003:
	.byte		N19   , Dn2 , v100
	.byte		N19   , Fn2 
	.byte		N19   , Gn2 
	.byte	W24
	.byte		        Dn2 
	.byte		N19   , Fn2 
	.byte		N19   , An2 
	.byte	W24
	.byte		        Dn2 
	.byte		N19   , Fn2 
	.byte		N19   , Bn2 
	.byte	W24
	.byte		        Dn2 
	.byte		N19   , Fn2 
	.byte		N19   , Gn2 
	.byte	W24
	.byte	PEND
@ 004   ----------------------------------------
high_tier_map_8_004:
	.byte		N09   , Cn2 , v100
	.byte		N09   , Ds2 
	.byte		N09   , Gn2 
	.byte	W12
	.byte		N03   , Gn2 , v112
	.byte	W04
	.byte		N03   
	.byte	W04
	.byte		N03   
	.byte	W04
	.byte		N06   , Gs2 
	.byte	W08
	.byte		N06   
	.byte	W08
	.byte		N06   
	.byte	W08
	.byte		        An2 
	.byte	W08
	.byte		N06   
	.byte	W08
	.byte		N06   
	.byte	W08
	.byte		        Gs2 
	.byte	W08
	.byte		N06   
	.byte	W08
	.byte		N06   
	.byte	W08
	.byte	PEND
@ 005   ----------------------------------------
high_tier_map_8_005:
	.byte		N15   , Cn2 , v100
	.byte		N15   , Gn2 
	.byte	W24
	.byte		        Cn2 
	.byte		N15   , Gn2 
	.byte	W24
	.byte		        Cn2 
	.byte		N15   , Gn2 
	.byte	W24
	.byte		        Cn2 
	.byte		N15   , Fs2 
	.byte	W24
	.byte	PEND
@ 006   ----------------------------------------
high_tier_map_8_006:
	.byte		N15   , Dn2 , v100
	.byte		N15   , Gn2 
	.byte	W24
	.byte		        Dn2 
	.byte		N15   , Gn2 
	.byte	W24
	.byte		        Dn2 
	.byte		N15   , Fn2 
	.byte	W24
	.byte		        Dn2 
	.byte		N15   , Fn2 
	.byte	W24
	.byte	PEND
@ 007   ----------------------------------------
high_tier_map_8_007:
	.byte		N15   , Cn2 , v100
	.byte		N15   , Gn2 
	.byte	W24
	.byte		        Cn2 
	.byte		N15   , Gn2 
	.byte	W24
	.byte		        As1 
	.byte		N15   , Cn2 
	.byte		N15   , En2 
	.byte	W24
	.byte		        As1 
	.byte		N15   , Cn2 
	.byte		N15   , En2 
	.byte	W24
	.byte	PEND
@ 008   ----------------------------------------
high_tier_map_8_008:
	.byte		N15   , Ds2 , v100
	.byte		N15   , As2 
	.byte	W24
	.byte		        Ds2 
	.byte		N15   , As2 
	.byte	W24
	.byte		        Fs2 
	.byte		N15   , An2 
	.byte	W24
	.byte		        Fs2 
	.byte		N15   , An2 
	.byte	W24
	.byte	PEND
@ 009   ----------------------------------------
high_tier_map_8_009:
	.byte	W24
	.byte		N05   , Cn2 , v112
	.byte		N05   , Ds2 
	.byte		N05   , Gn2 
	.byte	W08
	.byte		        Cn2 
	.byte		N05   , Ds2 
	.byte		N05   , Gn2 
	.byte	W08
	.byte		        Cn2 
	.byte		N05   , Ds2 
	.byte		N05   , Gn2 
	.byte	W08
	.byte		N12   , Cn2 
	.byte		N12   , Ds2 
	.byte		N12   , Gn2 
	.byte	W48
	.byte	PEND
@ 010   ----------------------------------------
high_tier_map_8_010:
	.byte	W24
	.byte		N05   , Cn2 , v112
	.byte		N05   , Ds2 
	.byte		N05   , Fn2 
	.byte		N05   , An2 
	.byte	W08
	.byte		        Cn2 
	.byte		N05   , Ds2 
	.byte		N05   , Fn2 
	.byte		N05   , An2 
	.byte	W08
	.byte		        Cn2 
	.byte		N05   , Ds2 
	.byte		N05   , Fn2 
	.byte		N05   , An2 
	.byte	W08
	.byte		N12   , Cn2 
	.byte		N12   , Ds2 
	.byte		N12   , Fn2 
	.byte		N12   , An2 
	.byte	W48
	.byte	PEND
@ 011   ----------------------------------------
high_tier_map_8_011:
	.byte	W24
	.byte		N05   , As1 , v112
	.byte		N05   , Dn2 
	.byte		N05   , Fn2 
	.byte	W08
	.byte		        As1 
	.byte		N05   , Dn2 
	.byte		N05   , Fn2 
	.byte	W08
	.byte		        As1 
	.byte		N05   , Dn2 
	.byte		N05   , Fn2 
	.byte	W08
	.byte		N12   , As1 
	.byte		N12   , Dn2 
	.byte		N12   , Fn2 
	.byte	W48
	.byte	PEND
@ 012   ----------------------------------------
high_tier_map_8_012:
	.byte	W24
	.byte		N05   , As1 , v112
	.byte		N05   , Ds2 
	.byte		N05   , Gn2 
	.byte	W08
	.byte		        As1 
	.byte		N05   , Ds2 
	.byte		N05   , Gn2 
	.byte	W08
	.byte		        As1 
	.byte		N05   , Ds2 
	.byte		N05   , Gn2 
	.byte	W08
	.byte		N12   , As1 
	.byte		N12   , Ds2 
	.byte		N12   , Gn2 
	.byte	W48
	.byte	PEND
@ 013   ----------------------------------------
high_tier_map_8_013:
	.byte		N48   , En2 , v100
	.byte		N48   , Gn2 
	.byte	W48
	.byte		        Ds2 
	.byte		N48   , Fs2 
	.byte	W48
	.byte	PEND
@ 014   ----------------------------------------
high_tier_map_8_014:
	.byte		N48   , Dn2 , v100
	.byte		N48   , Fn2 
	.byte	W48
	.byte		        Cs2 
	.byte		N48   , En2 
	.byte	W48
	.byte	PEND
@ 015   ----------------------------------------
high_tier_map_8_015:
	.byte		N48   , Cn2 , v100
	.byte		N48   , Ds2 
	.byte	W48
	.byte		        Bn1 
	.byte		N48   , Dn2 
	.byte	W48
	.byte	PEND
@ 016   ----------------------------------------
high_tier_map_8_016:
	.byte		N48   , As1 , v100
	.byte		N48   , Cs2 
	.byte	W48
	.byte		        An1 
	.byte		N48   , Cn2 
	.byte	W48
	.byte	PEND
@ 017   ----------------------------------------
high_tier_map_8_017:
	.byte	W24
	.byte		N12   , An1 , v112
	.byte		N12   , Dn2 
	.byte		N12   , Gn2 
	.byte	W48
	.byte		        An1 
	.byte		N12   , Dn2 
	.byte		N12   , Fs2 
	.byte	W24
	.byte	PEND
@ 018   ----------------------------------------
high_tier_map_8_018:
	.byte	W24
	.byte		N12   , An1 , v112
	.byte		N12   , Dn2 
	.byte		N12   , Gn2 
	.byte	W24
	.byte		        An1 
	.byte		N12   , Dn2 
	.byte		N12   , Fs2 
	.byte	W48
	.byte	PEND
@ 019   ----------------------------------------
	.byte	W96
@ 020   ----------------------------------------
	.byte	W96
@ 021   ----------------------------------------
	.byte	W96
@ 022   ----------------------------------------
	.byte	W96
@ 023   ----------------------------------------
	.byte	W96
@ 024   ----------------------------------------
	.byte	W96
@ 025   ----------------------------------------
	.byte	W96
@ 026   ----------------------------------------
	.byte	W96
@ 027   ----------------------------------------
high_tier_map_8_027:
	.byte	W24
	.byte		N06   , Cn3 , v100
	.byte		N06   , Ds3 
	.byte		N06   , Gn3 
	.byte	W08
	.byte		        Cn3 
	.byte		N06   , Ds3 
	.byte		N06   , Gn3 
	.byte	W08
	.byte		        Cn3 
	.byte		N06   , Ds3 
	.byte		N06   , Gn3 
	.byte	W08
	.byte		N19   , Cn3 
	.byte		N19   , Ds3 
	.byte		N19   , Gn3 
	.byte	W48
	.byte	PEND
@ 028   ----------------------------------------
high_tier_map_8_028:
	.byte	W24
	.byte		N06   , Cn3 , v100
	.byte		N06   , Fn3 
	.byte		N06   , An3 
	.byte	W08
	.byte		        Cn3 
	.byte		N06   , Fn3 
	.byte		N06   , An3 
	.byte	W08
	.byte		        Cn3 
	.byte		N06   , Fn3 
	.byte		N06   , An3 
	.byte	W08
	.byte		N19   , Cn3 
	.byte		N19   , Fn3 
	.byte		N19   , An3 
	.byte	W48
	.byte	PEND
@ 029   ----------------------------------------
high_tier_map_8_029:
	.byte	W24
	.byte		N06   , As2 , v100
	.byte		N06   , Dn3 
	.byte		N06   , Fn3 
	.byte	W08
	.byte		        As2 
	.byte		N06   , Dn3 
	.byte		N06   , Fn3 
	.byte	W08
	.byte		        As2 
	.byte		N06   , Dn3 
	.byte		N06   , Fn3 
	.byte	W08
	.byte		N19   , As2 
	.byte		N19   , Dn3 
	.byte		N19   , Fn3 
	.byte	W48
	.byte	PEND
@ 030   ----------------------------------------
high_tier_map_8_030:
	.byte	W24
	.byte		N06   , As2 , v100
	.byte		N06   , Ds3 
	.byte		N06   , Gn3 
	.byte	W08
	.byte		        As2 
	.byte		N06   , Ds3 
	.byte		N06   , Gn3 
	.byte	W08
	.byte		        As2 
	.byte		N06   , Ds3 
	.byte		N06   , Gn3 
	.byte	W08
	.byte		N19   , As2 
	.byte		N19   , Ds3 
	.byte		N19   , Gn3 
	.byte	W48
	.byte	PEND
@ 031   ----------------------------------------
high_tier_map_8_031:
	.byte		N48   , Gn2 , v080
	.byte		N48   , As2 
	.byte		N48   , En3 
	.byte	W48
	.byte		        Fs2 
	.byte		N48   , As2 
	.byte		N48   , Ds3 
	.byte	W48
	.byte	PEND
@ 032   ----------------------------------------
high_tier_map_8_032:
	.byte		N48   , Fn2 , v080
	.byte		N48   , As2 
	.byte		N48   , Dn3 
	.byte	W48
	.byte		        En2 
	.byte		N48   , Gn2 
	.byte		N48   , Cs3 
	.byte	W48
	.byte	PEND
@ 033   ----------------------------------------
high_tier_map_8_033:
	.byte		N48   , Ds2 , v080
	.byte		N48   , Gn2 
	.byte		N48   , Cn3 
	.byte	W48
	.byte		        Dn2 
	.byte		N48   , Gn2 
	.byte		N48   , Bn2 
	.byte	W48
	.byte	PEND
@ 034   ----------------------------------------
high_tier_map_8_034:
	.byte		N48   , Cs2 , v080
	.byte		N48   , Fn2 
	.byte		N48   , As2 
	.byte	W48
	.byte		        Cn2 
	.byte		N48   , Fn2 
	.byte		N48   , An2 
	.byte	W48
	.byte	PEND
@ 035   ----------------------------------------
high_tier_map_8_035:
	.byte	W24
	.byte		N12   , Dn2 , v127
	.byte		N12   , Gn2 
	.byte	W48
	.byte		        Dn2 
	.byte		N12   , Fs2 
	.byte	W24
	.byte	PEND
@ 036   ----------------------------------------
	.byte	W24
	.byte		        Dn2 
	.byte		N12   , Gn2 
	.byte	W24
	.byte		        Dn2 
	.byte		N12   , Fs2 
	.byte	W48
@ 037   ----------------------------------------
	.byte	PATT
	 .word	high_tier_map_8_001
@ 038   ----------------------------------------
	.byte	PATT
	 .word	high_tier_map_8_001
@ 039   ----------------------------------------
	.byte	PATT
	 .word	high_tier_map_8_003
@ 040   ----------------------------------------
	.byte	PATT
	 .word	high_tier_map_8_004
@ 041   ----------------------------------------
	.byte	PATT
	 .word	high_tier_map_8_005
@ 042   ----------------------------------------
	.byte	PATT
	 .word	high_tier_map_8_006
@ 043   ----------------------------------------
	.byte	PATT
	 .word	high_tier_map_8_007
@ 044   ----------------------------------------
	.byte	PATT
	 .word	high_tier_map_8_008
@ 045   ----------------------------------------
	.byte	PATT
	 .word	high_tier_map_8_009
@ 046   ----------------------------------------
	.byte	PATT
	 .word	high_tier_map_8_010
@ 047   ----------------------------------------
	.byte	PATT
	 .word	high_tier_map_8_011
@ 048   ----------------------------------------
	.byte	PATT
	 .word	high_tier_map_8_012
@ 049   ----------------------------------------
	.byte	PATT
	 .word	high_tier_map_8_013
@ 050   ----------------------------------------
	.byte	PATT
	 .word	high_tier_map_8_014
@ 051   ----------------------------------------
	.byte	PATT
	 .word	high_tier_map_8_015
@ 052   ----------------------------------------
	.byte	PATT
	 .word	high_tier_map_8_016
@ 053   ----------------------------------------
	.byte	PATT
	 .word	high_tier_map_8_017
@ 054   ----------------------------------------
	.byte	PATT
	 .word	high_tier_map_8_018
@ 055   ----------------------------------------
	.byte	W96
@ 056   ----------------------------------------
	.byte	W96
@ 057   ----------------------------------------
	.byte	W96
@ 058   ----------------------------------------
	.byte	W96
@ 059   ----------------------------------------
	.byte	W96
@ 060   ----------------------------------------
	.byte	W96
@ 061   ----------------------------------------
	.byte	W96
@ 062   ----------------------------------------
	.byte	W96
@ 063   ----------------------------------------
	.byte	PATT
	 .word	high_tier_map_8_027
@ 064   ----------------------------------------
	.byte	PATT
	 .word	high_tier_map_8_028
@ 065   ----------------------------------------
	.byte	PATT
	 .word	high_tier_map_8_029
@ 066   ----------------------------------------
	.byte	PATT
	 .word	high_tier_map_8_030
@ 067   ----------------------------------------
	.byte	PATT
	 .word	high_tier_map_8_031
@ 068   ----------------------------------------
	.byte	PATT
	 .word	high_tier_map_8_032
@ 069   ----------------------------------------
	.byte	PATT
	 .word	high_tier_map_8_033
@ 070   ----------------------------------------
	.byte	PATT
	 .word	high_tier_map_8_034
@ 071   ----------------------------------------
	.byte	PATT
	 .word	high_tier_map_8_035
@ 072   ----------------------------------------
	.byte	W24
	.byte		N12   , Dn2 , v127
	.byte		N12   , Gn2 
	.byte	W24
	.byte		        Dn2 
	.byte		N12   , Fs2 
	.byte	W12
	.byte	FINE

@**************** Track 9 (Midi-Chn.9) ****************@

high_tier_map_9:
	.byte	KEYSH , high_tier_map_key+0
@ 000   ----------------------------------------
	.byte		VOICE , 57
	.byte		VOL   , 35*high_tier_map_mvl/mxv
	.byte		PAN   , c_v-29
	.byte	W24
@ 001   ----------------------------------------
high_tier_map_9_001:
	.byte		N19   , Gn1 , v100
	.byte	W24
	.byte		        Gn2 
	.byte	W24
	.byte		        Fs2 
	.byte	W24
	.byte		        Fs1 
	.byte	W24
	.byte	PEND
@ 002   ----------------------------------------
	.byte	PATT
	 .word	high_tier_map_9_001
@ 003   ----------------------------------------
high_tier_map_9_003:
	.byte		N19   , Gn1 , v100
	.byte	W24
	.byte		        An1 
	.byte	W24
	.byte		        Bn1 
	.byte	W24
	.byte		        Gn1 
	.byte	W24
	.byte	PEND
@ 004   ----------------------------------------
	.byte		N09   , Cn2 
	.byte	W96
@ 005   ----------------------------------------
high_tier_map_9_005:
	.byte		N19   , Gn2 , v100
	.byte	W24
	.byte		        Cn2 
	.byte	W24
	.byte		N19   
	.byte	W24
	.byte		        Dn2 
	.byte	W24
	.byte	PEND
@ 006   ----------------------------------------
high_tier_map_9_006:
	.byte		N19   , Gn2 , v100
	.byte	W24
	.byte		N19   
	.byte	W24
	.byte		        Fn2 
	.byte	W24
	.byte		N19   
	.byte	W24
	.byte	PEND
@ 007   ----------------------------------------
high_tier_map_9_007:
	.byte		N19   , En2 , v100
	.byte	W24
	.byte		N19   
	.byte	W24
	.byte		        Cn2 
	.byte	W24
	.byte		N19   
	.byte	W24
	.byte	PEND
@ 008   ----------------------------------------
high_tier_map_9_008:
	.byte		N19   , Fn2 , v100
	.byte	W24
	.byte		N19   
	.byte	W24
	.byte		        Fs2 
	.byte	W24
	.byte		        Dn2 
	.byte	W24
	.byte	PEND
@ 009   ----------------------------------------
high_tier_map_9_009:
	.byte	W24
	.byte		N05   , Cn2 , v112
	.byte	W08
	.byte		N05   
	.byte	W08
	.byte		N05   
	.byte	W08
	.byte		N12   
	.byte	W48
	.byte	PEND
@ 010   ----------------------------------------
high_tier_map_9_010:
	.byte	W24
	.byte		N05   , Fn1 , v112
	.byte	W08
	.byte		N05   
	.byte	W08
	.byte		N05   
	.byte	W08
	.byte		N12   
	.byte	W48
	.byte	PEND
@ 011   ----------------------------------------
high_tier_map_9_011:
	.byte	W24
	.byte		N05   , As1 , v112
	.byte	W08
	.byte		N05   
	.byte	W08
	.byte		N05   
	.byte	W08
	.byte		N12   
	.byte	W48
	.byte	PEND
@ 012   ----------------------------------------
high_tier_map_9_012:
	.byte	W24
	.byte		N05   , Ds1 , v112
	.byte	W08
	.byte		N05   
	.byte	W08
	.byte		N05   
	.byte	W08
	.byte		N12   
	.byte	W48
	.byte	PEND
@ 013   ----------------------------------------
	.byte	W96
@ 014   ----------------------------------------
	.byte	W96
@ 015   ----------------------------------------
	.byte	W96
@ 016   ----------------------------------------
	.byte	W96
@ 017   ----------------------------------------
high_tier_map_9_017:
	.byte	W24
	.byte		N12   , Dn1 , v112
	.byte	W48
	.byte		N12   
	.byte	W24
	.byte	PEND
@ 018   ----------------------------------------
high_tier_map_9_018:
	.byte	W24
	.byte		N12   , Dn1 , v112
	.byte	W24
	.byte		N12   
	.byte	W48
	.byte	PEND
@ 019   ----------------------------------------
	.byte	W96
@ 020   ----------------------------------------
	.byte	W96
@ 021   ----------------------------------------
	.byte	W96
@ 022   ----------------------------------------
	.byte	W96
@ 023   ----------------------------------------
	.byte	W96
@ 024   ----------------------------------------
	.byte	W96
@ 025   ----------------------------------------
	.byte	W96
@ 026   ----------------------------------------
	.byte	W96
@ 027   ----------------------------------------
high_tier_map_9_027:
	.byte	W24
	.byte		N06   , Cn1 , v100
	.byte	W08
	.byte		N06   
	.byte	W08
	.byte		N06   
	.byte	W08
	.byte		N19   
	.byte	W48
	.byte	PEND
@ 028   ----------------------------------------
high_tier_map_9_028:
	.byte	W24
	.byte		N06   , Fn1 , v100
	.byte	W08
	.byte		N06   
	.byte	W08
	.byte		N06   
	.byte	W08
	.byte		N19   
	.byte	W48
	.byte	PEND
@ 029   ----------------------------------------
high_tier_map_9_029:
	.byte	W24
	.byte		N06   , As0 , v100
	.byte	W08
	.byte		N06   
	.byte	W08
	.byte		N06   
	.byte	W08
	.byte		N19   
	.byte	W48
	.byte	PEND
@ 030   ----------------------------------------
high_tier_map_9_030:
	.byte	W24
	.byte		N06   , Ds1 , v100
	.byte	W08
	.byte		N06   
	.byte	W08
	.byte		N06   
	.byte	W08
	.byte		N19   
	.byte	W48
	.byte	PEND
@ 031   ----------------------------------------
	.byte	W96
@ 032   ----------------------------------------
	.byte	W96
@ 033   ----------------------------------------
	.byte	W96
@ 034   ----------------------------------------
	.byte	W96
@ 035   ----------------------------------------
high_tier_map_9_035:
	.byte	W24
	.byte		N12   , Dn1 , v127
	.byte	W48
	.byte		N12   
	.byte	W24
	.byte	PEND
@ 036   ----------------------------------------
	.byte	W24
	.byte		N12   
	.byte	W24
	.byte		N12   
	.byte	W48
@ 037   ----------------------------------------
	.byte	PATT
	 .word	high_tier_map_9_001
@ 038   ----------------------------------------
	.byte	PATT
	 .word	high_tier_map_9_001
@ 039   ----------------------------------------
	.byte	PATT
	 .word	high_tier_map_9_003
@ 040   ----------------------------------------
	.byte		N09   , Cn2 , v100
	.byte	W96
@ 041   ----------------------------------------
	.byte	PATT
	 .word	high_tier_map_9_005
@ 042   ----------------------------------------
	.byte	PATT
	 .word	high_tier_map_9_006
@ 043   ----------------------------------------
	.byte	PATT
	 .word	high_tier_map_9_007
@ 044   ----------------------------------------
	.byte	PATT
	 .word	high_tier_map_9_008
@ 045   ----------------------------------------
	.byte	PATT
	 .word	high_tier_map_9_009
@ 046   ----------------------------------------
	.byte	PATT
	 .word	high_tier_map_9_010
@ 047   ----------------------------------------
	.byte	PATT
	 .word	high_tier_map_9_011
@ 048   ----------------------------------------
	.byte	PATT
	 .word	high_tier_map_9_012
@ 049   ----------------------------------------
	.byte	W96
@ 050   ----------------------------------------
	.byte	W96
@ 051   ----------------------------------------
	.byte	W96
@ 052   ----------------------------------------
	.byte	W96
@ 053   ----------------------------------------
	.byte	PATT
	 .word	high_tier_map_9_017
@ 054   ----------------------------------------
	.byte	PATT
	 .word	high_tier_map_9_018
@ 055   ----------------------------------------
	.byte	W96
@ 056   ----------------------------------------
	.byte	W96
@ 057   ----------------------------------------
	.byte	W96
@ 058   ----------------------------------------
	.byte	W96
@ 059   ----------------------------------------
	.byte	W96
@ 060   ----------------------------------------
	.byte	W96
@ 061   ----------------------------------------
	.byte	W96
@ 062   ----------------------------------------
	.byte	W96
@ 063   ----------------------------------------
	.byte	PATT
	 .word	high_tier_map_9_027
@ 064   ----------------------------------------
	.byte	PATT
	 .word	high_tier_map_9_028
@ 065   ----------------------------------------
	.byte	PATT
	 .word	high_tier_map_9_029
@ 066   ----------------------------------------
	.byte	PATT
	 .word	high_tier_map_9_030
@ 067   ----------------------------------------
	.byte	W96
@ 068   ----------------------------------------
	.byte	W96
@ 069   ----------------------------------------
	.byte	W96
@ 070   ----------------------------------------
	.byte	W96
@ 071   ----------------------------------------
	.byte	PATT
	 .word	high_tier_map_9_035
@ 072   ----------------------------------------
	.byte	W24
	.byte		N12   , Dn1 , v127
	.byte	W24
	.byte		N12   
	.byte	W12
	.byte	FINE

@**************** Track 10 (Midi-Chn.10) ****************@

high_tier_map_10:
	.byte	KEYSH , high_tier_map_key+0
@ 000   ----------------------------------------
	.byte		VOICE , 48
	.byte		VOL   , 35*high_tier_map_mvl/mxv
	.byte		PAN   , c_v-29
	.byte	W24
@ 001   ----------------------------------------
high_tier_map_10_001:
	.byte		N03   , Cn1 , v112
	.byte		N03   , Dn1 , v100
	.byte		N03   , An2 , v112
	.byte		N03   , Bn2 
	.byte	W16
	.byte		        Dn1 , v100
	.byte	W08
	.byte		N03   
	.byte	W03
	.byte		        Dn1 , v084
	.byte	W03
	.byte		        Dn1 , v076
	.byte	W03
	.byte		        Dn1 , v072
	.byte	W03
	.byte		N03   
	.byte	W03
	.byte		        Dn1 , v068
	.byte	W03
	.byte		N03   
	.byte	W03
	.byte		        Dn1 , v064
	.byte	W03
	.byte		        Dn1 , v100
	.byte	W16
	.byte		N03   
	.byte	W08
	.byte		N03   
	.byte	W03
	.byte		        Dn1 , v084
	.byte	W03
	.byte		        Dn1 , v076
	.byte	W03
	.byte		        Dn1 , v072
	.byte	W03
	.byte		N03   
	.byte	W03
	.byte		        Dn1 , v068
	.byte	W03
	.byte		N03   
	.byte	W03
	.byte		        Dn1 , v064
	.byte	W03
	.byte	PEND
@ 002   ----------------------------------------
high_tier_map_10_002:
	.byte		N03   , Dn1 , v100
	.byte	W16
	.byte		N03   
	.byte	W08
	.byte		N03   
	.byte	W03
	.byte		        Dn1 , v084
	.byte	W03
	.byte		        Dn1 , v076
	.byte	W03
	.byte		        Dn1 , v072
	.byte	W03
	.byte		N03   
	.byte	W03
	.byte		        Dn1 , v068
	.byte	W03
	.byte		N03   
	.byte	W03
	.byte		        Dn1 , v064
	.byte	W03
	.byte		        Dn1 , v100
	.byte	W08
	.byte		N03   
	.byte	W08
	.byte		N03   
	.byte	W08
	.byte		N03   
	.byte	W16
	.byte		N03   
	.byte	W08
	.byte	PEND
@ 003   ----------------------------------------
high_tier_map_10_003:
	.byte		N03   , Dn1 , v100
	.byte	W08
	.byte		N03   
	.byte	W08
	.byte		N03   
	.byte	W08
	.byte		N03   
	.byte	W03
	.byte		        Dn1 , v084
	.byte	W03
	.byte		        Dn1 , v076
	.byte	W03
	.byte		        Dn1 , v072
	.byte	W03
	.byte		N03   
	.byte	W03
	.byte		        Dn1 , v068
	.byte	W03
	.byte		N03   
	.byte	W03
	.byte		        Dn1 , v064
	.byte	W03
	.byte		        Dn1 , v100
	.byte	W08
	.byte		N03   
	.byte	W08
	.byte		N03   
	.byte	W08
	.byte		N03   
	.byte	W08
	.byte		N03   
	.byte	W08
	.byte		N03   
	.byte	W08
	.byte	PEND
@ 004   ----------------------------------------
high_tier_map_10_004:
	.byte		N03   , Cn1 , v112
	.byte		N03   , Dn1 , v100
	.byte		N03   , An2 , v112
	.byte		N03   , Bn2 
	.byte	W96
	.byte	PEND
@ 005   ----------------------------------------
	.byte		        Cn1 
	.byte		N02   , Dn1 , v100
	.byte		N03   , An2 , v112
	.byte		N03   , Bn2 
	.byte	W16
	.byte		N02   , Dn1 , v100
	.byte	W08
	.byte		N02   
	.byte	W03
	.byte		        Dn1 , v084
	.byte	W03
	.byte		        Dn1 , v076
	.byte	W03
	.byte		        Dn1 , v072
	.byte	W03
	.byte		N02   
	.byte	W03
	.byte		        Dn1 , v068
	.byte	W03
	.byte		N02   
	.byte	W03
	.byte		        Dn1 , v064
	.byte	W03
	.byte		        Dn1 , v100
	.byte	W08
	.byte		N02   
	.byte	W08
	.byte		N02   
	.byte	W08
	.byte		N02   
	.byte	W08
	.byte		N02   
	.byte	W08
	.byte		N02   
	.byte	W08
@ 006   ----------------------------------------
high_tier_map_10_006:
	.byte		N02   , Dn1 , v100
	.byte	W16
	.byte		N02   
	.byte	W08
	.byte		N02   
	.byte	W03
	.byte		        Dn1 , v084
	.byte	W03
	.byte		        Dn1 , v076
	.byte	W03
	.byte		        Dn1 , v072
	.byte	W03
	.byte		N02   
	.byte	W03
	.byte		        Dn1 , v068
	.byte	W03
	.byte		N02   
	.byte	W03
	.byte		        Dn1 , v064
	.byte	W03
	.byte		        Dn1 , v100
	.byte	W08
	.byte		N02   
	.byte	W08
	.byte		N02   
	.byte	W08
	.byte		N02   
	.byte	W08
	.byte		N02   
	.byte	W08
	.byte		N02   
	.byte	W08
	.byte	PEND
@ 007   ----------------------------------------
high_tier_map_10_007:
	.byte		N02   , Dn1 , v100
	.byte	W16
	.byte		N02   
	.byte	W08
	.byte		N02   
	.byte	W08
	.byte		N02   
	.byte	W08
	.byte		N02   
	.byte	W08
	.byte		N02   
	.byte	W03
	.byte		        Dn1 , v084
	.byte	W03
	.byte		        Dn1 , v076
	.byte	W03
	.byte		        Dn1 , v072
	.byte	W03
	.byte		N02   
	.byte	W03
	.byte		        Dn1 , v068
	.byte	W03
	.byte		N02   
	.byte	W03
	.byte		        Dn1 , v064
	.byte	W03
	.byte		        Dn1 , v100
	.byte	W08
	.byte		N02   
	.byte	W08
	.byte		N02   
	.byte	W08
	.byte	PEND
@ 008   ----------------------------------------
high_tier_map_10_008:
	.byte		N02   , Dn1 , v100
	.byte	W24
	.byte		        Cn1 , v112
	.byte		N02   , Dn1 , v100
	.byte		N02   , An2 , v112
	.byte		N02   , Bn2 
	.byte	W03
	.byte		        Dn1 , v084
	.byte	W03
	.byte		        Dn1 , v076
	.byte	W03
	.byte		        Dn1 , v072
	.byte	W03
	.byte		N02   
	.byte	W03
	.byte		        Dn1 , v068
	.byte	W03
	.byte		N02   
	.byte	W03
	.byte		        Dn1 , v064
	.byte	W03
	.byte		        Cn1 , v112
	.byte		N02   , Dn1 , v100
	.byte		N02   , An2 , v112
	.byte		N02   , Bn2 
	.byte	W48
	.byte	PEND
@ 009   ----------------------------------------
high_tier_map_10_009:
	.byte	W24
	.byte		N02   , Cn1 , v112
	.byte		N02   , Dn1 , v100
	.byte		N02   , An2 , v112
	.byte		N02   , Bn2 
	.byte	W08
	.byte		        Dn1 , v100
	.byte	W08
	.byte		N02   
	.byte	W08
	.byte		        Cn1 , v112
	.byte		N02   , Dn1 , v100
	.byte		N02   , An2 , v112
	.byte		N02   , Bn2 
	.byte	W48
	.byte	PEND
@ 010   ----------------------------------------
	.byte	PATT
	 .word	high_tier_map_10_009
@ 011   ----------------------------------------
	.byte	PATT
	 .word	high_tier_map_10_009
@ 012   ----------------------------------------
	.byte	PATT
	 .word	high_tier_map_10_009
@ 013   ----------------------------------------
	.byte	W96
@ 014   ----------------------------------------
	.byte	W96
@ 015   ----------------------------------------
	.byte	W96
@ 016   ----------------------------------------
	.byte	W96
@ 017   ----------------------------------------
high_tier_map_10_017:
	.byte	W24
	.byte		N02   , Cn1 , v112
	.byte		N02   , Dn1 , v100
	.byte		N02   , An2 , v112
	.byte		N02   , Bn2 
	.byte	W48
	.byte		        Cn1 
	.byte		N02   , Dn1 , v100
	.byte		N02   , An2 , v112
	.byte		N02   , Bn2 
	.byte	W24
	.byte	PEND
@ 018   ----------------------------------------
high_tier_map_10_018:
	.byte	W24
	.byte		N02   , Cn1 , v112
	.byte		N02   , Dn1 , v100
	.byte		N02   , An2 , v112
	.byte		N02   , Bn2 
	.byte	W24
	.byte		        Cn1 
	.byte		N02   , Dn1 , v100
	.byte		N02   , An2 , v112
	.byte		N02   , Bn2 
	.byte	W48
	.byte	PEND
@ 019   ----------------------------------------
	.byte	W96
@ 020   ----------------------------------------
	.byte	W96
@ 021   ----------------------------------------
	.byte	W96
@ 022   ----------------------------------------
	.byte	W96
@ 023   ----------------------------------------
	.byte	W96
@ 024   ----------------------------------------
	.byte	W96
@ 025   ----------------------------------------
	.byte	W96
@ 026   ----------------------------------------
	.byte	W96
@ 027   ----------------------------------------
	.byte	W96
@ 028   ----------------------------------------
	.byte	W96
@ 029   ----------------------------------------
	.byte	W96
@ 030   ----------------------------------------
	.byte	W96
@ 031   ----------------------------------------
	.byte	W96
@ 032   ----------------------------------------
	.byte	W96
@ 033   ----------------------------------------
	.byte	W96
@ 034   ----------------------------------------
	.byte	W96
@ 035   ----------------------------------------
high_tier_map_10_035:
	.byte		N02   , Dn1 , v100
	.byte	W03
	.byte		        Dn1 , v084
	.byte	W03
	.byte		        Dn1 , v076
	.byte	W03
	.byte		        Dn1 , v072
	.byte	W03
	.byte		N02   
	.byte	W03
	.byte		        Dn1 , v068
	.byte	W03
	.byte		N02   
	.byte	W03
	.byte		        Dn1 , v064
	.byte	W03
	.byte		        Cn1 , v112
	.byte		N02   , Dn1 , v100
	.byte		N02   , An2 , v112
	.byte		N02   , Bn2 
	.byte	W24
	.byte		        Dn1 , v100
	.byte	W03
	.byte		        Dn1 , v084
	.byte	W03
	.byte		        Dn1 , v076
	.byte	W03
	.byte		        Dn1 , v072
	.byte	W03
	.byte		N02   
	.byte	W03
	.byte		        Dn1 , v068
	.byte	W03
	.byte		N02   
	.byte	W03
	.byte		        Dn1 , v064
	.byte	W03
	.byte		        Cn1 , v112
	.byte		N02   , Dn1 , v100
	.byte		N02   , An2 , v112
	.byte		N02   , Bn2 
	.byte	W24
	.byte	PEND
@ 036   ----------------------------------------
	.byte		        Dn1 , v100
	.byte	W03
	.byte		        Dn1 , v084
	.byte	W03
	.byte		        Dn1 , v076
	.byte	W03
	.byte		        Dn1 , v072
	.byte	W03
	.byte		N02   
	.byte	W03
	.byte		        Dn1 , v068
	.byte	W03
	.byte		N02   
	.byte	W03
	.byte		        Dn1 , v064
	.byte	W03
	.byte		        Cn1 , v112
	.byte		N02   , Dn1 , v100
	.byte		N02   , An2 , v112
	.byte		N02   , Bn2 
	.byte	W24
	.byte		        Cn1 
	.byte		N02   , Dn1 , v100
	.byte		N02   , An2 , v112
	.byte		N02   , Bn2 
	.byte	W48
@ 037   ----------------------------------------
	.byte	PATT
	 .word	high_tier_map_10_001
@ 038   ----------------------------------------
	.byte	PATT
	 .word	high_tier_map_10_002
@ 039   ----------------------------------------
	.byte	PATT
	 .word	high_tier_map_10_003
@ 040   ----------------------------------------
	.byte	PATT
	 .word	high_tier_map_10_004
@ 041   ----------------------------------------
	.byte		N02   , Cn1 , v112
	.byte		N02   , Dn1 , v100
	.byte		N02   , An2 , v112
	.byte		N02   , Bn2 
	.byte	W16
	.byte		        Dn1 , v100
	.byte	W08
	.byte		N02   
	.byte	W03
	.byte		        Dn1 , v084
	.byte	W03
	.byte		        Dn1 , v076
	.byte	W03
	.byte		        Dn1 , v072
	.byte	W03
	.byte		N02   
	.byte	W03
	.byte		        Dn1 , v068
	.byte	W03
	.byte		N02   
	.byte	W03
	.byte		        Dn1 , v064
	.byte	W03
	.byte		        Dn1 , v100
	.byte	W08
	.byte		N02   
	.byte	W08
	.byte		N02   
	.byte	W08
	.byte		N02   
	.byte	W08
	.byte		N02   
	.byte	W08
	.byte		N02   
	.byte	W08
@ 042   ----------------------------------------
	.byte	PATT
	 .word	high_tier_map_10_006
@ 043   ----------------------------------------
	.byte	PATT
	 .word	high_tier_map_10_007
@ 044   ----------------------------------------
	.byte	PATT
	 .word	high_tier_map_10_008
@ 045   ----------------------------------------
	.byte	PATT
	 .word	high_tier_map_10_009
@ 046   ----------------------------------------
	.byte	PATT
	 .word	high_tier_map_10_009
@ 047   ----------------------------------------
	.byte	PATT
	 .word	high_tier_map_10_009
@ 048   ----------------------------------------
	.byte	PATT
	 .word	high_tier_map_10_009
@ 049   ----------------------------------------
	.byte	W96
@ 050   ----------------------------------------
	.byte	W96
@ 051   ----------------------------------------
	.byte	W96
@ 052   ----------------------------------------
	.byte	W96
@ 053   ----------------------------------------
	.byte	PATT
	 .word	high_tier_map_10_017
@ 054   ----------------------------------------
	.byte	PATT
	 .word	high_tier_map_10_018
@ 055   ----------------------------------------
	.byte	W96
@ 056   ----------------------------------------
	.byte	W96
@ 057   ----------------------------------------
	.byte	W96
@ 058   ----------------------------------------
	.byte	W96
@ 059   ----------------------------------------
	.byte	W96
@ 060   ----------------------------------------
	.byte	W96
@ 061   ----------------------------------------
	.byte	W96
@ 062   ----------------------------------------
	.byte	W96
@ 063   ----------------------------------------
	.byte	W96
@ 064   ----------------------------------------
	.byte	W96
@ 065   ----------------------------------------
	.byte	W96
@ 066   ----------------------------------------
	.byte	W96
@ 067   ----------------------------------------
	.byte	W96
@ 068   ----------------------------------------
	.byte	W96
@ 069   ----------------------------------------
	.byte	W96
@ 070   ----------------------------------------
	.byte	W96
@ 071   ----------------------------------------
	.byte	PATT
	 .word	high_tier_map_10_035
@ 072   ----------------------------------------
	.byte		N02   , Dn1 , v100
	.byte	W03
	.byte		        Dn1 , v084
	.byte	W03
	.byte		        Dn1 , v076
	.byte	W03
	.byte		        Dn1 , v072
	.byte	W03
	.byte		N02   
	.byte	W03
	.byte		        Dn1 , v068
	.byte	W03
	.byte		N02   
	.byte	W03
	.byte		        Dn1 , v064
	.byte	W03
	.byte		        Cn1 , v112
	.byte		N02   , Dn1 , v100
	.byte		N02   , An2 , v112
	.byte		N02   , Bn2 
	.byte	W24
	.byte		        Cn1 
	.byte		N02   , Dn1 , v100
	.byte		N02   , An2 , v112
	.byte		N02   , Bn2 
	.byte	W02
	.byte	FINE

@**************** Track 11 (Midi-Chn.11) ****************@

high_tier_map_11:
	.byte	KEYSH , high_tier_map_key+0
@ 000   ----------------------------------------
	.byte		VOICE , 58
	.byte		VOL   , 35*high_tier_map_mvl/mxv
	.byte		PAN   , c_v-29
	.byte	W24
@ 001   ----------------------------------------
high_tier_map_11_001:
	.byte		N19   , Gn0 , v100
	.byte	W24
	.byte		        Gn1 
	.byte	W24
	.byte		        Fs1 
	.byte	W24
	.byte		        Fs0 
	.byte	W24
	.byte	PEND
@ 002   ----------------------------------------
	.byte	PATT
	 .word	high_tier_map_11_001
@ 003   ----------------------------------------
high_tier_map_11_003:
	.byte		N19   , Gn0 , v100
	.byte	W24
	.byte		        An0 
	.byte	W24
	.byte		        Bn0 
	.byte	W24
	.byte		        Gn0 
	.byte	W24
	.byte	PEND
@ 004   ----------------------------------------
	.byte		N09   , Cn1 
	.byte	W96
@ 005   ----------------------------------------
high_tier_map_11_005:
	.byte		N19   , Gn1 , v100
	.byte	W24
	.byte		        Cn1 
	.byte	W24
	.byte		N19   
	.byte	W24
	.byte		        Dn1 
	.byte	W24
	.byte	PEND
@ 006   ----------------------------------------
high_tier_map_11_006:
	.byte		N19   , Gn1 , v100
	.byte	W24
	.byte		N19   
	.byte	W24
	.byte		        Fn1 
	.byte	W24
	.byte		N19   
	.byte	W24
	.byte	PEND
@ 007   ----------------------------------------
high_tier_map_11_007:
	.byte		N19   , En1 , v100
	.byte	W24
	.byte		N19   
	.byte	W24
	.byte		        Cn1 
	.byte	W24
	.byte		N19   
	.byte	W24
	.byte	PEND
@ 008   ----------------------------------------
high_tier_map_11_008:
	.byte		N19   , Fn1 , v100
	.byte	W24
	.byte		N19   
	.byte	W24
	.byte		        Fs1 
	.byte	W24
	.byte		        Dn1 
	.byte	W24
	.byte	PEND
@ 009   ----------------------------------------
high_tier_map_11_009:
	.byte	W24
	.byte		N05   , Cn1 , v112
	.byte	W08
	.byte		N05   
	.byte	W08
	.byte		N05   
	.byte	W08
	.byte		N12   
	.byte	W48
	.byte	PEND
@ 010   ----------------------------------------
high_tier_map_11_010:
	.byte	W24
	.byte		N05   , Fn0 , v112
	.byte	W08
	.byte		N05   
	.byte	W08
	.byte		N05   
	.byte	W08
	.byte		N12   
	.byte	W48
	.byte	PEND
@ 011   ----------------------------------------
high_tier_map_11_011:
	.byte	W24
	.byte		N05   , As0 , v112
	.byte	W08
	.byte		N05   
	.byte	W08
	.byte		N05   
	.byte	W08
	.byte		N12   
	.byte	W48
	.byte	PEND
@ 012   ----------------------------------------
high_tier_map_11_012:
	.byte	W24
	.byte		N05   , Ds0 , v112
	.byte	W08
	.byte		N05   
	.byte	W08
	.byte		N05   
	.byte	W08
	.byte		N12   
	.byte	W48
	.byte	PEND
@ 013   ----------------------------------------
	.byte	W96
@ 014   ----------------------------------------
	.byte	W96
@ 015   ----------------------------------------
	.byte	W96
@ 016   ----------------------------------------
	.byte	W96
@ 017   ----------------------------------------
high_tier_map_11_017:
	.byte	W24
	.byte		N12   , Dn1 , v112
	.byte	W48
	.byte		N12   
	.byte	W24
	.byte	PEND
@ 018   ----------------------------------------
high_tier_map_11_018:
	.byte	W24
	.byte		N12   , Dn1 , v112
	.byte	W24
	.byte		N12   
	.byte	W48
	.byte	PEND
@ 019   ----------------------------------------
	.byte	W96
@ 020   ----------------------------------------
	.byte	W96
@ 021   ----------------------------------------
	.byte	W96
@ 022   ----------------------------------------
	.byte	W96
@ 023   ----------------------------------------
	.byte	W96
@ 024   ----------------------------------------
	.byte	W96
@ 025   ----------------------------------------
	.byte	W96
@ 026   ----------------------------------------
	.byte	W96
@ 027   ----------------------------------------
high_tier_map_11_027:
	.byte	W24
	.byte		N06   , Cn1 , v100
	.byte	W08
	.byte		N06   
	.byte	W08
	.byte		N06   
	.byte	W08
	.byte		N19   
	.byte	W48
	.byte	PEND
@ 028   ----------------------------------------
high_tier_map_11_028:
	.byte	W24
	.byte		N06   , Fn1 , v100
	.byte	W08
	.byte		N06   
	.byte	W08
	.byte		N06   
	.byte	W08
	.byte		N19   
	.byte	W48
	.byte	PEND
@ 029   ----------------------------------------
high_tier_map_11_029:
	.byte	W24
	.byte		N06   , As0 , v100
	.byte	W08
	.byte		N06   
	.byte	W08
	.byte		N06   
	.byte	W08
	.byte		N19   
	.byte	W48
	.byte	PEND
@ 030   ----------------------------------------
high_tier_map_11_030:
	.byte	W24
	.byte		N06   , Ds1 , v100
	.byte	W08
	.byte		N06   
	.byte	W08
	.byte		N06   
	.byte	W08
	.byte		N19   
	.byte	W48
	.byte	PEND
@ 031   ----------------------------------------
	.byte	W96
@ 032   ----------------------------------------
	.byte	W96
@ 033   ----------------------------------------
	.byte	W96
@ 034   ----------------------------------------
	.byte	W96
@ 035   ----------------------------------------
high_tier_map_11_035:
	.byte	W24
	.byte		N12   , Dn1 , v127
	.byte	W48
	.byte		N12   
	.byte	W24
	.byte	PEND
@ 036   ----------------------------------------
	.byte	W24
	.byte		N12   
	.byte	W24
	.byte		N12   
	.byte	W48
@ 037   ----------------------------------------
	.byte	PATT
	 .word	high_tier_map_11_001
@ 038   ----------------------------------------
	.byte	PATT
	 .word	high_tier_map_11_001
@ 039   ----------------------------------------
	.byte	PATT
	 .word	high_tier_map_11_003
@ 040   ----------------------------------------
	.byte		N09   , Cn1 , v100
	.byte	W96
@ 041   ----------------------------------------
	.byte	PATT
	 .word	high_tier_map_11_005
@ 042   ----------------------------------------
	.byte	PATT
	 .word	high_tier_map_11_006
@ 043   ----------------------------------------
	.byte	PATT
	 .word	high_tier_map_11_007
@ 044   ----------------------------------------
	.byte	PATT
	 .word	high_tier_map_11_008
@ 045   ----------------------------------------
	.byte	PATT
	 .word	high_tier_map_11_009
@ 046   ----------------------------------------
	.byte	PATT
	 .word	high_tier_map_11_010
@ 047   ----------------------------------------
	.byte	PATT
	 .word	high_tier_map_11_011
@ 048   ----------------------------------------
	.byte	PATT
	 .word	high_tier_map_11_012
@ 049   ----------------------------------------
	.byte	W96
@ 050   ----------------------------------------
	.byte	W96
@ 051   ----------------------------------------
	.byte	W96
@ 052   ----------------------------------------
	.byte	W96
@ 053   ----------------------------------------
	.byte	PATT
	 .word	high_tier_map_11_017
@ 054   ----------------------------------------
	.byte	PATT
	 .word	high_tier_map_11_018
@ 055   ----------------------------------------
	.byte	W96
@ 056   ----------------------------------------
	.byte	W96
@ 057   ----------------------------------------
	.byte	W96
@ 058   ----------------------------------------
	.byte	W96
@ 059   ----------------------------------------
	.byte	W96
@ 060   ----------------------------------------
	.byte	W96
@ 061   ----------------------------------------
	.byte	W96
@ 062   ----------------------------------------
	.byte	W96
@ 063   ----------------------------------------
	.byte	PATT
	 .word	high_tier_map_11_027
@ 064   ----------------------------------------
	.byte	PATT
	 .word	high_tier_map_11_028
@ 065   ----------------------------------------
	.byte	PATT
	 .word	high_tier_map_11_029
@ 066   ----------------------------------------
	.byte	PATT
	 .word	high_tier_map_11_030
@ 067   ----------------------------------------
	.byte	W96
@ 068   ----------------------------------------
	.byte	W96
@ 069   ----------------------------------------
	.byte	W96
@ 070   ----------------------------------------
	.byte	W96
@ 071   ----------------------------------------
	.byte	PATT
	 .word	high_tier_map_11_035
@ 072   ----------------------------------------
	.byte	W24
	.byte		N12   , Dn1 , v127
	.byte	W24
	.byte		N12   
	.byte	W12
	.byte	FINE

@**************** Track 12 (Midi-Chn.13) ****************@

high_tier_map_12:
	.byte	KEYSH , high_tier_map_key+0
@ 000   ----------------------------------------
	.byte		VOICE , 47
	.byte		VOL   , 35*high_tier_map_mvl/mxv
	.byte		PAN   , c_v-29
	.byte	W24
@ 001   ----------------------------------------
	.byte		N96   , Gn1 , v127
	.byte	W96
@ 002   ----------------------------------------
	.byte	W96
@ 003   ----------------------------------------
	.byte	W96
@ 004   ----------------------------------------
	.byte		        Cn1 
	.byte	W96
@ 005   ----------------------------------------
	.byte	W96
@ 006   ----------------------------------------
	.byte	W96
@ 007   ----------------------------------------
	.byte	W96
@ 008   ----------------------------------------
high_tier_map_12_008:
	.byte	W24
	.byte		N03   , Fs1 , v076
	.byte	W03
	.byte		        Fs1 , v084
	.byte	W03
	.byte		        Fs1 , v088
	.byte	W03
	.byte		        Fs1 , v096
	.byte	W03
	.byte		        Fs1 , v104
	.byte	W03
	.byte		        Fs1 , v108
	.byte	W03
	.byte		        Fs1 , v116
	.byte	W03
	.byte		        Fs1 , v120
	.byte	W03
	.byte		N24   , Fs1 , v127
	.byte	W48
	.byte	PEND
@ 009   ----------------------------------------
high_tier_map_12_009:
	.byte	W24
	.byte		N24   , Cn1 , v127
	.byte	W24
	.byte		N24   
	.byte	W48
	.byte	PEND
@ 010   ----------------------------------------
high_tier_map_12_010:
	.byte	W24
	.byte		N24   , Fn1 , v127
	.byte	W24
	.byte		N24   
	.byte	W48
	.byte	PEND
@ 011   ----------------------------------------
high_tier_map_12_011:
	.byte	W24
	.byte		N24   , As0 , v127
	.byte	W24
	.byte		N24   
	.byte	W48
	.byte	PEND
@ 012   ----------------------------------------
high_tier_map_12_012:
	.byte	W24
	.byte		N24   , Ds1 , v127
	.byte	W24
	.byte		N24   
	.byte	W48
	.byte	PEND
@ 013   ----------------------------------------
	.byte	W96
@ 014   ----------------------------------------
	.byte	W96
@ 015   ----------------------------------------
	.byte	W96
@ 016   ----------------------------------------
	.byte	W96
@ 017   ----------------------------------------
high_tier_map_12_017:
	.byte	W24
	.byte		N48   , Dn1 , v127
	.byte	W48
	.byte		N48   
	.byte	W24
	.byte	PEND
@ 018   ----------------------------------------
high_tier_map_12_018:
	.byte	W24
	.byte		N03   , Dn1 , v076
	.byte	W03
	.byte		        Dn1 , v084
	.byte	W03
	.byte		        Dn1 , v088
	.byte	W03
	.byte		        Dn1 , v096
	.byte	W03
	.byte		        Dn1 , v104
	.byte	W03
	.byte		        Dn1 , v108
	.byte	W03
	.byte		        Dn1 , v116
	.byte	W03
	.byte		        Dn1 , v120
	.byte	W03
	.byte		N24   , Dn1 , v127
	.byte	W48
	.byte	PEND
@ 019   ----------------------------------------
	.byte	W96
@ 020   ----------------------------------------
	.byte	W96
@ 021   ----------------------------------------
	.byte	W96
@ 022   ----------------------------------------
	.byte	W96
@ 023   ----------------------------------------
	.byte	W96
@ 024   ----------------------------------------
	.byte	W96
@ 025   ----------------------------------------
	.byte	W96
@ 026   ----------------------------------------
	.byte	W96
@ 027   ----------------------------------------
	.byte	W96
@ 028   ----------------------------------------
	.byte	W96
@ 029   ----------------------------------------
	.byte	W96
@ 030   ----------------------------------------
	.byte	W96
@ 031   ----------------------------------------
	.byte	W96
@ 032   ----------------------------------------
	.byte	W96
@ 033   ----------------------------------------
	.byte	W96
@ 034   ----------------------------------------
	.byte	W96
@ 035   ----------------------------------------
	.byte	PATT
	 .word	high_tier_map_12_017
@ 036   ----------------------------------------
	.byte	W24
	.byte		N24   , Dn1 , v127
	.byte	W24
	.byte		N24   
	.byte	W48
@ 037   ----------------------------------------
	.byte		N96   , Gn1 
	.byte	W96
@ 038   ----------------------------------------
	.byte	W96
@ 039   ----------------------------------------
	.byte	W96
@ 040   ----------------------------------------
	.byte		        Cn1 
	.byte	W96
@ 041   ----------------------------------------
	.byte	W96
@ 042   ----------------------------------------
	.byte	W96
@ 043   ----------------------------------------
	.byte	W96
@ 044   ----------------------------------------
	.byte	PATT
	 .word	high_tier_map_12_008
@ 045   ----------------------------------------
	.byte	PATT
	 .word	high_tier_map_12_009
@ 046   ----------------------------------------
	.byte	PATT
	 .word	high_tier_map_12_010
@ 047   ----------------------------------------
	.byte	PATT
	 .word	high_tier_map_12_011
@ 048   ----------------------------------------
	.byte	PATT
	 .word	high_tier_map_12_012
@ 049   ----------------------------------------
	.byte	W96
@ 050   ----------------------------------------
	.byte	W96
@ 051   ----------------------------------------
	.byte	W96
@ 052   ----------------------------------------
	.byte	W96
@ 053   ----------------------------------------
	.byte	PATT
	 .word	high_tier_map_12_017
@ 054   ----------------------------------------
	.byte	PATT
	 .word	high_tier_map_12_018
@ 055   ----------------------------------------
	.byte	W96
@ 056   ----------------------------------------
	.byte	W96
@ 057   ----------------------------------------
	.byte	W96
@ 058   ----------------------------------------
	.byte	W96
@ 059   ----------------------------------------
	.byte	W96
@ 060   ----------------------------------------
	.byte	W96
@ 061   ----------------------------------------
	.byte	W96
@ 062   ----------------------------------------
	.byte	W96
@ 063   ----------------------------------------
	.byte	W96
@ 064   ----------------------------------------
	.byte	W96
@ 065   ----------------------------------------
	.byte	W96
@ 066   ----------------------------------------
	.byte	W96
@ 067   ----------------------------------------
	.byte	W96
@ 068   ----------------------------------------
	.byte	W96
@ 069   ----------------------------------------
	.byte	W96
@ 070   ----------------------------------------
	.byte	W96
@ 071   ----------------------------------------
	.byte	PATT
	 .word	high_tier_map_12_017
@ 072   ----------------------------------------
	.byte	W24
	.byte		N24   , Dn1 , v127
	.byte	W24
	.byte		N24   
	.byte	W24
	.byte	FINE

@**************** Track 13 (Midi-Chn.14) ****************@

high_tier_map_13:
	.byte	KEYSH , high_tier_map_key+0
@ 000   ----------------------------------------
	.byte		VOICE , 48
	.byte		VOL   , 35*high_tier_map_mvl/mxv
	.byte		PAN   , c_v-29
	.byte	W24
@ 001   ----------------------------------------
	.byte	W96
@ 002   ----------------------------------------
	.byte	W96
@ 003   ----------------------------------------
	.byte	W96
@ 004   ----------------------------------------
	.byte	W96
@ 005   ----------------------------------------
	.byte	W96
@ 006   ----------------------------------------
	.byte	W96
@ 007   ----------------------------------------
	.byte	W96
@ 008   ----------------------------------------
	.byte	W96
@ 009   ----------------------------------------
	.byte	W96
@ 010   ----------------------------------------
	.byte	W96
@ 011   ----------------------------------------
	.byte	W96
@ 012   ----------------------------------------
	.byte	W96
@ 013   ----------------------------------------
	.byte	W96
@ 014   ----------------------------------------
	.byte	W96
@ 015   ----------------------------------------
	.byte	W96
@ 016   ----------------------------------------
	.byte	W96
@ 017   ----------------------------------------
	.byte	W96
@ 018   ----------------------------------------
high_tier_map_13_018:
	.byte	W48
	.byte		N03   , As1 , v112
	.byte		N03   , En2 
	.byte	W03
	.byte		        Cn2 
	.byte		N03   , Fs2 
	.byte	W03
	.byte		        Dn2 
	.byte		N03   , Gn2 
	.byte	W03
	.byte		        En2 
	.byte		N03   , An2 
	.byte	W03
	.byte		        Fs2 
	.byte		N03   , As2 
	.byte	W03
	.byte		        Gn2 
	.byte		N03   , Cn3 
	.byte	W03
	.byte		        An2 
	.byte		N03   , Dn3 
	.byte	W03
	.byte		        As2 
	.byte		N03   , En3 
	.byte	W03
	.byte		        Cn3 
	.byte		N03   , Fs3 
	.byte	W03
	.byte		        Dn3 
	.byte		N03   , Gn3 
	.byte	W03
	.byte		        En3 
	.byte		N03   , An3 
	.byte	W03
	.byte		        Fs3 
	.byte		N03   , As3 
	.byte	W03
	.byte		        Gn3 
	.byte		N03   , Cn4 
	.byte	W03
	.byte		        An3 
	.byte		N03   , Dn4 
	.byte	W03
	.byte		        As3 
	.byte		N03   , En4 
	.byte	W03
	.byte		        Cn4 
	.byte		N03   , Fs4 
	.byte	W03
	.byte	PEND
@ 019   ----------------------------------------
high_tier_map_13_019:
	.byte		N36   , Gn4 , v112
	.byte	W36
	.byte		N06   , Cn4 
	.byte		N06   , An4 
	.byte	W06
	.byte		        Dn4 
	.byte		N06   , As4 
	.byte	W06
	.byte		N36   , Cn4 
	.byte		N36   , An4 
	.byte	W36
	.byte		N06   , Dn4 
	.byte		N06   , As4 
	.byte	W06
	.byte		        Ds4 
	.byte		N06   , Cn5 
	.byte	W06
	.byte	PEND
@ 020   ----------------------------------------
	.byte		N36   , Dn4 
	.byte		N36   , As4 
	.byte	W36
	.byte		N06   , Cn4 
	.byte		N06   , An4 
	.byte	W06
	.byte		        As3 
	.byte		N06   , Gn4 
	.byte	W06
	.byte		N18   , Cn4 
	.byte		N18   , An4 
	.byte	W24
	.byte		N24   , Dn4 
	.byte	W24
@ 021   ----------------------------------------
high_tier_map_13_021:
	.byte		N08   , Bn3 , v112
	.byte		N08   , Gn4 
	.byte	W08
	.byte		        Dn4 
	.byte		N08   , Bn4 
	.byte	W08
	.byte		        Fn4 
	.byte		N08   , Dn5 
	.byte	W08
	.byte		N48   , Bn4 
	.byte		N48   , Fn5 
	.byte	W48
	.byte		N08   , Gs4 
	.byte		N08   , Fn5 
	.byte	W08
	.byte		        Gn4 
	.byte		N08   , Ds5 
	.byte	W08
	.byte		        Fn4 
	.byte		N08   , Dn5 
	.byte	W08
	.byte	PEND
@ 022   ----------------------------------------
high_tier_map_13_022:
	.byte		N60   , Ds4 , v112
	.byte		N60   , Cn5 
	.byte	W72
	.byte		N16   , Ds4 
	.byte		N16   , Cn5 
	.byte	W16
	.byte		N08   , Fn4 
	.byte		N08   , Dn5 
	.byte	W08
	.byte	PEND
@ 023   ----------------------------------------
	.byte		N72   , Ds5 
	.byte	W72
	.byte		N08   , An4 
	.byte	W08
	.byte		        Dn5 
	.byte	W08
	.byte		        Cn5 
	.byte	W08
@ 024   ----------------------------------------
	.byte		N66   , As4 
	.byte	W72
	.byte		N16   , Dn4 
	.byte		N16   , As4 
	.byte	W16
	.byte		N08   , Fn4 
	.byte		N08   , Dn5 
	.byte	W08
@ 025   ----------------------------------------
	.byte		N24   , Cn5 
	.byte	W24
	.byte		N48   , As3 
	.byte	W48
	.byte		N24   , Dn4 
	.byte		N24   , As4 
	.byte	W24
@ 026   ----------------------------------------
high_tier_map_13_026:
	.byte		N66   , Cn4 , v112
	.byte		N48   , As4 
	.byte	W48
	.byte		N18   , An4 
	.byte	W48
	.byte	PEND
@ 027   ----------------------------------------
high_tier_map_13_027:
	.byte	W12
	.byte		N03   , Gn3 , v092
	.byte	W03
	.byte		        An3 
	.byte	W03
	.byte		        As3 
	.byte	W03
	.byte		        Cn4 
	.byte	W03
	.byte		        Dn4 
	.byte	W03
	.byte		        Ds4 
	.byte	W03
	.byte		        Fn4 , v096
	.byte	W03
	.byte		        Gn4 , v100
	.byte	W03
	.byte		        An4 , v104
	.byte	W03
	.byte		        As4 , v108
	.byte	W03
	.byte		        Cn5 , v112
	.byte	W03
	.byte		        Dn5 , v116
	.byte	W03
	.byte		N24   , Ds5 , v120
	.byte	W48
	.byte	PEND
@ 028   ----------------------------------------
high_tier_map_13_028:
	.byte	W12
	.byte		N03   , Cn3 , v092
	.byte	W03
	.byte		        Dn3 
	.byte	W03
	.byte		        Ds3 
	.byte	W03
	.byte		        Fn3 
	.byte	W03
	.byte		        Gn3 
	.byte	W03
	.byte		        An3 
	.byte	W03
	.byte		        As3 , v096
	.byte	W03
	.byte		        Cn4 , v100
	.byte	W03
	.byte		        Dn4 , v104
	.byte	W03
	.byte		        Ds4 , v108
	.byte	W03
	.byte		        Fn4 , v112
	.byte	W03
	.byte		        Gn4 , v116
	.byte	W03
	.byte		N24   , An4 , v120
	.byte	W48
	.byte	PEND
@ 029   ----------------------------------------
high_tier_map_13_029:
	.byte	W12
	.byte		N03   , Fn3 , v092
	.byte	W03
	.byte		        Gn3 
	.byte	W03
	.byte		        An3 
	.byte	W03
	.byte		        As3 
	.byte	W03
	.byte		        Cn4 
	.byte	W03
	.byte		        Dn4 
	.byte	W03
	.byte		        Ds4 , v096
	.byte	W03
	.byte		        Fn4 , v100
	.byte	W03
	.byte		        Gn4 , v104
	.byte	W03
	.byte		        An4 , v108
	.byte	W03
	.byte		        As4 , v112
	.byte	W03
	.byte		        Cn5 , v116
	.byte	W03
	.byte		N24   , Dn5 , v120
	.byte	W48
	.byte	PEND
@ 030   ----------------------------------------
high_tier_map_13_030:
	.byte	W12
	.byte		N03   , As3 , v092
	.byte	W03
	.byte		        Cn4 
	.byte	W03
	.byte		        Dn4 
	.byte	W03
	.byte		        Ds4 
	.byte	W03
	.byte		        Fn4 
	.byte	W03
	.byte		        Gn4 
	.byte	W03
	.byte		        An4 , v096
	.byte	W03
	.byte		        As4 , v100
	.byte	W03
	.byte		        Cn5 , v104
	.byte	W03
	.byte		        Dn5 , v108
	.byte	W03
	.byte		        Ds5 , v112
	.byte	W03
	.byte		        Fn5 , v116
	.byte	W03
	.byte		N16   , Gn5 , v120
	.byte	W48
	.byte	PEND
@ 031   ----------------------------------------
high_tier_map_13_031:
	.byte		N48   , Gn3 , v080
	.byte	W48
	.byte		        Fs3 
	.byte	W48
	.byte	PEND
@ 032   ----------------------------------------
high_tier_map_13_032:
	.byte		N48   , Fn3 , v080
	.byte	W48
	.byte		        En3 
	.byte	W48
	.byte	PEND
@ 033   ----------------------------------------
high_tier_map_13_033:
	.byte		N48   , Ds3 , v080
	.byte	W48
	.byte		        Dn3 
	.byte	W48
	.byte	PEND
@ 034   ----------------------------------------
high_tier_map_13_034:
	.byte		N48   , Cs3 , v080
	.byte	W48
	.byte		        Cn3 
	.byte	W48
	.byte	PEND
@ 035   ----------------------------------------
	.byte	W96
@ 036   ----------------------------------------
	.byte	W96
@ 037   ----------------------------------------
	.byte	W96
@ 038   ----------------------------------------
	.byte	W96
@ 039   ----------------------------------------
	.byte	W96
@ 040   ----------------------------------------
	.byte	W96
@ 041   ----------------------------------------
	.byte	W96
@ 042   ----------------------------------------
	.byte	W96
@ 043   ----------------------------------------
	.byte	W96
@ 044   ----------------------------------------
	.byte	W96
@ 045   ----------------------------------------
	.byte	W96
@ 046   ----------------------------------------
	.byte	W96
@ 047   ----------------------------------------
	.byte	W96
@ 048   ----------------------------------------
	.byte	W96
@ 049   ----------------------------------------
	.byte	W96
@ 050   ----------------------------------------
	.byte	W96
@ 051   ----------------------------------------
	.byte	W96
@ 052   ----------------------------------------
	.byte	W96
@ 053   ----------------------------------------
	.byte	W96
@ 054   ----------------------------------------
	.byte	PATT
	 .word	high_tier_map_13_018
@ 055   ----------------------------------------
	.byte	PATT
	 .word	high_tier_map_13_019
@ 056   ----------------------------------------
	.byte		N36   , Dn4 , v112
	.byte		N36   , As4 
	.byte	W36
	.byte		N06   , Cn4 
	.byte		N06   , An4 
	.byte	W06
	.byte		        Gn4 
	.byte	W06
	.byte		N18   , Cn4 
	.byte		N18   , An4 
	.byte	W24
	.byte		N24   , Dn4 
	.byte	W24
@ 057   ----------------------------------------
	.byte	PATT
	 .word	high_tier_map_13_021
@ 058   ----------------------------------------
	.byte	PATT
	 .word	high_tier_map_13_022
@ 059   ----------------------------------------
	.byte		N72   , Gn4 , v112
	.byte		N72   , Ds5 
	.byte	W72
	.byte		N24   , Fs4 
	.byte		N08   , An4 
	.byte	W08
	.byte		        Dn5 
	.byte	W08
	.byte		        Cn5 
	.byte	W08
@ 060   ----------------------------------------
	.byte		N24   , Gn4 
	.byte		N66   , As4 
	.byte	W24
	.byte		N24   , Fs4 , v100
	.byte	W24
	.byte		N18   , Fn4 , v112
	.byte	W24
	.byte		N16   , Dn4 
	.byte		N16   , As4 
	.byte	W16
	.byte		N08   , Fn4 
	.byte		N08   , Dn5 
	.byte	W08
@ 061   ----------------------------------------
	.byte		N24   , Gn4 
	.byte		N24   , Cn5 
	.byte	W24
	.byte		N48   , As3 
	.byte		N48   , Gn4 
	.byte	W48
	.byte		N24   , Dn4 
	.byte		N24   , As4 
	.byte	W24
@ 062   ----------------------------------------
	.byte	PATT
	 .word	high_tier_map_13_026
@ 063   ----------------------------------------
	.byte	PATT
	 .word	high_tier_map_13_027
@ 064   ----------------------------------------
	.byte	PATT
	 .word	high_tier_map_13_028
@ 065   ----------------------------------------
	.byte	PATT
	 .word	high_tier_map_13_029
@ 066   ----------------------------------------
	.byte	PATT
	 .word	high_tier_map_13_030
@ 067   ----------------------------------------
	.byte	PATT
	 .word	high_tier_map_13_031
@ 068   ----------------------------------------
	.byte	PATT
	 .word	high_tier_map_13_032
@ 069   ----------------------------------------
	.byte	PATT
	 .word	high_tier_map_13_033
@ 070   ----------------------------------------
	.byte	PATT
	 .word	high_tier_map_13_034
@ 071   ----------------------------------------
	.byte	W96
@ 072   ----------------------------------------
	.byte	W60
	.byte	FINE

@**************** Track 14 (Midi-Chn.15) ****************@

high_tier_map_14:
	.byte	KEYSH , high_tier_map_key+0
@ 000   ----------------------------------------
	.byte		VOICE , 48
	.byte		VOL   , 35*high_tier_map_mvl/mxv
	.byte		PAN   , c_v-29
	.byte	W24
@ 001   ----------------------------------------
	.byte	W96
@ 002   ----------------------------------------
	.byte	W96
@ 003   ----------------------------------------
	.byte	W96
@ 004   ----------------------------------------
	.byte	W96
@ 005   ----------------------------------------
	.byte	W96
@ 006   ----------------------------------------
	.byte	W96
@ 007   ----------------------------------------
	.byte	W96
@ 008   ----------------------------------------
	.byte	W96
@ 009   ----------------------------------------
	.byte	W96
@ 010   ----------------------------------------
	.byte	W96
@ 011   ----------------------------------------
	.byte	W96
@ 012   ----------------------------------------
	.byte	W96
@ 013   ----------------------------------------
	.byte	W96
@ 014   ----------------------------------------
	.byte	W96
@ 015   ----------------------------------------
	.byte	W96
@ 016   ----------------------------------------
	.byte	W96
@ 017   ----------------------------------------
	.byte	W96
@ 018   ----------------------------------------
	.byte	W96
@ 019   ----------------------------------------
high_tier_map_14_019:
	.byte		N48   , Dn3 , v100
	.byte	W48
	.byte		N48   
	.byte	W48
	.byte	PEND
@ 020   ----------------------------------------
	.byte	PATT
	 .word	high_tier_map_14_019
@ 021   ----------------------------------------
	.byte	PATT
	 .word	high_tier_map_14_019
@ 022   ----------------------------------------
	.byte	W96
@ 023   ----------------------------------------
high_tier_map_14_023:
	.byte		N48   , Cn3 , v100
	.byte		N48   , Gn3 
	.byte	W48
	.byte		N24   , Ds3 
	.byte		N24   , Gn3 
	.byte	W24
	.byte		        Dn3 
	.byte		N24   , An3 
	.byte	W24
	.byte	PEND
@ 024   ----------------------------------------
high_tier_map_14_024:
	.byte		N72   , Dn3 , v100
	.byte		N72   , Gn3 
	.byte	W72
	.byte		N24   , Dn3 
	.byte		N24   , Fn3 
	.byte	W24
	.byte	PEND
@ 025   ----------------------------------------
high_tier_map_14_025:
	.byte		N48   , Cn3 , v100
	.byte		N48   , Gn3 
	.byte	W48
	.byte		        As2 
	.byte		N48   , Gn3 
	.byte	W48
	.byte	PEND
@ 026   ----------------------------------------
high_tier_map_14_026:
	.byte		N48   , Cn3 , v100
	.byte		N48   , Fn3 
	.byte	W48
	.byte		N18   , Dn3 
	.byte		N18   , Fs3 
	.byte	W48
	.byte	PEND
@ 027   ----------------------------------------
high_tier_map_14_027:
	.byte	W12
	.byte		N03   , Ds3 , v092
	.byte	W03
	.byte		        Fn3 
	.byte	W03
	.byte		        Gn3 
	.byte	W03
	.byte		        An3 
	.byte	W03
	.byte		        As3 
	.byte	W03
	.byte		        Cn4 
	.byte	W03
	.byte		        Dn4 , v096
	.byte	W03
	.byte		        Ds4 , v100
	.byte	W03
	.byte		        Fn4 , v104
	.byte	W03
	.byte		        Gn4 , v108
	.byte	W03
	.byte		        An4 , v112
	.byte	W03
	.byte		        As4 , v116
	.byte	W03
	.byte		N24   , Cn5 , v120
	.byte	W48
	.byte	PEND
@ 028   ----------------------------------------
high_tier_map_14_028:
	.byte	W12
	.byte		N03   , An2 , v092
	.byte	W03
	.byte		        As2 
	.byte	W03
	.byte		        Cn3 
	.byte	W03
	.byte		        Dn3 
	.byte	W03
	.byte		        Ds3 
	.byte	W03
	.byte		        Fn3 
	.byte	W03
	.byte		        Gn3 , v096
	.byte	W03
	.byte		        An3 , v100
	.byte	W03
	.byte		        As3 , v104
	.byte	W03
	.byte		        Cn4 , v108
	.byte	W03
	.byte		        Dn4 , v112
	.byte	W03
	.byte		        Ds4 , v116
	.byte	W03
	.byte		N24   , Fn4 , v120
	.byte	W48
	.byte	PEND
@ 029   ----------------------------------------
high_tier_map_14_029:
	.byte	W12
	.byte		N03   , Dn3 , v092
	.byte	W03
	.byte		        Ds3 
	.byte	W03
	.byte		        Fn3 
	.byte	W03
	.byte		        Gn3 
	.byte	W03
	.byte		        An3 
	.byte	W03
	.byte		        As3 
	.byte	W03
	.byte		        Cn4 , v096
	.byte	W03
	.byte		        Dn4 , v100
	.byte	W03
	.byte		        Ds4 , v104
	.byte	W03
	.byte		        Fn4 , v108
	.byte	W03
	.byte		        Gn4 , v112
	.byte	W03
	.byte		        An4 , v116
	.byte	W03
	.byte		N24   , As4 , v120
	.byte	W48
	.byte	PEND
@ 030   ----------------------------------------
high_tier_map_14_030:
	.byte	W12
	.byte		N03   , Gn3 , v092
	.byte	W03
	.byte		        An3 
	.byte	W03
	.byte		        As3 
	.byte	W03
	.byte		        Cn4 
	.byte	W03
	.byte		        Dn4 
	.byte	W03
	.byte		        Ds4 
	.byte	W03
	.byte		        Fn4 , v096
	.byte	W03
	.byte		        Gn4 , v100
	.byte	W03
	.byte		        An4 , v104
	.byte	W03
	.byte		        As4 , v108
	.byte	W03
	.byte		        Cn5 , v112
	.byte	W03
	.byte		        Dn5 , v116
	.byte	W03
	.byte		N16   , Ds5 , v120
	.byte	W48
	.byte	PEND
@ 031   ----------------------------------------
	.byte		N48   , En3 , v080
	.byte	W48
	.byte		        Ds3 
	.byte	W48
@ 032   ----------------------------------------
high_tier_map_14_032:
	.byte		N48   , Dn3 , v080
	.byte	W48
	.byte		        Cs3 
	.byte	W48
	.byte	PEND
@ 033   ----------------------------------------
high_tier_map_14_033:
	.byte		N48   , Cn3 , v080
	.byte	W48
	.byte		        Bn2 
	.byte	W48
	.byte	PEND
@ 034   ----------------------------------------
high_tier_map_14_034:
	.byte		N48   , As2 , v080
	.byte	W48
	.byte		        An2 
	.byte	W48
	.byte	PEND
@ 035   ----------------------------------------
high_tier_map_14_035:
	.byte	W24
	.byte		N12   , Gn3 , v127
	.byte		N12   , Dn4 
	.byte	W48
	.byte		        Fs3 
	.byte		N12   , Dn4 
	.byte	W24
	.byte	PEND
@ 036   ----------------------------------------
	.byte	W24
	.byte		        Gn3 
	.byte		N12   , Dn4 
	.byte	W24
	.byte		        Fs3 
	.byte		N12   , Dn4 
	.byte	W48
@ 037   ----------------------------------------
	.byte	W96
@ 038   ----------------------------------------
	.byte	W96
@ 039   ----------------------------------------
	.byte	W96
@ 040   ----------------------------------------
	.byte	W96
@ 041   ----------------------------------------
	.byte	W96
@ 042   ----------------------------------------
	.byte	W96
@ 043   ----------------------------------------
	.byte	W96
@ 044   ----------------------------------------
	.byte	W96
@ 045   ----------------------------------------
	.byte	W96
@ 046   ----------------------------------------
	.byte	W96
@ 047   ----------------------------------------
	.byte	W96
@ 048   ----------------------------------------
	.byte	W96
@ 049   ----------------------------------------
	.byte	W96
@ 050   ----------------------------------------
	.byte	W96
@ 051   ----------------------------------------
	.byte	W96
@ 052   ----------------------------------------
	.byte	W96
@ 053   ----------------------------------------
	.byte	W96
@ 054   ----------------------------------------
	.byte	W96
@ 055   ----------------------------------------
	.byte	PATT
	 .word	high_tier_map_14_019
@ 056   ----------------------------------------
	.byte	PATT
	 .word	high_tier_map_14_019
@ 057   ----------------------------------------
	.byte	PATT
	 .word	high_tier_map_14_019
@ 058   ----------------------------------------
	.byte		N06   , Gn3 , v100
	.byte	W08
	.byte		        Cn3 
	.byte	W08
	.byte		        Ds3 
	.byte	W08
	.byte		        Gs3 
	.byte	W08
	.byte		        Cn3 
	.byte	W08
	.byte		        Ds3 
	.byte	W08
	.byte		        An3 
	.byte	W08
	.byte		        Cn3 
	.byte	W08
	.byte		        Ds3 
	.byte	W08
	.byte		        Gs3 
	.byte	W08
	.byte		        Cn3 
	.byte	W08
	.byte		        Ds3 
	.byte	W08
@ 059   ----------------------------------------
	.byte	PATT
	 .word	high_tier_map_14_023
@ 060   ----------------------------------------
	.byte	PATT
	 .word	high_tier_map_14_024
@ 061   ----------------------------------------
	.byte	PATT
	 .word	high_tier_map_14_025
@ 062   ----------------------------------------
	.byte	PATT
	 .word	high_tier_map_14_026
@ 063   ----------------------------------------
	.byte	PATT
	 .word	high_tier_map_14_027
@ 064   ----------------------------------------
	.byte	PATT
	 .word	high_tier_map_14_028
@ 065   ----------------------------------------
	.byte	PATT
	 .word	high_tier_map_14_029
@ 066   ----------------------------------------
	.byte	PATT
	 .word	high_tier_map_14_030
@ 067   ----------------------------------------
	.byte		N48   , En3 , v080
	.byte	W48
	.byte		        Ds3 
	.byte	W48
@ 068   ----------------------------------------
	.byte	PATT
	 .word	high_tier_map_14_032
@ 069   ----------------------------------------
	.byte	PATT
	 .word	high_tier_map_14_033
@ 070   ----------------------------------------
	.byte	PATT
	 .word	high_tier_map_14_034
@ 071   ----------------------------------------
	.byte	PATT
	 .word	high_tier_map_14_035
@ 072   ----------------------------------------
	.byte	W24
	.byte		N12   , Gn3 , v127
	.byte		N12   , Dn4 
	.byte	W24
	.byte		        Fs3 
	.byte		N12   , Dn4 
	.byte	W12
	.byte	FINE

@**************** Track 15 (Midi-Chn.16) ****************@

high_tier_map_15:
	.byte	KEYSH , high_tier_map_key+0
@ 000   ----------------------------------------
	.byte		VOICE , 48
	.byte		VOL   , 35*high_tier_map_mvl/mxv
	.byte		PAN   , c_v-29
	.byte	W24
@ 001   ----------------------------------------
high_tier_map_15_001:
	.byte		N19   , Gn1 , v100
	.byte	W24
	.byte		        Gn2 
	.byte	W24
	.byte		        Fs2 
	.byte	W24
	.byte		        Fs1 
	.byte	W24
	.byte	PEND
@ 002   ----------------------------------------
	.byte	PATT
	 .word	high_tier_map_15_001
@ 003   ----------------------------------------
high_tier_map_15_003:
	.byte		N19   , Gn1 , v100
	.byte	W24
	.byte		        An1 
	.byte	W24
	.byte		        Bn1 
	.byte	W24
	.byte		        Gn1 
	.byte	W24
	.byte	PEND
@ 004   ----------------------------------------
	.byte		N09   , Cn2 
	.byte	W96
@ 005   ----------------------------------------
high_tier_map_15_005:
	.byte		N19   , Gn1 , v100
	.byte	W24
	.byte		        Cn1 
	.byte	W24
	.byte		N19   
	.byte	W24
	.byte		        Dn1 
	.byte	W24
	.byte	PEND
@ 006   ----------------------------------------
high_tier_map_15_006:
	.byte		N19   , Gn1 , v100
	.byte	W24
	.byte		N19   
	.byte	W24
	.byte		        Fn1 
	.byte	W24
	.byte		N19   
	.byte	W24
	.byte	PEND
@ 007   ----------------------------------------
high_tier_map_15_007:
	.byte		N19   , En1 , v100
	.byte	W24
	.byte		N19   
	.byte	W24
	.byte		        Cn1 
	.byte	W24
	.byte		N19   
	.byte	W24
	.byte	PEND
@ 008   ----------------------------------------
high_tier_map_15_008:
	.byte		N19   , Fn1 , v100
	.byte	W24
	.byte		N19   
	.byte	W24
	.byte		        Fs1 
	.byte	W48
	.byte	PEND
@ 009   ----------------------------------------
	.byte	W96
@ 010   ----------------------------------------
	.byte	W96
@ 011   ----------------------------------------
	.byte	W96
@ 012   ----------------------------------------
	.byte	W96
@ 013   ----------------------------------------
	.byte	W96
@ 014   ----------------------------------------
	.byte	W96
@ 015   ----------------------------------------
	.byte	W96
@ 016   ----------------------------------------
	.byte	W96
@ 017   ----------------------------------------
	.byte	W96
@ 018   ----------------------------------------
	.byte	W96
@ 019   ----------------------------------------
high_tier_map_15_019:
	.byte		N48   , Gn1 , v112
	.byte	W48
	.byte		        Fs1 
	.byte	W48
	.byte	PEND
@ 020   ----------------------------------------
	.byte	PATT
	 .word	high_tier_map_15_019
@ 021   ----------------------------------------
high_tier_map_15_021:
	.byte		N48   , Gn1 , v112
	.byte	W48
	.byte		N24   , Bn0 
	.byte	W24
	.byte		        Dn1 
	.byte	W24
	.byte	PEND
@ 022   ----------------------------------------
	.byte		N96   , Cn1 
	.byte	W96
@ 023   ----------------------------------------
high_tier_map_15_023:
	.byte		N48   , An0 , v112
	.byte	W48
	.byte		N24   , Cn1 
	.byte	W24
	.byte		        Dn1 
	.byte	W24
	.byte	PEND
@ 024   ----------------------------------------
high_tier_map_15_024:
	.byte		N72   , Gn1 , v112
	.byte	W72
	.byte		N24   , Fn1 
	.byte	W24
	.byte	PEND
@ 025   ----------------------------------------
high_tier_map_15_025:
	.byte		N48   , En1 , v112
	.byte	W48
	.byte		        Cn1 
	.byte	W48
	.byte	PEND
@ 026   ----------------------------------------
high_tier_map_15_026:
	.byte		N48   , Fn1 , v112
	.byte	W48
	.byte		N18   , Fs1 
	.byte	W48
	.byte	PEND
@ 027   ----------------------------------------
high_tier_map_15_027:
	.byte		N06   , Cn1 , v112
	.byte		N06   , Cn2 
	.byte	W08
	.byte		        Ds1 
	.byte		N06   , Ds2 
	.byte	W08
	.byte		        Gn1 
	.byte		N06   , Gn2 
	.byte	W08
	.byte		        Cn2 
	.byte		N06   , Cn3 
	.byte	W08
	.byte		        Gn1 
	.byte		N06   , Gn2 
	.byte	W08
	.byte		        Cn2 
	.byte		N06   , Cn3 
	.byte	W08
	.byte		        Gn1 
	.byte		N06   , Gn2 
	.byte	W08
	.byte		        Ds1 
	.byte		N06   , Ds2 
	.byte	W08
	.byte		        Gn1 
	.byte		N06   , Gn2 
	.byte	W08
	.byte		        Ds1 
	.byte		N06   , Ds2 
	.byte	W08
	.byte		        Cn1 
	.byte		N06   , Cn2 
	.byte	W08
	.byte		        Ds1 
	.byte		N06   , Ds2 
	.byte	W08
	.byte	PEND
@ 028   ----------------------------------------
high_tier_map_15_028:
	.byte		N06   , Fn1 , v112
	.byte		N06   , Fn2 
	.byte	W08
	.byte		        An1 
	.byte		N06   , An2 
	.byte	W08
	.byte		        Fn1 
	.byte		N06   , Fn2 
	.byte	W08
	.byte		        Ds1 
	.byte		N06   , Ds2 
	.byte	W08
	.byte		        Cn1 
	.byte		N06   , Cn2 
	.byte	W08
	.byte		        Ds1 
	.byte		N06   , Ds2 
	.byte	W08
	.byte		        Cn1 
	.byte		N06   , Cn2 
	.byte	W08
	.byte		        An0 
	.byte		N06   , An1 
	.byte	W08
	.byte		        Cn1 
	.byte		N06   , Cn2 
	.byte	W08
	.byte		        Fn0 
	.byte		N06   , Fn1 
	.byte	W08
	.byte		        An0 
	.byte		N06   , An1 
	.byte	W08
	.byte		        Cn1 
	.byte		N06   , Cn2 
	.byte	W08
	.byte	PEND
@ 029   ----------------------------------------
high_tier_map_15_029:
	.byte		N06   , As0 , v112
	.byte		N06   , As1 
	.byte	W08
	.byte		        Dn1 
	.byte		N06   , Dn2 
	.byte	W08
	.byte		        Fn1 
	.byte		N06   , Fn2 
	.byte	W08
	.byte		        As1 
	.byte		N06   , As2 
	.byte	W08
	.byte		        Fn1 
	.byte		N06   , Fn2 
	.byte	W08
	.byte		        As1 
	.byte		N06   , As2 
	.byte	W08
	.byte		        Fn1 
	.byte		N06   , Fn2 
	.byte	W08
	.byte		        Dn1 
	.byte		N06   , Dn2 
	.byte	W08
	.byte		        Fn1 
	.byte		N06   , Fn2 
	.byte	W08
	.byte		        Dn1 
	.byte		N06   , Dn2 
	.byte	W08
	.byte		        As0 
	.byte		N06   , As1 
	.byte	W08
	.byte		        Dn1 
	.byte		N06   , Dn2 
	.byte	W08
	.byte	PEND
@ 030   ----------------------------------------
high_tier_map_15_030:
	.byte		N06   , Ds1 , v112
	.byte		N06   , Ds2 
	.byte	W08
	.byte		        Gn1 
	.byte		N06   , Gn2 
	.byte	W08
	.byte		        As1 
	.byte		N06   , As2 
	.byte	W08
	.byte		        Ds2 
	.byte		N06   , Ds3 
	.byte	W08
	.byte		        As1 
	.byte		N06   , As2 
	.byte	W08
	.byte		        Gn1 
	.byte		N06   , Gn2 
	.byte	W08
	.byte		        Ds1 
	.byte		N06   , Ds2 
	.byte	W08
	.byte		        Gn1 
	.byte		N06   , Gn2 
	.byte	W08
	.byte		        As0 
	.byte		N06   , As1 
	.byte	W08
	.byte		        Ds1 
	.byte		N06   , Ds2 
	.byte	W08
	.byte		        Gn1 
	.byte		N06   , Gn2 
	.byte	W08
	.byte		        Ds1 
	.byte		N06   , Ds2 
	.byte	W08
	.byte	PEND
@ 031   ----------------------------------------
	.byte	W96
@ 032   ----------------------------------------
	.byte	W96
@ 033   ----------------------------------------
	.byte	W96
@ 034   ----------------------------------------
	.byte	W96
@ 035   ----------------------------------------
high_tier_map_15_035:
	.byte	W24
	.byte		N12   , Dn1 , v127
	.byte	W48
	.byte		N12   
	.byte	W24
	.byte	PEND
@ 036   ----------------------------------------
	.byte	W24
	.byte		N12   
	.byte	W24
	.byte		N12   
	.byte	W48
@ 037   ----------------------------------------
	.byte	PATT
	 .word	high_tier_map_15_001
@ 038   ----------------------------------------
	.byte	PATT
	 .word	high_tier_map_15_001
@ 039   ----------------------------------------
	.byte	PATT
	 .word	high_tier_map_15_003
@ 040   ----------------------------------------
	.byte		N09   , Cn2 , v100
	.byte	W96
@ 041   ----------------------------------------
	.byte	PATT
	 .word	high_tier_map_15_005
@ 042   ----------------------------------------
	.byte	PATT
	 .word	high_tier_map_15_006
@ 043   ----------------------------------------
	.byte	PATT
	 .word	high_tier_map_15_007
@ 044   ----------------------------------------
	.byte	PATT
	 .word	high_tier_map_15_008
@ 045   ----------------------------------------
	.byte	W96
@ 046   ----------------------------------------
	.byte	W96
@ 047   ----------------------------------------
	.byte	W96
@ 048   ----------------------------------------
	.byte	W96
@ 049   ----------------------------------------
	.byte	W96
@ 050   ----------------------------------------
	.byte	W96
@ 051   ----------------------------------------
	.byte	W96
@ 052   ----------------------------------------
	.byte	W96
@ 053   ----------------------------------------
	.byte	W96
@ 054   ----------------------------------------
	.byte	W96
@ 055   ----------------------------------------
	.byte	PATT
	 .word	high_tier_map_15_019
@ 056   ----------------------------------------
	.byte	PATT
	 .word	high_tier_map_15_019
@ 057   ----------------------------------------
	.byte	PATT
	 .word	high_tier_map_15_021
@ 058   ----------------------------------------
	.byte		N96   , Cn1 , v112
	.byte	W96
@ 059   ----------------------------------------
	.byte	PATT
	 .word	high_tier_map_15_023
@ 060   ----------------------------------------
	.byte	PATT
	 .word	high_tier_map_15_024
@ 061   ----------------------------------------
	.byte	PATT
	 .word	high_tier_map_15_025
@ 062   ----------------------------------------
	.byte	PATT
	 .word	high_tier_map_15_026
@ 063   ----------------------------------------
	.byte	PATT
	 .word	high_tier_map_15_027
@ 064   ----------------------------------------
	.byte	PATT
	 .word	high_tier_map_15_028
@ 065   ----------------------------------------
	.byte	PATT
	 .word	high_tier_map_15_029
@ 066   ----------------------------------------
	.byte	PATT
	 .word	high_tier_map_15_030
@ 067   ----------------------------------------
	.byte	W96
@ 068   ----------------------------------------
	.byte	W96
@ 069   ----------------------------------------
	.byte	W96
@ 070   ----------------------------------------
	.byte	W96
@ 071   ----------------------------------------
	.byte	PATT
	 .word	high_tier_map_15_035
@ 072   ----------------------------------------
	.byte	W24
	.byte		N12   , Dn1 , v127
	.byte	W24
	.byte		N12   
	.byte	W12
	.byte	FINE

@******************************************************@
	.align	2

high_tier_map:
	.byte	15	@ NumTrks
	.byte	0	@ NumBlks
	.byte	high_tier_map_pri	@ Priority
	.byte	high_tier_map_rev	@ Reverb.

	.word	high_tier_map_grp

	.word	high_tier_map_1
	.word	high_tier_map_2
	.word	high_tier_map_3
	.word	high_tier_map_4
	.word	high_tier_map_5
	.word	high_tier_map_6
	.word	high_tier_map_7
	.word	high_tier_map_8
	.word	high_tier_map_9
	.word	high_tier_map_10
	.word	high_tier_map_11
	.word	high_tier_map_12
	.word	high_tier_map_13
	.word	high_tier_map_14
	.word	high_tier_map_15

	.end
