//Event file generated from Sappy .s format.
	#include "../MPlayDef.event"

	#define	vs_stela_map_grp  voicegroup000
	#define	vs_stela_map_pri  0
	#define	vs_stela_map_rev  0
	#define	vs_stela_map_mvl  60
	#define	vs_stela_map_key  0
	#define	vs_stela_map_tbs  1
	#define	vs_stela_map_exg  0
	#define	vs_stela_map_cmp  1

	// .rodata
	//	vs_stela_map
	ALIGN 4

//**************** Track 1 (Midi-Chn.1) ****************//

vs_stela_map_1:
	BYTE	KEYSH   vs_stela_map_key+0
// 000   ----------------------------------------
	BYTE	TEMPO   160*vs_stela_map_tbs/2
	BYTE		VOICE   32
	BYTE		PAN     c_v-29
	BYTE		VOL     35*vs_stela_map_mvl/mxv
	BYTE		PAN     c_v-29
	BYTE		VOL     35*vs_stela_map_mvl/mxv
	BYTE		PAN     c_v-29
	BYTE		VOL     35*vs_stela_map_mvl/mxv
	BYTE		        35*vs_stela_map_mvl/mxv
	BYTE		PAN     c_v-29
	BYTE		VOL     35*vs_stela_map_mvl/mxv
	BYTE		        35*vs_stela_map_mvl/mxv
	BYTE		PAN     c_v-29
	BYTE		BEND    c_v+0
	BYTE		N36     Ds1   v100
	BYTE	W36
	BYTE		        Fn1 
	BYTE	W36
	BYTE		        Dn1 
	BYTE	W24
// 001   ----------------------------------------
vs_stela_map_1_001:
	BYTE	W12
	BYTE		N36     Ds1   v100
	BYTE	W36
	BYTE		N24     Fn1 
	BYTE	W24
	BYTE		        Dn1 
	BYTE	W24
	BYTE	PEND
// 002   ----------------------------------------
	BYTE		N36     Ds1 
	BYTE	W36
	BYTE		        Fn1 
	BYTE	W36
	BYTE		        Dn1 
	BYTE	W24
// 003   ----------------------------------------
	BYTE	PATT
	 POIN2	vs_stela_map_1_001
// 004   ----------------------------------------
vs_stela_map_1_004:
	BYTE		N12     Gs0   v100
	BYTE	W12
	BYTE		N12   
	BYTE	W12
	BYTE		N12   
	BYTE	W12
	BYTE		N12   
	BYTE	W12
	BYTE		N12   
	BYTE	W12
	BYTE		N12   
	BYTE	W12
	BYTE		N12   
	BYTE	W12
	BYTE		N12   
	BYTE	W12
	BYTE	PEND
// 005   ----------------------------------------
vs_stela_map_1_005:
	BYTE		N12     Gs0   v100
	BYTE	W12
	BYTE		N12   
	BYTE	W12
	BYTE		N12   
	BYTE	W12
	BYTE		N12   
	BYTE	W12
	BYTE		        As0 
	BYTE	W12
	BYTE		N12   
	BYTE	W12
	BYTE		N12   
	BYTE	W12
	BYTE		N12   
	BYTE	W12
	BYTE	PEND
// 006   ----------------------------------------
vs_stela_map_1_006:
	BYTE		N12     As0   v100
	BYTE	W12
	BYTE		N12   
	BYTE	W12
	BYTE		N12   
	BYTE	W12
	BYTE		N12   
	BYTE	W12
	BYTE		N12   
	BYTE	W12
	BYTE		N12   
	BYTE	W12
	BYTE		N12   
	BYTE	W12
	BYTE		N12   
	BYTE	W12
	BYTE	PEND
// 007   ----------------------------------------
vs_stela_map_1_007:
	BYTE		N12     Cn1   v100
	BYTE	W12
	BYTE		        Gn0 
	BYTE	W12
	BYTE		        Ds1 
	BYTE	W12
	BYTE		        Cn1 
	BYTE	W12
	BYTE		        Gn0 
	BYTE	W12
	BYTE		        Ds1 
	BYTE	W12
	BYTE		        Cn1 
	BYTE	W12
	BYTE		        Gn0 
	BYTE	W12
	BYTE	PEND
// 008   ----------------------------------------
vs_stela_map_1_008:
	BYTE		N12     Ds1   v100
	BYTE	W12
	BYTE		        Cn1 
	BYTE	W12
	BYTE		        Gn0 
	BYTE	W12
	BYTE		        Ds1 
	BYTE	W12
	BYTE		        Cn1 
	BYTE	W12
	BYTE		        Gn0 
	BYTE	W12
	BYTE		        Ds1 
	BYTE	W12
	BYTE		        Cn1 
	BYTE	W12
	BYTE	PEND
// 009   ----------------------------------------
vs_stela_map_1_009:
	BYTE		N12     Gn0   v100
	BYTE	W12
	BYTE		        Ds1 
	BYTE	W12
	BYTE		        Cn1 
	BYTE	W12
	BYTE		        Gn0 
	BYTE	W12
	BYTE		        Ds1 
	BYTE	W12
	BYTE		        Cn1 
	BYTE	W12
	BYTE		        Gn0 
	BYTE	W12
	BYTE		        Ds1 
	BYTE	W12
	BYTE	PEND
// 010   ----------------------------------------
	BYTE	PATT
	 POIN2	vs_stela_map_1_004
// 011   ----------------------------------------
	BYTE	PATT
	 POIN2	vs_stela_map_1_005
// 012   ----------------------------------------
	BYTE	PATT
	 POIN2	vs_stela_map_1_006
// 013   ----------------------------------------
	BYTE	PATT
	 POIN2	vs_stela_map_1_007
// 014   ----------------------------------------
	BYTE	PATT
	 POIN2	vs_stela_map_1_008
// 015   ----------------------------------------
	BYTE	PATT
	 POIN2	vs_stela_map_1_009
// 016   ----------------------------------------
vs_stela_map_1_016:
	BYTE		N36     Gs0   v100
	BYTE	W36
	BYTE		N24     As0 
	BYTE	W24
	BYTE		N12     Cn1 
	BYTE	W12
	BYTE		N36     Dn1 
	BYTE	W24
	BYTE	PEND
// 017   ----------------------------------------
vs_stela_map_1_017:
	BYTE	W12
	BYTE		N36     As0   v100
	BYTE	W36
	BYTE		N24   
	BYTE	W24
	BYTE		N24   
	BYTE	W24
	BYTE	PEND
// 018   ----------------------------------------
	BYTE	PATT
	 POIN2	vs_stela_map_1_016
// 019   ----------------------------------------
	BYTE	PATT
	 POIN2	vs_stela_map_1_017
// 020   ----------------------------------------
vs_stela_map_1_020:
	BYTE		N12     Cn1   v100
	BYTE	W12
	BYTE		N12   
	BYTE	W12
	BYTE		N12   
	BYTE	W12
	BYTE		N12   
	BYTE	W12
	BYTE		N12   
	BYTE	W12
	BYTE		N12   
	BYTE	W12
	BYTE		N12   
	BYTE	W12
	BYTE		N12   
	BYTE	W12
	BYTE	PEND
// 021   ----------------------------------------
vs_stela_map_1_021:
	BYTE		N12     Cn1   v100
	BYTE	W12
	BYTE		N12   
	BYTE	W12
	BYTE		N12   
	BYTE	W12
	BYTE		N12   
	BYTE	W12
	BYTE		        As0 
	BYTE	W12
	BYTE		N12   
	BYTE	W12
	BYTE		N12   
	BYTE	W12
	BYTE		N12   
	BYTE	W12
	BYTE	PEND
// 022   ----------------------------------------
	BYTE	PATT
	 POIN2	vs_stela_map_1_020
// 023   ----------------------------------------
	BYTE	PATT
	 POIN2	vs_stela_map_1_021
// 024   ----------------------------------------
vs_stela_map_1_024:
	BYTE		N12     Gs0   v100
	BYTE	W12
	BYTE		        Ds1 
	BYTE	W12
	BYTE		        Gs1 
	BYTE	W12
	BYTE		        Gs0 
	BYTE	W12
	BYTE		        Ds1 
	BYTE	W12
	BYTE		        Gs1 
	BYTE	W12
	BYTE		        Gs0 
	BYTE	W12
	BYTE		        Gs1 
	BYTE	W12
	BYTE	PEND
// 025   ----------------------------------------
vs_stela_map_1_025:
	BYTE		N12     As0   v100
	BYTE	W12
	BYTE		        Fn1 
	BYTE	W12
	BYTE		        As1 
	BYTE	W12
	BYTE		        As0 
	BYTE	W12
	BYTE		        Fn1 
	BYTE	W12
	BYTE		        As1 
	BYTE	W12
	BYTE		        As0 
	BYTE	W12
	BYTE		        As1 
	BYTE	W12
	BYTE	PEND
// 026   ----------------------------------------
vs_stela_map_1_026:
	BYTE		N12     Cn1   v100
	BYTE	W12
	BYTE		        Gn1 
	BYTE	W12
	BYTE		        Cn2 
	BYTE	W12
	BYTE		        Cn1 
	BYTE	W12
	BYTE		        Gn1 
	BYTE	W12
	BYTE		        Cn2 
	BYTE	W12
	BYTE		        Cn1 
	BYTE	W12
	BYTE		        Cn2 
	BYTE	W12
	BYTE	PEND
// 027   ----------------------------------------
vs_stela_map_1_027:
	BYTE		N12     Fn0   v100
	BYTE	W12
	BYTE		        Cn1 
	BYTE	W12
	BYTE		        Fn1 
	BYTE	W12
	BYTE		        Fn0 
	BYTE	W12
	BYTE		        Cn1 
	BYTE	W12
	BYTE		        Fn1 
	BYTE	W12
	BYTE		        Fn0 
	BYTE	W12
	BYTE		        Fn1 
	BYTE	W12
	BYTE	PEND
// 028   ----------------------------------------
vs_stela_map_1_028:
	BYTE		N12     Gn0   v100
	BYTE	W12
	BYTE		        Gn1 
	BYTE	W12
	BYTE		        Gn0 
	BYTE	W12
	BYTE		N12   
	BYTE	W12
	BYTE		        Gn1 
	BYTE	W12
	BYTE		        Gn0 
	BYTE	W12
	BYTE		N12   
	BYTE	W12
	BYTE		        Gn1 
	BYTE	W12
	BYTE	PEND
// 029   ----------------------------------------
vs_stela_map_1_029:
	BYTE		N12     Gn0   v100
	BYTE	W12
	BYTE		N12   
	BYTE	W12
	BYTE		        Gn1 
	BYTE	W12
	BYTE		        Gn0 
	BYTE	W12
	BYTE		N12   
	BYTE	W12
	BYTE		        Gn1 
	BYTE	W12
	BYTE		        Gn0 
	BYTE	W12
	BYTE		        Gn1 
	BYTE	W12
	BYTE	PEND
// 030   ----------------------------------------
	BYTE	PATT
	 POIN2	vs_stela_map_1_028
// 031   ----------------------------------------
	BYTE	PATT
	 POIN2	vs_stela_map_1_029
// 032   ----------------------------------------
	BYTE	TEMPO   160*vs_stela_map_tbs/2
	BYTE		VOICE   32
	BYTE		VOL     35*vs_stela_map_mvl/mxv
	BYTE		PAN     c_v-29
	BYTE		BEND    c_v+0
	BYTE		N12     Gs0   v100
	BYTE	W12
	BYTE		N12   
	BYTE	W12
	BYTE		N12   
	BYTE	W12
	BYTE		N12   
	BYTE	W12
	BYTE		N12   
	BYTE	W12
	BYTE		N12   
	BYTE	W12
	BYTE		N12   
	BYTE	W12
	BYTE		N12   
	BYTE	W12
// 033   ----------------------------------------
	BYTE	PATT
	 POIN2	vs_stela_map_1_005
// 034   ----------------------------------------
	BYTE	PATT
	 POIN2	vs_stela_map_1_006
// 035   ----------------------------------------
	BYTE	PATT
	 POIN2	vs_stela_map_1_007
// 036   ----------------------------------------
	BYTE	PATT
	 POIN2	vs_stela_map_1_008
// 037   ----------------------------------------
	BYTE	PATT
	 POIN2	vs_stela_map_1_009
// 038   ----------------------------------------
	BYTE	PATT
	 POIN2	vs_stela_map_1_004
// 039   ----------------------------------------
	BYTE	PATT
	 POIN2	vs_stela_map_1_005
// 040   ----------------------------------------
	BYTE	PATT
	 POIN2	vs_stela_map_1_006
// 041   ----------------------------------------
	BYTE	PATT
	 POIN2	vs_stela_map_1_007
// 042   ----------------------------------------
	BYTE	PATT
	 POIN2	vs_stela_map_1_008
// 043   ----------------------------------------
	BYTE	PATT
	 POIN2	vs_stela_map_1_009
// 044   ----------------------------------------
	BYTE	PATT
	 POIN2	vs_stela_map_1_016
// 045   ----------------------------------------
	BYTE	PATT
	 POIN2	vs_stela_map_1_017
// 046   ----------------------------------------
	BYTE	PATT
	 POIN2	vs_stela_map_1_016
// 047   ----------------------------------------
	BYTE	PATT
	 POIN2	vs_stela_map_1_017
// 048   ----------------------------------------
	BYTE	PATT
	 POIN2	vs_stela_map_1_020
// 049   ----------------------------------------
	BYTE	PATT
	 POIN2	vs_stela_map_1_021
// 050   ----------------------------------------
	BYTE	PATT
	 POIN2	vs_stela_map_1_020
// 051   ----------------------------------------
	BYTE	PATT
	 POIN2	vs_stela_map_1_021
// 052   ----------------------------------------
	BYTE	PATT
	 POIN2	vs_stela_map_1_024
// 053   ----------------------------------------
	BYTE	PATT
	 POIN2	vs_stela_map_1_025
// 054   ----------------------------------------
	BYTE	PATT
	 POIN2	vs_stela_map_1_026
// 055   ----------------------------------------
	BYTE	PATT
	 POIN2	vs_stela_map_1_027
// 056   ----------------------------------------
	BYTE	PATT
	 POIN2	vs_stela_map_1_028
// 057   ----------------------------------------
	BYTE	PATT
	 POIN2	vs_stela_map_1_029
// 058   ----------------------------------------
	BYTE	PATT
	 POIN2	vs_stela_map_1_028
// 059   ----------------------------------------
	BYTE	PATT
	 POIN2	vs_stela_map_1_029
// 060   ----------------------------------------
	BYTE		VOICE   32
	BYTE		PAN     c_v-29
	BYTE		VOL     35*vs_stela_map_mvl/mxv
	BYTE		PAN     c_v-29
	BYTE		VOL     35*vs_stela_map_mvl/mxv
	BYTE		PAN     c_v-29
	BYTE		VOL     35*vs_stela_map_mvl/mxv
	BYTE		BEND    c_v+0
	BYTE	FINE

//**************** Track 2 (Midi-Chn.2) ****************//

vs_stela_map_2:
	BYTE	KEYSH   vs_stela_map_key+0
// 000   ----------------------------------------
	BYTE		VOICE   0
	BYTE		PAN     c_v-29
	BYTE		VOL     35*vs_stela_map_mvl/mxv
	BYTE		PAN     c_v-29
	BYTE		VOL     35*vs_stela_map_mvl/mxv
	BYTE		PAN     c_v-29
	BYTE		VOL     35*vs_stela_map_mvl/mxv
	BYTE		        35*vs_stela_map_mvl/mxv
	BYTE		PAN     c_v-29
	BYTE		VOL     35*vs_stela_map_mvl/mxv
	BYTE		        35*vs_stela_map_mvl/mxv
	BYTE		BEND    c_v+0
	BYTE	W12
	BYTE		PAN     c_v-29
	BYTE		N36     Gn3   v100
	BYTE	W36
	BYTE		N36   
	BYTE	W36
	BYTE		N36   
	BYTE	W12
// 001   ----------------------------------------
	BYTE	W24
	BYTE		N36   
	BYTE	W36
	BYTE		N48   
	BYTE	W36
// 002   ----------------------------------------
	BYTE	W12
	BYTE		N36   
	BYTE	W36
	BYTE		N36   
	BYTE	W36
	BYTE		N36   
	BYTE	W12
// 003   ----------------------------------------
	BYTE	W24
	BYTE		N36   
	BYTE	W36
	BYTE		N36   
	BYTE	W36
// 004   ----------------------------------------
	BYTE		PAN     c_v-29
	BYTE		N60   
	BYTE	W60
	BYTE		N84     Gn3   v076
	BYTE	W36
// 005   ----------------------------------------
	BYTE	W48
	BYTE		N60     Fn3   v100
	BYTE	W48
// 006   ----------------------------------------
vs_stela_map_2_006:
	BYTE	W12
	BYTE		N72     Fn3   v076
	BYTE	W72
	BYTE		        Gn3   v100
	BYTE	W12
	BYTE	PEND
// 007   ----------------------------------------
	BYTE	W60
	BYTE		N84     Gn3   v076
	BYTE	W36
// 008   ----------------------------------------
vs_stela_map_2_008:
	BYTE	W48
	BYTE		N32     Gn3   v100
	BYTE	W36
	BYTE		N18     Gn3   v076
	BYTE	W12
	BYTE	PEND
// 009   ----------------------------------------
vs_stela_map_2_009:
	BYTE	W30
	BYTE		N06     Ds2   v060
	BYTE	W06
	BYTE		        Gn2 
	BYTE	W06
	BYTE		        Cn3 
	BYTE	W06
	BYTE		        Ds3 
	BYTE	W06
	BYTE		        Gn2 
	BYTE	W06
	BYTE		        Cn3 
	BYTE	W06
	BYTE		        Ds3 
	BYTE	W06
	BYTE		        Gn3 
	BYTE	W06
	BYTE		        Cn3 
	BYTE	W06
	BYTE		        Ds3 
	BYTE	W06
	BYTE		        Gn3 
	BYTE	W06
	BYTE	PEND
// 010   ----------------------------------------
vs_stela_map_2_010:
	BYTE		N60     Gn3   v100
	BYTE	W60
	BYTE		N84     Gn3   v076
	BYTE	W36
	BYTE	PEND
// 011   ----------------------------------------
	BYTE	W48
	BYTE		N60     Gn3   v100
	BYTE	W48
// 012   ----------------------------------------
	BYTE	W12
	BYTE		N84     Gn3   v076
	BYTE	W84
// 013   ----------------------------------------
	BYTE	PATT
	 POIN2	vs_stela_map_2_010
// 014   ----------------------------------------
vs_stela_map_2_014:
	BYTE	W48
	BYTE		PAN     c_v-29
	BYTE		TIE     Cn4   v100
	BYTE	W48
	BYTE	PEND
// 015   ----------------------------------------
	BYTE	W96
	BYTE		EOT   
// 016   ----------------------------------------
vs_stela_map_2_016:
	BYTE		PAN     c_v-29
	BYTE		N36     Gn4   v100
	BYTE	W36
	BYTE		N72     Fn4 
	BYTE	W60
	BYTE	PEND
// 017   ----------------------------------------
vs_stela_map_2_017:
	BYTE	W12
	BYTE		N12     Dn4   v100
	BYTE	W12
	BYTE		        Fn4 
	BYTE	W12
	BYTE		        As3 
	BYTE	W12
	BYTE		        Cn4 
	BYTE	W12
	BYTE		        Dn4 
	BYTE	W12
	BYTE		        Ds4 
	BYTE	W12
	BYTE		        Fn4 
	BYTE	W12
	BYTE	PEND
// 018   ----------------------------------------
vs_stela_map_2_018:
	BYTE		N12     Gn4   v100
	BYTE	W12
	BYTE		        As4 
	BYTE	W12
	BYTE		        Gs4 
	BYTE	W12
	BYTE		N72     Fn4 
	BYTE	W60
	BYTE	PEND
// 019   ----------------------------------------
	BYTE	PATT
	 POIN2	vs_stela_map_2_017
// 020   ----------------------------------------
vs_stela_map_2_020:
	BYTE		N12     Gn4   v100
	BYTE	W12
	BYTE		        Ds4 
	BYTE	W12
	BYTE		        Cn4 
	BYTE	W12
	BYTE		        Fn4 
	BYTE	W12
	BYTE		        Dn4 
	BYTE	W12
	BYTE		        As3 
	BYTE	W12
	BYTE		        Gn4   v080
	BYTE	W12
	BYTE		        Ds4 
	BYTE	W12
	BYTE	PEND
// 021   ----------------------------------------
vs_stela_map_2_021:
	BYTE		N12     Cn4   v080
	BYTE	W12
	BYTE		        Fn4 
	BYTE	W12
	BYTE		        Dn4 
	BYTE	W12
	BYTE		        As3   v076
	BYTE	W12
	BYTE		N24     As3   v080
	BYTE	W24
	BYTE		N24   
	BYTE	W24
	BYTE	PEND
// 022   ----------------------------------------
	BYTE	PATT
	 POIN2	vs_stela_map_2_020
// 023   ----------------------------------------
	BYTE	PATT
	 POIN2	vs_stela_map_2_021
// 024   ----------------------------------------
vs_stela_map_2_024:
	BYTE		N36     Ds4   v100
	BYTE	W36
	BYTE		        Dn4 
	BYTE	W36
	BYTE		N24     Ds4 
	BYTE	W24
	BYTE	PEND
// 025   ----------------------------------------
vs_stela_map_2_025:
	BYTE		N36     Fn4   v100
	BYTE	W36
	BYTE		        Ds4 
	BYTE	W36
	BYTE		N24     Fn4 
	BYTE	W24
	BYTE	PEND
// 026   ----------------------------------------
vs_stela_map_2_026:
	BYTE		N36     Gn4   v100
	BYTE	W36
	BYTE		        Fn4 
	BYTE	W36
	BYTE		N24     Gn4 
	BYTE	W24
	BYTE	PEND
// 027   ----------------------------------------
vs_stela_map_2_027:
	BYTE		N36     As4   v100
	BYTE	W36
	BYTE		        Gs4 
	BYTE	W36
	BYTE		N24     As4 
	BYTE	W24
	BYTE	PEND
// 028   ----------------------------------------
	BYTE		TIE     Gn4 
	BYTE	W96
// 029   ----------------------------------------
	BYTE	W48
	BYTE		EOT   
	BYTE		N12     Fn4 
	BYTE	W12
	BYTE		        Ds4 
	BYTE	W12
	BYTE		        Fn4 
	BYTE	W12
	BYTE		TIE     Gn4 
	BYTE	W12
// 030   ----------------------------------------
	BYTE	W96
// 031   ----------------------------------------
	BYTE	W96
	BYTE		EOT   
// 032   ----------------------------------------
	BYTE		VOICE   0
	BYTE		VOL     35*vs_stela_map_mvl/mxv
	BYTE		PAN     c_v-29
	BYTE		BEND    c_v+0
	BYTE		N60     Gn3 
	BYTE	W60
	BYTE		N84     Gn3   v076
	BYTE	W36
// 033   ----------------------------------------
	BYTE	W48
	BYTE		N60     Fn3   v100
	BYTE	W48
// 034   ----------------------------------------
	BYTE	PATT
	 POIN2	vs_stela_map_2_006
// 035   ----------------------------------------
	BYTE	W60
	BYTE		N84     Gn3   v076
	BYTE	W36
// 036   ----------------------------------------
	BYTE	PATT
	 POIN2	vs_stela_map_2_008
// 037   ----------------------------------------
	BYTE	PATT
	 POIN2	vs_stela_map_2_009
// 038   ----------------------------------------
	BYTE	PATT
	 POIN2	vs_stela_map_2_010
// 039   ----------------------------------------
	BYTE	W48
	BYTE		N60     Gn3   v100
	BYTE	W48
// 040   ----------------------------------------
	BYTE	W12
	BYTE		N84     Gn3   v076
	BYTE	W84
// 041   ----------------------------------------
	BYTE	PATT
	 POIN2	vs_stela_map_2_010
// 042   ----------------------------------------
	BYTE	PATT
	 POIN2	vs_stela_map_2_014
// 043   ----------------------------------------
	BYTE	W96
	BYTE		EOT     Cn4 
// 044   ----------------------------------------
	BYTE	PATT
	 POIN2	vs_stela_map_2_016
// 045   ----------------------------------------
	BYTE	PATT
	 POIN2	vs_stela_map_2_017
// 046   ----------------------------------------
	BYTE	PATT
	 POIN2	vs_stela_map_2_018
// 047   ----------------------------------------
	BYTE	PATT
	 POIN2	vs_stela_map_2_017
// 048   ----------------------------------------
	BYTE	PATT
	 POIN2	vs_stela_map_2_020
// 049   ----------------------------------------
	BYTE	PATT
	 POIN2	vs_stela_map_2_021
// 050   ----------------------------------------
	BYTE	PATT
	 POIN2	vs_stela_map_2_020
// 051   ----------------------------------------
	BYTE	PATT
	 POIN2	vs_stela_map_2_021
// 052   ----------------------------------------
	BYTE	PATT
	 POIN2	vs_stela_map_2_024
// 053   ----------------------------------------
	BYTE	PATT
	 POIN2	vs_stela_map_2_025
// 054   ----------------------------------------
	BYTE	PATT
	 POIN2	vs_stela_map_2_026
// 055   ----------------------------------------
	BYTE	PATT
	 POIN2	vs_stela_map_2_027
// 056   ----------------------------------------
	BYTE		TIE     Gn4   v100
	BYTE	W96
// 057   ----------------------------------------
	BYTE	W48
	BYTE		EOT   
	BYTE		N12     Fn4 
	BYTE	W12
	BYTE		        Ds4 
	BYTE	W12
	BYTE		        Fn4 
	BYTE	W12
	BYTE		TIE     Gn4 
	BYTE	W12
// 058   ----------------------------------------
	BYTE	W96
// 059   ----------------------------------------
	BYTE	W96
	BYTE		EOT   
// 060   ----------------------------------------
	BYTE		VOICE   0
	BYTE		PAN     c_v-29
	BYTE		VOL     35*vs_stela_map_mvl/mxv
	BYTE		PAN     c_v-29
	BYTE		VOL     35*vs_stela_map_mvl/mxv
	BYTE		PAN     c_v-29
	BYTE		VOL     35*vs_stela_map_mvl/mxv
	BYTE		BEND    c_v+0
	BYTE	FINE

//**************** Track 3 (Midi-Chn.3) ****************//

vs_stela_map_3:
	BYTE	KEYSH   vs_stela_map_key+0
// 000   ----------------------------------------
	BYTE		VOICE   0
	BYTE		PAN     c_v-29
	BYTE		VOL     35*vs_stela_map_mvl/mxv
	BYTE		PAN     c_v-29
	BYTE		VOL     35*vs_stela_map_mvl/mxv
	BYTE		PAN     c_v-29
	BYTE		VOL     35*vs_stela_map_mvl/mxv
	BYTE		        35*vs_stela_map_mvl/mxv
	BYTE		PAN     c_v-29
	BYTE		VOL     35*vs_stela_map_mvl/mxv
	BYTE		        35*vs_stela_map_mvl/mxv
	BYTE		BEND    c_v+0
	BYTE	W12
	BYTE		PAN     c_v-29
	BYTE		N36     Dn3   v100
	BYTE	W36
	BYTE		N36   
	BYTE	W36
	BYTE		N36   
	BYTE	W12
// 001   ----------------------------------------
	BYTE	W24
	BYTE		N36   
	BYTE	W36
	BYTE		N48   
	BYTE	W36
// 002   ----------------------------------------
	BYTE	W12
	BYTE		N36   
	BYTE	W36
	BYTE		N36   
	BYTE	W36
	BYTE		N36   
	BYTE	W12
// 003   ----------------------------------------
	BYTE	W24
	BYTE		N36   
	BYTE	W36
	BYTE		N36   
	BYTE	W36
// 004   ----------------------------------------
	BYTE		PAN     c_v-29
	BYTE		N60     Ds3 
	BYTE	W60
	BYTE		N84     Ds3   v076
	BYTE	W36
// 005   ----------------------------------------
	BYTE	W48
	BYTE		N60     Ds3   v100
	BYTE	W48
// 006   ----------------------------------------
vs_stela_map_3_006:
	BYTE	W12
	BYTE		N72     Dn3   v076
	BYTE	W72
	BYTE		        Ds3   v100
	BYTE	W12
	BYTE	PEND
// 007   ----------------------------------------
	BYTE	W60
	BYTE		N84     Ds3   v076
	BYTE	W36
// 008   ----------------------------------------
vs_stela_map_3_008:
	BYTE	W48
	BYTE		N32     Ds3   v100
	BYTE	W36
	BYTE		N18     Ds3   v076
	BYTE	W12
	BYTE	PEND
// 009   ----------------------------------------
vs_stela_map_3_009:
	BYTE	W24
	BYTE		N06     Ds2   v100
	BYTE	W06
	BYTE		        Gn2 
	BYTE	W06
	BYTE		        Cn3 
	BYTE	W06
	BYTE		        Ds3 
	BYTE	W06
	BYTE		        Gn2 
	BYTE	W06
	BYTE		        Cn3 
	BYTE	W06
	BYTE		        Ds3 
	BYTE	W06
	BYTE		        Gn3 
	BYTE	W06
	BYTE		        Cn3 
	BYTE	W06
	BYTE		        Ds3 
	BYTE	W06
	BYTE		        Gn3 
	BYTE	W06
	BYTE		        Cn4 
	BYTE	W06
	BYTE	PEND
// 010   ----------------------------------------
vs_stela_map_3_010:
	BYTE		N60     Ds3   v100
	BYTE	W60
	BYTE		N84     Ds3   v076
	BYTE	W36
	BYTE	PEND
// 011   ----------------------------------------
	BYTE	W48
	BYTE		N60     Ds3   v100
	BYTE	W48
// 012   ----------------------------------------
	BYTE	W12
	BYTE		N84     Ds3   v076
	BYTE	W84
// 013   ----------------------------------------
	BYTE	PATT
	 POIN2	vs_stela_map_3_010
// 014   ----------------------------------------
vs_stela_map_3_014:
	BYTE	W48
	BYTE		PAN     c_v-29
	BYTE		TIE     Gn3   v100
	BYTE	W48
	BYTE	PEND
// 015   ----------------------------------------
	BYTE	W96
	BYTE		EOT   
// 016   ----------------------------------------
vs_stela_map_3_016:
	BYTE		PAN     c_v-29
	BYTE		N36     Ds3   v100
	BYTE	W36
	BYTE		N72     Dn3 
	BYTE	W60
	BYTE	PEND
// 017   ----------------------------------------
vs_stela_map_3_017:
	BYTE	W12
	BYTE		N36     Dn3   v100
	BYTE	W36
	BYTE		N24   
	BYTE	W24
	BYTE		N24   
	BYTE	W24
	BYTE	PEND
// 018   ----------------------------------------
vs_stela_map_3_018:
	BYTE		N36     Ds3   v100
	BYTE	W36
	BYTE		N72     Dn3 
	BYTE	W60
	BYTE	PEND
// 019   ----------------------------------------
	BYTE	PATT
	 POIN2	vs_stela_map_3_017
// 020   ----------------------------------------
vs_stela_map_3_020:
	BYTE		N30     Gn3   v100
	BYTE	W36
	BYTE		N36     Fn3 
	BYTE	W36
	BYTE		N30     Gn3 
	BYTE	W24
	BYTE	PEND
// 021   ----------------------------------------
vs_stela_map_3_021:
	BYTE	W12
	BYTE		N36     Fn3   v100
	BYTE	W36
	BYTE		N24   
	BYTE	W24
	BYTE		N24   
	BYTE	W24
	BYTE	PEND
// 022   ----------------------------------------
	BYTE	PATT
	 POIN2	vs_stela_map_3_020
// 023   ----------------------------------------
	BYTE	PATT
	 POIN2	vs_stela_map_3_021
// 024   ----------------------------------------
vs_stela_map_3_024:
	BYTE		N36     Cn4   v100
	BYTE	W36
	BYTE		        As3 
	BYTE	W36
	BYTE		N24     Cn4 
	BYTE	W24
	BYTE	PEND
// 025   ----------------------------------------
vs_stela_map_3_025:
	BYTE		N36     Dn4   v100
	BYTE	W36
	BYTE		        Cn4 
	BYTE	W36
	BYTE		N24     Dn4 
	BYTE	W24
	BYTE	PEND
// 026   ----------------------------------------
vs_stela_map_3_026:
	BYTE		N36     Ds4   v100
	BYTE	W36
	BYTE		        Dn4 
	BYTE	W36
	BYTE		N24     Ds4 
	BYTE	W24
	BYTE	PEND
// 027   ----------------------------------------
vs_stela_map_3_027:
	BYTE		N36     Fn4   v100
	BYTE	W36
	BYTE		N36   
	BYTE	W36
	BYTE		N24   
	BYTE	W24
	BYTE	PEND
// 028   ----------------------------------------
	BYTE		TIE     Dn4 
	BYTE	W96
// 029   ----------------------------------------
	BYTE	W48
	BYTE		EOT   
	BYTE		N36   
	BYTE	W36
	BYTE		TIE   
	BYTE	W12
// 030   ----------------------------------------
	BYTE	W96
// 031   ----------------------------------------
	BYTE	W96
	BYTE		EOT   
// 032   ----------------------------------------
	BYTE		VOICE   0
	BYTE		VOL     35*vs_stela_map_mvl/mxv
	BYTE		PAN     c_v-29
	BYTE		BEND    c_v+0
	BYTE		N60     Ds3 
	BYTE	W60
	BYTE		N84     Ds3   v076
	BYTE	W36
// 033   ----------------------------------------
	BYTE	W48
	BYTE		N60     Ds3   v100
	BYTE	W48
// 034   ----------------------------------------
	BYTE	PATT
	 POIN2	vs_stela_map_3_006
// 035   ----------------------------------------
	BYTE	W60
	BYTE		N84     Ds3   v076
	BYTE	W36
// 036   ----------------------------------------
	BYTE	PATT
	 POIN2	vs_stela_map_3_008
// 037   ----------------------------------------
	BYTE	PATT
	 POIN2	vs_stela_map_3_009
// 038   ----------------------------------------
	BYTE	PATT
	 POIN2	vs_stela_map_3_010
// 039   ----------------------------------------
	BYTE	W48
	BYTE		N60     Ds3   v100
	BYTE	W48
// 040   ----------------------------------------
	BYTE	W12
	BYTE		N84     Ds3   v076
	BYTE	W84
// 041   ----------------------------------------
	BYTE	PATT
	 POIN2	vs_stela_map_3_010
// 042   ----------------------------------------
	BYTE	PATT
	 POIN2	vs_stela_map_3_014
// 043   ----------------------------------------
	BYTE	W96
	BYTE		EOT     Gn3 
// 044   ----------------------------------------
	BYTE	PATT
	 POIN2	vs_stela_map_3_016
// 045   ----------------------------------------
	BYTE	PATT
	 POIN2	vs_stela_map_3_017
// 046   ----------------------------------------
	BYTE	PATT
	 POIN2	vs_stela_map_3_018
// 047   ----------------------------------------
	BYTE	PATT
	 POIN2	vs_stela_map_3_017
// 048   ----------------------------------------
	BYTE	PATT
	 POIN2	vs_stela_map_3_020
// 049   ----------------------------------------
	BYTE	PATT
	 POIN2	vs_stela_map_3_021
// 050   ----------------------------------------
	BYTE	PATT
	 POIN2	vs_stela_map_3_020
// 051   ----------------------------------------
	BYTE	PATT
	 POIN2	vs_stela_map_3_021
// 052   ----------------------------------------
	BYTE	PATT
	 POIN2	vs_stela_map_3_024
// 053   ----------------------------------------
	BYTE	PATT
	 POIN2	vs_stela_map_3_025
// 054   ----------------------------------------
	BYTE	PATT
	 POIN2	vs_stela_map_3_026
// 055   ----------------------------------------
	BYTE	PATT
	 POIN2	vs_stela_map_3_027
// 056   ----------------------------------------
	BYTE		TIE     Dn4   v100
	BYTE	W96
// 057   ----------------------------------------
	BYTE	W48
	BYTE		EOT   
	BYTE		N36   
	BYTE	W36
	BYTE		TIE   
	BYTE	W12
// 058   ----------------------------------------
	BYTE	W96
// 059   ----------------------------------------
	BYTE	W96
	BYTE		EOT   
// 060   ----------------------------------------
	BYTE		VOICE   0
	BYTE		PAN     c_v-29
	BYTE		VOL     35*vs_stela_map_mvl/mxv
	BYTE		PAN     c_v-29
	BYTE		VOL     35*vs_stela_map_mvl/mxv
	BYTE		PAN     c_v-29
	BYTE		VOL     35*vs_stela_map_mvl/mxv
	BYTE		BEND    c_v+0
	BYTE	FINE

//**************** Track 4 (Midi-Chn.4) ****************//

vs_stela_map_4:
	BYTE	KEYSH   vs_stela_map_key+0
// 000   ----------------------------------------
	BYTE		VOICE   0
	BYTE		PAN     c_v-29
	BYTE		VOL     35*vs_stela_map_mvl/mxv
	BYTE		PAN     c_v-29
	BYTE		VOL     35*vs_stela_map_mvl/mxv
	BYTE		PAN     c_v-29
	BYTE		VOL     35*vs_stela_map_mvl/mxv
	BYTE		        35*vs_stela_map_mvl/mxv
	BYTE		PAN     c_v-29
	BYTE		VOL     35*vs_stela_map_mvl/mxv
	BYTE		        35*vs_stela_map_mvl/mxv
	BYTE		BEND    c_v+0
	BYTE	W12
	BYTE		PAN     c_v-29
	BYTE		N36     Cn3   v100
	BYTE	W36
	BYTE		N36   
	BYTE	W36
	BYTE		N36   
	BYTE	W12
// 001   ----------------------------------------
	BYTE	W24
	BYTE		N36   
	BYTE	W36
	BYTE		N48   
	BYTE	W36
// 002   ----------------------------------------
	BYTE	W12
	BYTE		N36   
	BYTE	W36
	BYTE		N36   
	BYTE	W36
	BYTE		N36   
	BYTE	W12
// 003   ----------------------------------------
	BYTE	W24
	BYTE		N36   
	BYTE	W36
	BYTE		N36   
	BYTE	W36
// 004   ----------------------------------------
vs_stela_map_4_004:
	BYTE		N60     Cn3   v100
	BYTE		N60     Dn3 
	BYTE	W60
	BYTE		N84     Cn3   v076
	BYTE		N84     Dn3 
	BYTE	W36
	BYTE	PEND
// 005   ----------------------------------------
vs_stela_map_4_005:
	BYTE	W48
	BYTE		N60     Cn3   v100
	BYTE		N60     Dn3 
	BYTE	W48
	BYTE	PEND
// 006   ----------------------------------------
vs_stela_map_4_006:
	BYTE	W12
	BYTE		N72     As2   v076
	BYTE		N72     Dn3 
	BYTE	W72
	BYTE		        Cn3   v100
	BYTE		N72     Dn3 
	BYTE	W12
	BYTE	PEND
// 007   ----------------------------------------
vs_stela_map_4_007:
	BYTE	W60
	BYTE		N84     Cn3   v076
	BYTE		N84     Dn3 
	BYTE	W36
	BYTE	PEND
// 008   ----------------------------------------
vs_stela_map_4_008:
	BYTE	W48
	BYTE		N06     Gn4   v064
	BYTE	W06
	BYTE		        Ds4   v060
	BYTE		N06     Gn4   v036
	BYTE	W06
	BYTE		        Dn4   v060
	BYTE		N06     Ds4   v032
	BYTE	W06
	BYTE		        Cn4   v056
	BYTE		N06     Dn4   v032
	BYTE	W06
	BYTE		        Gn3   v052
	BYTE		N06     Cn4   v028
	BYTE	W06
	BYTE		        Gn3 
	BYTE		N06     Ds4   v052
	BYTE	W06
	BYTE		        Dn4   v048
	BYTE		N06     Ds4   v028
	BYTE	W06
	BYTE		        Cn4   v044
	BYTE		N06     Dn4   v024
	BYTE	W06
	BYTE	PEND
// 009   ----------------------------------------
vs_stela_map_4_009:
	BYTE		N06     Cn4   v024
	BYTE		N06     Gn4   v044
	BYTE	W06
	BYTE		        Ds4   v040
	BYTE		N06     Gn4   v024
	BYTE	W06
	BYTE		        Dn4   v040
	BYTE		N06     Ds4   v020
	BYTE	W06
	BYTE		        Cn4   v036
	BYTE		N06     Dn4   v020
	BYTE	W06
	BYTE		        Cn4   v016
	BYTE		N06     Gn4   v032
	BYTE	W06
	BYTE		        Ds4 
	BYTE		N06     Gn4   v016
	BYTE	W06
	BYTE		        Dn4   v028
	BYTE		N06     Ds4   v016
	BYTE	W06
	BYTE		        Cn4   v024
	BYTE		N06     Dn4   v012
	BYTE	W06
	BYTE		        Gn3   v024
	BYTE		N06     Cn4   v012
	BYTE	W06
	BYTE		        Ds4   v020
	BYTE	W06
	BYTE		        Dn4   v016
	BYTE		N06     Ds4   v012
	BYTE	W06
	BYTE		        Cn4   v016
	BYTE		N06     Dn4   v008
	BYTE	W06
	BYTE		        Cn4 
	BYTE		N06     Gn4   v012
	BYTE	W06
	BYTE		        Ds4   v008
	BYTE		N06     Gn4   v004
	BYTE	W06
	BYTE		        Dn4   v008
	BYTE		N06     Ds4   v004
	BYTE	W06
	BYTE		        Cn4 
	BYTE		N06     Dn4 
	BYTE	W06
	BYTE	PEND
// 010   ----------------------------------------
	BYTE	PATT
	 POIN2	vs_stela_map_4_004
// 011   ----------------------------------------
	BYTE	PATT
	 POIN2	vs_stela_map_4_005
// 012   ----------------------------------------
vs_stela_map_4_012:
	BYTE	W12
	BYTE		N84     Cn3   v076
	BYTE		N84     Dn3 
	BYTE	W84
	BYTE	PEND
// 013   ----------------------------------------
	BYTE	PATT
	 POIN2	vs_stela_map_4_004
// 014   ----------------------------------------
vs_stela_map_4_014:
	BYTE	W48
	BYTE		TIE     Dn3   v100
	BYTE		TIE     Ds3 
	BYTE	W48
	BYTE	PEND
// 015   ----------------------------------------
	BYTE	W96
	BYTE		EOT     Dn3 
	BYTE		        Ds3 
// 016   ----------------------------------------
vs_stela_map_4_016:
	BYTE		N36     Cn3   v100
	BYTE		N36     Gn3 
	BYTE	W36
	BYTE		N72     Cn3 
	BYTE		N72     Fn3 
	BYTE	W60
	BYTE	PEND
// 017   ----------------------------------------
vs_stela_map_4_017:
	BYTE	W12
	BYTE		N36     Cn3   v100
	BYTE		N36     Fn3 
	BYTE	W36
	BYTE		N24     Cn3 
	BYTE		N24     Fn3 
	BYTE	W24
	BYTE		        Cn3 
	BYTE		N24     Fn3 
	BYTE	W24
	BYTE	PEND
// 018   ----------------------------------------
	BYTE	PATT
	 POIN2	vs_stela_map_4_016
// 019   ----------------------------------------
	BYTE	PATT
	 POIN2	vs_stela_map_4_017
// 020   ----------------------------------------
vs_stela_map_4_020:
	BYTE		N30     Ds3   v100
	BYTE		N30     Cn4 
	BYTE	W36
	BYTE		N36     Dn3 
	BYTE		N36     As3 
	BYTE	W36
	BYTE		N30     Ds3 
	BYTE		N30     Cn4 
	BYTE	W24
	BYTE	PEND
// 021   ----------------------------------------
vs_stela_map_4_021:
	BYTE	W12
	BYTE		N36     Dn3   v100
	BYTE		N36     As3 
	BYTE	W36
	BYTE		N24     Dn3 
	BYTE		N24     As3 
	BYTE	W24
	BYTE		        Dn3 
	BYTE		N24     As3 
	BYTE	W24
	BYTE	PEND
// 022   ----------------------------------------
	BYTE	PATT
	 POIN2	vs_stela_map_4_020
// 023   ----------------------------------------
	BYTE	PATT
	 POIN2	vs_stela_map_4_021
// 024   ----------------------------------------
vs_stela_map_4_024:
	BYTE		N36     Gs3   v100
	BYTE	W36
	BYTE		N36   
	BYTE	W36
	BYTE		N24   
	BYTE	W24
	BYTE	PEND
// 025   ----------------------------------------
vs_stela_map_4_025:
	BYTE		N36     As3   v100
	BYTE	W36
	BYTE		N36   
	BYTE	W36
	BYTE		N24   
	BYTE	W24
	BYTE	PEND
// 026   ----------------------------------------
vs_stela_map_4_026:
	BYTE		N36     Cn4   v100
	BYTE	W36
	BYTE		N36   
	BYTE	W36
	BYTE		N24   
	BYTE	W24
	BYTE	PEND
// 027   ----------------------------------------
	BYTE	PATT
	 POIN2	vs_stela_map_4_026
// 028   ----------------------------------------
	BYTE		TIE     Cn4   v100
	BYTE	W96
// 029   ----------------------------------------
	BYTE	W84
	BYTE		EOT   
	BYTE		TIE     Bn3 
	BYTE	W12
// 030   ----------------------------------------
	BYTE	W96
// 031   ----------------------------------------
	BYTE	W96
	BYTE		EOT   
// 032   ----------------------------------------
	BYTE		VOICE   0
	BYTE		VOL     35*vs_stela_map_mvl/mxv
	BYTE		PAN     c_v-29
	BYTE		BEND    c_v+0
	BYTE		N60     Cn3 
	BYTE		N60     Dn3 
	BYTE	W60
	BYTE		N84     Cn3   v076
	BYTE		N84     Dn3 
	BYTE	W36
// 033   ----------------------------------------
	BYTE	PATT
	 POIN2	vs_stela_map_4_005
// 034   ----------------------------------------
	BYTE	PATT
	 POIN2	vs_stela_map_4_006
// 035   ----------------------------------------
	BYTE	PATT
	 POIN2	vs_stela_map_4_007
// 036   ----------------------------------------
	BYTE	PATT
	 POIN2	vs_stela_map_4_008
// 037   ----------------------------------------
	BYTE	PATT
	 POIN2	vs_stela_map_4_009
// 038   ----------------------------------------
	BYTE	PATT
	 POIN2	vs_stela_map_4_004
// 039   ----------------------------------------
	BYTE	PATT
	 POIN2	vs_stela_map_4_005
// 040   ----------------------------------------
	BYTE	PATT
	 POIN2	vs_stela_map_4_012
// 041   ----------------------------------------
	BYTE	PATT
	 POIN2	vs_stela_map_4_004
// 042   ----------------------------------------
	BYTE	PATT
	 POIN2	vs_stela_map_4_014
// 043   ----------------------------------------
	BYTE	W96
	BYTE		EOT     Dn3 
	BYTE		        Ds3 
// 044   ----------------------------------------
	BYTE	PATT
	 POIN2	vs_stela_map_4_016
// 045   ----------------------------------------
	BYTE	PATT
	 POIN2	vs_stela_map_4_017
// 046   ----------------------------------------
	BYTE	PATT
	 POIN2	vs_stela_map_4_016
// 047   ----------------------------------------
	BYTE	PATT
	 POIN2	vs_stela_map_4_017
// 048   ----------------------------------------
	BYTE	PATT
	 POIN2	vs_stela_map_4_020
// 049   ----------------------------------------
	BYTE	PATT
	 POIN2	vs_stela_map_4_021
// 050   ----------------------------------------
	BYTE	PATT
	 POIN2	vs_stela_map_4_020
// 051   ----------------------------------------
	BYTE	PATT
	 POIN2	vs_stela_map_4_021
// 052   ----------------------------------------
	BYTE	PATT
	 POIN2	vs_stela_map_4_024
// 053   ----------------------------------------
	BYTE	PATT
	 POIN2	vs_stela_map_4_025
// 054   ----------------------------------------
	BYTE	PATT
	 POIN2	vs_stela_map_4_026
// 055   ----------------------------------------
	BYTE	PATT
	 POIN2	vs_stela_map_4_026
// 056   ----------------------------------------
	BYTE		TIE     Cn4   v100
	BYTE	W96
// 057   ----------------------------------------
	BYTE	W84
	BYTE		EOT   
	BYTE		TIE     Bn3 
	BYTE	W12
// 058   ----------------------------------------
	BYTE	W96
// 059   ----------------------------------------
	BYTE	W96
	BYTE		EOT   
// 060   ----------------------------------------
	BYTE		VOICE   0
	BYTE		PAN     c_v-29
	BYTE		VOL     35*vs_stela_map_mvl/mxv
	BYTE		PAN     c_v-29
	BYTE		VOL     35*vs_stela_map_mvl/mxv
	BYTE		PAN     c_v-29
	BYTE		VOL     35*vs_stela_map_mvl/mxv
	BYTE		BEND    c_v+0
	BYTE	FINE

//**************** Track 5 (Midi-Chn.5) ****************//

vs_stela_map_5:
	BYTE	KEYSH   vs_stela_map_key+0
// 000   ----------------------------------------
	BYTE		VOICE   73
	BYTE		PAN     c_v-29
	BYTE		VOL     35*vs_stela_map_mvl/mxv
	BYTE		PAN     c_v-29
	BYTE		VOL     35*vs_stela_map_mvl/mxv
	BYTE		PAN     c_v-29
	BYTE		VOL     35*vs_stela_map_mvl/mxv
	BYTE		        35*vs_stela_map_mvl/mxv
	BYTE		PAN     c_v-29
	BYTE		VOL     35*vs_stela_map_mvl/mxv
	BYTE		        35*vs_stela_map_mvl/mxv
	BYTE		BEND    c_v+0
	BYTE	W96
// 001   ----------------------------------------
	BYTE	W96
// 002   ----------------------------------------
	BYTE	W96
// 003   ----------------------------------------
	BYTE	W96
// 004   ----------------------------------------
	BYTE		PAN     c_v-29
	BYTE		TIE     Cn4   v052
	BYTE	W96
// 005   ----------------------------------------
	BYTE	W48
	BYTE		EOT   
	BYTE		TIE     As3 
	BYTE	W48
// 006   ----------------------------------------
	BYTE	W84
	BYTE		EOT   
	BYTE		TIE     Cn4 
	BYTE	W12
// 007   ----------------------------------------
	BYTE	W96
// 008   ----------------------------------------
	BYTE	W48
	BYTE		EOT   
	BYTE		TIE     Ds4 
	BYTE	W48
// 009   ----------------------------------------
	BYTE	W96
	BYTE		EOT   
// 010   ----------------------------------------
	BYTE		TIE     Cn4 
	BYTE	W96
// 011   ----------------------------------------
	BYTE	W48
	BYTE		EOT   
	BYTE		TIE     As3 
	BYTE	W48
// 012   ----------------------------------------
	BYTE	W84
	BYTE		EOT   
	BYTE		TIE     Cn4 
	BYTE	W12
// 013   ----------------------------------------
	BYTE	W96
// 014   ----------------------------------------
	BYTE	W48
	BYTE		EOT   
	BYTE		TIE     Ds4 
	BYTE	W48
// 015   ----------------------------------------
	BYTE	W96
	BYTE		EOT   
// 016   ----------------------------------------
vs_stela_map_5_016:
	BYTE		N36     Gn5   v052
	BYTE	W36
	BYTE		N72     Fn5 
	BYTE	W60
	BYTE	PEND
// 017   ----------------------------------------
vs_stela_map_5_017:
	BYTE	W12
	BYTE		N12     Dn5   v052
	BYTE	W12
	BYTE		        Fn5 
	BYTE	W12
	BYTE		        As4 
	BYTE	W12
	BYTE		        Cn5 
	BYTE	W12
	BYTE		        Dn5 
	BYTE	W12
	BYTE		        Ds5 
	BYTE	W12
	BYTE		        Fn5 
	BYTE	W12
	BYTE	PEND
// 018   ----------------------------------------
vs_stela_map_5_018:
	BYTE		N12     Gn5   v052
	BYTE	W12
	BYTE		        As5 
	BYTE	W12
	BYTE		        Gs5 
	BYTE	W12
	BYTE		N72     Fn5 
	BYTE	W60
	BYTE	PEND
// 019   ----------------------------------------
	BYTE	PATT
	 POIN2	vs_stela_map_5_017
// 020   ----------------------------------------
vs_stela_map_5_020:
	BYTE		N36     Gn5   v052
	BYTE	W36
	BYTE		        Fn5 
	BYTE	W36
	BYTE		        Ds5 
	BYTE	W24
	BYTE	PEND
// 021   ----------------------------------------
vs_stela_map_5_021:
	BYTE	W12
	BYTE		N36     Dn5   v052
	BYTE	W36
	BYTE		N24     Cn5 
	BYTE	W24
	BYTE		        As4 
	BYTE	W24
	BYTE	PEND
// 022   ----------------------------------------
vs_stela_map_5_022:
	BYTE		N36     Gn4   v052
	BYTE	W36
	BYTE		        Fn4 
	BYTE	W36
	BYTE		        Ds4 
	BYTE	W24
	BYTE	PEND
// 023   ----------------------------------------
vs_stela_map_5_023:
	BYTE	W12
	BYTE		N36     Dn4   v052
	BYTE	W36
	BYTE		N24     Cn4 
	BYTE	W24
	BYTE		        As3 
	BYTE	W24
	BYTE	PEND
// 024   ----------------------------------------
	BYTE		N96     Cn4 
	BYTE	W96
// 025   ----------------------------------------
	BYTE		        Dn4 
	BYTE	W96
// 026   ----------------------------------------
	BYTE		        Ds4 
	BYTE	W96
// 027   ----------------------------------------
	BYTE		        Fn4 
	BYTE	W96
// 028   ----------------------------------------
	BYTE		TIE     Gn4 
	BYTE	W96
// 029   ----------------------------------------
	BYTE	W48
	BYTE		EOT   
	BYTE		N12     Fn4 
	BYTE	W12
	BYTE		        Ds4 
	BYTE	W12
	BYTE		        Fn4 
	BYTE	W12
	BYTE		TIE     Gn4 
	BYTE	W12
// 030   ----------------------------------------
	BYTE	W96
// 031   ----------------------------------------
	BYTE	W96
	BYTE		EOT   
// 032   ----------------------------------------
	BYTE		VOICE   73
	BYTE		VOL     35*vs_stela_map_mvl/mxv
	BYTE		PAN     c_v-29
	BYTE		BEND    c_v+0
	BYTE		TIE     Cn4 
	BYTE	W96
// 033   ----------------------------------------
	BYTE	W48
	BYTE		EOT   
	BYTE		TIE     As3 
	BYTE	W48
// 034   ----------------------------------------
	BYTE	W84
	BYTE		EOT   
	BYTE		TIE     Cn4 
	BYTE	W12
// 035   ----------------------------------------
	BYTE	W96
// 036   ----------------------------------------
	BYTE	W48
	BYTE		EOT   
	BYTE		TIE     Ds4 
	BYTE	W48
// 037   ----------------------------------------
	BYTE	W96
	BYTE		EOT   
// 038   ----------------------------------------
	BYTE		TIE     Cn4 
	BYTE	W96
// 039   ----------------------------------------
	BYTE	W48
	BYTE		EOT   
	BYTE		TIE     As3 
	BYTE	W48
// 040   ----------------------------------------
	BYTE	W84
	BYTE		EOT   
	BYTE		TIE     Cn4 
	BYTE	W12
// 041   ----------------------------------------
	BYTE	W96
// 042   ----------------------------------------
	BYTE	W48
	BYTE		EOT   
	BYTE		TIE     Ds4 
	BYTE	W48
// 043   ----------------------------------------
	BYTE	W96
	BYTE		EOT   
// 044   ----------------------------------------
	BYTE	PATT
	 POIN2	vs_stela_map_5_016
// 045   ----------------------------------------
	BYTE	PATT
	 POIN2	vs_stela_map_5_017
// 046   ----------------------------------------
	BYTE	PATT
	 POIN2	vs_stela_map_5_018
// 047   ----------------------------------------
	BYTE	PATT
	 POIN2	vs_stela_map_5_017
// 048   ----------------------------------------
	BYTE	PATT
	 POIN2	vs_stela_map_5_020
// 049   ----------------------------------------
	BYTE	PATT
	 POIN2	vs_stela_map_5_021
// 050   ----------------------------------------
	BYTE	PATT
	 POIN2	vs_stela_map_5_022
// 051   ----------------------------------------
	BYTE	PATT
	 POIN2	vs_stela_map_5_023
// 052   ----------------------------------------
	BYTE		N96     Cn4   v052
	BYTE	W96
// 053   ----------------------------------------
	BYTE		        Dn4 
	BYTE	W96
// 054   ----------------------------------------
	BYTE		        Ds4 
	BYTE	W96
// 055   ----------------------------------------
	BYTE		        Fn4 
	BYTE	W96
// 056   ----------------------------------------
	BYTE		TIE     Gn4 
	BYTE	W96
// 057   ----------------------------------------
	BYTE	W48
	BYTE		EOT   
	BYTE		N12     Fn4 
	BYTE	W12
	BYTE		        Ds4 
	BYTE	W12
	BYTE		        Fn4 
	BYTE	W12
	BYTE		TIE     Gn4 
	BYTE	W12
// 058   ----------------------------------------
	BYTE	W96
// 059   ----------------------------------------
	BYTE	W96
	BYTE		EOT   
// 060   ----------------------------------------
	BYTE		VOICE   73
	BYTE		PAN     c_v-29
	BYTE		VOL     35*vs_stela_map_mvl/mxv
	BYTE		PAN     c_v-29
	BYTE		VOL     35*vs_stela_map_mvl/mxv
	BYTE		PAN     c_v-29
	BYTE		VOL     35*vs_stela_map_mvl/mxv
	BYTE		BEND    c_v+0
	BYTE	FINE

//**************** Track 6 (Midi-Chn.6) ****************//

vs_stela_map_6:
	BYTE	KEYSH   vs_stela_map_key+0
// 000   ----------------------------------------
	BYTE		VOICE   98
	BYTE		PAN     c_v-29
	BYTE		VOL     35*vs_stela_map_mvl/mxv
	BYTE		PAN     c_v-29
	BYTE		VOL     35*vs_stela_map_mvl/mxv
	BYTE		PAN     c_v-29
	BYTE		VOL     35*vs_stela_map_mvl/mxv
	BYTE		        35*vs_stela_map_mvl/mxv
	BYTE		PAN     c_v-29
	BYTE		VOL     35*vs_stela_map_mvl/mxv
	BYTE		        35*vs_stela_map_mvl/mxv
	BYTE		BEND    c_v+0
	BYTE	W96
// 001   ----------------------------------------
	BYTE	W96
// 002   ----------------------------------------
	BYTE	W96
// 003   ----------------------------------------
	BYTE	W96
// 004   ----------------------------------------
	BYTE	W96
// 005   ----------------------------------------
	BYTE	W96
// 006   ----------------------------------------
	BYTE	W96
// 007   ----------------------------------------
vs_stela_map_6_007:
	BYTE	W72
	BYTE		PAN     c_v-29
	BYTE		N06     Gn7   v032
	BYTE	W06
	BYTE		N18     Cn7 
	BYTE	W18
	BYTE	PEND
// 008   ----------------------------------------
vs_stela_map_6_008:
	BYTE		PAN     c_v-29
	BYTE		N06     Gn7   v028
	BYTE	W06
	BYTE		N18     Cn7 
	BYTE	W18
	BYTE		PAN     c_v-29
	BYTE		N06     Gn7   v024
	BYTE	W06
	BYTE		N18     Cn7 
	BYTE	W18
	BYTE		PAN     c_v-29
	BYTE		N06     Gn7   v020
	BYTE	W06
	BYTE		N18     Cn7 
	BYTE	W18
	BYTE		PAN     c_v-29
	BYTE		N06     Gn7 
	BYTE	W06
	BYTE		N18     Cn7 
	BYTE	W18
	BYTE	PEND
// 009   ----------------------------------------
vs_stela_map_6_009:
	BYTE		PAN     c_v-29
	BYTE		N06     Gn7   v020
	BYTE	W06
	BYTE		N18     Cn7 
	BYTE	W18
	BYTE		PAN     c_v-29
	BYTE		N06     Gn7   v016
	BYTE	W06
	BYTE		N18     Cn7 
	BYTE	W66
	BYTE	PEND
// 010   ----------------------------------------
vs_stela_map_6_010:
	BYTE		N06     Gn5   v028
	BYTE	W06
	BYTE		        Ds5 
	BYTE	W06
	BYTE		PAN     c_v-29
	BYTE		N06     Dn5 
	BYTE	W06
	BYTE		        Cn5 
	BYTE	W06
	BYTE		PAN     c_v-29
	BYTE		N06     Gn4 
	BYTE	W06
	BYTE		        Ds5 
	BYTE	W06
	BYTE		PAN     c_v-29
	BYTE		N06     Dn5 
	BYTE	W06
	BYTE		        Cn5 
	BYTE	W06
	BYTE		PAN     c_v-29
	BYTE		N06     Gn5 
	BYTE	W06
	BYTE		        Ds5 
	BYTE	W06
	BYTE		PAN     c_v-29
	BYTE		N06     Dn5 
	BYTE	W06
	BYTE		        Cn5 
	BYTE	W06
	BYTE		PAN     c_v-29
	BYTE		N06     Gn5 
	BYTE	W06
	BYTE		        Ds5 
	BYTE	W06
	BYTE		PAN     c_v-29
	BYTE		N06     Dn5 
	BYTE	W06
	BYTE		        Cn5 
	BYTE	W06
	BYTE	PEND
// 011   ----------------------------------------
vs_stela_map_6_011:
	BYTE		PAN     c_v-29
	BYTE		N06     Gn4   v028
	BYTE	W06
	BYTE		        Ds5 
	BYTE	W06
	BYTE		PAN     c_v-29
	BYTE		N06     Dn5 
	BYTE	W06
	BYTE		        Cn5 
	BYTE	W06
	BYTE		PAN     c_v-29
	BYTE		N06     Gn5 
	BYTE	W06
	BYTE		        Ds5 
	BYTE	W06
	BYTE		PAN     c_v-29
	BYTE		N06     Dn5 
	BYTE	W06
	BYTE		        Cn5 
	BYTE	W06
	BYTE		PAN     c_v-29
	BYTE		N06     Gn5 
	BYTE	W06
	BYTE		        Ds5 
	BYTE	W06
	BYTE		PAN     c_v-29
	BYTE		N06     Dn5 
	BYTE	W06
	BYTE		        Cn5 
	BYTE	W06
	BYTE		PAN     c_v-29
	BYTE		N06     Gn4 
	BYTE	W06
	BYTE		        Ds5 
	BYTE	W06
	BYTE		PAN     c_v-29
	BYTE		N06     Dn5 
	BYTE	W06
	BYTE		        Cn5 
	BYTE	W06
	BYTE	PEND
// 012   ----------------------------------------
vs_stela_map_6_012:
	BYTE		PAN     c_v-29
	BYTE		N06     Gn5   v028
	BYTE	W06
	BYTE		        Ds5 
	BYTE	W06
	BYTE		PAN     c_v-29
	BYTE		N06     Dn5 
	BYTE	W06
	BYTE		        Cn5 
	BYTE	W06
	BYTE		PAN     c_v-29
	BYTE		N06     Gn5 
	BYTE	W06
	BYTE		        Ds5 
	BYTE	W06
	BYTE		PAN     c_v-29
	BYTE		N06     Dn5 
	BYTE	W06
	BYTE		        Cn5 
	BYTE	W06
	BYTE		PAN     c_v-29
	BYTE		N06     Gn4 
	BYTE	W06
	BYTE		        Ds5 
	BYTE	W06
	BYTE		PAN     c_v-29
	BYTE		N06     Dn5 
	BYTE	W06
	BYTE		        Cn5 
	BYTE	W06
	BYTE		PAN     c_v-29
	BYTE		N06     Gn5 
	BYTE	W06
	BYTE		        Ds5 
	BYTE	W06
	BYTE		PAN     c_v-29
	BYTE		N06     Dn5 
	BYTE	W06
	BYTE		        Cn5 
	BYTE	W06
	BYTE	PEND
// 013   ----------------------------------------
vs_stela_map_6_013:
	BYTE		PAN     c_v-29
	BYTE		N06     Gn5   v028
	BYTE	W06
	BYTE		        Ds5 
	BYTE	W06
	BYTE		PAN     c_v-29
	BYTE		N06     Dn5 
	BYTE	W06
	BYTE		        Cn5 
	BYTE	W06
	BYTE		PAN     c_v-29
	BYTE		N06     Gn4 
	BYTE	W06
	BYTE		        Ds5 
	BYTE	W06
	BYTE		PAN     c_v-29
	BYTE		N06     Dn5 
	BYTE	W06
	BYTE		        Cn5 
	BYTE	W06
	BYTE		PAN     c_v-29
	BYTE		N06     Gn5 
	BYTE	W06
	BYTE		        Ds5 
	BYTE	W06
	BYTE		PAN     c_v-29
	BYTE		N06     Dn5 
	BYTE	W06
	BYTE		        Cn5 
	BYTE	W06
	BYTE		PAN     c_v-29
	BYTE		N06     Gn5 
	BYTE	W06
	BYTE		        Ds5 
	BYTE	W06
	BYTE		PAN     c_v-29
	BYTE		N06     Dn5 
	BYTE	W06
	BYTE		        Cn5 
	BYTE	W06
	BYTE	PEND
// 014   ----------------------------------------
vs_stela_map_6_014:
	BYTE		PAN     c_v-29
	BYTE		N06     Gn4   v028
	BYTE	W06
	BYTE		        Ds5 
	BYTE	W06
	BYTE		PAN     c_v-29
	BYTE		N06     Dn5 
	BYTE	W06
	BYTE		        Cn5 
	BYTE	W06
	BYTE		PAN     c_v-29
	BYTE		N06     Gn5 
	BYTE	W06
	BYTE		        Ds5 
	BYTE	W06
	BYTE		PAN     c_v-29
	BYTE		N06     Dn5 
	BYTE	W06
	BYTE		        Cn5 
	BYTE	W06
	BYTE		PAN     c_v-29
	BYTE		N06     Gn5   v024
	BYTE	W06
	BYTE		        Ds5 
	BYTE	W06
	BYTE		PAN     c_v-29
	BYTE		N06     Dn5 
	BYTE	W06
	BYTE		        Cn5 
	BYTE	W06
	BYTE		PAN     c_v-29
	BYTE		N06     Gn4 
	BYTE	W06
	BYTE		        Ds5 
	BYTE	W06
	BYTE		PAN     c_v-29
	BYTE		N06     Dn5 
	BYTE	W06
	BYTE		        Cn5 
	BYTE	W06
	BYTE	PEND
// 015   ----------------------------------------
vs_stela_map_6_015:
	BYTE		PAN     c_v-29
	BYTE		N06     Gn7   v032
	BYTE	W06
	BYTE		N18     Cn7 
	BYTE	W18
	BYTE		PAN     c_v-29
	BYTE		N06     Gn7   v028
	BYTE	W06
	BYTE		N18     Cn7 
	BYTE	W18
	BYTE		PAN     c_v-29
	BYTE		N06     Gn7   v024
	BYTE	W06
	BYTE		N18     Cn7 
	BYTE	W18
	BYTE		PAN     c_v-29
	BYTE		N06     Gn7   v020
	BYTE	W06
	BYTE		N18     Cn7 
	BYTE	W18
	BYTE	PEND
// 016   ----------------------------------------
	BYTE	W96
// 017   ----------------------------------------
	BYTE	W96
// 018   ----------------------------------------
	BYTE	W96
// 019   ----------------------------------------
	BYTE	W96
// 020   ----------------------------------------
	BYTE	W96
// 021   ----------------------------------------
	BYTE	W96
// 022   ----------------------------------------
	BYTE	W96
// 023   ----------------------------------------
	BYTE	W96
// 024   ----------------------------------------
	BYTE	W96
// 025   ----------------------------------------
	BYTE	W96
// 026   ----------------------------------------
	BYTE	W96
// 027   ----------------------------------------
	BYTE	W96
// 028   ----------------------------------------
vs_stela_map_6_028:
	BYTE		PAN     c_v-29
	BYTE		N06     Gn4   v028
	BYTE	W06
	BYTE		        Cn5 
	BYTE	W06
	BYTE		PAN     c_v-29
	BYTE		N06     Dn5 
	BYTE	W06
	BYTE		        Fn5 
	BYTE	W06
	BYTE		PAN     c_v-29
	BYTE		N06     Gn5 
	BYTE	W06
	BYTE		        Fn5 
	BYTE	W06
	BYTE		PAN     c_v-29
	BYTE		N06     Dn5 
	BYTE	W06
	BYTE		        Cn5 
	BYTE	W06
	BYTE		PAN     c_v-29
	BYTE		N06     Gn4 
	BYTE	W06
	BYTE		        Cn5 
	BYTE	W06
	BYTE		PAN     c_v-29
	BYTE		N06     Dn5 
	BYTE	W06
	BYTE		        Fn5 
	BYTE	W06
	BYTE		PAN     c_v-29
	BYTE		N06     Gn5 
	BYTE	W06
	BYTE		        Fn5 
	BYTE	W06
	BYTE		PAN     c_v-29
	BYTE		N06     Dn5 
	BYTE	W06
	BYTE		        Cn5 
	BYTE	W06
	BYTE	PEND
// 029   ----------------------------------------
	BYTE	PATT
	 POIN2	vs_stela_map_6_028
// 030   ----------------------------------------
	BYTE	PATT
	 POIN2	vs_stela_map_6_028
// 031   ----------------------------------------
vs_stela_map_6_031:
	BYTE		PAN     c_v-29
	BYTE		N06     Gn4   v028
	BYTE	W06
	BYTE		        Cn5 
	BYTE	W06
	BYTE		PAN     c_v-29
	BYTE		N06     Dn5 
	BYTE	W06
	BYTE		        Fn5 
	BYTE	W06
	BYTE		PAN     c_v-29
	BYTE		N06     Gn5 
	BYTE	W06
	BYTE		        Fn5 
	BYTE	W06
	BYTE		PAN     c_v-29
	BYTE		N06     Dn5 
	BYTE	W06
	BYTE		        Cn5 
	BYTE	W06
	BYTE		PAN     c_v-29
	BYTE		N06     Gn4 
	BYTE	W06
	BYTE		        Cn5 
	BYTE	W06
	BYTE		PAN     c_v-29
	BYTE		N06     Dn5 
	BYTE	W06
	BYTE		        Fn5 
	BYTE	W06
	BYTE		PAN     c_v-29
	BYTE		N06     Gn5 
	BYTE	W06
	BYTE		        Fn5 
	BYTE	W06
	BYTE		        Dn5 
	BYTE	W06
	BYTE		        Cn5 
	BYTE	W06
	BYTE	PEND
// 032   ----------------------------------------
	BYTE		VOICE   98
	BYTE		VOL     35*vs_stela_map_mvl/mxv
	BYTE		BEND    c_v+0
	BYTE	W96
// 033   ----------------------------------------
	BYTE	W96
// 034   ----------------------------------------
	BYTE	W96
// 035   ----------------------------------------
	BYTE	PATT
	 POIN2	vs_stela_map_6_007
// 036   ----------------------------------------
	BYTE	PATT
	 POIN2	vs_stela_map_6_008
// 037   ----------------------------------------
	BYTE	PATT
	 POIN2	vs_stela_map_6_009
// 038   ----------------------------------------
	BYTE	PATT
	 POIN2	vs_stela_map_6_010
// 039   ----------------------------------------
	BYTE	PATT
	 POIN2	vs_stela_map_6_011
// 040   ----------------------------------------
	BYTE	PATT
	 POIN2	vs_stela_map_6_012
// 041   ----------------------------------------
	BYTE	PATT
	 POIN2	vs_stela_map_6_013
// 042   ----------------------------------------
	BYTE	PATT
	 POIN2	vs_stela_map_6_014
// 043   ----------------------------------------
	BYTE	PATT
	 POIN2	vs_stela_map_6_015
// 044   ----------------------------------------
	BYTE	W96
// 045   ----------------------------------------
	BYTE	W96
// 046   ----------------------------------------
	BYTE	W96
// 047   ----------------------------------------
	BYTE	W96
// 048   ----------------------------------------
	BYTE	W96
// 049   ----------------------------------------
	BYTE	W96
// 050   ----------------------------------------
	BYTE	W96
// 051   ----------------------------------------
	BYTE	W96
// 052   ----------------------------------------
	BYTE	W96
// 053   ----------------------------------------
	BYTE	W96
// 054   ----------------------------------------
	BYTE	W96
// 055   ----------------------------------------
	BYTE	W96
// 056   ----------------------------------------
	BYTE	PATT
	 POIN2	vs_stela_map_6_028
// 057   ----------------------------------------
	BYTE	PATT
	 POIN2	vs_stela_map_6_028
// 058   ----------------------------------------
	BYTE	PATT
	 POIN2	vs_stela_map_6_028
// 059   ----------------------------------------
	BYTE	PATT
	 POIN2	vs_stela_map_6_031
// 060   ----------------------------------------
	BYTE		VOICE   98
	BYTE		PAN     c_v-29
	BYTE		VOL     35*vs_stela_map_mvl/mxv
	BYTE		PAN     c_v-29
	BYTE		VOL     35*vs_stela_map_mvl/mxv
	BYTE		PAN     c_v-29
	BYTE		VOL     35*vs_stela_map_mvl/mxv
	BYTE		BEND    c_v+0
	BYTE	FINE

//**************** Track 7 (Midi-Chn.7) ****************//

vs_stela_map_7:
	BYTE	KEYSH   vs_stela_map_key+0
// 000   ----------------------------------------
	BYTE		VOICE   35
	BYTE		PAN     c_v-29
	BYTE		VOL     35*vs_stela_map_mvl/mxv
	BYTE		PAN     c_v-29
	BYTE		VOL     35*vs_stela_map_mvl/mxv
	BYTE		PAN     c_v-29
	BYTE		VOL     35*vs_stela_map_mvl/mxv
	BYTE		        35*vs_stela_map_mvl/mxv
	BYTE		PAN     c_v-29
	BYTE		VOL     35*vs_stela_map_mvl/mxv
	BYTE		        35*vs_stela_map_mvl/mxv
	BYTE		PAN     c_v-29
	BYTE		BEND    c_v+0
	BYTE		N36     Ds1   v100
	BYTE	W36
	BYTE		        Fn1 
	BYTE	W36
	BYTE		        Dn1 
	BYTE	W24
// 001   ----------------------------------------
vs_stela_map_7_001:
	BYTE	W12
	BYTE		N36     Ds1   v100
	BYTE	W36
	BYTE		N24     Fn1 
	BYTE	W24
	BYTE		        Dn1 
	BYTE	W24
	BYTE	PEND
// 002   ----------------------------------------
	BYTE		N36     Ds1 
	BYTE	W36
	BYTE		        Fn1 
	BYTE	W36
	BYTE		        Dn1 
	BYTE	W24
// 003   ----------------------------------------
	BYTE	PATT
	 POIN2	vs_stela_map_7_001
// 004   ----------------------------------------
vs_stela_map_7_004:
	BYTE		N12     Gs0   v100
	BYTE	W12
	BYTE		N12   
	BYTE	W12
	BYTE		N12   
	BYTE	W12
	BYTE		N12   
	BYTE	W12
	BYTE		N12   
	BYTE	W12
	BYTE		N12   
	BYTE	W12
	BYTE		N12   
	BYTE	W12
	BYTE		N12   
	BYTE	W12
	BYTE	PEND
// 005   ----------------------------------------
vs_stela_map_7_005:
	BYTE		N12     Gs0   v100
	BYTE	W12
	BYTE		N12   
	BYTE	W12
	BYTE		N12   
	BYTE	W12
	BYTE		N12   
	BYTE	W12
	BYTE		        As0 
	BYTE	W12
	BYTE		N12   
	BYTE	W12
	BYTE		N12   
	BYTE	W12
	BYTE		N12   
	BYTE	W12
	BYTE	PEND
// 006   ----------------------------------------
vs_stela_map_7_006:
	BYTE		N12     As0   v100
	BYTE	W12
	BYTE		N12   
	BYTE	W12
	BYTE		N12   
	BYTE	W12
	BYTE		N12   
	BYTE	W12
	BYTE		N12   
	BYTE	W12
	BYTE		N12   
	BYTE	W12
	BYTE		N12   
	BYTE	W12
	BYTE		N12   
	BYTE	W12
	BYTE	PEND
// 007   ----------------------------------------
vs_stela_map_7_007:
	BYTE		N12     Cn1   v100
	BYTE	W12
	BYTE		        Gn0 
	BYTE	W12
	BYTE		        Ds1 
	BYTE	W12
	BYTE		        Cn1 
	BYTE	W12
	BYTE		        Gn0 
	BYTE	W12
	BYTE		        Ds1 
	BYTE	W12
	BYTE		        Cn1 
	BYTE	W12
	BYTE		        Gn0 
	BYTE	W12
	BYTE	PEND
// 008   ----------------------------------------
vs_stela_map_7_008:
	BYTE		N12     Ds1   v100
	BYTE	W12
	BYTE		        Cn1 
	BYTE	W12
	BYTE		        Gn0 
	BYTE	W12
	BYTE		        Ds1 
	BYTE	W12
	BYTE		        Cn1 
	BYTE	W12
	BYTE		        Gn0 
	BYTE	W12
	BYTE		        Ds1 
	BYTE	W12
	BYTE		        Cn1 
	BYTE	W12
	BYTE	PEND
// 009   ----------------------------------------
vs_stela_map_7_009:
	BYTE		N12     Gn0   v100
	BYTE	W12
	BYTE		        Ds1 
	BYTE	W12
	BYTE		        Cn1 
	BYTE	W12
	BYTE		        Gn0 
	BYTE	W12
	BYTE		        Ds1 
	BYTE	W12
	BYTE		        Cn1 
	BYTE	W12
	BYTE		        Gn0 
	BYTE	W12
	BYTE		        Ds1 
	BYTE	W12
	BYTE	PEND
// 010   ----------------------------------------
	BYTE	PATT
	 POIN2	vs_stela_map_7_004
// 011   ----------------------------------------
	BYTE	PATT
	 POIN2	vs_stela_map_7_005
// 012   ----------------------------------------
	BYTE	PATT
	 POIN2	vs_stela_map_7_006
// 013   ----------------------------------------
	BYTE	PATT
	 POIN2	vs_stela_map_7_007
// 014   ----------------------------------------
	BYTE	PATT
	 POIN2	vs_stela_map_7_008
// 015   ----------------------------------------
	BYTE	PATT
	 POIN2	vs_stela_map_7_009
// 016   ----------------------------------------
vs_stela_map_7_016:
	BYTE		N36     Gs0   v100
	BYTE	W36
	BYTE		N24     As0 
	BYTE	W24
	BYTE		N12     Cn1 
	BYTE	W12
	BYTE		N36     Dn1 
	BYTE	W24
	BYTE	PEND
// 017   ----------------------------------------
vs_stela_map_7_017:
	BYTE	W12
	BYTE		N36     As0   v100
	BYTE	W36
	BYTE		N24   
	BYTE	W24
	BYTE		N24   
	BYTE	W24
	BYTE	PEND
// 018   ----------------------------------------
	BYTE	PATT
	 POIN2	vs_stela_map_7_016
// 019   ----------------------------------------
	BYTE	PATT
	 POIN2	vs_stela_map_7_017
// 020   ----------------------------------------
vs_stela_map_7_020:
	BYTE		N12     Cn1   v100
	BYTE	W12
	BYTE		N12   
	BYTE	W12
	BYTE		N12   
	BYTE	W12
	BYTE		N12   
	BYTE	W12
	BYTE		N12   
	BYTE	W12
	BYTE		N12   
	BYTE	W12
	BYTE		N12   
	BYTE	W12
	BYTE		N12   
	BYTE	W12
	BYTE	PEND
// 021   ----------------------------------------
vs_stela_map_7_021:
	BYTE		N12     Cn1   v100
	BYTE	W12
	BYTE		N12   
	BYTE	W12
	BYTE		N12   
	BYTE	W12
	BYTE		N12   
	BYTE	W12
	BYTE		        As0 
	BYTE	W12
	BYTE		N12   
	BYTE	W12
	BYTE		N12   
	BYTE	W12
	BYTE		N12   
	BYTE	W12
	BYTE	PEND
// 022   ----------------------------------------
	BYTE	PATT
	 POIN2	vs_stela_map_7_020
// 023   ----------------------------------------
	BYTE	PATT
	 POIN2	vs_stela_map_7_021
// 024   ----------------------------------------
vs_stela_map_7_024:
	BYTE		N12     Gs0   v100
	BYTE	W12
	BYTE		        Ds1 
	BYTE	W12
	BYTE		        Gs1 
	BYTE	W12
	BYTE		        Gs0 
	BYTE	W12
	BYTE		        Ds1 
	BYTE	W12
	BYTE		        Gs1 
	BYTE	W12
	BYTE		        Gs0 
	BYTE	W12
	BYTE		        Gs1 
	BYTE	W12
	BYTE	PEND
// 025   ----------------------------------------
vs_stela_map_7_025:
	BYTE		N12     As0   v100
	BYTE	W12
	BYTE		        Fn1 
	BYTE	W12
	BYTE		        As1 
	BYTE	W12
	BYTE		        As0 
	BYTE	W12
	BYTE		        Fn1 
	BYTE	W12
	BYTE		        As1 
	BYTE	W12
	BYTE		        As0 
	BYTE	W12
	BYTE		        As1 
	BYTE	W12
	BYTE	PEND
// 026   ----------------------------------------
vs_stela_map_7_026:
	BYTE		N12     Cn1   v100
	BYTE	W12
	BYTE		        Gn1 
	BYTE	W12
	BYTE		        Cn2 
	BYTE	W12
	BYTE		        Cn1 
	BYTE	W12
	BYTE		        Gn1 
	BYTE	W12
	BYTE		        Cn2 
	BYTE	W12
	BYTE		        Cn1 
	BYTE	W12
	BYTE		        Cn2 
	BYTE	W12
	BYTE	PEND
// 027   ----------------------------------------
vs_stela_map_7_027:
	BYTE		N12     Fn0   v100
	BYTE	W12
	BYTE		        Cn1 
	BYTE	W12
	BYTE		        Fn1 
	BYTE	W12
	BYTE		        Fn0 
	BYTE	W12
	BYTE		        Cn1 
	BYTE	W12
	BYTE		        Fn1 
	BYTE	W12
	BYTE		        Fn0 
	BYTE	W12
	BYTE		        Fn1 
	BYTE	W12
	BYTE	PEND
// 028   ----------------------------------------
vs_stela_map_7_028:
	BYTE		N12     Gn0   v100
	BYTE	W12
	BYTE		        Gn1 
	BYTE	W12
	BYTE		        Gn0 
	BYTE	W12
	BYTE		N12   
	BYTE	W12
	BYTE		        Gn1 
	BYTE	W12
	BYTE		        Gn0 
	BYTE	W12
	BYTE		N12   
	BYTE	W12
	BYTE		        Gn1 
	BYTE	W12
	BYTE	PEND
// 029   ----------------------------------------
vs_stela_map_7_029:
	BYTE		N12     Gn0   v100
	BYTE	W12
	BYTE		N12   
	BYTE	W12
	BYTE		        Gn1 
	BYTE	W12
	BYTE		        Gn0 
	BYTE	W12
	BYTE		N12   
	BYTE	W12
	BYTE		        Gn1 
	BYTE	W12
	BYTE		        Gn0 
	BYTE	W12
	BYTE		        Gn1 
	BYTE	W12
	BYTE	PEND
// 030   ----------------------------------------
	BYTE	PATT
	 POIN2	vs_stela_map_7_028
// 031   ----------------------------------------
	BYTE	PATT
	 POIN2	vs_stela_map_7_029
// 032   ----------------------------------------
	BYTE		VOICE   35
	BYTE		VOL     35*vs_stela_map_mvl/mxv
	BYTE		PAN     c_v-29
	BYTE		BEND    c_v+0
	BYTE		N12     Gs0   v100
	BYTE	W12
	BYTE		N12   
	BYTE	W12
	BYTE		N12   
	BYTE	W12
	BYTE		N12   
	BYTE	W12
	BYTE		N12   
	BYTE	W12
	BYTE		N12   
	BYTE	W12
	BYTE		N12   
	BYTE	W12
	BYTE		N12   
	BYTE	W12
// 033   ----------------------------------------
	BYTE	PATT
	 POIN2	vs_stela_map_7_005
// 034   ----------------------------------------
	BYTE	PATT
	 POIN2	vs_stela_map_7_006
// 035   ----------------------------------------
	BYTE	PATT
	 POIN2	vs_stela_map_7_007
// 036   ----------------------------------------
	BYTE	PATT
	 POIN2	vs_stela_map_7_008
// 037   ----------------------------------------
	BYTE	PATT
	 POIN2	vs_stela_map_7_009
// 038   ----------------------------------------
	BYTE	PATT
	 POIN2	vs_stela_map_7_004
// 039   ----------------------------------------
	BYTE	PATT
	 POIN2	vs_stela_map_7_005
// 040   ----------------------------------------
	BYTE	PATT
	 POIN2	vs_stela_map_7_006
// 041   ----------------------------------------
	BYTE	PATT
	 POIN2	vs_stela_map_7_007
// 042   ----------------------------------------
	BYTE	PATT
	 POIN2	vs_stela_map_7_008
// 043   ----------------------------------------
	BYTE	PATT
	 POIN2	vs_stela_map_7_009
// 044   ----------------------------------------
	BYTE	PATT
	 POIN2	vs_stela_map_7_016
// 045   ----------------------------------------
	BYTE	PATT
	 POIN2	vs_stela_map_7_017
// 046   ----------------------------------------
	BYTE	PATT
	 POIN2	vs_stela_map_7_016
// 047   ----------------------------------------
	BYTE	PATT
	 POIN2	vs_stela_map_7_017
// 048   ----------------------------------------
	BYTE	PATT
	 POIN2	vs_stela_map_7_020
// 049   ----------------------------------------
	BYTE	PATT
	 POIN2	vs_stela_map_7_021
// 050   ----------------------------------------
	BYTE	PATT
	 POIN2	vs_stela_map_7_020
// 051   ----------------------------------------
	BYTE	PATT
	 POIN2	vs_stela_map_7_021
// 052   ----------------------------------------
	BYTE	PATT
	 POIN2	vs_stela_map_7_024
// 053   ----------------------------------------
	BYTE	PATT
	 POIN2	vs_stela_map_7_025
// 054   ----------------------------------------
	BYTE	PATT
	 POIN2	vs_stela_map_7_026
// 055   ----------------------------------------
	BYTE	PATT
	 POIN2	vs_stela_map_7_027
// 056   ----------------------------------------
	BYTE	PATT
	 POIN2	vs_stela_map_7_028
// 057   ----------------------------------------
	BYTE	PATT
	 POIN2	vs_stela_map_7_029
// 058   ----------------------------------------
	BYTE	PATT
	 POIN2	vs_stela_map_7_028
// 059   ----------------------------------------
	BYTE	PATT
	 POIN2	vs_stela_map_7_029
// 060   ----------------------------------------
	BYTE		VOICE   35
	BYTE		PAN     c_v-29
	BYTE		VOL     35*vs_stela_map_mvl/mxv
	BYTE		PAN     c_v-29
	BYTE		VOL     35*vs_stela_map_mvl/mxv
	BYTE		PAN     c_v-29
	BYTE		VOL     35*vs_stela_map_mvl/mxv
	BYTE		BEND    c_v+0
	BYTE	FINE

//**************** Track 8 (Midi-Chn.10) ****************//

vs_stela_map_8:
	BYTE	KEYSH   vs_stela_map_key+0
// 000   ----------------------------------------
	BYTE		VOICE   0
	BYTE		PAN     c_v-29
	BYTE		VOL     35*vs_stela_map_mvl/mxv
	BYTE		PAN     c_v-29
	BYTE		VOL     35*vs_stela_map_mvl/mxv
	BYTE		PAN     c_v-29
	BYTE		VOL     35*vs_stela_map_mvl/mxv
	BYTE		PAN     c_v-29
	BYTE		VOL     35*vs_stela_map_mvl/mxv
	BYTE		        35*vs_stela_map_mvl/mxv
	BYTE		BEND    c_v+0
	BYTE		N03     Cn1   v100
	BYTE		N03     Fs1 
	BYTE	W12
	BYTE		N03   
	BYTE	W12
	BYTE		N03   
	BYTE	W12
	BYTE		        Cn1 
	BYTE		N03     Fs1 
	BYTE	W12
	BYTE		N03   
	BYTE	W12
	BYTE		N03   
	BYTE	W12
	BYTE		        Cn1 
	BYTE		N03     Fs1 
	BYTE	W12
	BYTE		N03   
	BYTE	W12
// 001   ----------------------------------------
vs_stela_map_8_001:
	BYTE		N03     Fs1   v100
	BYTE	W12
	BYTE		        Cn1 
	BYTE		N03     Fs1 
	BYTE	W12
	BYTE		N03   
	BYTE	W12
	BYTE		N03   
	BYTE	W12
	BYTE		        Cn1 
	BYTE		N03     Fs1 
	BYTE	W03
	BYTE		N03   
	BYTE	W03
	BYTE		N03   
	BYTE	W06
	BYTE		N03   
	BYTE	W12
	BYTE		        Cn1 
	BYTE		N03     Fs1 
	BYTE	W12
	BYTE		        As1 
	BYTE	W12
	BYTE	PEND
// 002   ----------------------------------------
	BYTE		        Cn1 
	BYTE		N03     Fs1 
	BYTE	W12
	BYTE		N03   
	BYTE	W12
	BYTE		N03   
	BYTE	W12
	BYTE		        Cn1 
	BYTE		N03     Fs1 
	BYTE	W12
	BYTE		N03   
	BYTE	W12
	BYTE		N03   
	BYTE	W12
	BYTE		        Cn1 
	BYTE		N03     Fs1 
	BYTE	W12
	BYTE		N03   
	BYTE	W12
// 003   ----------------------------------------
	BYTE	PATT
	 POIN2	vs_stela_map_8_001
// 004   ----------------------------------------
vs_stela_map_8_004:
	BYTE		N03     Cn1   v100
	BYTE		N03     Fs1 
	BYTE	W12
	BYTE		N03   
	BYTE	W12
	BYTE		N03   
	BYTE	W12
	BYTE		        Cn1 
	BYTE		N03     Fs1 
	BYTE	W12
	BYTE		N03   
	BYTE	W12
	BYTE		        Dn1 
	BYTE		N03     Fs1 
	BYTE	W12
	BYTE		N03   
	BYTE	W12
	BYTE		N03   
	BYTE	W12
	BYTE	PEND
// 005   ----------------------------------------
vs_stela_map_8_005:
	BYTE		N03     Cn1   v100
	BYTE		N03     Fs1 
	BYTE	W12
	BYTE		N03   
	BYTE	W12
	BYTE		        Dn1 
	BYTE		N03     Fs1 
	BYTE	W12
	BYTE		N03   
	BYTE	W12
	BYTE		        Cn1 
	BYTE		N03     Fs1 
	BYTE	W12
	BYTE		N03   
	BYTE	W12
	BYTE		N03   
	BYTE	W12
	BYTE		        Cn1 
	BYTE		N03     Fs1 
	BYTE	W12
	BYTE	PEND
// 006   ----------------------------------------
vs_stela_map_8_006:
	BYTE		N03     Fs1   v100
	BYTE	W12
	BYTE		        Dn1 
	BYTE		N03     Fs1 
	BYTE	W12
	BYTE		N03   
	BYTE	W12
	BYTE		N03   
	BYTE	W12
	BYTE		        Cn1 
	BYTE		N03     Fs1 
	BYTE	W12
	BYTE		N03   
	BYTE	W12
	BYTE		        Dn1 
	BYTE		N03     Fs1 
	BYTE	W12
	BYTE		N03   
	BYTE	W12
	BYTE	PEND
// 007   ----------------------------------------
	BYTE	PATT
	 POIN2	vs_stela_map_8_004
// 008   ----------------------------------------
	BYTE	PATT
	 POIN2	vs_stela_map_8_005
// 009   ----------------------------------------
	BYTE	PATT
	 POIN2	vs_stela_map_8_006
// 010   ----------------------------------------
	BYTE	PATT
	 POIN2	vs_stela_map_8_004
// 011   ----------------------------------------
	BYTE	PATT
	 POIN2	vs_stela_map_8_005
// 012   ----------------------------------------
	BYTE	PATT
	 POIN2	vs_stela_map_8_006
// 013   ----------------------------------------
	BYTE	PATT
	 POIN2	vs_stela_map_8_004
// 014   ----------------------------------------
	BYTE	PATT
	 POIN2	vs_stela_map_8_005
// 015   ----------------------------------------
	BYTE	PATT
	 POIN2	vs_stela_map_8_006
// 016   ----------------------------------------
vs_stela_map_8_016:
	BYTE		N03     Cn1   v100
	BYTE		N03     Fs1 
	BYTE	W12
	BYTE		N03   
	BYTE	W12
	BYTE		N03   
	BYTE	W12
	BYTE		        Dn1 
	BYTE		N03     Fs1 
	BYTE	W12
	BYTE		N03   
	BYTE	W12
	BYTE		N03   
	BYTE	W12
	BYTE		        Cn1 
	BYTE		N03     Fs1 
	BYTE	W12
	BYTE		N03   
	BYTE	W12
	BYTE	PEND
// 017   ----------------------------------------
vs_stela_map_8_017:
	BYTE		N03     Cn1   v100
	BYTE		N03     Fs1 
	BYTE	W12
	BYTE		N03   
	BYTE	W12
	BYTE		N03   
	BYTE	W12
	BYTE		        Dn1 
	BYTE		N03     Fs1 
	BYTE	W12
	BYTE		N03   
	BYTE	W12
	BYTE		N03   
	BYTE	W12
	BYTE		        Fn1 
	BYTE		N03     Fs1 
	BYTE	W06
	BYTE		        Fn1 
	BYTE	W06
	BYTE		        Fs1 
	BYTE	W12
	BYTE	PEND
// 018   ----------------------------------------
	BYTE	PATT
	 POIN2	vs_stela_map_8_016
// 019   ----------------------------------------
	BYTE	PATT
	 POIN2	vs_stela_map_8_017
// 020   ----------------------------------------
	BYTE	PATT
	 POIN2	vs_stela_map_8_016
// 021   ----------------------------------------
vs_stela_map_8_021:
	BYTE		N03     Fs1   v100
	BYTE	W12
	BYTE		        Dn1 
	BYTE		N03     Fs1 
	BYTE	W12
	BYTE		N03   
	BYTE	W12
	BYTE		N03   
	BYTE	W12
	BYTE		        Cn1 
	BYTE		N03     Fn1 
	BYTE		N03     Fs1 
	BYTE	W06
	BYTE		N03   
	BYTE	W06
	BYTE		N03   
	BYTE	W12
	BYTE		        Cn1 
	BYTE		N03     Fn1 
	BYTE		N03     Fs1 
	BYTE	W12
	BYTE		        As1 
	BYTE	W12
	BYTE	PEND
// 022   ----------------------------------------
	BYTE	PATT
	 POIN2	vs_stela_map_8_016
// 023   ----------------------------------------
	BYTE	PATT
	 POIN2	vs_stela_map_8_021
// 024   ----------------------------------------
vs_stela_map_8_024:
	BYTE		N03     Cn1   v100
	BYTE		N03     Dn1 
	BYTE		N03     Fs1 
	BYTE	W12
	BYTE		N03   
	BYTE	W12
	BYTE		N03   
	BYTE	W12
	BYTE		        Cn1 
	BYTE		N03     Dn1 
	BYTE		N03     Fs1 
	BYTE	W12
	BYTE		N03   
	BYTE	W12
	BYTE		N03   
	BYTE	W12
	BYTE		        Dn1 
	BYTE		N03     Fs1 
	BYTE	W12
	BYTE		        Cn1 
	BYTE		N03     Fs1 
	BYTE	W12
	BYTE	PEND
// 025   ----------------------------------------
	BYTE	PATT
	 POIN2	vs_stela_map_8_024
// 026   ----------------------------------------
	BYTE	PATT
	 POIN2	vs_stela_map_8_024
// 027   ----------------------------------------
	BYTE	PATT
	 POIN2	vs_stela_map_8_024
// 028   ----------------------------------------
	BYTE	PATT
	 POIN2	vs_stela_map_8_016
// 029   ----------------------------------------
vs_stela_map_8_029:
	BYTE		N03     Fs1   v100
	BYTE	W12
	BYTE		        Dn1 
	BYTE		N03     Fs1 
	BYTE	W12
	BYTE		N03   
	BYTE	W12
	BYTE		N03   
	BYTE	W12
	BYTE		        Cn1 
	BYTE		N03     Fs1 
	BYTE	W12
	BYTE		N03   
	BYTE	W12
	BYTE		        Cn1 
	BYTE		N03     Fs1 
	BYTE	W12
	BYTE		N03   
	BYTE	W12
	BYTE	PEND
// 030   ----------------------------------------
	BYTE	PATT
	 POIN2	vs_stela_map_8_016
// 031   ----------------------------------------
	BYTE	PATT
	 POIN2	vs_stela_map_8_029
// 032   ----------------------------------------
	BYTE		VOL     35*vs_stela_map_mvl/mxv
	BYTE		N03     Cn1   v100
	BYTE		N03     Fs1 
	BYTE	W12
	BYTE		N03   
	BYTE	W12
	BYTE		N03   
	BYTE	W12
	BYTE		        Cn1 
	BYTE		N03     Fs1 
	BYTE	W12
	BYTE		N03   
	BYTE	W12
	BYTE		        Dn1 
	BYTE		N03     Fs1 
	BYTE	W12
	BYTE		N03   
	BYTE	W12
	BYTE		N03   
	BYTE	W12
// 033   ----------------------------------------
	BYTE	PATT
	 POIN2	vs_stela_map_8_005
// 034   ----------------------------------------
	BYTE	PATT
	 POIN2	vs_stela_map_8_006
// 035   ----------------------------------------
	BYTE	PATT
	 POIN2	vs_stela_map_8_004
// 036   ----------------------------------------
	BYTE	PATT
	 POIN2	vs_stela_map_8_005
// 037   ----------------------------------------
	BYTE	PATT
	 POIN2	vs_stela_map_8_006
// 038   ----------------------------------------
	BYTE	PATT
	 POIN2	vs_stela_map_8_004
// 039   ----------------------------------------
	BYTE	PATT
	 POIN2	vs_stela_map_8_005
// 040   ----------------------------------------
	BYTE	PATT
	 POIN2	vs_stela_map_8_006
// 041   ----------------------------------------
	BYTE	PATT
	 POIN2	vs_stela_map_8_004
// 042   ----------------------------------------
	BYTE	PATT
	 POIN2	vs_stela_map_8_005
// 043   ----------------------------------------
	BYTE	PATT
	 POIN2	vs_stela_map_8_006
// 044   ----------------------------------------
	BYTE	PATT
	 POIN2	vs_stela_map_8_016
// 045   ----------------------------------------
	BYTE	PATT
	 POIN2	vs_stela_map_8_017
// 046   ----------------------------------------
	BYTE	PATT
	 POIN2	vs_stela_map_8_016
// 047   ----------------------------------------
	BYTE	PATT
	 POIN2	vs_stela_map_8_017
// 048   ----------------------------------------
	BYTE	PATT
	 POIN2	vs_stela_map_8_016
// 049   ----------------------------------------
	BYTE	PATT
	 POIN2	vs_stela_map_8_021
// 050   ----------------------------------------
	BYTE	PATT
	 POIN2	vs_stela_map_8_016
// 051   ----------------------------------------
	BYTE	PATT
	 POIN2	vs_stela_map_8_021
// 052   ----------------------------------------
	BYTE	PATT
	 POIN2	vs_stela_map_8_024
// 053   ----------------------------------------
	BYTE	PATT
	 POIN2	vs_stela_map_8_024
// 054   ----------------------------------------
	BYTE	PATT
	 POIN2	vs_stela_map_8_024
// 055   ----------------------------------------
	BYTE	PATT
	 POIN2	vs_stela_map_8_024
// 056   ----------------------------------------
	BYTE	PATT
	 POIN2	vs_stela_map_8_016
// 057   ----------------------------------------
	BYTE	PATT
	 POIN2	vs_stela_map_8_029
// 058   ----------------------------------------
	BYTE	PATT
	 POIN2	vs_stela_map_8_016
// 059   ----------------------------------------
	BYTE	PATT
	 POIN2	vs_stela_map_8_029
// 060   ----------------------------------------
	BYTE		VOICE   0
	BYTE		PAN     c_v-29
	BYTE		VOL     35*vs_stela_map_mvl/mxv
	BYTE		PAN     c_v-29
	BYTE		VOL     35*vs_stela_map_mvl/mxv
	BYTE		PAN     c_v-29
	BYTE		VOL     35*vs_stela_map_mvl/mxv
	BYTE		BEND    c_v+0
	BYTE	FINE

//******************************************************//
	ALIGN 4

vs_stela_map:
	BYTE	8	// NumTrks
	BYTE	0	// NumBlks
	BYTE	vs_stela_map_pri	// Priority
	BYTE	vs_stela_map_rev	// Reverb.

	POIN2	vs_stela_map_grp

	POIN2	vs_stela_map_1
	POIN2	vs_stela_map_2
	POIN2	vs_stela_map_3
	POIN2	vs_stela_map_4
	POIN2	vs_stela_map_5
	POIN2	vs_stela_map_6
	POIN2	vs_stela_map_7
	POIN2	vs_stela_map_8

	
