//Event file generated from Sappy .s format.
	#include "MPlayDef.event"

	#define	feifSkirmishCalm_grp  voicegroup000
	#define	feifSkirmishCalm_pri  0
	#define	feifSkirmishCalm_rev  0
	#define	feifSkirmishCalm_mvl  67
	#define	feifSkirmishCalm_key  0
	#define	feifSkirmishCalm_tbs  1
	#define	feifSkirmishCalm_exg  0
	#define	feifSkirmishCalm_cmp  1

	// .rodata
	//	feifSkirmishCalm
	ALIGN 4

//**************** Track 1 (Midi-Chn.3) ****************//

feifSkirmishCalm_1:
	BYTE		VOL     127*feifSkirmishCalm_mvl/mxv
	BYTE	KEYSH   feifSkirmishCalm_key+0
feifSkirmishCalm_1_B1:
// 000   ----------------------------------------
	BYTE	TEMPO   94*feifSkirmishCalm_tbs/2
	BYTE		VOICE   2
	BYTE		N36     An3   v080
	BYTE		N36     As3 
	BYTE		N36     Fn4 
	BYTE	W32
	BYTE	W02
	BYTE	W02
	BYTE		N60     Fs3 
	BYTE		N60     Gn3 
	BYTE		N60     Dn4 
	BYTE	W56
	BYTE	W02
	BYTE	W02
// 001   ----------------------------------------
	BYTE		N36     Ds3 
	BYTE		N36     Gn3 
	BYTE		N36     Dn4 
	BYTE	W32
	BYTE	W02
	BYTE	W02
	BYTE		N24     Ds3 
	BYTE		N24     Fn3 
	BYTE		N24     Cn4 
	BYTE	W24
	BYTE		N12   
	BYTE	W12
	BYTE		N24     Fn4 
	BYTE		N24     Cn5 
	BYTE	W22
	BYTE	W02
// 002   ----------------------------------------
	BYTE		N36     An3 
	BYTE		N36     As3 
	BYTE		N36     Fn4 
	BYTE	W32
	BYTE	W02
	BYTE	W02
	BYTE		N60     Fs3 
	BYTE		N60     Gn3 
	BYTE		N60     Dn4 
	BYTE	W56
	BYTE	W02
	BYTE	W02
// 003   ----------------------------------------
	BYTE		N36     Ds3 
	BYTE		N36     Fn3 
	BYTE		N36     Ds4 
	BYTE	W32
	BYTE	W02
	BYTE	W02
	BYTE		        Fs3 
	BYTE		N36     As3 
	BYTE		N36     Fn4 
	BYTE	W36
	BYTE		N24     As3 
	BYTE	W24
// 004   ----------------------------------------
feifSkirmishCalm_1_004:
	BYTE		N24     Fn3   v080
	BYTE		N24     An3 
	BYTE		N24     As3 
	BYTE	W24
	BYTE		N12     Gn3 
	BYTE	W10
	BYTE	W02
	BYTE		        Dn3 
	BYTE		N12     Fs3 
	BYTE	W12
	BYTE		N24     Gn3 
	BYTE	W24
	BYTE		        Dn4 
	BYTE	W22
	BYTE	W02
	BYTE	PEND
// 005   ----------------------------------------
	BYTE		        Ds3 
	BYTE		N24     Gn3 
	BYTE		N24     Dn4 
	BYTE	W24
	BYTE		N12     Cn4 
	BYTE	W10
	BYTE	W02
	BYTE		        Ds3 
	BYTE		N12     Fn3 
	BYTE	W12
	BYTE		N24     Fn4 
	BYTE	W24
	BYTE		        Gn4 
	BYTE		N12     Cn5 
	BYTE	W22
	BYTE	W02
// 006   ----------------------------------------
	BYTE		N36     An3 
	BYTE		N36     As3 
	BYTE		N36     Dn4 
	BYTE	W32
	BYTE	W02
	BYTE	W02
	BYTE		N48     Dn3 
	BYTE		N48     Fs3 
	BYTE		N48     Gn3 
	BYTE	W48
	BYTE		N12   
	BYTE	W10
	BYTE	W02
// 007   ----------------------------------------
	BYTE		        Ds3 
	BYTE		N12     Fn3 
	BYTE		N12     Dn4 
	BYTE	W12
	BYTE		        Fn3 
	BYTE	W12
	BYTE		        Gn3 
	BYTE	W10
	BYTE	W02
	BYTE		N36     Fs3 
	BYTE		N36     As3 
	BYTE		N36     Cn4 
	BYTE	W36
	BYTE		N24     As3 
	BYTE	W24
// 008   ----------------------------------------
	BYTE	PATT
	 POIN2	feifSkirmishCalm_1_004
// 009   ----------------------------------------
	BYTE		N24     Ds3   v080
	BYTE		N24     Gn3 
	BYTE		N24     Dn4 
	BYTE	W24
	BYTE		N12     Cn4 
	BYTE	W10
	BYTE	W02
	BYTE		        Ds3 
	BYTE		N12     Fn3 
	BYTE	W12
	BYTE		N24     Fn4 
	BYTE	W24
	BYTE		        Gn4 
	BYTE	W22
	BYTE	W02
// 010   ----------------------------------------
	BYTE		N36     As3 
	BYTE		N36     Fn4 
	BYTE		N36     An4 
	BYTE	W32
	BYTE	W02
	BYTE	W02
	BYTE		N48     Dn4 
	BYTE		N48     Fn4 
	BYTE		N48     Gn4 
	BYTE		N48     As4 
	BYTE	W48
	BYTE		N12     Gn4 
	BYTE	W10
	BYTE	W02
// 011   ----------------------------------------
	BYTE		N36     Ds4 
	BYTE		N36     Fn4 
	BYTE		N36     Dn5 
	BYTE	W32
	BYTE	W02
	BYTE	W02
	BYTE		        Fn4 
	BYTE		N36     Fs4 
	BYTE		N36     As4 
	BYTE		N36     Cn5 
	BYTE	W36
	BYTE		N12     Ds4 
	BYTE	W12
	BYTE		        An3 
	BYTE	W12
// 012   ----------------------------------------
feifSkirmishCalm_1_012:
	BYTE		N18     Dn3   v080
	BYTE		N18     Gn3 
	BYTE		N18     As3 
	BYTE	W18
	BYTE		        Gn3 
	BYTE		N18     Fn4 
	BYTE	W16
	BYTE	W02
	BYTE		        Fn3 
	BYTE		N18     An3 
	BYTE		N18     Cn4 
	BYTE	W18
	BYTE		N30     As3 
	BYTE		N30     Dn4 
	BYTE	W30
	BYTE		N12     Gn3 
	BYTE	W10
	BYTE	W02
	BYTE	PEND
// 013   ----------------------------------------
feifSkirmishCalm_1_013:
	BYTE		N18     Fn3   v080
	BYTE		N18     Gn3 
	BYTE		N18     As3 
	BYTE	W18
	BYTE		        Gn3 
	BYTE		N18     Fn4 
	BYTE	W16
	BYTE	W02
	BYTE		        Fn3 
	BYTE		N18     An3 
	BYTE		N18     Cn4 
	BYTE	W18
	BYTE		N30     Fn3 
	BYTE		N30     As3 
	BYTE	W30
	BYTE		N12     Gn3 
	BYTE	W10
	BYTE	W02
	BYTE	PEND
// 014   ----------------------------------------
	BYTE		N18     Dn3 
	BYTE		N18     Gn3 
	BYTE		N18     As3 
	BYTE	W18
	BYTE		        Gn3 
	BYTE		N18     Fn4 
	BYTE	W16
	BYTE	W02
	BYTE		        Fn3 
	BYTE		N18     An3 
	BYTE		N18     Cn4 
	BYTE	W18
	BYTE		N30     As3 
	BYTE		N30     Dn4 
	BYTE	W30
	BYTE		N12     As3 
	BYTE	W10
	BYTE	W02
// 015   ----------------------------------------
	BYTE		N06     Fn4 
	BYTE	W06
	BYTE		        As3 
	BYTE	W06
	BYTE		        Gn3 
	BYTE	W06
	BYTE		        Ds4 
	BYTE	W06
	BYTE		        As3 
	BYTE	W06
	BYTE		        Gn3 
	BYTE	W04
	BYTE	W02
	BYTE		        Dn4 
	BYTE	W06
	BYTE		        An3 
	BYTE	W06
	BYTE		        Fs3 
	BYTE	W06
	BYTE		N30     Cn4 
	BYTE	W30
	BYTE		N12     An3 
	BYTE	W12
// 016   ----------------------------------------
	BYTE	PATT
	 POIN2	feifSkirmishCalm_1_012
// 017   ----------------------------------------
	BYTE	PATT
	 POIN2	feifSkirmishCalm_1_013
// 018   ----------------------------------------
	BYTE		N18     Dn3   v080
	BYTE		N18     Gn3 
	BYTE		N18     As3 
	BYTE	W18
	BYTE		        Gn3 
	BYTE		N18     Fn4 
	BYTE	W16
	BYTE	W02
	BYTE		        Fn3 
	BYTE		N18     An3 
	BYTE		N18     Cn4 
	BYTE	W18
	BYTE		        As3 
	BYTE		N18     Dn4 
	BYTE	W30
	BYTE		N12   
	BYTE	W10
	BYTE	W02
// 019   ----------------------------------------
	BYTE		N06     As4 
	BYTE	W06
	BYTE		        Dn4 
	BYTE	W06
	BYTE		        Cn4 
	BYTE	W06
	BYTE		        As4 
	BYTE	W06
	BYTE		        Dn4 
	BYTE	W06
	BYTE		        Cn4 
	BYTE	W04
	BYTE	W02
	BYTE		        An4 
	BYTE	W06
	BYTE		        Cn4 
	BYTE	W06
	BYTE		        As3 
	BYTE	W06
	BYTE		        Gn4 
	BYTE	W18
	BYTE		        An4 
	BYTE	W06
	BYTE		        As4 
	BYTE	W06
	BYTE		N12     Cn5 
	BYTE	W12
// 020   ----------------------------------------
feifSkirmishCalm_1_020:
	BYTE		N18     Ds4   v080
	BYTE		N18     Gn4 
	BYTE		N18     Dn5 
	BYTE	W18
	BYTE		        Gn4 
	BYTE	W16
	BYTE	W02
	BYTE		        Ds4 
	BYTE		N18     Gn4 
	BYTE		N18     An4 
	BYTE		N18     Dn5 
	BYTE	W18
	BYTE		        Gn4 
	BYTE	W18
	BYTE		N06     Dn5 
	BYTE	W06
	BYTE		        Ds5 
	BYTE	W06
	BYTE		N12     Dn5 
	BYTE	W10
	BYTE	W02
	BYTE	PEND
// 021   ----------------------------------------
feifSkirmishCalm_1_021:
	BYTE		N18     Cn4   v080
	BYTE		N18     Fn4 
	BYTE		N18     Cn5 
	BYTE	W18
	BYTE		        Fn4 
	BYTE	W16
	BYTE	W02
	BYTE		N18   
	BYTE		N18     Cn5 
	BYTE	W18
	BYTE		        Dn4 
	BYTE		N18     As4 
	BYTE	W18
	BYTE		N06     An4 
	BYTE	W06
	BYTE		        As4 
	BYTE	W06
	BYTE		N12     Cn5 
	BYTE	W10
	BYTE	W02
	BYTE	PEND
// 022   ----------------------------------------
feifSkirmishCalm_1_022:
	BYTE		N18     Ds4   v080
	BYTE		N18     Gn4 
	BYTE		N18     Dn5 
	BYTE	W18
	BYTE		        Gn4 
	BYTE	W16
	BYTE	W02
	BYTE		        Fn4 
	BYTE		N18     Gn4 
	BYTE		N18     An4 
	BYTE		N18     Dn5 
	BYTE	W18
	BYTE		        Fn4 
	BYTE	W18
	BYTE		N06     Dn5 
	BYTE	W06
	BYTE		        Ds5 
	BYTE	W06
	BYTE		N12     Dn5 
	BYTE	W10
	BYTE	W02
	BYTE	PEND
// 023   ----------------------------------------
	BYTE		N18     Dn4 
	BYTE		N18     Fn4 
	BYTE		N18     Cn5 
	BYTE	W18
	BYTE		        Fn5 
	BYTE	W16
	BYTE	W02
	BYTE		        Dn4 
	BYTE		N18     Fn4 
	BYTE		N18     Cn5 
	BYTE	W18
	BYTE		        As4 
	BYTE	W18
	BYTE		N06     An4 
	BYTE	W06
	BYTE		        As4 
	BYTE	W06
	BYTE		N12     Cn5 
	BYTE	W12
// 024   ----------------------------------------
	BYTE	PATT
	 POIN2	feifSkirmishCalm_1_020
// 025   ----------------------------------------
	BYTE	PATT
	 POIN2	feifSkirmishCalm_1_021
// 026   ----------------------------------------
	BYTE		N18     Gn4   v080
	BYTE		N18     Dn5 
	BYTE	W18
	BYTE		        Gn4 
	BYTE	W16
	BYTE	W02
	BYTE		        Fs4 
	BYTE		N18     Dn5 
	BYTE	W18
	BYTE		        Fs4 
	BYTE	W18
	BYTE		N06     As4 
	BYTE		N06     Dn5 
	BYTE	W06
	BYTE		        Ds5 
	BYTE	W06
	BYTE		N12     Dn5 
	BYTE	W10
	BYTE	W02
// 027   ----------------------------------------
	BYTE		N18     Fn4 
	BYTE		N18     As4 
	BYTE		N18     Cn5 
	BYTE	W18
	BYTE		        Fn5 
	BYTE	W16
	BYTE	W02
	BYTE		        Dn4 
	BYTE		N18     Fn4 
	BYTE		N18     Cn5 
	BYTE	W18
	BYTE		N42     As4 
	BYTE	W42
// 028   ----------------------------------------
	BYTE		N24     As2 
	BYTE	W01
	BYTE		N22     Cn3 
	BYTE	W01
	BYTE		N21     An3 
	BYTE	W22
	BYTE		N12     Cn3 
	BYTE	W12
	BYTE		        As2 
	BYTE	W12
	BYTE		N24     An2 
	BYTE	W24
	BYTE		        As2 
	BYTE	W24
// 029   ----------------------------------------
	BYTE		        Fn3 
	BYTE	W24
	BYTE		        Cn3 
	BYTE	W24
	BYTE		        Dn3 
	BYTE	W24
	BYTE		        An3 
	BYTE	W16
	BYTE	W08
// 030   ----------------------------------------
	BYTE		N48     An2 
	BYTE		N48     As2 
	BYTE		N48     Fn3 
	BYTE	W01
	BYTE	W44
	BYTE	W03
	BYTE		N06     Fn4 
	BYTE	W06
	BYTE		        As3 
	BYTE	W06
	BYTE		        An3 
	BYTE	W06
	BYTE		        Cn4 
	BYTE	W06
	BYTE		N24     Fn3 
	BYTE	W24
// 031   ----------------------------------------
	BYTE		        As2 
	BYTE	W24
	BYTE		        An2 
	BYTE	W24
	BYTE		        As2 
	BYTE	W24
	BYTE		        Gn3 
	BYTE	W16
	BYTE	W08
// 032   ----------------------------------------
	BYTE		        Gs2 
	BYTE	W01
	BYTE		N22     As2 
	BYTE	W01
	BYTE		N21     Fn3 
	BYTE	W02
	BYTE	W20
	BYTE		N24     Cn3 
	BYTE	W24
	BYTE		        Gs2 
	BYTE	W24
	BYTE		        As2 
	BYTE	W24
// 033   ----------------------------------------
	BYTE		        Ds3 
	BYTE	W24
	BYTE		        As2 
	BYTE	W24
	BYTE		        Cn3 
	BYTE	W24
	BYTE		        Gn3 
	BYTE	W18
	BYTE	W06
// 034   ----------------------------------------
	BYTE		N48     Gs2 
	BYTE		N48     As2 
	BYTE		N48     Ds3 
	BYTE	W02
	BYTE	W44
	BYTE	W02
	BYTE		N06     Ds4 
	BYTE	W06
	BYTE		        Gs3 
	BYTE	W06
	BYTE		        Gn3 
	BYTE	W06
	BYTE		        Ds3 
	BYTE	W06
	BYTE		        As2 
	BYTE	W06
	BYTE		        Gn3 
	BYTE	W06
	BYTE		N12     Ds4 
	BYTE	W12
// 035   ----------------------------------------
	BYTE		N24     As2 
	BYTE	W24
	BYTE		        Gn2 
	BYTE	W24
	BYTE		        Gs2 
	BYTE	W24
	BYTE		        Fn3 
	BYTE	W24
// 036   ----------------------------------------
	BYTE		        Fs2 
	BYTE	W01
	BYTE		N22     Gs2 
	BYTE	W01
	BYTE		N21     Ds3 
	BYTE	W22
	BYTE		N24   
	BYTE	W24
	BYTE		        As2 
	BYTE	W24
	BYTE		        Bn2 
	BYTE	W24
// 037   ----------------------------------------
	BYTE		        Fs3 
	BYTE	W24
	BYTE		        Cs3 
	BYTE	W24
	BYTE		        Ds3 
	BYTE	W24
	BYTE		        As3 
	BYTE	W16
	BYTE	W08
// 038   ----------------------------------------
	BYTE		        Cs3 
	BYTE		N24     Fs3 
	BYTE	W01
	BYTE	W44
	BYTE	W03
	BYTE		N06     Cs4 
	BYTE	W06
	BYTE		        Gs3 
	BYTE	W06
	BYTE		        Fs3 
	BYTE	W06
	BYTE		        Fn3 
	BYTE	W06
	BYTE		N24     Cs3 
	BYTE	W24
// 039   ----------------------------------------
	BYTE	W24
	BYTE		        Gs2 
	BYTE	W24
	BYTE		        As2 
	BYTE	W24
	BYTE		        Fn3 
	BYTE	W16
	BYTE	W08
// 040   ----------------------------------------
	BYTE		        Gn2 
	BYTE		N24     An2 
	BYTE	W04
	BYTE	W20
	BYTE		        Dn3 
	BYTE	W24
	BYTE		        Cn3 
	BYTE	W24
	BYTE		        Gn3 
	BYTE	W24
// 041   ----------------------------------------
	BYTE		N48     Dn3 
	BYTE	W48
	BYTE		N24     Cn3 
	BYTE	W24
	BYTE		        An3 
	BYTE	W18
	BYTE	W06
// 042   ----------------------------------------
	BYTE		N48     Dn3 
	BYTE	W02
	BYTE	W64
	BYTE		N06   
	BYTE	W06
	BYTE		        Gn3 
	BYTE	W06
	BYTE		        An3 
	BYTE	W06
	BYTE		        Dn4 
	BYTE	W06
	BYTE		        Gn4 
	BYTE	W06
// 043   ----------------------------------------
	BYTE		N72     An4 
	BYTE	W01
	BYTE		N68     Dn5 
	BYTE	W80
	BYTE	W03
	BYTE		N12     Gn4 
	BYTE	W12
// 044   ----------------------------------------
	BYTE		N18     As4 
	BYTE	W18
	BYTE		N12     Fn5 
	BYTE	W12
	BYTE		N06     Fn4 
	BYTE	W04
	BYTE	W02
	BYTE		N18     Cn5 
	BYTE	W18
	BYTE		N12     Dn5 
	BYTE	W12
	BYTE		N06     Fn4 
	BYTE	W06
	BYTE		        An4 
	BYTE	W06
	BYTE		        As4 
	BYTE	W06
	BYTE		N12     Gn4 
	BYTE		N12     Cn5 
	BYTE	W10
	BYTE	W02
// 045   ----------------------------------------
	BYTE		N18     As4 
	BYTE	W18
	BYTE		        Fn5 
	BYTE	W16
	BYTE	W02
	BYTE		        Cn5 
	BYTE	W18
	BYTE		N12     As4 
	BYTE	W12
	BYTE		N06     As3 
	BYTE	W06
	BYTE		        Cn4 
	BYTE	W06
	BYTE		        Fn4 
	BYTE	W06
	BYTE		N12     Gn4 
	BYTE	W10
	BYTE	W02
// 046   ----------------------------------------
	BYTE		N18     As4 
	BYTE	W18
	BYTE		        Fn5 
	BYTE	W16
	BYTE	W02
	BYTE		N24     Cn5 
	BYTE	W18
	BYTE		N06     Dn5 
	BYTE	W06
	BYTE		        Cn4 
	BYTE	W06
	BYTE		        Fn4 
	BYTE	W06
	BYTE		        An4 
	BYTE	W06
	BYTE		        As4 
	BYTE	W06
	BYTE		N12     Cn5 
	BYTE		N12     Dn5 
	BYTE	W10
	BYTE	W02
// 047   ----------------------------------------
	BYTE		N18     Fn5 
	BYTE	W18
	BYTE		N06     Ds5 
	BYTE	W06
	BYTE		N12     As4 
	BYTE	W10
	BYTE	W02
	BYTE		N06     Dn5 
	BYTE	W06
	BYTE		        An4 
	BYTE	W06
	BYTE		        Fs4 
	BYTE	W06
	BYTE		        Cn5 
	BYTE	W12
	BYTE		        An3 
	BYTE	W06
	BYTE		        Fs3 
	BYTE	W12
	BYTE		N12     An3 
	BYTE	W12
// 048   ----------------------------------------
	BYTE		N18     As3 
	BYTE	W18
	BYTE		N18   
	BYTE		N18     Cn4 
	BYTE		N18     Fn4 
	BYTE	W16
	BYTE	W02
	BYTE		        An3 
	BYTE		N18     Cn4 
	BYTE	W18
	BYTE		        Dn4 
	BYTE	W30
	BYTE		N12     An3 
	BYTE	W10
	BYTE	W02
// 049   ----------------------------------------
	BYTE		N18     Gn3 
	BYTE		N18     As3 
	BYTE	W18
	BYTE		        Fn3 
	BYTE		N18     As3 
	BYTE		N18     Fn4 
	BYTE	W16
	BYTE	W02
	BYTE		        Fn3 
	BYTE		N18     As3 
	BYTE		N18     Cn4 
	BYTE	W18
	BYTE		        As3 
	BYTE	W30
	BYTE		N12     An3 
	BYTE	W10
	BYTE	W02
// 050   ----------------------------------------
	BYTE		N18     As2 
	BYTE		N18     Cn3 
	BYTE		N18     As3 
	BYTE	W18
	BYTE		        Fn3 
	BYTE		N18     As3 
	BYTE		N18     Fn4 
	BYTE	W16
	BYTE	W02
	BYTE		        Cn3 
	BYTE		N18     Fn3 
	BYTE		N18     Cn4 
	BYTE	W18
	BYTE		N06     Dn4 
	BYTE	W30
	BYTE		N12   
	BYTE	W10
	BYTE	W02
// 051   ----------------------------------------
	BYTE		N18     Fn4 
	BYTE		N18     An4 
	BYTE		N18     As4 
	BYTE	W18
	BYTE		        Ds4 
	BYTE		N18     Fn4 
	BYTE		N18     As4 
	BYTE	W16
	BYTE	W02
	BYTE		        Cn4 
	BYTE		N18     Dn4 
	BYTE		N18     An4 
	BYTE	W18
	BYTE		        As3 
	BYTE		N18     Gn4 
	BYTE	W18
	BYTE		N06     An4 
	BYTE	W06
	BYTE		        As4 
	BYTE	W06
	BYTE		N12     Cn5 
	BYTE	W12
// 052   ----------------------------------------
	BYTE	PATT
	 POIN2	feifSkirmishCalm_1_020
// 053   ----------------------------------------
	BYTE		N18     Cn4   v080
	BYTE		N18     Fn4 
	BYTE		N18     Cn5 
	BYTE	W18
	BYTE		        Fn4 
	BYTE	W16
	BYTE	W02
	BYTE		N18   
	BYTE		N18     Cn5 
	BYTE	W18
	BYTE		        As4 
	BYTE	W18
	BYTE		N06     An4 
	BYTE	W06
	BYTE		        As4 
	BYTE	W06
	BYTE		N12     Cn5 
	BYTE	W10
	BYTE	W02
// 054   ----------------------------------------
	BYTE	PATT
	 POIN2	feifSkirmishCalm_1_022
// 055   ----------------------------------------
	BYTE		N18     Fn4   v080
	BYTE		N18     Gn4 
	BYTE		N18     Cn5 
	BYTE	W18
	BYTE		        Fn5 
	BYTE	W16
	BYTE	W02
	BYTE		        Fn4 
	BYTE		N18     Gn4 
	BYTE		N18     Cn5 
	BYTE	W18
	BYTE		        As4 
	BYTE	W18
	BYTE		N06     En4 
	BYTE		N06     An4 
	BYTE	W06
	BYTE		        As4 
	BYTE	W06
	BYTE		N12     Cn5 
	BYTE	W12
// 056   ----------------------------------------
	BYTE	PATT
	 POIN2	feifSkirmishCalm_1_020
// 057   ----------------------------------------
	BYTE	PATT
	 POIN2	feifSkirmishCalm_1_021
// 058   ----------------------------------------
	BYTE		N18     Gn4   v080
	BYTE		N18     As4 
	BYTE		N18     Dn5 
	BYTE	W18
	BYTE		        Gn4 
	BYTE	W16
	BYTE	W02
	BYTE		        Fs4 
	BYTE		N18     An4 
	BYTE		N18     Dn5 
	BYTE	W18
	BYTE		        Fs4 
	BYTE	W18
	BYTE		N06     Dn5 
	BYTE	W06
	BYTE		        Ds5 
	BYTE	W06
	BYTE		N12     Dn5 
	BYTE	W10
	BYTE	W02
// 059   ----------------------------------------
	BYTE		N18     Fn4 
	BYTE		N18     An4 
	BYTE		N18     Cn5 
	BYTE	W18
	BYTE		        Fn5 
	BYTE	W16
	BYTE	W02
	BYTE		        Dn4 
	BYTE		N18     Fn4 
	BYTE		N18     An4 
	BYTE		N18     Cn5 
	BYTE	W18
	BYTE		N42     As4 
	BYTE	W42
// 060   ----------------------------------------
	BYTE		N18     Ds4 
	BYTE	W01
	BYTE		N16     Gn4 
	BYTE	W01
	BYTE		N15     Dn5 
	BYTE	W16
	BYTE		N18     Gn4 
	BYTE	W16
	BYTE	W02
	BYTE		        An4 
	BYTE	W01
	BYTE		N16     Dn5 
	BYTE	W17
	BYTE		N42     Fn4 
	BYTE	W42
	BYTE	GoTo
	 POIN2	feifSkirmishCalm_1_B1
feifSkirmishCalm_1_B2:
// 061   ----------------------------------------
	BYTE	FINE

//**************** Track 2 (Midi-Chn.4) ****************//

feifSkirmishCalm_2:
	BYTE		VOL     127*feifSkirmishCalm_mvl/mxv
	BYTE	KEYSH   feifSkirmishCalm_key+0
feifSkirmishCalm_2_B1:
// 000   ----------------------------------------
	BYTE		VOICE   2
	BYTE		N12     Gn1   v080
	BYTE	W12
	BYTE		        Dn2 
	BYTE	W12
	BYTE		        Cn3 
	BYTE		N12     Dn3 
	BYTE		N12     Fn3 
	BYTE	W10
	BYTE	W02
	BYTE		N24     En1 
	BYTE	W24
	BYTE		N12     En2 
	BYTE	W12
	BYTE		        Gn2 
	BYTE	W12
	BYTE		        Dn3 
	BYTE	W10
	BYTE	W02
// 001   ----------------------------------------
feifSkirmishCalm_2_001:
	BYTE		N12     Ds1   v080
	BYTE	W12
	BYTE		        Ds2 
	BYTE	W12
	BYTE		        Gn2 
	BYTE	W10
	BYTE	W02
	BYTE		N60     Gs1 
	BYTE		N60     Ds2 
	BYTE		N60     Fn2 
	BYTE	W56
	BYTE	W02
	BYTE	W02
	BYTE	PEND
// 002   ----------------------------------------
feifSkirmishCalm_2_002:
	BYTE		N12     Gn1   v080
	BYTE	W12
	BYTE		        Dn2 
	BYTE	W12
	BYTE		        Cn3 
	BYTE		N12     Dn3 
	BYTE		N12     Fn3 
	BYTE	W10
	BYTE	W02
	BYTE		N24     En1 
	BYTE	W24
	BYTE		N12     En2 
	BYTE	W12
	BYTE		        Gn2 
	BYTE	W12
	BYTE		        Dn3 
	BYTE	W10
	BYTE	W02
	BYTE	PEND
// 003   ----------------------------------------
feifSkirmishCalm_2_003:
	BYTE		N12     Cn1   v080
	BYTE	W12
	BYTE		        As1 
	BYTE	W12
	BYTE		        Fn2 
	BYTE		N12     Gn2 
	BYTE	W10
	BYTE	W02
	BYTE		N24     Dn1 
	BYTE	W24
	BYTE		N36     Dn2 
	BYTE	W36
	BYTE	PEND
// 004   ----------------------------------------
feifSkirmishCalm_2_004:
	BYTE		N12     Gn1   v080
	BYTE	W12
	BYTE		        Dn2 
	BYTE	W12
	BYTE		        Cn3 
	BYTE		N12     Dn3 
	BYTE		N12     Fn3 
	BYTE	W10
	BYTE	W02
	BYTE		N24     En1 
	BYTE	W24
	BYTE		N12     En2 
	BYTE	W12
	BYTE		        Gn2 
	BYTE	W12
	BYTE		        Dn3 
	BYTE	W10
	BYTE	W02
	BYTE	PEND
// 005   ----------------------------------------
	BYTE	PATT
	 POIN2	feifSkirmishCalm_2_001
// 006   ----------------------------------------
	BYTE	PATT
	 POIN2	feifSkirmishCalm_2_002
// 007   ----------------------------------------
	BYTE	PATT
	 POIN2	feifSkirmishCalm_2_003
// 008   ----------------------------------------
	BYTE	PATT
	 POIN2	feifSkirmishCalm_2_004
// 009   ----------------------------------------
	BYTE	PATT
	 POIN2	feifSkirmishCalm_2_001
// 010   ----------------------------------------
	BYTE		N12     Gn1   v080
	BYTE	W12
	BYTE		        Dn2 
	BYTE	W12
	BYTE		        Cn3 
	BYTE		N12     Dn3 
	BYTE		N12     Fn3 
	BYTE	W10
	BYTE	W02
	BYTE		N24     Ds1 
	BYTE	W24
	BYTE		N12     Ds2 
	BYTE	W12
	BYTE		        Gn2 
	BYTE	W12
	BYTE		        As2 
	BYTE	W10
	BYTE	W02
// 011   ----------------------------------------
	BYTE		        Cn2 
	BYTE	W12
	BYTE		        As2 
	BYTE	W12
	BYTE		        Gn3 
	BYTE	W10
	BYTE	W02
	BYTE		N24     Dn2 
	BYTE	W24
	BYTE		N36     Dn3 
	BYTE	W36
// 012   ----------------------------------------
feifSkirmishCalm_2_012:
	BYTE		N12     Ds1   v080
	BYTE	W12
	BYTE		        An2 
	BYTE	W12
	BYTE		        As2 
	BYTE	W10
	BYTE	W02
	BYTE		N24     Gn1 
	BYTE	W24
	BYTE		N12     An2 
	BYTE	W12
	BYTE		        As2 
	BYTE	W12
	BYTE		        Fn2 
	BYTE	W10
	BYTE	W02
	BYTE	PEND
// 013   ----------------------------------------
feifSkirmishCalm_2_013:
	BYTE		N12     Ds1   v080
	BYTE	W12
	BYTE		        An2 
	BYTE	W12
	BYTE		        As2 
	BYTE	W10
	BYTE	W02
	BYTE		N24     Gn1 
	BYTE	W24
	BYTE		N12     An2 
	BYTE	W12
	BYTE		N24     As2 
	BYTE	W22
	BYTE	W02
	BYTE	PEND
// 014   ----------------------------------------
feifSkirmishCalm_2_014:
	BYTE		N12     Ds1   v080
	BYTE	W12
	BYTE		        An2 
	BYTE	W12
	BYTE		        As2 
	BYTE	W10
	BYTE	W02
	BYTE		N24     Gn1 
	BYTE	W24
	BYTE		N12     An2 
	BYTE	W12
	BYTE		        As2 
	BYTE	W12
	BYTE		        Fn3 
	BYTE	W10
	BYTE	W02
	BYTE	PEND
// 015   ----------------------------------------
	BYTE		        Cn1 
	BYTE	W12
	BYTE		        Cn2 
	BYTE	W12
	BYTE		        Ds2 
	BYTE	W10
	BYTE	W02
	BYTE		N24     Dn1 
	BYTE	W24
	BYTE		N12     Dn2 
	BYTE	W12
	BYTE		        Fs2 
	BYTE	W12
	BYTE		        An2 
	BYTE	W12
// 016   ----------------------------------------
	BYTE	PATT
	 POIN2	feifSkirmishCalm_2_012
// 017   ----------------------------------------
	BYTE	PATT
	 POIN2	feifSkirmishCalm_2_013
// 018   ----------------------------------------
	BYTE	PATT
	 POIN2	feifSkirmishCalm_2_014
// 019   ----------------------------------------
	BYTE		N18     Cn2   v080
	BYTE	W18
	BYTE		        Dn2 
	BYTE	W16
	BYTE	W02
	BYTE		N24     Gn1 
	BYTE	W24
	BYTE		N12     Dn2 
	BYTE	W12
	BYTE		        Fn2 
	BYTE	W12
	BYTE		        An2 
	BYTE	W12
// 020   ----------------------------------------
	BYTE		        Ds2 
	BYTE	W12
	BYTE		N24     As2 
	BYTE	W22
	BYTE	W02
	BYTE		N36     Ds2 
	BYTE	W36
	BYTE		N24   
	BYTE	W22
	BYTE	W02
// 021   ----------------------------------------
	BYTE		N12     Dn2 
	BYTE	W12
	BYTE		N24     An2 
	BYTE	W22
	BYTE	W02
	BYTE		N36     Gn1 
	BYTE		N36     Gn2 
	BYTE	W36
	BYTE		N24     Dn2 
	BYTE	W22
	BYTE	W02
// 022   ----------------------------------------
	BYTE		N12     Ds2 
	BYTE	W12
	BYTE		N24     As2 
	BYTE	W22
	BYTE	W02
	BYTE		N36     Fn2 
	BYTE	W36
	BYTE		N24     Cn3 
	BYTE	W22
	BYTE	W02
// 023   ----------------------------------------
	BYTE		N12     Gn2 
	BYTE	W12
	BYTE		N24     Dn3 
	BYTE	W22
	BYTE	W02
	BYTE		N36     Gn2 
	BYTE	W36
	BYTE		N24     En2 
	BYTE	W24
// 024   ----------------------------------------
	BYTE		        Ds2 
	BYTE	W24
	BYTE		N12     Gn2 
	BYTE	W10
	BYTE	W02
	BYTE		        Ds2 
	BYTE	W12
	BYTE		N24     As2 
	BYTE	W24
	BYTE		        Fn3 
	BYTE	W22
	BYTE	W02
// 025   ----------------------------------------
	BYTE		N36     Dn2 
	BYTE		N36     An2 
	BYTE	W32
	BYTE	W02
	BYTE	W02
	BYTE		N60     Gn1 
	BYTE		N12     Gn2 
	BYTE	W12
	BYTE		N18     As2 
	BYTE	W18
	BYTE		        Dn3 
	BYTE	W18
	BYTE		N12     Gn2 
	BYTE	W10
	BYTE	W02
// 026   ----------------------------------------
	BYTE		N36     Cn3 
	BYTE		N36     Ds3 
	BYTE	W32
	BYTE	W02
	BYTE	W02
	BYTE		        Dn3 
	BYTE		N36     Fs3 
	BYTE	W36
	BYTE		N24     As2 
	BYTE	W22
	BYTE	W02
// 027   ----------------------------------------
	BYTE		N36     Gn2 
	BYTE		N36     An2 
	BYTE	W32
	BYTE	W02
	BYTE	W02
	BYTE		        Fn2 
	BYTE		N36     As2 
	BYTE	W36
	BYTE		N24     Dn3 
	BYTE	W24
// 028   ----------------------------------------
	BYTE		TIE     Ds2 
	BYTE	W12
	BYTE		N12     As2 
	BYTE	W72
	BYTE		        Fn2   v060
	BYTE	W12
// 029   ----------------------------------------
	BYTE	W36
	BYTE		        As2 
	BYTE	W52
	BYTE	W08
	BYTE		EOT     Ds2 
// 030   ----------------------------------------
	BYTE		TIE     Dn2   v080
	BYTE	W01
	BYTE	W92
	BYTE	W03
// 031   ----------------------------------------
	BYTE	W60
	BYTE		N12     Fn2   v060
	BYTE	W28
	BYTE	W08
	BYTE		EOT     Dn2 
// 032   ----------------------------------------
	BYTE		TIE     Cs2   v080
	BYTE	W04
	BYTE	W80
	BYTE		N12     Fn2   v060
	BYTE	W12
// 033   ----------------------------------------
	BYTE	W60
	BYTE		N12   
	BYTE	W30
	BYTE	W06
	BYTE		EOT     Cs2 
// 034   ----------------------------------------
	BYTE		TIE     Cn2   v080
	BYTE	W02
	BYTE	W22
	BYTE		N12     Fn2   v060
	BYTE	W12
	BYTE		        Ds2 
	BYTE	W60
// 035   ----------------------------------------
	BYTE	W60
	BYTE		N12   
	BYTE	W36
	BYTE		EOT     Cn2 
// 036   ----------------------------------------
	BYTE		TIE     Bn1   v080
	BYTE	W96
// 037   ----------------------------------------
	BYTE	W36
	BYTE		N12     Fs2   v060
	BYTE	W52
	BYTE	W08
	BYTE		EOT     Bn1 
// 038   ----------------------------------------
	BYTE		TIE     As1   v080
	BYTE	W01
	BYTE	W92
	BYTE	W03
// 039   ----------------------------------------
	BYTE	W12
	BYTE		N12     Fs2   v060
	BYTE	W76
	BYTE	W08
	BYTE		EOT     As1 
// 040   ----------------------------------------
	BYTE		TIE     An1   v080
	BYTE	W04
	BYTE	W92
// 041   ----------------------------------------
	BYTE	W36
	BYTE		N12     Gn2   v060
	BYTE	W54
	BYTE	W06
	BYTE		EOT     An1 
// 042   ----------------------------------------
	BYTE		TIE     Dn2   v080
	BYTE		TIE     An2 
	BYTE		TIE     Cn3 
	BYTE	W02
	BYTE	W92
	BYTE	W02
// 043   ----------------------------------------
	BYTE	W96
	BYTE		EOT     Dn2 
	BYTE		        An2 
	BYTE		        Cn3 
// 044   ----------------------------------------
	BYTE		N06     Gn2 
	BYTE	W06
	BYTE		        Dn3 
	BYTE	W06
	BYTE		        An3 
	BYTE	W06
	BYTE		        As3 
	BYTE	W06
	BYTE		        Cn4 
	BYTE	W10
	BYTE	W02
	BYTE		        Fn2 
	BYTE	W06
	BYTE		        Dn3 
	BYTE	W06
	BYTE		        An3 
	BYTE	W06
	BYTE		        As3 
	BYTE	W06
	BYTE		        Cn4 
	BYTE	W32
	BYTE	W02
	BYTE	W02
// 045   ----------------------------------------
	BYTE		        Ds2 
	BYTE	W06
	BYTE		        Ds3 
	BYTE	W06
	BYTE		        An3 
	BYTE	W06
	BYTE		        As3 
	BYTE	W06
	BYTE		N12     Cn4 
	BYTE	W10
	BYTE	W02
	BYTE		N06     Dn2 
	BYTE	W06
	BYTE		        As2 
	BYTE	W06
	BYTE		        Cn3 
	BYTE	W06
	BYTE		        Fn3 
	BYTE	W06
	BYTE		        An3 
	BYTE	W32
	BYTE	W02
	BYTE	W02
// 046   ----------------------------------------
	BYTE		        Cn2 
	BYTE	W06
	BYTE		        As2 
	BYTE	W06
	BYTE		        Ds3 
	BYTE	W06
	BYTE		        Fn3 
	BYTE	W06
	BYTE		N12     As3 
	BYTE	W10
	BYTE	W02
	BYTE		N06     Dn2 
	BYTE	W06
	BYTE		        As2 
	BYTE	W06
	BYTE		        Fn3 
	BYTE	W06
	BYTE		        As3 
	BYTE	W40
	BYTE	W02
// 047   ----------------------------------------
	BYTE		        Ds2 
	BYTE	W06
	BYTE		        As2 
	BYTE	W06
	BYTE		        As3 
	BYTE	W06
	BYTE		        Ds4 
	BYTE	W16
	BYTE	W02
	BYTE		        Dn2 
	BYTE	W18
	BYTE		        Ds4 
	BYTE	W06
	BYTE		        Cn4 
	BYTE	W18
	BYTE		        Ds3 
	BYTE	W06
	BYTE		        Cn3 
	BYTE	W06
	BYTE		        An2 
	BYTE	W06
// 048   ----------------------------------------
	BYTE		N36     Gn2 
	BYTE	W32
	BYTE	W02
	BYTE	W02
	BYTE		N24     Fn2 
	BYTE	W24
	BYTE		N06     An2 
	BYTE	W06
	BYTE		        As2 
	BYTE	W06
	BYTE		        Fn3 
	BYTE	W06
	BYTE		        Cn3 
	BYTE	W06
	BYTE		N12     Dn3 
	BYTE	W10
	BYTE	W02
// 049   ----------------------------------------
	BYTE		N36     Ds2 
	BYTE	W32
	BYTE	W02
	BYTE	W02
	BYTE		N24     Dn2 
	BYTE	W24
	BYTE		N06     An2 
	BYTE	W06
	BYTE		        As2 
	BYTE	W06
	BYTE		        Fn3 
	BYTE	W06
	BYTE		        Cn3 
	BYTE	W06
	BYTE		        Dn3 
	BYTE	W06
	BYTE		        As2 
	BYTE	W04
	BYTE	W02
// 050   ----------------------------------------
	BYTE		N36     Cn2 
	BYTE	W32
	BYTE	W02
	BYTE	W02
	BYTE		N24     Dn2 
	BYTE	W24
	BYTE		N06     Cn3 
	BYTE	W06
	BYTE		        Dn3 
	BYTE	W06
	BYTE		        Fn3 
	BYTE	W06
	BYTE		        Cn3 
	BYTE	W06
	BYTE		        Dn3 
	BYTE	W06
	BYTE		        As2 
	BYTE	W04
	BYTE	W02
// 051   ----------------------------------------
	BYTE		N18     Ds2 
	BYTE	W18
	BYTE		        Fn2 
	BYTE	W16
	BYTE	W02
	BYTE		        Gn2 
	BYTE	W18
	BYTE		N42     Gn1 
	BYTE	W42
// 052   ----------------------------------------
	BYTE		N12     Ds1 
	BYTE	W12
	BYTE		        Ds2 
	BYTE	W12
	BYTE		        Gn2 
	BYTE	W10
	BYTE	W02
	BYTE		N36     Ds1 
	BYTE	W36
	BYTE		N24   
	BYTE	W22
	BYTE	W02
// 053   ----------------------------------------
	BYTE		N12     Dn1 
	BYTE	W12
	BYTE		        Dn2 
	BYTE	W12
	BYTE		        Fn2 
	BYTE	W10
	BYTE	W02
	BYTE		N36     Gn1 
	BYTE	W36
	BYTE		N24   
	BYTE	W22
	BYTE	W02
// 054   ----------------------------------------
	BYTE		N13     Ds1 
	BYTE	W12
	BYTE		N12     Ds2 
	BYTE	W12
	BYTE		        Gn2 
	BYTE	W10
	BYTE	W02
	BYTE		N36     Fn1 
	BYTE	W36
	BYTE		N24     Cn2 
	BYTE	W22
	BYTE	W02
// 055   ----------------------------------------
	BYTE		N12     Gn1 
	BYTE	W12
	BYTE		        Gn2 
	BYTE	W12
	BYTE		        As2 
	BYTE	W10
	BYTE	W02
	BYTE		N36     Gn1 
	BYTE	W36
	BYTE		N24     En1 
	BYTE	W24
// 056   ----------------------------------------
	BYTE		N12     Ds1 
	BYTE	W12
	BYTE		        Ds2 
	BYTE	W12
	BYTE		        Gn2 
	BYTE	W10
	BYTE	W02
	BYTE		        Ds1 
	BYTE	W12
	BYTE		N24     As2 
	BYTE	W24
	BYTE		        Fn2 
	BYTE	W22
	BYTE	W02
// 057   ----------------------------------------
	BYTE		N12     Dn1 
	BYTE	W12
	BYTE		        Dn2 
	BYTE	W12
	BYTE		        An2 
	BYTE	W10
	BYTE	W02
	BYTE		        Gn1 
	BYTE	W12
	BYTE		N18     Dn2 
	BYTE	W18
	BYTE		        Gn2 
	BYTE	W18
	BYTE		N12     Gn1 
	BYTE	W10
	BYTE	W02
// 058   ----------------------------------------
	BYTE		        Cn1 
	BYTE	W12
	BYTE		        Cn2 
	BYTE	W12
	BYTE		        Ds2 
	BYTE	W10
	BYTE	W02
	BYTE		N36     Dn1 
	BYTE	W36
	BYTE		N24     Dn2 
	BYTE	W22
	BYTE	W02
// 059   ----------------------------------------
	BYTE		N12     Gn1 
	BYTE	W12
	BYTE		        Dn2 
	BYTE	W12
	BYTE		        An2 
	BYTE	W10
	BYTE	W02
	BYTE		N60     Gn1 
	BYTE	W60
// 060   ----------------------------------------
	BYTE	W96
	BYTE	GoTo
	 POIN2	feifSkirmishCalm_2_B1
feifSkirmishCalm_2_B2:
// 061   ----------------------------------------
	BYTE	FINE

//******************************************************//
	ALIGN 4

feifSkirmishCalm:
	BYTE	2	// NumTrks
	BYTE	0	// NumBlks
	BYTE	feifSkirmishCalm_pri	// Priority
	BYTE	feifSkirmishCalm_rev	// Reverb.

	POIN2	feifSkirmishCalm_grp

	POIN2	feifSkirmishCalm_1
	POIN2	feifSkirmishCalm_2

	
