//Event file generated from Sappy .s format.
	#include "MPlayDef.event"

	#define	id_purpose_gba_grp  voicegroup000
	#define	id_purpose_gba_pri  0
	#define	id_purpose_gba_rev  0
	#define	id_purpose_gba_mvl  67
	#define	id_purpose_gba_key  0
	#define	id_purpose_gba_tbs  1
	#define	id_purpose_gba_exg  0
	#define	id_purpose_gba_cmp  1

	// .rodata
	//	id_purpose_gba
	ALIGN 4

//**************** Track 1 (Midi-Chn.1) ****************//

id_purpose_gba_1:
	BYTE		VOL     127*id_purpose_gba_mvl/mxv
	BYTE	KEYSH   id_purpose_gba_key+0
// 000   ----------------------------------------
	BYTE	TEMPO   103*id_purpose_gba_tbs/2
	BYTE		VOICE   21
	BYTE	W24
// 001   ----------------------------------------
	BYTE	W24
// 002   ----------------------------------------
	BYTE		N05     Gn3   v100
	BYTE	W06
	BYTE		        An3 
	BYTE	W06
	BYTE		        Gn3   v052
	BYTE		N05     As3   v100
	BYTE	W06
	BYTE		        An3   v052
	BYTE		N05     Fn4   v100
	BYTE	W03
	BYTE		N02     As3   v080
	BYTE	W03
id_purpose_gba_1_B1:
// 003   ----------------------------------------
id_purpose_gba_1_003:
	BYTE		N05     As3   v052
	BYTE		N12     Cn4   v100
	BYTE	W06
	BYTE		N05     Fn4   v052
	BYTE	W03
	BYTE		N02     As3   v032
	BYTE	W03
	BYTE		N48     Cn4   v052
	BYTE	W36
	BYTE		N12     As3   v100
	BYTE	W12
	BYTE		N09     As3   v052
	BYTE	W09
	BYTE		N11     As3   v080
	BYTE	W03
	BYTE		N12     An3   v100
	BYTE	W09
	BYTE		N02     As3   v032
	BYTE	W03
	BYTE		N32     An3   v052
	BYTE	W30
	BYTE		N02     As3   v080
	BYTE	W03
	BYTE		N08     An3 
	BYTE	W03
	BYTE		N12     Gn3   v100
	BYTE	W06
	BYTE		N02     As3   v032
	BYTE	W03
	BYTE		        An3 
	BYTE	W03
	BYTE		N24     Gn3   v052
	BYTE	W12
	BYTE	PEND
// 004   ----------------------------------------
id_purpose_gba_1_004:
	BYTE		N12     Fn3   v100
	BYTE	W12
	BYTE		TIE     Fn3   v052
	BYTE	W96
	BYTE	W12
	BYTE	PEND
	BYTE		EOT   
	BYTE		N05     Gn3   v100
	BYTE	W06
	BYTE		        An3 
	BYTE	W06
	BYTE		        Gn3   v052
	BYTE		N05     As3   v100
	BYTE	W06
	BYTE		        An3   v052
	BYTE		N05     Fn4   v100
	BYTE	W03
	BYTE		N02     As3   v080
	BYTE	W03
// 005   ----------------------------------------
id_purpose_gba_1_005:
	BYTE		N05     As3   v052
	BYTE		N12     Cn4   v100
	BYTE	W06
	BYTE		N05     Fn4   v052
	BYTE	W03
	BYTE		N02     As3   v032
	BYTE	W03
	BYTE		N32     Cn4   v052
	BYTE	W32
	BYTE	W01
	BYTE		N11     Cn4   v080
	BYTE	W03
	BYTE		N10     Dn4   v100
	BYTE	W09
	BYTE		N02     Cn4   v032
	BYTE	W03
	BYTE		N10     Dn4   v052
	BYTE		N10     As4   v100
	BYTE	W12
	BYTE		N12     As4   v052
	BYTE	W12
	BYTE		N24   
	BYTE	W12
	BYTE		N12     An4   v100
	BYTE	W12
	BYTE		N24     An4   v052
	BYTE	W12
	BYTE		N12     Gn4   v100
	BYTE	W12
	BYTE		N24     Gn4   v052
	BYTE	W09
	BYTE		N02     Ds4   v080
	BYTE	W03
	BYTE	PEND
// 006   ----------------------------------------
id_purpose_gba_1_006:
	BYTE		N12     Fn4   v100
	BYTE	W09
	BYTE		N02     Ds4   v032
	BYTE	W03
	BYTE		N56     Fn4   v052
	BYTE	W48
	BYTE		N05     Ds4   v100
	BYTE	W06
	BYTE		        Dn4 
	BYTE	W06
	BYTE		N12     Cn4 
	BYTE		N05     Ds4   v052
	BYTE	W06
	BYTE		        Dn4 
	BYTE	W06
	BYTE		N66     Cn4 
	BYTE	W56
	BYTE	W01
	BYTE		N02     Dn4   v080
	BYTE	W03
	BYTE	PEND
// 007   ----------------------------------------
id_purpose_gba_1_007:
	BYTE		N12     Ds4   v100
	BYTE	W09
	BYTE		N02     Dn4   v032
	BYTE	W03
	BYTE		N48     Ds4   v052
	BYTE	W36
	BYTE		N12     Fn4   v100
	BYTE	W12
	BYTE		N09     Fn4   v052
	BYTE	W09
	BYTE		N11     Fn4   v080
	BYTE	W03
	BYTE		N12     Gn4   v100
	BYTE	W09
	BYTE		N02     Fn4   v032
	BYTE	W03
	BYTE		N48     Gn4   v052
	BYTE	W36
	BYTE		N12     An4   v100
	BYTE	W12
	BYTE		N24     An4   v052
	BYTE	W12
	BYTE	PEND
// 008   ----------------------------------------
	BYTE		N12     As4   v100
	BYTE	W12
	BYTE		N18     As4   v052
	BYTE	W06
	BYTE		N06     An4   v100
	BYTE	W06
	BYTE		N12     Gn4 
	BYTE	W06
	BYTE		N06     An4   v052
	BYTE	W06
	BYTE		N48     Gn4 
	BYTE	W36
	BYTE		N12     Fn4   v100
	BYTE	W12
	BYTE		N18     Fn4   v052
	BYTE	W06
	BYTE		N06     En4   v100
	BYTE	W06
	BYTE		N12     Dn4 
	BYTE	W06
	BYTE		N06     En4   v052
	BYTE	W06
	BYTE		N36     Dn4 
	BYTE	W24
	BYTE		N05     Fn4   v100
	BYTE	W06
	BYTE		        Gn4 
	BYTE	W06
// 009   ----------------------------------------
	BYTE		        Fn4   v052
	BYTE		N12     Gs4   v100
	BYTE	W06
	BYTE		N05     Gn4   v052
	BYTE	W06
	BYTE		N24     Gs4 
	BYTE	W12
	BYTE		N12     Gn4   v100
	BYTE	W12
	BYTE		N24     Gn4   v052
	BYTE	W12
	BYTE		N12     Fn4   v100
	BYTE	W12
	BYTE		N24     Fn4   v052
	BYTE	W12
	BYTE		N12     Ds4   v100
	BYTE	W12
	BYTE		N18     Ds4   v052
	BYTE	W06
	BYTE		N06     Cn4   v100
	BYTE	W06
	BYTE		N12     Gs3 
	BYTE	W06
	BYTE		N06     Cn4   v052
	BYTE	W06
	BYTE		N36     Gs3 
	BYTE	W24
	BYTE		N12     As3   v100
	BYTE	W12
// 010   ----------------------------------------
	BYTE		        As3   v052
	BYTE		N12     Cn4   v100
	BYTE	W12
	BYTE		TIE     Cn4   v052
	BYTE	W96
	BYTE	W24
	BYTE		EOT   
	BYTE	W12
// 011   ----------------------------------------
	BYTE	W96
	BYTE	W48
// 012   ----------------------------------------
	BYTE	W96
	BYTE	W48
// 013   ----------------------------------------
	BYTE	W96
	BYTE	W48
// 014   ----------------------------------------
	BYTE	W96
	BYTE	W48
// 015   ----------------------------------------
	BYTE	W96
	BYTE	W48
// 016   ----------------------------------------
	BYTE	W96
	BYTE	W48
// 017   ----------------------------------------
	BYTE	W96
	BYTE	W48
// 018   ----------------------------------------
	BYTE	W96
	BYTE	W36
	BYTE		N05     Gs3   v100
	BYTE	W06
	BYTE		        As3 
	BYTE	W06
// 019   ----------------------------------------
	BYTE		        Gs3   v052
	BYTE		N12     Bn3   v100
	BYTE	W06
	BYTE		N05     As3   v052
	BYTE	W06
	BYTE		N48     Bn3 
	BYTE	W36
	BYTE		N12     Cs4   v100
	BYTE	W12
	BYTE		N24     Cs4   v052
	BYTE	W12
	BYTE		N12     As3   v100
	BYTE	W12
	BYTE		N16     As3   v052
	BYTE	W06
	BYTE		N05     Fs3   v100
	BYTE	W06
	BYTE		N12     Ds3 
	BYTE	W06
	BYTE		N05     Fs3   v052
	BYTE	W06
	BYTE		N48     Ds3 
	BYTE	W36
// 020   ----------------------------------------
	BYTE		N12     Cs4   v100
	BYTE	W12
	BYTE		N48     Cs4   v052
	BYTE	W36
	BYTE		N12     Dn4   v100
	BYTE	W12
	BYTE		N24     Dn4   v052
	BYTE	W12
	BYTE		N12     Bn3   v100
	BYTE	W12
	BYTE		N16     Bn3   v052
	BYTE	W06
	BYTE		N05     Gs3   v100
	BYTE	W06
	BYTE		N12     En3 
	BYTE	W06
	BYTE		N05     Gs3   v052
	BYTE	W06
	BYTE		N24     En3 
	BYTE	W24
	BYTE		N12     En3   v100
	BYTE	W06
	BYTE		N05     Fs3 
	BYTE	W06
// 021   ----------------------------------------
	BYTE		        En3   v052
	BYTE		N12     Gn3   v100
	BYTE	W06
	BYTE		N05     Fs3   v052
	BYTE	W06
	BYTE		N24     Gn3 
	BYTE	W12
	BYTE		N12     An3   v100
	BYTE	W12
	BYTE		N24     An3   v052
	BYTE	W12
	BYTE		N12     Bn3   v100
	BYTE	W12
	BYTE		N24     Bn3   v052
	BYTE	W12
	BYTE		N12     An3   v100
	BYTE	W12
	BYTE		N24     An3   v052
	BYTE	W12
	BYTE		N12     Dn4   v100
	BYTE	W12
	BYTE		N24     Dn4   v052
	BYTE	W12
	BYTE		N12     Fs3   v100
	BYTE	W12
	BYTE		        Fs3   v052
	BYTE	W12
// 022   ----------------------------------------
	BYTE		        Fs3   v100
	BYTE	W12
	BYTE		N16     Fs3   v052
	BYTE	W06
	BYTE		N05     En3   v100
	BYTE	W06
	BYTE		N06   
	BYTE	W06
	BYTE		        En3   v052
	BYTE	W06
	BYTE		N96   
	BYTE	W96
	BYTE		N05     An3   v100
	BYTE	W06
	BYTE		        Bn3 
	BYTE	W06
// 023   ----------------------------------------
	BYTE		        An3   v052
	BYTE		N12     Cn4   v100
	BYTE	W06
	BYTE		N05     Bn3   v052
	BYTE	W06
	BYTE		N48     Cn4 
	BYTE	W36
	BYTE		N12     Dn4   v100
	BYTE	W12
	BYTE		N24     Dn4   v052
	BYTE	W12
	BYTE		N12     Bn3   v100
	BYTE	W12
	BYTE		N16     Bn3   v052
	BYTE	W06
	BYTE		N05     Gn3   v100
	BYTE	W06
	BYTE		N12     En3 
	BYTE	W06
	BYTE		N05     Gn3   v052
	BYTE	W06
	BYTE		N48     En3 
	BYTE	W36
// 024   ----------------------------------------
	BYTE		N12     Dn4   v100
	BYTE	W12
	BYTE		N48     Dn4   v052
	BYTE	W36
	BYTE		N12     Ds4   v100
	BYTE	W12
	BYTE		N24     Ds4   v052
	BYTE	W12
	BYTE		N12     Cn4   v100
	BYTE	W12
	BYTE		N16     Cn4   v052
	BYTE	W06
	BYTE		N05     An3   v100
	BYTE	W06
	BYTE		N12     Fn3 
	BYTE	W06
	BYTE		N05     An3   v052
	BYTE	W06
	BYTE		N24     Fn3 
	BYTE	W24
	BYTE		N12     Fn3   v100
	BYTE	W06
	BYTE		N05     Gn3 
	BYTE	W06
// 025   ----------------------------------------
	BYTE		        Fn3   v052
	BYTE		N12     Gs3   v100
	BYTE	W06
	BYTE		N05     Gn3   v052
	BYTE	W06
	BYTE		N24     Gs3 
	BYTE	W12
	BYTE		N12     As3   v100
	BYTE	W12
	BYTE		N24     As3   v052
	BYTE	W12
	BYTE		N12     Cn4   v100
	BYTE	W12
	BYTE		N24     Cn4   v052
	BYTE	W12
	BYTE		N12     As3   v100
	BYTE	W12
	BYTE		N24     As3   v052
	BYTE	W12
	BYTE		N12     Ds4   v100
	BYTE	W12
	BYTE		N24     Ds4   v052
	BYTE	W12
	BYTE		N12     Gn4   v100
	BYTE	W12
	BYTE		        Gn4   v052
	BYTE	W12
// 026   ----------------------------------------
	BYTE		        Gn4   v100
	BYTE	W12
	BYTE		N16     Gn4   v052
	BYTE	W06
	BYTE		N05     Fn4   v100
	BYTE	W06
	BYTE		N06   
	BYTE	W06
	BYTE		        Fn4   v052
	BYTE	W06
	BYTE		TIE   
	BYTE	W96
	BYTE	W12
// 027   ----------------------------------------
	BYTE	W12
	BYTE		EOT   
	BYTE	W96
	BYTE	W36
// 028   ----------------------------------------
	BYTE	W96
	BYTE	W48
// 029   ----------------------------------------
	BYTE	W96
	BYTE	W48
// 030   ----------------------------------------
	BYTE	W96
	BYTE	W48
// 031   ----------------------------------------
	BYTE	W96
	BYTE	W48
// 032   ----------------------------------------
	BYTE	W96
	BYTE	W48
// 033   ----------------------------------------
	BYTE	W96
	BYTE	W48
// 034   ----------------------------------------
	BYTE	W96
	BYTE	W48
// 035   ----------------------------------------
	BYTE	W96
	BYTE	W48
// 036   ----------------------------------------
	BYTE	W96
	BYTE	W48
// 037   ----------------------------------------
	BYTE		N05     Gn3   v100
	BYTE	W06
	BYTE		N03     An3 
	BYTE	W06
	BYTE		N05     Gn3   v052
	BYTE		N03     Dn4   v100
	BYTE	W06
	BYTE		        An3   v052
	BYTE	W06
	BYTE		N05     Gn3   v100
	BYTE		N03     Dn4   v052
	BYTE	W06
	BYTE		        An3 
	BYTE	W06
	BYTE		N05     Gn3 
	BYTE		N03     Dn4   v100
	BYTE	W06
	BYTE		        An3   v052
	BYTE	W06
	BYTE		N05     Gn3   v100
	BYTE		N03     Dn4   v052
	BYTE	W06
	BYTE		        An3 
	BYTE	W06
	BYTE		N05     Gn3 
	BYTE		N03     Dn4   v100
	BYTE	W06
	BYTE		        An3   v052
	BYTE	W06
	BYTE		N05     Gn3   v100
	BYTE		N03     Dn4   v052
	BYTE	W06
	BYTE		        An3 
	BYTE	W06
	BYTE		N05     Gn3 
	BYTE		N03     Dn4   v100
	BYTE	W06
	BYTE		        An3   v052
	BYTE	W06
	BYTE		N05     Gn3   v100
	BYTE		N03     Dn4   v052
	BYTE	W06
	BYTE		        An3 
	BYTE	W06
	BYTE		N05     Gn3 
	BYTE		N03     Dn4   v100
	BYTE	W06
	BYTE		        An3   v052
	BYTE	W06
	BYTE		N05     Gn3   v100
	BYTE		N03     Dn4   v052
	BYTE	W06
	BYTE		        An3 
	BYTE	W06
	BYTE		N05     Gn3 
	BYTE		N03     Dn4   v100
	BYTE	W06
	BYTE		        An3   v052
	BYTE	W06
// 038   ----------------------------------------
	BYTE		N05     As3   v100
	BYTE		N03     Dn4   v052
	BYTE	W06
	BYTE		        An3 
	BYTE		N03     Bn3   v100
	BYTE	W06
	BYTE		N05     As3   v052
	BYTE		N03     Fs4   v100
	BYTE	W06
	BYTE		        Bn3   v052
	BYTE	W06
	BYTE		N05     As3   v100
	BYTE		N03     Fs4   v052
	BYTE	W06
	BYTE		        Bn3 
	BYTE	W06
	BYTE		N05     As3 
	BYTE		N03     Fs4   v100
	BYTE	W06
	BYTE		        Bn3   v052
	BYTE	W06
	BYTE		N05     As3   v100
	BYTE		N03     Fs4   v052
	BYTE	W06
	BYTE		        Bn3 
	BYTE	W06
	BYTE		N05     As3 
	BYTE		N03     Fs4   v100
	BYTE	W06
	BYTE		        Bn3   v052
	BYTE	W06
	BYTE		N05     Cs4   v100
	BYTE		N03     Fs4   v052
	BYTE	W06
	BYTE		        Bn3 
	BYTE		N03     Ds4   v100
	BYTE	W06
	BYTE		N05     Cs4   v052
	BYTE		N03     As4   v100
	BYTE	W06
	BYTE		        Ds4   v052
	BYTE	W06
	BYTE		N05     Cs4   v100
	BYTE		N03     As4   v052
	BYTE	W06
	BYTE		        Ds4 
	BYTE	W06
	BYTE		N05     Cs4 
	BYTE		N03     As4   v100
	BYTE	W06
	BYTE		        Ds4   v052
	BYTE	W06
	BYTE		N05     Cs4   v100
	BYTE		N03     As4   v052
	BYTE	W06
	BYTE		        Ds4 
	BYTE	W06
	BYTE		N05     Cs4 
	BYTE		N03     As4   v100
	BYTE	W06
	BYTE		        Ds4   v052
	BYTE	W06
// 039   ----------------------------------------
	BYTE		N05     Ds4   v100
	BYTE		N03     As4   v052
	BYTE	W06
	BYTE		        Ds4 
	BYTE		N03     En4   v100
	BYTE	W06
	BYTE		N05     Ds4   v052
	BYTE		N03     Bn4   v100
	BYTE	W06
	BYTE		        En4   v052
	BYTE	W06
	BYTE		N05     Ds4   v100
	BYTE		N03     Bn4   v052
	BYTE	W06
	BYTE		        En4 
	BYTE	W06
	BYTE		N05     Ds4 
	BYTE		N03     Bn4   v100
	BYTE	W06
	BYTE		        En4   v052
	BYTE	W06
	BYTE		N05     Ds4   v100
	BYTE		N03     Bn4   v052
	BYTE	W06
	BYTE		        En4 
	BYTE	W06
	BYTE		N05     Ds4 
	BYTE		N03     Bn4   v100
	BYTE	W06
	BYTE		        En4   v052
	BYTE	W06
	BYTE		N05     Fs4   v100
	BYTE		N03     Bn4   v052
	BYTE	W06
	BYTE		        En4 
	BYTE		N03     Gs4   v100
	BYTE	W06
	BYTE		N05     Fs4   v052
	BYTE		N03     Cs5   v100
	BYTE	W06
	BYTE		        Gs4   v052
	BYTE	W06
	BYTE		N05     Fs4   v100
	BYTE		N03     Cs5   v052
	BYTE	W06
	BYTE		        Gs4 
	BYTE	W06
	BYTE		N05     Fs4 
	BYTE		N03     Cs5   v100
	BYTE	W06
	BYTE		        Gs4   v052
	BYTE	W06
	BYTE		N05     Fs4   v100
	BYTE		N03     Cs5   v052
	BYTE	W06
	BYTE		        Gs4 
	BYTE	W06
	BYTE		N05     Fs4 
	BYTE		N03     Cs5   v100
	BYTE	W06
	BYTE		        Gs4   v052
	BYTE	W06
// 040   ----------------------------------------
	BYTE		N05     As3   v100
	BYTE		N03     Cs5   v052
	BYTE	W06
	BYTE		        Bn3   v100
	BYTE		N03     Gs4   v052
	BYTE	W06
	BYTE		N05     As3 
	BYTE		N03     Fs4   v100
	BYTE	W06
	BYTE		        Bn3   v052
	BYTE	W06
	BYTE		N05     As3   v100
	BYTE		N03     Fs4   v052
	BYTE	W06
	BYTE		        Bn3 
	BYTE	W06
	BYTE		N05     As3 
	BYTE		N03     Fs4   v100
	BYTE	W06
	BYTE		        Bn3   v052
	BYTE	W06
	BYTE		        Fs4 
	BYTE		N05     Bn4   v100
	BYTE	W06
	BYTE		N03     Bn3   v052
	BYTE		N03     As4   v100
	BYTE	W06
	BYTE		        Fs4 
	BYTE		N05     Bn4   v052
	BYTE	W06
	BYTE		N03     Ds4   v100
	BYTE		N03     As4   v052
	BYTE	W06
	BYTE		        Fs4 
	BYTE		N05     Bn4   v100
	BYTE	W06
	BYTE		N03     Ds4   v052
	BYTE		N03     As4   v100
	BYTE	W06
	BYTE		        Fs4 
	BYTE		N05     Bn4   v052
	BYTE	W06
	BYTE		N03     Ds4   v100
	BYTE		N03     As4   v052
	BYTE	W06
	BYTE		        Fs4 
	BYTE		N05     As4   v100
	BYTE	W06
	BYTE		N03     Ds4   v052
	BYTE		N03     Fs4   v100
	BYTE	W06
	BYTE		        Ds4 
	BYTE		N05     As4   v052
	BYTE	W06
	BYTE		N03     Bn3   v100
	BYTE		N03     Fs4   v052
	BYTE	W06
	BYTE		        Ds4 
	BYTE		N05     Fs4   v100
	BYTE	W06
	BYTE		N03     Bn3   v052
	BYTE		N03     Ds4   v100
	BYTE	W06
	BYTE		        Bn3 
	BYTE		N05     Fs4   v052
	BYTE	W06
	BYTE		N03     As3   v100
	BYTE		N03     Ds4   v052
	BYTE	W06
// 041   ----------------------------------------
	BYTE		        Bn3 
	BYTE	W06
	BYTE		        Cs3   v100
	BYTE		N03     As3   v052
	BYTE	W06
	BYTE		        Cs3 
	BYTE		N03     Dn3   v100
	BYTE	W06
	BYTE		        Dn3   v052
	BYTE		N03     An3   v100
	BYTE	W06
	BYTE		        Dn3 
	BYTE		N03     An3   v052
	BYTE	W06
	BYTE		        Cs3   v100
	BYTE		N03     Dn3   v052
	BYTE	W06
	BYTE		        Cs3 
	BYTE		N03     Dn3   v100
	BYTE	W06
	BYTE		        Dn3   v052
	BYTE		N03     An3   v100
	BYTE	W06
	BYTE		        Dn3 
	BYTE		N03     An3   v052
	BYTE	W06
	BYTE		        Cs3   v100
	BYTE		N03     Dn3   v052
	BYTE	W06
	BYTE		        Cs3 
	BYTE		N03     Dn3   v100
	BYTE	W06
	BYTE		        Dn3   v052
	BYTE		N03     An3   v100
	BYTE	W06
	BYTE		        An3   v052
	BYTE	W06
	BYTE		        Cs3   v100
	BYTE	W06
	BYTE		        Cs3   v052
	BYTE		N03     Dn3   v100
	BYTE	W06
	BYTE		        Dn3   v052
	BYTE		N03     An3   v100
	BYTE	W06
	BYTE		        Dn3 
	BYTE		N03     An3   v052
	BYTE	W06
	BYTE		        Cs3   v100
	BYTE		N03     Dn3   v052
	BYTE	W06
	BYTE		        Cs3 
	BYTE		N03     Dn3   v100
	BYTE	W06
	BYTE		        Dn3   v052
	BYTE		N03     An3   v100
	BYTE	W06
	BYTE		        Dn3 
	BYTE		N03     An3   v052
	BYTE	W06
	BYTE		        Cs3   v100
	BYTE		N03     Dn3   v052
	BYTE	W06
	BYTE		        Cs3 
	BYTE		N03     Dn3   v100
	BYTE	W06
	BYTE		        Dn3   v052
	BYTE		N03     An3   v100
	BYTE	W06
// 042   ----------------------------------------
	BYTE		        An3   v052
	BYTE	W06
	BYTE		        En3   v100
	BYTE	W06
	BYTE		        En3   v052
	BYTE		N03     Fs3   v100
	BYTE	W06
	BYTE		        Fs3   v052
	BYTE		N03     Cs4   v100
	BYTE	W06
	BYTE		        Fs3 
	BYTE		N03     Cs4   v052
	BYTE	W06
	BYTE		        En3   v100
	BYTE		N03     Fs3   v052
	BYTE	W06
	BYTE		        En3 
	BYTE		N03     Fs3   v100
	BYTE	W06
	BYTE		        Fs3   v052
	BYTE		N03     Cs4   v100
	BYTE	W06
	BYTE		        Fs3 
	BYTE		N03     Cs4   v052
	BYTE	W06
	BYTE		        En3   v100
	BYTE		N03     Fs3   v052
	BYTE	W06
	BYTE		        En3 
	BYTE		N03     Fs3   v100
	BYTE	W06
	BYTE		        Fs3   v052
	BYTE		N03     Cs4   v100
	BYTE	W06
	BYTE		        Cs4   v052
	BYTE	W06
	BYTE		        Fs3   v100
	BYTE	W06
	BYTE		        Fs3   v052
	BYTE		N03     Gn3   v100
	BYTE	W06
	BYTE		        Gn3   v052
	BYTE		N03     Dn4   v100
	BYTE	W06
	BYTE		        Gn3 
	BYTE		N03     Dn4   v052
	BYTE	W06
	BYTE		        Fs3   v100
	BYTE		N03     Gn3   v052
	BYTE	W06
	BYTE		        Fs3 
	BYTE		N03     Gn3   v100
	BYTE	W06
	BYTE		        Gn3   v052
	BYTE		N03     Dn4   v100
	BYTE	W06
	BYTE		        Gn3 
	BYTE		N03     Dn4   v052
	BYTE	W06
	BYTE		        Fs3   v100
	BYTE		N03     Gn3   v052
	BYTE	W06
	BYTE		        Fs3 
	BYTE		N03     Gn3   v100
	BYTE	W06
	BYTE		        Gn3   v052
	BYTE		N03     Dn4   v100
	BYTE	W06
// 043   ----------------------------------------
	BYTE		        Dn4   v052
	BYTE	W06
	BYTE		        Gs3   v100
	BYTE	W06
	BYTE		        Gs3   v052
	BYTE		N03     An3   v100
	BYTE	W06
	BYTE		        An3   v052
	BYTE		N03     En4   v100
	BYTE	W06
	BYTE		        An3 
	BYTE		N03     En4   v052
	BYTE	W06
	BYTE		        Gs3   v100
	BYTE		N03     An3   v052
	BYTE	W06
	BYTE		        Gs3 
	BYTE		N03     An3   v100
	BYTE	W06
	BYTE		        An3   v052
	BYTE		N03     En4   v100
	BYTE	W06
	BYTE		        An3 
	BYTE		N03     En4   v052
	BYTE	W06
	BYTE		        Gs3   v100
	BYTE		N03     An3   v052
	BYTE	W06
	BYTE		        Gs3 
	BYTE		N03     An3   v100
	BYTE	W06
	BYTE		        An3   v052
	BYTE		N03     En4   v100
	BYTE	W06
	BYTE		        En4   v052
	BYTE	W06
	BYTE		        An3   v100
	BYTE	W06
	BYTE		        An3   v052
	BYTE		N03     Bn3   v100
	BYTE	W06
	BYTE		        Bn3   v052
	BYTE		N03     Fs4   v100
	BYTE	W06
	BYTE		        Bn3 
	BYTE		N03     Fs4   v052
	BYTE	W06
	BYTE		        An3   v100
	BYTE		N03     Bn3   v052
	BYTE	W06
	BYTE		        An3 
	BYTE		N03     Bn3   v100
	BYTE	W06
	BYTE		        Bn3   v052
	BYTE		N03     Fs4   v100
	BYTE	W06
	BYTE		        Bn3 
	BYTE		N03     Fs4   v052
	BYTE	W06
	BYTE		        An3   v100
	BYTE		N03     Bn3   v052
	BYTE	W06
	BYTE		        An3 
	BYTE		N03     Bn3   v100
	BYTE	W06
	BYTE		        Bn3   v052
	BYTE		N03     Fs4   v100
	BYTE	W06
// 044   ----------------------------------------
	BYTE		        Fs3   v052
	BYTE		N03     Fs4 
	BYTE	W06
	BYTE		        Bn2   v100
	BYTE		N03     Bn3 
	BYTE	W06
	BYTE		        Bn2   v052
	BYTE		N03     Cs3   v100
	BYTE		N03     Bn3   v052
	BYTE		N03     Cs4   v100
	BYTE	W06
	BYTE		        Cs3   v052
	BYTE		N03     Fs3   v100
	BYTE		N03     Cs4   v052
	BYTE		N03     Fs4   v100
	BYTE	W06
	BYTE		        Cs3 
	BYTE		N03     Fs3   v052
	BYTE		N03     Cs4   v100
	BYTE		N03     Fs4   v052
	BYTE	W06
	BYTE		        Bn2   v100
	BYTE		N03     Cs3   v052
	BYTE		N03     Bn3   v100
	BYTE		N03     Cs4   v052
	BYTE	W06
	BYTE		        Bn2 
	BYTE		N03     Cs3   v100
	BYTE		N03     Bn3   v052
	BYTE		N03     Cs4   v100
	BYTE	W06
	BYTE		        Cs3   v052
	BYTE		N03     Fs3   v100
	BYTE		N03     Cs4   v052
	BYTE		N03     Fs4   v100
	BYTE	W06
	BYTE		        Cs3 
	BYTE		N03     Fs3   v052
	BYTE		N03     Cs4   v100
	BYTE		N03     Fs4   v052
	BYTE	W06
	BYTE		        Bn2   v100
	BYTE		N03     Cs3   v052
	BYTE		N03     Bn3   v100
	BYTE		N03     Cs4   v052
	BYTE	W06
	BYTE		        Bn2 
	BYTE		N03     Cs3   v100
	BYTE		N03     Bn3   v052
	BYTE		N03     Cs4   v100
	BYTE	W06
	BYTE		        Cs3   v052
	BYTE		N03     Fs3   v100
	BYTE		N03     Cs4   v052
	BYTE		N03     Fs4   v100
	BYTE	W06
	BYTE		        Fs3   v052
	BYTE		N03     Fs4 
	BYTE	W06
	BYTE		        Bn2   v100
	BYTE		N03     Bn3 
	BYTE	W06
	BYTE		        Bn2   v052
	BYTE		N03     Cs3   v100
	BYTE		N03     Bn3   v052
	BYTE		N03     Cs4   v100
	BYTE	W06
	BYTE		        Cs3   v052
	BYTE		N03     Fs3   v100
	BYTE		N03     Cs4   v052
	BYTE		N03     Fs4   v100
	BYTE	W06
	BYTE		        Cs3 
	BYTE		N03     Fs3   v052
	BYTE		N03     Cs4   v100
	BYTE		N03     Fs4   v052
	BYTE	W06
	BYTE		        Bn2   v100
	BYTE		N03     Cs3   v052
	BYTE		N03     Bn3   v100
	BYTE		N03     Cs4   v052
	BYTE	W06
	BYTE		        Bn2 
	BYTE		N03     Cs3   v100
	BYTE		N03     Bn3   v052
	BYTE		N03     Cs4   v100
	BYTE	W06
	BYTE		        Cs3   v052
	BYTE		N03     Fs3   v100
	BYTE		N03     Cs4   v052
	BYTE		N03     Fs4   v100
	BYTE	W06
	BYTE		        Cs3 
	BYTE		N03     Fs3   v052
	BYTE		N03     Cs4   v100
	BYTE		N03     Fs4   v052
	BYTE	W06
	BYTE		        Bn2   v100
	BYTE		N03     Cs3   v052
	BYTE		N03     Bn3   v100
	BYTE		N03     Cs4   v052
	BYTE	W06
	BYTE		        Bn2 
	BYTE		N03     Cs3   v100
	BYTE		N03     Bn3   v052
	BYTE		N03     Cs4   v100
	BYTE	W06
	BYTE		        Cs3   v052
	BYTE		N03     Fs3   v100
	BYTE		N03     Cs4   v052
	BYTE		N03     Fs4   v100
	BYTE	W06
// 045   ----------------------------------------
	BYTE		        Fs3   v052
	BYTE		N03     Fs4 
	BYTE	W06
	BYTE		        As2   v100
	BYTE		N03     As3 
	BYTE	W06
	BYTE		        As2   v052
	BYTE		N03     Cs3   v100
	BYTE		N03     As3   v052
	BYTE		N03     Cs4   v100
	BYTE	W06
	BYTE		        Cs3   v052
	BYTE		N03     Fs3   v100
	BYTE		N03     Cs4   v052
	BYTE		N03     Fs4   v100
	BYTE	W06
	BYTE		        Cs3 
	BYTE		N03     Fs3   v052
	BYTE		N03     Cs4   v100
	BYTE		N03     Fs4   v052
	BYTE	W06
	BYTE		        As2   v100
	BYTE		N03     Cs3   v052
	BYTE		N03     As3   v100
	BYTE		N03     Cs4   v052
	BYTE	W06
	BYTE		        As2 
	BYTE		N03     Cs3   v100
	BYTE		N03     As3   v052
	BYTE		N03     Cs4   v100
	BYTE	W06
	BYTE		        Cs3   v052
	BYTE		N03     Fs3   v100
	BYTE		N03     Cs4   v052
	BYTE		N03     Fs4   v100
	BYTE	W06
	BYTE		        Cs3 
	BYTE		N03     Fs3   v052
	BYTE		N03     Cs4   v100
	BYTE		N03     Fs4   v052
	BYTE	W06
	BYTE		        As2   v100
	BYTE		N03     Cs3   v052
	BYTE		N03     As3   v100
	BYTE		N03     Cs4   v052
	BYTE	W06
	BYTE		        As2 
	BYTE		N03     Cs3   v100
	BYTE		N03     As3   v052
	BYTE		N03     Cs4   v100
	BYTE	W06
	BYTE		        Fs2 
	BYTE		N03     Cs3   v052
	BYTE		N03     Fs3   v100
	BYTE		N03     Cs4   v052
	BYTE	W06
	BYTE	TEMPO   105*id_purpose_gba_tbs/2
	BYTE		        Fs2 
	BYTE		N03     Fs3 
	BYTE	W01
	BYTE	TEMPO   104*id_purpose_gba_tbs/2
	BYTE	W02
	BYTE	TEMPO   104*id_purpose_gba_tbs/2
	BYTE	W01
	BYTE	TEMPO   103*id_purpose_gba_tbs/2
	BYTE	W02
	BYTE	TEMPO   102*id_purpose_gba_tbs/2
	BYTE		        As2   v100
	BYTE		N03     As3 
	BYTE	W01
	BYTE	TEMPO   102*id_purpose_gba_tbs/2
	BYTE	W02
	BYTE	TEMPO   101*id_purpose_gba_tbs/2
	BYTE	W01
	BYTE	TEMPO   100*id_purpose_gba_tbs/2
	BYTE	W02
	BYTE	TEMPO   100*id_purpose_gba_tbs/2
	BYTE		        As2   v052
	BYTE		N03     Cs3   v100
	BYTE		N03     As3   v052
	BYTE		N03     Cs4   v100
	BYTE	W01
	BYTE	TEMPO   99*id_purpose_gba_tbs/2
	BYTE	W02
	BYTE	TEMPO   98*id_purpose_gba_tbs/2
	BYTE	W01
	BYTE	TEMPO   98*id_purpose_gba_tbs/2
	BYTE	W02
	BYTE	TEMPO   97*id_purpose_gba_tbs/2
	BYTE		        Cs3   v052
	BYTE		N03     Fs3   v100
	BYTE		N03     Cs4   v052
	BYTE		N03     Fs4   v100
	BYTE	W01
	BYTE	TEMPO   96*id_purpose_gba_tbs/2
	BYTE	W02
	BYTE	TEMPO   96*id_purpose_gba_tbs/2
	BYTE	W01
	BYTE	TEMPO   95*id_purpose_gba_tbs/2
	BYTE	W02
	BYTE	TEMPO   94*id_purpose_gba_tbs/2
	BYTE		        Cs3 
	BYTE		N03     Fs3   v052
	BYTE		N03     Cs4   v100
	BYTE		N03     Fs4   v052
	BYTE	W01
	BYTE	TEMPO   94*id_purpose_gba_tbs/2
	BYTE	W02
	BYTE	TEMPO   93*id_purpose_gba_tbs/2
	BYTE	W01
	BYTE	TEMPO   92*id_purpose_gba_tbs/2
	BYTE	W02
	BYTE	TEMPO   92*id_purpose_gba_tbs/2
	BYTE		        As2   v100
	BYTE		N03     Cs3   v052
	BYTE		N03     As3   v100
	BYTE		N03     Cs4   v052
	BYTE	W01
	BYTE	TEMPO   91*id_purpose_gba_tbs/2
	BYTE	W02
	BYTE	TEMPO   90*id_purpose_gba_tbs/2
	BYTE	W01
	BYTE	TEMPO   90*id_purpose_gba_tbs/2
	BYTE	W02
	BYTE	TEMPO   89*id_purpose_gba_tbs/2
	BYTE		        As2 
	BYTE		N03     Cs3   v100
	BYTE		N03     As3   v052
	BYTE		N03     Cs4   v100
	BYTE	W01
	BYTE	TEMPO   89*id_purpose_gba_tbs/2
	BYTE	W02
	BYTE	TEMPO   88*id_purpose_gba_tbs/2
	BYTE	W01
	BYTE	TEMPO   87*id_purpose_gba_tbs/2
	BYTE	W02
	BYTE	TEMPO   87*id_purpose_gba_tbs/2
	BYTE		        Cs3   v052
	BYTE		N03     Fs3   v100
	BYTE		N03     Cs4   v052
	BYTE		N03     Fs4   v100
	BYTE	W01
	BYTE	TEMPO   86*id_purpose_gba_tbs/2
	BYTE	W02
	BYTE	TEMPO   85*id_purpose_gba_tbs/2
	BYTE	W01
	BYTE	TEMPO   85*id_purpose_gba_tbs/2
	BYTE	W02
	BYTE	TEMPO   84*id_purpose_gba_tbs/2
	BYTE		        Cs3 
	BYTE		N03     Fs3   v052
	BYTE		N03     Cs4   v100
	BYTE		N03     Fs4   v052
	BYTE	W01
	BYTE	TEMPO   83*id_purpose_gba_tbs/2
	BYTE	W02
	BYTE	TEMPO   83*id_purpose_gba_tbs/2
	BYTE	W01
	BYTE	TEMPO   82*id_purpose_gba_tbs/2
	BYTE	W02
	BYTE	TEMPO   81*id_purpose_gba_tbs/2
	BYTE		        As2   v100
	BYTE		N03     Cs3   v052
	BYTE		N03     As3   v100
	BYTE		N03     Cs4   v052
	BYTE	W01
	BYTE	TEMPO   81*id_purpose_gba_tbs/2
	BYTE	W02
	BYTE	TEMPO   80*id_purpose_gba_tbs/2
	BYTE	W01
	BYTE	TEMPO   79*id_purpose_gba_tbs/2
	BYTE	W02
	BYTE	TEMPO   79*id_purpose_gba_tbs/2
	BYTE		        As2 
	BYTE		N03     Cs3   v100
	BYTE		N03     As3   v052
	BYTE		N03     Cs4   v100
	BYTE	W01
	BYTE	TEMPO   78*id_purpose_gba_tbs/2
	BYTE	W02
	BYTE	TEMPO   77*id_purpose_gba_tbs/2
	BYTE	W01
	BYTE	TEMPO   77*id_purpose_gba_tbs/2
	BYTE	W01
	BYTE	TEMPO   76*id_purpose_gba_tbs/2
	BYTE	W01
	BYTE		        Fs2 
	BYTE		N03     Cs3   v052
	BYTE		N03     Fs3   v100
	BYTE		N03     Cs4   v052
	BYTE	W01
	BYTE	TEMPO   65*id_purpose_gba_tbs/2
	BYTE	W01
	BYTE	TEMPO   54*id_purpose_gba_tbs/2
	BYTE	W02
	BYTE	TEMPO   43*id_purpose_gba_tbs/2
	BYTE	W01
	BYTE	TEMPO   31*id_purpose_gba_tbs/2
	BYTE	W01
// 046   ----------------------------------------
	BYTE	TEMPO   137*id_purpose_gba_tbs/2
	BYTE		        Fs2 
	BYTE		N04     Bn2   v100
	BYTE		N03     Fs3   v052
	BYTE		N04     Bn3   v060
	BYTE		N03     Fs4   v012
	BYTE	W06
	BYTE		N04     Bn2   v052
	BYTE		N04     Bn3   v012
	BYTE	W02
	BYTE		        Dn3   v100
	BYTE		N04     Dn4   v060
	BYTE	W06
	BYTE		        Dn3   v052
	BYTE		N04     Dn4   v012
	BYTE	W02
	BYTE		        Fs3   v100
	BYTE		N04     Fs4   v060
	BYTE	W06
	BYTE		        Fs3   v052
	BYTE		N04     Fs4   v012
	BYTE	W02
	BYTE		        Bn2   v100
	BYTE		N04     Bn3   v060
	BYTE	W06
	BYTE		        Bn2   v052
	BYTE		N04     Bn3   v012
	BYTE	W02
	BYTE		        Dn3   v100
	BYTE		N04     Dn4   v060
	BYTE	W06
	BYTE		        Dn3   v052
	BYTE		N04     Dn4   v012
	BYTE	W02
	BYTE		        Fs3   v100
	BYTE		N04     Fs4   v060
	BYTE	W06
	BYTE		        Fs3   v052
	BYTE		N04     Fs4   v012
	BYTE	W02
	BYTE		        Bn2   v100
	BYTE		N04     Bn3   v060
	BYTE	W06
	BYTE		        Bn2   v052
	BYTE		N04     Bn3   v012
	BYTE	W02
	BYTE		        Dn3   v100
	BYTE		N04     Dn4   v060
	BYTE	W06
	BYTE		        Dn3   v052
	BYTE		N04     Dn4   v012
	BYTE	W02
	BYTE		        Fs3   v100
	BYTE		N04     Fs4   v060
	BYTE	W06
	BYTE		        Fs3   v052
	BYTE		N04     Fs4   v012
	BYTE	W02
	BYTE		        Bn2   v100
	BYTE		N04     Bn3   v060
	BYTE	W06
	BYTE		        Bn2   v052
	BYTE		N04     Bn3   v012
	BYTE	W02
	BYTE		        Dn3   v100
	BYTE		N04     Dn4   v060
	BYTE	W06
	BYTE		        Dn3   v052
	BYTE		N04     Dn4   v012
	BYTE	W02
	BYTE		        Fs3   v100
	BYTE		N04     Fs4   v060
	BYTE	W06
	BYTE		        Fs3   v052
	BYTE		N04     Fs4   v012
	BYTE	W02
// 047   ----------------------------------------
id_purpose_gba_1_047:
	BYTE		N04     Bn2   v100
	BYTE		N04     Bn3   v060
	BYTE	W06
	BYTE		        Bn2   v052
	BYTE		N04     Bn3   v012
	BYTE	W02
	BYTE		        Dn3   v100
	BYTE		N04     Dn4   v060
	BYTE	W06
	BYTE		        Dn3   v052
	BYTE		N04     Dn4   v012
	BYTE	W02
	BYTE		        Gn3   v100
	BYTE		N04     Gn4   v060
	BYTE	W06
	BYTE		        Gn3   v052
	BYTE		N04     Gn4   v012
	BYTE	W02
	BYTE		        Bn2   v100
	BYTE		N04     Bn3   v060
	BYTE	W06
	BYTE		        Bn2   v052
	BYTE		N04     Bn3   v012
	BYTE	W02
	BYTE		        Dn3   v100
	BYTE		N04     Dn4   v060
	BYTE	W06
	BYTE		        Dn3   v052
	BYTE		N04     Dn4   v012
	BYTE	W02
	BYTE		        Gn3   v100
	BYTE		N04     Gn4   v060
	BYTE	W06
	BYTE		        Gn3   v052
	BYTE		N04     Gn4   v012
	BYTE	W02
	BYTE		        Bn2   v100
	BYTE		N04     Bn3   v060
	BYTE	W06
	BYTE		        Bn2   v052
	BYTE		N04     Bn3   v012
	BYTE	W02
	BYTE		        Dn3   v100
	BYTE		N04     Dn4   v060
	BYTE	W06
	BYTE		        Dn3   v052
	BYTE		N04     Dn4   v012
	BYTE	W02
	BYTE		        Gn3   v100
	BYTE		N04     Gn4   v060
	BYTE	W06
	BYTE		        Gn3   v052
	BYTE		N04     Gn4   v012
	BYTE	W02
	BYTE		        Bn2   v100
	BYTE		N04     Bn3   v060
	BYTE	W06
	BYTE		        Bn2   v052
	BYTE		N04     Bn3   v012
	BYTE	W02
	BYTE		        Dn3   v100
	BYTE		N04     Dn4   v060
	BYTE	W06
	BYTE		        Dn3   v052
	BYTE		N04     Dn4   v012
	BYTE	W02
	BYTE		        Gn3   v100
	BYTE		N04     Gn4   v060
	BYTE	W06
	BYTE		        Gn3   v052
	BYTE		N04     Gn4   v012
	BYTE	W02
	BYTE	PEND
// 048   ----------------------------------------
id_purpose_gba_1_048:
	BYTE		N04     An2   v100
	BYTE		N04     An3   v060
	BYTE	W06
	BYTE		        An2   v052
	BYTE		N04     An3   v012
	BYTE	W02
	BYTE		        En3   v100
	BYTE		N04     En4   v060
	BYTE	W06
	BYTE		        En3   v052
	BYTE		N04     En4   v012
	BYTE	W02
	BYTE		        An3   v100
	BYTE		N04     An4   v060
	BYTE	W06
	BYTE		N02     An3   v052
	BYTE		N04     An4   v012
	BYTE	W02
	BYTE		        An2   v100
	BYTE		N04     An3   v060
	BYTE	W06
	BYTE		        An2   v052
	BYTE		N04     An3   v012
	BYTE	W02
	BYTE		        En3   v100
	BYTE		N04     En4   v060
	BYTE	W06
	BYTE		        En3   v052
	BYTE		N04     En4   v012
	BYTE	W02
	BYTE		        An3   v100
	BYTE		N04     An4   v060
	BYTE	W06
	BYTE		N02     An3   v052
	BYTE		N04     An4   v012
	BYTE	W02
	BYTE		        An2   v100
	BYTE		N04     An3   v060
	BYTE	W06
	BYTE		        An2   v052
	BYTE		N04     An3   v012
	BYTE	W02
	BYTE		        En3   v100
	BYTE		N04     En4   v060
	BYTE	W06
	BYTE		        En3   v052
	BYTE		N04     En4   v012
	BYTE	W02
	BYTE		        An3   v100
	BYTE		N04     An4   v060
	BYTE	W06
	BYTE		N02     An3   v052
	BYTE		N04     An4   v012
	BYTE	W02
	BYTE		        An2   v100
	BYTE		N04     An3   v060
	BYTE	W06
	BYTE		        An2   v052
	BYTE		N04     An3   v012
	BYTE	W02
	BYTE		        En3   v100
	BYTE		N04     En4   v060
	BYTE	W06
	BYTE		        En3   v052
	BYTE		N04     En4   v012
	BYTE	W02
	BYTE		        An3   v100
	BYTE		N04     An4   v060
	BYTE	W06
	BYTE		        An3   v052
	BYTE		N04     An4   v012
	BYTE	W02
	BYTE	PEND
// 049   ----------------------------------------
id_purpose_gba_1_049:
	BYTE		N04     Dn3   v100
	BYTE		N04     Dn4   v060
	BYTE	W06
	BYTE		        Dn3   v052
	BYTE		N04     Dn4   v012
	BYTE	W02
	BYTE		        An3   v100
	BYTE		N04     An4   v060
	BYTE	W06
	BYTE		        An3   v052
	BYTE		N04     An4   v012
	BYTE	W02
	BYTE		        Dn4   v100
	BYTE		N04     Dn5   v060
	BYTE	W06
	BYTE		N02     Dn4   v052
	BYTE		N04     Dn5   v012
	BYTE	W02
	BYTE		        Dn3   v100
	BYTE		N04     Dn4   v060
	BYTE	W06
	BYTE		        Dn3   v052
	BYTE		N04     Dn4   v012
	BYTE	W02
	BYTE		        An3   v100
	BYTE		N04     An4   v060
	BYTE	W06
	BYTE		        An3   v052
	BYTE		N04     An4   v012
	BYTE	W02
	BYTE		        Dn4   v100
	BYTE		N04     Dn5   v060
	BYTE	W06
	BYTE		N02     Dn4   v052
	BYTE		N04     Dn5   v012
	BYTE	W02
	BYTE		        Dn3   v100
	BYTE		N04     Dn4   v060
	BYTE	W06
	BYTE		        Dn3   v052
	BYTE		N04     Dn4   v012
	BYTE	W02
	BYTE		        An3   v100
	BYTE		N04     An4   v060
	BYTE	W06
	BYTE		        An3   v052
	BYTE		N04     An4   v012
	BYTE	W02
	BYTE		        Dn4   v100
	BYTE		N04     Dn5   v060
	BYTE	W06
	BYTE		N02     Dn4   v052
	BYTE		N04     Dn5   v012
	BYTE	W02
	BYTE		        Dn3   v100
	BYTE		N04     Dn4   v060
	BYTE	W06
	BYTE		        Dn3   v052
	BYTE		N04     Dn4   v012
	BYTE	W02
	BYTE		        An3   v100
	BYTE		N04     An4   v060
	BYTE	W06
	BYTE		        An3   v052
	BYTE		N04     An4   v012
	BYTE	W02
	BYTE		        Dn4   v100
	BYTE		N04     Dn5   v060
	BYTE	W06
	BYTE		        Dn4   v052
	BYTE		N04     Dn5   v012
	BYTE	W02
	BYTE	PEND
// 050   ----------------------------------------
id_purpose_gba_1_050:
	BYTE		N04     Bn2   v100
	BYTE		N04     Bn3   v060
	BYTE	W06
	BYTE		        Bn2   v052
	BYTE		N04     Bn3   v012
	BYTE	W02
	BYTE		        Gn2   v100
	BYTE		N04     Gn3   v060
	BYTE	W06
	BYTE		        Gn2   v052
	BYTE		N04     Gn3   v012
	BYTE	W02
	BYTE		        Dn3   v100
	BYTE		N04     Dn4   v060
	BYTE	W06
	BYTE		        Dn3   v052
	BYTE		N04     Dn4   v012
	BYTE	W02
	BYTE		        Bn2   v100
	BYTE		N04     Bn3   v060
	BYTE	W06
	BYTE		        Bn2   v052
	BYTE		N04     Bn3   v012
	BYTE	W02
	BYTE		        Gn2   v100
	BYTE		N04     Gn3   v060
	BYTE	W06
	BYTE		        Gn2   v052
	BYTE		N04     Gn3   v012
	BYTE	W02
	BYTE		        Dn3   v100
	BYTE		N04     Dn4   v060
	BYTE	W06
	BYTE		        Dn3   v052
	BYTE		N04     Dn4   v012
	BYTE	W02
	BYTE		        Bn2   v100
	BYTE		N04     Bn3   v060
	BYTE	W06
	BYTE		        Bn2   v052
	BYTE		N04     Bn3   v012
	BYTE	W02
	BYTE		        Gn2   v100
	BYTE		N04     Gn3   v060
	BYTE	W06
	BYTE		        Gn2   v052
	BYTE		N04     Gn3   v012
	BYTE	W02
	BYTE		        Dn3   v100
	BYTE		N04     Dn4   v060
	BYTE	W06
	BYTE		        Dn3   v052
	BYTE		N04     Dn4   v012
	BYTE	W02
	BYTE		        Bn2   v100
	BYTE		N04     Bn3   v060
	BYTE	W06
	BYTE		        Bn2   v052
	BYTE		N04     Bn3   v012
	BYTE	W02
	BYTE		        Gn2   v100
	BYTE		N04     Gn3   v060
	BYTE	W06
	BYTE		        Gn2   v052
	BYTE		N04     Gn3   v012
	BYTE	W02
	BYTE		        Dn3   v100
	BYTE		N04     Dn4   v060
	BYTE	W06
	BYTE		        Dn3   v052
	BYTE		N04     Dn4   v012
	BYTE	W02
	BYTE	PEND
// 051   ----------------------------------------
id_purpose_gba_1_051:
	BYTE		N04     Bn2   v100
	BYTE		N04     Bn3   v060
	BYTE	W06
	BYTE		        Bn2   v052
	BYTE		N04     Bn3   v012
	BYTE	W02
	BYTE		        Gn2   v100
	BYTE		N04     Gn3   v060
	BYTE	W06
	BYTE		        Gn2   v052
	BYTE		N04     Gn3   v012
	BYTE	W02
	BYTE		        Dn3   v100
	BYTE		N04     Dn4   v060
	BYTE	W06
	BYTE		        Dn3   v052
	BYTE		N04     Dn4   v012
	BYTE	W02
	BYTE		        Bn2   v100
	BYTE		N04     Bn3   v060
	BYTE	W06
	BYTE		        Bn2   v052
	BYTE		N04     Bn3   v012
	BYTE	W02
	BYTE		        Gn2   v100
	BYTE		N04     Gn3   v060
	BYTE	W06
	BYTE		        Gn2   v052
	BYTE		N04     Gn3   v012
	BYTE	W02
	BYTE		        Dn3   v100
	BYTE		N04     Dn4   v060
	BYTE	W06
	BYTE		        Dn3   v052
	BYTE		N04     Dn4   v012
	BYTE	W02
	BYTE		        Bn2   v100
	BYTE		N04     Bn3   v060
	BYTE	W06
	BYTE		        Bn2   v052
	BYTE		N04     Bn3   v012
	BYTE	W02
	BYTE		        Gn2   v100
	BYTE		N04     Gn3   v060
	BYTE	W06
	BYTE		        Gn2   v052
	BYTE		N04     Gn3   v012
	BYTE	W02
	BYTE		        Dn3   v100
	BYTE		N04     Dn4   v060
	BYTE	W06
	BYTE		        Dn3   v052
	BYTE		N04     Dn4   v012
	BYTE	W02
	BYTE		        Gn3   v100
	BYTE		N04     Gn4   v060
	BYTE	W06
	BYTE		        Gn3   v052
	BYTE		N04     Gn4   v012
	BYTE	W02
	BYTE		        Dn3   v100
	BYTE		N04     Dn4   v060
	BYTE	W06
	BYTE		        Dn3   v052
	BYTE		N04     Dn4   v012
	BYTE	W02
	BYTE		        Bn2   v100
	BYTE		N04     Bn3   v060
	BYTE	W06
	BYTE		        Bn2   v052
	BYTE		N04     Bn3   v012
	BYTE	W02
	BYTE	PEND
// 052   ----------------------------------------
id_purpose_gba_1_052:
	BYTE		N04     As2   v100
	BYTE		N04     As3   v060
	BYTE	W06
	BYTE		        As2   v052
	BYTE		N04     As3   v012
	BYTE	W02
	BYTE		        Fs2   v100
	BYTE		N04     Fs3   v060
	BYTE	W06
	BYTE		        Fs2   v052
	BYTE		N04     Fs3   v012
	BYTE	W02
	BYTE		        As2   v100
	BYTE		N04     As3   v060
	BYTE	W06
	BYTE		        As2   v052
	BYTE		N04     As3   v012
	BYTE	W02
	BYTE		        Fs3   v100
	BYTE		N04     Fs4   v060
	BYTE	W06
	BYTE		        Fs3   v052
	BYTE		N04     Fs4   v012
	BYTE	W02
	BYTE		        Cs3   v100
	BYTE		N04     Cs4   v060
	BYTE	W06
	BYTE		        Cs3   v052
	BYTE		N04     Cs4   v012
	BYTE	W02
	BYTE		        Fs3   v100
	BYTE		N04     Fs4   v060
	BYTE	W06
	BYTE		        Fs3   v052
	BYTE		N04     Fs4   v012
	BYTE	W02
	BYTE		        Bn3   v100
	BYTE		N04     Bn4   v060
	BYTE	W06
	BYTE		        Bn3   v052
	BYTE		N04     Bn4   v012
	BYTE	W02
	BYTE		        Fs3   v100
	BYTE		N04     Fs4   v060
	BYTE	W06
	BYTE		        Fs3   v052
	BYTE		N04     Fs4   v012
	BYTE	W02
	BYTE		        Bn3   v100
	BYTE		N04     Bn4   v060
	BYTE	W06
	BYTE		        Bn3   v052
	BYTE		N04     Bn4   v012
	BYTE	W02
	BYTE		        Dn4   v100
	BYTE		N04     Dn5   v060
	BYTE	W06
	BYTE		        Dn4   v052
	BYTE		N04     Dn5   v012
	BYTE	W02
	BYTE		        Bn3   v100
	BYTE		N04     Bn4   v060
	BYTE	W06
	BYTE		        Bn3   v052
	BYTE		N04     Bn4   v012
	BYTE	W02
	BYTE		        Dn4   v100
	BYTE		N04     Dn5   v060
	BYTE	W06
	BYTE		        Dn4   v052
	BYTE		N04     Dn5   v012
	BYTE	W02
	BYTE	PEND
// 053   ----------------------------------------
	BYTE		        As3   v100
	BYTE		N04     As4   v060
	BYTE	W06
	BYTE		        As3   v052
	BYTE		N04     As4   v012
	BYTE	W02
	BYTE		        Dn4   v100
	BYTE		N04     Dn5   v060
	BYTE	W06
	BYTE		        Dn4   v052
	BYTE		N04     Dn5   v012
	BYTE	W02
	BYTE		        As3   v100
	BYTE		N04     As4   v060
	BYTE	W06
	BYTE		        As3   v052
	BYTE		N04     As4   v012
	BYTE	W02
	BYTE		        Fs3   v100
	BYTE		N04     Fs4   v060
	BYTE	W06
	BYTE		        Fs3   v052
	BYTE		N04     Fs4   v012
	BYTE	W02
	BYTE		        As3   v100
	BYTE		N04     As4   v060
	BYTE	W06
	BYTE		        As3   v052
	BYTE		N04     As4   v012
	BYTE	W02
	BYTE		        Fs3   v100
	BYTE		N04     Fs4   v060
	BYTE	W06
	BYTE		        Fs3   v052
	BYTE		N04     Fs4   v012
	BYTE	W02
	BYTE		        Dn3   v100
	BYTE		N04     Dn4   v060
	BYTE	W06
	BYTE		        Dn3   v052
	BYTE		N04     Dn4   v012
	BYTE	W02
	BYTE		        Fs3   v100
	BYTE		N04     Fs4   v060
	BYTE	W06
	BYTE		        Fs3   v052
	BYTE		N04     Fs4   v012
	BYTE	W02
	BYTE		        Dn3   v100
	BYTE		N04     Dn4   v060
	BYTE	W06
	BYTE		        Dn3   v052
	BYTE		N04     Dn4   v012
	BYTE	W02
	BYTE		        Fs3   v100
	BYTE		N04     Fs4   v060
	BYTE	W06
	BYTE		        Fs3   v052
	BYTE		N04     Fs4   v012
	BYTE	W02
	BYTE		        Cs3   v100
	BYTE		N04     Cs4   v060
	BYTE	W06
	BYTE		        Cs3   v052
	BYTE		N04     Cs4   v012
	BYTE	W02
	BYTE		        Fs2   v100
	BYTE		N04     Fs3   v060
	BYTE	W06
	BYTE		        Fs2   v052
	BYTE		N04     Fs3   v012
	BYTE	W02
// 054   ----------------------------------------
id_purpose_gba_1_054:
	BYTE		N04     Bn2   v100
	BYTE		N04     Bn3   v060
	BYTE	W06
	BYTE		        Bn2   v052
	BYTE		N04     Bn3   v012
	BYTE	W02
	BYTE		        Dn3   v100
	BYTE		N04     Dn4   v060
	BYTE	W06
	BYTE		        Dn3   v052
	BYTE		N04     Dn4   v012
	BYTE	W02
	BYTE		        Fs3   v100
	BYTE		N04     Fs4   v060
	BYTE	W06
	BYTE		        Fs3   v052
	BYTE		N04     Fs4   v012
	BYTE	W02
	BYTE		        Bn2   v100
	BYTE		N04     Bn3   v060
	BYTE	W06
	BYTE		        Bn2   v052
	BYTE		N04     Bn3   v012
	BYTE	W02
	BYTE		        Dn3   v100
	BYTE		N04     Dn4   v060
	BYTE	W06
	BYTE		        Dn3   v052
	BYTE		N04     Dn4   v012
	BYTE	W02
	BYTE		        Fs3   v100
	BYTE		N04     Fs4   v060
	BYTE	W06
	BYTE		        Fs3   v052
	BYTE		N04     Fs4   v012
	BYTE	W02
	BYTE		        Bn2   v100
	BYTE		N04     Bn3   v060
	BYTE	W06
	BYTE		        Bn2   v052
	BYTE		N04     Bn3   v012
	BYTE	W02
	BYTE		        Dn3   v100
	BYTE		N04     Dn4   v060
	BYTE	W06
	BYTE		        Dn3   v052
	BYTE		N04     Dn4   v012
	BYTE	W02
	BYTE		        Fs3   v100
	BYTE		N04     Fs4   v060
	BYTE	W06
	BYTE		        Fs3   v052
	BYTE		N04     Fs4   v012
	BYTE	W02
	BYTE		        Bn2   v100
	BYTE		N04     Bn3   v060
	BYTE	W06
	BYTE		        Bn2   v052
	BYTE		N04     Bn3   v012
	BYTE	W02
	BYTE		        Dn3   v100
	BYTE		N04     Dn4   v060
	BYTE	W06
	BYTE		        Dn3   v052
	BYTE		N04     Dn4   v012
	BYTE	W02
	BYTE		        Fs3   v100
	BYTE		N04     Fs4   v060
	BYTE	W06
	BYTE		        Fs3   v052
	BYTE		N04     Fs4   v012
	BYTE	W02
	BYTE	PEND
// 055   ----------------------------------------
	BYTE	PATT
	 POIN2	id_purpose_gba_1_047
// 056   ----------------------------------------
	BYTE	PATT
	 POIN2	id_purpose_gba_1_048
// 057   ----------------------------------------
	BYTE	PATT
	 POIN2	id_purpose_gba_1_049
// 058   ----------------------------------------
	BYTE	PATT
	 POIN2	id_purpose_gba_1_050
// 059   ----------------------------------------
	BYTE	PATT
	 POIN2	id_purpose_gba_1_051
// 060   ----------------------------------------
	BYTE	PATT
	 POIN2	id_purpose_gba_1_052
// 061   ----------------------------------------
id_purpose_gba_1_061:
	BYTE		N04     As3   v100
	BYTE		N04     As4   v060
	BYTE	W06
	BYTE		        As3   v052
	BYTE		N04     As4   v012
	BYTE	W02
	BYTE		        Cs4   v100
	BYTE		N04     Cs5   v060
	BYTE	W06
	BYTE		        Cs4   v052
	BYTE		N04     Cs5   v012
	BYTE	W02
	BYTE		        As3   v100
	BYTE		N04     As4   v060
	BYTE	W06
	BYTE		        As3   v052
	BYTE		N04     As4   v012
	BYTE	W02
	BYTE		        Fs3   v100
	BYTE		N04     Fs4   v060
	BYTE	W06
	BYTE		        Fs3   v052
	BYTE		N04     Fs4   v012
	BYTE	W02
	BYTE		        As3   v100
	BYTE		N04     As4   v060
	BYTE	W06
	BYTE		        As3   v052
	BYTE		N04     As4   v012
	BYTE	W02
	BYTE		        Fs3   v100
	BYTE		N04     Fs4   v060
	BYTE	W06
	BYTE		        Fs3   v052
	BYTE		N04     Fs4   v012
	BYTE	W02
	BYTE		        Dn3   v100
	BYTE		N04     Dn4   v060
	BYTE	W06
	BYTE		        Dn3   v052
	BYTE		N04     Dn4   v012
	BYTE	W02
	BYTE		        Fs3   v100
	BYTE		N04     Fs4   v060
	BYTE	W06
	BYTE		        Fs3   v052
	BYTE		N04     Fs4   v012
	BYTE	W02
	BYTE		        Dn3   v100
	BYTE		N04     Dn4   v060
	BYTE	W06
	BYTE		        Dn3   v052
	BYTE		N04     Dn4   v012
	BYTE	W02
	BYTE		        Fs3   v100
	BYTE		N04     Fs4   v060
	BYTE	W06
	BYTE		        Fs3   v052
	BYTE		N04     Fs4   v012
	BYTE	W02
	BYTE		        Cs3   v100
	BYTE		N04     Cs4   v060
	BYTE	W06
	BYTE		        Cs3   v052
	BYTE		N04     Cs4   v012
	BYTE	W02
	BYTE		        Fs2   v100
	BYTE		N04     Fs3   v060
	BYTE	W06
	BYTE		        Fs2   v052
	BYTE		N04     Fs3   v012
	BYTE	W02
	BYTE	PEND
// 062   ----------------------------------------
	BYTE	PATT
	 POIN2	id_purpose_gba_1_054
// 063   ----------------------------------------
	BYTE	PATT
	 POIN2	id_purpose_gba_1_047
// 064   ----------------------------------------
	BYTE	PATT
	 POIN2	id_purpose_gba_1_048
// 065   ----------------------------------------
	BYTE	PATT
	 POIN2	id_purpose_gba_1_049
// 066   ----------------------------------------
	BYTE	PATT
	 POIN2	id_purpose_gba_1_050
// 067   ----------------------------------------
	BYTE	PATT
	 POIN2	id_purpose_gba_1_051
// 068   ----------------------------------------
	BYTE	PATT
	 POIN2	id_purpose_gba_1_052
// 069   ----------------------------------------
	BYTE	PATT
	 POIN2	id_purpose_gba_1_061
// 070   ----------------------------------------
	BYTE	PATT
	 POIN2	id_purpose_gba_1_054
// 071   ----------------------------------------
	BYTE	PATT
	 POIN2	id_purpose_gba_1_047
// 072   ----------------------------------------
	BYTE	PATT
	 POIN2	id_purpose_gba_1_048
// 073   ----------------------------------------
	BYTE	PATT
	 POIN2	id_purpose_gba_1_049
// 074   ----------------------------------------
	BYTE	PATT
	 POIN2	id_purpose_gba_1_050
// 075   ----------------------------------------
id_purpose_gba_1_075:
	BYTE		N04     Bn2   v100
	BYTE		N04     Bn3   v060
	BYTE	W06
	BYTE		        Bn2   v052
	BYTE		N04     Bn3   v012
	BYTE	W02
	BYTE		        En3   v100
	BYTE		N04     En4   v060
	BYTE	W06
	BYTE		        En3   v052
	BYTE		N04     En4   v012
	BYTE	W02
	BYTE		        An3   v100
	BYTE		N04     An4   v060
	BYTE	W06
	BYTE		        An3   v052
	BYTE		N04     An4   v012
	BYTE	W02
	BYTE		        Cs4   v100
	BYTE		N04     Cs5   v060
	BYTE	W06
	BYTE		        Cs4   v052
	BYTE		N04     Cs5   v012
	BYTE	W02
	BYTE		        An3   v100
	BYTE		N04     An4   v060
	BYTE	W06
	BYTE		        An3   v052
	BYTE		N04     An4   v012
	BYTE	W02
	BYTE		        En3   v100
	BYTE		N04     En4   v060
	BYTE	W06
	BYTE		        En3   v052
	BYTE		N04     En4   v012
	BYTE	W02
	BYTE		        An3   v100
	BYTE		N04     An4   v060
	BYTE	W06
	BYTE		        An3   v052
	BYTE		N04     An4   v012
	BYTE	W02
	BYTE		        Cs4   v100
	BYTE		N04     Cs5   v060
	BYTE	W06
	BYTE		        Cs4   v052
	BYTE		N04     Cs5   v012
	BYTE	W02
	BYTE		        En4   v100
	BYTE		N04     En5   v060
	BYTE	W06
	BYTE		        En4   v052
	BYTE		N04     En5   v012
	BYTE	W02
	BYTE		        Gn4   v100
	BYTE		N04     Gn5   v060
	BYTE	W06
	BYTE		        Gn4   v052
	BYTE		N04     Gn5   v012
	BYTE	W02
	BYTE		        En4   v100
	BYTE		N04     En5   v060
	BYTE	W06
	BYTE		        En4   v052
	BYTE		N04     En5   v012
	BYTE	W02
	BYTE		        Cs4   v100
	BYTE		N04     Cs5   v060
	BYTE	W06
	BYTE		        Cs4   v052
	BYTE		N04     Cs5   v012
	BYTE	W02
	BYTE	PEND
// 076   ----------------------------------------
	BYTE	PATT
	 POIN2	id_purpose_gba_1_052
// 077   ----------------------------------------
	BYTE		N04     As3   v100
	BYTE		N04     As4   v060
	BYTE	W06
	BYTE		        As3   v052
	BYTE		N04     As4   v012
	BYTE	W02
	BYTE		        Cs4   v100
	BYTE		N04     Cs5   v060
	BYTE	W06
	BYTE		        Cs4   v052
	BYTE		N04     Cs5   v012
	BYTE	W02
	BYTE		        As3   v100
	BYTE		N04     As4   v060
	BYTE	W06
	BYTE		        As3   v052
	BYTE		N04     As4   v012
	BYTE	W02
	BYTE		        Fs3   v100
	BYTE		N04     Fs4   v060
	BYTE	W06
	BYTE		        Fs3   v052
	BYTE		N04     Fs4   v012
	BYTE	W02
	BYTE		        As3   v100
	BYTE		N04     As4   v060
	BYTE	W06
	BYTE		        As3   v052
	BYTE		N04     As4   v012
	BYTE	W02
	BYTE		        Fs3   v100
	BYTE		N04     Fs4   v060
	BYTE	W06
	BYTE		        Fs3   v052
	BYTE		N04     Fs4   v012
	BYTE	W02
	BYTE		        Dn3   v100
	BYTE		N04     Dn4   v060
	BYTE	W06
	BYTE		        Dn3   v052
	BYTE		N04     Dn4   v012
	BYTE	W02
	BYTE		        Fs3   v100
	BYTE		N04     Fs4   v060
	BYTE	W06
	BYTE		        Fs3   v052
	BYTE		N04     Fs4   v012
	BYTE	W02
	BYTE		        Dn3   v100
	BYTE		N04     Dn4   v060
	BYTE	W06
	BYTE		        Dn3   v052
	BYTE		N04     Dn4   v012
	BYTE	W02
	BYTE		        Fs3   v100
	BYTE		N04     Fs4   v060
	BYTE	W06
	BYTE		        Fs3   v052
	BYTE		N04     Fs4   v012
	BYTE	W02
	BYTE		        Cs3   v100
	BYTE		N04     Cs4   v060
	BYTE	W06
	BYTE		        Cs3   v052
	BYTE		N04     Cs4   v012
	BYTE	W02
	BYTE		        Fs2   v100
	BYTE		N04     Fs3   v060
	BYTE	W06
	BYTE		        Fs2   v052
	BYTE		N02     Fs3   v012
	BYTE	W02
// 078   ----------------------------------------
	BYTE		N04     Fs3   v100
	BYTE		N04     Fs4   v060
	BYTE	W06
	BYTE		        Fs3   v052
	BYTE		N04     Fs4   v012
	BYTE	W02
	BYTE		        Dn3   v100
	BYTE		N04     Dn4   v060
	BYTE	W06
	BYTE		        Dn3   v052
	BYTE		N04     Dn4   v012
	BYTE	W02
	BYTE		        Bn2   v100
	BYTE		N04     Bn3   v060
	BYTE	W06
	BYTE		        Bn2   v052
	BYTE		N04     Bn3   v012
	BYTE	W02
	BYTE		        Fs3   v100
	BYTE		N04     Fs4   v060
	BYTE	W06
	BYTE		        Fs3   v052
	BYTE		N04     Fs4   v012
	BYTE	W02
	BYTE		        Dn3   v100
	BYTE		N04     Dn4   v060
	BYTE	W06
	BYTE		        Dn3   v052
	BYTE		N04     Dn4   v012
	BYTE	W02
	BYTE		        Bn2   v100
	BYTE		N04     Bn3   v060
	BYTE	W06
	BYTE		        Bn2   v052
	BYTE		N04     Bn3   v012
	BYTE	W02
	BYTE		        Fs3   v100
	BYTE		N04     Fs4   v060
	BYTE	W06
	BYTE		        Fs3   v052
	BYTE		N04     Fs4   v012
	BYTE	W02
	BYTE		        Dn3   v100
	BYTE		N04     Dn4   v060
	BYTE	W06
	BYTE		        Dn3   v052
	BYTE		N04     Dn4   v012
	BYTE	W02
	BYTE		        Bn2   v100
	BYTE		N04     Bn3   v060
	BYTE	W06
	BYTE		        Bn2   v052
	BYTE		N04     Bn3   v012
	BYTE	W02
	BYTE		        Fs3   v100
	BYTE		N04     Fs4   v060
	BYTE	W06
	BYTE		        Fs3   v052
	BYTE		N04     Fs4   v012
	BYTE	W02
	BYTE		        Dn3   v100
	BYTE		N04     Dn4   v060
	BYTE	W06
	BYTE		        Dn3   v052
	BYTE		N04     Dn4   v012
	BYTE	W02
	BYTE		        Bn2   v100
	BYTE		N04     Bn3   v060
	BYTE	W06
	BYTE		        Bn2   v052
	BYTE		N04     Bn3   v012
	BYTE	W02
// 079   ----------------------------------------
	BYTE		        Gn3   v100
	BYTE		N04     Gn4   v060
	BYTE	W06
	BYTE		        Gn3   v052
	BYTE		N04     Gn4   v012
	BYTE	W02
	BYTE		        Dn3   v100
	BYTE		N04     Dn4   v060
	BYTE	W06
	BYTE		        Dn3   v052
	BYTE		N04     Dn4   v012
	BYTE	W02
	BYTE		        Bn2   v100
	BYTE		N04     Bn3   v060
	BYTE	W06
	BYTE		        Bn2   v052
	BYTE		N04     Bn3   v012
	BYTE	W02
	BYTE		        Gn3   v100
	BYTE		N04     Gn4   v060
	BYTE	W06
	BYTE		        Gn3   v052
	BYTE		N04     Gn4   v012
	BYTE	W02
	BYTE		        Dn3   v100
	BYTE		N04     Dn4   v060
	BYTE	W06
	BYTE		        Dn3   v052
	BYTE		N04     Dn4   v012
	BYTE	W02
	BYTE		        Bn2   v100
	BYTE		N04     Bn3   v060
	BYTE	W06
	BYTE		        Bn2   v052
	BYTE		N04     Bn3   v012
	BYTE	W02
	BYTE		        Gn3   v100
	BYTE		N04     Gn4   v060
	BYTE	W06
	BYTE		        Gn3   v052
	BYTE		N04     Gn4   v012
	BYTE	W02
	BYTE		        Dn3   v100
	BYTE		N04     Dn4   v060
	BYTE	W06
	BYTE		        Dn3   v052
	BYTE		N04     Dn4   v012
	BYTE	W02
	BYTE		        Bn2   v100
	BYTE		N04     Bn3   v060
	BYTE	W06
	BYTE		        Bn2   v052
	BYTE		N04     Bn3   v012
	BYTE	W02
	BYTE		        Gn3   v100
	BYTE		N04     Gn4   v060
	BYTE	W06
	BYTE		        Gn3   v052
	BYTE		N04     Gn4   v012
	BYTE	W02
	BYTE		        Dn3   v100
	BYTE		N04     Dn4   v060
	BYTE	W06
	BYTE		        Dn3   v052
	BYTE		N04     Dn4   v012
	BYTE	W02
	BYTE		        Bn2   v100
	BYTE		N04     Bn3   v060
	BYTE	W06
	BYTE		        Bn2   v052
	BYTE		N04     Bn3   v012
	BYTE	W02
// 080   ----------------------------------------
	BYTE		        An1   v100
	BYTE		N04     An2   v060
	BYTE	W06
	BYTE		        An1   v052
	BYTE		N04     An2   v012
	BYTE	W02
	BYTE		        En2   v100
	BYTE		N04     En3   v060
	BYTE	W06
	BYTE		        En2   v052
	BYTE		N04     En3   v012
	BYTE	W02
	BYTE		        An2   v100
	BYTE		N04     An3   v060
	BYTE	W06
	BYTE		N02     An2   v052
	BYTE		N02     An3   v012
	BYTE	W02
	BYTE		N04     An2   v100
	BYTE		N04     An3   v060
	BYTE	W06
	BYTE		        An2   v052
	BYTE		N04     An3   v012
	BYTE	W02
	BYTE		        En3   v100
	BYTE		N04     En4   v060
	BYTE	W06
	BYTE		        En3   v052
	BYTE		N04     En4   v012
	BYTE	W02
	BYTE		        An3   v100
	BYTE		N04     An4   v060
	BYTE	W06
	BYTE		N02     An3   v052
	BYTE		N04     An4   v012
	BYTE	W02
	BYTE		        An2   v100
	BYTE		N04     An3   v060
	BYTE	W06
	BYTE		        An2   v052
	BYTE		N04     An3   v012
	BYTE	W02
	BYTE		        En3   v100
	BYTE		N04     En4   v060
	BYTE	W06
	BYTE		        En3   v052
	BYTE		N04     En4   v012
	BYTE	W02
	BYTE		        An3   v100
	BYTE		N04     An4   v060
	BYTE	W06
	BYTE		N02     An3   v052
	BYTE		N04     An4   v012
	BYTE	W02
	BYTE		        An2   v100
	BYTE		N04     An3   v060
	BYTE	W06
	BYTE		        An2   v052
	BYTE		N04     An3   v012
	BYTE	W02
	BYTE		        En3   v100
	BYTE		N04     En4   v060
	BYTE	W06
	BYTE		        En3   v052
	BYTE		N04     En4   v012
	BYTE	W02
	BYTE		        An3   v100
	BYTE		N04     An4   v060
	BYTE	W06
	BYTE		        An3   v052
	BYTE		N04     An4   v012
	BYTE	W02
// 081   ----------------------------------------
	BYTE	PATT
	 POIN2	id_purpose_gba_1_049
// 082   ----------------------------------------
	BYTE	PATT
	 POIN2	id_purpose_gba_1_050
// 083   ----------------------------------------
	BYTE	PATT
	 POIN2	id_purpose_gba_1_075
// 084   ----------------------------------------
	BYTE		N04     As2   v100
	BYTE		N04     As3   v060
	BYTE	W06
	BYTE		        As2   v052
	BYTE		N04     As3   v012
	BYTE	W02
	BYTE		        Fs2   v100
	BYTE		N04     Fs3   v060
	BYTE	W06
	BYTE		        Fs2   v052
	BYTE		N04     Fs3   v012
	BYTE	W02
	BYTE		        As2   v100
	BYTE		N04     As3   v060
	BYTE	W06
	BYTE		        As2   v052
	BYTE		N04     As3   v012
	BYTE	W02
	BYTE		        Fs3   v100
	BYTE		N04     Fs4   v060
	BYTE	W06
	BYTE		        Fs3   v052
	BYTE		N04     Fs4   v012
	BYTE	W02
	BYTE		        Cs3   v100
	BYTE		N04     Cs4   v060
	BYTE	W06
	BYTE		        Cs3   v052
	BYTE		N04     Cs4   v012
	BYTE	W02
	BYTE		        Fs3   v100
	BYTE		N04     Fs4   v060
	BYTE	W06
	BYTE		        Fs3   v052
	BYTE		N04     Fs4   v012
	BYTE	W02
	BYTE		        Bn3   v100
	BYTE		N04     Bn4   v060
	BYTE	W06
	BYTE		        Bn3   v052
	BYTE		N04     Bn4   v012
	BYTE	W02
	BYTE		        Fs3   v100
	BYTE		N04     Fs4   v060
	BYTE	W06
	BYTE		        Fs3   v052
	BYTE		N04     Fs4   v012
	BYTE	W02
	BYTE		        Bn3   v100
	BYTE		N04     Bn4   v060
	BYTE	W06
	BYTE		        Bn3   v052
	BYTE		N04     Bn4   v012
	BYTE	W02
	BYTE		        Dn4   v100
	BYTE		N04     Dn5   v060
	BYTE	W06
	BYTE		        Dn4   v052
	BYTE		N04     Dn5   v012
	BYTE	W02
	BYTE		        Bn3   v100
	BYTE		N04     Bn4   v060
	BYTE	W06
	BYTE		        Bn3   v052
	BYTE		N04     Bn4   v012
	BYTE	W02
	BYTE		        Dn4   v100
	BYTE		N04     Dn5   v060
	BYTE	W06
	BYTE		N02     Dn4   v052
	BYTE		N02     Dn5   v012
	BYTE	W02
// 085   ----------------------------------------
	BYTE	TEMPO   133*id_purpose_gba_tbs/2
	BYTE		N04     Dn4   v100
	BYTE		N04     Dn5   v060
	BYTE	W01
	BYTE	TEMPO   133*id_purpose_gba_tbs/2
	BYTE	W02
	BYTE	TEMPO   133*id_purpose_gba_tbs/2
	BYTE	W01
	BYTE	TEMPO   133*id_purpose_gba_tbs/2
	BYTE	W02
	BYTE	TEMPO   132*id_purpose_gba_tbs/2
	BYTE		        Dn4   v052
	BYTE		N04     Dn5   v012
	BYTE	W01
	BYTE	TEMPO   132*id_purpose_gba_tbs/2
	BYTE	W01
	BYTE		        As3   v100
	BYTE		N04     As4   v060
	BYTE	W01
	BYTE	TEMPO   132*id_purpose_gba_tbs/2
	BYTE	W01
	BYTE	TEMPO   132*id_purpose_gba_tbs/2
	BYTE	W02
	BYTE	TEMPO   131*id_purpose_gba_tbs/2
	BYTE	W01
	BYTE	TEMPO   131*id_purpose_gba_tbs/2
	BYTE	W01
	BYTE		        As3   v052
	BYTE		N04     As4   v012
	BYTE	W01
	BYTE	TEMPO   131*id_purpose_gba_tbs/2
	BYTE	W01
	BYTE	TEMPO   131*id_purpose_gba_tbs/2
	BYTE		        Dn3   v100
	BYTE		N04     Dn4   v060
	BYTE	W02
	BYTE	TEMPO   130*id_purpose_gba_tbs/2
	BYTE	W01
	BYTE	TEMPO   130*id_purpose_gba_tbs/2
	BYTE	W02
	BYTE	TEMPO   130*id_purpose_gba_tbs/2
	BYTE	W01
	BYTE	TEMPO   130*id_purpose_gba_tbs/2
	BYTE		        Dn3   v052
	BYTE		N04     Dn4   v012
	BYTE	W02
	BYTE	TEMPO   129*id_purpose_gba_tbs/2
	BYTE		        Fs3   v100
	BYTE		N04     Fs4   v060
	BYTE	W01
	BYTE	TEMPO   129*id_purpose_gba_tbs/2
	BYTE	W02
	BYTE	TEMPO   129*id_purpose_gba_tbs/2
	BYTE	W01
	BYTE	TEMPO   129*id_purpose_gba_tbs/2
	BYTE	W02
	BYTE	TEMPO   128*id_purpose_gba_tbs/2
	BYTE		        Fs3   v052
	BYTE		N04     Fs4   v012
	BYTE	W01
	BYTE	TEMPO   128*id_purpose_gba_tbs/2
	BYTE	W01
	BYTE		        As3   v100
	BYTE		N04     As4   v060
	BYTE	W01
	BYTE	TEMPO   128*id_purpose_gba_tbs/2
	BYTE	W01
	BYTE	TEMPO   127*id_purpose_gba_tbs/2
	BYTE	W02
	BYTE	TEMPO   127*id_purpose_gba_tbs/2
	BYTE	W01
	BYTE	TEMPO   127*id_purpose_gba_tbs/2
	BYTE	W01
	BYTE		        As3   v052
	BYTE		N04     As4   v012
	BYTE	W01
	BYTE	TEMPO   127*id_purpose_gba_tbs/2
	BYTE	W01
	BYTE	TEMPO   126*id_purpose_gba_tbs/2
	BYTE		        Dn3   v100
	BYTE		N04     Dn4   v060
	BYTE	W02
	BYTE	TEMPO   126*id_purpose_gba_tbs/2
	BYTE	W01
	BYTE	TEMPO   126*id_purpose_gba_tbs/2
	BYTE	W02
	BYTE	TEMPO   126*id_purpose_gba_tbs/2
	BYTE	W01
	BYTE	TEMPO   125*id_purpose_gba_tbs/2
	BYTE		        Dn3   v052
	BYTE		N04     Dn4   v012
	BYTE	W02
	BYTE	TEMPO   125*id_purpose_gba_tbs/2
	BYTE		        Fs3   v100
	BYTE		N04     Fs4   v060
	BYTE	W01
	BYTE	TEMPO   125*id_purpose_gba_tbs/2
	BYTE	W02
	BYTE	TEMPO   125*id_purpose_gba_tbs/2
	BYTE	W01
	BYTE	TEMPO   124*id_purpose_gba_tbs/2
	BYTE	W02
	BYTE	TEMPO   124*id_purpose_gba_tbs/2
	BYTE		        Fs3   v052
	BYTE		N04     Fs4   v012
	BYTE	W01
	BYTE	TEMPO   124*id_purpose_gba_tbs/2
	BYTE	W01
	BYTE		        Dn3   v100
	BYTE		N04     Dn4   v060
	BYTE	W01
	BYTE	TEMPO   124*id_purpose_gba_tbs/2
	BYTE	W01
	BYTE	TEMPO   123*id_purpose_gba_tbs/2
	BYTE	W02
	BYTE	TEMPO   123*id_purpose_gba_tbs/2
	BYTE	W01
	BYTE	TEMPO   123*id_purpose_gba_tbs/2
	BYTE	W01
	BYTE		        Dn3   v052
	BYTE		N04     Dn4   v012
	BYTE	W01
	BYTE	TEMPO   123*id_purpose_gba_tbs/2
	BYTE	W01
	BYTE	TEMPO   122*id_purpose_gba_tbs/2
	BYTE		        Cs3   v100
	BYTE		N04     Cs4   v060
	BYTE	W02
	BYTE	TEMPO   122*id_purpose_gba_tbs/2
	BYTE	W01
	BYTE	TEMPO   122*id_purpose_gba_tbs/2
	BYTE	W02
	BYTE	TEMPO   122*id_purpose_gba_tbs/2
	BYTE	W01
	BYTE	TEMPO   121*id_purpose_gba_tbs/2
	BYTE		        Cs3   v052
	BYTE		N04     Cs4   v012
	BYTE	W02
	BYTE	TEMPO   121*id_purpose_gba_tbs/2
	BYTE		        Fs2   v100
	BYTE		N04     Fs3   v060
	BYTE	W01
	BYTE	TEMPO   121*id_purpose_gba_tbs/2
	BYTE	W02
	BYTE	TEMPO   121*id_purpose_gba_tbs/2
	BYTE	W01
	BYTE	TEMPO   120*id_purpose_gba_tbs/2
	BYTE	W02
	BYTE	TEMPO   120*id_purpose_gba_tbs/2
	BYTE		        Fs2   v052
	BYTE		N04     Fs3   v012
	BYTE	W01
	BYTE	TEMPO   120*id_purpose_gba_tbs/2
	BYTE	W01
	BYTE		        Cs3   v100
	BYTE		N04     Cs4   v060
	BYTE	W01
	BYTE	TEMPO   120*id_purpose_gba_tbs/2
	BYTE	W01
	BYTE	TEMPO   119*id_purpose_gba_tbs/2
	BYTE	W02
	BYTE	TEMPO   119*id_purpose_gba_tbs/2
	BYTE	W01
	BYTE	TEMPO   119*id_purpose_gba_tbs/2
	BYTE	W01
	BYTE		        Cs3   v052
	BYTE		N04     Cs4   v012
	BYTE	W01
	BYTE	TEMPO   119*id_purpose_gba_tbs/2
	BYTE	W01
	BYTE	TEMPO   118*id_purpose_gba_tbs/2
	BYTE		        Fs2   v100
	BYTE		N04     Fs3   v060
	BYTE	W02
	BYTE	TEMPO   118*id_purpose_gba_tbs/2
	BYTE	W01
	BYTE	TEMPO   118*id_purpose_gba_tbs/2
	BYTE	W01
	BYTE	TEMPO   125*id_purpose_gba_tbs/2
	BYTE	W02
	BYTE	TEMPO   68*id_purpose_gba_tbs/2
	BYTE		        Fs2   v052
	BYTE		N04     Fs3   v012
	BYTE	W01
	BYTE	TEMPO   20*id_purpose_gba_tbs/2
	BYTE	W01
// 086   ----------------------------------------
	BYTE	TEMPO   103*id_purpose_gba_tbs/2
	BYTE	W06
	BYTE		N03     Cs3   v100
	BYTE	W06
	BYTE		        Cs3   v052
	BYTE		N03     Dn3   v100
	BYTE	W06
	BYTE		        Dn3   v052
	BYTE		N03     An3   v100
	BYTE	W06
	BYTE		        Dn3 
	BYTE		N03     An3   v052
	BYTE	W06
	BYTE		        Cs3   v100
	BYTE		N03     Dn3   v052
	BYTE	W06
	BYTE		        Cs3 
	BYTE		N03     Dn3   v100
	BYTE	W06
	BYTE		        Dn3   v052
	BYTE		N03     An3   v100
	BYTE	W06
	BYTE		        Dn3 
	BYTE		N03     An3   v052
	BYTE	W06
	BYTE		        Cs3   v100
	BYTE		N03     Dn3   v052
	BYTE	W06
	BYTE		        Cs3 
	BYTE		N03     Dn3   v100
	BYTE	W06
	BYTE		        Dn3   v052
	BYTE		N03     An3   v100
	BYTE	W06
	BYTE		        An3   v052
	BYTE	W06
	BYTE		        Cs3   v100
	BYTE	W06
	BYTE		        Cs3   v052
	BYTE		N03     Dn3   v100
	BYTE	W06
	BYTE		        Dn3   v052
	BYTE		N03     An3   v100
	BYTE	W06
	BYTE		        Dn3 
	BYTE		N03     An3   v052
	BYTE	W06
	BYTE		        Cs3   v100
	BYTE		N03     Dn3   v052
	BYTE	W06
	BYTE		        Cs3 
	BYTE		N03     Dn3   v100
	BYTE	W06
	BYTE		        Dn3   v052
	BYTE		N03     An3   v100
	BYTE	W06
	BYTE		        Dn3 
	BYTE		N03     An3   v052
	BYTE	W06
	BYTE		        Cs3   v100
	BYTE		N03     Dn3   v052
	BYTE	W06
	BYTE		        Cs3 
	BYTE		N03     Dn3   v100
	BYTE	W06
	BYTE		        Dn3   v052
	BYTE		N03     An3   v100
	BYTE	W06
// 087   ----------------------------------------
	BYTE		        An3   v052
	BYTE	W04
	BYTE	W02
	BYTE		        Fs3   v100
	BYTE	W03
	BYTE	W03
	BYTE		        Fs3   v052
	BYTE		N03     Gn3   v100
	BYTE	W01
	BYTE	W05
	BYTE		        Gn3   v052
	BYTE		N03     Dn4   v100
	BYTE	W04
	BYTE	W02
	BYTE		        Gn3 
	BYTE		N03     Dn4   v052
	BYTE	W03
	BYTE	W03
	BYTE		        Fs3   v100
	BYTE		N03     Gn3   v052
	BYTE	W01
	BYTE	W05
	BYTE		        Fs3 
	BYTE		N03     Gn3   v100
	BYTE	W03
	BYTE	W03
	BYTE		        Gn3   v052
	BYTE		N03     Dn4   v100
	BYTE	W01
	BYTE	W05
	BYTE		        Gn3 
	BYTE		N03     Dn4   v052
	BYTE	W04
	BYTE	W02
	BYTE		        Fs3   v100
	BYTE		N03     Gn3   v052
	BYTE	W03
	BYTE	W03
	BYTE		        Fs3 
	BYTE		N03     Gn3   v100
	BYTE	W01
	BYTE	W05
	BYTE		        Gn3   v052
	BYTE		N03     Dn4   v100
	BYTE	W04
	BYTE	W02
	BYTE		        Dn4   v052
	BYTE	W01
	BYTE	W05
	BYTE		        Gn3   v100
	BYTE	W04
	BYTE	W02
	BYTE		        Gn3   v052
	BYTE		N03     An3   v100
	BYTE	W03
	BYTE	W03
	BYTE		        An3   v052
	BYTE		N03     En4   v100
	BYTE	W01
	BYTE	W05
	BYTE		        An3 
	BYTE		N03     En4   v052
	BYTE	W04
	BYTE	W02
	BYTE		        Gn3   v100
	BYTE		N03     An3   v052
	BYTE	W03
	BYTE	W03
	BYTE		        Gn3 
	BYTE		N03     An3   v100
	BYTE	W04
	BYTE	W02
	BYTE		        An3   v052
	BYTE		N03     En4   v100
	BYTE	W03
	BYTE	W03
	BYTE		        An3 
	BYTE		N03     En4   v052
	BYTE	W01
	BYTE	W05
	BYTE		        Gn3   v100
	BYTE		N03     An3   v052
	BYTE	W04
	BYTE	W02
	BYTE		        Gn3 
	BYTE		N03     An3   v100
	BYTE	W03
	BYTE	W03
	BYTE		        An3   v052
	BYTE		N03     En4   v100
	BYTE	W01
	BYTE	W03
	BYTE	W02
// 088   ----------------------------------------
	BYTE		        En4   v052
	BYTE	W03
	BYTE	W03
	BYTE		        An3   v100
	BYTE	W01
	BYTE	W05
	BYTE		        An3   v052
	BYTE		N03     Bn3   v100
	BYTE	W04
	BYTE	W02
	BYTE		        Bn3   v052
	BYTE		N03     Fs4   v100
	BYTE	W03
	BYTE	W03
	BYTE		        Bn3 
	BYTE		N03     Fs4   v052
	BYTE	W01
	BYTE	W05
	BYTE		        An3   v100
	BYTE		N03     Bn3   v052
	BYTE	W03
	BYTE	W03
	BYTE		        An3 
	BYTE		N03     Bn3   v100
	BYTE	W01
	BYTE	W05
	BYTE		        Bn3   v052
	BYTE		N03     Fs4   v100
	BYTE	W04
	BYTE	W02
	BYTE		        Bn3 
	BYTE		N03     Fs4   v052
	BYTE	W03
	BYTE	W03
	BYTE		        An3   v100
	BYTE		N03     Bn3   v052
	BYTE	W01
	BYTE	W05
	BYTE		        An3 
	BYTE		N03     Bn3   v100
	BYTE	W04
	BYTE	W02
	BYTE		        Bn3   v052
	BYTE		N03     Fs4   v100
	BYTE	W01
	BYTE	W05
	BYTE		        Fs4   v052
	BYTE	W04
	BYTE	W02
	BYTE		        Bn3   v100
	BYTE	W03
	BYTE	W03
	BYTE		        Bn3   v052
	BYTE		N03     Cs4   v100
	BYTE	W01
	BYTE	W05
	BYTE		        Cs4   v052
	BYTE		N03     Dn4   v100
	BYTE	W04
	BYTE	W02
	BYTE		        Dn4   v052
	BYTE		N03     An4   v100
	BYTE	W03
	BYTE	W03
	BYTE		        En4 
	BYTE		N03     An4   v052
	BYTE	W04
	BYTE	W02
	BYTE		        Dn4   v100
	BYTE		N03     En4   v052
	BYTE	W03
	BYTE	W03
	BYTE		        Cs4   v100
	BYTE		N03     Dn4   v052
	BYTE	W01
	BYTE	W05
	BYTE		        Cs4 
	BYTE		N03     An4   v100
	BYTE	W04
	BYTE	W02
	BYTE		        En4 
	BYTE		N03     An4   v052
	BYTE	W03
	BYTE	W03
	BYTE		        Dn4   v100
	BYTE		N03     En4   v052
	BYTE	W01
	BYTE	W03
	BYTE	W02
	BYTE		        Cs4   v100
	BYTE		N03     Dn4   v052
	BYTE	W03
	BYTE	W03
// 089   ----------------------------------------
	BYTE		        Cs4 
	BYTE	W01
	BYTE	W05
	BYTE		        Cs4   v100
	BYTE	W04
	BYTE	W02
	BYTE		        Cs4   v052
	BYTE		N03     Dn4   v100
	BYTE	W03
	BYTE	W03
	BYTE		        Dn4   v052
	BYTE		N03     En4   v100
	BYTE	W01
	BYTE	W05
	BYTE		        En4   v052
	BYTE		N03     Cs5   v100
	BYTE	W03
	BYTE	W03
	BYTE		        An4 
	BYTE		N03     Cs5   v052
	BYTE	W01
	BYTE	W05
	BYTE		        En4   v100
	BYTE		N03     An4   v052
	BYTE	W04
	BYTE	W02
	BYTE		        Cs4   v100
	BYTE		N03     En4   v052
	BYTE	W03
	BYTE	W03
	BYTE		        Cs4 
	BYTE		N03     An4   v100
	BYTE	W01
	BYTE	W05
	BYTE		        En4 
	BYTE		N03     An4   v052
	BYTE	W04
	BYTE	W02
	BYTE		        Cs4   v100
	BYTE		N03     En4   v052
	BYTE	W01
	BYTE	W05
	BYTE		        An3   v100
	BYTE		N03     Cs4   v052
	BYTE	W04
	BYTE	W02
	BYTE		        An3 
	BYTE		N03     En4   v100
	BYTE	W03
	BYTE	W03
	BYTE		        Cs4 
	BYTE		N03     En4   v052
	BYTE	W01
	BYTE	W05
	BYTE		        An3   v100
	BYTE		N03     Cs4   v052
	BYTE	W04
	BYTE	W02
	BYTE		        En3   v100
	BYTE		N03     An3   v052
	BYTE	W03
	BYTE	W03
	BYTE		        En3 
	BYTE		N03     Cs4   v100
	BYTE	W04
	BYTE	W02
	BYTE		        An3 
	BYTE		N03     Cs4   v052
	BYTE	W03
	BYTE	W03
	BYTE		        En3   v100
	BYTE		N03     An3   v052
	BYTE	W01
	BYTE	W05
	BYTE		        Cs3   v100
	BYTE		N03     En3   v052
	BYTE	W04
	BYTE	W02
	BYTE		        Cs3 
	BYTE		N03     An3   v100
	BYTE	W03
	BYTE	W03
	BYTE		        En3 
	BYTE		N03     An3   v052
	BYTE	W01
	BYTE	W03
	BYTE	W02
	BYTE		        Cs3   v100
	BYTE		N03     En3   v052
	BYTE	W03
	BYTE	W03
	BYTE		        An2   v100
	BYTE		N03     Cs3   v052
	BYTE	W01
	BYTE	W05
// 090   ----------------------------------------
	BYTE		        An2 
	BYTE	W04
	BYTE	W05
	BYTE	W04
	BYTE	W03
	BYTE	W84
	BYTE	W01
	BYTE	W19
	BYTE		N05     Gn3   v100
	BYTE	W06
	BYTE		        An3 
	BYTE	W06
	BYTE		        Gn3   v052
	BYTE		N05     As3   v100
	BYTE	W06
	BYTE		        An3   v052
	BYTE		N05     Fn4   v100
	BYTE	W03
	BYTE		N02     As3   v080
	BYTE	W03
	BYTE	GoTo
	 POIN2	id_purpose_gba_1_B1
id_purpose_gba_1_B2:
// 091   ----------------------------------------
	BYTE	PATT
	 POIN2	id_purpose_gba_1_003
// 092   ----------------------------------------
	BYTE	PATT
	 POIN2	id_purpose_gba_1_004
	BYTE		EOT     Fn3 
	BYTE		N05     Gn3   v100
	BYTE	W06
	BYTE		        An3 
	BYTE	W06
	BYTE		        Gn3   v052
	BYTE		N05     As3   v100
	BYTE	W06
	BYTE		        An3   v052
	BYTE		N05     Fn4   v100
	BYTE	W03
	BYTE		N02     As3   v080
	BYTE	W03
// 093   ----------------------------------------
	BYTE	PATT
	 POIN2	id_purpose_gba_1_005
// 094   ----------------------------------------
	BYTE	PATT
	 POIN2	id_purpose_gba_1_006
// 095   ----------------------------------------
	BYTE	PATT
	 POIN2	id_purpose_gba_1_007
// 096   ----------------------------------------
	BYTE		N12     As4   v100
	BYTE	W03
	BYTE	W01
	BYTE	W03
	BYTE	W02
	BYTE	W01
	BYTE	W02
	BYTE		N18     As4   v052
	BYTE	W01
	BYTE	W02
	BYTE	W03
	BYTE		N06     An4   v100
	BYTE	W01
	BYTE	W02
	BYTE	W03
	BYTE		N12     Gn4 
	BYTE	W01
	BYTE	W02
	BYTE	W01
	BYTE	W02
	BYTE		N06     An4   v052
	BYTE	W01
	BYTE	W03
	BYTE	W02
	BYTE		N48     Gn4 
	BYTE	W01
	BYTE	W03
	BYTE	W02
	BYTE	W01
	BYTE	W02
	BYTE	W01
	BYTE	W02
	BYTE	W03
	BYTE	W01
	BYTE	W02
	BYTE	W01
	BYTE	W02
	BYTE	W01
	BYTE	W03
	BYTE	W02
	BYTE	W01
	BYTE	W03
	BYTE	W02
	BYTE	W01
	BYTE	W02
	BYTE		N12     Fn4   v100
	BYTE	W01
	BYTE	W02
	BYTE	W03
	BYTE	W01
	BYTE	W02
	BYTE	W01
	BYTE	W02
	BYTE		N18     Fn4   v052
	BYTE	W01
	BYTE	W02
	BYTE	W01
	BYTE	W02
	BYTE		N06     En4   v100
	BYTE	W01
	BYTE	W03
	BYTE	W02
	BYTE		N12     Dn4 
	BYTE	W01
	BYTE	W02
	BYTE	W01
	BYTE	W02
	BYTE		N06     En4   v052
	BYTE	W03
	BYTE	W01
	BYTE	W02
	BYTE		N36     Dn4 
	BYTE	W01
	BYTE	W02
	BYTE	W01
	BYTE	W02
	BYTE	W01
	BYTE	W02
	BYTE	W01
	BYTE	W03
	BYTE	W02
	BYTE	W01
	BYTE	W02
	BYTE	W01
	BYTE	W02
	BYTE	W01
	BYTE	W02
	BYTE		N05     Fn4   v100
	BYTE	W01
	BYTE	W02
	BYTE	W01
	BYTE	W02
	BYTE		        Gn4 
	BYTE	W01
	BYTE	W02
	BYTE	W01
	BYTE	W02
// 097   ----------------------------------------
	BYTE		        Fn4   v052
	BYTE		N12     Gs4   v100
	BYTE	W01
	BYTE	W02
	BYTE	W01
	BYTE	W02
	BYTE		N05     Gn4   v052
	BYTE	W01
	BYTE	W02
	BYTE	W01
	BYTE	W02
	BYTE		N24     Gs4 
	BYTE	W01
	BYTE	W02
	BYTE	W01
	BYTE	W02
	BYTE	W01
	BYTE	W02
	BYTE	W01
	BYTE	W02
	BYTE		N12     Gn4   v100
	BYTE	W01
	BYTE	W02
	BYTE	W01
	BYTE	W02
	BYTE	W01
	BYTE	W02
	BYTE	W01
	BYTE	W02
	BYTE		N24     Gn4   v052
	BYTE	W01
	BYTE	W02
	BYTE	W01
	BYTE	W02
	BYTE	W01
	BYTE	W02
	BYTE	W01
	BYTE	W02
	BYTE		N12     Fn4   v100
	BYTE	W01
	BYTE	W02
	BYTE	W01
	BYTE	W02
	BYTE	W01
	BYTE	W02
	BYTE	W01
	BYTE	W02
	BYTE		N24     Fn4   v052
	BYTE	W01
	BYTE	W02
	BYTE	W01
	BYTE	W02
	BYTE	W01
	BYTE	W02
	BYTE	W01
	BYTE	W02
	BYTE		N12     Ds4   v100
	BYTE	W01
	BYTE	W02
	BYTE	W01
	BYTE	W02
	BYTE	W01
	BYTE	W02
	BYTE	W01
	BYTE	W02
	BYTE		N18     Ds4   v052
	BYTE	W01
	BYTE	W02
	BYTE	W01
	BYTE	W02
	BYTE		N06     Cn4   v100
	BYTE	W01
	BYTE	W02
	BYTE	W01
	BYTE	W02
	BYTE		N12     Gs3 
	BYTE	W01
	BYTE	W02
	BYTE	W01
	BYTE	W02
	BYTE		N06     Cn4   v052
	BYTE	W01
	BYTE	W02
	BYTE	W01
	BYTE	W02
	BYTE		N36     Gs3 
	BYTE	W01
	BYTE	W02
	BYTE	W01
	BYTE	W02
	BYTE	W01
	BYTE	W02
	BYTE	W01
	BYTE	W01
	BYTE	W01
	BYTE	W12
	BYTE		N12     As3   v100
	BYTE	W12
// 098   ----------------------------------------
	BYTE		        As3   v052
	BYTE		N12     Cn4   v100
	BYTE	W12
	BYTE		TIE     Cn4   v052
	BYTE	W96
	BYTE	W23
	BYTE	W01
	BYTE		EOT   
	BYTE	W01
	BYTE	FINE

//**************** Track 2 (Midi-Chn.2) ****************//

id_purpose_gba_2:
	BYTE		VOL     127*id_purpose_gba_mvl/mxv
	BYTE	KEYSH   id_purpose_gba_key+0
// 000   ----------------------------------------
	BYTE		VOICE   71
	BYTE	W24
// 001   ----------------------------------------
	BYTE	W24
// 002   ----------------------------------------
	BYTE		N05     Gn2   v100
	BYTE	W06
	BYTE		        An2 
	BYTE	W06
	BYTE		        As2 
	BYTE	W06
	BYTE		        Fn3 
	BYTE	W03
	BYTE		N02     As2   v080
	BYTE	W03
id_purpose_gba_2_B1:
// 003   ----------------------------------------
	BYTE		N48     Cn3   v100
	BYTE	W48
	BYTE		N20     As2 
	BYTE	W21
	BYTE		N02     As2   v080
	BYTE	W03
	BYTE		N40     An2   v100
	BYTE	W42
	BYTE		N02     As2   v080
	BYTE	W03
	BYTE		        An2 
	BYTE	W03
	BYTE		N24     Gn2   v100
	BYTE	W24
// 004   ----------------------------------------
	BYTE		TIE     Fn2 
	BYTE	W96
	BYTE	W12
	BYTE		EOT   
	BYTE	W12
	BYTE		N05     Gn2 
	BYTE	W06
	BYTE		        An2 
	BYTE	W06
	BYTE		        As2 
	BYTE	W06
	BYTE		        Fn3 
	BYTE	W03
	BYTE		N02     As2   v080
	BYTE	W03
// 005   ----------------------------------------
	BYTE		N44     Cn3   v100
	BYTE	W44
	BYTE	W01
	BYTE		N02     Cn3   v080
	BYTE	W03
	BYTE		N10     Dn3   v100
	BYTE	W12
	BYTE		        As3 
	BYTE	W12
	BYTE		N24   
	BYTE	W24
	BYTE		        An3 
	BYTE	W24
	BYTE		        Gn3 
	BYTE	W21
	BYTE		N02     Ds3   v080
	BYTE	W03
// 006   ----------------------------------------
	BYTE		N56     Fn3   v100
	BYTE	W60
	BYTE		N05     Ds3 
	BYTE	W06
	BYTE		        Dn3 
	BYTE	W06
	BYTE		N66     Cn3 
	BYTE	W68
	BYTE	W01
	BYTE		N02     Dn3   v080
	BYTE	W03
// 007   ----------------------------------------
	BYTE		N48     Ds3   v100
	BYTE	W48
	BYTE		N20     Fn3 
	BYTE	W21
	BYTE		N02     Fn3   v080
	BYTE	W03
	BYTE		N48     Gn3   v100
	BYTE	W48
	BYTE		N24     An3 
	BYTE	W24
// 008   ----------------------------------------
	BYTE		N18     As3 
	BYTE	W18
	BYTE		N06     An3 
	BYTE	W06
	BYTE		N48     Gn3 
	BYTE	W48
	BYTE		N18     Fn3 
	BYTE	W18
	BYTE		N06     En3 
	BYTE	W06
	BYTE		N36     Dn3 
	BYTE	W36
	BYTE		N05     Fn3 
	BYTE	W06
	BYTE		        Gn3 
	BYTE	W06
// 009   ----------------------------------------
	BYTE		N24     Gs3 
	BYTE	W24
	BYTE		        Gn3 
	BYTE	W24
	BYTE		        Fn3 
	BYTE	W24
	BYTE		N18     Ds3 
	BYTE	W18
	BYTE		N06     Cn3 
	BYTE	W06
	BYTE		N36     Gs2 
	BYTE	W36
	BYTE		N12     As2 
	BYTE	W12
// 010   ----------------------------------------
	BYTE		TIE     Cn3 
	BYTE	W96
	BYTE	W24
	BYTE		EOT   
	BYTE		VOICE   57
	BYTE		N05     Gn3 
	BYTE	W06
	BYTE		        An3 
	BYTE	W06
	BYTE		        As3 
	BYTE	W06
	BYTE		        Fn4 
	BYTE	W06
// 011   ----------------------------------------
id_purpose_gba_2_011:
	BYTE		N48     Cn4   v100
	BYTE	W48
	BYTE		N24     As3 
	BYTE	W24
	BYTE		N48     An3 
	BYTE	W48
	BYTE		N24     Gn3 
	BYTE	W24
	BYTE	PEND
// 012   ----------------------------------------
id_purpose_gba_2_012:
	BYTE		TIE     Fn3   v100
	BYTE	W96
	BYTE	W12
	BYTE	PEND
	BYTE		EOT   
	BYTE	W12
	BYTE		N05     Gn3 
	BYTE	W06
	BYTE		        An3 
	BYTE	W06
	BYTE		        As3 
	BYTE	W06
	BYTE		        Fn4 
	BYTE	W06
// 013   ----------------------------------------
id_purpose_gba_2_013:
	BYTE		N48     Cn4   v100
	BYTE	W48
	BYTE		N10     Dn4 
	BYTE	W12
	BYTE		        As4 
	BYTE	W12
	BYTE		N24   
	BYTE	W24
	BYTE		        An4 
	BYTE	W24
	BYTE		        Gn4 
	BYTE	W24
	BYTE	PEND
// 014   ----------------------------------------
id_purpose_gba_2_014:
	BYTE		N56     Fn4   v100
	BYTE	W60
	BYTE		N05     Ds4 
	BYTE	W06
	BYTE		        Dn4 
	BYTE	W06
	BYTE		N64     Cn4 
	BYTE	W72
	BYTE	PEND
// 015   ----------------------------------------
id_purpose_gba_2_015:
	BYTE		N48     Ds4   v100
	BYTE	W48
	BYTE		N24     Fn4 
	BYTE	W24
	BYTE		N48     Gn4 
	BYTE	W48
	BYTE		N24     An4 
	BYTE	W24
	BYTE	PEND
// 016   ----------------------------------------
id_purpose_gba_2_016:
	BYTE		N18     As4   v100
	BYTE	W18
	BYTE		N06     An4 
	BYTE	W06
	BYTE		N48     Gn4 
	BYTE	W48
	BYTE		N16     Gs4 
	BYTE	W18
	BYTE		N05     Gn4 
	BYTE	W06
	BYTE		N42     Fn4 
	BYTE	W48
	BYTE	PEND
// 017   ----------------------------------------
id_purpose_gba_2_017:
	BYTE		N21     Ds4   v100
	BYTE	W24
	BYTE		        Cn4 
	BYTE	W24
	BYTE		        Gs3 
	BYTE	W24
	BYTE		        Ds4 
	BYTE	W24
	BYTE		        Fn4 
	BYTE	W24
	BYTE		        Fs4 
	BYTE	W24
	BYTE	PEND
// 018   ----------------------------------------
	BYTE		TIE     As4 
	BYTE	W96
	BYTE	W24
	BYTE		VOICE   72
	BYTE	W08
	BYTE		EOT   
	BYTE	W04
	BYTE		N05     Gs4 
	BYTE	W06
	BYTE		        As4 
	BYTE	W06
// 019   ----------------------------------------
	BYTE		N48     Bn4 
	BYTE	W48
	BYTE		N24     Cs5 
	BYTE	W24
	BYTE		N16     As4 
	BYTE	W18
	BYTE		N05     Fs4 
	BYTE	W06
	BYTE		N48     Ds4 
	BYTE	W48
// 020   ----------------------------------------
	BYTE		        Cs5 
	BYTE	W48
	BYTE		N24     Dn5 
	BYTE	W24
	BYTE		N16     Bn4 
	BYTE	W18
	BYTE		N05     Gs4 
	BYTE	W06
	BYTE		N36     En4 
	BYTE	W36
	BYTE		N05   
	BYTE	W06
	BYTE		        Fs4 
	BYTE	W06
// 021   ----------------------------------------
	BYTE		N24     Gn4 
	BYTE	W24
	BYTE		        An4 
	BYTE	W24
	BYTE		        Bn4 
	BYTE	W24
	BYTE		        An4 
	BYTE	W24
	BYTE		        Dn5 
	BYTE	W24
	BYTE		        Fs4 
	BYTE	W24
// 022   ----------------------------------------
	BYTE		N16   
	BYTE	W18
	BYTE		N05     En4 
	BYTE	W06
	BYTE		N96   
	BYTE	W96
	BYTE	W12
	BYTE		N05     An4 
	BYTE	W06
	BYTE		        Bn4 
	BYTE	W06
// 023   ----------------------------------------
	BYTE		N48     Cn5 
	BYTE	W48
	BYTE		N24     Dn5 
	BYTE	W24
	BYTE		N16     Bn4 
	BYTE	W18
	BYTE		N05     Gn4 
	BYTE	W06
	BYTE		N48     En4 
	BYTE	W48
// 024   ----------------------------------------
	BYTE		        Dn5 
	BYTE	W48
	BYTE		N24     Ds5 
	BYTE	W24
	BYTE		N16     Cn5 
	BYTE	W18
	BYTE		N05     An4 
	BYTE	W06
	BYTE		N36     Fn4 
	BYTE	W36
	BYTE		N05   
	BYTE	W06
	BYTE		        Gn4 
	BYTE	W06
// 025   ----------------------------------------
	BYTE		N24     Gs4 
	BYTE	W24
	BYTE		        As4 
	BYTE	W24
	BYTE		        Cn5 
	BYTE	W24
	BYTE		        As4 
	BYTE	W24
	BYTE		        Ds5 
	BYTE	W24
	BYTE		        Gn5 
	BYTE	W24
// 026   ----------------------------------------
	BYTE		N16   
	BYTE	W18
	BYTE		N05     Fn5 
	BYTE	W06
	BYTE		TIE   
	BYTE	W96
	BYTE	W24
	BYTE		EOT   
// 027   ----------------------------------------
	BYTE	W96
	BYTE	W24
	BYTE		N05     Gn3 
	BYTE	W06
	BYTE		        An3 
	BYTE	W06
	BYTE		        As3 
	BYTE	W06
	BYTE		        Fn4 
	BYTE	W06
// 028   ----------------------------------------
	BYTE	PATT
	 POIN2	id_purpose_gba_2_011
// 029   ----------------------------------------
	BYTE	PATT
	 POIN2	id_purpose_gba_2_012
	BYTE		EOT     Fn3 
	BYTE	W12
	BYTE		N05     Gn3   v100
	BYTE	W06
	BYTE		        An3 
	BYTE	W06
	BYTE		        As3 
	BYTE	W06
	BYTE		        Fn4 
	BYTE	W06
// 030   ----------------------------------------
	BYTE	PATT
	 POIN2	id_purpose_gba_2_013
// 031   ----------------------------------------
	BYTE	PATT
	 POIN2	id_purpose_gba_2_014
// 032   ----------------------------------------
	BYTE	PATT
	 POIN2	id_purpose_gba_2_015
// 033   ----------------------------------------
	BYTE	PATT
	 POIN2	id_purpose_gba_2_016
// 034   ----------------------------------------
	BYTE	PATT
	 POIN2	id_purpose_gba_2_017
// 035   ----------------------------------------
	BYTE		TIE     As4   v100
	BYTE	W96
	BYTE	W48
// 036   ----------------------------------------
	BYTE	W96
	BYTE	W42
	BYTE	W01
	BYTE		EOT   
	BYTE	W05
// 037   ----------------------------------------
	BYTE	W96
	BYTE	W48
// 038   ----------------------------------------
	BYTE	W96
	BYTE	W48
// 039   ----------------------------------------
	BYTE	W96
	BYTE	W48
// 040   ----------------------------------------
	BYTE	W06
	BYTE		N06     As4   v080
	BYTE	W06
	BYTE		        Bn4 
	BYTE	W06
	BYTE		        Cs5 
	BYTE	W06
	BYTE		        As5 
	BYTE	W06
	BYTE		        Fs5 
	BYTE	W06
	BYTE		        Cs5 
	BYTE	W06
	BYTE		        As4 
	BYTE	W06
	BYTE		        Fs5 
	BYTE	W06
	BYTE		        Cs5 
	BYTE	W06
	BYTE		        As4 
	BYTE	W06
	BYTE		        Fs4 
	BYTE	W78
// 041   ----------------------------------------
	BYTE		VOICE   21
	BYTE	W80
	BYTE	W03
	BYTE	W30
	BYTE	W01
	BYTE		N03     Cs3 
	BYTE		N03     Fs3 
	BYTE	W03
	BYTE		        En3 
	BYTE		N03     Bn3 
	BYTE	W03
	BYTE		N64     Fs3 
	BYTE		N64     Cs4   v100
	BYTE	W24
// 042   ----------------------------------------
	BYTE	W02
	BYTE	W01
	BYTE	W02
	BYTE	W01
	BYTE	W02
	BYTE	W01
	BYTE	W02
	BYTE	W01
	BYTE	W02
	BYTE	W01
	BYTE	W02
	BYTE	W01
	BYTE	W02
	BYTE	W01
	BYTE	W02
	BYTE	W01
	BYTE	W02
	BYTE	W01
	BYTE	W02
	BYTE	W01
	BYTE	W02
	BYTE	W01
	BYTE	W02
	BYTE	W01
	BYTE	W02
	BYTE	W01
	BYTE	W02
	BYTE	W01
	BYTE	W02
	BYTE	W01
	BYTE	W02
	BYTE	W01
	BYTE	W01
	BYTE	W48
	BYTE	W03
	BYTE	W44
// 043   ----------------------------------------
	BYTE		VOICE   72
	BYTE	W96
	BYTE	W48
// 044   ----------------------------------------
	BYTE	W96
	BYTE	W48
// 045   ----------------------------------------
	BYTE	W96
	BYTE	W48
// 046   ----------------------------------------
	BYTE	W96
// 047   ----------------------------------------
	BYTE	W96
// 048   ----------------------------------------
	BYTE	W96
// 049   ----------------------------------------
	BYTE	W96
// 050   ----------------------------------------
	BYTE	W96
// 051   ----------------------------------------
	BYTE	W96
// 052   ----------------------------------------
	BYTE	W96
// 053   ----------------------------------------
	BYTE	W96
// 054   ----------------------------------------
	BYTE	W96
// 055   ----------------------------------------
	BYTE	W96
// 056   ----------------------------------------
	BYTE	W96
// 057   ----------------------------------------
	BYTE	W96
// 058   ----------------------------------------
	BYTE	W96
// 059   ----------------------------------------
	BYTE	W96
// 060   ----------------------------------------
	BYTE	W96
// 061   ----------------------------------------
	BYTE	W96
// 062   ----------------------------------------
	BYTE	W96
// 063   ----------------------------------------
	BYTE	W96
// 064   ----------------------------------------
	BYTE	W96
// 065   ----------------------------------------
	BYTE	W96
// 066   ----------------------------------------
	BYTE	W96
// 067   ----------------------------------------
	BYTE	W96
// 068   ----------------------------------------
	BYTE	W96
// 069   ----------------------------------------
	BYTE	W96
// 070   ----------------------------------------
	BYTE	W96
// 071   ----------------------------------------
	BYTE	W96
// 072   ----------------------------------------
	BYTE	W96
// 073   ----------------------------------------
	BYTE	W96
// 074   ----------------------------------------
	BYTE	W96
// 075   ----------------------------------------
	BYTE	W96
// 076   ----------------------------------------
	BYTE	W96
// 077   ----------------------------------------
	BYTE	W96
// 078   ----------------------------------------
	BYTE	W96
// 079   ----------------------------------------
	BYTE	W96
// 080   ----------------------------------------
	BYTE	W96
// 081   ----------------------------------------
	BYTE	W96
// 082   ----------------------------------------
	BYTE	W96
// 083   ----------------------------------------
	BYTE	W96
// 084   ----------------------------------------
	BYTE	W96
// 085   ----------------------------------------
	BYTE	W96
// 086   ----------------------------------------
	BYTE	W96
	BYTE	W48
// 087   ----------------------------------------
	BYTE	W96
	BYTE	W48
// 088   ----------------------------------------
	BYTE	W96
	BYTE	W48
// 089   ----------------------------------------
	BYTE	W96
	BYTE	W48
// 090   ----------------------------------------
	BYTE	W06
	BYTE		N05   
	BYTE	W06
	BYTE		        Dn4 
	BYTE	W06
	BYTE		        En4 
	BYTE	W06
	BYTE		        Cs5 
	BYTE	W06
	BYTE		        An4 
	BYTE	W06
	BYTE		        En4 
	BYTE	W06
	BYTE		        Cs4 
	BYTE	W06
	BYTE		        An4 
	BYTE	W06
	BYTE		        En4 
	BYTE	W06
	BYTE		        Cs4 
	BYTE	W06
	BYTE		        An3 
	BYTE	W06
	BYTE		        Gn3 
	BYTE	W06
	BYTE		N05   
	BYTE	W06
	BYTE		        An3 
	BYTE	W06
	BYTE		        Gn3 
	BYTE	W06
	BYTE		        Dn3 
	BYTE	W06
	BYTE		        Gn3 
	BYTE	W06
	BYTE		        An3 
	BYTE	W06
	BYTE		        Dn3 
	BYTE	W30
	BYTE	GoTo
	 POIN2	id_purpose_gba_2_B1
id_purpose_gba_2_B2:
// 091   ----------------------------------------
	BYTE	W96
	BYTE	W48
// 092   ----------------------------------------
	BYTE	W96
	BYTE	W48
// 093   ----------------------------------------
	BYTE	W96
	BYTE	W48
// 094   ----------------------------------------
	BYTE	W96
	BYTE	W48
// 095   ----------------------------------------
	BYTE	W96
	BYTE	W48
// 096   ----------------------------------------
	BYTE	W96
	BYTE	W48
// 097   ----------------------------------------
	BYTE	W96
	BYTE	W48
// 098   ----------------------------------------
	BYTE	W96
	BYTE	W36
	BYTE	W01
	BYTE	FINE

//**************** Track 3 (Midi-Chn.3) ****************//

id_purpose_gba_3:
	BYTE		VOL     127*id_purpose_gba_mvl/mxv
	BYTE	KEYSH   id_purpose_gba_key+0
// 000   ----------------------------------------
	BYTE		VOICE   105
	BYTE	W24
// 001   ----------------------------------------
	BYTE	W24
// 002   ----------------------------------------
	BYTE		N05     Gn3   v100
	BYTE	W06
	BYTE		        An3 
	BYTE	W06
	BYTE		        As3 
	BYTE	W06
	BYTE		        Fn4 
	BYTE	W06
id_purpose_gba_3_B1:
// 003   ----------------------------------------
id_purpose_gba_3_003:
	BYTE		N48     Cn4   v100
	BYTE	W48
	BYTE		N24     As3 
	BYTE	W24
	BYTE		N48     An3 
	BYTE	W48
	BYTE		N24     Gn3 
	BYTE	W24
	BYTE	PEND
// 004   ----------------------------------------
id_purpose_gba_3_004:
	BYTE		TIE     Fn3   v100
	BYTE	W96
	BYTE	W12
	BYTE	PEND
	BYTE		EOT   
	BYTE	W12
	BYTE		N05     Gn3 
	BYTE	W06
	BYTE		        An3 
	BYTE	W06
	BYTE		        As3 
	BYTE	W06
	BYTE		        Fn4 
	BYTE	W06
// 005   ----------------------------------------
id_purpose_gba_3_005:
	BYTE		N48     Cn4   v100
	BYTE	W48
	BYTE		N10     Dn4 
	BYTE	W12
	BYTE		        As4 
	BYTE	W12
	BYTE		N24   
	BYTE	W24
	BYTE		        An4 
	BYTE	W24
	BYTE		        Gn4 
	BYTE	W24
	BYTE	PEND
// 006   ----------------------------------------
id_purpose_gba_3_006:
	BYTE		N56     Fn4   v100
	BYTE	W60
	BYTE		N05     Ds4 
	BYTE	W06
	BYTE		        Dn4 
	BYTE	W06
	BYTE		N64     Cn4 
	BYTE	W72
	BYTE	PEND
// 007   ----------------------------------------
id_purpose_gba_3_007:
	BYTE		N42     Gn3   v100
	BYTE		N48     Ds4 
	BYTE	W48
	BYTE		N21     An3 
	BYTE		N24     Fn4 
	BYTE	W24
	BYTE		N42     As3 
	BYTE		N48     Gn4 
	BYTE	W48
	BYTE		N21     Cn4 
	BYTE		N24     An4 
	BYTE	W24
	BYTE	PEND
// 008   ----------------------------------------
	BYTE		N16     Dn4 
	BYTE		N18     As4 
	BYTE	W18
	BYTE		N05     Cn4 
	BYTE		N06     An4 
	BYTE	W06
	BYTE		N42     As3 
	BYTE		N48     Gn4 
	BYTE	W48
	BYTE		N16     An3 
	BYTE		N18     Fn4 
	BYTE	W18
	BYTE		N05     Gn3 
	BYTE		N06     En4 
	BYTE	W06
	BYTE		N42     Fn3 
	BYTE		N36     Dn4 
	BYTE	W36
	BYTE		N05     Fn4 
	BYTE	W06
	BYTE		        Gn4 
	BYTE	W06
// 009   ----------------------------------------
	BYTE		N24     Gs4 
	BYTE	W24
	BYTE		        Gn4 
	BYTE	W24
	BYTE		        Fn4 
	BYTE	W24
	BYTE		N18     Ds4 
	BYTE	W18
	BYTE		N06     Cn4 
	BYTE	W06
	BYTE		N36     Gs3 
	BYTE	W36
	BYTE		N12     As3 
	BYTE	W12
// 010   ----------------------------------------
id_purpose_gba_3_010:
	BYTE		TIE     Cn4   v100
	BYTE	W96
	BYTE	W24
	BYTE	PEND
	BYTE		EOT   
	BYTE		N05     Gn3 
	BYTE	W06
	BYTE		        An3 
	BYTE	W06
	BYTE		        As3 
	BYTE	W06
	BYTE		        Fn4 
	BYTE	W06
// 011   ----------------------------------------
	BYTE	PATT
	 POIN2	id_purpose_gba_3_003
// 012   ----------------------------------------
	BYTE	PATT
	 POIN2	id_purpose_gba_3_004
	BYTE		EOT     Fn3 
	BYTE	W12
	BYTE		N05     Gn3   v100
	BYTE	W06
	BYTE		        An3 
	BYTE	W06
	BYTE		        As3 
	BYTE	W06
	BYTE		        Fn4 
	BYTE	W06
// 013   ----------------------------------------
	BYTE	PATT
	 POIN2	id_purpose_gba_3_005
// 014   ----------------------------------------
	BYTE	PATT
	 POIN2	id_purpose_gba_3_006
// 015   ----------------------------------------
	BYTE	PATT
	 POIN2	id_purpose_gba_3_007
// 016   ----------------------------------------
id_purpose_gba_3_016:
	BYTE		N16     Dn4   v100
	BYTE		N18     As4 
	BYTE	W18
	BYTE		N05     Cn4 
	BYTE		N06     An4 
	BYTE	W06
	BYTE		N42     As3 
	BYTE		N48     Gn4 
	BYTE	W48
	BYTE		N16     Gs3 
	BYTE		N16     Gs4 
	BYTE	W18
	BYTE		N05     Gn3 
	BYTE		N05     Gn4 
	BYTE	W06
	BYTE		N42     Fn3 
	BYTE		N42     Fn4 
	BYTE	W48
	BYTE	PEND
// 017   ----------------------------------------
id_purpose_gba_3_017:
	BYTE		N21     Ds4   v100
	BYTE	W24
	BYTE		        Cn4 
	BYTE	W24
	BYTE		        Gs3 
	BYTE	W24
	BYTE		        Ds4 
	BYTE	W24
	BYTE		        Fn4 
	BYTE	W24
	BYTE		        Fs4 
	BYTE	W24
	BYTE	PEND
// 018   ----------------------------------------
	BYTE		TIE     As4 
	BYTE	W96
	BYTE	W40
	BYTE		EOT   
	BYTE	W08
// 019   ----------------------------------------
	BYTE		N03     Gs2 
	BYTE	W06
	BYTE		        Fs2 
	BYTE	W06
	BYTE		        Gs2 
	BYTE	W06
	BYTE		        Ds3 
	BYTE	W06
	BYTE		        Gs2 
	BYTE	W06
	BYTE		        Ds3 
	BYTE	W06
	BYTE		        Gs2 
	BYTE	W06
	BYTE		        Ds3 
	BYTE	W06
	BYTE		        Gs2 
	BYTE	W06
	BYTE		        Fs2 
	BYTE	W06
	BYTE		        Gs2 
	BYTE	W06
	BYTE		        Ds3 
	BYTE	W06
	BYTE		        Gs2 
	BYTE	W06
	BYTE		        Fs2 
	BYTE	W06
	BYTE		        Gs2 
	BYTE	W06
	BYTE		        Ds3 
	BYTE	W06
	BYTE		        Gs2 
	BYTE	W06
	BYTE		        Fs2 
	BYTE	W06
	BYTE		        Gs2 
	BYTE	W06
	BYTE		        Ds3 
	BYTE	W06
	BYTE		        Gs2 
	BYTE	W06
	BYTE		        Fs2 
	BYTE	W06
	BYTE		        Gs2 
	BYTE	W06
	BYTE		        Ds3 
	BYTE	W06
// 020   ----------------------------------------
	BYTE		        Fs2 
	BYTE	W06
	BYTE		        En2 
	BYTE	W06
	BYTE		        Fs2 
	BYTE	W06
	BYTE		        Cs3 
	BYTE	W06
	BYTE		        Fs2 
	BYTE	W06
	BYTE		        En2 
	BYTE	W06
	BYTE		        Fs2 
	BYTE	W06
	BYTE		        Cs3 
	BYTE	W06
	BYTE		        Fs2 
	BYTE	W06
	BYTE		        En2 
	BYTE	W06
	BYTE		        Fs2 
	BYTE	W06
	BYTE		        Cs3 
	BYTE	W06
	BYTE		        En2 
	BYTE	W06
	BYTE		        Dn2 
	BYTE	W06
	BYTE		        En2 
	BYTE	W06
	BYTE		        Bn2 
	BYTE	W06
	BYTE		        En2 
	BYTE	W06
	BYTE		        Dn2 
	BYTE	W06
	BYTE		        En2 
	BYTE	W06
	BYTE		        Bn2 
	BYTE	W06
	BYTE		        En2 
	BYTE	W06
	BYTE		        Dn2 
	BYTE	W06
	BYTE		        En2 
	BYTE	W06
	BYTE		        Bn2 
	BYTE	W06
// 021   ----------------------------------------
	BYTE		        En2 
	BYTE	W06
	BYTE		        Dn2 
	BYTE	W06
	BYTE		        En2 
	BYTE	W06
	BYTE		        Bn2 
	BYTE	W06
	BYTE		        En2 
	BYTE	W06
	BYTE		        Dn2 
	BYTE	W06
	BYTE		        En2 
	BYTE	W06
	BYTE		        Bn2 
	BYTE	W06
	BYTE		        En2 
	BYTE	W06
	BYTE		        Dn2 
	BYTE	W06
	BYTE		        En2 
	BYTE	W06
	BYTE		        Bn2 
	BYTE	W06
	BYTE		        Fs2 
	BYTE	W06
	BYTE		        Gs2 
	BYTE	W06
	BYTE		        An2 
	BYTE	W06
	BYTE		        Dn3 
	BYTE	W06
	BYTE		        Fs2 
	BYTE	W06
	BYTE		        Dn3 
	BYTE	W06
	BYTE		        Fs2 
	BYTE	W06
	BYTE		        Dn3 
	BYTE	W06
	BYTE		        Fs2 
	BYTE	W06
	BYTE		        Gs2 
	BYTE	W06
	BYTE		        An2 
	BYTE	W06
	BYTE		        Dn3 
	BYTE	W06
// 022   ----------------------------------------
	BYTE		        En2 
	BYTE	W06
	BYTE		        Dn2 
	BYTE	W06
	BYTE		        En2 
	BYTE	W06
	BYTE		        Bn2 
	BYTE	W06
	BYTE		        En2 
	BYTE	W06
	BYTE		        Dn2 
	BYTE	W06
	BYTE		        En2 
	BYTE	W06
	BYTE		        Bn2 
	BYTE	W06
	BYTE		        En2 
	BYTE	W06
	BYTE		        Dn2 
	BYTE	W06
	BYTE		        En2 
	BYTE	W06
	BYTE		        Bn2 
	BYTE	W06
	BYTE		        En2 
	BYTE	W06
	BYTE		        Dn2 
	BYTE	W06
	BYTE		        En2 
	BYTE	W06
	BYTE		        Bn2 
	BYTE	W06
	BYTE		        En2 
	BYTE	W06
	BYTE		        Dn2 
	BYTE	W06
	BYTE		        En2 
	BYTE	W06
	BYTE		        Bn2 
	BYTE	W06
	BYTE		        En2 
	BYTE	W06
	BYTE		        Dn2 
	BYTE	W06
	BYTE		        En2 
	BYTE	W06
	BYTE		        Bn2 
	BYTE	W06
// 023   ----------------------------------------
	BYTE		N03   
	BYTE	W06
	BYTE		        An2 
	BYTE	W06
	BYTE		        Bn2 
	BYTE	W06
	BYTE		        En2 
	BYTE	W06
	BYTE		        Bn2 
	BYTE	W06
	BYTE		        En2 
	BYTE	W06
	BYTE		        Bn2 
	BYTE	W06
	BYTE		        En2 
	BYTE	W06
	BYTE		        Bn2 
	BYTE	W06
	BYTE		        An2 
	BYTE	W06
	BYTE		        Bn2 
	BYTE	W06
	BYTE		        En2 
	BYTE	W06
	BYTE		        Bn2 
	BYTE	W06
	BYTE		        Gn2 
	BYTE	W06
	BYTE		        Bn2 
	BYTE	W06
	BYTE		        En2 
	BYTE	W06
	BYTE		        Bn2 
	BYTE	W06
	BYTE		        An2 
	BYTE	W06
	BYTE		        Bn2 
	BYTE	W06
	BYTE		        An2 
	BYTE	W06
	BYTE		        Bn2 
	BYTE	W06
	BYTE		        Gn2 
	BYTE	W06
	BYTE		        Bn2 
	BYTE	W06
	BYTE		        En2 
	BYTE	W06
// 024   ----------------------------------------
	BYTE		        Gn2 
	BYTE	W06
	BYTE		        Fn2 
	BYTE	W06
	BYTE		        Gn2 
	BYTE	W06
	BYTE		        Dn3 
	BYTE	W06
	BYTE		        Gn2 
	BYTE	W06
	BYTE		        Fn2 
	BYTE	W06
	BYTE		        Gn2 
	BYTE	W06
	BYTE		        Dn3 
	BYTE	W06
	BYTE		        Gn2 
	BYTE	W06
	BYTE		        Fn2 
	BYTE	W06
	BYTE		        Gn2 
	BYTE	W06
	BYTE		        Dn3 
	BYTE	W06
	BYTE		        Fn2 
	BYTE	W06
	BYTE		        Ds2 
	BYTE	W06
	BYTE		        Fn2 
	BYTE	W06
	BYTE		        Cn3 
	BYTE	W06
	BYTE		        Fn2 
	BYTE	W06
	BYTE		        Ds2 
	BYTE	W06
	BYTE		        Fn2 
	BYTE	W06
	BYTE		        Cn3 
	BYTE	W06
	BYTE		        Fn2 
	BYTE	W06
	BYTE		        Ds2 
	BYTE	W06
	BYTE		        Fn2 
	BYTE	W06
	BYTE		        Cn3 
	BYTE	W06
// 025   ----------------------------------------
	BYTE		        Fn2 
	BYTE	W06
	BYTE		        Ds2 
	BYTE	W06
	BYTE		        Fn2 
	BYTE	W06
	BYTE		        Cn3 
	BYTE	W06
	BYTE		        Fn2 
	BYTE	W06
	BYTE		        Ds2 
	BYTE	W06
	BYTE		        Fn2 
	BYTE	W06
	BYTE		        Cn3 
	BYTE	W06
	BYTE		        Fn2 
	BYTE	W06
	BYTE		        Ds2 
	BYTE	W06
	BYTE		        Fn2 
	BYTE	W06
	BYTE		        Cn3 
	BYTE	W06
	BYTE		        Gn2 
	BYTE	W06
	BYTE		        An2 
	BYTE	W06
	BYTE		        As2 
	BYTE	W06
	BYTE		        Ds3 
	BYTE	W06
	BYTE		        Gn2 
	BYTE	W06
	BYTE		        Ds3 
	BYTE	W06
	BYTE		        Gn2 
	BYTE	W06
	BYTE		        Ds3 
	BYTE	W06
	BYTE		        Gn2 
	BYTE	W06
	BYTE		        Ds3 
	BYTE	W06
	BYTE		        Gn2 
	BYTE	W06
	BYTE		        Ds3 
	BYTE	W06
// 026   ----------------------------------------
	BYTE	W96
	BYTE	W48
// 027   ----------------------------------------
id_purpose_gba_3_027:
	BYTE	W96
	BYTE	W24
	BYTE		N05     Gn3   v100
	BYTE	W06
	BYTE		        An3 
	BYTE	W06
	BYTE		        As3 
	BYTE	W06
	BYTE		        Fn4 
	BYTE	W06
	BYTE	PEND
// 028   ----------------------------------------
	BYTE	PATT
	 POIN2	id_purpose_gba_3_003
// 029   ----------------------------------------
	BYTE	PATT
	 POIN2	id_purpose_gba_3_004
	BYTE		EOT     Fn3 
	BYTE	W12
	BYTE		N05     Gn3   v100
	BYTE	W06
	BYTE		        An3 
	BYTE	W06
	BYTE		        As3 
	BYTE	W06
	BYTE		        Fn4 
	BYTE	W06
// 030   ----------------------------------------
	BYTE	PATT
	 POIN2	id_purpose_gba_3_005
// 031   ----------------------------------------
	BYTE	PATT
	 POIN2	id_purpose_gba_3_006
// 032   ----------------------------------------
	BYTE	PATT
	 POIN2	id_purpose_gba_3_007
// 033   ----------------------------------------
	BYTE	PATT
	 POIN2	id_purpose_gba_3_016
// 034   ----------------------------------------
	BYTE	PATT
	 POIN2	id_purpose_gba_3_017
// 035   ----------------------------------------
	BYTE		TIE     As4   v100
	BYTE	W96
	BYTE	W48
// 036   ----------------------------------------
	BYTE	W96
	BYTE	W40
	BYTE		EOT   
	BYTE	W08
// 037   ----------------------------------------
	BYTE	W96
	BYTE	W48
// 038   ----------------------------------------
	BYTE	W96
	BYTE	W48
// 039   ----------------------------------------
	BYTE	W96
	BYTE	W48
// 040   ----------------------------------------
	BYTE	W96
	BYTE	W48
// 041   ----------------------------------------
	BYTE		N03     Dn4 
	BYTE	W06
	BYTE		        Cs4 
	BYTE	W06
	BYTE		        Dn4 
	BYTE	W06
	BYTE		        An4 
	BYTE	W06
	BYTE		        Dn4 
	BYTE	W06
	BYTE		        Cs4 
	BYTE	W06
	BYTE		        Dn4 
	BYTE	W06
	BYTE		        An4 
	BYTE	W06
	BYTE		        Dn4 
	BYTE	W06
	BYTE		        Cs4 
	BYTE	W06
	BYTE		        Dn4 
	BYTE	W06
	BYTE		        An4 
	BYTE	W06
	BYTE		        Dn4 
	BYTE	W06
	BYTE		        Cs4 
	BYTE	W06
	BYTE		        Dn4 
	BYTE	W06
	BYTE		        An4 
	BYTE	W06
	BYTE		        Dn4 
	BYTE	W06
	BYTE		        Cs4 
	BYTE	W06
	BYTE		        Dn4 
	BYTE	W06
	BYTE		        An4 
	BYTE	W06
	BYTE		        Dn4 
	BYTE	W06
	BYTE		        Cs4 
	BYTE	W06
	BYTE		        Dn4 
	BYTE	W06
	BYTE		        An4 
	BYTE	W06
// 042   ----------------------------------------
	BYTE		        Fs4 
	BYTE	W06
	BYTE		        En4 
	BYTE	W06
	BYTE		        Fs4 
	BYTE	W06
	BYTE		        Cs5 
	BYTE	W06
	BYTE		        Fs4 
	BYTE	W06
	BYTE		        En4 
	BYTE	W06
	BYTE		        Fs4 
	BYTE	W06
	BYTE		        Cs5 
	BYTE	W06
	BYTE		        Fs4 
	BYTE	W06
	BYTE		        En4 
	BYTE	W06
	BYTE		        Fs4 
	BYTE	W06
	BYTE		        Cs5 
	BYTE	W06
	BYTE		        Gn4 
	BYTE	W06
	BYTE		        Fs4 
	BYTE	W06
	BYTE		        Gn4 
	BYTE	W06
	BYTE		        Dn5 
	BYTE	W06
	BYTE		        Gn4 
	BYTE	W06
	BYTE		        Fs4 
	BYTE	W06
	BYTE		        Gn4 
	BYTE	W06
	BYTE		        Dn5 
	BYTE	W06
	BYTE		        Gn4 
	BYTE	W06
	BYTE		        Fs4 
	BYTE	W06
	BYTE		        Gn4 
	BYTE	W06
	BYTE		        Dn5 
	BYTE	W06
// 043   ----------------------------------------
	BYTE		        An4 
	BYTE	W06
	BYTE		        Gs4 
	BYTE	W06
	BYTE		        An4 
	BYTE	W06
	BYTE		        En5 
	BYTE	W06
	BYTE		        An4 
	BYTE	W06
	BYTE		        Gs4 
	BYTE	W06
	BYTE		        An4 
	BYTE	W06
	BYTE		        En5 
	BYTE	W06
	BYTE		        An4 
	BYTE	W06
	BYTE		        Gs4 
	BYTE	W06
	BYTE		        An4 
	BYTE	W06
	BYTE		        En5 
	BYTE	W06
	BYTE		        Bn4 
	BYTE	W06
	BYTE		        An4 
	BYTE	W06
	BYTE		        Bn4 
	BYTE	W06
	BYTE		        Fs5 
	BYTE	W06
	BYTE		        Bn4 
	BYTE	W06
	BYTE		        An4 
	BYTE	W06
	BYTE		        Bn4 
	BYTE	W06
	BYTE		        Fs5 
	BYTE	W06
	BYTE		        Bn4 
	BYTE	W06
	BYTE		        An4 
	BYTE	W06
	BYTE		        Bn4 
	BYTE	W06
	BYTE		        Fs5 
	BYTE	W06
// 044   ----------------------------------------
	BYTE	W06
	BYTE		        Bn4 
	BYTE	W06
	BYTE		        Cs5 
	BYTE	W06
	BYTE		        Fs5 
	BYTE	W06
	BYTE		        Cs5 
	BYTE	W06
	BYTE		        Bn4 
	BYTE	W06
	BYTE		        Cs5 
	BYTE	W06
	BYTE		        Fs5 
	BYTE	W06
	BYTE		        Cs5 
	BYTE	W06
	BYTE		        Bn4 
	BYTE	W06
	BYTE		        Cs5 
	BYTE	W06
	BYTE		        Fs5 
	BYTE	W12
	BYTE		        Bn4 
	BYTE	W06
	BYTE		        Cs5 
	BYTE	W06
	BYTE		        Fs5 
	BYTE	W06
	BYTE		        Cs5 
	BYTE	W06
	BYTE		        Bn4 
	BYTE	W06
	BYTE		        Cs5 
	BYTE	W06
	BYTE		        Fs5 
	BYTE	W06
	BYTE		        Cs5 
	BYTE	W06
	BYTE		        Bn4 
	BYTE	W06
	BYTE		        Cs5 
	BYTE	W06
	BYTE		        Fs5 
	BYTE	W06
// 045   ----------------------------------------
	BYTE	W06
	BYTE		        As4 
	BYTE	W06
	BYTE		        Cs5 
	BYTE	W06
	BYTE		        Fs5 
	BYTE	W06
	BYTE		        Cs5 
	BYTE	W06
	BYTE		        As4 
	BYTE	W06
	BYTE		        Cs5 
	BYTE	W06
	BYTE		        Fs5 
	BYTE	W06
	BYTE		        Cs5 
	BYTE	W06
	BYTE		        As4 
	BYTE	W06
	BYTE		        Cs5 
	BYTE	W06
	BYTE		        Fs4 
	BYTE	W12
	BYTE		        As4 
	BYTE	W06
	BYTE		        Cs5 
	BYTE	W06
	BYTE		        Fs5 
	BYTE	W06
	BYTE		        Cs5 
	BYTE	W06
	BYTE		        As4 
	BYTE	W06
	BYTE		        Cs5 
	BYTE	W06
	BYTE		        Fs5 
	BYTE	W06
	BYTE		        Cs5 
	BYTE	W06
	BYTE		        As4 
	BYTE	W06
	BYTE		        Cs5 
	BYTE	W06
	BYTE		        Fs4 
	BYTE	W06
// 046   ----------------------------------------
	BYTE	W96
// 047   ----------------------------------------
	BYTE	W96
// 048   ----------------------------------------
	BYTE	W96
// 049   ----------------------------------------
	BYTE	W96
// 050   ----------------------------------------
	BYTE	W96
// 051   ----------------------------------------
	BYTE	W96
// 052   ----------------------------------------
	BYTE	W96
// 053   ----------------------------------------
	BYTE	W96
// 054   ----------------------------------------
	BYTE	W96
// 055   ----------------------------------------
	BYTE	W96
// 056   ----------------------------------------
	BYTE	W96
// 057   ----------------------------------------
	BYTE	W96
// 058   ----------------------------------------
	BYTE	W96
// 059   ----------------------------------------
	BYTE	W96
// 060   ----------------------------------------
	BYTE	W96
// 061   ----------------------------------------
	BYTE	W96
// 062   ----------------------------------------
	BYTE	W96
// 063   ----------------------------------------
	BYTE	W96
// 064   ----------------------------------------
	BYTE	W96
// 065   ----------------------------------------
	BYTE	W96
// 066   ----------------------------------------
	BYTE	W96
// 067   ----------------------------------------
	BYTE	W96
// 068   ----------------------------------------
	BYTE	W96
// 069   ----------------------------------------
	BYTE	W96
// 070   ----------------------------------------
	BYTE	W96
// 071   ----------------------------------------
	BYTE	W96
// 072   ----------------------------------------
	BYTE	W96
// 073   ----------------------------------------
	BYTE	W96
// 074   ----------------------------------------
	BYTE	W96
// 075   ----------------------------------------
	BYTE	W96
// 076   ----------------------------------------
	BYTE	W96
// 077   ----------------------------------------
	BYTE	W96
// 078   ----------------------------------------
	BYTE	W96
// 079   ----------------------------------------
	BYTE	W96
// 080   ----------------------------------------
	BYTE	W96
// 081   ----------------------------------------
	BYTE	W96
// 082   ----------------------------------------
	BYTE	W96
// 083   ----------------------------------------
	BYTE	W96
// 084   ----------------------------------------
	BYTE	W96
// 085   ----------------------------------------
	BYTE	W96
// 086   ----------------------------------------
	BYTE	W96
	BYTE	W48
// 087   ----------------------------------------
	BYTE	W96
	BYTE	W48
// 088   ----------------------------------------
	BYTE	W96
	BYTE	W48
// 089   ----------------------------------------
	BYTE	W96
	BYTE	W48
// 090   ----------------------------------------
	BYTE	PATT
	 POIN2	id_purpose_gba_3_027
	BYTE	GoTo
	 POIN2	id_purpose_gba_3_B1
id_purpose_gba_3_B2:
// 091   ----------------------------------------
	BYTE	PATT
	 POIN2	id_purpose_gba_3_003
// 092   ----------------------------------------
	BYTE	PATT
	 POIN2	id_purpose_gba_3_004
	BYTE		EOT     Fn3 
	BYTE	W12
	BYTE		N05     Gn3   v100
	BYTE	W06
	BYTE		        An3 
	BYTE	W06
	BYTE		        As3 
	BYTE	W06
	BYTE		        Fn4 
	BYTE	W06
// 093   ----------------------------------------
	BYTE	PATT
	 POIN2	id_purpose_gba_3_005
// 094   ----------------------------------------
	BYTE	PATT
	 POIN2	id_purpose_gba_3_006
// 095   ----------------------------------------
	BYTE	PATT
	 POIN2	id_purpose_gba_3_007
// 096   ----------------------------------------
	BYTE		N16     Dn4   v100
	BYTE		N18     As4 
	BYTE	W03
	BYTE	W03
	BYTE	W01
	BYTE	W03
	BYTE	W02
	BYTE	W03
	BYTE	W01
	BYTE	W02
	BYTE		N05     Cn4 
	BYTE		N06     An4 
	BYTE	W01
	BYTE	W02
	BYTE	W03
	BYTE		N42     As3 
	BYTE		N48     Gn4 
	BYTE	W01
	BYTE	W03
	BYTE	W02
	BYTE	W03
	BYTE	W01
	BYTE	W03
	BYTE	W02
	BYTE	W03
	BYTE	W01
	BYTE	W03
	BYTE	W02
	BYTE	W03
	BYTE	W01
	BYTE	W03
	BYTE	W02
	BYTE	W03
	BYTE	W01
	BYTE	W03
	BYTE	W02
	BYTE	W03
	BYTE	W01
	BYTE	W02
	BYTE		N16     An3 
	BYTE		N18     Fn4 
	BYTE	W01
	BYTE	W02
	BYTE	W03
	BYTE	W01
	BYTE	W03
	BYTE	W02
	BYTE	W03
	BYTE	W01
	BYTE	W02
	BYTE		N05     Gn3 
	BYTE		N06     En4 
	BYTE	W01
	BYTE	W02
	BYTE	W03
	BYTE		N42     Fn3 
	BYTE		N36     Dn4 
	BYTE	W01
	BYTE	W03
	BYTE	W02
	BYTE	W03
	BYTE	W01
	BYTE	W03
	BYTE	W02
	BYTE	W03
	BYTE	W01
	BYTE	W03
	BYTE	W02
	BYTE	W03
	BYTE	W01
	BYTE	W03
	BYTE	W02
	BYTE	W03
	BYTE		N05     Fn4 
	BYTE	W01
	BYTE	W03
	BYTE	W02
	BYTE		        Gn4 
	BYTE	W03
	BYTE	W01
	BYTE	W02
// 097   ----------------------------------------
	BYTE		N24     Gs4 
	BYTE	W01
	BYTE	W02
	BYTE	W03
	BYTE	W01
	BYTE	W03
	BYTE	W02
	BYTE	W03
	BYTE	W01
	BYTE	W03
	BYTE	W02
	BYTE	W03
	BYTE		        Gn4 
	BYTE	W03
	BYTE	W01
	BYTE	W03
	BYTE	W02
	BYTE	W03
	BYTE	W01
	BYTE	W03
	BYTE	W02
	BYTE	W03
	BYTE	W01
	BYTE	W02
	BYTE		        Fn4 
	BYTE	W01
	BYTE	W02
	BYTE	W03
	BYTE	W01
	BYTE	W03
	BYTE	W02
	BYTE	W03
	BYTE	W01
	BYTE	W03
	BYTE	W02
	BYTE	W03
	BYTE		N18     Ds4 
	BYTE	W01
	BYTE	W03
	BYTE	W02
	BYTE	W03
	BYTE	W01
	BYTE	W03
	BYTE	W02
	BYTE	W03
	BYTE		N06     Cn4 
	BYTE	W01
	BYTE	W03
	BYTE	W02
	BYTE		N36     Gs3 
	BYTE	W03
	BYTE	W01
	BYTE	W03
	BYTE	W02
	BYTE	W03
	BYTE	W01
	BYTE	W03
	BYTE	W02
	BYTE	W03
	BYTE	W01
	BYTE	W03
	BYTE	W02
	BYTE	W03
	BYTE	W01
	BYTE	W03
	BYTE	W02
	BYTE		N12     As3 
	BYTE	W03
	BYTE	W01
	BYTE	W03
	BYTE	W02
	BYTE	W02
	BYTE	W01
// 098   ----------------------------------------
	BYTE	PATT
	 POIN2	id_purpose_gba_3_010
	BYTE		EOT     Cn4 
	BYTE	W13
	BYTE	FINE

//**************** Track 4 (Midi-Chn.4) ****************//

id_purpose_gba_4:
	BYTE		VOL     127*id_purpose_gba_mvl/mxv
	BYTE	KEYSH   id_purpose_gba_key+0
// 000   ----------------------------------------
	BYTE		VOICE   85
	BYTE	W24
// 001   ----------------------------------------
	BYTE	W24
// 002   ----------------------------------------
	BYTE	W24
id_purpose_gba_4_B1:
// 003   ----------------------------------------
	BYTE	W96
	BYTE	W48
// 004   ----------------------------------------
	BYTE	W96
	BYTE	W48
// 005   ----------------------------------------
	BYTE	W96
	BYTE	W48
// 006   ----------------------------------------
	BYTE	W96
	BYTE	W48
// 007   ----------------------------------------
	BYTE	W96
	BYTE	W48
// 008   ----------------------------------------
	BYTE	W96
	BYTE	W48
// 009   ----------------------------------------
	BYTE	W96
	BYTE	W48
// 010   ----------------------------------------
id_purpose_gba_4_010:
	BYTE	W96
	BYTE	W24
	BYTE		N05     Gn3   v100
	BYTE	W06
	BYTE		        An3 
	BYTE	W06
	BYTE		        As3 
	BYTE	W06
	BYTE		        Fn4 
	BYTE	W06
	BYTE	PEND
// 011   ----------------------------------------
id_purpose_gba_4_011:
	BYTE		N42     Cn4   v100
	BYTE	W48
	BYTE		N21     As3 
	BYTE	W24
	BYTE		N42     An3 
	BYTE	W48
	BYTE		N21     Gn3 
	BYTE	W24
	BYTE	PEND
// 012   ----------------------------------------
id_purpose_gba_4_012:
	BYTE		TIE     Fn3   v100
	BYTE	W96
	BYTE	W08
	BYTE	PEND
	BYTE		EOT   
	BYTE	W16
	BYTE		N05     Gn3 
	BYTE	W06
	BYTE		        An3 
	BYTE	W06
	BYTE		        As3 
	BYTE	W06
	BYTE		        Fn4 
	BYTE	W06
// 013   ----------------------------------------
id_purpose_gba_4_013:
	BYTE		N42     Cn4   v100
	BYTE	W48
	BYTE		N10     Dn4 
	BYTE	W12
	BYTE		        As4 
	BYTE	W12
	BYTE		N21   
	BYTE	W24
	BYTE		        An4 
	BYTE	W24
	BYTE		        Gn4 
	BYTE	W24
	BYTE	PEND
// 014   ----------------------------------------
id_purpose_gba_4_014:
	BYTE		N56     Fn4   v100
	BYTE	W60
	BYTE		N05     Ds4 
	BYTE	W06
	BYTE		        Dn4 
	BYTE	W06
	BYTE		N64     Cn4 
	BYTE	W72
	BYTE	PEND
// 015   ----------------------------------------
id_purpose_gba_4_015:
	BYTE		N42     Ds4   v100
	BYTE	W48
	BYTE		N21     Fn4 
	BYTE	W24
	BYTE		N42     Gn4 
	BYTE	W48
	BYTE		N21     An4 
	BYTE	W24
	BYTE	PEND
// 016   ----------------------------------------
id_purpose_gba_4_016:
	BYTE		N16     As4   v100
	BYTE	W18
	BYTE		N05     An4 
	BYTE	W06
	BYTE		N42     Gn4 
	BYTE	W48
	BYTE		N16     Gs4 
	BYTE	W18
	BYTE		N05     Gn4 
	BYTE	W06
	BYTE		N42     Fn4 
	BYTE	W48
	BYTE	PEND
// 017   ----------------------------------------
id_purpose_gba_4_017:
	BYTE		N21     Ds4   v100
	BYTE	W24
	BYTE		        Cn4 
	BYTE	W24
	BYTE		        Gs3 
	BYTE	W24
	BYTE		        Ds4 
	BYTE	W24
	BYTE		        Fn4 
	BYTE	W24
	BYTE		        Fs4 
	BYTE	W24
	BYTE	PEND
// 018   ----------------------------------------
	BYTE		TIE     As4 
	BYTE	W96
	BYTE	W40
	BYTE		EOT   
	BYTE	W08
// 019   ----------------------------------------
	BYTE	W96
	BYTE	W48
// 020   ----------------------------------------
	BYTE	W96
	BYTE	W48
// 021   ----------------------------------------
	BYTE	W96
	BYTE	W48
// 022   ----------------------------------------
	BYTE	W96
	BYTE	W48
// 023   ----------------------------------------
	BYTE	W96
	BYTE	W48
// 024   ----------------------------------------
	BYTE	W96
	BYTE	W48
// 025   ----------------------------------------
	BYTE	W96
	BYTE	W48
// 026   ----------------------------------------
	BYTE	W96
	BYTE	W48
// 027   ----------------------------------------
	BYTE	PATT
	 POIN2	id_purpose_gba_4_010
// 028   ----------------------------------------
	BYTE	PATT
	 POIN2	id_purpose_gba_4_011
// 029   ----------------------------------------
	BYTE	PATT
	 POIN2	id_purpose_gba_4_012
	BYTE		EOT     Fn3 
	BYTE	W16
	BYTE		N05     Gn3   v100
	BYTE	W06
	BYTE		        An3 
	BYTE	W06
	BYTE		        As3 
	BYTE	W06
	BYTE		        Fn4 
	BYTE	W06
// 030   ----------------------------------------
	BYTE	PATT
	 POIN2	id_purpose_gba_4_013
// 031   ----------------------------------------
	BYTE	PATT
	 POIN2	id_purpose_gba_4_014
// 032   ----------------------------------------
	BYTE	PATT
	 POIN2	id_purpose_gba_4_015
// 033   ----------------------------------------
	BYTE	PATT
	 POIN2	id_purpose_gba_4_016
// 034   ----------------------------------------
	BYTE	PATT
	 POIN2	id_purpose_gba_4_017
// 035   ----------------------------------------
	BYTE		TIE     As4   v100
	BYTE	W96
	BYTE	W48
// 036   ----------------------------------------
	BYTE	W96
	BYTE	W40
	BYTE		EOT   
	BYTE	W08
// 037   ----------------------------------------
	BYTE	W96
	BYTE	W48
// 038   ----------------------------------------
	BYTE	W96
	BYTE	W48
// 039   ----------------------------------------
	BYTE	W96
	BYTE	W48
// 040   ----------------------------------------
	BYTE	W96
	BYTE	W48
// 041   ----------------------------------------
	BYTE	W96
	BYTE	W48
// 042   ----------------------------------------
	BYTE	W96
	BYTE	W48
// 043   ----------------------------------------
	BYTE	W96
	BYTE	W48
// 044   ----------------------------------------
	BYTE	W96
	BYTE	W48
// 045   ----------------------------------------
	BYTE	W96
	BYTE	W48
// 046   ----------------------------------------
	BYTE	W96
// 047   ----------------------------------------
	BYTE	W96
// 048   ----------------------------------------
	BYTE	W96
// 049   ----------------------------------------
	BYTE	W96
// 050   ----------------------------------------
	BYTE	W96
// 051   ----------------------------------------
	BYTE	W96
// 052   ----------------------------------------
	BYTE	W96
// 053   ----------------------------------------
	BYTE	W96
// 054   ----------------------------------------
	BYTE	W96
// 055   ----------------------------------------
	BYTE	W96
// 056   ----------------------------------------
	BYTE	W96
// 057   ----------------------------------------
	BYTE	W96
// 058   ----------------------------------------
	BYTE	W96
// 059   ----------------------------------------
	BYTE	W96
// 060   ----------------------------------------
	BYTE	W96
// 061   ----------------------------------------
	BYTE	W96
// 062   ----------------------------------------
	BYTE		N42     Dn3 
	BYTE	W48
	BYTE		N21     Fs3 
	BYTE	W24
	BYTE		        Bn3 
	BYTE	W24
// 063   ----------------------------------------
	BYTE		N42   
	BYTE	W48
	BYTE		        En3 
	BYTE	W48
// 064   ----------------------------------------
	BYTE		        Cs3 
	BYTE	W48
	BYTE		N21     An2 
	BYTE	W24
	BYTE		        En3 
	BYTE	W24
// 065   ----------------------------------------
	BYTE		N42   
	BYTE	W48
	BYTE		        Dn3 
	BYTE	W48
// 066   ----------------------------------------
	BYTE		        Gn3 
	BYTE	W48
	BYTE		        Bn2 
	BYTE	W48
// 067   ----------------------------------------
	BYTE		        Gn3 
	BYTE	W48
	BYTE		        Bn3 
	BYTE	W48
// 068   ----------------------------------------
	BYTE		        As2 
	BYTE	W48
	BYTE		N14     Bn2 
	BYTE	W16
	BYTE		        Cs3 
	BYTE	W16
	BYTE		        Dn3 
	BYTE	W16
// 069   ----------------------------------------
	BYTE		N84     Cs3 
	BYTE	W96
// 070   ----------------------------------------
id_purpose_gba_4_070:
	BYTE		N42     Dn4   v100
	BYTE	W48
	BYTE		        Fs4 
	BYTE	W48
	BYTE	PEND
// 071   ----------------------------------------
id_purpose_gba_4_071:
	BYTE		N42     Gn4   v100
	BYTE	W48
	BYTE		        En4 
	BYTE	W48
	BYTE	PEND
// 072   ----------------------------------------
id_purpose_gba_4_072:
	BYTE		N42     An4   v100
	BYTE	W48
	BYTE		N21     Fs4 
	BYTE	W24
	BYTE		        Gn4 
	BYTE	W24
	BYTE	PEND
// 073   ----------------------------------------
id_purpose_gba_4_073:
	BYTE		N42     Gn4   v100
	BYTE	W48
	BYTE		        Fs4 
	BYTE	W48
	BYTE	PEND
// 074   ----------------------------------------
	BYTE		N84     Bn4 
	BYTE	W96
// 075   ----------------------------------------
id_purpose_gba_4_075:
	BYTE		N42     Gn4   v100
	BYTE	W48
	BYTE		        Bn4 
	BYTE	W48
	BYTE	PEND
// 076   ----------------------------------------
	BYTE		N84     As4 
	BYTE	W96
// 077   ----------------------------------------
	BYTE		        Fs4 
	BYTE	W96
// 078   ----------------------------------------
	BYTE	PATT
	 POIN2	id_purpose_gba_4_070
// 079   ----------------------------------------
	BYTE	PATT
	 POIN2	id_purpose_gba_4_071
// 080   ----------------------------------------
	BYTE	PATT
	 POIN2	id_purpose_gba_4_072
// 081   ----------------------------------------
	BYTE	PATT
	 POIN2	id_purpose_gba_4_073
// 082   ----------------------------------------
	BYTE		N84     Bn4   v100
	BYTE	W96
// 083   ----------------------------------------
	BYTE	PATT
	 POIN2	id_purpose_gba_4_075
// 084   ----------------------------------------
	BYTE		N84     As4   v100
	BYTE	W96
// 085   ----------------------------------------
	BYTE		N42     Fs4 
	BYTE	W48
	BYTE		        Cs4 
	BYTE	W48
// 086   ----------------------------------------
	BYTE		TIE     Bn2 
	BYTE	W96
	BYTE	W48
// 087   ----------------------------------------
	BYTE	W92
	BYTE	W01
	BYTE		EOT   
	BYTE	W15
	BYTE		N32   
	BYTE	W36
// 088   ----------------------------------------
	BYTE		TIE   
	BYTE	W72
	BYTE	W03
	BYTE	W01
	BYTE	W02
	BYTE	W01
	BYTE	W02
	BYTE	W01
	BYTE	W02
	BYTE	W03
	BYTE	W01
	BYTE	W02
	BYTE	W01
	BYTE	W02
	BYTE	W01
	BYTE	W02
	BYTE	W03
	BYTE	W01
	BYTE	W02
	BYTE	W01
	BYTE	W02
	BYTE	W01
	BYTE	W02
	BYTE	W01
	BYTE	W03
	BYTE	W02
	BYTE	W01
	BYTE	W02
	BYTE	W01
	BYTE	W02
	BYTE	W01
	BYTE	W03
	BYTE	W02
	BYTE	W01
	BYTE	W02
	BYTE	W01
	BYTE	W02
	BYTE	W01
	BYTE	W03
	BYTE	W02
	BYTE	W01
	BYTE	W02
	BYTE	W01
	BYTE	W02
// 089   ----------------------------------------
	BYTE	W01
	BYTE	W02
	BYTE	W03
	BYTE	W01
	BYTE	W02
	BYTE	W01
	BYTE	W02
	BYTE	W01
	BYTE	W02
	BYTE	W03
	BYTE	W01
	BYTE	W02
	BYTE	W01
	BYTE	W02
	BYTE	W01
	BYTE	W02
	BYTE	W03
	BYTE	W01
	BYTE	W02
	BYTE	W01
	BYTE	W02
	BYTE	W01
	BYTE	W02
	BYTE	W01
	BYTE	W03
	BYTE	W02
	BYTE	W01
	BYTE	W02
	BYTE	W01
	BYTE	W02
	BYTE	W01
	BYTE	W03
	BYTE	W02
	BYTE	W01
	BYTE	W02
	BYTE	W01
	BYTE	W02
	BYTE	W01
	BYTE	W03
	BYTE	W02
	BYTE	W01
	BYTE	W02
	BYTE	W01
	BYTE	W02
	BYTE	W01
	BYTE	W02
	BYTE	W03
	BYTE	W01
	BYTE	W02
	BYTE	W01
	BYTE	W02
	BYTE	W01
	BYTE	W02
	BYTE	W03
	BYTE	W01
	BYTE	W02
	BYTE	W01
	BYTE	W02
	BYTE	W01
	BYTE	W02
	BYTE	W03
	BYTE	W01
	BYTE	W02
	BYTE	W01
	BYTE	W02
	BYTE	W01
	BYTE	W02
	BYTE	W01
	BYTE	W03
	BYTE	W02
	BYTE	W01
	BYTE	W02
	BYTE	W01
	BYTE	W02
	BYTE	W01
	BYTE	W03
	BYTE	W02
	BYTE	W01
	BYTE	W02
	BYTE	W01
	BYTE		EOT   
	BYTE	W02
	BYTE	W01
	BYTE	W03
	BYTE	W02
// 090   ----------------------------------------
	BYTE	W42
	BYTE	W96
	BYTE	W06
	BYTE	GoTo
	 POIN2	id_purpose_gba_4_B1
id_purpose_gba_4_B2:
// 091   ----------------------------------------
	BYTE	W96
	BYTE	W48
// 092   ----------------------------------------
	BYTE	W96
	BYTE	W48
// 093   ----------------------------------------
	BYTE	W96
	BYTE	W48
// 094   ----------------------------------------
	BYTE	W96
	BYTE	W48
// 095   ----------------------------------------
	BYTE	W96
	BYTE	W48
// 096   ----------------------------------------
	BYTE	W96
	BYTE	W48
// 097   ----------------------------------------
	BYTE	W96
	BYTE	W48
// 098   ----------------------------------------
	BYTE	W96
	BYTE	W36
	BYTE	W01
	BYTE	FINE

//**************** Track 5 (Midi-Chn.5) ****************//

id_purpose_gba_5:
	BYTE		VOL     127*id_purpose_gba_mvl/mxv
	BYTE	KEYSH   id_purpose_gba_key+0
// 000   ----------------------------------------
	BYTE		VOICE   52
	BYTE	W24
// 001   ----------------------------------------
	BYTE	W24
// 002   ----------------------------------------
	BYTE	W24
id_purpose_gba_5_B1:
// 003   ----------------------------------------
	BYTE	W96
	BYTE	W48
// 004   ----------------------------------------
	BYTE	W96
	BYTE	W48
// 005   ----------------------------------------
	BYTE	W96
	BYTE	W48
// 006   ----------------------------------------
	BYTE	W96
	BYTE	W48
// 007   ----------------------------------------
	BYTE	W96
	BYTE	W48
// 008   ----------------------------------------
	BYTE	W96
	BYTE	W48
// 009   ----------------------------------------
	BYTE	W96
	BYTE	W48
// 010   ----------------------------------------
id_purpose_gba_5_010:
	BYTE	W96
	BYTE	W24
	BYTE		N05     Gn2   v100
	BYTE	W06
	BYTE		        An2 
	BYTE	W06
	BYTE		        As2 
	BYTE	W06
	BYTE		        Fn3 
	BYTE	W06
	BYTE	PEND
// 011   ----------------------------------------
id_purpose_gba_5_011:
	BYTE		N42     Cn3   v100
	BYTE	W48
	BYTE		N21     As2 
	BYTE	W24
	BYTE		N42     An2 
	BYTE	W48
	BYTE		N21     Gn2 
	BYTE	W24
	BYTE	PEND
// 012   ----------------------------------------
id_purpose_gba_5_012:
	BYTE		TIE     Fn2   v100
	BYTE	W96
	BYTE	W08
	BYTE	PEND
	BYTE		EOT   
	BYTE	W16
	BYTE		N05     Gn2 
	BYTE	W06
	BYTE		        An2 
	BYTE	W06
	BYTE		        As2 
	BYTE	W06
	BYTE		        Fn3 
	BYTE	W06
// 013   ----------------------------------------
id_purpose_gba_5_013:
	BYTE		N42     Cn3   v100
	BYTE	W48
	BYTE		N10     Dn3 
	BYTE	W12
	BYTE		        As3 
	BYTE	W12
	BYTE		N21   
	BYTE	W24
	BYTE		        An3 
	BYTE	W24
	BYTE		        Gn3 
	BYTE	W24
	BYTE	PEND
// 014   ----------------------------------------
id_purpose_gba_5_014:
	BYTE		N56     Fn3   v100
	BYTE	W60
	BYTE		N05     Ds3 
	BYTE	W06
	BYTE		        Dn3 
	BYTE	W06
	BYTE		N64     Cn3 
	BYTE	W72
	BYTE	PEND
// 015   ----------------------------------------
id_purpose_gba_5_015:
	BYTE		N42     Ds3   v100
	BYTE	W48
	BYTE		N21     Fn3 
	BYTE	W24
	BYTE		N42     Gn3 
	BYTE	W48
	BYTE		N21     An3 
	BYTE	W24
	BYTE	PEND
// 016   ----------------------------------------
id_purpose_gba_5_016:
	BYTE		N16     As3   v100
	BYTE	W18
	BYTE		N05     An3 
	BYTE	W06
	BYTE		N42     Gn3 
	BYTE	W48
	BYTE		N16     Gs3 
	BYTE	W18
	BYTE		N05     Gn3 
	BYTE	W06
	BYTE		N42     Fn3 
	BYTE	W48
	BYTE	PEND
// 017   ----------------------------------------
id_purpose_gba_5_017:
	BYTE		N21     Ds3   v100
	BYTE	W24
	BYTE		        Cn3 
	BYTE	W24
	BYTE		        Gs2 
	BYTE	W24
	BYTE		        Ds3 
	BYTE	W24
	BYTE		        Fn3 
	BYTE	W24
	BYTE		        Fs3 
	BYTE	W24
	BYTE	PEND
// 018   ----------------------------------------
	BYTE		TIE     As3 
	BYTE	W96
	BYTE	W40
	BYTE		EOT   
	BYTE	W08
// 019   ----------------------------------------
	BYTE	W96
	BYTE	W48
// 020   ----------------------------------------
	BYTE	W96
	BYTE	W48
// 021   ----------------------------------------
	BYTE	W96
	BYTE	W48
// 022   ----------------------------------------
	BYTE	W96
	BYTE	W48
// 023   ----------------------------------------
	BYTE	W96
	BYTE	W48
// 024   ----------------------------------------
	BYTE	W96
	BYTE	W48
// 025   ----------------------------------------
	BYTE	W96
	BYTE	W48
// 026   ----------------------------------------
	BYTE	W96
	BYTE	W48
// 027   ----------------------------------------
	BYTE	PATT
	 POIN2	id_purpose_gba_5_010
// 028   ----------------------------------------
	BYTE	PATT
	 POIN2	id_purpose_gba_5_011
// 029   ----------------------------------------
	BYTE	PATT
	 POIN2	id_purpose_gba_5_012
	BYTE		EOT     Fn2 
	BYTE	W16
	BYTE		N05     Gn2   v100
	BYTE	W06
	BYTE		        An2 
	BYTE	W06
	BYTE		        As2 
	BYTE	W06
	BYTE		        Fn3 
	BYTE	W06
// 030   ----------------------------------------
	BYTE	PATT
	 POIN2	id_purpose_gba_5_013
// 031   ----------------------------------------
	BYTE	PATT
	 POIN2	id_purpose_gba_5_014
// 032   ----------------------------------------
	BYTE	PATT
	 POIN2	id_purpose_gba_5_015
// 033   ----------------------------------------
	BYTE	PATT
	 POIN2	id_purpose_gba_5_016
// 034   ----------------------------------------
	BYTE	PATT
	 POIN2	id_purpose_gba_5_017
// 035   ----------------------------------------
	BYTE		TIE     As3   v100
	BYTE	W96
	BYTE	W48
// 036   ----------------------------------------
	BYTE	W96
	BYTE	W40
	BYTE		EOT   
	BYTE	W08
// 037   ----------------------------------------
	BYTE	W96
	BYTE	W48
// 038   ----------------------------------------
	BYTE	W96
	BYTE	W48
// 039   ----------------------------------------
	BYTE	W96
	BYTE	W48
// 040   ----------------------------------------
	BYTE	W96
	BYTE	W48
// 041   ----------------------------------------
	BYTE	W96
	BYTE	W48
// 042   ----------------------------------------
	BYTE	W96
	BYTE	W48
// 043   ----------------------------------------
	BYTE	W96
	BYTE	W48
// 044   ----------------------------------------
	BYTE	W96
	BYTE	W48
// 045   ----------------------------------------
	BYTE	W96
	BYTE	W48
// 046   ----------------------------------------
	BYTE	W24
	BYTE		N12     Dn2   v120
	BYTE	W24
	BYTE		        En2 
	BYTE	W24
	BYTE		        Fs2 
	BYTE	W24
// 047   ----------------------------------------
	BYTE		        Gn2 
	BYTE	W24
	BYTE		        Fs2 
	BYTE	W24
	BYTE		        En2 
	BYTE	W24
	BYTE		N42     Bn2 
	BYTE	W24
// 048   ----------------------------------------
	BYTE	W24
	BYTE		N12     An2 
	BYTE	W24
	BYTE		        En2 
	BYTE	W24
	BYTE		        An2 
	BYTE	W24
// 049   ----------------------------------------
	BYTE		N42     Gn2 
	BYTE	W48
	BYTE		        Fs2 
	BYTE	W48
// 050   ----------------------------------------
	BYTE	W24
	BYTE		N12     Bn1 
	BYTE	W24
	BYTE		        En2 
	BYTE	W24
	BYTE		        Fs2 
	BYTE	W24
// 051   ----------------------------------------
	BYTE		        Gn2 
	BYTE	W24
	BYTE		        Fs2 
	BYTE	W24
	BYTE		        Gn2 
	BYTE	W24
	BYTE		        En2 
	BYTE	W24
// 052   ----------------------------------------
	BYTE		        Cs2 
	BYTE	W24
	BYTE		        Dn2 
	BYTE	W24
	BYTE		        En2 
	BYTE	W24
	BYTE		        Gn2 
	BYTE	W24
// 053   ----------------------------------------
	BYTE		        Fs2 
	BYTE	W24
	BYTE		        Cs2 
	BYTE	W24
	BYTE		        Fs2 
	BYTE	W24
	BYTE		        En2 
	BYTE	W24
// 054   ----------------------------------------
id_purpose_gba_5_054:
	BYTE		N42     Fs3   v100
	BYTE	W24
	BYTE		N12     Dn2   v120
	BYTE	W24
	BYTE		        En2 
	BYTE		N21     Bn3   v100
	BYTE	W24
	BYTE		N12     Fs2   v120
	BYTE		N21     Dn4   v100
	BYTE	W24
	BYTE	PEND
// 055   ----------------------------------------
id_purpose_gba_5_055:
	BYTE		N12     Gn2   v120
	BYTE		N42     Dn4   v100
	BYTE	W24
	BYTE		N12     Fs2   v120
	BYTE	W24
	BYTE		        En2 
	BYTE		N42     Gn3   v100
	BYTE	W24
	BYTE		        Bn2   v120
	BYTE	W24
	BYTE	PEND
// 056   ----------------------------------------
id_purpose_gba_5_056:
	BYTE		N42     En3   v100
	BYTE	W24
	BYTE		N12     An2   v120
	BYTE	W24
	BYTE		        En2 
	BYTE		N14     An3   v100
	BYTE	W16
	BYTE		        Bn3 
	BYTE	W08
	BYTE		N12     An2   v120
	BYTE	W08
	BYTE		N14     Cs4   v100
	BYTE	W16
	BYTE	PEND
// 057   ----------------------------------------
id_purpose_gba_5_057:
	BYTE		N42     Gn2   v120
	BYTE		N42     Bn3   v100
	BYTE	W48
	BYTE		        Fs2   v120
	BYTE		N42     An3   v100
	BYTE	W48
	BYTE	PEND
// 058   ----------------------------------------
id_purpose_gba_5_058:
	BYTE		N42     Dn3   v100
	BYTE	W24
	BYTE		N12     Bn1   v120
	BYTE	W24
	BYTE		        En2 
	BYTE		N21     Gn3   v100
	BYTE	W24
	BYTE		N12     Fs2   v120
	BYTE		N21     Bn3   v100
	BYTE	W24
	BYTE	PEND
// 059   ----------------------------------------
id_purpose_gba_5_059:
	BYTE		N12     Gn2   v120
	BYTE		N42     En4   v100
	BYTE	W24
	BYTE		N12     Fs2   v120
	BYTE	W24
	BYTE		        Gn2 
	BYTE		N21     Dn4   v100
	BYTE	W24
	BYTE		N12     En2   v120
	BYTE		N21     Cs4   v100
	BYTE	W24
	BYTE	PEND
// 060   ----------------------------------------
id_purpose_gba_5_060:
	BYTE		N12     Cs2   v120
	BYTE		N42     Fs3   v100
	BYTE	W24
	BYTE		N12     Dn2   v120
	BYTE	W24
	BYTE		        En2 
	BYTE		N14     Gs3   v100
	BYTE	W16
	BYTE		        As3 
	BYTE	W08
	BYTE		N12     Gn2   v120
	BYTE	W08
	BYTE		N14     Bn3   v100
	BYTE	W16
	BYTE	PEND
// 061   ----------------------------------------
id_purpose_gba_5_061:
	BYTE		N12     Fs2   v120
	BYTE		N84     As3   v100
	BYTE	W24
	BYTE		N12     Cs2   v120
	BYTE	W24
	BYTE		        Fs2 
	BYTE	W24
	BYTE		        En2 
	BYTE	W24
	BYTE	PEND
// 062   ----------------------------------------
	BYTE	PATT
	 POIN2	id_purpose_gba_5_054
// 063   ----------------------------------------
	BYTE	PATT
	 POIN2	id_purpose_gba_5_055
// 064   ----------------------------------------
	BYTE	PATT
	 POIN2	id_purpose_gba_5_056
// 065   ----------------------------------------
	BYTE	PATT
	 POIN2	id_purpose_gba_5_057
// 066   ----------------------------------------
	BYTE	PATT
	 POIN2	id_purpose_gba_5_058
// 067   ----------------------------------------
	BYTE	PATT
	 POIN2	id_purpose_gba_5_059
// 068   ----------------------------------------
	BYTE	PATT
	 POIN2	id_purpose_gba_5_060
// 069   ----------------------------------------
	BYTE	PATT
	 POIN2	id_purpose_gba_5_061
// 070   ----------------------------------------
	BYTE	PATT
	 POIN2	id_purpose_gba_5_054
// 071   ----------------------------------------
	BYTE	PATT
	 POIN2	id_purpose_gba_5_055
// 072   ----------------------------------------
	BYTE	PATT
	 POIN2	id_purpose_gba_5_056
// 073   ----------------------------------------
	BYTE	PATT
	 POIN2	id_purpose_gba_5_057
// 074   ----------------------------------------
	BYTE	PATT
	 POIN2	id_purpose_gba_5_058
// 075   ----------------------------------------
	BYTE	PATT
	 POIN2	id_purpose_gba_5_059
// 076   ----------------------------------------
	BYTE	PATT
	 POIN2	id_purpose_gba_5_060
// 077   ----------------------------------------
	BYTE	PATT
	 POIN2	id_purpose_gba_5_061
// 078   ----------------------------------------
	BYTE		N42     Dn2   v120
	BYTE		N42     Fs3   v100
	BYTE	W48
	BYTE		        Fs2   v120
	BYTE		N21     Bn3   v100
	BYTE	W24
	BYTE		        Dn4 
	BYTE	W24
// 079   ----------------------------------------
	BYTE		N42     Gn2   v120
	BYTE		N42     Dn4   v100
	BYTE	W48
	BYTE		        En2   v120
	BYTE		N42     Gn3   v100
	BYTE	W48
// 080   ----------------------------------------
	BYTE		        An2   v120
	BYTE		N42     En3   v100
	BYTE	W48
	BYTE		N21     Fs2   v120
	BYTE		N14     An3   v100
	BYTE	W16
	BYTE		        Bn3 
	BYTE	W08
	BYTE		N21     Gn2   v120
	BYTE	W08
	BYTE		N14     Cs4   v100
	BYTE	W16
// 081   ----------------------------------------
	BYTE		N42     En2   v120
	BYTE		N42     Bn3   v100
	BYTE	W48
	BYTE		        Dn2   v120
	BYTE		N42     An3   v100
	BYTE	W48
// 082   ----------------------------------------
	BYTE		N84     Bn2   v120
	BYTE		N42     Dn3   v100
	BYTE	W48
	BYTE		N21     Gn3 
	BYTE	W24
	BYTE		        Bn3 
	BYTE	W24
// 083   ----------------------------------------
	BYTE		N42     Gn2   v120
	BYTE		N42     En4   v100
	BYTE	W48
	BYTE		        Bn2   v120
	BYTE		N21     Dn4   v100
	BYTE	W24
	BYTE		        Cs4 
	BYTE	W24
// 084   ----------------------------------------
	BYTE		N84     As2   v120
	BYTE		N42     Fs3   v100
	BYTE	W48
	BYTE		N14     Gs3 
	BYTE	W16
	BYTE		        As3 
	BYTE	W16
	BYTE		        Bn3 
	BYTE	W16
// 085   ----------------------------------------
	BYTE		N42     Fs2   v120
	BYTE		N84     As3   v100
	BYTE	W48
	BYTE		N42     Cs2   v120
	BYTE	W48
// 086   ----------------------------------------
	BYTE		TIE     Bn3   v100
	BYTE	W96
	BYTE	W48
// 087   ----------------------------------------
	BYTE	W92
	BYTE	W01
	BYTE		EOT   
	BYTE	W15
	BYTE		N32   
	BYTE	W36
// 088   ----------------------------------------
	BYTE		TIE   
	BYTE	W68
	BYTE	W03
	BYTE	W01
	BYTE	W02
	BYTE	W01
	BYTE	W01
	BYTE	W01
	BYTE	W01
	BYTE	W01
	BYTE	W01
	BYTE	W01
	BYTE	W01
	BYTE	W01
	BYTE	W01
	BYTE	W02
	BYTE	W01
	BYTE	W01
	BYTE	W01
	BYTE	W01
	BYTE	W01
	BYTE	W01
	BYTE	W01
	BYTE	W01
	BYTE	W01
	BYTE	W01
	BYTE	W01
	BYTE	W01
	BYTE	W02
	BYTE	W01
	BYTE	W01
	BYTE	W01
	BYTE	W01
	BYTE	W01
	BYTE	W01
	BYTE	W01
	BYTE	W01
	BYTE	W01
	BYTE	W01
	BYTE	W02
	BYTE	W01
	BYTE	W01
	BYTE	W01
	BYTE	W01
	BYTE	W01
	BYTE	W01
	BYTE	W01
	BYTE	W01
	BYTE	W01
	BYTE	W02
	BYTE	W01
	BYTE	W01
	BYTE	W01
	BYTE	W01
	BYTE	W01
	BYTE	W01
	BYTE	W01
	BYTE	W01
	BYTE	W01
	BYTE	W01
	BYTE	W02
	BYTE	W01
	BYTE	W01
	BYTE	W02
	BYTE	W01
	BYTE	W01
	BYTE	W01
	BYTE	W01
	BYTE	W01
// 089   ----------------------------------------
	BYTE	W01
	BYTE	W02
	BYTE	W01
	BYTE	W01
	BYTE	W02
	BYTE	W01
	BYTE	W01
	BYTE	W01
	BYTE	W01
	BYTE	W01
	BYTE	W01
	BYTE	W01
	BYTE	W01
	BYTE	W01
	BYTE	W01
	BYTE	W01
	BYTE	W01
	BYTE	W01
	BYTE	W01
	BYTE	W01
	BYTE	W01
	BYTE	W01
	BYTE	W01
	BYTE	W01
	BYTE	W01
	BYTE	W01
	BYTE	W01
	BYTE	W01
	BYTE	W01
	BYTE	W01
	BYTE	W01
	BYTE	W01
	BYTE	W01
	BYTE	W01
	BYTE	W01
	BYTE	W01
	BYTE	W01
	BYTE	W01
	BYTE	W01
	BYTE	W01
	BYTE	W01
	BYTE	W01
	BYTE	W02
	BYTE	W01
	BYTE	W01
	BYTE	W01
	BYTE	W01
	BYTE	W01
	BYTE	W01
	BYTE	W02
	BYTE	W01
	BYTE	W01
	BYTE	W01
	BYTE	W01
	BYTE	W01
	BYTE	W01
	BYTE	W01
	BYTE	W01
	BYTE	W01
	BYTE	W01
	BYTE	W02
	BYTE	W01
	BYTE	W01
	BYTE	W01
	BYTE	W01
	BYTE	W01
	BYTE	W01
	BYTE	W01
	BYTE	W01
	BYTE	W01
	BYTE	W01
	BYTE	W02
	BYTE	W01
	BYTE	W01
	BYTE	W01
	BYTE	W01
	BYTE	W01
	BYTE	W02
	BYTE	W01
	BYTE	W01
	BYTE	W01
	BYTE	W01
	BYTE	W01
	BYTE	W01
	BYTE	W01
	BYTE	W01
	BYTE	W01
	BYTE	W01
	BYTE	W01
	BYTE	W01
	BYTE	W01
	BYTE	W01
	BYTE	W01
	BYTE	W01
	BYTE	W01
	BYTE	W01
	BYTE	W01
	BYTE	W01
	BYTE	W01
	BYTE	W01
	BYTE	W01
	BYTE	W01
	BYTE	W01
	BYTE	W01
	BYTE	W01
	BYTE	W01
	BYTE	W01
	BYTE	W01
	BYTE	W01
	BYTE	W01
	BYTE	W01
	BYTE	W01
	BYTE	W01
	BYTE	W01
	BYTE	W01
	BYTE	W02
	BYTE	W01
	BYTE	W01
	BYTE	W01
	BYTE	W02
	BYTE	W01
	BYTE	W01
	BYTE	W01
	BYTE	W01
	BYTE	W01
	BYTE	W02
	BYTE		EOT   
	BYTE	W01
	BYTE	W01
	BYTE	W01
	BYTE	W02
	BYTE	W01
	BYTE	W01
	BYTE	W01
// 090   ----------------------------------------
	BYTE	W24
	BYTE		VOICE   64
	BYTE	W24
	BYTE	W01
	BYTE	W02
	BYTE	W68
	BYTE	W01
	BYTE		N05     Gn2 
	BYTE	W06
	BYTE		        An2 
	BYTE	W06
	BYTE		        As2 
	BYTE	W06
	BYTE		        Fn3 
	BYTE	W03
	BYTE		N02     As2   v080
	BYTE	W03
	BYTE	GoTo
	 POIN2	id_purpose_gba_5_B1
id_purpose_gba_5_B2:
// 091   ----------------------------------------
	BYTE		N48     Cn3   v100
	BYTE	W48
	BYTE		N20     As2 
	BYTE	W21
	BYTE		N02     As2   v080
	BYTE	W03
	BYTE		N40     An2   v100
	BYTE	W42
	BYTE		N02     As2   v080
	BYTE	W03
	BYTE		        An2 
	BYTE	W03
	BYTE		N24     Gn2   v100
	BYTE	W24
// 092   ----------------------------------------
	BYTE		TIE     Fn2 
	BYTE	W96
	BYTE	W12
	BYTE		EOT   
	BYTE	W12
	BYTE		N05     Gn2 
	BYTE	W06
	BYTE		        An2 
	BYTE	W06
	BYTE		        As2 
	BYTE	W06
	BYTE		        Fn3 
	BYTE	W03
	BYTE		N02     As2   v080
	BYTE	W03
// 093   ----------------------------------------
	BYTE		N44     Cn3   v100
	BYTE	W44
	BYTE	W01
	BYTE		N02     Cn3   v080
	BYTE	W03
	BYTE		N10     Dn3   v100
	BYTE	W12
	BYTE		        As3 
	BYTE	W12
	BYTE		N24   
	BYTE	W24
	BYTE		        An3 
	BYTE	W24
	BYTE		        Gn3 
	BYTE	W21
	BYTE		N02     Ds3   v080
	BYTE	W03
// 094   ----------------------------------------
	BYTE		N56     Fn3   v100
	BYTE	W60
	BYTE		N05     Ds3 
	BYTE	W06
	BYTE		        Dn3 
	BYTE	W06
	BYTE		N66     Cn3 
	BYTE	W68
	BYTE	W01
	BYTE		N02     Dn3   v080
	BYTE	W03
// 095   ----------------------------------------
	BYTE		N48     Ds3   v100
	BYTE	W48
	BYTE		N20     Fn3 
	BYTE	W21
	BYTE		N02     Fn3   v080
	BYTE	W03
	BYTE		N48     Gn3   v100
	BYTE	W48
	BYTE		N24     An3 
	BYTE	W24
// 096   ----------------------------------------
	BYTE		N18     As3 
	BYTE	W03
	BYTE	W03
	BYTE	W01
	BYTE	W03
	BYTE	W02
	BYTE	W03
	BYTE	W01
	BYTE	W02
	BYTE		N06     An3 
	BYTE	W01
	BYTE	W02
	BYTE	W03
	BYTE		N48     Gn3 
	BYTE	W01
	BYTE	W03
	BYTE	W02
	BYTE	W03
	BYTE	W01
	BYTE	W03
	BYTE	W02
	BYTE	W03
	BYTE	W01
	BYTE	W03
	BYTE	W02
	BYTE	W03
	BYTE	W01
	BYTE	W03
	BYTE	W02
	BYTE	W03
	BYTE	W01
	BYTE	W03
	BYTE	W02
	BYTE	W03
	BYTE	W01
	BYTE	W02
	BYTE		N18     Fn3 
	BYTE	W01
	BYTE	W02
	BYTE	W03
	BYTE	W01
	BYTE	W03
	BYTE	W02
	BYTE	W03
	BYTE	W01
	BYTE	W02
	BYTE		N06     En3 
	BYTE	W01
	BYTE	W02
	BYTE	W03
	BYTE		N36     Dn3 
	BYTE	W01
	BYTE	W03
	BYTE	W02
	BYTE	W03
	BYTE	W01
	BYTE	W03
	BYTE	W02
	BYTE	W03
	BYTE	W01
	BYTE	W03
	BYTE	W02
	BYTE	W03
	BYTE	W01
	BYTE	W03
	BYTE	W02
	BYTE	W03
	BYTE		N05     Fn3 
	BYTE	W01
	BYTE	W03
	BYTE	W02
	BYTE		        Gn3 
	BYTE	W03
	BYTE	W01
	BYTE	W02
// 097   ----------------------------------------
	BYTE		N24     Gs3 
	BYTE	W01
	BYTE	W02
	BYTE	W03
	BYTE	W01
	BYTE	W03
	BYTE	W02
	BYTE	W03
	BYTE	W01
	BYTE	W03
	BYTE	W02
	BYTE	W03
	BYTE		        Gn3 
	BYTE	W03
	BYTE	W01
	BYTE	W03
	BYTE	W02
	BYTE	W03
	BYTE	W01
	BYTE	W03
	BYTE	W02
	BYTE	W03
	BYTE	W01
	BYTE	W02
	BYTE		        Fn3 
	BYTE	W01
	BYTE	W02
	BYTE	W03
	BYTE	W01
	BYTE	W03
	BYTE	W02
	BYTE	W03
	BYTE	W01
	BYTE	W03
	BYTE	W02
	BYTE	W03
	BYTE		N18     Ds3 
	BYTE	W01
	BYTE	W03
	BYTE	W02
	BYTE	W03
	BYTE	W01
	BYTE	W03
	BYTE	W02
	BYTE	W03
	BYTE		N06     Cn3 
	BYTE	W01
	BYTE	W03
	BYTE	W02
	BYTE		N36     Gs2 
	BYTE	W03
	BYTE	W01
	BYTE	W03
	BYTE	W02
	BYTE	W03
	BYTE	W01
	BYTE	W03
	BYTE	W02
	BYTE	W03
	BYTE	W01
	BYTE	W03
	BYTE	W02
	BYTE	W03
	BYTE	W01
	BYTE	W03
	BYTE	W02
	BYTE		N12     As2 
	BYTE	W03
	BYTE	W01
	BYTE	W03
	BYTE	W02
	BYTE	W02
	BYTE	W01
// 098   ----------------------------------------
	BYTE		TIE     Cn3 
	BYTE	W96
	BYTE	W24
	BYTE		EOT   
	BYTE	W13
	BYTE	FINE

//**************** Track 6 (Midi-Chn.6) ****************//

id_purpose_gba_6:
	BYTE		VOL     127*id_purpose_gba_mvl/mxv
	BYTE	KEYSH   id_purpose_gba_key+0
// 000   ----------------------------------------
	BYTE		VOICE   71
	BYTE	W24
// 001   ----------------------------------------
	BYTE	W24
// 002   ----------------------------------------
	BYTE	W24
id_purpose_gba_6_B1:
// 003   ----------------------------------------
id_purpose_gba_6_003:
	BYTE	W06
	BYTE		N05     Dn2   v120
	BYTE	W06
	BYTE		        Ds2 
	BYTE	W06
	BYTE		        Fn2 
	BYTE	W06
	BYTE		        Ds2 
	BYTE	W06
	BYTE		        Dn2 
	BYTE	W06
	BYTE		        Ds2 
	BYTE	W06
	BYTE		        Fn2 
	BYTE	W06
	BYTE		        Ds2 
	BYTE	W06
	BYTE		        Dn2 
	BYTE	W06
	BYTE		        Ds2 
	BYTE	W06
	BYTE		        Fn2 
	BYTE	W12
	BYTE		        Dn2 
	BYTE	W06
	BYTE		        Ds2 
	BYTE	W06
	BYTE		        Fn2 
	BYTE	W06
	BYTE		        Ds2 
	BYTE	W06
	BYTE		        Dn2 
	BYTE	W06
	BYTE		        Ds2 
	BYTE	W06
	BYTE		        Fn2 
	BYTE	W06
	BYTE		        Ds2 
	BYTE	W06
	BYTE		        Dn2 
	BYTE	W06
	BYTE		        Ds2 
	BYTE	W06
	BYTE		        Fn2 
	BYTE	W06
	BYTE	PEND
// 004   ----------------------------------------
id_purpose_gba_6_004:
	BYTE	W06
	BYTE		N05     Cn2   v120
	BYTE	W06
	BYTE		        Dn2 
	BYTE	W06
	BYTE		        Fn2 
	BYTE	W06
	BYTE		        Dn2 
	BYTE	W06
	BYTE		        Cn2 
	BYTE	W06
	BYTE		        Dn2 
	BYTE	W06
	BYTE		        Fn2 
	BYTE	W06
	BYTE		        Dn2 
	BYTE	W06
	BYTE		        Cn2 
	BYTE	W06
	BYTE		        Dn2 
	BYTE	W06
	BYTE		        Fn2 
	BYTE	W12
	BYTE		        Cn2 
	BYTE	W06
	BYTE		        Dn2 
	BYTE	W06
	BYTE		        Fn2 
	BYTE	W06
	BYTE		        Dn2 
	BYTE	W06
	BYTE		        Cn2 
	BYTE	W06
	BYTE		        Dn2 
	BYTE	W06
	BYTE		        Fn2 
	BYTE	W06
	BYTE		        Dn2 
	BYTE	W06
	BYTE		        Cn2 
	BYTE	W06
	BYTE		        Dn2 
	BYTE	W06
	BYTE		        Fn2 
	BYTE	W06
	BYTE	PEND
// 005   ----------------------------------------
	BYTE	PATT
	 POIN2	id_purpose_gba_6_003
// 006   ----------------------------------------
	BYTE	PATT
	 POIN2	id_purpose_gba_6_004
// 007   ----------------------------------------
id_purpose_gba_6_007:
	BYTE	W06
	BYTE		N05     An1   v120
	BYTE	W06
	BYTE		        As1 
	BYTE	W06
	BYTE		        Gn1 
	BYTE	W06
	BYTE		        As1 
	BYTE	W06
	BYTE		        An1 
	BYTE	W06
	BYTE		        As1 
	BYTE	W06
	BYTE		        Cn2 
	BYTE	W06
	BYTE		        Fn2 
	BYTE	W06
	BYTE		        Cn2 
	BYTE	W06
	BYTE		        Fn2 
	BYTE	W06
	BYTE		        An2 
	BYTE	W12
	BYTE		        Dn2 
	BYTE	W06
	BYTE		        Gn2 
	BYTE	W06
	BYTE		        An2 
	BYTE	W06
	BYTE		        Gn2 
	BYTE	W06
	BYTE		        Dn2 
	BYTE	W06
	BYTE		        Gn2 
	BYTE	W06
	BYTE		        An2 
	BYTE	W06
	BYTE		        Gn2 
	BYTE	W06
	BYTE		        Dn2 
	BYTE	W06
	BYTE		        Gn2 
	BYTE	W06
	BYTE		        An2 
	BYTE	W06
	BYTE	PEND
// 008   ----------------------------------------
id_purpose_gba_6_008:
	BYTE		N05     Gn2   v120
	BYTE	W06
	BYTE		        An2 
	BYTE	W06
	BYTE		        As2 
	BYTE	W06
	BYTE		        An2 
	BYTE	W06
	BYTE		        Gn2 
	BYTE	W06
	BYTE		        An2 
	BYTE	W06
	BYTE		        As2 
	BYTE	W06
	BYTE		        An2 
	BYTE	W06
	BYTE		        Gn2 
	BYTE	W06
	BYTE		        Fn2 
	BYTE	W06
	BYTE		        Dn2 
	BYTE	W06
	BYTE		        Gn2 
	BYTE	W06
	BYTE		        Fn2 
	BYTE	W06
	BYTE		        En2 
	BYTE	W06
	BYTE		        Fn2 
	BYTE	W06
	BYTE		        Gn2 
	BYTE	W06
	BYTE		        Fn2 
	BYTE	W06
	BYTE		        En2 
	BYTE	W06
	BYTE		        Fn2 
	BYTE	W06
	BYTE		        Gn2 
	BYTE	W06
	BYTE		        An2 
	BYTE	W06
	BYTE		        Fn2 
	BYTE	W06
	BYTE		        Gn2 
	BYTE	W06
	BYTE		        Fn2 
	BYTE	W06
	BYTE	PEND
// 009   ----------------------------------------
	BYTE		N05   
	BYTE	W06
	BYTE		        Gn2 
	BYTE	W06
	BYTE		        Gs2 
	BYTE	W06
	BYTE		        Fn2 
	BYTE	W06
	BYTE		        Gs2 
	BYTE	W06
	BYTE		        Gn2 
	BYTE	W06
	BYTE		        Gs2 
	BYTE	W06
	BYTE		        As2 
	BYTE	W06
	BYTE		        Cn3 
	BYTE	W06
	BYTE		        Gs2 
	BYTE	W06
	BYTE		        As2 
	BYTE	W06
	BYTE		        Gn2 
	BYTE	W06
	BYTE		        Gs2 
	BYTE	W06
	BYTE		        As2 
	BYTE	W06
	BYTE		        Gs2 
	BYTE	W06
	BYTE		        Gn2 
	BYTE	W06
	BYTE		        Cn3 
	BYTE	W06
	BYTE		        As2 
	BYTE	W06
	BYTE		        Cn3 
	BYTE	W06
	BYTE		        Dn3 
	BYTE	W06
	BYTE		        Ds3 
	BYTE	W06
	BYTE		        As2 
	BYTE	W06
	BYTE		        Cn3 
	BYTE	W06
	BYTE		        As2 
	BYTE	W06
// 010   ----------------------------------------
	BYTE		        Fn2 
	BYTE	W06
	BYTE		        Gn2 
	BYTE	W06
	BYTE		        Fn2 
	BYTE	W06
	BYTE		        En2 
	BYTE	W06
	BYTE		        Fn2 
	BYTE	W06
	BYTE		        Gn2 
	BYTE	W06
	BYTE		        Fn2 
	BYTE	W06
	BYTE		        En2 
	BYTE	W06
	BYTE		        Fn2 
	BYTE	W06
	BYTE		        Gn2 
	BYTE	W06
	BYTE		        Fn2 
	BYTE	W06
	BYTE		        En2 
	BYTE	W06
	BYTE		        As2 
	BYTE	W06
	BYTE		        Cn3 
	BYTE	W06
	BYTE		        As2 
	BYTE	W06
	BYTE		        An2 
	BYTE	W06
	BYTE		        As2 
	BYTE	W06
	BYTE		        Cn3 
	BYTE	W06
	BYTE		        As2 
	BYTE	W06
	BYTE		        An2 
	BYTE	W06
	BYTE		        As2 
	BYTE	W06
	BYTE		        Cn3 
	BYTE	W06
	BYTE		        As2 
	BYTE	W06
	BYTE		        An2 
	BYTE	W06
// 011   ----------------------------------------
	BYTE	PATT
	 POIN2	id_purpose_gba_6_003
// 012   ----------------------------------------
	BYTE	PATT
	 POIN2	id_purpose_gba_6_004
// 013   ----------------------------------------
	BYTE	PATT
	 POIN2	id_purpose_gba_6_003
// 014   ----------------------------------------
	BYTE	PATT
	 POIN2	id_purpose_gba_6_004
// 015   ----------------------------------------
	BYTE	PATT
	 POIN2	id_purpose_gba_6_007
// 016   ----------------------------------------
	BYTE	PATT
	 POIN2	id_purpose_gba_6_008
// 017   ----------------------------------------
id_purpose_gba_6_017:
	BYTE		N05     Ds2   v120
	BYTE	W06
	BYTE		        Dn2 
	BYTE	W06
	BYTE		        Ds2 
	BYTE	W06
	BYTE		        Fn2 
	BYTE	W06
	BYTE		        Ds2 
	BYTE	W06
	BYTE		        Dn2 
	BYTE	W06
	BYTE		        Ds2 
	BYTE	W06
	BYTE		        Fn2 
	BYTE	W06
	BYTE		        Ds2 
	BYTE	W06
	BYTE		        Dn2 
	BYTE	W06
	BYTE		        Ds2 
	BYTE	W06
	BYTE		        Fn2 
	BYTE	W06
	BYTE		        Ds2 
	BYTE	W06
	BYTE		        Fn2 
	BYTE	W06
	BYTE		        Fs2 
	BYTE	W06
	BYTE		        Ds2 
	BYTE	W06
	BYTE		        Fn2 
	BYTE	W06
	BYTE		        Fs2 
	BYTE	W06
	BYTE		        Ds2 
	BYTE	W06
	BYTE		        Fn2 
	BYTE	W06
	BYTE		        Fs2 
	BYTE	W06
	BYTE		        Ds2 
	BYTE	W06
	BYTE		        Fn2 
	BYTE	W06
	BYTE		        Fs2 
	BYTE	W06
	BYTE	PEND
// 018   ----------------------------------------
	BYTE		        As2 
	BYTE	W06
	BYTE		        Ds2 
	BYTE	W06
	BYTE		        Fn2 
	BYTE	W06
	BYTE		        As2 
	BYTE	W06
	BYTE		        Fn2 
	BYTE	W06
	BYTE		        Ds2 
	BYTE	W06
	BYTE		        Fn2 
	BYTE	W06
	BYTE		        As2 
	BYTE	W06
	BYTE		        Fn2 
	BYTE	W06
	BYTE		        Ds2 
	BYTE	W06
	BYTE		        Fn2 
	BYTE	W06
	BYTE		        As2 
	BYTE	W06
	BYTE		        Fn2 
	BYTE	W06
	BYTE		        Ds2 
	BYTE	W06
	BYTE		        Fn2 
	BYTE	W06
	BYTE		        As2 
	BYTE	W06
	BYTE		        Fn2 
	BYTE	W06
	BYTE		        Ds2 
	BYTE	W06
	BYTE		        Fn2 
	BYTE	W06
	BYTE		        As2 
	BYTE	W06
	BYTE		        Fn2 
	BYTE	W06
	BYTE		        Ds2 
	BYTE	W04
	BYTE	W02
	BYTE		        Fn2 
	BYTE	W06
	BYTE		        As2 
	BYTE	W06
// 019   ----------------------------------------
	BYTE		VOICE   24
	BYTE		N05     Gs3   v100
	BYTE	W06
	BYTE		        Fs3 
	BYTE	W06
	BYTE		        Gs3 
	BYTE	W06
	BYTE		        Ds4 
	BYTE	W06
	BYTE		        Gs3 
	BYTE	W06
	BYTE		        Ds4 
	BYTE	W06
	BYTE		        Gs3 
	BYTE	W06
	BYTE		        Ds4 
	BYTE	W06
	BYTE		        Gs3 
	BYTE	W06
	BYTE		        Fs3 
	BYTE	W06
	BYTE		        Gs3 
	BYTE	W06
	BYTE		        Ds4 
	BYTE	W06
	BYTE		        Gs3 
	BYTE	W06
	BYTE		        Fs3 
	BYTE	W06
	BYTE		        Gs3 
	BYTE	W06
	BYTE		        Ds4 
	BYTE	W06
	BYTE		        Gs3 
	BYTE	W06
	BYTE		        Fs3 
	BYTE	W06
	BYTE		        Gs3 
	BYTE	W06
	BYTE		        Ds4 
	BYTE	W06
	BYTE		        Gs3 
	BYTE	W06
	BYTE		        Fs3 
	BYTE	W06
	BYTE		        Gs3 
	BYTE	W06
	BYTE		        Ds4 
	BYTE	W06
// 020   ----------------------------------------
	BYTE		        Fs3 
	BYTE	W06
	BYTE		        En3 
	BYTE	W06
	BYTE		        Fs3 
	BYTE	W06
	BYTE		        Cs4 
	BYTE	W06
	BYTE		        Fs3 
	BYTE	W06
	BYTE		        En3 
	BYTE	W06
	BYTE		        Fs3 
	BYTE	W06
	BYTE		        Cs4 
	BYTE	W06
	BYTE		        Fs3 
	BYTE	W06
	BYTE		        En3 
	BYTE	W06
	BYTE		        Fs3 
	BYTE	W06
	BYTE		        Cs4 
	BYTE	W06
	BYTE		        En3 
	BYTE	W06
	BYTE		        Dn3 
	BYTE	W06
	BYTE		        En3 
	BYTE	W06
	BYTE		        Bn3 
	BYTE	W06
	BYTE		        En3 
	BYTE	W06
	BYTE		        Dn3 
	BYTE	W06
	BYTE		        En3 
	BYTE	W06
	BYTE		        Bn3 
	BYTE	W06
	BYTE		        En3 
	BYTE	W06
	BYTE		        Dn3 
	BYTE	W06
	BYTE		        En3 
	BYTE	W06
	BYTE		        Bn3 
	BYTE	W06
// 021   ----------------------------------------
	BYTE		        En3 
	BYTE	W06
	BYTE		        Dn3 
	BYTE	W06
	BYTE		        En3 
	BYTE	W06
	BYTE		        Bn3 
	BYTE	W06
	BYTE		        En3 
	BYTE	W06
	BYTE		        Dn3 
	BYTE	W06
	BYTE		        En3 
	BYTE	W06
	BYTE		        Bn3 
	BYTE	W06
	BYTE		        En3 
	BYTE	W06
	BYTE		        Dn3 
	BYTE	W06
	BYTE		        En3 
	BYTE	W06
	BYTE		        Bn3 
	BYTE	W06
	BYTE		        Fs3 
	BYTE	W06
	BYTE		        Gs3 
	BYTE	W06
	BYTE		        An3 
	BYTE	W06
	BYTE		        Dn4 
	BYTE	W06
	BYTE		        Fs3 
	BYTE	W06
	BYTE		        Dn4 
	BYTE	W06
	BYTE		        Fs3 
	BYTE	W06
	BYTE		        Dn4 
	BYTE	W06
	BYTE		        Fs3 
	BYTE	W06
	BYTE		        Gs3 
	BYTE	W06
	BYTE		        An3 
	BYTE	W06
	BYTE		        Dn4 
	BYTE	W06
// 022   ----------------------------------------
	BYTE		        En3 
	BYTE	W06
	BYTE		        Dn3 
	BYTE	W06
	BYTE		        En3 
	BYTE	W06
	BYTE		        Bn3 
	BYTE	W06
	BYTE		        En3 
	BYTE	W06
	BYTE		        Dn3 
	BYTE	W06
	BYTE		        En3 
	BYTE	W06
	BYTE		        Bn3 
	BYTE	W06
	BYTE		        En3 
	BYTE	W06
	BYTE		        Dn3 
	BYTE	W06
	BYTE		        En3 
	BYTE	W06
	BYTE		        Bn3 
	BYTE	W06
	BYTE		        En3 
	BYTE	W06
	BYTE		        Dn3 
	BYTE	W06
	BYTE		        En3 
	BYTE	W06
	BYTE		        Bn3 
	BYTE	W06
	BYTE		        En3 
	BYTE	W06
	BYTE		        Dn3 
	BYTE	W06
	BYTE		        En3 
	BYTE	W06
	BYTE		        Bn3 
	BYTE	W06
	BYTE		        En3 
	BYTE	W06
	BYTE		        Dn3 
	BYTE	W06
	BYTE		        En3 
	BYTE	W06
	BYTE		        Bn3 
	BYTE	W06
// 023   ----------------------------------------
	BYTE		N05   
	BYTE	W06
	BYTE		        An3 
	BYTE	W06
	BYTE		        Bn3 
	BYTE	W06
	BYTE		        En3 
	BYTE	W06
	BYTE		        Bn3 
	BYTE	W06
	BYTE		        En3 
	BYTE	W06
	BYTE		        Bn3 
	BYTE	W06
	BYTE		        En3 
	BYTE	W06
	BYTE		        Bn3 
	BYTE	W06
	BYTE		        An3 
	BYTE	W06
	BYTE		        Bn3 
	BYTE	W06
	BYTE		        En3 
	BYTE	W06
	BYTE		        Bn3 
	BYTE	W06
	BYTE		        Gn3 
	BYTE	W06
	BYTE		        An3 
	BYTE	W06
	BYTE		        En3 
	BYTE	W06
	BYTE		        Bn3 
	BYTE	W06
	BYTE		        An3 
	BYTE	W06
	BYTE		        Bn3 
	BYTE	W06
	BYTE		        An3 
	BYTE	W06
	BYTE		        Bn3 
	BYTE	W06
	BYTE		        Gn3 
	BYTE	W06
	BYTE		        An3 
	BYTE	W06
	BYTE		        En3 
	BYTE	W06
// 024   ----------------------------------------
	BYTE		        Gn3 
	BYTE	W06
	BYTE		        Fn3 
	BYTE	W06
	BYTE		        Gn3 
	BYTE	W06
	BYTE		        Dn4 
	BYTE	W06
	BYTE		        Gn3 
	BYTE	W06
	BYTE		        Fn3 
	BYTE	W06
	BYTE		        Gn3 
	BYTE	W06
	BYTE		        Dn4 
	BYTE	W06
	BYTE		        Gn3 
	BYTE	W06
	BYTE		        Fn3 
	BYTE	W06
	BYTE		        Gn3 
	BYTE	W06
	BYTE		        Dn4 
	BYTE	W06
	BYTE		        Fn3 
	BYTE	W06
	BYTE		        Ds3 
	BYTE	W06
	BYTE		        Fn3 
	BYTE	W06
	BYTE		        Cn4 
	BYTE	W06
	BYTE		        Fn3 
	BYTE	W06
	BYTE		        Ds3 
	BYTE	W06
	BYTE		        Fn3 
	BYTE	W06
	BYTE		        Cn4 
	BYTE	W06
	BYTE		        Fn3 
	BYTE	W06
	BYTE		        Ds3 
	BYTE	W06
	BYTE		        Fn3 
	BYTE	W06
	BYTE		        Cn4 
	BYTE	W06
// 025   ----------------------------------------
	BYTE		        Fn3 
	BYTE	W06
	BYTE		        Ds3 
	BYTE	W06
	BYTE		        Fn3 
	BYTE	W06
	BYTE		        Cn4 
	BYTE	W06
	BYTE		        Fn3 
	BYTE	W06
	BYTE		        Ds3 
	BYTE	W06
	BYTE		        Fn3 
	BYTE	W06
	BYTE		        Cn4 
	BYTE	W06
	BYTE		        Fn3 
	BYTE	W06
	BYTE		        Ds3 
	BYTE	W06
	BYTE		        Fn3 
	BYTE	W06
	BYTE		        Cn4 
	BYTE	W06
	BYTE		        Gn3 
	BYTE	W06
	BYTE		        An3 
	BYTE	W06
	BYTE		        As3 
	BYTE	W06
	BYTE		        Ds4 
	BYTE	W06
	BYTE		        Gn3 
	BYTE	W06
	BYTE		        Ds4 
	BYTE	W06
	BYTE		        Gn3 
	BYTE	W06
	BYTE		        Ds4 
	BYTE	W06
	BYTE		        Gn3 
	BYTE	W06
	BYTE		        Ds4 
	BYTE	W06
	BYTE		        Gn3 
	BYTE	W06
	BYTE		        Ds4 
	BYTE	W06
// 026   ----------------------------------------
	BYTE		        Fn3 
	BYTE	W06
	BYTE		        Ds3 
	BYTE	W06
	BYTE		        Fn3 
	BYTE	W06
	BYTE		        As3 
	BYTE	W06
	BYTE		        Fn3 
	BYTE	W06
	BYTE		        Ds3 
	BYTE	W06
	BYTE		        Fn3 
	BYTE	W06
	BYTE		        As3 
	BYTE	W06
	BYTE		        Fn3 
	BYTE	W06
	BYTE		        Ds3 
	BYTE	W06
	BYTE		        Fn3 
	BYTE	W06
	BYTE		        As3 
	BYTE	W06
	BYTE		        Fn3 
	BYTE	W06
	BYTE		        Ds3 
	BYTE	W06
	BYTE		        Cn3 
	BYTE	W06
	BYTE		        Ds3 
	BYTE	W06
	BYTE		        Fn3 
	BYTE	W06
	BYTE		        An3 
	BYTE	W06
	BYTE		        Cn4 
	BYTE	W06
	BYTE		        An3 
	BYTE	W06
	BYTE		        Fn3 
	BYTE	W06
	BYTE		        An3 
	BYTE	W06
	BYTE		        Fn3 
	BYTE	W06
	BYTE		        Cn3 
	BYTE	W06
// 027   ----------------------------------------
	BYTE	W84
	BYTE		VOICE   60
	BYTE	W60
// 028   ----------------------------------------
	BYTE	PATT
	 POIN2	id_purpose_gba_6_003
// 029   ----------------------------------------
	BYTE	PATT
	 POIN2	id_purpose_gba_6_004
// 030   ----------------------------------------
	BYTE	PATT
	 POIN2	id_purpose_gba_6_003
// 031   ----------------------------------------
	BYTE	PATT
	 POIN2	id_purpose_gba_6_004
// 032   ----------------------------------------
	BYTE	PATT
	 POIN2	id_purpose_gba_6_007
// 033   ----------------------------------------
	BYTE	PATT
	 POIN2	id_purpose_gba_6_008
// 034   ----------------------------------------
	BYTE	PATT
	 POIN2	id_purpose_gba_6_017
// 035   ----------------------------------------
id_purpose_gba_6_035:
	BYTE	W06
	BYTE		N05     Ds2   v120
	BYTE	W06
	BYTE		        Fn2 
	BYTE	W06
	BYTE		        Gs2 
	BYTE	W06
	BYTE		        As2 
	BYTE	W06
	BYTE		        Gs2 
	BYTE	W06
	BYTE		        Fn2 
	BYTE	W06
	BYTE		        Ds2 
	BYTE	W06
	BYTE		        Fn2 
	BYTE	W06
	BYTE		        Gs2 
	BYTE	W06
	BYTE		        As2 
	BYTE	W06
	BYTE		        Ds3 
	BYTE	W06
	BYTE		        As2 
	BYTE	W06
	BYTE		        Ds3 
	BYTE	W06
	BYTE		        As2 
	BYTE	W06
	BYTE		        Gs2 
	BYTE	W06
	BYTE		        As2 
	BYTE	W06
	BYTE		        Ds3 
	BYTE	W06
	BYTE		        As2 
	BYTE	W06
	BYTE		        Gs2 
	BYTE	W06
	BYTE		        As2 
	BYTE	W06
	BYTE		        Gs2 
	BYTE	W06
	BYTE		        Ds3 
	BYTE	W06
	BYTE		        Gs2 
	BYTE	W06
	BYTE	PEND
// 036   ----------------------------------------
	BYTE	PATT
	 POIN2	id_purpose_gba_6_035
// 037   ----------------------------------------
	BYTE	W96
	BYTE	W48
// 038   ----------------------------------------
	BYTE	W96
	BYTE	W48
// 039   ----------------------------------------
	BYTE	W96
	BYTE	W48
// 040   ----------------------------------------
	BYTE	W96
	BYTE	W48
// 041   ----------------------------------------
	BYTE		N24     An2   v092
	BYTE	W24
	BYTE		        Gn2 
	BYTE	W24
	BYTE		        An2 
	BYTE	W24
	BYTE		        Fs2 
	BYTE	W24
	BYTE		        Gn2 
	BYTE	W24
	BYTE		        An2 
	BYTE	W24
// 042   ----------------------------------------
	BYTE	W24
	BYTE		N03     Fs2 
	BYTE	W04
	BYTE		        En2 
	BYTE	W04
	BYTE		        Fs2 
	BYTE	W04
	BYTE		N36     Cs3   v080
	BYTE	W60
	BYTE		N03     Fs2   v092
	BYTE	W04
	BYTE		        En2 
	BYTE	W04
	BYTE		        Fs2 
	BYTE	W04
	BYTE		N36     Dn3   v080
	BYTE	W36
// 043   ----------------------------------------
	BYTE	W24
	BYTE		N03     An2   v092
	BYTE	W04
	BYTE		        Cs3 
	BYTE	W04
	BYTE		        En3 
	BYTE	W04
	BYTE		N36     Fs3   v080
	BYTE	W60
	BYTE		N03     Bn2   v092
	BYTE	W04
	BYTE		        En3 
	BYTE	W04
	BYTE		        Fs3 
	BYTE	W04
	BYTE		N36     Bn3   v080
	BYTE	W36
// 044   ----------------------------------------
	BYTE	W96
	BYTE	W48
// 045   ----------------------------------------
	BYTE	W96
	BYTE	W48
// 046   ----------------------------------------
	BYTE	W96
// 047   ----------------------------------------
	BYTE	W96
// 048   ----------------------------------------
	BYTE	W96
// 049   ----------------------------------------
	BYTE	W96
// 050   ----------------------------------------
	BYTE	W96
// 051   ----------------------------------------
	BYTE	W96
// 052   ----------------------------------------
	BYTE	W96
// 053   ----------------------------------------
	BYTE	W96
// 054   ----------------------------------------
	BYTE	W96
// 055   ----------------------------------------
	BYTE	W96
// 056   ----------------------------------------
	BYTE	W96
// 057   ----------------------------------------
	BYTE	W96
// 058   ----------------------------------------
	BYTE	W96
// 059   ----------------------------------------
	BYTE	W96
// 060   ----------------------------------------
	BYTE	W96
// 061   ----------------------------------------
	BYTE	W96
// 062   ----------------------------------------
	BYTE	W96
// 063   ----------------------------------------
	BYTE	W96
// 064   ----------------------------------------
	BYTE	W96
// 065   ----------------------------------------
	BYTE	W96
// 066   ----------------------------------------
	BYTE	W96
// 067   ----------------------------------------
	BYTE	W96
// 068   ----------------------------------------
	BYTE	W96
// 069   ----------------------------------------
	BYTE	W96
// 070   ----------------------------------------
	BYTE	W96
// 071   ----------------------------------------
	BYTE	W96
// 072   ----------------------------------------
	BYTE	W96
// 073   ----------------------------------------
	BYTE	W96
// 074   ----------------------------------------
	BYTE	W96
// 075   ----------------------------------------
	BYTE	W96
// 076   ----------------------------------------
	BYTE	W96
// 077   ----------------------------------------
	BYTE	W96
// 078   ----------------------------------------
	BYTE	W96
// 079   ----------------------------------------
	BYTE	W96
// 080   ----------------------------------------
	BYTE	W96
// 081   ----------------------------------------
	BYTE	W96
// 082   ----------------------------------------
	BYTE	W96
// 083   ----------------------------------------
	BYTE	W96
// 084   ----------------------------------------
	BYTE	W96
// 085   ----------------------------------------
	BYTE	W96
// 086   ----------------------------------------
	BYTE	W96
	BYTE	W48
// 087   ----------------------------------------
	BYTE	W96
	BYTE	W48
// 088   ----------------------------------------
	BYTE	W96
	BYTE	W48
// 089   ----------------------------------------
	BYTE	W96
	BYTE	W48
// 090   ----------------------------------------
	BYTE	W96
	BYTE	W48
	BYTE	GoTo
	 POIN2	id_purpose_gba_6_B1
id_purpose_gba_6_B2:
// 091   ----------------------------------------
	BYTE	PATT
	 POIN2	id_purpose_gba_6_003
// 092   ----------------------------------------
	BYTE	PATT
	 POIN2	id_purpose_gba_6_004
// 093   ----------------------------------------
	BYTE	PATT
	 POIN2	id_purpose_gba_6_003
// 094   ----------------------------------------
	BYTE	PATT
	 POIN2	id_purpose_gba_6_004
// 095   ----------------------------------------
	BYTE	PATT
	 POIN2	id_purpose_gba_6_007
// 096   ----------------------------------------
	BYTE		N05     Gn2   v120
	BYTE	W03
	BYTE	W03
	BYTE		        An2 
	BYTE	W01
	BYTE	W03
	BYTE	W02
	BYTE		        As2 
	BYTE	W03
	BYTE	W01
	BYTE	W02
	BYTE		        An2 
	BYTE	W01
	BYTE	W02
	BYTE	W03
	BYTE		        Gn2 
	BYTE	W01
	BYTE	W03
	BYTE	W02
	BYTE		        An2 
	BYTE	W03
	BYTE	W01
	BYTE	W02
	BYTE		        As2 
	BYTE	W01
	BYTE	W02
	BYTE	W03
	BYTE		        An2 
	BYTE	W01
	BYTE	W03
	BYTE	W02
	BYTE		        Gn2 
	BYTE	W03
	BYTE	W01
	BYTE	W02
	BYTE		        Fn2 
	BYTE	W01
	BYTE	W02
	BYTE	W03
	BYTE		        Dn2 
	BYTE	W01
	BYTE	W03
	BYTE	W02
	BYTE		        Gn2 
	BYTE	W03
	BYTE	W01
	BYTE	W02
	BYTE		        Fn2 
	BYTE	W01
	BYTE	W02
	BYTE	W03
	BYTE		        En2 
	BYTE	W01
	BYTE	W03
	BYTE	W02
	BYTE		        Fn2 
	BYTE	W03
	BYTE	W01
	BYTE	W02
	BYTE		        Gn2 
	BYTE	W01
	BYTE	W02
	BYTE	W03
	BYTE		        Fn2 
	BYTE	W01
	BYTE	W03
	BYTE	W02
	BYTE		        En2 
	BYTE	W03
	BYTE	W01
	BYTE	W02
	BYTE		        Fn2 
	BYTE	W01
	BYTE	W02
	BYTE	W03
	BYTE		        Gn2 
	BYTE	W01
	BYTE	W03
	BYTE	W02
	BYTE		        An2 
	BYTE	W03
	BYTE	W01
	BYTE	W02
	BYTE		        Fn2 
	BYTE	W01
	BYTE	W02
	BYTE	W03
	BYTE		        Gn2 
	BYTE	W01
	BYTE	W03
	BYTE	W02
	BYTE		        Fn2 
	BYTE	W03
	BYTE	W01
	BYTE	W02
// 097   ----------------------------------------
	BYTE		N05   
	BYTE	W01
	BYTE	W02
	BYTE	W03
	BYTE		        Gn2 
	BYTE	W01
	BYTE	W03
	BYTE	W02
	BYTE		        Gs2 
	BYTE	W03
	BYTE	W01
	BYTE	W02
	BYTE		        Fn2 
	BYTE	W01
	BYTE	W02
	BYTE	W03
	BYTE		        Gs2 
	BYTE	W01
	BYTE	W03
	BYTE	W02
	BYTE		        Gn2 
	BYTE	W03
	BYTE	W01
	BYTE	W02
	BYTE		        Gs2 
	BYTE	W01
	BYTE	W02
	BYTE	W03
	BYTE		        As2 
	BYTE	W01
	BYTE	W03
	BYTE	W02
	BYTE		        Cn3 
	BYTE	W03
	BYTE	W01
	BYTE	W02
	BYTE		        Gs2 
	BYTE	W01
	BYTE	W02
	BYTE	W03
	BYTE		        As2 
	BYTE	W01
	BYTE	W03
	BYTE	W02
	BYTE		        Gn2 
	BYTE	W03
	BYTE	W01
	BYTE	W02
	BYTE		        Gs2 
	BYTE	W01
	BYTE	W02
	BYTE	W03
	BYTE		        As2 
	BYTE	W01
	BYTE	W03
	BYTE	W02
	BYTE		        Gs2 
	BYTE	W03
	BYTE	W01
	BYTE	W02
	BYTE		        Gn2 
	BYTE	W01
	BYTE	W02
	BYTE	W03
	BYTE		        Cn3 
	BYTE	W01
	BYTE	W03
	BYTE	W02
	BYTE		        As2 
	BYTE	W03
	BYTE	W01
	BYTE	W02
	BYTE		        Cn3 
	BYTE	W01
	BYTE	W03
	BYTE	W02
	BYTE		        Dn3 
	BYTE	W03
	BYTE	W01
	BYTE	W02
	BYTE		        Ds3 
	BYTE	W01
	BYTE	W02
	BYTE	W03
	BYTE		        As2 
	BYTE	W01
	BYTE	W03
	BYTE	W02
	BYTE		        Cn3 
	BYTE	W03
	BYTE	W01
	BYTE	W02
	BYTE		        As2 
	BYTE	W01
	BYTE	W02
	BYTE	W01
	BYTE	W02
// 098   ----------------------------------------
	BYTE		        Fn2 
	BYTE	W06
	BYTE		        Gn2 
	BYTE	W06
	BYTE		        Fn2 
	BYTE	W06
	BYTE		        En2 
	BYTE	W06
	BYTE		        Fn2 
	BYTE	W06
	BYTE		        Gn2 
	BYTE	W06
	BYTE		        Fn2 
	BYTE	W06
	BYTE		        En2 
	BYTE	W06
	BYTE		        Fn2 
	BYTE	W06
	BYTE		        Gn2 
	BYTE	W06
	BYTE		        Fn2 
	BYTE	W06
	BYTE		        En2 
	BYTE	W06
	BYTE		        As2 
	BYTE	W06
	BYTE		        Cn3 
	BYTE	W06
	BYTE		        As2 
	BYTE	W06
	BYTE		        An2 
	BYTE	W40
	BYTE	W03
	BYTE	FINE

//**************** Track 7 (Midi-Chn.7) ****************//

id_purpose_gba_7:
	BYTE		VOL     127*id_purpose_gba_mvl/mxv
	BYTE	KEYSH   id_purpose_gba_key+0
// 000   ----------------------------------------
	BYTE		VOICE   3
	BYTE	W24
// 001   ----------------------------------------
	BYTE	W24
// 002   ----------------------------------------
	BYTE	W24
id_purpose_gba_7_B1:
// 003   ----------------------------------------
	BYTE	W96
	BYTE	W48
// 004   ----------------------------------------
	BYTE	W96
	BYTE	W48
// 005   ----------------------------------------
	BYTE	W96
	BYTE	W48
// 006   ----------------------------------------
	BYTE	W96
	BYTE	W48
// 007   ----------------------------------------
	BYTE	W96
	BYTE	W48
// 008   ----------------------------------------
	BYTE	W96
	BYTE	W48
// 009   ----------------------------------------
	BYTE	W96
	BYTE	W48
// 010   ----------------------------------------
	BYTE		VOICE   119
	BYTE	W90
	BYTE	W06
	BYTE		N48     Bn2   v100
	BYTE	W01
	BYTE	W02
	BYTE	W01
	BYTE	W02
	BYTE	W01
	BYTE	W02
	BYTE	W01
	BYTE	W02
	BYTE	W01
	BYTE	W02
	BYTE	W01
	BYTE	W02
	BYTE	W01
	BYTE	W02
	BYTE	W01
	BYTE	W02
	BYTE	W01
	BYTE	W02
	BYTE	W01
	BYTE	W02
	BYTE	W01
	BYTE	W02
	BYTE	W01
	BYTE	W02
	BYTE	W01
	BYTE	W02
	BYTE	W01
	BYTE	W02
	BYTE	W06
// 011   ----------------------------------------
	BYTE	W96
	BYTE	W48
// 012   ----------------------------------------
	BYTE	W96
	BYTE	W48
// 013   ----------------------------------------
	BYTE	W96
	BYTE	W48
// 014   ----------------------------------------
	BYTE	W88
	BYTE	W08
	BYTE		N48   
	BYTE	W01
	BYTE	W02
	BYTE	W01
	BYTE	W02
	BYTE	W01
	BYTE	W02
	BYTE	W01
	BYTE	W02
	BYTE	W01
	BYTE	W02
	BYTE	W01
	BYTE	W02
	BYTE	W01
	BYTE	W02
	BYTE	W01
	BYTE	W02
	BYTE	W01
	BYTE	W02
	BYTE	W01
	BYTE	W02
	BYTE	W01
	BYTE	W02
	BYTE	W01
	BYTE	W02
	BYTE	W01
	BYTE	W02
	BYTE	W01
	BYTE	W02
	BYTE	W01
	BYTE	W02
	BYTE	W01
	BYTE	W01
	BYTE	W01
// 015   ----------------------------------------
	BYTE	W96
	BYTE	W48
// 016   ----------------------------------------
	BYTE	W96
	BYTE	W48
// 017   ----------------------------------------
	BYTE	W96
	BYTE	W48
// 018   ----------------------------------------
	BYTE	W96
	BYTE	W48
// 019   ----------------------------------------
	BYTE	W96
	BYTE	W48
// 020   ----------------------------------------
	BYTE	W96
	BYTE	W48
// 021   ----------------------------------------
	BYTE	W96
	BYTE	W48
// 022   ----------------------------------------
	BYTE	W96
	BYTE	W48
// 023   ----------------------------------------
	BYTE	W96
	BYTE	W48
// 024   ----------------------------------------
	BYTE	W96
	BYTE	W48
// 025   ----------------------------------------
	BYTE		VOICE   0
	BYTE	W96
	BYTE	W48
// 026   ----------------------------------------
	BYTE		N10     Fn4 
	BYTE	W12
	BYTE		        Fn4   v052
	BYTE	W12
	BYTE		        Fn4   v100
	BYTE	W12
	BYTE		        Fn4   v052
	BYTE	W12
	BYTE		        Fn4   v100
	BYTE	W12
	BYTE		        Fn4   v052
	BYTE	W12
	BYTE		        Fn4   v100
	BYTE	W12
	BYTE		        Fn4   v052
	BYTE	W12
	BYTE		        Fn4   v100
	BYTE	W12
	BYTE		        Fn4   v052
	BYTE	W12
	BYTE		        Fn4   v100
	BYTE	W12
	BYTE		        Fn4   v052
	BYTE	W12
// 027   ----------------------------------------
	BYTE		N05     Dn5   v100
	BYTE	W12
	BYTE		        An4 
	BYTE		N05     Dn5   v052
	BYTE	W12
	BYTE		        An4 
	BYTE		N05     Dn5   v100
	BYTE	W12
	BYTE		        An4 
	BYTE		N05     Dn5   v052
	BYTE	W12
	BYTE		        An4 
	BYTE		N05     Dn5   v100
	BYTE	W12
	BYTE		        An4 
	BYTE		N05     Dn5   v052
	BYTE	W12
	BYTE		        An4 
	BYTE		N05     Dn5   v100
	BYTE	W12
	BYTE		        An4 
	BYTE		N05     Dn5   v052
	BYTE	W12
	BYTE		        An4 
	BYTE		N05     Dn5   v100
	BYTE	W12
	BYTE		        An4 
	BYTE		N05     Dn5   v052
	BYTE	W12
	BYTE		        An4 
	BYTE		N05     Dn5   v100
	BYTE	W12
	BYTE		        An4 
	BYTE		N05     Dn5   v052
	BYTE	W12
// 028   ----------------------------------------
	BYTE		        An4 
	BYTE	W96
	BYTE	W48
// 029   ----------------------------------------
	BYTE	W96
	BYTE	W48
// 030   ----------------------------------------
	BYTE	W96
	BYTE	W42
	BYTE		VOICE   119
	BYTE	W06
// 031   ----------------------------------------
	BYTE	W84
	BYTE	W03
	BYTE	W09
	BYTE		N48     Bn2   v100
	BYTE	W01
	BYTE	W02
	BYTE	W01
	BYTE	W02
	BYTE	W01
	BYTE	W02
	BYTE	W01
	BYTE	W02
	BYTE	W01
	BYTE	W02
	BYTE	W01
	BYTE	W02
	BYTE	W01
	BYTE	W02
	BYTE	W01
	BYTE	W02
	BYTE	W01
	BYTE	W02
	BYTE	W01
	BYTE	W02
	BYTE	W01
	BYTE	W02
	BYTE	W01
	BYTE	W02
	BYTE	W01
	BYTE	W02
	BYTE	W01
	BYTE	W02
	BYTE	W01
	BYTE	W02
	BYTE	W01
	BYTE	W02
// 032   ----------------------------------------
	BYTE	W96
	BYTE	W48
// 033   ----------------------------------------
	BYTE	W96
	BYTE	W48
// 034   ----------------------------------------
	BYTE	W96
	BYTE	W48
// 035   ----------------------------------------
	BYTE		VOICE   57
	BYTE	W96
	BYTE	W48
// 036   ----------------------------------------
	BYTE	W06
	BYTE		N05     Ds3   v120
	BYTE	W06
	BYTE		        Fn3 
	BYTE	W06
	BYTE		        Gs3 
	BYTE	W06
	BYTE		        As3 
	BYTE	W06
	BYTE		        Gs3 
	BYTE	W06
	BYTE		        Fn3 
	BYTE	W06
	BYTE		        Ds3 
	BYTE	W06
	BYTE		        Fn3 
	BYTE	W06
	BYTE		        Gs3 
	BYTE	W06
	BYTE		        As3 
	BYTE	W06
	BYTE		        Ds4 
	BYTE	W06
	BYTE		        As3 
	BYTE	W06
	BYTE		        Ds4 
	BYTE	W06
	BYTE		        As3 
	BYTE	W06
	BYTE		        Gs3 
	BYTE	W06
	BYTE		        As3 
	BYTE	W06
	BYTE		        Ds4 
	BYTE	W06
	BYTE		        As3 
	BYTE	W06
	BYTE		        Gs3 
	BYTE	W06
	BYTE		        As3 
	BYTE	W06
	BYTE		        Gs3 
	BYTE	W06
	BYTE		        Ds4 
	BYTE	W06
	BYTE		        Gs3 
	BYTE	W06
// 037   ----------------------------------------
	BYTE	W96
	BYTE	W48
// 038   ----------------------------------------
	BYTE	W96
	BYTE	W48
// 039   ----------------------------------------
	BYTE	W96
	BYTE	W48
// 040   ----------------------------------------
	BYTE	W96
	BYTE	W48
// 041   ----------------------------------------
	BYTE		N72     Dn2   v100
	BYTE	W72
	BYTE		        Fs2 
	BYTE	W72
// 042   ----------------------------------------
	BYTE		        Cs2 
	BYTE	W72
	BYTE		        Bn1 
	BYTE	W72
// 043   ----------------------------------------
	BYTE		        An2 
	BYTE	W72
	BYTE		        Fs2 
	BYTE	W72
// 044   ----------------------------------------
	BYTE		TIE     Gs2 
	BYTE	W96
	BYTE	W48
	BYTE		EOT   
// 045   ----------------------------------------
	BYTE		N96     As2 
	BYTE	W96
	BYTE		N24     Bn2 
	BYTE	W24
	BYTE		        Cs3 
	BYTE	W24
// 046   ----------------------------------------
	BYTE	W96
// 047   ----------------------------------------
	BYTE	W96
// 048   ----------------------------------------
	BYTE	W96
// 049   ----------------------------------------
	BYTE	W96
// 050   ----------------------------------------
	BYTE	W96
// 051   ----------------------------------------
	BYTE	W96
// 052   ----------------------------------------
	BYTE	W96
// 053   ----------------------------------------
	BYTE	W96
// 054   ----------------------------------------
	BYTE	W96
// 055   ----------------------------------------
	BYTE	W96
// 056   ----------------------------------------
	BYTE	W96
// 057   ----------------------------------------
	BYTE	W96
// 058   ----------------------------------------
	BYTE	W96
// 059   ----------------------------------------
	BYTE	W96
// 060   ----------------------------------------
	BYTE	W96
// 061   ----------------------------------------
	BYTE	W96
// 062   ----------------------------------------
	BYTE	W96
// 063   ----------------------------------------
	BYTE	W96
// 064   ----------------------------------------
	BYTE	W96
// 065   ----------------------------------------
	BYTE	W96
// 066   ----------------------------------------
	BYTE	W96
// 067   ----------------------------------------
	BYTE	W96
// 068   ----------------------------------------
	BYTE	W96
// 069   ----------------------------------------
	BYTE	W96
// 070   ----------------------------------------
	BYTE	W96
// 071   ----------------------------------------
	BYTE	W96
// 072   ----------------------------------------
	BYTE	W96
// 073   ----------------------------------------
	BYTE	W96
// 074   ----------------------------------------
	BYTE	W96
// 075   ----------------------------------------
	BYTE	W96
// 076   ----------------------------------------
	BYTE	W96
// 077   ----------------------------------------
	BYTE	W96
// 078   ----------------------------------------
	BYTE	W96
// 079   ----------------------------------------
	BYTE	W96
// 080   ----------------------------------------
	BYTE	W96
// 081   ----------------------------------------
	BYTE	W96
// 082   ----------------------------------------
	BYTE	W96
// 083   ----------------------------------------
	BYTE	W96
// 084   ----------------------------------------
	BYTE	W96
// 085   ----------------------------------------
	BYTE	W96
// 086   ----------------------------------------
	BYTE	W96
	BYTE	W48
// 087   ----------------------------------------
	BYTE	W96
	BYTE	W48
// 088   ----------------------------------------
	BYTE	W96
	BYTE	W48
// 089   ----------------------------------------
	BYTE	W96
	BYTE	W48
// 090   ----------------------------------------
	BYTE	W96
	BYTE	W48
	BYTE	GoTo
	 POIN2	id_purpose_gba_7_B1
id_purpose_gba_7_B2:
// 091   ----------------------------------------
	BYTE	W96
	BYTE	W48
// 092   ----------------------------------------
	BYTE	W96
	BYTE	W48
// 093   ----------------------------------------
	BYTE	W96
	BYTE	W48
// 094   ----------------------------------------
	BYTE	W96
	BYTE	W48
// 095   ----------------------------------------
	BYTE	W96
	BYTE	W48
// 096   ----------------------------------------
	BYTE	W96
	BYTE	W48
// 097   ----------------------------------------
	BYTE	W96
	BYTE	W48
// 098   ----------------------------------------
	BYTE	W96
	BYTE	W36
	BYTE	W01
	BYTE	FINE

//**************** Track 8 (Midi-Chn.8) ****************//

id_purpose_gba_8:
	BYTE		VOL     127*id_purpose_gba_mvl/mxv
	BYTE	KEYSH   id_purpose_gba_key+0
// 000   ----------------------------------------
	BYTE		VOICE   122
	BYTE	W24
// 001   ----------------------------------------
	BYTE	W24
// 002   ----------------------------------------
	BYTE	W24
id_purpose_gba_8_B1:
// 003   ----------------------------------------
id_purpose_gba_8_003:
	BYTE		N01     En1   v072
	BYTE		N01     Gn2   v100
	BYTE	W06
	BYTE		        En1   v052
	BYTE	W06
	BYTE		N01   
	BYTE	W06
	BYTE		        En1   v100
	BYTE	W12
	BYTE		        En1   v052
	BYTE	W06
	BYTE		        En1   v040
	BYTE	W06
	BYTE		        En1   v060
	BYTE	W06
	BYTE		        En1   v072
	BYTE	W06
	BYTE		N01   
	BYTE	W06
	BYTE		N01   
	BYTE	W12
	BYTE		N01   
	BYTE	W06
	BYTE		        En1   v052
	BYTE	W06
	BYTE		N01   
	BYTE	W06
	BYTE		        En1   v100
	BYTE	W12
	BYTE		        En1   v052
	BYTE	W06
	BYTE		        En1   v040
	BYTE	W06
	BYTE		        En1   v060
	BYTE	W06
	BYTE		        En1   v072
	BYTE	W06
	BYTE		N01   
	BYTE	W06
	BYTE		N01   
	BYTE	W12
	BYTE	PEND
// 004   ----------------------------------------
id_purpose_gba_8_004:
	BYTE		N01     En1   v072
	BYTE	W06
	BYTE		        En1   v052
	BYTE	W06
	BYTE		N01   
	BYTE	W06
	BYTE		        En1   v100
	BYTE	W12
	BYTE		        En1   v052
	BYTE	W06
	BYTE		        En1   v040
	BYTE	W06
	BYTE		        En1   v060
	BYTE	W06
	BYTE		        En1   v072
	BYTE	W06
	BYTE		N01   
	BYTE	W06
	BYTE		N01   
	BYTE	W12
	BYTE		N01   
	BYTE	W06
	BYTE		        En1   v052
	BYTE	W06
	BYTE		N01   
	BYTE	W06
	BYTE		        En1   v100
	BYTE	W12
	BYTE		        En1   v052
	BYTE	W06
	BYTE		        En1   v040
	BYTE	W06
	BYTE		        En1   v060
	BYTE	W06
	BYTE		        En1   v072
	BYTE	W06
	BYTE		N01   
	BYTE	W06
	BYTE		N01   
	BYTE	W12
	BYTE	PEND
// 005   ----------------------------------------
	BYTE	PATT
	 POIN2	id_purpose_gba_8_004
// 006   ----------------------------------------
	BYTE	PATT
	 POIN2	id_purpose_gba_8_004
// 007   ----------------------------------------
	BYTE	PATT
	 POIN2	id_purpose_gba_8_004
// 008   ----------------------------------------
	BYTE	PATT
	 POIN2	id_purpose_gba_8_004
// 009   ----------------------------------------
	BYTE	PATT
	 POIN2	id_purpose_gba_8_004
// 010   ----------------------------------------
	BYTE	PATT
	 POIN2	id_purpose_gba_8_004
// 011   ----------------------------------------
	BYTE	PATT
	 POIN2	id_purpose_gba_8_003
// 012   ----------------------------------------
	BYTE	PATT
	 POIN2	id_purpose_gba_8_004
// 013   ----------------------------------------
	BYTE	PATT
	 POIN2	id_purpose_gba_8_004
// 014   ----------------------------------------
	BYTE	PATT
	 POIN2	id_purpose_gba_8_004
// 015   ----------------------------------------
	BYTE	PATT
	 POIN2	id_purpose_gba_8_003
// 016   ----------------------------------------
	BYTE	PATT
	 POIN2	id_purpose_gba_8_004
// 017   ----------------------------------------
	BYTE	PATT
	 POIN2	id_purpose_gba_8_004
// 018   ----------------------------------------
id_purpose_gba_8_018:
	BYTE		N01     En1   v072
	BYTE		N72     Cs2   v100
	BYTE		N72     Gn2 
	BYTE	W06
	BYTE		N01     En1   v052
	BYTE	W06
	BYTE		N01   
	BYTE	W06
	BYTE		        En1   v100
	BYTE	W12
	BYTE		        En1   v052
	BYTE	W06
	BYTE		        En1   v040
	BYTE	W06
	BYTE		        En1   v060
	BYTE	W06
	BYTE		        En1   v072
	BYTE	W06
	BYTE		N01   
	BYTE	W06
	BYTE		N01   
	BYTE	W12
	BYTE		N01   
	BYTE	W06
	BYTE		        En1   v052
	BYTE	W06
	BYTE		N01   
	BYTE	W06
	BYTE		        En1   v100
	BYTE	W12
	BYTE		        En1   v052
	BYTE	W06
	BYTE		        En1   v040
	BYTE	W06
	BYTE		        En1   v060
	BYTE	W06
	BYTE		        En1   v072
	BYTE	W06
	BYTE		N01   
	BYTE	W06
	BYTE		N01   
	BYTE	W12
	BYTE	PEND
// 019   ----------------------------------------
id_purpose_gba_8_019:
	BYTE		N01     En1   v060
	BYTE	W06
	BYTE		        En1   v040
	BYTE	W06
	BYTE		N01   
	BYTE	W06
	BYTE		        En1   v092
	BYTE	W12
	BYTE		        En1   v040
	BYTE	W06
	BYTE		        En1   v032
	BYTE	W06
	BYTE		        En1   v052
	BYTE	W06
	BYTE		        En1   v060
	BYTE	W06
	BYTE		N01   
	BYTE	W06
	BYTE		N01   
	BYTE	W12
	BYTE		N01   
	BYTE	W06
	BYTE		        En1   v040
	BYTE	W06
	BYTE		N01   
	BYTE	W06
	BYTE		        En1   v092
	BYTE	W12
	BYTE		        En1   v040
	BYTE	W06
	BYTE		        En1   v032
	BYTE	W06
	BYTE		        En1   v052
	BYTE	W06
	BYTE		        En1   v060
	BYTE	W06
	BYTE		N01   
	BYTE	W06
	BYTE		N01   
	BYTE	W12
	BYTE	PEND
// 020   ----------------------------------------
	BYTE	PATT
	 POIN2	id_purpose_gba_8_019
// 021   ----------------------------------------
	BYTE	PATT
	 POIN2	id_purpose_gba_8_019
// 022   ----------------------------------------
	BYTE		N01     En1   v060
	BYTE	W06
	BYTE		        En1   v040
	BYTE	W06
	BYTE		N01   
	BYTE	W06
	BYTE		        En1   v092
	BYTE	W12
	BYTE		        En1   v040
	BYTE	W06
	BYTE		        En1   v032
	BYTE	W06
	BYTE		        En1   v052
	BYTE	W06
	BYTE		        En1   v060
	BYTE	W06
	BYTE		N01   
	BYTE	W06
	BYTE		N01   
	BYTE	W12
	BYTE		N01   
	BYTE		N01     An2   v080
	BYTE	W06
	BYTE		        En1   v040
	BYTE	W06
	BYTE		N01   
	BYTE	W06
	BYTE		        En1   v092
	BYTE	W12
	BYTE		        En1   v040
	BYTE	W06
	BYTE		        En1   v032
	BYTE	W06
	BYTE		        En1   v052
	BYTE	W06
	BYTE		        En1   v060
	BYTE	W06
	BYTE		N01   
	BYTE	W06
	BYTE		N01   
	BYTE	W12
// 023   ----------------------------------------
	BYTE	PATT
	 POIN2	id_purpose_gba_8_019
// 024   ----------------------------------------
	BYTE	PATT
	 POIN2	id_purpose_gba_8_019
// 025   ----------------------------------------
	BYTE	PATT
	 POIN2	id_purpose_gba_8_019
// 026   ----------------------------------------
	BYTE	PATT
	 POIN2	id_purpose_gba_8_019
// 027   ----------------------------------------
	BYTE		N01     En1   v060
	BYTE		N72     Cs2   v100
	BYTE		N72     Gn2 
	BYTE	W06
	BYTE		N01     En1   v040
	BYTE	W06
	BYTE		N01   
	BYTE	W06
	BYTE		        En1   v092
	BYTE	W12
	BYTE		        En1   v040
	BYTE	W06
	BYTE		        En1   v032
	BYTE	W06
	BYTE		        En1   v052
	BYTE	W06
	BYTE		        En1   v060
	BYTE	W06
	BYTE		N01   
	BYTE	W06
	BYTE		N01   
	BYTE	W12
	BYTE		N01   
	BYTE	W06
	BYTE		        En1   v040
	BYTE	W06
	BYTE		N01   
	BYTE	W06
	BYTE		        En1   v092
	BYTE	W12
	BYTE		        En1   v040
	BYTE	W06
	BYTE		        En1   v032
	BYTE	W06
	BYTE		        En1   v052
	BYTE	W06
	BYTE		        En1   v060
	BYTE	W06
	BYTE		N01   
	BYTE	W06
	BYTE		N01   
	BYTE	W12
// 028   ----------------------------------------
	BYTE	PATT
	 POIN2	id_purpose_gba_8_003
// 029   ----------------------------------------
	BYTE	PATT
	 POIN2	id_purpose_gba_8_004
// 030   ----------------------------------------
	BYTE	PATT
	 POIN2	id_purpose_gba_8_004
// 031   ----------------------------------------
	BYTE	PATT
	 POIN2	id_purpose_gba_8_004
// 032   ----------------------------------------
	BYTE	PATT
	 POIN2	id_purpose_gba_8_003
// 033   ----------------------------------------
	BYTE	PATT
	 POIN2	id_purpose_gba_8_004
// 034   ----------------------------------------
	BYTE	PATT
	 POIN2	id_purpose_gba_8_004
// 035   ----------------------------------------
	BYTE	PATT
	 POIN2	id_purpose_gba_8_018
// 036   ----------------------------------------
	BYTE	PATT
	 POIN2	id_purpose_gba_8_004
// 037   ----------------------------------------
	BYTE		N01     En1   v040
	BYTE		N01     En2   v060
	BYTE	W06
	BYTE		        En1   v040
	BYTE	W06
	BYTE		N01   
	BYTE	W06
	BYTE		        En1   v052
	BYTE	W12
	BYTE		        En1   v040
	BYTE	W12
	BYTE		N01   
	BYTE	W06
	BYTE		        En1   v052
	BYTE	W06
	BYTE		N01   
	BYTE	W06
	BYTE		N01   
	BYTE	W12
	BYTE		        En1   v040
	BYTE	W06
	BYTE		N01   
	BYTE	W06
	BYTE		N01   
	BYTE	W06
	BYTE		        En1   v052
	BYTE	W12
	BYTE		        En1   v040
	BYTE	W12
	BYTE		N01   
	BYTE	W06
	BYTE		        En1   v052
	BYTE	W06
	BYTE		N01   
	BYTE	W06
	BYTE		N01   
	BYTE	W12
// 038   ----------------------------------------
id_purpose_gba_8_038:
	BYTE		N01     En1   v040
	BYTE	W06
	BYTE		N01   
	BYTE	W06
	BYTE		N01   
	BYTE	W06
	BYTE		        En1   v052
	BYTE	W12
	BYTE		        En1   v040
	BYTE	W12
	BYTE		N01   
	BYTE	W06
	BYTE		        En1   v052
	BYTE	W06
	BYTE		N01   
	BYTE	W06
	BYTE		N01   
	BYTE	W12
	BYTE		        En1   v040
	BYTE	W06
	BYTE		N01   
	BYTE	W06
	BYTE		N01   
	BYTE	W06
	BYTE		        En1   v052
	BYTE	W12
	BYTE		        En1   v040
	BYTE	W12
	BYTE		N01   
	BYTE	W06
	BYTE		        En1   v052
	BYTE	W06
	BYTE		N01   
	BYTE	W06
	BYTE		N01   
	BYTE	W12
	BYTE	PEND
// 039   ----------------------------------------
	BYTE	PATT
	 POIN2	id_purpose_gba_8_038
// 040   ----------------------------------------
	BYTE	PATT
	 POIN2	id_purpose_gba_8_038
// 041   ----------------------------------------
	BYTE		N01     En1   v072
	BYTE		N01     Cs2   v088
	BYTE		N01     An2 
	BYTE	W06
	BYTE		        En1   v052
	BYTE	W06
	BYTE		N01   
	BYTE	W06
	BYTE		        En1   v100
	BYTE	W12
	BYTE		        En1   v052
	BYTE	W06
	BYTE		        En1   v040
	BYTE	W06
	BYTE		        En1   v060
	BYTE	W06
	BYTE		        En1   v072
	BYTE	W06
	BYTE		N01   
	BYTE	W06
	BYTE		N01   
	BYTE	W12
	BYTE		N01   
	BYTE	W06
	BYTE		        En1   v052
	BYTE	W06
	BYTE		N01   
	BYTE	W06
	BYTE		        En1   v100
	BYTE	W12
	BYTE		        En1   v052
	BYTE	W06
	BYTE		        En1   v040
	BYTE	W06
	BYTE		        En1   v060
	BYTE	W06
	BYTE		        En1   v072
	BYTE	W06
	BYTE		N01   
	BYTE	W06
	BYTE		N01   
	BYTE	W12
// 042   ----------------------------------------
	BYTE	PATT
	 POIN2	id_purpose_gba_8_004
// 043   ----------------------------------------
	BYTE	PATT
	 POIN2	id_purpose_gba_8_004
// 044   ----------------------------------------
	BYTE		N01     En1   v072
	BYTE		TIE     Cs2   v100
	BYTE		TIE     Gn2 
	BYTE	W06
	BYTE		N01     En1   v052
	BYTE	W06
	BYTE		N01   
	BYTE	W06
	BYTE		        En1   v100
	BYTE	W12
	BYTE		        En1   v052
	BYTE	W06
	BYTE		        En1   v040
	BYTE	W06
	BYTE		        En1   v060
	BYTE	W06
	BYTE		        En1   v072
	BYTE	W06
	BYTE		N01   
	BYTE	W06
	BYTE		N01   
	BYTE	W12
	BYTE		N01   
	BYTE	W06
	BYTE		        En1   v052
	BYTE	W06
	BYTE		N01   
	BYTE	W06
	BYTE		        En1   v100
	BYTE	W12
	BYTE		        En1   v052
	BYTE	W06
	BYTE		        En1   v040
	BYTE	W06
	BYTE		        En1   v060
	BYTE	W06
	BYTE		        En1   v072
	BYTE	W06
	BYTE		N01   
	BYTE	W06
	BYTE		N01   
	BYTE	W12
	BYTE		EOT     Cs2 
	BYTE		        Gn2 
// 045   ----------------------------------------
	BYTE		N01     En1 
	BYTE		N72     Cs2   v100
	BYTE		N72     Gn2 
	BYTE	W06
	BYTE		N01     En1   v052
	BYTE	W06
	BYTE		N01   
	BYTE	W06
	BYTE		        En1   v100
	BYTE	W12
	BYTE		        En1   v052
	BYTE	W06
	BYTE		        En1   v040
	BYTE	W06
	BYTE		        En1   v060
	BYTE	W06
	BYTE		        En1   v072
	BYTE	W06
	BYTE		N01   
	BYTE	W06
	BYTE		N01   
	BYTE	W12
	BYTE		N01   
	BYTE	W06
	BYTE		        En1   v052
	BYTE	W06
	BYTE		N01   
	BYTE	W06
	BYTE		        En1   v092
	BYTE	W06
	BYTE		        En1   v072
	BYTE	W06
	BYTE		        En1   v052
	BYTE	W06
	BYTE		N01   
	BYTE	W06
	BYTE		        En1   v092
	BYTE	W06
	BYTE		        En1   v072
	BYTE	W06
	BYTE		        En1   v052
	BYTE	W06
	BYTE		N01   
	BYTE	W06
	BYTE		        En1   v092
	BYTE	W06
// 046   ----------------------------------------
	BYTE	W96
// 047   ----------------------------------------
	BYTE	W96
// 048   ----------------------------------------
	BYTE	W96
// 049   ----------------------------------------
	BYTE	W96
// 050   ----------------------------------------
	BYTE	W96
// 051   ----------------------------------------
	BYTE	W96
// 052   ----------------------------------------
	BYTE	W96
// 053   ----------------------------------------
	BYTE	W96
// 054   ----------------------------------------
	BYTE		N01   
	BYTE		N01     En2   v060
	BYTE	W24
	BYTE		        En1 
	BYTE	W08
	BYTE		N01   
	BYTE	W08
	BYTE		        En1   v080
	BYTE	W08
	BYTE		        En1   v092
	BYTE	W24
	BYTE		        En1   v060
	BYTE	W08
	BYTE		N01   
	BYTE	W08
	BYTE		        En1   v080
	BYTE	W08
// 055   ----------------------------------------
id_purpose_gba_8_055:
	BYTE		N01     En1   v092
	BYTE	W24
	BYTE		        En1   v060
	BYTE	W08
	BYTE		N01   
	BYTE	W08
	BYTE		        En1   v080
	BYTE	W08
	BYTE		        En1   v092
	BYTE	W24
	BYTE		        En1   v060
	BYTE	W03
	BYTE		N01   
	BYTE	W03
	BYTE		N01   
	BYTE	W03
	BYTE		N01   
	BYTE	W03
	BYTE		N01   
	BYTE	W03
	BYTE		N01   
	BYTE	W03
	BYTE		N01   
	BYTE	W03
	BYTE		N01   
	BYTE	W03
	BYTE	PEND
// 056   ----------------------------------------
	BYTE		        En1   v092
	BYTE	W24
	BYTE		        En1   v060
	BYTE	W08
	BYTE		N01   
	BYTE	W08
	BYTE		        En1   v080
	BYTE	W08
	BYTE		        En1   v092
	BYTE	W24
	BYTE		        En1   v080
	BYTE	W06
	BYTE		        En1   v092
	BYTE	W12
	BYTE		        En1   v060
	BYTE	W06
// 057   ----------------------------------------
	BYTE	PATT
	 POIN2	id_purpose_gba_8_055
// 058   ----------------------------------------
id_purpose_gba_8_058:
	BYTE		N01     En1   v092
	BYTE	W24
	BYTE		        En1   v060
	BYTE	W08
	BYTE		N01   
	BYTE	W08
	BYTE		        En1   v080
	BYTE	W08
	BYTE		        En1   v092
	BYTE	W24
	BYTE		        En1   v060
	BYTE	W08
	BYTE		N01   
	BYTE	W08
	BYTE		        En1   v080
	BYTE	W08
	BYTE	PEND
// 059   ----------------------------------------
	BYTE	PATT
	 POIN2	id_purpose_gba_8_055
// 060   ----------------------------------------
	BYTE	PATT
	 POIN2	id_purpose_gba_8_058
// 061   ----------------------------------------
	BYTE	PATT
	 POIN2	id_purpose_gba_8_055
// 062   ----------------------------------------
id_purpose_gba_8_062:
	BYTE		N01     En1   v092
	BYTE		N01     Fn1   v100
	BYTE		N01     Gn2 
	BYTE		N01     An2 
	BYTE	W24
	BYTE		        En1   v060
	BYTE	W08
	BYTE		N01   
	BYTE	W08
	BYTE		        En1   v080
	BYTE	W08
	BYTE		        En1   v092
	BYTE	W24
	BYTE		        En1   v060
	BYTE	W08
	BYTE		N01   
	BYTE	W08
	BYTE		        En1   v080
	BYTE	W08
	BYTE	PEND
// 063   ----------------------------------------
id_purpose_gba_8_063:
	BYTE		N01     En1   v092
	BYTE		N01     Fn1   v100
	BYTE	W24
	BYTE		        En1   v060
	BYTE	W08
	BYTE		N01   
	BYTE	W08
	BYTE		        En1   v080
	BYTE	W08
	BYTE		        En1   v092
	BYTE	W24
	BYTE		        En1   v060
	BYTE	W03
	BYTE		N01   
	BYTE	W03
	BYTE		N01   
	BYTE	W03
	BYTE		N01   
	BYTE	W03
	BYTE		N01   
	BYTE	W03
	BYTE		N01   
	BYTE	W03
	BYTE		N01   
	BYTE	W03
	BYTE		N01   
	BYTE	W03
	BYTE	PEND
// 064   ----------------------------------------
id_purpose_gba_8_064:
	BYTE		N01     En1   v092
	BYTE		N01     Fn1   v100
	BYTE	W24
	BYTE		        En1   v060
	BYTE	W08
	BYTE		N01   
	BYTE	W08
	BYTE		        En1   v080
	BYTE	W08
	BYTE		        En1   v092
	BYTE	W24
	BYTE		        En1   v080
	BYTE	W06
	BYTE		        En1   v092
	BYTE	W12
	BYTE		        En1   v060
	BYTE	W06
	BYTE	PEND
// 065   ----------------------------------------
	BYTE	PATT
	 POIN2	id_purpose_gba_8_063
// 066   ----------------------------------------
id_purpose_gba_8_066:
	BYTE		N01     En1   v092
	BYTE		N01     Fn1   v100
	BYTE	W24
	BYTE		        En1   v060
	BYTE	W08
	BYTE		N01   
	BYTE	W08
	BYTE		        En1   v080
	BYTE	W08
	BYTE		        En1   v092
	BYTE	W24
	BYTE		        En1   v060
	BYTE	W08
	BYTE		N01   
	BYTE	W08
	BYTE		        En1   v080
	BYTE	W08
	BYTE	PEND
// 067   ----------------------------------------
	BYTE	PATT
	 POIN2	id_purpose_gba_8_063
// 068   ----------------------------------------
	BYTE	PATT
	 POIN2	id_purpose_gba_8_066
// 069   ----------------------------------------
	BYTE	PATT
	 POIN2	id_purpose_gba_8_063
// 070   ----------------------------------------
	BYTE	PATT
	 POIN2	id_purpose_gba_8_062
// 071   ----------------------------------------
	BYTE	PATT
	 POIN2	id_purpose_gba_8_063
// 072   ----------------------------------------
	BYTE	PATT
	 POIN2	id_purpose_gba_8_064
// 073   ----------------------------------------
	BYTE	PATT
	 POIN2	id_purpose_gba_8_063
// 074   ----------------------------------------
	BYTE		N01     En1   v092
	BYTE		N01     Fn1   v100
	BYTE		N01     En2   v060
	BYTE	W24
	BYTE		        En1 
	BYTE	W08
	BYTE		N01   
	BYTE	W08
	BYTE		        En1   v080
	BYTE	W08
	BYTE		        En1   v092
	BYTE	W24
	BYTE		        En1   v060
	BYTE	W08
	BYTE		N01   
	BYTE	W08
	BYTE		        En1   v080
	BYTE	W08
// 075   ----------------------------------------
	BYTE	PATT
	 POIN2	id_purpose_gba_8_063
// 076   ----------------------------------------
	BYTE	PATT
	 POIN2	id_purpose_gba_8_066
// 077   ----------------------------------------
	BYTE	PATT
	 POIN2	id_purpose_gba_8_063
// 078   ----------------------------------------
	BYTE		N01     En1   v092
	BYTE		N01     Fn1   v100
	BYTE		N01     En2   v060
	BYTE		N01     Gn2   v100
	BYTE		N01     An2 
	BYTE	W24
	BYTE		        En1   v060
	BYTE	W08
	BYTE		N01   
	BYTE	W08
	BYTE		        En1   v080
	BYTE	W08
	BYTE		        En1   v092
	BYTE	W24
	BYTE		        En1   v060
	BYTE	W08
	BYTE		N01   
	BYTE	W08
	BYTE		        En1   v080
	BYTE	W08
// 079   ----------------------------------------
	BYTE	PATT
	 POIN2	id_purpose_gba_8_063
// 080   ----------------------------------------
	BYTE	PATT
	 POIN2	id_purpose_gba_8_064
// 081   ----------------------------------------
	BYTE	PATT
	 POIN2	id_purpose_gba_8_063
// 082   ----------------------------------------
	BYTE	PATT
	 POIN2	id_purpose_gba_8_066
// 083   ----------------------------------------
	BYTE	PATT
	 POIN2	id_purpose_gba_8_063
// 084   ----------------------------------------
	BYTE	PATT
	 POIN2	id_purpose_gba_8_066
// 085   ----------------------------------------
	BYTE		N01     En1   v092
	BYTE		N01     Fn1   v100
	BYTE		N01     Gn2 
	BYTE		N01     An2 
	BYTE	W24
	BYTE		        En1   v060
	BYTE	W08
	BYTE		N01   
	BYTE	W08
	BYTE		        En1   v080
	BYTE	W08
	BYTE		        En1   v092
	BYTE	W24
	BYTE		N01   
	BYTE	W24
// 086   ----------------------------------------
	BYTE		        En1   v072
	BYTE		N01     Cs2   v080
	BYTE	W06
	BYTE		        En1   v052
	BYTE	W06
	BYTE		N01   
	BYTE	W06
	BYTE		        En1   v100
	BYTE	W12
	BYTE		        En1   v052
	BYTE	W06
	BYTE		        En1   v040
	BYTE	W06
	BYTE		        En1   v060
	BYTE	W06
	BYTE		        En1   v072
	BYTE	W06
	BYTE		N01   
	BYTE	W06
	BYTE		N01   
	BYTE	W12
	BYTE		N01   
	BYTE	W06
	BYTE		        En1   v052
	BYTE	W06
	BYTE		N01   
	BYTE	W06
	BYTE		        En1   v100
	BYTE	W12
	BYTE		        En1   v052
	BYTE	W06
	BYTE		        En1   v040
	BYTE	W06
	BYTE		        En1   v060
	BYTE	W06
	BYTE		        En1   v072
	BYTE	W06
	BYTE		N01   
	BYTE	W06
	BYTE		N01   
	BYTE	W12
// 087   ----------------------------------------
	BYTE	PATT
	 POIN2	id_purpose_gba_8_004
// 088   ----------------------------------------
	BYTE	PATT
	 POIN2	id_purpose_gba_8_004
// 089   ----------------------------------------
	BYTE	PATT
	 POIN2	id_purpose_gba_8_004
// 090   ----------------------------------------
	BYTE	PATT
	 POIN2	id_purpose_gba_8_004
	BYTE	GoTo
	 POIN2	id_purpose_gba_8_B1
id_purpose_gba_8_B2:
// 091   ----------------------------------------
	BYTE	PATT
	 POIN2	id_purpose_gba_8_003
// 092   ----------------------------------------
	BYTE	PATT
	 POIN2	id_purpose_gba_8_004
// 093   ----------------------------------------
	BYTE	PATT
	 POIN2	id_purpose_gba_8_004
// 094   ----------------------------------------
	BYTE	PATT
	 POIN2	id_purpose_gba_8_004
// 095   ----------------------------------------
	BYTE	PATT
	 POIN2	id_purpose_gba_8_004
// 096   ----------------------------------------
	BYTE		N01     En1   v072
	BYTE	W03
	BYTE	W03
	BYTE		        En1   v052
	BYTE	W01
	BYTE	W03
	BYTE	W02
	BYTE		N01   
	BYTE	W03
	BYTE	W01
	BYTE	W02
	BYTE		        En1   v100
	BYTE	W01
	BYTE	W02
	BYTE	W03
	BYTE	W01
	BYTE	W03
	BYTE	W02
	BYTE		        En1   v052
	BYTE	W03
	BYTE	W01
	BYTE	W02
	BYTE		        En1   v040
	BYTE	W01
	BYTE	W02
	BYTE	W03
	BYTE		        En1   v060
	BYTE	W01
	BYTE	W03
	BYTE	W02
	BYTE		        En1   v072
	BYTE	W03
	BYTE	W01
	BYTE	W02
	BYTE		N01   
	BYTE	W01
	BYTE	W02
	BYTE	W03
	BYTE		N01   
	BYTE	W01
	BYTE	W03
	BYTE	W02
	BYTE	W03
	BYTE	W01
	BYTE	W02
	BYTE		N01   
	BYTE	W01
	BYTE	W02
	BYTE	W03
	BYTE		        En1   v052
	BYTE	W01
	BYTE	W03
	BYTE	W02
	BYTE		N01   
	BYTE	W03
	BYTE	W01
	BYTE	W02
	BYTE		        En1   v100
	BYTE	W01
	BYTE	W02
	BYTE	W03
	BYTE	W01
	BYTE	W03
	BYTE	W02
	BYTE		        En1   v052
	BYTE	W03
	BYTE	W01
	BYTE	W02
	BYTE		        En1   v040
	BYTE	W01
	BYTE	W02
	BYTE	W03
	BYTE		        En1   v060
	BYTE	W01
	BYTE	W03
	BYTE	W02
	BYTE		        En1   v072
	BYTE	W03
	BYTE	W01
	BYTE	W02
	BYTE		N01   
	BYTE	W01
	BYTE	W02
	BYTE	W03
	BYTE		N01   
	BYTE	W01
	BYTE	W03
	BYTE	W02
	BYTE	W03
	BYTE	W01
	BYTE	W02
// 097   ----------------------------------------
	BYTE		N01   
	BYTE	W01
	BYTE	W02
	BYTE	W03
	BYTE		        En1   v052
	BYTE	W01
	BYTE	W03
	BYTE	W02
	BYTE		N01   
	BYTE	W03
	BYTE	W01
	BYTE	W02
	BYTE		        En1   v100
	BYTE	W01
	BYTE	W02
	BYTE	W03
	BYTE	W01
	BYTE	W03
	BYTE	W02
	BYTE		        En1   v052
	BYTE	W03
	BYTE	W01
	BYTE	W02
	BYTE		        En1   v040
	BYTE	W01
	BYTE	W02
	BYTE	W03
	BYTE		        En1   v060
	BYTE	W01
	BYTE	W03
	BYTE	W02
	BYTE		        En1   v072
	BYTE	W03
	BYTE	W01
	BYTE	W02
	BYTE		N01   
	BYTE	W01
	BYTE	W02
	BYTE	W03
	BYTE		N01   
	BYTE	W01
	BYTE	W03
	BYTE	W02
	BYTE	W03
	BYTE	W01
	BYTE	W02
	BYTE		N01   
	BYTE	W01
	BYTE	W02
	BYTE	W03
	BYTE		        En1   v052
	BYTE	W01
	BYTE	W03
	BYTE	W02
	BYTE		N01   
	BYTE	W03
	BYTE	W01
	BYTE	W02
	BYTE		        En1   v100
	BYTE	W01
	BYTE	W02
	BYTE	W03
	BYTE	W01
	BYTE	W03
	BYTE	W02
	BYTE		        En1   v052
	BYTE	W03
	BYTE	W01
	BYTE	W02
	BYTE		        En1   v040
	BYTE	W01
	BYTE	W02
	BYTE	W03
	BYTE		        En1   v060
	BYTE	W01
	BYTE	W03
	BYTE	W02
	BYTE		        En1   v072
	BYTE	W03
	BYTE	W01
	BYTE	W02
	BYTE		N01   
	BYTE	W01
	BYTE	W02
	BYTE	W03
	BYTE		N01   
	BYTE	W01
	BYTE	W03
	BYTE	W02
	BYTE	W03
	BYTE	W01
	BYTE	W02
// 098   ----------------------------------------
	BYTE		N01   
	BYTE	W06
	BYTE		        En1   v052
	BYTE	W06
	BYTE		N01   
	BYTE	W06
	BYTE		        En1   v100
	BYTE	W12
	BYTE		        En1   v052
	BYTE	W06
	BYTE		        En1   v040
	BYTE	W06
	BYTE		        En1   v060
	BYTE	W06
	BYTE		        En1   v072
	BYTE	W06
	BYTE		N01   
	BYTE	W06
	BYTE		N01   
	BYTE	W12
	BYTE		N01   
	BYTE	W06
	BYTE		        En1   v052
	BYTE	W06
	BYTE		N01   
	BYTE	W06
	BYTE		        En1   v100
	BYTE	W32
	BYTE	W01
	BYTE	W10
	BYTE	FINE

//**************** Track 9 (Midi-Chn.9) ****************//

id_purpose_gba_9:
	BYTE		VOL     127*id_purpose_gba_mvl/mxv
	BYTE	KEYSH   id_purpose_gba_key+0
// 000   ----------------------------------------
	BYTE		VOICE   60
	BYTE	W24
// 001   ----------------------------------------
	BYTE	W24
// 002   ----------------------------------------
	BYTE	W24
id_purpose_gba_9_B1:
// 003   ----------------------------------------
id_purpose_gba_9_003:
	BYTE		N48     As2   v100
	BYTE	W48
	BYTE		N24     Fn2 
	BYTE	W24
	BYTE		N72     Ds3 
	BYTE	W72
	BYTE	PEND
// 004   ----------------------------------------
id_purpose_gba_9_004:
	BYTE		N48     As2   v100
	BYTE	W48
	BYTE		N24     Cn3 
	BYTE	W24
	BYTE		N18     An2 
	BYTE	W18
	BYTE		N06     Gn2 
	BYTE	W06
	BYTE		N48     Fn2 
	BYTE	W48
	BYTE	PEND
// 005   ----------------------------------------
id_purpose_gba_9_005:
	BYTE		N48     Fn3   v100
	BYTE	W48
	BYTE		N12     As2 
	BYTE	W12
	BYTE		        Dn3 
	BYTE	W12
	BYTE		N24   
	BYTE	W24
	BYTE		        Cn3 
	BYTE	W24
	BYTE		        As2 
	BYTE	W24
	BYTE	PEND
// 006   ----------------------------------------
id_purpose_gba_9_006:
	BYTE		N24     As2   v100
	BYTE	W24
	BYTE		        Fn2 
	BYTE	W24
	BYTE		        As2 
	BYTE	W24
	BYTE		N18     An2 
	BYTE	W18
	BYTE		N06     As2 
	BYTE	W06
	BYTE		N36     Cn3 
	BYTE	W36
	BYTE		N12     An2 
	BYTE	W12
	BYTE	PEND
// 007   ----------------------------------------
id_purpose_gba_9_007:
	BYTE		N18     As2   v100
	BYTE	W18
	BYTE		N06     An2 
	BYTE	W06
	BYTE		N24     Gn2 
	BYTE	W24
	BYTE		        As2 
	BYTE	W24
	BYTE		N18     Dn3 
	BYTE	W18
	BYTE		N06     Cn3 
	BYTE	W06
	BYTE		N24     As2 
	BYTE	W24
	BYTE		        Fn3 
	BYTE	W24
	BYTE	PEND
// 008   ----------------------------------------
id_purpose_gba_9_008:
	BYTE		N24     Fn3   v100
	BYTE	W24
	BYTE		        An3 
	BYTE	W24
	BYTE		        Gn3 
	BYTE	W24
	BYTE		        Fn3 
	BYTE	W24
	BYTE		        Dn3 
	BYTE	W24
	BYTE		        As2 
	BYTE	W24
	BYTE	PEND
// 009   ----------------------------------------
	BYTE		        Gs2 
	BYTE	W24
	BYTE		N18   
	BYTE	W18
	BYTE		N06     As2 
	BYTE	W06
	BYTE		N24     Cn3 
	BYTE	W24
	BYTE		N24   
	BYTE	W24
	BYTE		N18   
	BYTE	W18
	BYTE		N06     Dn3 
	BYTE	W06
	BYTE		N24     Ds3 
	BYTE	W24
// 010   ----------------------------------------
	BYTE		N24   
	BYTE	W24
	BYTE		        Fn3 
	BYTE	W24
	BYTE		        Gn3 
	BYTE	W24
	BYTE		N72     En3 
	BYTE	W72
// 011   ----------------------------------------
	BYTE	PATT
	 POIN2	id_purpose_gba_9_003
// 012   ----------------------------------------
id_purpose_gba_9_012:
	BYTE		N48     Fn2   v100
	BYTE	W48
	BYTE		N18     An2 
	BYTE	W18
	BYTE		N06     As2 
	BYTE	W06
	BYTE		N24     Cn3 
	BYTE	W24
	BYTE		N48     An2 
	BYTE	W48
	BYTE	PEND
// 013   ----------------------------------------
id_purpose_gba_9_013:
	BYTE		N24     As2   v100
	BYTE	W24
	BYTE		        Gn2 
	BYTE	W24
	BYTE		        As2 
	BYTE	W24
	BYTE		        Fn3 
	BYTE	W24
	BYTE		        Ds3 
	BYTE	W24
	BYTE		N24   
	BYTE	W24
	BYTE	PEND
// 014   ----------------------------------------
id_purpose_gba_9_014:
	BYTE		N24     Dn3   v100
	BYTE	W24
	BYTE		        Cn3 
	BYTE	W24
	BYTE		        As2 
	BYTE	W24
	BYTE		        Fn2 
	BYTE	W24
	BYTE		N18     An2 
	BYTE	W18
	BYTE		N06     As2 
	BYTE	W06
	BYTE		N24     Cn3 
	BYTE	W24
	BYTE	PEND
// 015   ----------------------------------------
	BYTE	PATT
	 POIN2	id_purpose_gba_9_007
// 016   ----------------------------------------
	BYTE	PATT
	 POIN2	id_purpose_gba_9_008
// 017   ----------------------------------------
	BYTE		N72     Ds3   v100
	BYTE	W72
	BYTE		        Gs2 
	BYTE	W72
// 018   ----------------------------------------
id_purpose_gba_9_018:
	BYTE		TIE     Ds3   v100
	BYTE	W96
	BYTE	W48
	BYTE	PEND
	BYTE		EOT   
// 019   ----------------------------------------
	BYTE	W96
	BYTE	W48
// 020   ----------------------------------------
	BYTE	W24
	BYTE		N24     En2 
	BYTE	W24
	BYTE		        An2 
	BYTE	W24
	BYTE		        Bn2 
	BYTE	W24
	BYTE		N48   
	BYTE	W48
// 021   ----------------------------------------
	BYTE		N72   
	BYTE	W72
	BYTE		        An2 
	BYTE	W72
// 022   ----------------------------------------
	BYTE		N24     En2 
	BYTE	W24
	BYTE		        An2 
	BYTE	W24
	BYTE		        Dn3 
	BYTE	W24
	BYTE		N18     Cs3 
	BYTE	W18
	BYTE		N06     Dn3 
	BYTE	W06
	BYTE		N48     En3 
	BYTE	W48
// 023   ----------------------------------------
	BYTE		        Cn3 
	BYTE	W48
	BYTE		N24     Dn3 
	BYTE	W24
	BYTE		N72     Bn2 
	BYTE	W72
// 024   ----------------------------------------
	BYTE		N48     Dn3 
	BYTE	W48
	BYTE		N24     Ds3 
	BYTE	W24
	BYTE		N72     Cn3 
	BYTE	W72
// 025   ----------------------------------------
	BYTE		N72   
	BYTE	W72
	BYTE		        As2 
	BYTE	W72
// 026   ----------------------------------------
	BYTE		TIE     Cn3 
	BYTE	W96
	BYTE	W48
	BYTE		EOT   
// 027   ----------------------------------------
	BYTE		N72     Dn2 
	BYTE		N72     Gn3 
	BYTE	W72
	BYTE		        Dn2 
	BYTE		N72     Fs3 
	BYTE	W72
// 028   ----------------------------------------
	BYTE	PATT
	 POIN2	id_purpose_gba_9_003
// 029   ----------------------------------------
	BYTE	PATT
	 POIN2	id_purpose_gba_9_012
// 030   ----------------------------------------
	BYTE	PATT
	 POIN2	id_purpose_gba_9_013
// 031   ----------------------------------------
	BYTE	PATT
	 POIN2	id_purpose_gba_9_014
// 032   ----------------------------------------
	BYTE	PATT
	 POIN2	id_purpose_gba_9_007
// 033   ----------------------------------------
	BYTE	PATT
	 POIN2	id_purpose_gba_9_008
// 034   ----------------------------------------
	BYTE		N72     Ds3   v100
	BYTE	W72
	BYTE		N42     Gs2 
	BYTE	W48
	BYTE		N21     As2 
	BYTE	W24
// 035   ----------------------------------------
	BYTE	PATT
	 POIN2	id_purpose_gba_9_018
// 036   ----------------------------------------
	BYTE	W96
	BYTE	W48
	BYTE		EOT     Ds3 
// 037   ----------------------------------------
	BYTE	W96
	BYTE	W48
// 038   ----------------------------------------
	BYTE	W96
	BYTE	W48
// 039   ----------------------------------------
	BYTE		N72     En3   v072
	BYTE		N48     Gs3   v092
	BYTE	W48
	BYTE		N24     As3 
	BYTE	W24
	BYTE		N72     Fs3   v072
	BYTE		N48     Cs4   v092
	BYTE	W48
	BYTE		N24     Ds4 
	BYTE	W24
// 040   ----------------------------------------
	BYTE	W96
	BYTE	W48
// 041   ----------------------------------------
	BYTE	W96
	BYTE	W48
// 042   ----------------------------------------
	BYTE	W96
	BYTE	W48
// 043   ----------------------------------------
	BYTE	W96
	BYTE	W48
// 044   ----------------------------------------
	BYTE	W96
	BYTE	W48
// 045   ----------------------------------------
	BYTE	W96
	BYTE	W48
// 046   ----------------------------------------
	BYTE	W96
// 047   ----------------------------------------
	BYTE	W96
// 048   ----------------------------------------
	BYTE	W96
// 049   ----------------------------------------
	BYTE	W96
// 050   ----------------------------------------
	BYTE	W96
// 051   ----------------------------------------
	BYTE	W96
// 052   ----------------------------------------
	BYTE	W96
// 053   ----------------------------------------
	BYTE	W96
// 054   ----------------------------------------
	BYTE	W96
// 055   ----------------------------------------
	BYTE	W96
// 056   ----------------------------------------
	BYTE	W96
// 057   ----------------------------------------
	BYTE	W96
// 058   ----------------------------------------
	BYTE	W96
// 059   ----------------------------------------
	BYTE	W96
// 060   ----------------------------------------
	BYTE	W96
// 061   ----------------------------------------
	BYTE	W96
// 062   ----------------------------------------
	BYTE	W96
// 063   ----------------------------------------
	BYTE	W96
// 064   ----------------------------------------
	BYTE	W96
// 065   ----------------------------------------
	BYTE	W96
// 066   ----------------------------------------
	BYTE	W96
// 067   ----------------------------------------
	BYTE	W96
// 068   ----------------------------------------
	BYTE	W96
// 069   ----------------------------------------
	BYTE	W96
// 070   ----------------------------------------
	BYTE	W96
// 071   ----------------------------------------
	BYTE	W96
// 072   ----------------------------------------
	BYTE	W96
// 073   ----------------------------------------
	BYTE	W96
// 074   ----------------------------------------
	BYTE	W96
// 075   ----------------------------------------
	BYTE	W96
// 076   ----------------------------------------
	BYTE	W96
// 077   ----------------------------------------
	BYTE	W96
// 078   ----------------------------------------
	BYTE	W96
// 079   ----------------------------------------
	BYTE	W96
// 080   ----------------------------------------
	BYTE	W96
// 081   ----------------------------------------
	BYTE	W96
// 082   ----------------------------------------
	BYTE	W96
// 083   ----------------------------------------
	BYTE	W96
// 084   ----------------------------------------
	BYTE	W96
// 085   ----------------------------------------
	BYTE	W96
// 086   ----------------------------------------
	BYTE	W96
	BYTE	W48
// 087   ----------------------------------------
	BYTE	W96
	BYTE	W48
// 088   ----------------------------------------
	BYTE	W96
	BYTE	W48
// 089   ----------------------------------------
	BYTE	W96
	BYTE	W48
// 090   ----------------------------------------
	BYTE	W96
	BYTE	W48
	BYTE	GoTo
	 POIN2	id_purpose_gba_9_B1
id_purpose_gba_9_B2:
// 091   ----------------------------------------
	BYTE	PATT
	 POIN2	id_purpose_gba_9_003
// 092   ----------------------------------------
	BYTE	PATT
	 POIN2	id_purpose_gba_9_004
// 093   ----------------------------------------
	BYTE	PATT
	 POIN2	id_purpose_gba_9_005
// 094   ----------------------------------------
	BYTE	PATT
	 POIN2	id_purpose_gba_9_006
// 095   ----------------------------------------
	BYTE	PATT
	 POIN2	id_purpose_gba_9_007
// 096   ----------------------------------------
	BYTE		N24     Fn3   v100
	BYTE	W03
	BYTE	W03
	BYTE	W01
	BYTE	W03
	BYTE	W02
	BYTE	W03
	BYTE	W01
	BYTE	W03
	BYTE	W02
	BYTE	W03
	BYTE		        An3 
	BYTE	W01
	BYTE	W03
	BYTE	W02
	BYTE	W03
	BYTE	W01
	BYTE	W03
	BYTE	W02
	BYTE	W03
	BYTE	W01
	BYTE	W03
	BYTE	W02
	BYTE		        Gn3 
	BYTE	W03
	BYTE	W01
	BYTE	W03
	BYTE	W02
	BYTE	W03
	BYTE	W01
	BYTE	W03
	BYTE	W02
	BYTE	W03
	BYTE	W01
	BYTE	W02
	BYTE		        Fn3 
	BYTE	W01
	BYTE	W02
	BYTE	W03
	BYTE	W01
	BYTE	W03
	BYTE	W02
	BYTE	W03
	BYTE	W01
	BYTE	W03
	BYTE	W02
	BYTE	W03
	BYTE		        Dn3 
	BYTE	W01
	BYTE	W03
	BYTE	W02
	BYTE	W03
	BYTE	W01
	BYTE	W03
	BYTE	W02
	BYTE	W03
	BYTE	W01
	BYTE	W03
	BYTE	W02
	BYTE		        As2 
	BYTE	W03
	BYTE	W01
	BYTE	W03
	BYTE	W02
	BYTE	W03
	BYTE	W01
	BYTE	W03
	BYTE	W02
	BYTE	W03
	BYTE	W01
	BYTE	W02
// 097   ----------------------------------------
	BYTE		        Gs2 
	BYTE	W01
	BYTE	W02
	BYTE	W03
	BYTE	W01
	BYTE	W03
	BYTE	W02
	BYTE	W03
	BYTE	W01
	BYTE	W03
	BYTE	W02
	BYTE	W03
	BYTE		N18   
	BYTE	W01
	BYTE	W03
	BYTE	W02
	BYTE	W03
	BYTE	W01
	BYTE	W03
	BYTE	W02
	BYTE	W03
	BYTE		N06     As2 
	BYTE	W01
	BYTE	W03
	BYTE	W02
	BYTE		N24     Cn3 
	BYTE	W03
	BYTE	W01
	BYTE	W03
	BYTE	W02
	BYTE	W03
	BYTE	W01
	BYTE	W03
	BYTE	W02
	BYTE	W03
	BYTE	W01
	BYTE	W02
	BYTE		N24   
	BYTE	W01
	BYTE	W02
	BYTE	W03
	BYTE	W01
	BYTE	W03
	BYTE	W02
	BYTE	W03
	BYTE	W01
	BYTE	W03
	BYTE	W02
	BYTE	W03
	BYTE		N18   
	BYTE	W01
	BYTE	W03
	BYTE	W02
	BYTE	W03
	BYTE	W01
	BYTE	W03
	BYTE	W02
	BYTE	W03
	BYTE		N06     Dn3 
	BYTE	W01
	BYTE	W03
	BYTE	W02
	BYTE		N24     Ds3 
	BYTE	W03
	BYTE	W01
	BYTE	W03
	BYTE	W02
	BYTE	W03
	BYTE	W01
	BYTE	W03
	BYTE	W02
	BYTE	W03
	BYTE	W01
	BYTE	W02
// 098   ----------------------------------------
	BYTE		N24   
	BYTE	W24
	BYTE		        Fn3 
	BYTE	W24
	BYTE		        Gn3 
	BYTE	W66
	BYTE	W01
	BYTE	W18
	BYTE	FINE

//**************** Track 10 (Midi-Chn.10) ****************//

id_purpose_gba_10:
	BYTE		VOL     127*id_purpose_gba_mvl/mxv
	BYTE	KEYSH   id_purpose_gba_key+0
// 000   ----------------------------------------
	BYTE		VOICE   57
	BYTE	W24
// 001   ----------------------------------------
	BYTE	W24
// 002   ----------------------------------------
	BYTE	W24
id_purpose_gba_10_B1:
// 003   ----------------------------------------
	BYTE	W96
	BYTE	W48
// 004   ----------------------------------------
	BYTE	W96
	BYTE	W48
// 005   ----------------------------------------
	BYTE	W96
	BYTE	W48
// 006   ----------------------------------------
	BYTE	W96
	BYTE	W48
// 007   ----------------------------------------
	BYTE	W96
	BYTE	W48
// 008   ----------------------------------------
	BYTE	W96
	BYTE	W48
// 009   ----------------------------------------
	BYTE	W96
	BYTE	W48
// 010   ----------------------------------------
	BYTE	W96
	BYTE	W48
// 011   ----------------------------------------
id_purpose_gba_10_011:
	BYTE		N48     As2   v100
	BYTE	W48
	BYTE		N24     Fn2 
	BYTE	W24
	BYTE		N72     Ds3 
	BYTE	W72
	BYTE	PEND
// 012   ----------------------------------------
	BYTE		N48     Fn2 
	BYTE	W48
	BYTE		N18     An2 
	BYTE	W18
	BYTE		N06     As2 
	BYTE	W06
	BYTE		N24     Cn3 
	BYTE	W24
	BYTE		N48     An2 
	BYTE	W48
// 013   ----------------------------------------
id_purpose_gba_10_013:
	BYTE		N24     As2   v100
	BYTE	W24
	BYTE		        Gn2 
	BYTE	W24
	BYTE		        As2 
	BYTE	W24
	BYTE		        Fn3 
	BYTE	W24
	BYTE		        Ds3 
	BYTE	W24
	BYTE		N24   
	BYTE	W24
	BYTE	PEND
// 014   ----------------------------------------
id_purpose_gba_10_014:
	BYTE		N24     Dn3   v100
	BYTE	W24
	BYTE		        Cn3 
	BYTE	W24
	BYTE		        As2 
	BYTE	W24
	BYTE		        Fn2 
	BYTE	W24
	BYTE		N18     An2 
	BYTE	W18
	BYTE		N06     As2 
	BYTE	W06
	BYTE		N24     Cn3 
	BYTE	W24
	BYTE	PEND
// 015   ----------------------------------------
id_purpose_gba_10_015:
	BYTE		N18     As2   v100
	BYTE	W18
	BYTE		N06     An2 
	BYTE	W06
	BYTE		N24     Gn2 
	BYTE	W24
	BYTE		        As2 
	BYTE	W24
	BYTE		N18     Dn3 
	BYTE	W18
	BYTE		N06     Cn3 
	BYTE	W06
	BYTE		N24     As2 
	BYTE	W24
	BYTE		        Fn3 
	BYTE	W24
	BYTE	PEND
// 016   ----------------------------------------
id_purpose_gba_10_016:
	BYTE		N24     Fn3   v100
	BYTE	W24
	BYTE		        An3 
	BYTE	W24
	BYTE		        Gn3 
	BYTE	W24
	BYTE		        Fn3 
	BYTE	W24
	BYTE		        Dn3 
	BYTE	W24
	BYTE		        As2 
	BYTE	W24
	BYTE	PEND
// 017   ----------------------------------------
	BYTE		N72     Ds3 
	BYTE	W72
	BYTE		        Gs2 
	BYTE	W72
// 018   ----------------------------------------
id_purpose_gba_10_018:
	BYTE		TIE     Ds3   v100
	BYTE	W96
	BYTE	W48
	BYTE	PEND
	BYTE		EOT   
// 019   ----------------------------------------
	BYTE	W96
	BYTE	W48
// 020   ----------------------------------------
	BYTE	W96
	BYTE	W48
// 021   ----------------------------------------
	BYTE	W96
	BYTE	W48
// 022   ----------------------------------------
	BYTE	W96
	BYTE	W48
// 023   ----------------------------------------
	BYTE	W96
	BYTE	W48
// 024   ----------------------------------------
	BYTE	W96
	BYTE	W48
// 025   ----------------------------------------
	BYTE	W96
	BYTE	W48
// 026   ----------------------------------------
	BYTE		N05     Fn3   v080
	BYTE	W06
	BYTE		        Ds3 
	BYTE	W06
	BYTE		        Fn3 
	BYTE	W06
	BYTE		        As3 
	BYTE	W06
	BYTE		        Fn3 
	BYTE	W06
	BYTE		        Ds3 
	BYTE	W06
	BYTE		        Fn3 
	BYTE	W06
	BYTE		        As3 
	BYTE	W06
	BYTE		        Fn3 
	BYTE	W06
	BYTE		        Ds3 
	BYTE	W06
	BYTE		        Fn3 
	BYTE	W06
	BYTE		        As3 
	BYTE	W06
	BYTE		        Fn3 
	BYTE	W06
	BYTE		        Ds3 
	BYTE	W06
	BYTE		        Cn3 
	BYTE	W06
	BYTE		        Ds3 
	BYTE	W06
	BYTE		        Fn3 
	BYTE	W06
	BYTE		        An3 
	BYTE	W06
	BYTE		        Cn4 
	BYTE	W06
	BYTE		        An3 
	BYTE	W06
	BYTE		        Fn3 
	BYTE	W06
	BYTE		        An3 
	BYTE	W06
	BYTE		        Fn3 
	BYTE	W06
	BYTE		        Cn3   v100
	BYTE	W06
// 027   ----------------------------------------
	BYTE		N72     An1 
	BYTE		N72     Dn2 
	BYTE	W72
	BYTE		N64     An1 
	BYTE		N64     Dn2 
	BYTE	W72
// 028   ----------------------------------------
	BYTE	PATT
	 POIN2	id_purpose_gba_10_011
// 029   ----------------------------------------
	BYTE		N48     Fn2   v100
	BYTE	W48
	BYTE		N21     Gn2 
	BYTE		N18     An2 
	BYTE	W18
	BYTE		N06     As2 
	BYTE	W06
	BYTE		N21     An2 
	BYTE		N24     Cn3 
	BYTE	W24
	BYTE		N42     Fn2 
	BYTE		N42     An2 
	BYTE	W48
// 030   ----------------------------------------
	BYTE	PATT
	 POIN2	id_purpose_gba_10_013
// 031   ----------------------------------------
	BYTE	PATT
	 POIN2	id_purpose_gba_10_014
// 032   ----------------------------------------
	BYTE	PATT
	 POIN2	id_purpose_gba_10_015
// 033   ----------------------------------------
	BYTE	PATT
	 POIN2	id_purpose_gba_10_016
// 034   ----------------------------------------
	BYTE		N72     Ds3   v100
	BYTE	W72
	BYTE		N42     Gs2 
	BYTE	W48
	BYTE		N21     As2 
	BYTE	W24
// 035   ----------------------------------------
	BYTE	PATT
	 POIN2	id_purpose_gba_10_018
// 036   ----------------------------------------
	BYTE	W96
	BYTE	W48
	BYTE		EOT     Ds3 
// 037   ----------------------------------------
	BYTE	W96
	BYTE	W48
// 038   ----------------------------------------
	BYTE	W96
	BYTE	W48
// 039   ----------------------------------------
	BYTE	W96
	BYTE	W48
// 040   ----------------------------------------
	BYTE	W96
	BYTE	W48
// 041   ----------------------------------------
	BYTE		N64     Dn2   v100
	BYTE	W72
	BYTE		        Fs2 
	BYTE	W72
// 042   ----------------------------------------
	BYTE		        Cs2 
	BYTE	W72
	BYTE		        Bn1 
	BYTE	W72
// 043   ----------------------------------------
	BYTE		        An2 
	BYTE	W72
	BYTE		        Fs2 
	BYTE	W72
// 044   ----------------------------------------
	BYTE		TIE     Gs2 
	BYTE	W96
	BYTE	W40
	BYTE		EOT   
	BYTE	W08
// 045   ----------------------------------------
	BYTE		N92     As2 
	BYTE	W96
	BYTE		N21     Bn2 
	BYTE	W24
	BYTE		        Cs3 
	BYTE	W24
// 046   ----------------------------------------
	BYTE	W96
// 047   ----------------------------------------
	BYTE	W96
// 048   ----------------------------------------
	BYTE	W96
// 049   ----------------------------------------
	BYTE	W96
// 050   ----------------------------------------
	BYTE	W96
// 051   ----------------------------------------
	BYTE	W96
// 052   ----------------------------------------
	BYTE	W96
// 053   ----------------------------------------
	BYTE	W96
// 054   ----------------------------------------
	BYTE	W96
// 055   ----------------------------------------
	BYTE	W96
// 056   ----------------------------------------
	BYTE	W96
// 057   ----------------------------------------
	BYTE	W96
// 058   ----------------------------------------
	BYTE	W96
// 059   ----------------------------------------
	BYTE	W96
// 060   ----------------------------------------
	BYTE	W96
// 061   ----------------------------------------
	BYTE	W96
// 062   ----------------------------------------
	BYTE	W96
// 063   ----------------------------------------
	BYTE	W96
// 064   ----------------------------------------
	BYTE	W96
// 065   ----------------------------------------
	BYTE	W96
// 066   ----------------------------------------
	BYTE	W96
// 067   ----------------------------------------
	BYTE	W96
// 068   ----------------------------------------
	BYTE	W96
// 069   ----------------------------------------
	BYTE	W96
// 070   ----------------------------------------
	BYTE	W96
// 071   ----------------------------------------
	BYTE	W96
// 072   ----------------------------------------
	BYTE	W96
// 073   ----------------------------------------
	BYTE	W96
// 074   ----------------------------------------
	BYTE	W96
// 075   ----------------------------------------
	BYTE	W96
// 076   ----------------------------------------
	BYTE	W96
// 077   ----------------------------------------
	BYTE	W96
// 078   ----------------------------------------
	BYTE	W96
// 079   ----------------------------------------
	BYTE	W96
// 080   ----------------------------------------
	BYTE	W96
// 081   ----------------------------------------
	BYTE	W96
// 082   ----------------------------------------
	BYTE	W96
// 083   ----------------------------------------
	BYTE	W96
// 084   ----------------------------------------
	BYTE	W96
// 085   ----------------------------------------
	BYTE	W96
// 086   ----------------------------------------
	BYTE	W96
	BYTE	W48
// 087   ----------------------------------------
	BYTE	W96
	BYTE	W48
// 088   ----------------------------------------
	BYTE	W96
	BYTE	W48
// 089   ----------------------------------------
	BYTE	W96
	BYTE	W48
// 090   ----------------------------------------
	BYTE	W96
	BYTE	W48
	BYTE	GoTo
	 POIN2	id_purpose_gba_10_B1
id_purpose_gba_10_B2:
// 091   ----------------------------------------
	BYTE	W96
	BYTE	W48
// 092   ----------------------------------------
	BYTE	W96
	BYTE	W48
// 093   ----------------------------------------
	BYTE	W96
	BYTE	W48
// 094   ----------------------------------------
	BYTE	W96
	BYTE	W48
// 095   ----------------------------------------
	BYTE	W96
	BYTE	W48
// 096   ----------------------------------------
	BYTE	W96
	BYTE	W48
// 097   ----------------------------------------
	BYTE	W96
	BYTE	W48
// 098   ----------------------------------------
	BYTE	W96
	BYTE	W36
	BYTE	W01
	BYTE	FINE

//**************** Track 11 (Midi-Chn.11) ****************//

id_purpose_gba_11:
	BYTE		VOL     127*id_purpose_gba_mvl/mxv
	BYTE	KEYSH   id_purpose_gba_key+0
// 000   ----------------------------------------
	BYTE		VOICE   40
	BYTE	W24
// 001   ----------------------------------------
	BYTE	W24
// 002   ----------------------------------------
	BYTE	W24
id_purpose_gba_11_B1:
// 003   ----------------------------------------
id_purpose_gba_11_003:
	BYTE		N72     Gn1   v100
	BYTE	W72
	BYTE		        Ds1 
	BYTE	W72
	BYTE	PEND
// 004   ----------------------------------------
id_purpose_gba_11_004:
	BYTE		TIE     Fn1   v100
	BYTE	W96
	BYTE	W48
	BYTE	PEND
	BYTE		EOT   
// 005   ----------------------------------------
	BYTE	PATT
	 POIN2	id_purpose_gba_11_003
// 006   ----------------------------------------
id_purpose_gba_11_006:
	BYTE		N72     As0   v100
	BYTE	W72
	BYTE		        Fn1 
	BYTE	W72
	BYTE	PEND
// 007   ----------------------------------------
id_purpose_gba_11_007:
	BYTE		N48     Cn1   v100
	BYTE	W48
	BYTE		N24     Dn1 
	BYTE	W24
	BYTE		N48     Ds1 
	BYTE	W48
	BYTE		N24     Fn1 
	BYTE	W24
	BYTE	PEND
// 008   ----------------------------------------
	BYTE		N72     Gn1 
	BYTE	W72
	BYTE		        Dn1 
	BYTE	W72
// 009   ----------------------------------------
	BYTE		        Fn1 
	BYTE	W72
	BYTE		N48     As0 
	BYTE	W48
	BYTE		N24     Fn1 
	BYTE	W24
// 010   ----------------------------------------
	BYTE		TIE     Cn1 
	BYTE	W96
	BYTE	W48
	BYTE		EOT   
// 011   ----------------------------------------
id_purpose_gba_11_011:
	BYTE		N72     Gn1   v100
	BYTE		N48     As2 
	BYTE	W48
	BYTE		N24     Fn2 
	BYTE	W24
	BYTE		N72     Ds1 
	BYTE		N72     Ds3 
	BYTE	W72
	BYTE	PEND
// 012   ----------------------------------------
id_purpose_gba_11_012:
	BYTE		TIE     Fn1   v100
	BYTE		N48     Fn2 
	BYTE	W48
	BYTE		N18     An2 
	BYTE	W18
	BYTE		N06     As2 
	BYTE	W06
	BYTE		N24     Cn3 
	BYTE	W24
	BYTE		N48     An2 
	BYTE	W48
	BYTE	PEND
	BYTE		EOT     Fn1 
// 013   ----------------------------------------
id_purpose_gba_11_013:
	BYTE		N72     Gn1   v100
	BYTE		N24     As2 
	BYTE	W24
	BYTE		        Gn2 
	BYTE	W24
	BYTE		        As2 
	BYTE	W24
	BYTE		N72     Ds1 
	BYTE		N24     Fn3 
	BYTE	W24
	BYTE		        Ds3 
	BYTE	W24
	BYTE		N24   
	BYTE	W24
	BYTE	PEND
// 014   ----------------------------------------
id_purpose_gba_11_014:
	BYTE		N72     As0   v100
	BYTE		N24     Dn3 
	BYTE	W24
	BYTE		        Cn3 
	BYTE	W24
	BYTE		        As2 
	BYTE	W24
	BYTE		N72     Fn1 
	BYTE		N24     Fn2 
	BYTE	W24
	BYTE		N18     An2 
	BYTE	W18
	BYTE		N06     As2 
	BYTE	W06
	BYTE		N24     Cn3 
	BYTE	W24
	BYTE	PEND
// 015   ----------------------------------------
id_purpose_gba_11_015:
	BYTE		N48     Cn1   v100
	BYTE		N18     As2 
	BYTE	W18
	BYTE		N06     An2 
	BYTE	W06
	BYTE		N24     Gn2 
	BYTE	W24
	BYTE		        Dn1 
	BYTE		N24     As2 
	BYTE	W24
	BYTE		N48     Ds1 
	BYTE		N18     Dn3 
	BYTE	W18
	BYTE		N06     Cn3 
	BYTE	W06
	BYTE		N24     As2 
	BYTE	W24
	BYTE		        Fn1 
	BYTE		N24     Fn3 
	BYTE	W24
	BYTE	PEND
// 016   ----------------------------------------
id_purpose_gba_11_016:
	BYTE		N72     Gn1   v100
	BYTE		N24     Gn2 
	BYTE	W24
	BYTE		        An2 
	BYTE	W24
	BYTE		        As2 
	BYTE	W24
	BYTE		N72     Dn1 
	BYTE		N48     Fn2 
	BYTE	W48
	BYTE		N24     Dn2 
	BYTE	W24
	BYTE	PEND
// 017   ----------------------------------------
id_purpose_gba_11_017:
	BYTE		N72     Cn1   v100
	BYTE		N72     Ds2 
	BYTE	W72
	BYTE		N48     Gs0 
	BYTE		N72     Fn2 
	BYTE	W48
	BYTE		N24     Fn1 
	BYTE	W24
	BYTE	PEND
// 018   ----------------------------------------
id_purpose_gba_11_018:
	BYTE		TIE     Ds1   v100
	BYTE		TIE     As2 
	BYTE	W96
	BYTE	W48
	BYTE	PEND
	BYTE		EOT     Ds1 
	BYTE		        As2 
// 019   ----------------------------------------
	BYTE		N72     En1 
	BYTE	W72
	BYTE		        Bn0 
	BYTE	W72
// 020   ----------------------------------------
	BYTE		        Dn1 
	BYTE	W72
	BYTE		        Cs1 
	BYTE	W72
// 021   ----------------------------------------
	BYTE		        Cn1 
	BYTE	W72
	BYTE		        Bn0 
	BYTE	W72
// 022   ----------------------------------------
	BYTE		        An0 
	BYTE	W72
	BYTE		        Cn1 
	BYTE	W72
// 023   ----------------------------------------
	BYTE		        Fn1 
	BYTE	W72
	BYTE		        Cn1 
	BYTE	W72
// 024   ----------------------------------------
	BYTE		        Ds1 
	BYTE	W72
	BYTE		        Dn1 
	BYTE	W72
// 025   ----------------------------------------
	BYTE		        Cs1 
	BYTE	W72
	BYTE		        Cn1 
	BYTE	W72
// 026   ----------------------------------------
	BYTE	PATT
	 POIN2	id_purpose_gba_11_004
	BYTE		EOT     Fn1 
// 027   ----------------------------------------
	BYTE		N72     Gn1   v100
	BYTE	W72
	BYTE		        Fs1 
	BYTE	W72
// 028   ----------------------------------------
	BYTE	PATT
	 POIN2	id_purpose_gba_11_011
// 029   ----------------------------------------
	BYTE	PATT
	 POIN2	id_purpose_gba_11_012
	BYTE		EOT     Fn1 
// 030   ----------------------------------------
	BYTE	PATT
	 POIN2	id_purpose_gba_11_013
// 031   ----------------------------------------
	BYTE	PATT
	 POIN2	id_purpose_gba_11_014
// 032   ----------------------------------------
	BYTE	PATT
	 POIN2	id_purpose_gba_11_015
// 033   ----------------------------------------
	BYTE	PATT
	 POIN2	id_purpose_gba_11_016
// 034   ----------------------------------------
	BYTE	PATT
	 POIN2	id_purpose_gba_11_017
// 035   ----------------------------------------
	BYTE	PATT
	 POIN2	id_purpose_gba_11_018
	BYTE		EOT     Ds1 
	BYTE		        As2 
// 036   ----------------------------------------
	BYTE	W96
	BYTE	W48
// 037   ----------------------------------------
	BYTE		VOICE   0
	BYTE		N72     Bn0   v080
	BYTE		N72     Bn1 
	BYTE	W72
	BYTE		        Cs1 
	BYTE		N72     Cs2 
	BYTE	W72
// 038   ----------------------------------------
	BYTE		        Ds1 
	BYTE		N72     Ds2 
	BYTE		N05     Cs4   v072
	BYTE	W06
	BYTE		        Cs3   v040
	BYTE		N10     Ds4   v072
	BYTE	W06
	BYTE		        Ds3   v040
	BYTE	W06
	BYTE		N05     As4   v072
	BYTE	W06
	BYTE		        As3   v040
	BYTE		N05     Cs4   v072
	BYTE	W06
	BYTE		        Cs3   v040
	BYTE		N10     Ds4   v072
	BYTE	W06
	BYTE		        Ds3   v040
	BYTE	W06
	BYTE		N05     As4   v072
	BYTE	W06
	BYTE		        As3   v040
	BYTE		N05     Cs4   v072
	BYTE	W06
	BYTE		        Cs3   v040
	BYTE		N10     Ds4   v072
	BYTE	W06
	BYTE		        Ds3   v040
	BYTE	W06
	BYTE		N05     As4   v072
	BYTE	W06
	BYTE		N72     Cs1   v080
	BYTE		N72     Cs2 
	BYTE		N05     As3   v040
	BYTE		N05     Cs4   v072
	BYTE	W06
	BYTE		        Cs3   v040
	BYTE		N10     Ds4   v072
	BYTE	W06
	BYTE		        Ds3   v040
	BYTE	W06
	BYTE		N05     As4   v072
	BYTE	W06
	BYTE		        As3   v040
	BYTE		N05     Cs4   v072
	BYTE	W06
	BYTE		        Cs3   v040
	BYTE		N10     Ds4   v072
	BYTE	W06
	BYTE		        Ds3   v040
	BYTE	W06
	BYTE		N05     As4   v072
	BYTE	W06
	BYTE		        As3   v040
	BYTE		N05     Cs4   v072
	BYTE	W06
	BYTE		        Cs3   v040
	BYTE		N10     Ds4   v072
	BYTE	W06
	BYTE		        Ds3   v040
	BYTE	W06
	BYTE		N05     As4   v072
	BYTE	W06
// 039   ----------------------------------------
	BYTE		N72     Bn0   v080
	BYTE		N72     Bn1 
	BYTE		N05     As3   v040
	BYTE		N05     Cs4   v072
	BYTE	W06
	BYTE		        Cs3   v040
	BYTE		N10     Ds4   v072
	BYTE	W06
	BYTE		        Ds3   v040
	BYTE	W06
	BYTE		N05     As4   v072
	BYTE	W06
	BYTE		        As3   v040
	BYTE		N05     Cs4   v072
	BYTE	W06
	BYTE		        Cs3   v040
	BYTE		N10     Ds4   v072
	BYTE	W06
	BYTE		        Ds3   v040
	BYTE	W06
	BYTE		N05     As4   v072
	BYTE	W06
	BYTE		        As3   v040
	BYTE		N05     Cs4   v072
	BYTE	W06
	BYTE		        Cs3   v040
	BYTE		N10     Ds4   v072
	BYTE	W06
	BYTE		        Ds3   v040
	BYTE	W06
	BYTE		N05     As4   v072
	BYTE	W06
	BYTE		N72     Cs1   v080
	BYTE		N72     Cs2 
	BYTE		N05     As3   v040
	BYTE		N05     Cs4   v072
	BYTE	W06
	BYTE		        Cs3   v040
	BYTE		N10     Ds4   v072
	BYTE	W06
	BYTE		        Ds3   v040
	BYTE	W06
	BYTE		N05     As4   v072
	BYTE	W06
	BYTE		        As3   v040
	BYTE		N05     Cs4   v072
	BYTE	W06
	BYTE		        Cs3   v040
	BYTE		N10     Ds4   v072
	BYTE	W06
	BYTE		        Ds3   v040
	BYTE	W06
	BYTE		N05     As4   v072
	BYTE	W06
	BYTE		        As3   v040
	BYTE		N05     Cs4   v072
	BYTE	W06
	BYTE		        Cs3   v040
	BYTE		N10     Ds4   v072
	BYTE	W06
	BYTE		        Ds3   v040
	BYTE	W06
	BYTE		N05     As4   v072
	BYTE	W06
// 040   ----------------------------------------
	BYTE		N72     Ds1   v080
	BYTE		N72     Ds2 
	BYTE		N05     As3   v040
	BYTE		N05     Cs4   v072
	BYTE	W06
	BYTE		        Cs3   v040
	BYTE		N10     Ds4   v072
	BYTE	W06
	BYTE		        Ds3   v040
	BYTE	W06
	BYTE		N05     As4   v072
	BYTE	W06
	BYTE		        As3   v040
	BYTE		N05     Cs4   v072
	BYTE	W06
	BYTE		        Cs3   v040
	BYTE		N10     Ds4   v072
	BYTE	W06
	BYTE		        Ds3   v040
	BYTE	W06
	BYTE		N05     As4   v072
	BYTE	W06
	BYTE		        As3   v040
	BYTE		N05     Cs4   v072
	BYTE	W06
	BYTE		        Cs3   v040
	BYTE		N10     Ds4   v072
	BYTE	W06
	BYTE		        Ds3   v040
	BYTE	W06
	BYTE		N05     As4   v072
	BYTE	W06
	BYTE		N72     Cs1   v080
	BYTE		N72     Cs2 
	BYTE		N05     As3   v040
	BYTE		N05     Cs4   v072
	BYTE	W06
	BYTE		        Cs3   v040
	BYTE		N10     Ds4   v072
	BYTE	W06
	BYTE		        Ds3   v040
	BYTE	W06
	BYTE		N05     As4   v072
	BYTE	W06
	BYTE		        As3   v040
	BYTE		N05     Cs4   v072
	BYTE	W06
	BYTE		        Cs3   v040
	BYTE		N10     Ds4   v072
	BYTE	W06
	BYTE		        Ds3   v040
	BYTE	W06
	BYTE		N05     As4   v072
	BYTE	W06
	BYTE		        As3   v040
	BYTE		N05     Cs4   v072
	BYTE	W06
	BYTE		        Cs3   v040
	BYTE		N10     Ds4   v072
	BYTE	W06
	BYTE		        Ds3   v040
	BYTE	W06
	BYTE		N05     As4   v072
	BYTE	W06
// 041   ----------------------------------------
	BYTE		N72     Dn1   v100
	BYTE		N72     Dn2 
	BYTE		N05     As3   v040
	BYTE	W72
	BYTE		N72     Bn0   v100
	BYTE		N72     Bn1 
	BYTE	W72
// 042   ----------------------------------------
id_purpose_gba_11_042:
	BYTE		N72     Cs1   v100
	BYTE		N72     Cs2 
	BYTE	W72
	BYTE		        Bn0 
	BYTE		N72     Bn1 
	BYTE	W72
	BYTE	PEND
// 043   ----------------------------------------
	BYTE	PATT
	 POIN2	id_purpose_gba_11_042
// 044   ----------------------------------------
	BYTE		N72     Cs1   v100
	BYTE		N72     Cs2 
	BYTE	W72
	BYTE		        Cs1 
	BYTE		N72     Cs2 
	BYTE	W72
// 045   ----------------------------------------
	BYTE		        Cs1 
	BYTE		N72     Cs2 
	BYTE	W72
	BYTE		N24     Cs1 
	BYTE		N24     Cs2 
	BYTE	W12
	BYTE		N05     Cs4 
	BYTE	W06
	BYTE		        Fs4 
	BYTE	W06
	BYTE		N24     Dn1 
	BYTE		N24     Dn2 
	BYTE		N05     Cs5 
	BYTE	W06
	BYTE		        As4 
	BYTE	W06
	BYTE		        Fs4 
	BYTE	W06
	BYTE		        Cs5 
	BYTE	W06
	BYTE		N24     En1 
	BYTE		N24     En2 
	BYTE		N05     Fs4 
	BYTE	W06
	BYTE		        Cs5 
	BYTE	W06
	BYTE		        Fs4 
	BYTE	W06
	BYTE		        Cs4 
	BYTE	W06
// 046   ----------------------------------------
	BYTE		N12     Fs1 
	BYTE	W24
	BYTE		        Bn1 
	BYTE	W24
	BYTE		        Cs2 
	BYTE	W24
	BYTE		        Dn2 
	BYTE	W24
// 047   ----------------------------------------
id_purpose_gba_11_047:
	BYTE		N12     En2   v100
	BYTE	W24
	BYTE		        Dn2 
	BYTE	W24
	BYTE		        Cs2 
	BYTE	W24
	BYTE		        Gn1 
	BYTE	W24
	BYTE	PEND
// 048   ----------------------------------------
id_purpose_gba_11_048:
	BYTE		N12     An1   v100
	BYTE	W24
	BYTE		        Bn1 
	BYTE	W24
	BYTE		        Cs2 
	BYTE	W24
	BYTE		        En2 
	BYTE	W24
	BYTE	PEND
// 049   ----------------------------------------
id_purpose_gba_11_049:
	BYTE		N12     Dn2   v100
	BYTE	W24
	BYTE		        Cs2 
	BYTE	W24
	BYTE		        Dn2 
	BYTE	W24
	BYTE		        An1 
	BYTE	W24
	BYTE	PEND
// 050   ----------------------------------------
id_purpose_gba_11_050:
	BYTE		N12     Gn1   v100
	BYTE	W24
	BYTE		N12   
	BYTE	W24
	BYTE		        Bn1 
	BYTE	W24
	BYTE		        Dn2 
	BYTE	W24
	BYTE	PEND
// 051   ----------------------------------------
id_purpose_gba_11_051:
	BYTE		N12     Cs2   v100
	BYTE	W24
	BYTE		        Dn2 
	BYTE	W24
	BYTE		        En2 
	BYTE	W24
	BYTE		        Cs2 
	BYTE	W24
	BYTE	PEND
// 052   ----------------------------------------
id_purpose_gba_11_052:
	BYTE		N12     As1   v100
	BYTE	W24
	BYTE		        Bn1 
	BYTE	W24
	BYTE		        Cs2 
	BYTE	W24
	BYTE		        As1 
	BYTE	W24
	BYTE	PEND
// 053   ----------------------------------------
	BYTE		        Fs1 
	BYTE	W24
	BYTE		        Gs1 
	BYTE	W24
	BYTE		        As1 
	BYTE	W24
	BYTE		        Cs2 
	BYTE	W24
// 054   ----------------------------------------
	BYTE		        Bn1 
	BYTE	W24
	BYTE		N12   
	BYTE	W24
	BYTE		        Cs2 
	BYTE	W24
	BYTE		        Dn2 
	BYTE	W24
// 055   ----------------------------------------
	BYTE	PATT
	 POIN2	id_purpose_gba_11_047
// 056   ----------------------------------------
	BYTE	PATT
	 POIN2	id_purpose_gba_11_048
// 057   ----------------------------------------
	BYTE	PATT
	 POIN2	id_purpose_gba_11_049
// 058   ----------------------------------------
	BYTE	PATT
	 POIN2	id_purpose_gba_11_050
// 059   ----------------------------------------
	BYTE	PATT
	 POIN2	id_purpose_gba_11_051
// 060   ----------------------------------------
	BYTE	PATT
	 POIN2	id_purpose_gba_11_052
// 061   ----------------------------------------
	BYTE		VOICE   48
	BYTE		N12     Fs1   v100
	BYTE	W24
	BYTE		        Gs1 
	BYTE	W24
	BYTE		        As1 
	BYTE	W24
	BYTE		        Cs2 
	BYTE	W24
// 062   ----------------------------------------
	BYTE		N07     Bn2 
	BYTE	W08
	BYTE		        Dn3 
	BYTE	W08
	BYTE		        Fs3 
	BYTE	W08
	BYTE		N12     Bn1 
	BYTE		N07     Bn2 
	BYTE	W08
	BYTE		        Dn3 
	BYTE	W08
	BYTE		        Fs3 
	BYTE	W08
	BYTE		N12     Cs2 
	BYTE		N07     Bn2 
	BYTE	W08
	BYTE		        Dn3 
	BYTE	W08
	BYTE		        Fs3 
	BYTE	W08
	BYTE		N12     Dn2 
	BYTE		N07     Bn2 
	BYTE	W08
	BYTE		        Dn3 
	BYTE	W08
	BYTE		        Fs3 
	BYTE	W08
// 063   ----------------------------------------
id_purpose_gba_11_063:
	BYTE		N12     En2   v100
	BYTE		N07     Bn2 
	BYTE	W08
	BYTE		        Dn3 
	BYTE	W08
	BYTE		        Gn3 
	BYTE	W08
	BYTE		N12     Dn2 
	BYTE		N07     Bn2 
	BYTE	W08
	BYTE		        Dn3 
	BYTE	W08
	BYTE		        Gn3 
	BYTE	W08
	BYTE		N12     Cs2 
	BYTE		N07     Bn2 
	BYTE	W08
	BYTE		        Dn3 
	BYTE	W08
	BYTE		        Gn3 
	BYTE	W08
	BYTE		N12     Gn1 
	BYTE		N07     Bn2 
	BYTE	W08
	BYTE		        Dn3 
	BYTE	W08
	BYTE		        Gn3 
	BYTE	W08
	BYTE	PEND
// 064   ----------------------------------------
id_purpose_gba_11_064:
	BYTE		N12     An1   v100
	BYTE		N07     An2 
	BYTE	W08
	BYTE		        En3 
	BYTE	W08
	BYTE		        An3 
	BYTE	W08
	BYTE		N12     Bn1 
	BYTE		N07     An2 
	BYTE	W08
	BYTE		        En3 
	BYTE	W08
	BYTE		        An3 
	BYTE	W08
	BYTE		N12     Cs2 
	BYTE		N07     An2 
	BYTE	W08
	BYTE		        En3 
	BYTE	W08
	BYTE		        An3 
	BYTE	W08
	BYTE		N12     En2 
	BYTE		N07     An2 
	BYTE	W08
	BYTE		        En3 
	BYTE	W08
	BYTE		        An3 
	BYTE	W08
	BYTE	PEND
// 065   ----------------------------------------
id_purpose_gba_11_065:
	BYTE		N12     Dn2   v100
	BYTE		N07     Dn3 
	BYTE	W08
	BYTE		        An3 
	BYTE	W08
	BYTE		        Dn4 
	BYTE	W08
	BYTE		N12     Cs2 
	BYTE		N07     Dn3 
	BYTE	W08
	BYTE		        An3 
	BYTE	W08
	BYTE		        Dn4 
	BYTE	W08
	BYTE		N12     Dn2 
	BYTE		N07     Dn3 
	BYTE	W08
	BYTE		        An3 
	BYTE	W08
	BYTE		        Dn4 
	BYTE	W08
	BYTE		N12     An1 
	BYTE		N07     Dn3 
	BYTE	W08
	BYTE		        An3 
	BYTE	W08
	BYTE		        Dn4 
	BYTE	W08
	BYTE	PEND
// 066   ----------------------------------------
id_purpose_gba_11_066:
	BYTE		N12     Gn1   v100
	BYTE		N07     Bn2 
	BYTE	W08
	BYTE		        Gn2 
	BYTE	W08
	BYTE		        Dn3 
	BYTE	W08
	BYTE		N12     Gn1 
	BYTE		N07     Bn2 
	BYTE	W08
	BYTE		        Gn2 
	BYTE	W08
	BYTE		        Dn3 
	BYTE	W08
	BYTE		N12     Bn1 
	BYTE		N07     Bn2 
	BYTE	W08
	BYTE		        Gn2 
	BYTE	W08
	BYTE		        Dn3 
	BYTE	W08
	BYTE		N12     Dn2 
	BYTE		N07     Bn2 
	BYTE	W08
	BYTE		        Gn2 
	BYTE	W08
	BYTE		        Dn3 
	BYTE	W08
	BYTE	PEND
// 067   ----------------------------------------
	BYTE		N12     Cs2 
	BYTE		N07     Bn2 
	BYTE	W08
	BYTE		        Gn2 
	BYTE	W08
	BYTE		        Dn3 
	BYTE	W08
	BYTE		N12     Dn2 
	BYTE		N07     Bn2 
	BYTE	W08
	BYTE		        Gn2 
	BYTE	W08
	BYTE		        Dn3 
	BYTE	W08
	BYTE		N12     En2 
	BYTE		N07     Bn2 
	BYTE	W08
	BYTE		        Gn2 
	BYTE	W08
	BYTE		        Dn3 
	BYTE	W08
	BYTE		N12     Cs2 
	BYTE		N07     Gn3 
	BYTE	W08
	BYTE		        Dn3 
	BYTE	W08
	BYTE		        Bn2 
	BYTE	W08
// 068   ----------------------------------------
id_purpose_gba_11_068:
	BYTE		N12     As1   v100
	BYTE		N07     As2 
	BYTE	W08
	BYTE		        Fs2 
	BYTE	W08
	BYTE		        As2 
	BYTE	W08
	BYTE		N12     Bn1 
	BYTE		N07     Fs3 
	BYTE	W08
	BYTE		        Cs3 
	BYTE	W08
	BYTE		        Fs3 
	BYTE	W08
	BYTE		N12     Cs2 
	BYTE		N07     Bn3 
	BYTE	W08
	BYTE		        Fs3 
	BYTE	W08
	BYTE		        Bn3 
	BYTE	W08
	BYTE		N12     As1 
	BYTE		N07     Dn4 
	BYTE	W08
	BYTE		        Bn3 
	BYTE	W08
	BYTE		        Dn4 
	BYTE	W08
	BYTE	PEND
// 069   ----------------------------------------
id_purpose_gba_11_069:
	BYTE		N12     Fs1   v100
	BYTE		N07     As3 
	BYTE	W08
	BYTE		        Cs4 
	BYTE	W08
	BYTE		        As3 
	BYTE	W08
	BYTE		N12     Gs1 
	BYTE		N07     Fs3 
	BYTE	W08
	BYTE		        As3 
	BYTE	W08
	BYTE		        Fs3 
	BYTE	W08
	BYTE		N12     As1 
	BYTE		N07     Dn3 
	BYTE	W08
	BYTE		        Fs3 
	BYTE	W08
	BYTE		        Dn3 
	BYTE	W08
	BYTE		N12     Cs2 
	BYTE		N07     Fs3 
	BYTE	W08
	BYTE		        Cs3 
	BYTE	W08
	BYTE		        Fs2 
	BYTE	W08
	BYTE	PEND
// 070   ----------------------------------------
	BYTE		N12     Bn1 
	BYTE		N07     Bn2 
	BYTE	W08
	BYTE		        Dn3 
	BYTE	W08
	BYTE		        Fs3 
	BYTE	W08
	BYTE		N12     Bn1 
	BYTE		N07     Bn2 
	BYTE	W08
	BYTE		        Dn3 
	BYTE	W08
	BYTE		        Fs3 
	BYTE	W08
	BYTE		N12     Cs2 
	BYTE		N07     Bn2 
	BYTE	W08
	BYTE		        Dn3 
	BYTE	W08
	BYTE		        Fs3 
	BYTE	W08
	BYTE		N12     Dn2 
	BYTE		N07     Bn2 
	BYTE	W08
	BYTE		        Dn3 
	BYTE	W08
	BYTE		        Fs3 
	BYTE	W08
// 071   ----------------------------------------
	BYTE	PATT
	 POIN2	id_purpose_gba_11_063
// 072   ----------------------------------------
	BYTE	PATT
	 POIN2	id_purpose_gba_11_064
// 073   ----------------------------------------
	BYTE	PATT
	 POIN2	id_purpose_gba_11_065
// 074   ----------------------------------------
	BYTE	PATT
	 POIN2	id_purpose_gba_11_066
// 075   ----------------------------------------
id_purpose_gba_11_075:
	BYTE		N12     Cs2   v100
	BYTE		N07     Bn2 
	BYTE	W08
	BYTE		        En3 
	BYTE	W08
	BYTE		        An3 
	BYTE	W08
	BYTE		N12     Dn2 
	BYTE		N07     Cs4 
	BYTE	W08
	BYTE		        An3 
	BYTE	W08
	BYTE		        En3 
	BYTE	W08
	BYTE		N12     En2 
	BYTE		N07     An3 
	BYTE	W08
	BYTE		        Cs4 
	BYTE	W08
	BYTE		        En4 
	BYTE	W08
	BYTE		N12     Cs2 
	BYTE		N07     Gn4 
	BYTE	W08
	BYTE		        En4 
	BYTE	W08
	BYTE		        Cs4 
	BYTE	W08
	BYTE	PEND
// 076   ----------------------------------------
	BYTE	PATT
	 POIN2	id_purpose_gba_11_068
// 077   ----------------------------------------
	BYTE	PATT
	 POIN2	id_purpose_gba_11_069
// 078   ----------------------------------------
	BYTE		N12     Fs1   v100
	BYTE		N07     Fs3 
	BYTE	W08
	BYTE		        Dn3 
	BYTE	W08
	BYTE		        Bn2 
	BYTE	W08
	BYTE		N12     Bn1 
	BYTE		N07     Fs3 
	BYTE	W08
	BYTE		        Dn3 
	BYTE	W08
	BYTE		        Bn2 
	BYTE	W08
	BYTE		N12     Cs2 
	BYTE		N07     Fs3 
	BYTE	W08
	BYTE		        Dn3 
	BYTE	W08
	BYTE		        Bn2 
	BYTE	W08
	BYTE		N12     Dn2 
	BYTE		N07     Fs3 
	BYTE	W08
	BYTE		        Dn3 
	BYTE	W08
	BYTE		        Bn2 
	BYTE	W08
// 079   ----------------------------------------
	BYTE		N12     En2 
	BYTE		N07     Gn3 
	BYTE	W08
	BYTE		        Dn3 
	BYTE	W08
	BYTE		        Bn2 
	BYTE	W08
	BYTE		N12     Dn2 
	BYTE		N07     Gn3 
	BYTE	W08
	BYTE		        Dn3 
	BYTE	W08
	BYTE		        Bn2 
	BYTE	W08
	BYTE		N12     Cs2 
	BYTE		N07     Gn3 
	BYTE	W08
	BYTE		        Dn3 
	BYTE	W08
	BYTE		        Bn2 
	BYTE	W08
	BYTE		N12     Gn1 
	BYTE		N07     Gn3 
	BYTE	W08
	BYTE		        Dn3 
	BYTE	W08
	BYTE		        Bn2 
	BYTE	W08
// 080   ----------------------------------------
	BYTE		N12     An1 
	BYTE	W08
	BYTE		N07     En2 
	BYTE	W08
	BYTE		        An2 
	BYTE	W08
	BYTE		N12     Bn1 
	BYTE		N07     An2 
	BYTE	W08
	BYTE		        En3 
	BYTE	W08
	BYTE		        An3 
	BYTE	W08
	BYTE		N12     Cs2 
	BYTE		N07     An2 
	BYTE	W08
	BYTE		        En3 
	BYTE	W08
	BYTE		        An3 
	BYTE	W08
	BYTE		N12     En2 
	BYTE		N07     An2 
	BYTE	W08
	BYTE		        En3 
	BYTE	W08
	BYTE		        An3 
	BYTE	W08
// 081   ----------------------------------------
	BYTE	PATT
	 POIN2	id_purpose_gba_11_065
// 082   ----------------------------------------
	BYTE	PATT
	 POIN2	id_purpose_gba_11_066
// 083   ----------------------------------------
	BYTE	PATT
	 POIN2	id_purpose_gba_11_075
// 084   ----------------------------------------
	BYTE	PATT
	 POIN2	id_purpose_gba_11_068
// 085   ----------------------------------------
	BYTE		N12     Fs1   v100
	BYTE		N07     Dn4 
	BYTE	W08
	BYTE		        As3 
	BYTE	W08
	BYTE		        Dn3 
	BYTE	W08
	BYTE		N12     Gs1 
	BYTE		N07     Fs3 
	BYTE	W08
	BYTE		        As3 
	BYTE	W08
	BYTE		        Dn3 
	BYTE	W08
	BYTE		N12     As1 
	BYTE		N07     Fs3 
	BYTE	W08
	BYTE		        Dn3 
	BYTE	W08
	BYTE		        Cs3 
	BYTE	W08
	BYTE		N12     Cs2 
	BYTE		N07     Fs2 
	BYTE	W08
	BYTE		        Cs3 
	BYTE	W08
	BYTE		        Fs2 
	BYTE	W08
// 086   ----------------------------------------
	BYTE		N72     Gn1 
	BYTE	W06
	BYTE		N03     Cs4 
	BYTE	W06
	BYTE		        Dn4 
	BYTE	W06
	BYTE		        An4 
	BYTE	W06
	BYTE		        Dn4 
	BYTE	W06
	BYTE		        Cs4 
	BYTE	W06
	BYTE		        Dn4 
	BYTE	W06
	BYTE		        An4 
	BYTE	W06
	BYTE		        Dn4 
	BYTE	W06
	BYTE		        Cs4 
	BYTE	W06
	BYTE		        Dn4 
	BYTE	W06
	BYTE		        An4 
	BYTE	W06
	BYTE		N72     En1 
	BYTE	W06
	BYTE		N03     Cs4 
	BYTE	W06
	BYTE		        Dn4 
	BYTE	W06
	BYTE		        An4 
	BYTE	W06
	BYTE		        Dn4 
	BYTE	W06
	BYTE		        Cs4 
	BYTE	W06
	BYTE		        Dn4 
	BYTE	W06
	BYTE		        An4 
	BYTE	W06
	BYTE		        Dn4 
	BYTE	W06
	BYTE		        Cs4 
	BYTE	W06
	BYTE		        Dn4 
	BYTE	W06
	BYTE		        An4 
	BYTE	W06
// 087   ----------------------------------------
	BYTE		N72     Fs1 
	BYTE	W06
	BYTE		N03     Fs4 
	BYTE	W06
	BYTE		        Gn4 
	BYTE	W06
	BYTE		        Dn5 
	BYTE	W06
	BYTE		        Gn4 
	BYTE	W06
	BYTE		        Fs4 
	BYTE	W06
	BYTE		        Gn4 
	BYTE	W06
	BYTE		        Dn5 
	BYTE	W06
	BYTE		        Gn4 
	BYTE	W06
	BYTE		        Fs4 
	BYTE	W06
	BYTE		        Gn4 
	BYTE	W06
	BYTE		        Dn5 
	BYTE	W06
	BYTE		N72     En1 
	BYTE	W06
	BYTE		N03     Gn4 
	BYTE	W06
	BYTE		        An4 
	BYTE	W06
	BYTE		        En5 
	BYTE	W06
	BYTE		        An4 
	BYTE	W06
	BYTE		        Gn4 
	BYTE	W06
	BYTE		        An4 
	BYTE	W06
	BYTE		        En5 
	BYTE	W06
	BYTE		        An4 
	BYTE	W06
	BYTE		        Gn4 
	BYTE	W06
	BYTE		        An4 
	BYTE	W06
	BYTE		        En5 
	BYTE	W06
// 088   ----------------------------------------
	BYTE		N72     Dn1 
	BYTE	W06
	BYTE		N03     An4 
	BYTE	W06
	BYTE		        Bn4 
	BYTE	W06
	BYTE		        Fs5 
	BYTE	W06
	BYTE		        Bn4 
	BYTE	W06
	BYTE		        An4 
	BYTE	W06
	BYTE		        Bn4 
	BYTE	W06
	BYTE		        Fs5 
	BYTE	W06
	BYTE		        Bn4 
	BYTE	W06
	BYTE		        An4 
	BYTE	W06
	BYTE		        Bn4 
	BYTE	W06
	BYTE		        Fs5 
	BYTE	W06
	BYTE		N72     En1 
	BYTE	W06
	BYTE		N03     Bn4 
	BYTE	W06
	BYTE		        Cs5 
	BYTE	W06
	BYTE		        Dn5 
	BYTE	W06
	BYTE		        An5 
	BYTE	W06
	BYTE		        En5 
	BYTE	W06
	BYTE		        Dn5 
	BYTE	W06
	BYTE		        Cs5 
	BYTE	W06
	BYTE		        An5 
	BYTE	W06
	BYTE		        En5 
	BYTE	W06
	BYTE		        Dn5 
	BYTE	W06
	BYTE		        Cs5 
	BYTE	W06
// 089   ----------------------------------------
	BYTE		TIE     Fs1 
	BYTE	W06
	BYTE		N03     Cs5 
	BYTE	W06
	BYTE		        Dn5 
	BYTE	W06
	BYTE		        En5 
	BYTE	W06
	BYTE		        Cs6 
	BYTE	W06
	BYTE		        An5 
	BYTE	W06
	BYTE		        En5 
	BYTE	W06
	BYTE		        Cs5 
	BYTE	W06
	BYTE		        An5 
	BYTE	W06
	BYTE		        En5 
	BYTE	W06
	BYTE		        Cs5 
	BYTE	W06
	BYTE		        An4 
	BYTE	W06
	BYTE		        En5 
	BYTE	W06
	BYTE		        Cs5 
	BYTE	W06
	BYTE		        An4 
	BYTE	W06
	BYTE		        En4 
	BYTE	W06
	BYTE		        Cs5 
	BYTE	W06
	BYTE		        An4 
	BYTE	W06
	BYTE		        En4 
	BYTE	W06
	BYTE		        Cs4 
	BYTE	W06
	BYTE		        An4 
	BYTE	W06
	BYTE		        En4 
	BYTE	W06
	BYTE		        Cs4 
	BYTE	W06
	BYTE		        An3 
	BYTE	W06
	BYTE		EOT     Fs1 
// 090   ----------------------------------------
	BYTE		TIE     An1 
	BYTE	W03
	BYTE	W01
	BYTE	W03
	BYTE	W02
	BYTE	W03
	BYTE	W01
	BYTE	W03
	BYTE	W02
	BYTE	W03
	BYTE	W01
	BYTE	W03
	BYTE	W02
	BYTE	W03
	BYTE	W01
	BYTE	W03
	BYTE	W02
	BYTE	W03
	BYTE	W01
	BYTE	W03
	BYTE	W02
	BYTE	W03
	BYTE	W01
	BYTE	W03
	BYTE	W02
	BYTE	W01
	BYTE	W03
	BYTE	W02
	BYTE	W03
	BYTE	W01
	BYTE	W03
	BYTE	W02
	BYTE	W03
	BYTE	W01
	BYTE	W03
	BYTE	W02
	BYTE	W03
	BYTE	W01
	BYTE	W03
	BYTE	W02
	BYTE	W03
	BYTE	W01
	BYTE	W03
	BYTE	W02
	BYTE	W03
	BYTE	W01
	BYTE	W03
	BYTE	W02
	BYTE	W01
	BYTE	W03
	BYTE	W02
	BYTE	W03
	BYTE	W01
	BYTE	W03
	BYTE	W02
	BYTE	W03
	BYTE	W01
	BYTE	W03
	BYTE	W02
	BYTE	W03
	BYTE	W01
	BYTE	W03
	BYTE	W01
	BYTE	W07
	BYTE		EOT   
	BYTE	GoTo
	 POIN2	id_purpose_gba_11_B1
id_purpose_gba_11_B2:
// 091   ----------------------------------------
	BYTE		N72     Gn1   v100
	BYTE	W32
	BYTE	W40
	BYTE		        Ds1 
	BYTE	W72
// 092   ----------------------------------------
	BYTE	PATT
	 POIN2	id_purpose_gba_11_004
	BYTE		EOT     Fn1 
// 093   ----------------------------------------
	BYTE	PATT
	 POIN2	id_purpose_gba_11_003
// 094   ----------------------------------------
	BYTE	PATT
	 POIN2	id_purpose_gba_11_006
// 095   ----------------------------------------
	BYTE	PATT
	 POIN2	id_purpose_gba_11_007
// 096   ----------------------------------------
	BYTE		N72     Gn1   v100
	BYTE	W03
	BYTE	W03
	BYTE	W01
	BYTE	W03
	BYTE	W02
	BYTE	W03
	BYTE	W01
	BYTE	W03
	BYTE	W02
	BYTE	W03
	BYTE	W01
	BYTE	W03
	BYTE	W02
	BYTE	W03
	BYTE	W01
	BYTE	W03
	BYTE	W02
	BYTE	W03
	BYTE	W01
	BYTE	W03
	BYTE	W02
	BYTE	W03
	BYTE	W01
	BYTE	W03
	BYTE	W02
	BYTE	W03
	BYTE	W01
	BYTE	W03
	BYTE	W02
	BYTE	W03
	BYTE	W01
	BYTE	W02
	BYTE		        Dn1 
	BYTE	W01
	BYTE	W02
	BYTE	W03
	BYTE	W01
	BYTE	W03
	BYTE	W02
	BYTE	W03
	BYTE	W01
	BYTE	W03
	BYTE	W02
	BYTE	W03
	BYTE	W01
	BYTE	W03
	BYTE	W02
	BYTE	W03
	BYTE	W01
	BYTE	W03
	BYTE	W02
	BYTE	W03
	BYTE	W01
	BYTE	W03
	BYTE	W02
	BYTE	W03
	BYTE	W01
	BYTE	W03
	BYTE	W02
	BYTE	W03
	BYTE	W01
	BYTE	W03
	BYTE	W02
	BYTE	W03
	BYTE	W01
	BYTE	W02
// 097   ----------------------------------------
	BYTE		        Fn1 
	BYTE	W01
	BYTE	W02
	BYTE	W03
	BYTE	W01
	BYTE	W03
	BYTE	W02
	BYTE	W03
	BYTE	W01
	BYTE	W03
	BYTE	W02
	BYTE	W03
	BYTE	W01
	BYTE	W03
	BYTE	W02
	BYTE	W03
	BYTE	W01
	BYTE	W03
	BYTE	W02
	BYTE	W03
	BYTE	W01
	BYTE	W03
	BYTE	W02
	BYTE	W03
	BYTE	W01
	BYTE	W03
	BYTE	W02
	BYTE	W03
	BYTE	W01
	BYTE	W03
	BYTE	W02
	BYTE	W03
	BYTE	W01
	BYTE	W02
	BYTE		N48     As0 
	BYTE	W01
	BYTE	W02
	BYTE	W03
	BYTE	W01
	BYTE	W03
	BYTE	W02
	BYTE	W03
	BYTE	W01
	BYTE	W03
	BYTE	W02
	BYTE	W03
	BYTE	W01
	BYTE	W03
	BYTE	W02
	BYTE	W03
	BYTE	W01
	BYTE	W03
	BYTE	W02
	BYTE	W03
	BYTE	W01
	BYTE	W03
	BYTE	W02
	BYTE		N24     Fn1 
	BYTE	W03
	BYTE	W01
	BYTE	W03
	BYTE	W02
	BYTE	W03
	BYTE	W01
	BYTE	W03
	BYTE	W02
	BYTE	W03
	BYTE	W01
	BYTE	W02
// 098   ----------------------------------------
	BYTE		N48     Cn1 
	BYTE	W96
	BYTE	W13
	BYTE	W24
	BYTE	FINE

//**************** Track 12 (Midi-Chn.12) ****************//

id_purpose_gba_12:
	BYTE		VOL     127*id_purpose_gba_mvl/mxv
	BYTE	KEYSH   id_purpose_gba_key+0
// 000   ----------------------------------------
	BYTE		VOICE   119
	BYTE	W22
	BYTE	W02
// 001   ----------------------------------------
	BYTE		N48     Bn2   v100
	BYTE	W01
	BYTE	W02
	BYTE	W01
	BYTE	W02
	BYTE	W01
	BYTE	W02
	BYTE	W01
	BYTE	W02
	BYTE	W01
	BYTE	W02
	BYTE	W01
	BYTE	W02
	BYTE	W01
	BYTE	W02
	BYTE	W01
	BYTE	W02
// 002   ----------------------------------------
	BYTE	W01
	BYTE	W02
	BYTE	W01
	BYTE	W02
	BYTE	W01
	BYTE	W02
	BYTE	W01
	BYTE	W02
	BYTE	W01
	BYTE	W02
	BYTE	W01
	BYTE	W02
	BYTE	W01
	BYTE	W02
	BYTE	W01
	BYTE	W01
	BYTE	W01
id_purpose_gba_12_B1:
// 003   ----------------------------------------
	BYTE	W96
	BYTE	W42
	BYTE		VOICE   47
	BYTE	W06
// 004   ----------------------------------------
	BYTE	W96
	BYTE	W48
// 005   ----------------------------------------
	BYTE	W96
	BYTE	W48
// 006   ----------------------------------------
	BYTE	W96
	BYTE	W48
// 007   ----------------------------------------
	BYTE	W96
	BYTE	W48
// 008   ----------------------------------------
	BYTE	W96
	BYTE	W48
// 009   ----------------------------------------
	BYTE	W96
	BYTE	W48
// 010   ----------------------------------------
	BYTE	W96
	BYTE	W48
// 011   ----------------------------------------
id_purpose_gba_12_011:
	BYTE		N10     Gn1   v100
	BYTE	W18
	BYTE		N10   
	BYTE	W30
	BYTE		N10   
	BYTE	W24
	BYTE		        Ds1 
	BYTE	W18
	BYTE		N10   
	BYTE	W30
	BYTE		N10   
	BYTE	W24
	BYTE	PEND
// 012   ----------------------------------------
id_purpose_gba_12_012:
	BYTE		N10     Fn1   v100
	BYTE	W18
	BYTE		N10   
	BYTE	W30
	BYTE		N10   
	BYTE	W24
	BYTE		N10   
	BYTE	W18
	BYTE		N10   
	BYTE	W30
	BYTE		N10   
	BYTE	W24
	BYTE	PEND
// 013   ----------------------------------------
	BYTE	PATT
	 POIN2	id_purpose_gba_12_011
// 014   ----------------------------------------
id_purpose_gba_12_014:
	BYTE		N10     As1   v100
	BYTE	W18
	BYTE		N10   
	BYTE	W30
	BYTE		N10   
	BYTE	W24
	BYTE		        Fn1 
	BYTE	W18
	BYTE		N10   
	BYTE	W30
	BYTE		N10   
	BYTE	W24
	BYTE	PEND
// 015   ----------------------------------------
	BYTE		        Bn0 
	BYTE	W18
	BYTE		N10   
	BYTE	W30
	BYTE		        Cn1 
	BYTE	W24
	BYTE		        Ds1 
	BYTE	W18
	BYTE		N10   
	BYTE	W30
	BYTE		        Fn1 
	BYTE	W24
// 016   ----------------------------------------
	BYTE		        Gn1 
	BYTE	W18
	BYTE		N10   
	BYTE	W30
	BYTE		N10   
	BYTE	W24
	BYTE		        Bn0 
	BYTE	W18
	BYTE		N10   
	BYTE	W30
	BYTE		N10   
	BYTE	W24
// 017   ----------------------------------------
	BYTE		        Cn1 
	BYTE	W18
	BYTE		N10   
	BYTE	W30
	BYTE		N10   
	BYTE	W24
	BYTE		N10   
	BYTE	W18
	BYTE		N10   
	BYTE	W30
	BYTE		        Fn1 
	BYTE	W24
// 018   ----------------------------------------
	BYTE		        Ds1 
	BYTE	W18
	BYTE		N10   
	BYTE	W30
	BYTE		N10   
	BYTE	W24
	BYTE		N10   
	BYTE	W18
	BYTE		N10   
	BYTE	W30
	BYTE		N10   
	BYTE	W24
// 019   ----------------------------------------
	BYTE	W96
	BYTE	W48
// 020   ----------------------------------------
	BYTE	W96
	BYTE	W48
// 021   ----------------------------------------
	BYTE	W96
	BYTE	W48
// 022   ----------------------------------------
	BYTE	W96
	BYTE	W48
// 023   ----------------------------------------
	BYTE	W96
	BYTE	W48
// 024   ----------------------------------------
	BYTE	W96
	BYTE	W48
// 025   ----------------------------------------
	BYTE	W96
	BYTE	W48
// 026   ----------------------------------------
	BYTE		N16     Fn1 
	BYTE	W18
	BYTE		N16   
	BYTE	W30
	BYTE		N21   
	BYTE	W24
	BYTE		N16   
	BYTE	W18
	BYTE		N16   
	BYTE	W30
	BYTE		N21   
	BYTE	W24
// 027   ----------------------------------------
	BYTE		N10     Ds1 
	BYTE	W18
	BYTE		N10   
	BYTE	W12
	BYTE		N05   
	BYTE	W06
	BYTE		N05   
	BYTE	W06
	BYTE		        Ds1   v080
	BYTE	W06
	BYTE		N10     Ds1   v100
	BYTE	W12
	BYTE		        Ds1   v080
	BYTE	W12
	BYTE		        Ds1   v100
	BYTE	W18
	BYTE		N10   
	BYTE	W12
	BYTE		N05   
	BYTE	W06
	BYTE		N05   
	BYTE	W06
	BYTE		        Ds1   v080
	BYTE		N02     Gn1   v100
	BYTE	W03
	BYTE		N02   
	BYTE	W03
	BYTE		N05     Ds1 
	BYTE		N21     Fn2 
	BYTE	W06
	BYTE		N05     Ds1 
	BYTE	W06
	BYTE		N10     Ds1   v080
	BYTE	W12
// 028   ----------------------------------------
	BYTE	PATT
	 POIN2	id_purpose_gba_12_011
// 029   ----------------------------------------
	BYTE	PATT
	 POIN2	id_purpose_gba_12_012
// 030   ----------------------------------------
	BYTE	PATT
	 POIN2	id_purpose_gba_12_011
// 031   ----------------------------------------
	BYTE	PATT
	 POIN2	id_purpose_gba_12_014
// 032   ----------------------------------------
	BYTE		N10     Cn1   v100
	BYTE	W18
	BYTE		N10   
	BYTE	W30
	BYTE		        Dn1 
	BYTE	W24
	BYTE		        Ds1 
	BYTE	W18
	BYTE		N10   
	BYTE	W30
	BYTE		        Fn1 
	BYTE	W24
// 033   ----------------------------------------
	BYTE		        Gn1 
	BYTE	W18
	BYTE		N10   
	BYTE	W30
	BYTE		N10   
	BYTE	W24
	BYTE		        Cs2 
	BYTE	W18
	BYTE		N10   
	BYTE	W30
	BYTE		N10   
	BYTE	W24
// 034   ----------------------------------------
	BYTE		        Cn2 
	BYTE	W18
	BYTE		N10   
	BYTE	W30
	BYTE		N10   
	BYTE	W24
	BYTE		        Bn1 
	BYTE	W18
	BYTE		N10   
	BYTE	W30
	BYTE		        Dn2 
	BYTE	W24
// 035   ----------------------------------------
id_purpose_gba_12_035:
	BYTE		N10     Ds1   v100
	BYTE	W18
	BYTE		N10   
	BYTE	W12
	BYTE		N05   
	BYTE	W06
	BYTE		N05   
	BYTE	W06
	BYTE		        Ds1   v080
	BYTE	W06
	BYTE		N10     Ds1   v100
	BYTE	W12
	BYTE		        Ds1   v080
	BYTE	W12
	BYTE		        Ds1   v100
	BYTE	W18
	BYTE		N10   
	BYTE	W12
	BYTE		N05   
	BYTE	W06
	BYTE		N05   
	BYTE	W06
	BYTE		        Ds1   v080
	BYTE	W06
	BYTE		        Ds1   v100
	BYTE	W06
	BYTE		N05   
	BYTE	W06
	BYTE		N10     Ds1   v080
	BYTE	W12
	BYTE	PEND
// 036   ----------------------------------------
	BYTE	PATT
	 POIN2	id_purpose_gba_12_035
// 037   ----------------------------------------
	BYTE	W96
	BYTE	W48
// 038   ----------------------------------------
	BYTE	W96
	BYTE	W48
// 039   ----------------------------------------
	BYTE	W96
	BYTE	W48
// 040   ----------------------------------------
	BYTE	W96
	BYTE	W48
// 041   ----------------------------------------
	BYTE	PATT
	 POIN2	id_purpose_gba_12_035
// 042   ----------------------------------------
	BYTE	PATT
	 POIN2	id_purpose_gba_12_035
// 043   ----------------------------------------
	BYTE	PATT
	 POIN2	id_purpose_gba_12_035
// 044   ----------------------------------------
	BYTE	PATT
	 POIN2	id_purpose_gba_12_035
// 045   ----------------------------------------
	BYTE		N10     Ds1   v100
	BYTE	W18
	BYTE		N10   
	BYTE	W12
	BYTE		N05   
	BYTE	W06
	BYTE		N05   
	BYTE	W06
	BYTE		        Ds1   v080
	BYTE	W06
	BYTE		N10     Ds1   v100
	BYTE	W12
	BYTE		        Ds1   v080
	BYTE	W12
	BYTE		N21     Ds1   v100
	BYTE	W24
	BYTE		N21   
	BYTE	W24
	BYTE		N21   
	BYTE	W24
// 046   ----------------------------------------
	BYTE	W96
// 047   ----------------------------------------
	BYTE	W96
// 048   ----------------------------------------
	BYTE	W96
// 049   ----------------------------------------
	BYTE	W96
// 050   ----------------------------------------
	BYTE	W96
// 051   ----------------------------------------
	BYTE	W96
// 052   ----------------------------------------
	BYTE	W96
// 053   ----------------------------------------
	BYTE	W96
// 054   ----------------------------------------
	BYTE	W96
// 055   ----------------------------------------
	BYTE	W96
// 056   ----------------------------------------
	BYTE	W96
// 057   ----------------------------------------
	BYTE	W96
// 058   ----------------------------------------
	BYTE	W96
// 059   ----------------------------------------
	BYTE	W96
// 060   ----------------------------------------
	BYTE	W96
// 061   ----------------------------------------
	BYTE	W96
// 062   ----------------------------------------
	BYTE	W96
// 063   ----------------------------------------
	BYTE	W96
// 064   ----------------------------------------
	BYTE	W96
// 065   ----------------------------------------
	BYTE	W96
// 066   ----------------------------------------
	BYTE	W96
// 067   ----------------------------------------
	BYTE	W96
// 068   ----------------------------------------
	BYTE	W96
// 069   ----------------------------------------
	BYTE	W96
// 070   ----------------------------------------
	BYTE	W96
// 071   ----------------------------------------
	BYTE	W96
// 072   ----------------------------------------
	BYTE	W96
// 073   ----------------------------------------
	BYTE	W96
// 074   ----------------------------------------
	BYTE	W96
// 075   ----------------------------------------
	BYTE	W96
// 076   ----------------------------------------
	BYTE	W96
// 077   ----------------------------------------
	BYTE	W48
	BYTE		N07     Fs1 
	BYTE	W08
	BYTE		N07   
	BYTE	W08
	BYTE		N07   
	BYTE	W08
	BYTE		N07   
	BYTE	W08
	BYTE		N07   
	BYTE	W08
	BYTE		N07   
	BYTE	W08
// 078   ----------------------------------------
	BYTE		N21     Bn1 
	BYTE	W24
	BYTE		N07   
	BYTE	W08
	BYTE		N07   
	BYTE	W08
	BYTE		N07   
	BYTE	W08
	BYTE		N21   
	BYTE	W24
	BYTE		N07   
	BYTE	W08
	BYTE		N07   
	BYTE	W08
	BYTE		N07   
	BYTE	W08
// 079   ----------------------------------------
	BYTE		N21     En2 
	BYTE	W24
	BYTE		N07   
	BYTE	W08
	BYTE		N07   
	BYTE	W08
	BYTE		N07   
	BYTE	W08
	BYTE		N21   
	BYTE	W24
	BYTE		N07   
	BYTE	W08
	BYTE		N07   
	BYTE	W08
	BYTE		N07   
	BYTE	W08
// 080   ----------------------------------------
	BYTE		N21     An1 
	BYTE	W24
	BYTE		N07   
	BYTE	W08
	BYTE		N07   
	BYTE	W08
	BYTE		N07   
	BYTE	W08
	BYTE		N21   
	BYTE	W24
	BYTE		N07   
	BYTE	W08
	BYTE		N07   
	BYTE	W08
	BYTE		N07   
	BYTE	W08
// 081   ----------------------------------------
	BYTE		N21     Dn2 
	BYTE	W24
	BYTE		N07   
	BYTE	W08
	BYTE		N07   
	BYTE	W08
	BYTE		N07   
	BYTE	W08
	BYTE		N21   
	BYTE	W24
	BYTE		N21   
	BYTE	W24
// 082   ----------------------------------------
	BYTE		        Gn1 
	BYTE	W24
	BYTE		N07   
	BYTE	W08
	BYTE		N07   
	BYTE	W08
	BYTE		N07   
	BYTE	W08
	BYTE		N21   
	BYTE	W24
	BYTE		N07   
	BYTE	W08
	BYTE		N07   
	BYTE	W08
	BYTE		N07   
	BYTE	W08
// 083   ----------------------------------------
	BYTE		N21     Cs2 
	BYTE	W24
	BYTE		N07   
	BYTE	W08
	BYTE		N07   
	BYTE	W08
	BYTE		N07   
	BYTE	W08
	BYTE		N21   
	BYTE	W24
	BYTE		N21   
	BYTE	W24
// 084   ----------------------------------------
	BYTE		        Cn2 
	BYTE	W24
	BYTE		N07   
	BYTE	W08
	BYTE		N07   
	BYTE	W08
	BYTE		N07   
	BYTE	W08
	BYTE		N21   
	BYTE	W24
	BYTE		N07   
	BYTE	W08
	BYTE		N07   
	BYTE	W08
	BYTE		N07   
	BYTE	W08
// 085   ----------------------------------------
	BYTE		N21     Fs1 
	BYTE	W24
	BYTE		N07   
	BYTE	W08
	BYTE		N07   
	BYTE	W08
	BYTE		N07   
	BYTE	W08
	BYTE		N21   
	BYTE	W24
	BYTE		        Cs2 
	BYTE	W24
// 086   ----------------------------------------
id_purpose_gba_12_086:
	BYTE		N16     Gn1   v100
	BYTE	W18
	BYTE		N10   
	BYTE	W12
	BYTE		N05   
	BYTE	W06
	BYTE		        Gn1   v080
	BYTE	W06
	BYTE		N05   
	BYTE	W06
	BYTE		N21     Gn1   v100
	BYTE	W24
	BYTE		N10     Ds1 
	BYTE	W18
	BYTE		N10   
	BYTE	W12
	BYTE		N05   
	BYTE	W06
	BYTE		N05   
	BYTE	W06
	BYTE		        Ds1   v080
	BYTE	W06
	BYTE		N21     Ds1   v100
	BYTE	W24
	BYTE	PEND
// 087   ----------------------------------------
	BYTE		N16     Fs1 
	BYTE	W18
	BYTE		N10   
	BYTE	W12
	BYTE		N05   
	BYTE	W06
	BYTE		        Fs1   v080
	BYTE	W06
	BYTE		N05   
	BYTE	W06
	BYTE		N21     Fs1   v100
	BYTE	W24
	BYTE		N10     Ds1 
	BYTE	W18
	BYTE		N10   
	BYTE	W12
	BYTE		N05   
	BYTE	W06
	BYTE		N05   
	BYTE	W06
	BYTE		        Ds1   v080
	BYTE	W06
	BYTE		N21     Ds1   v100
	BYTE	W24
// 088   ----------------------------------------
	BYTE	PATT
	 POIN2	id_purpose_gba_12_086
// 089   ----------------------------------------
	BYTE		N16     Fs1   v100
	BYTE	W18
	BYTE		N10   
	BYTE	W12
	BYTE		N05   
	BYTE	W06
	BYTE		        Fs1   v080
	BYTE	W06
	BYTE		N05   
	BYTE	W06
	BYTE		N21     Fs1   v100
	BYTE	W24
	BYTE		N16   
	BYTE	W18
	BYTE		N10   
	BYTE	W12
	BYTE		N05   
	BYTE	W06
	BYTE		        Fs1   v080
	BYTE	W06
	BYTE		N05   
	BYTE	W06
	BYTE		N21     Fs1   v100
	BYTE	W24
// 090   ----------------------------------------
	BYTE	W96
	BYTE	W48
	BYTE	GoTo
	 POIN2	id_purpose_gba_12_B1
id_purpose_gba_12_B2:
// 091   ----------------------------------------
	BYTE	W96
	BYTE	W48
// 092   ----------------------------------------
	BYTE	W96
	BYTE	W48
// 093   ----------------------------------------
	BYTE	W96
	BYTE	W48
// 094   ----------------------------------------
	BYTE	W96
	BYTE	W48
// 095   ----------------------------------------
	BYTE	W96
	BYTE	W48
// 096   ----------------------------------------
	BYTE	W96
	BYTE	W48
// 097   ----------------------------------------
	BYTE	W96
	BYTE	W48
// 098   ----------------------------------------
	BYTE	W96
	BYTE	W36
	BYTE	W01
	BYTE	FINE

//**************** Track 13 (Midi-Chn.13) ****************//

id_purpose_gba_13:
	BYTE		VOL     127*id_purpose_gba_mvl/mxv
	BYTE	KEYSH   id_purpose_gba_key+0
// 000   ----------------------------------------
	BYTE		VOICE   45
	BYTE	W24
// 001   ----------------------------------------
	BYTE	W24
// 002   ----------------------------------------
	BYTE	W24
id_purpose_gba_13_B1:
// 003   ----------------------------------------
	BYTE	W96
	BYTE	W48
// 004   ----------------------------------------
id_purpose_gba_13_004:
	BYTE	W60
	BYTE		N02     Fn4   v100
	BYTE	W03
	BYTE		        Gn4 
	BYTE	W03
	BYTE		        An4 
	BYTE	W03
	BYTE		        Cn5 
	BYTE	W03
	BYTE		N21     Fn5 
	BYTE	W72
	BYTE	PEND
// 005   ----------------------------------------
	BYTE	W96
	BYTE	W48
// 006   ----------------------------------------
	BYTE	W96
	BYTE	W48
// 007   ----------------------------------------
id_purpose_gba_13_007:
	BYTE		N21     Ds4   v100
	BYTE	W48
	BYTE		        Fn4 
	BYTE	W24
	BYTE		        Gn4 
	BYTE	W48
	BYTE		        An4 
	BYTE	W18
	BYTE		N02     Dn4 
	BYTE	W03
	BYTE		        An4 
	BYTE	W03
	BYTE	PEND
// 008   ----------------------------------------
	BYTE		N21     As4 
	BYTE	W66
	BYTE		N02     Cn4 
	BYTE	W03
	BYTE		        Fn4 
	BYTE	W03
	BYTE		N21     An4 
	BYTE	W72
// 009   ----------------------------------------
	BYTE	W96
	BYTE	W48
// 010   ----------------------------------------
	BYTE	W60
	BYTE	W03
	BYTE		N02     Fn4 
	BYTE	W03
	BYTE		        Gn4 
	BYTE	W03
	BYTE		        An4 
	BYTE	W03
	BYTE		N21     Cn5 
	BYTE	W72
// 011   ----------------------------------------
	BYTE	W96
	BYTE	W48
// 012   ----------------------------------------
	BYTE	PATT
	 POIN2	id_purpose_gba_13_004
// 013   ----------------------------------------
	BYTE	W96
	BYTE	W48
// 014   ----------------------------------------
	BYTE	W96
	BYTE	W48
// 015   ----------------------------------------
	BYTE	PATT
	 POIN2	id_purpose_gba_13_007
// 016   ----------------------------------------
id_purpose_gba_13_016:
	BYTE		N21     As4   v100
	BYTE	W66
	BYTE		N02     Fn5 
	BYTE	W03
	BYTE		        Cn5 
	BYTE	W03
	BYTE		N21     Fn4 
	BYTE	W60
	BYTE	W03
	BYTE		N02   
	BYTE	W03
	BYTE		        Gn4 
	BYTE	W03
	BYTE		        Cn5 
	BYTE	W03
	BYTE	PEND
// 017   ----------------------------------------
id_purpose_gba_13_017:
	BYTE		N21     Ds5   v100
	BYTE	W96
	BYTE	W48
	BYTE	PEND
// 018   ----------------------------------------
	BYTE	W84
	BYTE	W03
	BYTE		N02     Fn5 
	BYTE	W03
	BYTE		        Dn5 
	BYTE	W03
	BYTE		        Cn5 
	BYTE	W03
	BYTE		N21     Fn4 
	BYTE	W42
	BYTE		N02     Gs4 
	BYTE	W03
	BYTE		        As4 
	BYTE	W03
// 019   ----------------------------------------
	BYTE		N21     Bn4 
	BYTE	W60
	BYTE	W03
	BYTE		N02     Ds4 
	BYTE	W03
	BYTE		        Fs4 
	BYTE	W03
	BYTE		N21     As4 
	BYTE	W68
	BYTE	W01
	BYTE		N02     Cs4 
	BYTE	W03
	BYTE		        En4 
	BYTE	W03
// 020   ----------------------------------------
	BYTE		N21     An4 
	BYTE	W66
	BYTE		N02     En4 
	BYTE	W03
	BYTE		        Gs4 
	BYTE	W03
	BYTE		N21     Bn4 
	BYTE	W72
// 021   ----------------------------------------
	BYTE	W96
	BYTE	W48
// 022   ----------------------------------------
	BYTE	W60
	BYTE		N02     An3 
	BYTE	W03
	BYTE		        Dn4 
	BYTE	W03
	BYTE		        En4 
	BYTE	W03
	BYTE		        An4 
	BYTE	W03
	BYTE		        En5 
	BYTE	W03
	BYTE		        Cs5 
	BYTE	W03
	BYTE		        Bn4 
	BYTE	W03
	BYTE		        An4 
	BYTE	W03
	BYTE		        En4 
	BYTE	W03
	BYTE		        Cs4 
	BYTE	W03
	BYTE		        Bn3 
	BYTE	W03
	BYTE		N02   
	BYTE	W03
	BYTE		        An3 
	BYTE	W03
	BYTE		        En3 
	BYTE	W03
	BYTE		        Cs3 
	BYTE	W03
	BYTE		        Bn2 
	BYTE	W03
	BYTE		        An2 
	BYTE	W03
	BYTE		        En2 
	BYTE	W24
	BYTE	W03
	BYTE		        Cn4 
	BYTE	W03
	BYTE		        Fn4 
	BYTE	W03
// 023   ----------------------------------------
	BYTE		N21     Cn5 
	BYTE	W96
	BYTE	W42
	BYTE		N03     An3 
	BYTE	W03
	BYTE		        En4 
	BYTE	W03
// 024   ----------------------------------------
	BYTE		N21     Dn5 
	BYTE	W96
	BYTE	W48
// 025   ----------------------------------------
	BYTE	W96
	BYTE	W48
// 026   ----------------------------------------
	BYTE	W96
	BYTE	W48
// 027   ----------------------------------------
	BYTE	W96
	BYTE	W48
// 028   ----------------------------------------
	BYTE	W96
	BYTE	W36
	BYTE		N02     Fn3 
	BYTE	W03
	BYTE		        Gn3 
	BYTE	W03
	BYTE		        An3 
	BYTE	W03
	BYTE		        Cn4 
	BYTE	W03
// 029   ----------------------------------------
	BYTE		N21     Fn4 
	BYTE	W96
	BYTE	W48
// 030   ----------------------------------------
	BYTE	W96
	BYTE	W48
// 031   ----------------------------------------
	BYTE	W96
	BYTE	W48
// 032   ----------------------------------------
	BYTE	PATT
	 POIN2	id_purpose_gba_13_007
// 033   ----------------------------------------
	BYTE	PATT
	 POIN2	id_purpose_gba_13_016
// 034   ----------------------------------------
	BYTE	PATT
	 POIN2	id_purpose_gba_13_017
// 035   ----------------------------------------
	BYTE	W84
	BYTE	W03
	BYTE		N02     Fn5   v100
	BYTE	W03
	BYTE		        Dn5 
	BYTE	W03
	BYTE		        Cn5 
	BYTE	W03
	BYTE		N21     Fn4 
	BYTE	W48
// 036   ----------------------------------------
	BYTE	W84
	BYTE	W03
	BYTE		N02     Ds4 
	BYTE	W03
	BYTE		        Gs4 
	BYTE	W03
	BYTE		        As4 
	BYTE	W03
	BYTE		N21     Ds5 
	BYTE	W48
// 037   ----------------------------------------
	BYTE	W96
	BYTE	W48
// 038   ----------------------------------------
	BYTE	W96
	BYTE	W48
// 039   ----------------------------------------
	BYTE	W96
	BYTE	W48
// 040   ----------------------------------------
	BYTE		        Ds4   v092
	BYTE	W24
	BYTE		N21   
	BYTE	W24
	BYTE		N21   
	BYTE	W24
	BYTE		N21   
	BYTE	W24
	BYTE		N21   
	BYTE	W24
	BYTE		N21   
	BYTE	W24
// 041   ----------------------------------------
	BYTE	W96
	BYTE	W48
// 042   ----------------------------------------
	BYTE	W96
	BYTE	W48
// 043   ----------------------------------------
	BYTE	W96
	BYTE	W48
// 044   ----------------------------------------
	BYTE	W96
	BYTE	W48
// 045   ----------------------------------------
	BYTE	W96
	BYTE	W48
// 046   ----------------------------------------
	BYTE	W96
// 047   ----------------------------------------
	BYTE	W96
// 048   ----------------------------------------
	BYTE	W96
// 049   ----------------------------------------
	BYTE	W96
// 050   ----------------------------------------
	BYTE	W96
// 051   ----------------------------------------
	BYTE	W96
// 052   ----------------------------------------
	BYTE	W96
// 053   ----------------------------------------
	BYTE	W96
// 054   ----------------------------------------
	BYTE	W96
// 055   ----------------------------------------
	BYTE	W96
// 056   ----------------------------------------
	BYTE	W96
// 057   ----------------------------------------
	BYTE	W96
// 058   ----------------------------------------
	BYTE	W96
// 059   ----------------------------------------
	BYTE	W96
// 060   ----------------------------------------
	BYTE	W96
// 061   ----------------------------------------
	BYTE	W96
// 062   ----------------------------------------
	BYTE	W96
// 063   ----------------------------------------
	BYTE	W96
// 064   ----------------------------------------
	BYTE	W96
// 065   ----------------------------------------
	BYTE	W96
// 066   ----------------------------------------
	BYTE	W96
// 067   ----------------------------------------
	BYTE	W96
// 068   ----------------------------------------
	BYTE	W96
// 069   ----------------------------------------
	BYTE	W96
// 070   ----------------------------------------
	BYTE	W96
// 071   ----------------------------------------
	BYTE	W96
// 072   ----------------------------------------
	BYTE	W96
// 073   ----------------------------------------
	BYTE	W36
	BYTE	W03
	BYTE		N02     Dn4   v100
	BYTE	W03
	BYTE		        Fs4 
	BYTE	W03
	BYTE		        An4 
	BYTE	W03
	BYTE		N21     Dn5 
	BYTE	W48
// 074   ----------------------------------------
	BYTE	W96
// 075   ----------------------------------------
	BYTE	W96
// 076   ----------------------------------------
	BYTE	W96
// 077   ----------------------------------------
	BYTE	W96
// 078   ----------------------------------------
	BYTE	W96
// 079   ----------------------------------------
	BYTE	W96
// 080   ----------------------------------------
	BYTE	W96
// 081   ----------------------------------------
	BYTE	W96
// 082   ----------------------------------------
	BYTE	W96
// 083   ----------------------------------------
	BYTE	W96
// 084   ----------------------------------------
	BYTE	W96
// 085   ----------------------------------------
	BYTE	W96
// 086   ----------------------------------------
id_purpose_gba_13_086:
	BYTE		N21     Fs4   v100
	BYTE	W24
	BYTE		N21   
	BYTE	W24
	BYTE		N21   
	BYTE	W24
	BYTE		N21   
	BYTE	W24
	BYTE		N21   
	BYTE	W24
	BYTE		N21   
	BYTE	W24
	BYTE	PEND
// 087   ----------------------------------------
	BYTE	PATT
	 POIN2	id_purpose_gba_13_086
// 088   ----------------------------------------
	BYTE	PATT
	 POIN2	id_purpose_gba_13_086
// 089   ----------------------------------------
	BYTE	PATT
	 POIN2	id_purpose_gba_13_086
// 090   ----------------------------------------
	BYTE	W06
	BYTE		N16     Dn3   v100
	BYTE	W18
	BYTE		N21     Dn4 
	BYTE	W24
	BYTE		N21   
	BYTE	W24
	BYTE		N21   
	BYTE	W24
	BYTE		N21   
	BYTE	W24
	BYTE		N21   
	BYTE	W24
	BYTE	GoTo
	 POIN2	id_purpose_gba_13_B1
id_purpose_gba_13_B2:
// 091   ----------------------------------------
	BYTE	W96
	BYTE	W48
// 092   ----------------------------------------
	BYTE	PATT
	 POIN2	id_purpose_gba_13_004
// 093   ----------------------------------------
	BYTE	W96
	BYTE	W48
// 094   ----------------------------------------
	BYTE	W96
	BYTE	W48
// 095   ----------------------------------------
	BYTE	PATT
	 POIN2	id_purpose_gba_13_007
// 096   ----------------------------------------
	BYTE		N21     As4   v100
	BYTE	W03
	BYTE	W03
	BYTE	W01
	BYTE	W03
	BYTE	W02
	BYTE	W03
	BYTE	W01
	BYTE	W03
	BYTE	W02
	BYTE	W03
	BYTE	W01
	BYTE	W03
	BYTE	W02
	BYTE	W03
	BYTE	W01
	BYTE	W03
	BYTE	W02
	BYTE	W03
	BYTE	W01
	BYTE	W03
	BYTE	W02
	BYTE	W03
	BYTE	W01
	BYTE	W03
	BYTE	W02
	BYTE	W03
	BYTE	W01
	BYTE	W03
	BYTE	W02
	BYTE		N02     Cn4 
	BYTE	W03
	BYTE		        Fn4 
	BYTE	W01
	BYTE	W02
	BYTE		N21     An4 
	BYTE	W01
	BYTE	W02
	BYTE	W03
	BYTE	W01
	BYTE	W03
	BYTE	W02
	BYTE	W03
	BYTE	W01
	BYTE	W03
	BYTE	W02
	BYTE	W03
	BYTE	W01
	BYTE	W03
	BYTE	W02
	BYTE	W03
	BYTE	W01
	BYTE	W03
	BYTE	W02
	BYTE	W03
	BYTE	W01
	BYTE	W03
	BYTE	W02
	BYTE	W03
	BYTE	W01
	BYTE	W03
	BYTE	W02
	BYTE	W03
	BYTE	W01
	BYTE	W03
	BYTE	W02
	BYTE	W03
	BYTE	W01
	BYTE	W02
// 097   ----------------------------------------
	BYTE	W01
	BYTE	W02
	BYTE	W03
	BYTE	W01
	BYTE	W03
	BYTE	W02
	BYTE	W03
	BYTE	W01
	BYTE	W03
	BYTE	W02
	BYTE	W03
	BYTE	W01
	BYTE	W03
	BYTE	W02
	BYTE	W03
	BYTE	W01
	BYTE	W03
	BYTE	W02
	BYTE	W03
	BYTE	W01
	BYTE	W03
	BYTE	W02
	BYTE	W03
	BYTE	W01
	BYTE	W03
	BYTE	W02
	BYTE	W03
	BYTE	W01
	BYTE	W03
	BYTE	W02
	BYTE	W03
	BYTE	W01
	BYTE	W03
	BYTE	W02
	BYTE	W03
	BYTE	W01
	BYTE	W03
	BYTE	W02
	BYTE	W03
	BYTE	W01
	BYTE	W03
	BYTE	W02
	BYTE	W03
	BYTE	W01
	BYTE	W03
	BYTE	W02
	BYTE	W03
	BYTE	W01
	BYTE	W03
	BYTE	W03
	BYTE	W02
	BYTE	W03
	BYTE	W01
	BYTE	W03
	BYTE	W02
	BYTE	W03
	BYTE	W01
	BYTE	W03
	BYTE	W02
	BYTE	W03
	BYTE	W01
	BYTE	W03
	BYTE	W02
	BYTE	W01
	BYTE	W02
// 098   ----------------------------------------
	BYTE	W60
	BYTE	W03
	BYTE		N02     Fn4 
	BYTE	W03
	BYTE		        Gn4 
	BYTE	W03
	BYTE		        An4 
	BYTE	W03
	BYTE		N21     Cn5 
	BYTE	W44
	BYTE	W02
	BYTE	W15
	BYTE	FINE

//******************************************************//
	ALIGN 4

id_purpose_gba:
	BYTE	13	// NumTrks
	BYTE	0	// NumBlks
	BYTE	id_purpose_gba_pri	// Priority
	BYTE	id_purpose_gba_rev	// Reverb.

	POIN2	id_purpose_gba_grp

	POIN2	id_purpose_gba_1
	POIN2	id_purpose_gba_2
	POIN2	id_purpose_gba_3
	POIN2	id_purpose_gba_4
	POIN2	id_purpose_gba_5
	POIN2	id_purpose_gba_6
	POIN2	id_purpose_gba_7
	POIN2	id_purpose_gba_8
	POIN2	id_purpose_gba_9
	POIN2	id_purpose_gba_10
	POIN2	id_purpose_gba_11
	POIN2	id_purpose_gba_12
	POIN2	id_purpose_gba_13

	
